#N canvas 54 147 773 829 10;
#X declare -path ./lib;
#X declare -path ./src;
#X declare -path ./lib/audio-over-ip;
#N canvas 48 96 957 837 control-panel 0;
#N canvas 323 229 686 448 init 0;
#X obj 31 24 loadbang;
#X obj 123 115 s lb1;
#X obj 97 146 s lb2;
#X obj 65 175 s lb3;
#X obj 31 205 s lb4;
#X obj 204 33 r lb4;
#X obj 85 248 declare -path ./lib;
#X obj 85 268 declare -path ./src;
#X obj 444 33 r lb1;
#X obj 444 143 r lb1;
#X msg 444 172 read -c ./data/midiNoteNames.txt;
#X obj 444 193 text define midiNoteNames;
#X obj 31 56 t b b b b;
#X msg 444 62 \; master-block-size 2048 \;;
#X obj 85 338 loadbang;
#X obj 85 396 print -n;
#X msg 85 367 OUTPUT-master.pd dependencies: ofelia;
#X obj 357 194 r lb1;
#X obj 357 223 t b b;
#X obj 357 401 s num-algos;
#X msg 417 283 read -c ../data/outputAlgorithms.txt;
#X obj 417 314 text define outputAlgorithms;
#X obj 357 372 text size outputAlgorithms;
#X msg 204 76 \; pd dsp 1 \; master-volume-set 90 \; master-output-stereo-mode-set
0 \; plots-xpos-set 100 \; plots-show-data-set 1 \;;
#X obj 85 288 declare -path ./lib/audio-over-ip;
#X connect 0 0 12 0;
#X connect 5 0 23 0;
#X connect 8 0 13 0;
#X connect 9 0 10 0;
#X connect 10 0 11 0;
#X connect 12 0 4 0;
#X connect 12 1 3 0;
#X connect 12 2 2 0;
#X connect 12 3 1 0;
#X connect 14 0 16 0;
#X connect 16 0 15 0;
#X connect 17 0 18 0;
#X connect 18 0 22 0;
#X connect 18 1 20 0;
#X connect 20 0 21 0;
#X connect 22 0 19 0;
#X restore 783 281 pd init;
#N canvas 611 146 528 213 players 0;
#X obj 32 28 algo-player 0;
#X obj 32 48 algo-player 1;
#X obj 32 68 algo-player 2;
#X obj 32 88 algo-player 3;
#X obj 32 108 algo-player 4;
#X obj 32 128 algo-player 5;
#X obj 202 28 clone spat-LFO-abs 6;
#X obj 203 59 spat-abs-8 player-0;
#X obj 203 79 spat-abs-8 player-1;
#X obj 203 99 spat-abs-8 player-2;
#X obj 203 119 spat-abs-8 player-3;
#X obj 203 139 spat-abs-8 player-4;
#X obj 203 159 spat-abs-8 player-5;
#X obj 353 59 spat-abs-2 player-0;
#X obj 353 79 spat-abs-2 player-1;
#X obj 353 99 spat-abs-2 player-2;
#X obj 353 119 spat-abs-2 player-3;
#X obj 353 139 spat-abs-2 player-4;
#X obj 353 159 spat-abs-2 player-5;
#X restore 783 301 pd players;
#X obj 21 680 hsl 300 45 40 100 0 0 master-volume master-volume-set
master-volume 8 24 0 32 -262144 -1 -1 24917 1;
#X obj 18 731 bng 15 250 50 0 run-master-plots empty plots 17 7 0 12
-262144 -1 -1;
#X obj 615 761 cpumeter;
#X obj 18 250 control-panel-abs 2;
#X obj 388 40 control-panel-abs 1;
#X obj 18 40 control-panel-abs 0;
#X obj 388 250 control-panel-abs 3;
#X obj 18 460 control-panel-abs 4;
#X obj 388 460 control-panel-abs 5;
#N canvas 496 513 531 419 netreceive 0;
#X obj 64 199 netreceive 57120;
#X obj 213 242 s connected-clients;
#X obj 64 326 spigot;
#X obj 64 355 print;
#X obj 148 333 tgl 15 0 empty empty empty 17 7 0 10 -262144 -1 -1 0
1;
#X obj 64 12 r client-netsend-data-hub;
#X obj 313 33 r connected-clients;
#X obj 313 54 change;
#X obj 313 75 t b;
#X obj 313 96 f;
#X obj 313 138 list prepend send;
#X obj 313 159 list trim;
#X obj 313 180 s client-netsend-data-hub;
#N canvas 199 169 630 384 old-parsing-system 0;
#X obj 382 261 s;
#X obj 85 192 list split 3;
#X obj 85 291 s;
#X obj 135 291 symbol;
#X text 61 316 << special case for spat LFO freq nbx color, f 23;
#X obj 85 231 list prepend color;
#X obj 85 260 list trim;
#X obj 85 148 route color;
#X obj 306 101 t l l;
#X obj 306 131 list length;
#X obj 306 152 list append;
#X obj 306 173 route 1 2;
#X obj 260 227 t b a;
#X obj 260 248 s;
#X obj 300 248 symbol;
#X obj 306 76 list;
#X text 247 273 special case for "bang" sent to a send symbol \, where
the only data transmitted is the send symbol itself, f 18;
#X obj 382 219 list split 1;
#X text 446 254 << all other incoming data is a single float or symbol
followed by the send symbol, f 17;
#X text 39 12 keeping this just in case the new streamlined parsing
system doesn't work out for any special case messages;
#X obj 85 78 inlet;
#X connect 1 0 5 0;
#X connect 1 1 3 0;
#X connect 3 0 2 1;
#X connect 5 0 6 0;
#X connect 6 0 2 0;
#X connect 7 0 1 0;
#X connect 7 1 15 0;
#X connect 8 0 9 0;
#X connect 8 1 10 1;
#X connect 9 0 10 0;
#X connect 10 0 11 0;
#X connect 11 0 12 0;
#X connect 11 1 17 0;
#X connect 12 0 13 0;
#X connect 12 1 14 0;
#X connect 14 0 13 1;
#X connect 15 0 8 0;
#X connect 17 0 0 0;
#X connect 17 1 0 1;
#X connect 20 0 7 0;
#X restore 210 325 pd old-parsing-system;
#N canvas 648 332 582 430 message-parsing 0;
#X obj 249 129 t l l;
#X obj 249 210 list split;
#X obj 260 392 s;
#X obj 324 155 list length;
#X obj 324 176 - 1;
#X obj 249 101 list;
#X text 305 80 As long as the final element of the list is the send
name \, this parsing technique should take care of any incoming message
, f 27;
#X obj 172 361 list trim;
#X obj 249 231 list trim;
#X obj 249 252 route color;
#X obj 172 340 list prepend color;
#X obj 341 317 list;
#X text 322 229 << necessary to work with route;
#X text 387 317 << necessary to re-cast to a list for setting of symbol
boxes, f 24;
#X text 22 312 color is a special case \, and needs to begin with "color"
and no list selector in order to be received and processed by the [canvas]
object, f 23;
#X obj 249 18 inlet;
#X connect 0 0 1 0;
#X connect 0 1 3 0;
#X connect 1 0 8 0;
#X connect 1 1 2 1;
#X connect 3 0 4 0;
#X connect 4 0 1 1;
#X connect 5 0 0 0;
#X connect 7 0 2 0;
#X connect 8 0 9 0;
#X connect 9 0 10 0;
#X connect 9 1 11 0;
#X connect 10 0 7 0;
#X connect 11 0 2 0;
#X connect 15 0 5 0;
#X restore 151 292 pd message-parsing;
#X obj 313 117 list append master-block-size;
#X obj 353 96 r master-block-size;
#X connect 0 0 2 0;
#X connect 0 0 14 0;
#X connect 0 1 1 0;
#X connect 2 0 3 0;
#X connect 4 0 2 1;
#X connect 5 0 0 0;
#X connect 6 0 7 0;
#X connect 7 0 8 0;
#X connect 8 0 9 0;
#X connect 9 0 15 0;
#X connect 10 0 11 0;
#X connect 11 0 12 0;
#X connect 15 0 10 0;
#X connect 16 0 9 1;
#X restore 783 321 pd netreceive;
#N canvas 25 89 1357 614 output 0;
#X obj 58 141 *~;
#X obj 1242 194 dbtorms;
#X obj 1242 223 pack f 40;
#X obj 1242 252 line~;
#X obj 118 141 *~;
#X obj 1242 92 moses 41;
#X obj 1242 123 t b;
#X msg 1242 154 0;
#X obj 1242 62 r master-volume;
#X obj 58 16 catch~ out-1;
#X obj 71 428 vu 15 80 empty empty -1 -8 0 10 -66577 -1 0 0;
#X obj 101 428 vu 15 80 empty empty -1 -8 0 10 -66577 -1 0 0;
#X obj 131 428 vu 15 80 empty empty -1 -8 0 10 -66577 -1 0 0;
#X obj 161 428 vu 15 80 empty empty -1 -8 0 10 -66577 -1 0 0;
#X obj 191 428 vu 15 80 empty empty -1 -8 0 10 -66577 -1 0 0;
#X obj 221 428 vu 15 80 empty empty -1 -8 0 10 -66577 -1 0 0;
#X obj 251 428 vu 15 80 empty empty -1 -8 0 10 -66577 -1 0 0;
#X obj 281 428 vu 15 80 empty empty -1 -8 0 10 -66577 -1 0 0;
#X obj 58 210 dac~ 1 2 3 4 5 6 7 8;
#X obj 178 141 *~;
#X obj 238 141 *~;
#X obj 298 141 *~;
#X obj 358 141 *~;
#X obj 418 141 *~;
#X obj 478 141 *~;
#X obj 220 327 env~;
#X obj 220 356 - 100;
#X obj 360 327 env~;
#X obj 360 356 - 100;
#X obj 500 327 env~;
#X obj 500 356 - 100;
#X obj 640 327 env~;
#X obj 640 356 - 100;
#X obj 780 327 env~;
#X obj 780 356 - 100;
#X obj 920 327 env~;
#X obj 920 356 - 100;
#X obj 1060 327 env~;
#X obj 1060 356 - 100;
#X obj 1200 327 env~;
#X obj 1200 356 - 100;
#X obj 198 16 catch~ out-2;
#N canvas 834 72 606 533 compressor 0;
#N canvas 0 50 450 250 (subpatch) 0;
#X array \$0-dynamic-curve 102 float 3;
#A 0 0 1 2 3 4 5 6 7 8 9 10 11 12 13 14 15 16 17 18 19 20 21 22 23
24 25 26 27 28 29 30 31 32 33 34 35 36 37 38 39 40 41 42 43 44 45 46
47 48 49 50 51 52 53 54 55 56 57 58 59 60 61 62 63 64 65 66 67 68 69
70 71 72 73 74 75 76 77 78 79 80 81 82 83 84 85 86 87 88 89 90 91 92
93 94 95 95.95 96.8 97.55 98.2 98.75 99.2;
#X coords 0 100 102 0 202 200 1 0 0;
#X restore 289 32 graph;
#N canvas 194 61 600 997 parameters 0;
#X obj 366 32 inlet;
#X obj 487 83 s \$0-speed;
#X obj 366 222 s \$0-limit;
#X obj 392 198 s \$0-knee;
#X obj 415 174 s \$0-boost;
#X obj 439 147 s \$0-ratio;
#X obj 366 57 unpack 0 0 0 0 0 0;
#X obj 462 116 s \$0-thresh;
#X obj 50 91 r \$0-limit;
#X obj 61 116 r \$0-knee;
#X obj 70 143 r \$0-boost;
#X obj 96 196 r \$0-thresh;
#X obj 82 167 r \$0-ratio;
#X obj 50 224 b;
#X obj 50 249 del 0;
#X obj 50 274 t b b;
#X obj 50 324 until;
#X obj 50 349 f;
#X obj 87 351 + 1;
#X msg 99 325 0;
#X obj 50 374 t f f;
#X obj 24 870 tabwrite \$0-dynamic-curve;
#X obj 193 708 moses;
#X obj 240 706 r \$0-thresh;
#X obj 407 554 r \$0-ratio;
#X obj 407 579 f;
#X obj 407 604 / 100;
#X obj 18 808 +;
#X msg 225 734 0;
#X obj 193 765 expr ($f1-$f2)*$f3;
#X obj 18 833 max 0;
#X obj 407 629 - 1;
#X obj 48 404 +;
#X obj 218 361 r \$0-boost;
#X obj 193 452 r \$0-limit;
#X obj 151 455 f;
#X obj 151 480 -;
#X obj 48 429 t f b;
#X obj 327 428 r \$0-knee;
#X obj 188 535 +;
#X obj 144 535 -;
#X obj 23 569 moses;
#X obj 71 569 moses;
#X obj 102 601 b;
#X obj 195 611 r \$0-limit;
#X obj 102 626 f;
#X obj 302 829 expr $f4 - ($f2-$f1)*($f2-$f1)/(4*$f3);
#X obj 23 594 +;
#X msg 50 299 102;
#X obj 327 453 f;
#X obj 327 478 / 2;
#X connect 0 0 6 0;
#X connect 6 0 2 0;
#X connect 6 1 3 0;
#X connect 6 2 4 0;
#X connect 6 3 5 0;
#X connect 6 4 7 0;
#X connect 6 5 1 0;
#X connect 8 0 13 0;
#X connect 9 0 13 0;
#X connect 10 0 13 0;
#X connect 11 0 13 0;
#X connect 12 0 13 0;
#X connect 13 0 14 0;
#X connect 14 0 15 0;
#X connect 15 0 48 0;
#X connect 15 1 19 0;
#X connect 16 0 17 0;
#X connect 17 0 18 0;
#X connect 17 0 20 0;
#X connect 18 0 17 1;
#X connect 19 0 17 1;
#X connect 20 0 32 0;
#X connect 20 1 21 1;
#X connect 20 1 22 0;
#X connect 22 0 29 0;
#X connect 22 1 28 0;
#X connect 23 0 22 1;
#X connect 23 0 29 1;
#X connect 24 0 25 0;
#X connect 25 0 26 0;
#X connect 26 0 31 0;
#X connect 27 0 30 0;
#X connect 28 0 27 1;
#X connect 29 0 27 1;
#X connect 30 0 21 0;
#X connect 31 0 29 2;
#X connect 32 0 37 0;
#X connect 33 0 32 1;
#X connect 33 0 36 1;
#X connect 33 0 47 1;
#X connect 34 0 35 1;
#X connect 35 0 36 0;
#X connect 36 0 39 0;
#X connect 36 0 40 0;
#X connect 37 0 41 0;
#X connect 37 1 35 0;
#X connect 38 0 49 0;
#X connect 39 0 42 1;
#X connect 39 0 46 1;
#X connect 40 0 41 1;
#X connect 41 0 47 0;
#X connect 41 1 42 0;
#X connect 42 0 46 0;
#X connect 42 1 43 0;
#X connect 43 0 45 0;
#X connect 44 0 45 1;
#X connect 44 0 46 3;
#X connect 45 0 27 0;
#X connect 46 0 27 0;
#X connect 47 0 27 0;
#X connect 48 0 16 0;
#X connect 49 0 50 0;
#X connect 50 0 40 1;
#X connect 50 0 39 1;
#X connect 50 0 46 2;
#X restore 303 432 pd parameters;
#X obj 303 362 loadbang;
#X msg 303 389 100 10 0 100 0 50;
#X connect 2 0 3 0;
#X connect 3 0 1 0;
#X restore 666 491 pd compressor;
#N canvas 354 210 617 518 run-compander 0;
#X obj 47 56 inlet~;
#X obj 83 134 slop~ 0 0 0 0 1e+09;
#X obj 160 32 r \$0-speed;
#X obj 160 57 f;
#X obj 160 82 / 10;
#X obj 83 98 abs~;
#X obj 111 252 tabread4~ \$0-dynamic-curve;
#X obj 80 294 -~;
#X obj 80 319 +~ 100;
#X obj 80 344 dbtorms~;
#X obj 81 222 rmstodb~;
#X obj 45 384 *~;
#X obj 45 409 outlet~;
#X text 145 288 "correct" the level by applying a gain calculated from
the difference between the measured and desired level, f 27;
#X connect 0 0 5 0;
#X connect 0 0 11 0;
#X connect 1 0 10 0;
#X connect 2 0 3 0;
#X connect 3 0 4 0;
#X connect 4 0 1 3;
#X connect 5 0 1 0;
#X connect 6 0 7 0;
#X connect 7 0 8 0;
#X connect 8 0 9 0;
#X connect 9 0 11 1;
#X connect 10 0 7 1;
#X connect 10 0 6 0;
#X connect 11 0 12 0;
#X restore 58 51 pd run-compander;
#X obj 338 16 catch~ out-3;
#X obj 478 16 catch~ out-4;
#X obj 618 16 catch~ out-5;
#X obj 758 16 catch~ out-6;
#X obj 898 16 catch~ out-7;
#X obj 1038 16 catch~ out-8;
#N canvas 354 210 617 518 run-compander 0;
#X obj 47 56 inlet~;
#X obj 83 134 slop~ 0 0 0 0 1e+09;
#X obj 160 32 r \$0-speed;
#X obj 160 57 f;
#X obj 160 82 / 10;
#X obj 83 98 abs~;
#X obj 111 252 tabread4~ \$0-dynamic-curve;
#X obj 80 294 -~;
#X obj 80 319 +~ 100;
#X obj 80 344 dbtorms~;
#X obj 81 222 rmstodb~;
#X obj 45 384 *~;
#X obj 45 409 outlet~;
#X text 145 288 "correct" the level by applying a gain calculated from
the difference between the measured and desired level, f 27;
#X connect 0 0 5 0;
#X connect 0 0 11 0;
#X connect 1 0 10 0;
#X connect 2 0 3 0;
#X connect 3 0 4 0;
#X connect 4 0 1 3;
#X connect 5 0 1 0;
#X connect 6 0 7 0;
#X connect 7 0 8 0;
#X connect 8 0 9 0;
#X connect 9 0 11 1;
#X connect 10 0 7 1;
#X connect 10 0 6 0;
#X connect 11 0 12 0;
#X restore 198 81 pd run-compander;
#N canvas 354 210 617 518 run-compander 0;
#X obj 47 56 inlet~;
#X obj 83 134 slop~ 0 0 0 0 1e+09;
#X obj 160 32 r \$0-speed;
#X obj 160 57 f;
#X obj 160 82 / 10;
#X obj 83 98 abs~;
#X obj 111 252 tabread4~ \$0-dynamic-curve;
#X obj 80 294 -~;
#X obj 80 319 +~ 100;
#X obj 80 344 dbtorms~;
#X obj 81 222 rmstodb~;
#X obj 45 384 *~;
#X obj 45 409 outlet~;
#X text 145 288 "correct" the level by applying a gain calculated from
the difference between the measured and desired level, f 27;
#X connect 0 0 5 0;
#X connect 0 0 11 0;
#X connect 1 0 10 0;
#X connect 2 0 3 0;
#X connect 3 0 4 0;
#X connect 4 0 1 3;
#X connect 5 0 1 0;
#X connect 6 0 7 0;
#X connect 7 0 8 0;
#X connect 8 0 9 0;
#X connect 9 0 11 1;
#X connect 10 0 7 1;
#X connect 10 0 6 0;
#X connect 11 0 12 0;
#X restore 338 51 pd run-compander;
#N canvas 354 210 617 518 run-compander 0;
#X obj 47 56 inlet~;
#X obj 83 134 slop~ 0 0 0 0 1e+09;
#X obj 160 32 r \$0-speed;
#X obj 160 57 f;
#X obj 160 82 / 10;
#X obj 83 98 abs~;
#X obj 111 252 tabread4~ \$0-dynamic-curve;
#X obj 80 294 -~;
#X obj 80 319 +~ 100;
#X obj 80 344 dbtorms~;
#X obj 81 222 rmstodb~;
#X obj 45 384 *~;
#X obj 45 409 outlet~;
#X text 145 288 "correct" the level by applying a gain calculated from
the difference between the measured and desired level, f 27;
#X connect 0 0 5 0;
#X connect 0 0 11 0;
#X connect 1 0 10 0;
#X connect 2 0 3 0;
#X connect 3 0 4 0;
#X connect 4 0 1 3;
#X connect 5 0 1 0;
#X connect 6 0 7 0;
#X connect 7 0 8 0;
#X connect 8 0 9 0;
#X connect 9 0 11 1;
#X connect 10 0 7 1;
#X connect 10 0 6 0;
#X connect 11 0 12 0;
#X restore 478 81 pd run-compander;
#N canvas 354 210 617 518 run-compander 0;
#X obj 47 56 inlet~;
#X obj 83 134 slop~ 0 0 0 0 1e+09;
#X obj 160 32 r \$0-speed;
#X obj 160 57 f;
#X obj 160 82 / 10;
#X obj 83 98 abs~;
#X obj 111 252 tabread4~ \$0-dynamic-curve;
#X obj 80 294 -~;
#X obj 80 319 +~ 100;
#X obj 80 344 dbtorms~;
#X obj 81 222 rmstodb~;
#X obj 45 384 *~;
#X obj 45 409 outlet~;
#X text 145 288 "correct" the level by applying a gain calculated from
the difference between the measured and desired level, f 27;
#X connect 0 0 5 0;
#X connect 0 0 11 0;
#X connect 1 0 10 0;
#X connect 2 0 3 0;
#X connect 3 0 4 0;
#X connect 4 0 1 3;
#X connect 5 0 1 0;
#X connect 6 0 7 0;
#X connect 7 0 8 0;
#X connect 8 0 9 0;
#X connect 9 0 11 1;
#X connect 10 0 7 1;
#X connect 10 0 6 0;
#X connect 11 0 12 0;
#X restore 618 51 pd run-compander;
#N canvas 354 210 617 518 run-compander 0;
#X obj 47 56 inlet~;
#X obj 83 134 slop~ 0 0 0 0 1e+09;
#X obj 160 32 r \$0-speed;
#X obj 160 57 f;
#X obj 160 82 / 10;
#X obj 83 98 abs~;
#X obj 111 252 tabread4~ \$0-dynamic-curve;
#X obj 80 294 -~;
#X obj 80 319 +~ 100;
#X obj 80 344 dbtorms~;
#X obj 81 222 rmstodb~;
#X obj 45 384 *~;
#X obj 45 409 outlet~;
#X text 145 288 "correct" the level by applying a gain calculated from
the difference between the measured and desired level, f 27;
#X connect 0 0 5 0;
#X connect 0 0 11 0;
#X connect 1 0 10 0;
#X connect 2 0 3 0;
#X connect 3 0 4 0;
#X connect 4 0 1 3;
#X connect 5 0 1 0;
#X connect 6 0 7 0;
#X connect 7 0 8 0;
#X connect 8 0 9 0;
#X connect 9 0 11 1;
#X connect 10 0 7 1;
#X connect 10 0 6 0;
#X connect 11 0 12 0;
#X restore 758 81 pd run-compander;
#N canvas 354 210 617 518 run-compander 0;
#X obj 47 56 inlet~;
#X obj 83 134 slop~ 0 0 0 0 1e+09;
#X obj 160 32 r \$0-speed;
#X obj 160 57 f;
#X obj 160 82 / 10;
#X obj 83 98 abs~;
#X obj 111 252 tabread4~ \$0-dynamic-curve;
#X obj 80 294 -~;
#X obj 80 319 +~ 100;
#X obj 80 344 dbtorms~;
#X obj 81 222 rmstodb~;
#X obj 45 384 *~;
#X obj 45 409 outlet~;
#X text 145 288 "correct" the level by applying a gain calculated from
the difference between the measured and desired level, f 27;
#X connect 0 0 5 0;
#X connect 0 0 11 0;
#X connect 1 0 10 0;
#X connect 2 0 3 0;
#X connect 3 0 4 0;
#X connect 4 0 1 3;
#X connect 5 0 1 0;
#X connect 6 0 7 0;
#X connect 7 0 8 0;
#X connect 8 0 9 0;
#X connect 9 0 11 1;
#X connect 10 0 7 1;
#X connect 10 0 6 0;
#X connect 11 0 12 0;
#X restore 898 51 pd run-compander;
#N canvas 354 210 617 518 run-compander 0;
#X obj 47 56 inlet~;
#X obj 83 134 slop~ 0 0 0 0 1e+09;
#X obj 160 32 r \$0-speed;
#X obj 160 57 f;
#X obj 160 82 / 10;
#X obj 83 98 abs~;
#X obj 111 252 tabread4~ \$0-dynamic-curve;
#X obj 80 294 -~;
#X obj 80 319 +~ 100;
#X obj 80 344 dbtorms~;
#X obj 81 222 rmstodb~;
#X obj 45 384 *~;
#X obj 45 409 outlet~;
#X text 145 288 "correct" the level by applying a gain calculated from
the difference between the measured and desired level, f 27;
#X connect 0 0 5 0;
#X connect 0 0 11 0;
#X connect 1 0 10 0;
#X connect 2 0 3 0;
#X connect 3 0 4 0;
#X connect 4 0 1 3;
#X connect 5 0 1 0;
#X connect 6 0 7 0;
#X connect 7 0 8 0;
#X connect 8 0 9 0;
#X connect 9 0 11 1;
#X connect 10 0 7 1;
#X connect 10 0 6 0;
#X connect 11 0 12 0;
#X restore 1038 81 pd run-compander;
#X obj 379 533 writesf~ 2;
#X obj 463 449 r master-output-record;
#X obj 463 470 select 0 1;
#X msg 463 491 stop;
#X obj 517 500 savepanel;
#X msg 567 541 open \$1;
#X msg 517 568 start;
#X obj 517 521 t b a;
#N canvas 1029 181 768 460 aoIP 0;
#X obj 54 39 inlet~;
#X obj 164 39 inlet~;
#X obj 54 109 quack-panel 23;
#X obj 404 109 quack-panel 45;
#X connect 0 0 2 0;
#X connect 0 0 3 0;
#X connect 1 0 2 1;
#X connect 1 0 3 1;
#X restore 240 290 pd aoIP;
#N canvas 560 367 910 430 multitrack-recording 0;
#X obj 48 35 r~ player-0-L;
#X obj 148 35 r~ player-0-R;
#X obj 248 35 r~ player-1-L;
#X obj 348 35 r~ player-1-R;
#X obj 458 35 r~ player-2-L;
#X obj 558 35 r~ player-2-R;
#X obj 658 35 r~ player-3-L;
#X obj 48 388 dac~ 9 10 11 12 13 14 15 16 17 18 19 20;
#X obj 758 35 r~ player-3-R;
#X obj 700 109 r~ player-0-prefader-output;
#X obj 710 129 r~ player-1-prefader-output;
#X obj 720 149 r~ player-2-prefader-output;
#X obj 730 169 r~ player-3-prefader-output;
#X connect 0 0 7 0;
#X connect 1 0 7 1;
#X connect 2 0 7 2;
#X connect 3 0 7 3;
#X connect 4 0 7 4;
#X connect 5 0 7 5;
#X connect 6 0 7 6;
#X connect 8 0 7 7;
#X connect 9 0 7 8;
#X connect 10 0 7 9;
#X connect 11 0 7 10;
#X connect 12 0 7 11;
#X restore 666 521 pd multitrack-recording;
#X connect 0 0 18 0;
#X connect 1 0 2 0;
#X connect 2 0 3 0;
#X connect 3 0 0 1;
#X connect 3 0 4 1;
#X connect 3 0 19 1;
#X connect 3 0 20 1;
#X connect 3 0 21 1;
#X connect 3 0 22 1;
#X connect 3 0 23 1;
#X connect 3 0 24 1;
#X connect 4 0 18 1;
#X connect 5 0 6 0;
#X connect 5 1 1 0;
#X connect 6 0 7 0;
#X connect 7 0 1 0;
#X connect 8 0 5 0;
#X connect 9 0 43 0;
#X connect 19 0 18 2;
#X connect 20 0 18 3;
#X connect 21 0 18 4;
#X connect 22 0 18 5;
#X connect 23 0 18 6;
#X connect 24 0 18 7;
#X connect 25 0 26 0;
#X connect 26 0 10 0;
#X connect 27 0 28 0;
#X connect 28 0 11 0;
#X connect 29 0 30 0;
#X connect 30 0 12 0;
#X connect 31 0 32 0;
#X connect 32 0 13 0;
#X connect 33 0 34 0;
#X connect 34 0 14 0;
#X connect 35 0 36 0;
#X connect 36 0 15 0;
#X connect 37 0 38 0;
#X connect 38 0 16 0;
#X connect 39 0 40 0;
#X connect 40 0 17 0;
#X connect 41 0 50 0;
#X connect 43 0 25 0;
#X connect 43 0 0 0;
#X connect 43 0 57 0;
#X connect 43 0 65 0;
#X connect 44 0 51 0;
#X connect 45 0 52 0;
#X connect 46 0 53 0;
#X connect 47 0 54 0;
#X connect 48 0 55 0;
#X connect 49 0 56 0;
#X connect 50 0 4 0;
#X connect 50 0 27 0;
#X connect 50 0 57 1;
#X connect 50 0 65 1;
#X connect 51 0 19 0;
#X connect 51 0 29 0;
#X connect 52 0 20 0;
#X connect 52 0 31 0;
#X connect 53 0 21 0;
#X connect 53 0 33 0;
#X connect 54 0 22 0;
#X connect 54 0 35 0;
#X connect 55 0 23 0;
#X connect 55 0 37 0;
#X connect 56 0 24 0;
#X connect 56 0 39 0;
#X connect 58 0 59 0;
#X connect 59 0 60 0;
#X connect 59 1 61 0;
#X connect 60 0 57 0;
#X connect 61 0 64 0;
#X connect 62 0 57 0;
#X connect 63 0 57 0;
#X connect 64 0 63 0;
#X connect 64 1 62 0;
#X coords 0 -1 1 1 250 120 1 60 400;
#X restore 345 681 pd output;
#N canvas 364 130 541 673 interface 0;
#X obj 374 159 bng 15 250 50 0 empty empty empty 17 7 0 10 -262144
-1 -1;
#X obj 374 179 s all-player-print;
#X msg 41 117 6;
#X obj 41 146 t f b;
#X obj 41 175 until;
#X obj 41 244 f;
#X obj 98 250 + 1;
#X msg 74 209 0;
#X msg 261 117 6;
#X obj 261 146 t f b;
#X obj 261 175 until;
#X obj 261 244 f;
#X obj 318 250 + 1;
#X msg 294 209 0;
#X msg 261 283 \; player-\$1-get-time-index bang \;;
#X obj 261 86 r get-all-player-times;
#X obj 41 86 r reset-all-player-clocks;
#X msg 41 283 \; player-\$1-time-index-set 0 \;;
#X msg 41 433 \; quack-panel-23 call-name \$2 \, server foo.ucsd.edu
\, on-off \$1 \;;
#X obj 91 373 r aoip-23-call-name;
#X obj 41 343 r aoip-23-call-on-off;
#X obj 41 403 pack f s;
#X obj 41 553 pack f s;
#X obj 41 493 r aoip-45-call-on-off;
#X obj 91 523 r aoip-45-call-name;
#X msg 41 583 \; quack-panel-45 call-name \$2 \, server foo.ucsd.edu
\, on-off \$1 \;;
#X connect 0 0 1 0;
#X connect 2 0 3 0;
#X connect 3 0 4 0;
#X connect 3 1 7 0;
#X connect 4 0 5 0;
#X connect 5 0 6 0;
#X connect 5 0 17 0;
#X connect 6 0 5 1;
#X connect 7 0 5 1;
#X connect 8 0 9 0;
#X connect 9 0 10 0;
#X connect 9 1 13 0;
#X connect 10 0 11 0;
#X connect 11 0 12 0;
#X connect 11 0 14 0;
#X connect 12 0 11 1;
#X connect 13 0 11 1;
#X connect 15 0 8 0;
#X connect 16 0 2 0;
#X connect 19 0 21 1;
#X connect 20 0 21 0;
#X connect 21 0 18 0;
#X connect 22 0 25 0;
#X connect 23 0 22 0;
#X connect 24 0 22 1;
#X restore 783 341 pd interface;
#X obj 615 720 nbx 5 28 -1e+37 1e+37 0 0 empty connected-clients clients
0 -8 0 18 -262144 -1 -1 0 256;
#X obj 18 767 tgl 15 0 master-output-stereo-mode master-output-stereo-mode-set
stereo 20 8 0 12 -262144 -1 -1 1 1;
#X obj 18 787 tgl 15 0 master-output-record empty record 17 7 0 12
-261234 -1 -1 0 1;
#X obj 258 731 tgl 15 0 plots-show-data plots-show-data-set show-data
17 7 0 12 -262144 -1 -1 1 1;
#X floatatom 118 731 5 0 0 0 - plots-xpos-set plots-xpos;
#X obj 158 731 bng 15 250 50 0 timer-reset empty timer-reset 17 7 0
12 -262144 -1 -1;
#N canvas 964 167 610 441 plotting-subprocess 0;
#X msg 113 150 pd~ stop;
#N canvas 662 254 902 382 blocking 0;
#X obj 146 152 tabreceive~ player-0-raw-output-plot;
#X obj 217 172 tabreceive~ player-1-raw-output-plot;
#X obj 287 192 tabreceive~ player-2-raw-output-plot;
#X obj 357 212 tabreceive~ player-3-raw-output-plot;
#X obj 656 115 block~ 2048 1 1;
#X obj 146 175 outlet~;
#X obj 217 195 outlet~;
#X obj 287 215 outlet~;
#X obj 357 235 outlet~;
#X obj 656 66 r master-block-size;
#X msg 656 89 set \$1 1 1;
#X connect 0 0 5 0;
#X connect 1 0 6 0;
#X connect 2 0 7 0;
#X connect 3 0 8 0;
#X connect 9 0 10 0;
#X connect 10 0 4 0;
#X restore 304 293 pd blocking;
#N canvas 555 208 463 300 send-data-transfer 0;
#X obj 64 69 s pd-subprocess-send;
#X obj 274 69 s pd-subprocess-send;
#X msg 274 46 timer-reset bang;
#X obj 274 23 r timer-reset;
#X text 64 99 Sending a bang to the subprocess should be done this
way. The sub-data-prep.pd abstraction won't send bangs because of list
processing details.;
#X obj 64 166 ./plotting/lib/sub-data-prep plots-show-data;
#X obj 64 196 ./plotting/lib/sub-data-prep plots-xpos;
#X obj 64 23 r run-master-plots;
#X msg 64 46 run-master-plots bang;
#X obj 64 256 clone ./plotting/lib/player-data-for-sub 4;
#X connect 2 0 1 0;
#X connect 3 0 2 0;
#X connect 7 0 8 0;
#X connect 8 0 0 0;
#X restore 327 189 pd send-data-transfer;
#X obj 207 257 r pd-subprocess-send;
#X obj 56 27 r lb1;
#X msg 206 133 pd~ start ./plotting/run-plotting-subprocess.pd;
#X msg 56 82 pd~ start -nogui ./plotting/run-plotting-subprocess.pd
;
#X obj 173 350 pd~ -ninsig 4 -noutsig 0 -fifo 32;
#X connect 0 0 7 0;
#X connect 1 0 7 0;
#X connect 1 1 7 1;
#X connect 1 2 7 2;
#X connect 1 3 7 3;
#X connect 3 0 7 0;
#X connect 4 0 6 0;
#X connect 5 0 7 0;
#X connect 6 0 7 0;
#X restore 783 371 pd plotting-subprocess;
#X symbolatom 148 767 20 0 0 1 aoIP-23 aoip-23-call-name-set aoip-23-call-name
;
#X obj 118 767 tgl 15 0 aoip-23-call-on-off empty empty 17 7 0 10 -262144
-1 -1 0 1;
#X symbolatom 148 787 20 0 0 1 aoIP-45 aoip-45-call-name-set aoip-45-call-name
;
#X obj 118 787 tgl 15 0 aoip-45-call-on-off empty empty 17 7 0 10 -262144
-1 -1 0 1;
#X coords 0 -1 1 1 750 800 1 10 10;
#X restore 11 12 pd control-panel;
#X coords 0 829 1 828 1100 600 0;
