#N canvas 104 150 854 808 16;
#X declare -path ./lib;
#X declare -path ./src;
#X declare -path DRFX;
#X declare -path ./plugins;
#N canvas 58 71 1004 853 control-panel 0;
#N canvas 595 351 532 478 init 0;
#X obj 31 24 loadbang;
#X obj 31 56 t b b b b;
#X obj 123 115 s lb1;
#X obj 97 146 s lb2;
#X obj 65 175 s lb3;
#X obj 31 205 s lb4;
#X obj 264 33 r lb4;
#X obj 198 313 declare -path ./lib;
#X obj 198 343 declare -path ./src;
#X msg 264 76 \; pd dsp 1 \; master-volume-set 90 \;;
#X obj 239 193 r lb1;
#X msg 239 222 \; masterBlockSize 2048 \;;
#X obj 198 373 declare -path DRFX;
#X obj 198 403 declare -path ./plugins;
#X connect 0 0 1 0;
#X connect 1 0 5 0;
#X connect 1 1 4 0;
#X connect 1 2 3 0;
#X connect 1 3 2 0;
#X connect 6 0 9 0;
#X connect 10 0 11 0;
#X restore 822 273 pd init;
#N canvas 729 215 336 300 players 0;
#X obj 99 51 algo-player 0;
#X obj 99 81 algo-player 1;
#X obj 99 111 algo-player 2;
#X obj 99 141 algo-player 3;
#X obj 99 171 algo-player 4;
#X obj 99 201 algo-player 5;
#X restore 822 303 pd players;
#X obj 21 590 hsl 300 45 40 100 0 0 master-volume master-volume-set
master-volume 8 24 0 32 -262144 -1 -1 24917 1;
#X obj 18 641 bng 15 250 50 0 reset-all-player-clocks empty reset-all-player-clocks
17 7 0 12 -262144 -1 -1;
#X obj 615 711 cpumeter;
#X obj 18 220 control-panel-abs 2;
#X obj 388 40 control-panel-abs 1;
#X obj 18 40 control-panel-abs 0;
#X obj 388 220 control-panel-abs 3;
#X obj 18 400 control-panel-abs 4;
#X obj 388 400 control-panel-abs 5;
#N canvas 294 359 752 569 netreceive 0;
#X obj 344 339 s;
#X obj 344 297 unpack f s;
#X obj 64 119 netreceive 57120;
#X obj 245 182 s connected-clients;
#X obj 64 246 spigot;
#X obj 64 275 print;
#X obj 148 253 tgl 15 0 empty empty empty 17 7 0 10 -262144 -1 -1 0
1;
#X obj 64 12 r client-netsend-data-hub;
#X obj 199 375 list split 3;
#X obj 199 474 s;
#X obj 249 474 symbol;
#X text 394 424 << special case for spat LFO freq nbx color, f 23
;
#X obj 199 414 list prepend color;
#X text 471 293 << all other incoming data is a single float followed
by the send symbol, f 17;
#X obj 199 443 list trim;
#X obj 199 241 route color;
#X connect 1 0 0 0;
#X connect 1 1 0 1;
#X connect 2 0 4 0;
#X connect 2 0 15 0;
#X connect 2 1 3 0;
#X connect 4 0 5 0;
#X connect 6 0 4 1;
#X connect 7 0 2 0;
#X connect 8 0 12 0;
#X connect 8 1 10 0;
#X connect 10 0 9 1;
#X connect 12 0 14 0;
#X connect 14 0 9 0;
#X connect 15 0 8 0;
#X connect 15 1 1 0;
#X restore 822 333 pd netreceive;
#N canvas 247 50 1373 612 output 0;
#X obj 58 141 *~;
#X obj 1162 194 dbtorms;
#X obj 1162 223 pack f 40;
#X obj 1162 252 line~;
#X obj 118 141 *~;
#X obj 1162 92 moses 41;
#X obj 1162 123 t b;
#X msg 1162 154 0;
#X obj 1162 62 r master-volume;
#X obj 58 16 catch~ out-1;
#X obj 71 428 vu 15 120 empty empty -1 -8 0 10 -66577 -1 0 0;
#X obj 101 428 vu 15 120 empty empty -1 -8 0 10 -66577 -1 0 0;
#X obj 131 428 vu 15 120 empty empty -1 -8 0 10 -66577 -1 0 0;
#X obj 161 428 vu 15 120 empty empty -1 -8 0 10 -66577 -1 0 0;
#X obj 191 428 vu 15 120 empty empty -1 -8 0 10 -66577 -1 0 0;
#X obj 221 428 vu 15 120 empty empty -1 -8 0 10 -66577 -1 0 0;
#X obj 251 428 vu 15 120 empty empty -1 -8 0 10 -66577 -1 0 0;
#X obj 281 428 vu 15 120 empty empty -1 -8 0 10 -66577 -1 0 0;
#X obj 58 210 dac~ 1 2 3 4 5 6 7 8;
#X obj 178 141 *~;
#X obj 238 141 *~;
#X obj 298 141 *~;
#X obj 358 141 *~;
#X obj 418 141 *~;
#X obj 478 141 *~;
#X obj 220 327 env~;
#X obj 220 356 - 100;
#X obj 360 327 env~;
#X obj 360 356 - 100;
#X obj 500 327 env~;
#X obj 500 356 - 100;
#X obj 640 327 env~;
#X obj 640 356 - 100;
#X obj 780 327 env~;
#X obj 780 356 - 100;
#X obj 920 327 env~;
#X obj 920 356 - 100;
#X obj 1060 327 env~;
#X obj 1060 356 - 100;
#X obj 1200 327 env~;
#X obj 1200 356 - 100;
#X obj 198 16 catch~ out-2;
#X obj 338 16 catch~ out-3;
#X obj 478 16 catch~ out-4;
#X obj 618 16 catch~ out-5;
#X obj 758 16 catch~ out-6;
#X obj 898 16 catch~ out-7;
#X obj 1038 16 catch~ out-8;
#X connect 0 0 18 0;
#X connect 1 0 2 0;
#X connect 2 0 3 0;
#X connect 3 0 0 1;
#X connect 3 0 4 1;
#X connect 3 0 19 1;
#X connect 3 0 20 1;
#X connect 3 0 21 1;
#X connect 3 0 22 1;
#X connect 3 0 23 1;
#X connect 3 0 24 1;
#X connect 4 0 18 1;
#X connect 5 0 6 0;
#X connect 5 1 1 0;
#X connect 6 0 7 0;
#X connect 7 0 1 0;
#X connect 8 0 5 0;
#X connect 9 0 25 0;
#X connect 9 0 0 0;
#X connect 19 0 18 2;
#X connect 20 0 18 3;
#X connect 21 0 18 4;
#X connect 22 0 18 5;
#X connect 23 0 18 6;
#X connect 24 0 18 7;
#X connect 25 0 26 0;
#X connect 26 0 10 0;
#X connect 27 0 28 0;
#X connect 28 0 11 0;
#X connect 29 0 30 0;
#X connect 30 0 12 0;
#X connect 31 0 32 0;
#X connect 32 0 13 0;
#X connect 33 0 34 0;
#X connect 34 0 14 0;
#X connect 35 0 36 0;
#X connect 36 0 15 0;
#X connect 37 0 38 0;
#X connect 38 0 16 0;
#X connect 39 0 40 0;
#X connect 40 0 17 0;
#X connect 41 0 27 0;
#X connect 41 0 4 0;
#X connect 42 0 29 0;
#X connect 42 0 19 0;
#X connect 43 0 31 0;
#X connect 43 0 20 0;
#X connect 44 0 33 0;
#X connect 44 0 21 0;
#X connect 45 0 35 0;
#X connect 45 0 22 0;
#X connect 46 0 37 0;
#X connect 46 0 23 0;
#X connect 47 0 39 0;
#X connect 47 0 24 0;
#X coords 0 -1 1 1 250 160 1 60 400;
#X restore 355 591 pd output;
#X floatatom 615 661 5 0 0 2 clients connected-clients -;
#N canvas 83 99 902 565 interface 0;
#X obj 87 374 bng 15 250 50 0 empty empty empty 17 7 0 10 -262144 -1
-1;
#X obj 87 394 s all-player-print;
#X msg 41 117 6;
#X obj 41 146 t f b;
#X obj 41 175 until;
#X obj 41 244 f;
#X obj 98 250 + 1;
#X msg 74 209 0;
#X msg 41 283 \; player-\$1-set-time-index 0 \;;
#X msg 411 117 6;
#X obj 411 146 t f b;
#X obj 411 175 until;
#X obj 411 244 f;
#X obj 468 250 + 1;
#X msg 444 209 0;
#X msg 411 283 \; player-\$1-get-time-index bang \;;
#X obj 411 86 r get-all-player-times;
#X obj 41 86 r reset-all-player-clocks;
#X connect 0 0 1 0;
#X connect 2 0 3 0;
#X connect 3 0 4 0;
#X connect 3 1 7 0;
#X connect 4 0 5 0;
#X connect 5 0 6 0;
#X connect 5 0 8 0;
#X connect 6 0 5 1;
#X connect 7 0 5 1;
#X connect 9 0 10 0;
#X connect 10 0 11 0;
#X connect 10 1 14 0;
#X connect 11 0 12 0;
#X connect 12 0 13 0;
#X connect 12 0 15 0;
#X connect 13 0 12 1;
#X connect 14 0 12 1;
#X connect 16 0 9 0;
#X connect 17 0 2 0;
#X restore 822 363 pd interface;
#N canvas 540 134 1166 637 DRFX 0;
#X obj 72 510 DRFX;
#N canvas 229 147 764 652 FX-plugins 0;
#X obj 270 230 pitch-shift-plugin A;
#X obj 270 20 pulser-plugin A;
#X obj 20 440 ring-mod-plugin A;
#X obj 520 20 phaser-plugin A;
#X obj 20 230 echodel-plugin B;
#X obj 20 20 echodel-plugin A;
#X obj 520 230 sr-decimator-plugin A;
#X restore 962 523 pd FX-plugins;
#X msg 310 387 matrix \$1;
#N canvas 748 231 556 393 exporting-and-loading-presets 0;
#X obj 37 307 outlet;
#X msg 37 93 export \$1;
#X obj 37 43 bng 15 250 50 0 empty empty empty 17 7 0 10 -262144 -1
-1;
#X obj 37 63 savepanel;
#X obj 159 231 qlist;
#X msg 159 203 read \$1 \, rewind \, bang;
#X obj 159 157 bng 15 250 50 0 empty empty empty 17 7 0 10 -262144
-1 -1;
#X obj 159 177 openpanel;
#X connect 1 0 0 0;
#X connect 2 0 3 0;
#X connect 3 0 1 0;
#X connect 5 0 4 0;
#X connect 6 0 7 0;
#X connect 7 0 5 0;
#X restore 561 359 pd exporting-and-loading-presets;
#X obj 92 546 bng 15 250 50 0 empty empty done 17 7 0 10 -262144 -1
-1;
#N canvas 302 81 1031 562 other-stuff 0;
#X obj 28 513 outlet;
#X msg 116 36 clear-routing;
#X msg 271 241 matrix-margin-x 150;
#X msg 281 271 matrix-margin-y 150;
#X msg 206 146 fx-out-gain-unity;
#X msg 226 176 fx-tap-out-gain-unity;
#X msg 166 86 fx-out-gain-mute;
#X msg 186 116 fx-tap-out-gain-mute;
#X msg 338 375 global-ramp-time 3000;
#X msg 311 315 \; sine-pulse-reverb-A-switch-ramp-time 5000 \;;
#X connect 1 0 0 0;
#X connect 2 0 0 0;
#X connect 3 0 0 0;
#X connect 4 0 0 0;
#X connect 5 0 0 0;
#X connect 6 0 0 0;
#X connect 7 0 0 0;
#X connect 8 0 0 0;
#X restore 605 398 pd other-stuff;
#X msg 279 270 create;
#X msg 289 310 destroy;
#X msg 183 55 input-list player-0-output player-1-output player-2-output
player-3-output player-4-output player-5-output;
#X obj 13 32 r lb1;
#X obj 13 61 t b b b b;
#X obj 310 357 r drfx-matrix;
#N canvas 261 175 1091 518 spat-abs 0;
#X obj 58 34 spat-abs-8 direct-A;
#X obj 58 64 spat-abs-8 direct-B;
#X obj 58 94 spat-abs-8 direct-C;
#X obj 58 124 spat-abs-8 direct-D;
#X obj 58 154 spat-abs-8 direct-E;
#X obj 58 184 spat-abs-8 direct-F;
#X obj 738 34 spat-abs-8 echodel-A;
#X obj 738 64 spat-abs-8 echodel-B;
#X obj 738 94 spat-abs-8 pulser-A;
#X obj 58 234 spat-abs-8 reverb-A;
#X obj 738 124 spat-abs-8 phaser-A;
#X obj 738 154 spat-abs-8 pitch-shift-A;
#X obj 738 184 spat-abs-8 ring-mod-A;
#X obj 738 214 spat-abs-8 sr-decimator-A;
#X obj 738 254 spat-LFO-abs echodel-A;
#X obj 738 284 spat-LFO-abs echodel-B;
#X obj 738 314 spat-LFO-abs pulser-A;
#X obj 338 234 spat-LFO-abs reverb-A;
#X obj 738 344 spat-LFO-abs phaser-A;
#X obj 738 374 spat-LFO-abs pitch-shift-A;
#X obj 738 404 spat-LFO-abs ring-mod-A;
#X obj 738 434 spat-LFO-abs sr-decimator-A;
#X obj 338 94 spat-LFO-abs direct-C player-2;
#X obj 338 184 spat-LFO-abs direct-F player-5;
#X obj 338 154 spat-LFO-abs direct-E player-4;
#X obj 338 124 spat-LFO-abs direct-D player-3;
#X obj 338 64 spat-LFO-abs direct-B player-1;
#X obj 338 34 spat-LFO-abs direct-A player-0;
#X obj 58 264 spat-abs-8 reverb-B;
#X obj 58 324 spat-abs-8 reverb-D;
#X obj 58 354 spat-abs-8 reverb-E;
#X obj 58 384 spat-abs-8 reverb-F;
#X obj 58 294 spat-abs-8 reverb-C;
#X obj 338 384 spat-LFO-abs reverb-F;
#X obj 338 354 spat-LFO-abs reverb-E;
#X obj 338 324 spat-LFO-abs reverb-D;
#X obj 338 294 spat-LFO-abs reverb-C;
#X obj 338 264 spat-LFO-abs reverb-B;
#X restore 962 553 pd spat-abs;
#N canvas 253 125 1346 650 fx-params 0;
#X obj 90 44 inlet;
#X obj 90 553 outlet;
#X msg 90 113 fx-params direct-A-spat-pos direct-A-spat-width direct-A-spat-lfo-freq
direct-B-spat-pos direct-B-spat-width direct-B-spat-lfo-freq direct-C-spat-pos
direct-C-spat-width direct-C-spat-lfo-freq direct-D-spat-pos direct-D-spat-width
direct-D-spat-lfo-freq direct-E-spat-pos direct-E-spat-width direct-E-spat-lfo-freq
direct-F-spat-pos direct-F-spat-width direct-F-spat-lfo-freq reverb-A-rvb
reverb-A-spat-pos reverb-A-spat-width reverb-A-spat-lfo-freq reverb-B-rvb
reverb-B-spat-pos reverb-B-spat-width reverb-B-spat-lfo-freq reverb-C-rvb
reverb-C-spat-pos reverb-C-spat-width reverb-C-spat-lfo-freq reverb-D-rvb
reverb-D-spat-pos reverb-D-spat-width reverb-D-spat-lfo-freq reverb-E-rvb
reverb-E-spat-pos reverb-E-spat-width reverb-E-spat-lfo-freq reverb-F-rvb
reverb-F-spat-pos reverb-F-spat-width reverb-F-spat-lfo-freq echodel-A-deltime
echodel-A-fdbk echodel-A-spat-pos echodel-A-spat-width echodel-A-spat-lfo-freq
echodel-B-deltime echodel-B-fdbk echodel-B-spat-pos echodel-B-spat-width
echodel-B-spat-lfo-freq phaser-A-rate phaser-A-spat-pos phaser-A-spat-width
phaser-A-spat-lfo-freq pitch-shift-A-transpo pitch-shift-A-spat-pos
pitch-shift-A-spat-width pitch-shift-A-spat-lfo-freq pulser-A-rate
pulser-A-spat-pos pulser-A-spat-width pulser-A-spat-lfo-freq ring-mod-A-freq
ring-mod-A-spat-pos ring-mod-A-spat-width ring-mod-A-spat-lfo-freq
sr-decimator-A-rate sr-decimator-A-spat-pos sr-decimator-A-spat-width
sr-decimator-A-spat-lfo-freq, f 109;
#X connect 0 0 2 0;
#X connect 2 0 1 0;
#X restore 248 196 pd fx-params;
#X obj 72 602 qlist;
#N canvas 676 55 528 552 direct-outs 0;
#X obj 29 35 direct-plugin A;
#X obj 279 35 direct-plugin B;
#X obj 29 205 direct-plugin C;
#X obj 279 205 direct-plugin D;
#X obj 29 375 direct-plugin E;
#X obj 279 375 direct-plugin F;
#X restore 962 463 pd direct-outs;
#N canvas 344 92 571 634 reverbs 0;
#X obj 46 34 reverb-plugin A;
#X obj 306 414 reverb-plugin F;
#X obj 46 414 reverb-plugin E;
#X obj 306 224 reverb-plugin D;
#X obj 46 224 reverb-plugin C;
#X obj 306 34 reverb-plugin B;
#X restore 962 493 pd reverbs;
#N canvas 465 174 1004 441 fx-list 0;
#X obj 68 39 inlet;
#X obj 68 367 outlet;
#X msg 68 98 fx-list direct-A direct-B direct-C direct-D direct-E direct-F
reverb-A reverb-B reverb-C reverb-D reverb-E reverb-F echodel-A echodel-B
phaser-A pitch-shift-A pulser-A ring-mod-A sr-decimator-A;
#X connect 0 0 2 0;
#X connect 2 0 1 0;
#X restore 209 140 pd fx-list;
#X msg 72 574 read ./FX-presets/init.txt \, rewind \, bang;
#N canvas 839 44 343 299 player-to-plugin-mappings 0;
#X obj 35 48 player2plugin-router 0 A;
#X obj 35 198 player2plugin-router 5 F;
#X obj 35 168 player2plugin-router 4 E;
#X obj 35 138 player2plugin-router 3 D;
#X obj 35 108 player2plugin-router 2 C;
#X obj 35 78 player2plugin-router 1 B;
#X restore 602 508 pd player-to-plugin-mappings;
#X connect 0 0 4 0;
#X connect 0 0 18 0;
#X connect 2 0 0 0;
#X connect 3 0 0 0;
#X connect 5 0 0 0;
#X connect 6 0 0 0;
#X connect 7 0 0 0;
#X connect 8 0 0 0;
#X connect 9 0 10 0;
#X connect 10 0 6 0;
#X connect 10 1 13 0;
#X connect 10 2 17 0;
#X connect 10 3 8 0;
#X connect 11 0 2 0;
#X connect 13 0 0 0;
#X connect 17 0 0 0;
#X connect 18 0 14 0;
#X restore 822 393 pd DRFX;
#X obj 18 671 tgl 15 0 drfx-matrix drfx-matrix-set DRFX-matrix 17 7
0 10 -262144 -1 -1 0 1;
#X obj 18 731 bng 15 250 50 0 empty empty FX 17 7 0 10 -262144 -1 -1
;
#X obj 18 711 bng 15 250 50 0 empty empty reverbs 17 7 0 10 -262144
-1 -1;
#X obj 18 691 bng 15 250 50 0 empty empty directs 17 7 0 10 -262144
-1 -1;
#X msg 508 790 \; pd-FX-plugins vis 1 \;;
#X msg 268 790 \; pd-reverbs vis 1 \;;
#X msg 18 790 \; pd-direct-outs vis 1 \;;
#X connect 17 0 20 0;
#X connect 18 0 21 0;
#X connect 19 0 22 0;
#X coords 0 -1 1 1 750 750 1 10 10;
#X restore 45 27 pd control-panel;
#X coords 0 808 1 807 1100 600 0;
