#N canvas 83 164 854 808 10;
#X declare -path ./lib;
#X declare -path ./src;
#X declare -path DRFX;
#X declare -path ./plugins;
#N canvas 58 25 946 837 control-panel 0;
#N canvas 323 229 686 380 init 0;
#X obj 31 24 loadbang;
#X obj 31 56 t b b b b;
#X obj 123 115 s lb1;
#X obj 97 146 s lb2;
#X obj 65 175 s lb3;
#X obj 31 205 s lb4;
#X obj 264 33 r lb4;
#X obj 85 278 declare -path ./lib;
#X obj 85 298 declare -path ./src;
#X msg 264 76 \; pd dsp 1 \; master-volume-set 90 \;;
#X obj 444 33 r lb1;
#X msg 444 62 \; masterBlockSize 2048 \;;
#X obj 85 318 declare -path DRFX;
#X obj 85 338 declare -path ./plugins;
#X obj 444 143 r lb1;
#X msg 444 172 read -c ./data/midiNoteNames.txt;
#X obj 444 193 text define midiNoteNames;
#X connect 0 0 1 0;
#X connect 1 0 5 0;
#X connect 1 1 4 0;
#X connect 1 2 3 0;
#X connect 1 3 2 0;
#X connect 6 0 9 0;
#X connect 10 0 11 0;
#X connect 14 0 15 0;
#X connect 15 0 16 0;
#X restore 822 273 pd init;
#N canvas 611 146 371 176 players 0;
#X obj 32 28 algo-player 0;
#X obj 32 48 algo-player 1;
#X obj 32 68 algo-player 2;
#X obj 32 88 algo-player 3;
#X obj 32 108 algo-player 4;
#X obj 32 128 algo-player 5;
#X obj 202 28 clone spat-LFO-abs 6;
#X restore 822 293 pd players;
#X obj 21 590 hsl 300 45 40 100 0 0 master-volume master-volume-set
master-volume 8 24 0 32 -262144 -1 -1 24917 1;
#X obj 18 641 bng 15 250 50 0 reset-all-player-clocks empty reset-all-player-clocks
17 7 0 12 -262144 -1 -1;
#X obj 615 711 cpumeter;
#X obj 18 220 control-panel-abs 2;
#X obj 388 40 control-panel-abs 1;
#X obj 18 40 control-panel-abs 0;
#X obj 388 220 control-panel-abs 3;
#X obj 18 400 control-panel-abs 4;
#X obj 388 400 control-panel-abs 5;
#N canvas 294 309 761 477 netreceive 0;
#X obj 496 354 s;
#X obj 64 119 netreceive 57120;
#X obj 213 162 s connected-clients;
#X obj 64 246 spigot;
#X obj 64 275 print;
#X obj 148 253 tgl 15 0 empty empty empty 17 7 0 10 -262144 -1 -1 0
1;
#X obj 64 12 r client-netsend-data-hub;
#X obj 199 285 list split 3;
#X obj 199 384 s;
#X obj 249 384 symbol;
#X text 175 409 << special case for spat LFO freq nbx color, f 23
;
#X obj 199 324 list prepend color;
#X obj 199 353 list trim;
#X obj 199 241 route color;
#X obj 420 194 t l l;
#X obj 420 224 list length;
#X obj 420 245 list append;
#X obj 420 266 route 1 2;
#X obj 374 320 t b a;
#X obj 374 341 s;
#X obj 414 341 symbol;
#X obj 420 169 list;
#X text 361 366 special case for "bang" sent to a send symbol \, where
the only data transmitted is the send symbol itself, f 18;
#X obj 496 312 list split 1;
#X text 560 347 << all other incoming data is a single float or symbol
followed by the send symbol, f 17;
#X connect 1 0 3 0;
#X connect 1 0 13 0;
#X connect 1 1 2 0;
#X connect 3 0 4 0;
#X connect 5 0 3 1;
#X connect 6 0 1 0;
#X connect 7 0 11 0;
#X connect 7 1 9 0;
#X connect 9 0 8 1;
#X connect 11 0 12 0;
#X connect 12 0 8 0;
#X connect 13 0 7 0;
#X connect 13 1 21 0;
#X connect 14 0 15 0;
#X connect 14 1 16 1;
#X connect 15 0 16 0;
#X connect 16 0 17 0;
#X connect 17 0 18 0;
#X connect 17 1 23 0;
#X connect 18 0 19 0;
#X connect 18 1 20 0;
#X connect 20 0 19 1;
#X connect 21 0 14 0;
#X connect 23 0 0 0;
#X connect 23 1 0 1;
#X restore 822 313 pd netreceive;
#N canvas 35 50 1405 612 output 0;
#X obj 58 141 *~;
#X obj 1242 194 dbtorms;
#X obj 1242 223 pack f 40;
#X obj 1242 252 line~;
#X obj 118 141 *~;
#X obj 1242 92 moses 41;
#X obj 1242 123 t b;
#X msg 1242 154 0;
#X obj 1242 62 r master-volume;
#X obj 58 16 catch~ out-1;
#X obj 71 428 vu 15 120 empty empty -1 -8 0 10 -66577 -1 0 0;
#X obj 101 428 vu 15 120 empty empty -1 -8 0 10 -66577 -1 0 0;
#X obj 131 428 vu 15 120 empty empty -1 -8 0 10 -66577 -1 0 0;
#X obj 161 428 vu 15 120 empty empty -1 -8 0 10 -66577 -1 0 0;
#X obj 191 428 vu 15 120 empty empty -1 -8 0 10 -66577 -1 0 0;
#X obj 221 428 vu 15 120 empty empty -1 -8 0 10 -66577 -1 0 0;
#X obj 251 428 vu 15 120 empty empty -1 -8 0 10 -66577 -1 0 0;
#X obj 281 428 vu 15 120 empty empty -1 -8 0 10 -66577 -1 0 0;
#X obj 58 210 dac~ 1 2 3 4 5 6 7 8;
#X obj 178 141 *~;
#X obj 238 141 *~;
#X obj 298 141 *~;
#X obj 358 141 *~;
#X obj 418 141 *~;
#X obj 478 141 *~;
#X obj 220 327 env~;
#X obj 220 356 - 100;
#X obj 360 327 env~;
#X obj 360 356 - 100;
#X obj 500 327 env~;
#X obj 500 356 - 100;
#X obj 640 327 env~;
#X obj 640 356 - 100;
#X obj 780 327 env~;
#X obj 780 356 - 100;
#X obj 920 327 env~;
#X obj 920 356 - 100;
#X obj 1060 327 env~;
#X obj 1060 356 - 100;
#X obj 1200 327 env~;
#X obj 1200 356 - 100;
#X obj 198 16 catch~ out-2;
#N canvas 834 72 606 533 compressor 0;
#N canvas 0 50 450 250 (subpatch) 0;
#X array \$0-dynamic-curve 102 float 3;
#A 0 0 1 2 3 4 5 6 7 8 9 10 11 12 13 14 15 16 17 18 19 20 21 22 23
24 25 26 27 28 29 30 31 32 33 34 35 36 37 38 39 40 41 42 43 44 45 46
47 48 49 50 51 52 53 54 55 56 57 58 59 60 61 62 63 64 65 66 67 68 69
70 71 72 73 74 75 76 77 78 79 80 81 82 83 84 85 86 87 88 89 90 91 92
93 94 95 95.95 96.8 97.55 98.2 98.75 99.2;
#X coords 0 100 102 0 202 200 1 0 0;
#X restore 289 32 graph;
#N canvas 194 61 600 997 parameters 0;
#X obj 366 32 inlet;
#X obj 487 83 s \$0-speed;
#X obj 366 222 s \$0-limit;
#X obj 392 198 s \$0-knee;
#X obj 415 174 s \$0-boost;
#X obj 439 147 s \$0-ratio;
#X obj 366 57 unpack 0 0 0 0 0 0;
#X obj 462 116 s \$0-thresh;
#X obj 50 91 r \$0-limit;
#X obj 61 116 r \$0-knee;
#X obj 70 143 r \$0-boost;
#X obj 96 196 r \$0-thresh;
#X obj 82 167 r \$0-ratio;
#X obj 50 224 b;
#X obj 50 249 del 0;
#X obj 50 274 t b b;
#X obj 50 324 until;
#X obj 50 349 f;
#X obj 87 351 + 1;
#X msg 99 325 0;
#X obj 50 374 t f f;
#X obj 24 870 tabwrite \$0-dynamic-curve;
#X obj 193 708 moses;
#X obj 240 706 r \$0-thresh;
#X obj 407 554 r \$0-ratio;
#X obj 407 579 f;
#X obj 407 604 / 100;
#X obj 18 808 +;
#X msg 225 734 0;
#X obj 193 765 expr ($f1-$f2)*$f3;
#X obj 18 833 max 0;
#X obj 407 629 - 1;
#X obj 48 404 +;
#X obj 218 361 r \$0-boost;
#X obj 193 452 r \$0-limit;
#X obj 151 455 f;
#X obj 151 480 -;
#X obj 48 429 t f b;
#X obj 327 428 r \$0-knee;
#X obj 188 535 +;
#X obj 144 535 -;
#X obj 23 569 moses;
#X obj 71 569 moses;
#X obj 102 601 b;
#X obj 195 611 r \$0-limit;
#X obj 102 626 f;
#X obj 302 829 expr $f4 - ($f2-$f1)*($f2-$f1)/(4*$f3);
#X obj 23 594 +;
#X msg 50 299 102;
#X obj 327 453 f;
#X obj 327 478 / 2;
#X connect 0 0 6 0;
#X connect 6 0 2 0;
#X connect 6 1 3 0;
#X connect 6 2 4 0;
#X connect 6 3 5 0;
#X connect 6 4 7 0;
#X connect 6 5 1 0;
#X connect 8 0 13 0;
#X connect 9 0 13 0;
#X connect 10 0 13 0;
#X connect 11 0 13 0;
#X connect 12 0 13 0;
#X connect 13 0 14 0;
#X connect 14 0 15 0;
#X connect 15 0 48 0;
#X connect 15 1 19 0;
#X connect 16 0 17 0;
#X connect 17 0 18 0;
#X connect 17 0 20 0;
#X connect 18 0 17 1;
#X connect 19 0 17 1;
#X connect 20 0 32 0;
#X connect 20 1 21 1;
#X connect 20 1 22 0;
#X connect 22 0 29 0;
#X connect 22 1 28 0;
#X connect 23 0 22 1;
#X connect 23 0 29 1;
#X connect 24 0 25 0;
#X connect 25 0 26 0;
#X connect 26 0 31 0;
#X connect 27 0 30 0;
#X connect 28 0 27 1;
#X connect 29 0 27 1;
#X connect 30 0 21 0;
#X connect 31 0 29 2;
#X connect 32 0 37 0;
#X connect 33 0 32 1;
#X connect 33 0 36 1;
#X connect 33 0 47 1;
#X connect 34 0 35 1;
#X connect 35 0 36 0;
#X connect 36 0 39 0;
#X connect 36 0 40 0;
#X connect 37 0 41 0;
#X connect 37 1 35 0;
#X connect 38 0 49 0;
#X connect 39 0 42 1;
#X connect 39 0 46 1;
#X connect 40 0 41 1;
#X connect 41 0 47 0;
#X connect 41 1 42 0;
#X connect 42 0 46 0;
#X connect 42 1 43 0;
#X connect 43 0 45 0;
#X connect 44 0 45 1;
#X connect 44 0 46 3;
#X connect 45 0 27 0;
#X connect 46 0 27 0;
#X connect 47 0 27 0;
#X connect 48 0 16 0;
#X connect 49 0 50 0;
#X connect 50 0 40 1;
#X connect 50 0 39 1;
#X connect 50 0 46 2;
#X restore 303 432 pd parameters;
#X obj 303 362 loadbang;
#X msg 303 389 100 10 0 100 0 50;
#X connect 2 0 3 0;
#X connect 3 0 1 0;
#X restore 666 491 pd compressor;
#N canvas 354 210 617 518 run-compander 0;
#X obj 47 56 inlet~;
#X obj 83 134 slop~ 0 0 0 0 1e+09;
#X obj 160 32 r \$0-speed;
#X obj 160 57 f;
#X obj 160 82 / 10;
#X obj 83 98 abs~;
#X obj 111 252 tabread4~ \$0-dynamic-curve;
#X obj 80 294 -~;
#X obj 80 319 +~ 100;
#X obj 80 344 dbtorms~;
#X obj 81 222 rmstodb~;
#X obj 45 384 *~;
#X obj 45 409 outlet~;
#X text 145 288 "correct" the level by applying a gain calculated from
the difference between the measured and desired level, f 27;
#X connect 0 0 5 0;
#X connect 0 0 11 0;
#X connect 1 0 10 0;
#X connect 2 0 3 0;
#X connect 3 0 4 0;
#X connect 4 0 1 3;
#X connect 5 0 1 0;
#X connect 6 0 7 0;
#X connect 7 0 8 0;
#X connect 8 0 9 0;
#X connect 9 0 11 1;
#X connect 10 0 7 1;
#X connect 10 0 6 0;
#X connect 11 0 12 0;
#X restore 58 51 pd run-compander;
#X obj 338 16 catch~ out-3;
#X obj 478 16 catch~ out-4;
#X obj 618 16 catch~ out-5;
#X obj 758 16 catch~ out-6;
#X obj 898 16 catch~ out-7;
#X obj 1038 16 catch~ out-8;
#N canvas 354 210 617 518 run-compander 0;
#X obj 47 56 inlet~;
#X obj 83 134 slop~ 0 0 0 0 1e+09;
#X obj 160 32 r \$0-speed;
#X obj 160 57 f;
#X obj 160 82 / 10;
#X obj 83 98 abs~;
#X obj 111 252 tabread4~ \$0-dynamic-curve;
#X obj 80 294 -~;
#X obj 80 319 +~ 100;
#X obj 80 344 dbtorms~;
#X obj 81 222 rmstodb~;
#X obj 45 384 *~;
#X obj 45 409 outlet~;
#X text 145 288 "correct" the level by applying a gain calculated from
the difference between the measured and desired level, f 27;
#X connect 0 0 5 0;
#X connect 0 0 11 0;
#X connect 1 0 10 0;
#X connect 2 0 3 0;
#X connect 3 0 4 0;
#X connect 4 0 1 3;
#X connect 5 0 1 0;
#X connect 6 0 7 0;
#X connect 7 0 8 0;
#X connect 8 0 9 0;
#X connect 9 0 11 1;
#X connect 10 0 7 1;
#X connect 10 0 6 0;
#X connect 11 0 12 0;
#X restore 198 81 pd run-compander;
#N canvas 354 210 617 518 run-compander 0;
#X obj 47 56 inlet~;
#X obj 83 134 slop~ 0 0 0 0 1e+09;
#X obj 160 32 r \$0-speed;
#X obj 160 57 f;
#X obj 160 82 / 10;
#X obj 83 98 abs~;
#X obj 111 252 tabread4~ \$0-dynamic-curve;
#X obj 80 294 -~;
#X obj 80 319 +~ 100;
#X obj 80 344 dbtorms~;
#X obj 81 222 rmstodb~;
#X obj 45 384 *~;
#X obj 45 409 outlet~;
#X text 145 288 "correct" the level by applying a gain calculated from
the difference between the measured and desired level, f 27;
#X connect 0 0 5 0;
#X connect 0 0 11 0;
#X connect 1 0 10 0;
#X connect 2 0 3 0;
#X connect 3 0 4 0;
#X connect 4 0 1 3;
#X connect 5 0 1 0;
#X connect 6 0 7 0;
#X connect 7 0 8 0;
#X connect 8 0 9 0;
#X connect 9 0 11 1;
#X connect 10 0 7 1;
#X connect 10 0 6 0;
#X connect 11 0 12 0;
#X restore 338 51 pd run-compander;
#N canvas 354 210 617 518 run-compander 0;
#X obj 47 56 inlet~;
#X obj 83 134 slop~ 0 0 0 0 1e+09;
#X obj 160 32 r \$0-speed;
#X obj 160 57 f;
#X obj 160 82 / 10;
#X obj 83 98 abs~;
#X obj 111 252 tabread4~ \$0-dynamic-curve;
#X obj 80 294 -~;
#X obj 80 319 +~ 100;
#X obj 80 344 dbtorms~;
#X obj 81 222 rmstodb~;
#X obj 45 384 *~;
#X obj 45 409 outlet~;
#X text 145 288 "correct" the level by applying a gain calculated from
the difference between the measured and desired level, f 27;
#X connect 0 0 5 0;
#X connect 0 0 11 0;
#X connect 1 0 10 0;
#X connect 2 0 3 0;
#X connect 3 0 4 0;
#X connect 4 0 1 3;
#X connect 5 0 1 0;
#X connect 6 0 7 0;
#X connect 7 0 8 0;
#X connect 8 0 9 0;
#X connect 9 0 11 1;
#X connect 10 0 7 1;
#X connect 10 0 6 0;
#X connect 11 0 12 0;
#X restore 478 81 pd run-compander;
#N canvas 354 210 617 518 run-compander 0;
#X obj 47 56 inlet~;
#X obj 83 134 slop~ 0 0 0 0 1e+09;
#X obj 160 32 r \$0-speed;
#X obj 160 57 f;
#X obj 160 82 / 10;
#X obj 83 98 abs~;
#X obj 111 252 tabread4~ \$0-dynamic-curve;
#X obj 80 294 -~;
#X obj 80 319 +~ 100;
#X obj 80 344 dbtorms~;
#X obj 81 222 rmstodb~;
#X obj 45 384 *~;
#X obj 45 409 outlet~;
#X text 145 288 "correct" the level by applying a gain calculated from
the difference between the measured and desired level, f 27;
#X connect 0 0 5 0;
#X connect 0 0 11 0;
#X connect 1 0 10 0;
#X connect 2 0 3 0;
#X connect 3 0 4 0;
#X connect 4 0 1 3;
#X connect 5 0 1 0;
#X connect 6 0 7 0;
#X connect 7 0 8 0;
#X connect 8 0 9 0;
#X connect 9 0 11 1;
#X connect 10 0 7 1;
#X connect 10 0 6 0;
#X connect 11 0 12 0;
#X restore 618 51 pd run-compander;
#N canvas 354 210 617 518 run-compander 0;
#X obj 47 56 inlet~;
#X obj 83 134 slop~ 0 0 0 0 1e+09;
#X obj 160 32 r \$0-speed;
#X obj 160 57 f;
#X obj 160 82 / 10;
#X obj 83 98 abs~;
#X obj 111 252 tabread4~ \$0-dynamic-curve;
#X obj 80 294 -~;
#X obj 80 319 +~ 100;
#X obj 80 344 dbtorms~;
#X obj 81 222 rmstodb~;
#X obj 45 384 *~;
#X obj 45 409 outlet~;
#X text 145 288 "correct" the level by applying a gain calculated from
the difference between the measured and desired level, f 27;
#X connect 0 0 5 0;
#X connect 0 0 11 0;
#X connect 1 0 10 0;
#X connect 2 0 3 0;
#X connect 3 0 4 0;
#X connect 4 0 1 3;
#X connect 5 0 1 0;
#X connect 6 0 7 0;
#X connect 7 0 8 0;
#X connect 8 0 9 0;
#X connect 9 0 11 1;
#X connect 10 0 7 1;
#X connect 10 0 6 0;
#X connect 11 0 12 0;
#X restore 758 81 pd run-compander;
#N canvas 354 210 617 518 run-compander 0;
#X obj 47 56 inlet~;
#X obj 83 134 slop~ 0 0 0 0 1e+09;
#X obj 160 32 r \$0-speed;
#X obj 160 57 f;
#X obj 160 82 / 10;
#X obj 83 98 abs~;
#X obj 111 252 tabread4~ \$0-dynamic-curve;
#X obj 80 294 -~;
#X obj 80 319 +~ 100;
#X obj 80 344 dbtorms~;
#X obj 81 222 rmstodb~;
#X obj 45 384 *~;
#X obj 45 409 outlet~;
#X text 145 288 "correct" the level by applying a gain calculated from
the difference between the measured and desired level, f 27;
#X connect 0 0 5 0;
#X connect 0 0 11 0;
#X connect 1 0 10 0;
#X connect 2 0 3 0;
#X connect 3 0 4 0;
#X connect 4 0 1 3;
#X connect 5 0 1 0;
#X connect 6 0 7 0;
#X connect 7 0 8 0;
#X connect 8 0 9 0;
#X connect 9 0 11 1;
#X connect 10 0 7 1;
#X connect 10 0 6 0;
#X connect 11 0 12 0;
#X restore 898 51 pd run-compander;
#N canvas 354 210 617 518 run-compander 0;
#X obj 47 56 inlet~;
#X obj 83 134 slop~ 0 0 0 0 1e+09;
#X obj 160 32 r \$0-speed;
#X obj 160 57 f;
#X obj 160 82 / 10;
#X obj 83 98 abs~;
#X obj 111 252 tabread4~ \$0-dynamic-curve;
#X obj 80 294 -~;
#X obj 80 319 +~ 100;
#X obj 80 344 dbtorms~;
#X obj 81 222 rmstodb~;
#X obj 45 384 *~;
#X obj 45 409 outlet~;
#X text 145 288 "correct" the level by applying a gain calculated from
the difference between the measured and desired level, f 27;
#X connect 0 0 5 0;
#X connect 0 0 11 0;
#X connect 1 0 10 0;
#X connect 2 0 3 0;
#X connect 3 0 4 0;
#X connect 4 0 1 3;
#X connect 5 0 1 0;
#X connect 6 0 7 0;
#X connect 7 0 8 0;
#X connect 8 0 9 0;
#X connect 9 0 11 1;
#X connect 10 0 7 1;
#X connect 10 0 6 0;
#X connect 11 0 12 0;
#X restore 1038 81 pd run-compander;
#X connect 0 0 18 0;
#X connect 1 0 2 0;
#X connect 2 0 3 0;
#X connect 3 0 0 1;
#X connect 3 0 4 1;
#X connect 3 0 19 1;
#X connect 3 0 20 1;
#X connect 3 0 21 1;
#X connect 3 0 22 1;
#X connect 3 0 23 1;
#X connect 3 0 24 1;
#X connect 4 0 18 1;
#X connect 5 0 6 0;
#X connect 5 1 1 0;
#X connect 6 0 7 0;
#X connect 7 0 1 0;
#X connect 8 0 5 0;
#X connect 9 0 43 0;
#X connect 19 0 18 2;
#X connect 20 0 18 3;
#X connect 21 0 18 4;
#X connect 22 0 18 5;
#X connect 23 0 18 6;
#X connect 24 0 18 7;
#X connect 25 0 26 0;
#X connect 26 0 10 0;
#X connect 27 0 28 0;
#X connect 28 0 11 0;
#X connect 29 0 30 0;
#X connect 30 0 12 0;
#X connect 31 0 32 0;
#X connect 32 0 13 0;
#X connect 33 0 34 0;
#X connect 34 0 14 0;
#X connect 35 0 36 0;
#X connect 36 0 15 0;
#X connect 37 0 38 0;
#X connect 38 0 16 0;
#X connect 39 0 40 0;
#X connect 40 0 17 0;
#X connect 41 0 50 0;
#X connect 43 0 25 0;
#X connect 43 0 0 0;
#X connect 44 0 51 0;
#X connect 45 0 52 0;
#X connect 46 0 53 0;
#X connect 47 0 54 0;
#X connect 48 0 55 0;
#X connect 49 0 56 0;
#X connect 50 0 4 0;
#X connect 50 0 27 0;
#X connect 51 0 19 0;
#X connect 51 0 29 0;
#X connect 52 0 20 0;
#X connect 52 0 31 0;
#X connect 53 0 21 0;
#X connect 53 0 33 0;
#X connect 54 0 22 0;
#X connect 54 0 35 0;
#X connect 55 0 23 0;
#X connect 55 0 37 0;
#X connect 56 0 24 0;
#X connect 56 0 39 0;
#X coords 0 -1 1 1 250 160 1 60 400;
#X restore 355 591 pd output;
#X floatatom 615 651 5 0 0 2 clients connected-clients -;
#N canvas 364 130 492 440 interface 0;
#X obj 87 374 bng 15 250 50 0 empty empty empty 17 7 0 10 -262144 -1
-1;
#X obj 87 394 s all-player-print;
#X msg 41 117 6;
#X obj 41 146 t f b;
#X obj 41 175 until;
#X obj 41 244 f;
#X obj 98 250 + 1;
#X msg 74 209 0;
#X msg 41 283 \; player-\$1-set-time-index 0 \;;
#X msg 261 117 6;
#X obj 261 146 t f b;
#X obj 261 175 until;
#X obj 261 244 f;
#X obj 318 250 + 1;
#X msg 294 209 0;
#X msg 261 283 \; player-\$1-get-time-index bang \;;
#X obj 261 86 r get-all-player-times;
#X obj 41 86 r reset-all-player-clocks;
#X connect 0 0 1 0;
#X connect 2 0 3 0;
#X connect 3 0 4 0;
#X connect 3 1 7 0;
#X connect 4 0 5 0;
#X connect 5 0 6 0;
#X connect 5 0 8 0;
#X connect 6 0 5 1;
#X connect 7 0 5 1;
#X connect 9 0 10 0;
#X connect 10 0 11 0;
#X connect 10 1 14 0;
#X connect 11 0 12 0;
#X connect 12 0 13 0;
#X connect 12 0 15 0;
#X connect 13 0 12 1;
#X connect 14 0 12 1;
#X connect 16 0 9 0;
#X connect 17 0 2 0;
#X restore 822 333 pd interface;
#N canvas 122 109 722 673 DRFX 0;
#X obj 72 510 DRFX;
#N canvas 974 326 764 683 FX-plugins 0;
#X obj 270 240 pitch-shift-plugin A;
#X obj 270 20 pulser-plugin A;
#X obj 20 460 ring-mod-plugin A;
#X obj 520 20 phaser-plugin A;
#X obj 20 240 echodel-plugin B;
#X obj 20 20 echodel-plugin A;
#X obj 520 240 sr-decimator-plugin A;
#X restore 477 533 pd FX-plugins;
#N canvas 748 231 556 393 exporting-and-loading-presets 0;
#X obj 37 307 outlet;
#X msg 37 93 export \$1;
#X obj 37 43 bng 15 250 50 0 empty empty empty 17 7 0 10 -262144 -1
-1;
#X obj 37 63 savepanel;
#X obj 159 231 qlist;
#X msg 159 203 read \$1 \, rewind \, bang;
#X obj 159 157 bng 15 250 50 0 empty empty empty 17 7 0 10 -262144
-1 -1;
#X obj 159 177 openpanel;
#X connect 1 0 0 0;
#X connect 2 0 3 0;
#X connect 3 0 1 0;
#X connect 5 0 4 0;
#X connect 6 0 7 0;
#X connect 7 0 5 0;
#X restore 282 436 pd exporting-and-loading-presets;
#X obj 92 546 bng 15 250 50 0 empty empty done 17 7 0 10 -262144 -1
-1;
#N canvas 302 81 1031 562 other-stuff 0;
#X obj 28 513 outlet;
#X msg 116 36 clear-routing;
#X msg 271 241 matrix-margin-x 150;
#X msg 281 271 matrix-margin-y 150;
#X msg 206 146 fx-out-gain-unity;
#X msg 226 176 fx-tap-out-gain-unity;
#X msg 166 86 fx-out-gain-mute;
#X msg 186 116 fx-tap-out-gain-mute;
#X msg 338 375 global-ramp-time 3000;
#X msg 311 315 \; sine-pulse-reverb-A-switch-ramp-time 5000 \;;
#X connect 1 0 0 0;
#X connect 2 0 0 0;
#X connect 3 0 0 0;
#X connect 4 0 0 0;
#X connect 5 0 0 0;
#X connect 6 0 0 0;
#X connect 7 0 0 0;
#X connect 8 0 0 0;
#X restore 326 475 pd other-stuff;
#X msg 279 270 create;
#X msg 289 310 destroy;
#X msg 183 55 input-list player-0-output player-1-output player-2-output
player-3-output player-4-output player-5-output;
#X obj 13 32 r lb1;
#X obj 13 61 t b b b b;
#X obj 310 357 r drfx-matrix;
#N canvas 261 175 664 470 spat-abs 0;
#X obj 58 34 spat-abs-8 direct-A;
#X obj 58 64 spat-abs-8 direct-B;
#X obj 58 94 spat-abs-8 direct-C;
#X obj 58 124 spat-abs-8 direct-D;
#X obj 58 154 spat-abs-8 direct-E;
#X obj 58 184 spat-abs-8 direct-F;
#X obj 338 34 spat-abs-8 echodel-A;
#X obj 338 64 spat-abs-8 echodel-B;
#X obj 338 94 spat-abs-8 pulser-A;
#X obj 58 234 spat-abs-8 reverb-A;
#X obj 338 124 spat-abs-8 phaser-A;
#X obj 338 154 spat-abs-8 pitch-shift-A;
#X obj 338 184 spat-abs-8 ring-mod-A;
#X obj 338 214 spat-abs-8 sr-decimator-A;
#X obj 58 264 spat-abs-8 reverb-B;
#X obj 58 324 spat-abs-8 reverb-D;
#X obj 58 354 spat-abs-8 reverb-E;
#X obj 58 384 spat-abs-8 reverb-F;
#X obj 58 294 spat-abs-8 reverb-C;
#X restore 477 553 pd spat-abs;
#N canvas 253 125 1346 650 fx-params 0;
#X obj 90 44 inlet;
#X obj 90 553 outlet;
#X msg 90 113 fx-params direct-A-spat-pos direct-A-spat-width direct-A-spat-lfo-freq
direct-A-spat-sig-source direct-B-spat-pos direct-B-spat-width direct-B-spat-lfo-freq
direct-B-spat-sig-source direct-C-spat-pos direct-C-spat-width direct-C-spat-lfo-freq
direct-C-spat-sig-source direct-D-spat-pos direct-D-spat-width direct-D-spat-lfo-freq
direct-D-spat-sig-source direct-E-spat-pos direct-E-spat-width direct-E-spat-lfo-freq
direct-E-spat-sig-source direct-F-spat-pos direct-F-spat-width direct-F-spat-lfo-freq
direct-F-spat-sig-source reverb-A-rvb reverb-A-spat-pos reverb-A-spat-width
reverb-A-spat-lfo-freq reverb-A-spat-sig-source reverb-B-rvb reverb-B-spat-pos
reverb-B-spat-width reverb-B-spat-lfo-freq reverb-B-spat-sig-source
reverb-C-rvb reverb-C-spat-pos reverb-C-spat-width reverb-C-spat-lfo-freq
reverb-C-spat-sig-source reverb-D-rvb reverb-D-spat-pos reverb-D-spat-width
reverb-D-spat-lfo-freq reverb-D-spat-sig-source reverb-E-rvb reverb-E-spat-pos
reverb-E-spat-width reverb-E-spat-lfo-freq reverb-E-spat-sig-source
reverb-F-rvb reverb-F-spat-pos reverb-F-spat-width reverb-F-spat-lfo-freq
reverb-F-spat-sig-source echodel-A-deltime echodel-A-fdbk echodel-A-spat-pos
echodel-A-spat-width echodel-A-spat-lfo-freq echodel-A-spat-sig-source
echodel-B-deltime echodel-B-fdbk echodel-B-spat-pos echodel-B-spat-width
echodel-B-spat-lfo-freq echodel-B-spat-sig-source phaser-A-rate phaser-A-spat-pos
phaser-A-spat-width phaser-A-spat-lfo-freq phaser-A-spat-sig-source
pitch-shift-A-transpo pitch-shift-A-spat-pos pitch-shift-A-spat-width
pitch-shift-A-spat-lfo-freq pitch-shift-A-spat-sig-source pulser-A-rate
pulser-A-spat-pos pulser-A-spat-width pulser-A-spat-lfo-freq pulser-A-spat-sig-source
ring-mod-A-freq ring-mod-A-spat-pos ring-mod-A-spat-width ring-mod-A-spat-lfo-freq
ring-mod-A-spat-sig-source sr-decimator-A-rate sr-decimator-A-spat-pos
sr-decimator-A-spat-width sr-decimator-A-spat-lfo-freq sr-decimator-A-spat-sig-source
, f 109;
#X connect 0 0 2 0;
#X connect 2 0 1 0;
#X restore 248 196 pd fx-params;
#X obj 72 602 qlist;
#N canvas 676 55 528 552 direct-outs 0;
#X obj 29 35 direct-plugin A;
#X obj 279 35 direct-plugin B;
#X obj 29 205 direct-plugin C;
#X obj 279 205 direct-plugin D;
#X obj 29 375 direct-plugin E;
#X obj 279 375 direct-plugin F;
#X restore 477 493 pd direct-outs;
#N canvas 344 92 571 634 reverbs 0;
#X obj 46 34 reverb-plugin A;
#X obj 306 414 reverb-plugin F;
#X obj 46 414 reverb-plugin E;
#X obj 306 224 reverb-plugin D;
#X obj 46 224 reverb-plugin C;
#X obj 306 34 reverb-plugin B;
#X restore 477 513 pd reverbs;
#N canvas 465 174 1004 441 fx-list 0;
#X obj 68 39 inlet;
#X obj 68 367 outlet;
#X msg 68 98 fx-list direct-A direct-B direct-C direct-D direct-E direct-F
reverb-A reverb-B reverb-C reverb-D reverb-E reverb-F echodel-A echodel-B
phaser-A pitch-shift-A pulser-A ring-mod-A sr-decimator-A;
#X connect 0 0 2 0;
#X connect 2 0 1 0;
#X restore 209 140 pd fx-list;
#X msg 72 574 read ./FX-presets/init.txt \, rewind \, bang;
#N canvas 839 44 343 299 player-to-plugin-mappings 0;
#X obj 35 48 player2plugin-router 0 A;
#X obj 35 198 player2plugin-router 5 F;
#X obj 35 168 player2plugin-router 4 E;
#X obj 35 138 player2plugin-router 3 D;
#X obj 35 108 player2plugin-router 2 C;
#X obj 35 78 player2plugin-router 1 B;
#X restore 477 378 pd player-to-plugin-mappings;
#X msg 310 387 matrix 1;
#X connect 0 0 3 0;
#X connect 0 0 17 0;
#X connect 2 0 0 0;
#X connect 4 0 0 0;
#X connect 5 0 0 0;
#X connect 6 0 0 0;
#X connect 7 0 0 0;
#X connect 8 0 9 0;
#X connect 9 0 5 0;
#X connect 9 1 12 0;
#X connect 9 2 16 0;
#X connect 9 3 7 0;
#X connect 10 0 19 0;
#X connect 12 0 0 0;
#X connect 16 0 0 0;
#X connect 17 0 13 0;
#X connect 19 0 0 0;
#X restore 822 353 pd DRFX;
#X obj 18 731 bng 15 250 50 0 empty empty FX 17 7 0 10 -262144 -1 -1
;
#X obj 18 711 bng 15 250 50 0 empty empty reverbs 17 7 0 10 -262144
-1 -1;
#X obj 18 691 bng 15 250 50 0 empty empty directs 17 7 0 10 -262144
-1 -1;
#X msg 508 781 \; pd-FX-plugins vis 1 \;;
#X msg 268 781 \; pd-reverbs vis 1 \;;
#X msg 18 781 \; pd-direct-outs vis 1 \;;
#X obj 18 671 bng 15 250 50 0 drfx-matrix empty DRFX-matrix 17 7 0
10 -262144 -1 -1;
#X connect 16 0 19 0;
#X connect 17 0 20 0;
#X connect 18 0 21 0;
#X coords 0 -1 1 1 750 750 1 10 10;
#X restore 45 27 pd control-panel;
#X coords 0 808 1 807 1100 600 0;
