#N canvas 88 192 854 808 16;
#X declare -path ./lib;
#N canvas 58 212 1036 807 control-panel 0;
#N canvas 595 351 812 444 init 0;
#X obj 31 24 loadbang;
#X obj 31 56 t b b b b;
#X obj 123 115 s lb1;
#X obj 97 146 s lb2;
#X obj 65 175 s lb3;
#X obj 31 205 s lb4;
#X obj 264 33 r lb4;
#X obj 198 313 declare -path ./lib;
#X obj 377 169 r lb2;
#X msg 264 76 \; pd dsp 1 \;;
#X obj 525 300 r lb1;
#X msg 377 201 \; sysBlockSize 64 \; maxBlockSize 16384 \;;
#X msg 525 332 \; max-slowDownFactor 200 \;;
#X connect 0 0 1 0;
#X connect 1 0 5 0;
#X connect 1 1 4 0;
#X connect 1 2 3 0;
#X connect 1 3 2 0;
#X connect 6 0 9 0;
#X connect 8 0 11 0;
#X connect 10 0 12 0;
#X restore 822 273 pd init;
#N canvas 779 215 711 337 players 0;
#X obj 99 51 algo-player 0;
#X obj 99 81 algo-player 1;
#X obj 99 111 algo-player 2;
#X obj 99 141 algo-player 3;
#X obj 99 171 algo-player 4;
#X obj 99 201 algo-player 5;
#X obj 345 114 clone spat-abs-8 6;
#X restore 822 333 pd players;
#X obj 21 590 hsl 300 45 40 100 0 0 master-volume master-volume-set
master-volume 8 16 0 32 -262144 -1 -1 0 1;
#N canvas 732 97 815 385 TODO 0;
#X text 99 67 0) blockSize 4096 and slowDownFactor 64 should be default.
So figure out tempo based on that \, and mainly move tempo in order
to change slowDownFactor \; 0) add spigot to stop clock flow for individual
players \; 0) tie blocksize and tempo so that 64 and slowDownFactor=1
mean normal speed. moving blocksize in jumps of 64 should increase
slowdownFactor by 1 \; 0) test with a cos($i1/44100 *2*pi) to test
for uninterrupted sinusoid. change Pd delay time based on that so that
there are no dropouts \; 0) for some reason \, [block~ 1] doesn't seem
to be working. [bang~] still outputs every 1.45125ms. Only larger block
size (power of 2) changes take effect. Could try re-compiling Pd to
have a different block size \; 1) switch to dry/wet combo control instead
of independent \; 2) add a limiter to the output of each player \;
3) May also want to avoid resizing the table in the plotting abs too.
Lots of table resizing can cause dropouts.;
#X restore 822 213 pd TODO;
#X obj 18 661 tgl 45 0 master-clock-switch master-clock-switch-set
Master-clock-switch 50 24 0 24 -262144 -1 -1 1 1;
#X obj 18 711 bng 15 250 50 0 reset-master-clock empty reset-master-clock
17 7 0 12 -262144 -1 -1;
#X obj 615 711 cpumeter;
#X obj 18 220 control-panel-abs 2;
#X obj 388 40 control-panel-abs 1;
#X obj 18 40 control-panel-abs 0;
#X obj 388 220 control-panel-abs 3;
#X obj 18 400 control-panel-abs 4;
#X obj 388 400 control-panel-abs 5;
#N canvas 848 293 766 396 netreceive 0;
#X obj 64 196 s;
#X obj 64 154 unpack f s;
#X obj 64 125 netreceive 57120;
#X obj 245 188 s connected-clients;
#X obj 27 236 spigot;
#X obj 27 265 print;
#X obj 111 243 tgl 15 0 empty empty empty 17 7 0 10 -262144 -1 -1 0
1;
#X obj 378 98 r player-2-gain-set;
#X floatatom 378 127 5 0 0 0 - - -;
#X obj 64 18 r client-netsend-data-hub;
#X connect 1 0 0 0;
#X connect 1 1 0 1;
#X connect 2 0 1 0;
#X connect 2 0 4 0;
#X connect 2 1 3 0;
#X connect 4 0 5 0;
#X connect 6 0 4 1;
#X connect 7 0 8 0;
#X connect 9 0 2 0;
#X restore 822 393 pd netreceive;
#N canvas 247 50 1373 612 output 0;
#X obj 58 141 *~;
#X obj 1162 194 dbtorms;
#X obj 1162 223 pack f 40;
#X obj 1162 252 line~;
#X obj 118 141 *~;
#X obj 1162 92 moses 41;
#X obj 1162 123 t b;
#X msg 1162 154 0;
#X obj 1162 62 r master-volume;
#X obj 58 16 catch~ out-1;
#X obj 71 428 vu 15 120 empty empty -1 -8 0 10 -66577 -1 0 0;
#X obj 101 428 vu 15 120 empty empty -1 -8 0 10 -66577 -1 0 0;
#X obj 131 428 vu 15 120 empty empty -1 -8 0 10 -66577 -1 0 0;
#X obj 161 428 vu 15 120 empty empty -1 -8 0 10 -66577 -1 0 0;
#X obj 191 428 vu 15 120 empty empty -1 -8 0 10 -66577 -1 0 0;
#X obj 221 428 vu 15 120 empty empty -1 -8 0 10 -66577 -1 0 0;
#X obj 251 428 vu 15 120 empty empty -1 -8 0 10 -66577 -1 0 0;
#X obj 281 428 vu 15 120 empty empty -1 -8 0 10 -66577 -1 0 0;
#X obj 58 210 dac~ 1 2 3 4 5 6 7 8;
#X obj 178 141 *~;
#X obj 238 141 *~;
#X obj 298 141 *~;
#X obj 358 141 *~;
#X obj 418 141 *~;
#X obj 478 141 *~;
#X obj 220 327 env~;
#X obj 220 356 - 100;
#X obj 360 327 env~;
#X obj 360 356 - 100;
#X obj 500 327 env~;
#X obj 500 356 - 100;
#X obj 640 327 env~;
#X obj 640 356 - 100;
#X obj 780 327 env~;
#X obj 780 356 - 100;
#X obj 920 327 env~;
#X obj 920 356 - 100;
#X obj 1060 327 env~;
#X obj 1060 356 - 100;
#X obj 1200 327 env~;
#X obj 1200 356 - 100;
#X obj 198 16 catch~ out-2;
#X obj 338 16 catch~ out-3;
#X obj 478 16 catch~ out-4;
#X obj 618 16 catch~ out-5;
#X obj 758 16 catch~ out-6;
#X obj 898 16 catch~ out-7;
#X obj 1038 16 catch~ out-8;
#X connect 0 0 18 0;
#X connect 1 0 2 0;
#X connect 2 0 3 0;
#X connect 3 0 0 1;
#X connect 3 0 4 1;
#X connect 3 0 19 1;
#X connect 3 0 20 1;
#X connect 3 0 21 1;
#X connect 3 0 22 1;
#X connect 3 0 23 1;
#X connect 3 0 24 1;
#X connect 4 0 18 1;
#X connect 5 0 6 0;
#X connect 5 1 1 0;
#X connect 6 0 7 0;
#X connect 7 0 1 0;
#X connect 8 0 5 0;
#X connect 9 0 25 0;
#X connect 9 0 0 0;
#X connect 19 0 18 2;
#X connect 20 0 18 3;
#X connect 21 0 18 4;
#X connect 22 0 18 5;
#X connect 23 0 18 6;
#X connect 24 0 18 7;
#X connect 25 0 26 0;
#X connect 26 0 10 0;
#X connect 27 0 28 0;
#X connect 28 0 11 0;
#X connect 29 0 30 0;
#X connect 30 0 12 0;
#X connect 31 0 32 0;
#X connect 32 0 13 0;
#X connect 33 0 34 0;
#X connect 34 0 14 0;
#X connect 35 0 36 0;
#X connect 36 0 15 0;
#X connect 37 0 38 0;
#X connect 38 0 16 0;
#X connect 39 0 40 0;
#X connect 40 0 17 0;
#X connect 41 0 27 0;
#X connect 41 0 4 0;
#X connect 42 0 29 0;
#X connect 42 0 19 0;
#X connect 43 0 31 0;
#X connect 43 0 20 0;
#X connect 44 0 33 0;
#X connect 44 0 21 0;
#X connect 45 0 35 0;
#X connect 45 0 22 0;
#X connect 46 0 37 0;
#X connect 46 0 23 0;
#X connect 47 0 39 0;
#X connect 47 0 24 0;
#X coords 0 -1 1 1 250 160 1 60 400;
#X restore 355 591 pd output;
#N canvas 971 370 841 469 clocks 0;
#X obj 176 128 r master-clock-switch;
#X obj 66 128 spigot;
#N canvas 130 176 796 399 time-wraparound-notes 0;
#X obj 33 56 % 3.40282e+38;
#X text 183 51 FLT_MAX;
#X obj 62 99 % 2.14748e+09;
#X text 220 99 INT_MAX;
#X text 381 72 Got saturation of this counter at 1.67772e+07 for some
reason \, even when running 64-bit Pd. So \, the mod wrap point should
be less than that \, and ideally \, a multiple of 64 samples just to
keep things in multiples of the block size., f 33;
#X msg 113 150 200000;
#X obj 113 179 * 64;
#X obj 113 208 / 44100;
#X floatatom 113 237 5 0 0 0 - - -;
#X obj 234 221 / 60;
#X floatatom 234 250 5 0 0 0 - - -;
#X floatatom 304 250 5 0 0 0 - - -;
#X obj 304 221 % 60;
#X text 148 286 4min 50sec for 44100Hz \, 64 sample blocks \, wraparound
at sample 1.28e+07;
#X connect 5 0 6 0;
#X connect 6 0 7 0;
#X connect 7 0 8 0;
#X connect 7 0 9 0;
#X connect 7 0 12 0;
#X connect 9 0 10 0;
#X connect 12 0 11 0;
#X restore 471 377 pd time-wraparound-notes;
#X msg 610 58 44100;
#X obj 610 87 t b f;
#X msg 610 116 1;
#X obj 610 145 /;
#X floatatom 610 174 15 0 0 0 - - -;
#X obj 610 207 t b f;
#X msg 610 236 1;
#X obj 610 265 /;
#X floatatom 610 304 15 0 0 0 - - -;
#X obj 66 187 s master-clock-tick;
#X obj 66 327 clone 6 player-clock;
#X obj 66 30 bang~;
#X text 145 11 Minimum time between bangs is 1.4512ms regardless of
reblocking since Pd's control system operates at the global app's 64-sample
blocksize. Could recompile Pd to a different block size., f 39;
#X obj 322 227 r player-2-time-idx;
#X floatatom 322 256 15 0 0 0 - - -;
#X floatatom 322 335 15 0 0 0 - - -;
#X obj 322 306 r player-3-time-idx;
#X msg 46 260 vis 2 1;
#X connect 0 0 1 1;
#X connect 1 0 12 0;
#X connect 3 0 4 0;
#X connect 4 0 5 0;
#X connect 4 1 6 1;
#X connect 5 0 6 0;
#X connect 6 0 7 0;
#X connect 7 0 8 0;
#X connect 8 0 9 0;
#X connect 8 1 10 1;
#X connect 9 0 10 0;
#X connect 10 0 11 0;
#X connect 14 0 1 0;
#X connect 16 0 17 0;
#X connect 19 0 18 0;
#X connect 20 0 13 0;
#X restore 822 303 pd clocks;
#X floatatom 615 661 5 0 0 2 clients connected-clients -;
#N canvas 703 232 450 300 plotting 0;
#X obj 101 143 clone 6 plotting-abs;
#X floatatom 147 34 5 0 0 0 - - -;
#X obj 147 62 s plot-duration;
#X connect 1 0 2 0;
#X restore 822 363 pd plotting;
#X coords 0 -1 1 1 750 750 1 10 10;
#X restore 45 27 pd control-panel;
#X coords 0 808 1 807 1100 600 0;
