#N canvas 104 150 854 808 16;
#X declare -path ./lib;
#X declare -path ./src;
#N canvas 58 71 1089 807 control-panel 0;
#N canvas 595 351 528 441 init 0;
#X obj 31 24 loadbang;
#X obj 31 56 t b b b b;
#X obj 123 115 s lb1;
#X obj 97 146 s lb2;
#X obj 65 175 s lb3;
#X obj 31 205 s lb4;
#X obj 264 33 r lb4;
#X obj 198 313 declare -path ./lib;
#X obj 198 343 declare -path ./src;
#X msg 264 76 \; pd dsp 1 \; master-volume-set 90 \;;
#X obj 239 193 r lb1;
#X msg 239 222 \; masterBlockSize 2048 \;;
#X connect 0 0 1 0;
#X connect 1 0 5 0;
#X connect 1 1 4 0;
#X connect 1 2 3 0;
#X connect 1 3 2 0;
#X connect 6 0 9 0;
#X connect 10 0 11 0;
#X restore 822 273 pd init;
#N canvas 729 215 595 294 players 0;
#X obj 99 51 algo-player 0;
#X obj 99 81 algo-player 1;
#X obj 99 111 algo-player 2;
#X obj 99 141 algo-player 3;
#X obj 99 171 algo-player 4;
#X obj 99 201 algo-player 5;
#X obj 345 114 clone spat-abs-8 6;
#X obj 345 154 clone spat-LFO-abs 6;
#X restore 822 303 pd players;
#X obj 21 590 hsl 300 45 40 100 0 0 master-volume master-volume-set
master-volume 8 16 0 32 -262144 -1 -1 24917 1;
#X obj 18 641 bng 15 250 50 0 reset-master-clock empty reset-master-clock
17 7 0 12 -262144 -1 -1;
#X obj 615 711 cpumeter;
#X obj 18 220 control-panel-abs 2;
#X obj 388 40 control-panel-abs 1;
#X obj 18 40 control-panel-abs 0;
#X obj 388 220 control-panel-abs 3;
#X obj 18 400 control-panel-abs 4;
#X obj 388 400 control-panel-abs 5;
#N canvas 294 359 824 541 netreceive 0;
#X obj 432 285 s;
#X obj 432 243 unpack f s;
#X obj 64 119 netreceive 57120;
#X obj 245 182 s connected-clients;
#X obj 64 246 spigot;
#X obj 64 275 print;
#X obj 148 253 tgl 15 0 empty empty empty 17 7 0 10 -262144 -1 -1 0
1;
#X obj 64 12 r client-netsend-data-hub;
#X obj 130 359 list split 3;
#X obj 130 458 s;
#X obj 180 458 symbol;
#X text 325 408 << special case for spat LFO freq nbx color, f 23
;
#X obj 130 398 list prepend color;
#X text 559 239 << all other incoming data is a single float followed
by the send symbol, f 17;
#X obj 130 427 list trim;
#X obj 199 241 route color;
#X connect 1 0 0 0;
#X connect 1 1 0 1;
#X connect 2 0 4 0;
#X connect 2 0 15 0;
#X connect 2 1 3 0;
#X connect 4 0 5 0;
#X connect 6 0 4 1;
#X connect 7 0 2 0;
#X connect 8 0 12 0;
#X connect 8 1 10 0;
#X connect 10 0 9 1;
#X connect 12 0 14 0;
#X connect 14 0 9 0;
#X connect 15 0 8 0;
#X connect 15 1 1 0;
#X restore 822 363 pd netreceive;
#N canvas 247 50 1373 612 output 0;
#X obj 58 141 *~;
#X obj 1162 194 dbtorms;
#X obj 1162 223 pack f 40;
#X obj 1162 252 line~;
#X obj 118 141 *~;
#X obj 1162 92 moses 41;
#X obj 1162 123 t b;
#X msg 1162 154 0;
#X obj 1162 62 r master-volume;
#X obj 58 16 catch~ out-1;
#X obj 71 428 vu 15 120 empty empty -1 -8 0 10 -66577 -1 0 0;
#X obj 101 428 vu 15 120 empty empty -1 -8 0 10 -66577 -1 0 0;
#X obj 131 428 vu 15 120 empty empty -1 -8 0 10 -66577 -1 0 0;
#X obj 161 428 vu 15 120 empty empty -1 -8 0 10 -66577 -1 0 0;
#X obj 191 428 vu 15 120 empty empty -1 -8 0 10 -66577 -1 0 0;
#X obj 221 428 vu 15 120 empty empty -1 -8 0 10 -66577 -1 0 0;
#X obj 251 428 vu 15 120 empty empty -1 -8 0 10 -66577 -1 0 0;
#X obj 281 428 vu 15 120 empty empty -1 -8 0 10 -66577 -1 0 0;
#X obj 58 210 dac~ 1 2 3 4 5 6 7 8;
#X obj 178 141 *~;
#X obj 238 141 *~;
#X obj 298 141 *~;
#X obj 358 141 *~;
#X obj 418 141 *~;
#X obj 478 141 *~;
#X obj 220 327 env~;
#X obj 220 356 - 100;
#X obj 360 327 env~;
#X obj 360 356 - 100;
#X obj 500 327 env~;
#X obj 500 356 - 100;
#X obj 640 327 env~;
#X obj 640 356 - 100;
#X obj 780 327 env~;
#X obj 780 356 - 100;
#X obj 920 327 env~;
#X obj 920 356 - 100;
#X obj 1060 327 env~;
#X obj 1060 356 - 100;
#X obj 1200 327 env~;
#X obj 1200 356 - 100;
#X obj 198 16 catch~ out-2;
#X obj 338 16 catch~ out-3;
#X obj 478 16 catch~ out-4;
#X obj 618 16 catch~ out-5;
#X obj 758 16 catch~ out-6;
#X obj 898 16 catch~ out-7;
#X obj 1038 16 catch~ out-8;
#X connect 0 0 18 0;
#X connect 1 0 2 0;
#X connect 2 0 3 0;
#X connect 3 0 0 1;
#X connect 3 0 4 1;
#X connect 3 0 19 1;
#X connect 3 0 20 1;
#X connect 3 0 21 1;
#X connect 3 0 22 1;
#X connect 3 0 23 1;
#X connect 3 0 24 1;
#X connect 4 0 18 1;
#X connect 5 0 6 0;
#X connect 5 1 1 0;
#X connect 6 0 7 0;
#X connect 7 0 1 0;
#X connect 8 0 5 0;
#X connect 9 0 25 0;
#X connect 9 0 0 0;
#X connect 19 0 18 2;
#X connect 20 0 18 3;
#X connect 21 0 18 4;
#X connect 22 0 18 5;
#X connect 23 0 18 6;
#X connect 24 0 18 7;
#X connect 25 0 26 0;
#X connect 26 0 10 0;
#X connect 27 0 28 0;
#X connect 28 0 11 0;
#X connect 29 0 30 0;
#X connect 30 0 12 0;
#X connect 31 0 32 0;
#X connect 32 0 13 0;
#X connect 33 0 34 0;
#X connect 34 0 14 0;
#X connect 35 0 36 0;
#X connect 36 0 15 0;
#X connect 37 0 38 0;
#X connect 38 0 16 0;
#X connect 39 0 40 0;
#X connect 40 0 17 0;
#X connect 41 0 27 0;
#X connect 41 0 4 0;
#X connect 42 0 29 0;
#X connect 42 0 19 0;
#X connect 43 0 31 0;
#X connect 43 0 20 0;
#X connect 44 0 33 0;
#X connect 44 0 21 0;
#X connect 45 0 35 0;
#X connect 45 0 22 0;
#X connect 46 0 37 0;
#X connect 46 0 23 0;
#X connect 47 0 39 0;
#X connect 47 0 24 0;
#X coords 0 -1 1 1 250 160 1 60 400;
#X restore 355 591 pd output;
#X floatatom 615 661 5 0 0 2 clients connected-clients -;
#N canvas 703 232 450 300 plotting 0;
#X obj 78 49 clone 6 plotting-abs;
#X floatatom 215 231 5 0 0 1 ms - -;
#X obj 215 259 s plot-duration;
#X obj 215 150 r lb4;
#X msg 215 179 100;
#X connect 1 0 2 0;
#X connect 3 0 4 0;
#X connect 4 0 1 0;
#X restore 822 333 pd plotting;
#N canvas 83 99 902 565 interface 0;
#X obj 87 374 bng 15 250 50 0 empty empty empty 17 7 0 10 -262144 -1
-1;
#X obj 87 394 s all-player-print;
#X msg 41 117 6;
#X obj 41 146 t f b;
#X obj 41 175 until;
#X obj 41 244 f;
#X obj 98 250 + 1;
#X msg 74 209 0;
#X msg 41 283 \; player-\$1-set-time-idx 0 \;;
#X obj 41 86 r reset-master-clock;
#X msg 411 117 6;
#X obj 411 146 t f b;
#X obj 411 175 until;
#X obj 411 244 f;
#X obj 468 250 + 1;
#X msg 444 209 0;
#X msg 411 283 \; get-player-\$1-time-index bang \;;
#X obj 411 86 r get-all-player-times;
#X connect 0 0 1 0;
#X connect 2 0 3 0;
#X connect 3 0 4 0;
#X connect 3 1 7 0;
#X connect 4 0 5 0;
#X connect 5 0 6 0;
#X connect 5 0 8 0;
#X connect 6 0 5 1;
#X connect 7 0 5 1;
#X connect 9 0 2 0;
#X connect 10 0 11 0;
#X connect 11 0 12 0;
#X connect 11 1 15 0;
#X connect 12 0 13 0;
#X connect 13 0 14 0;
#X connect 13 0 16 0;
#X connect 14 0 13 1;
#X connect 15 0 13 1;
#X connect 17 0 10 0;
#X restore 822 393 pd interface;
#X obj 18 671 bng 15 250 50 0 get-all-player-times empty get-all-player-times
17 7 0 12 -262144 -1 -1;
#X coords 0 -1 1 1 750 750 1 10 10;
#X restore 45 27 pd control-panel;
#X coords 0 808 1 807 1100 600 0;
