#N canvas 65 501 350 277 10;
#X declare -path ./lib;
#X declare -path ./src;
#X declare -path ./src;
#X declare -lib zexy;
#N canvas 397 118 588 380 control-panel 0;
#N canvas 323 229 1028 553 init 0;
#X obj 31 24 loadbang;
#X obj 123 115 s lb1;
#X obj 97 146 s lb2;
#X obj 65 175 s lb3;
#X obj 31 205 s lb4;
#X obj 204 33 r lb4;
#X obj 85 278 declare -path ./lib;
#X obj 85 298 declare -path ./src;
#X obj 444 33 r lb1;
#X obj 444 143 r lb1;
#X msg 444 172 read -c ./data/midiNoteNames.txt;
#X obj 444 193 text define midiNoteNames;
#X obj 31 56 t b b b b;
#X msg 444 62 \; master-block-size 2048 \;;
#X obj 85 398 loadbang;
#X obj 85 496 print -n;
#X obj 357 194 r lb1;
#X obj 357 223 t b b;
#X obj 357 401 s num-algos;
#X msg 417 283 read -c ../data/outputAlgorithms.txt;
#X obj 417 314 text define outputAlgorithms;
#X obj 357 372 text size outputAlgorithms;
#X obj 679 243 r lb4-c;
#X text 681 166 Here's a hack that will set the client's control-panel-abs
active player canvas color to white. That way we can focus on just
the control panels that are relevant to the master., f 42;
#N canvas 1216 525 422 385 RGB 0;
#X obj 32 36 inlet;
#X obj 109 327 outlet;
#X text 49 95 red;
#X text 119 97 green;
#X text 191 97 blue;
#X obj 175 145 t b f;
#X obj 109 203 +;
#X obj 109 228 t b f;
#X obj 109 259 +;
#X obj 109 123 * -256;
#X obj 175 123 * -1;
#X obj 109 290 - 1;
#X obj 32 60 unpack f f f;
#X obj 32 122 * -65536;
#X obj 248 72 i;
#X floatatom 248 96 5 0 0 0 - - -;
#X obj 272 122 i;
#X floatatom 272 146 5 0 0 0 - - -;
#X obj 307 172 i;
#X floatatom 307 196 5 0 0 0 - - -;
#X obj 231 12 hsl 128 15 0 255 0 0 empty empty empty -2 -8 0 10 -262144
-1 -1 0 1;
#X obj 241 32 hsl 128 15 0 255 0 0 empty empty empty -2 -8 0 10 -262144
-1 -1 0 1;
#X obj 251 52 hsl 128 15 0 255 0 0 empty empty empty -2 -8 0 10 -262144
-1 -1 0 1;
#X connect 0 0 12 0;
#X connect 5 0 6 0;
#X connect 5 1 6 1;
#X connect 6 0 7 0;
#X connect 7 0 8 0;
#X connect 7 1 8 1;
#X connect 8 0 11 0;
#X connect 9 0 6 0;
#X connect 10 0 5 0;
#X connect 11 0 1 0;
#X connect 12 0 13 0;
#X connect 12 1 9 0;
#X connect 12 2 10 0;
#X connect 13 0 8 0;
#X connect 14 0 15 0;
#X connect 14 0 13 0;
#X connect 16 0 17 0;
#X connect 16 0 9 0;
#X connect 18 0 19 0;
#X connect 18 0 10 0;
#X connect 20 0 14 0;
#X connect 21 0 16 0;
#X connect 22 0 18 0;
#X restore 679 299 pd RGB;
#X msg 679 273 255 255 255;
#X msg 679 336 \; player-2-active-canvas-set color \$1 \; player-3-active-canvas-set
color \$1 \;;
#X msg 85 447 OUTPUT-master.pd dependencies: hcs | motex | ofelia |
tof | zexy;
#X msg 204 76 \; pd dsp 1 \; master-volume-set 90 \; master-output-stereo-mode-set
1 \; plots-xpos-set 100 \; plots-winScale-set 1 \; plots-show-data-set
1 \;;
#X connect 0 0 12 0;
#X connect 5 0 28 0;
#X connect 8 0 13 0;
#X connect 9 0 10 0;
#X connect 10 0 11 0;
#X connect 12 0 4 0;
#X connect 12 1 3 0;
#X connect 12 2 2 0;
#X connect 12 3 1 0;
#X connect 14 0 27 0;
#X connect 16 0 17 0;
#X connect 17 0 21 0;
#X connect 17 1 19 0;
#X connect 19 0 20 0;
#X connect 21 0 18 0;
#X connect 22 0 25 0;
#X connect 24 0 26 0;
#X connect 25 0 24 0;
#X connect 27 0 15 0;
#X restore 385 47 pd init;
#N canvas 611 146 528 213 players 0;
#X obj 33 59 algo-player 0;
#X obj 33 79 algo-player 1;
#X obj 33 99 algo-player 2;
#X obj 33 119 algo-player 3;
#X obj 203 59 spat-abs-8 player-0;
#X obj 203 79 spat-abs-8 player-1;
#X obj 203 99 spat-abs-8 player-2;
#X obj 203 119 spat-abs-8 player-3;
#X obj 353 59 spat-abs-2 player-0;
#X obj 353 79 spat-abs-2 player-1;
#X obj 353 99 spat-abs-2 player-2;
#X obj 353 119 spat-abs-2 player-3;
#X obj 202 28 clone spat-LFO-abs 4;
#X restore 385 87 pd players;
#X obj 21 18 hsl 300 45 40 100 0 0 master-volume master-volume-set
master-volume 8 24 0 32 -262144 -1 -1 24917 1;
#X obj 208 178 cpumeter;
#N canvas 483 589 531 419 netreceive 0;
#X obj 64 199 netreceive 57120;
#X obj 213 242 s connected-clients;
#X obj 64 326 spigot;
#X obj 64 355 print;
#X obj 148 333 tgl 15 0 empty empty empty 17 7 0 10 -262144 -1 -1 0
1;
#N canvas 1213 92 684 448 message-parsing 0;
#X obj 249 129 t l l;
#X obj 249 210 list split;
#X obj 260 392 s;
#X obj 324 155 list length;
#X obj 324 176 - 1;
#X obj 249 101 list;
#X text 305 80 As long as the final element of the list is the send
name \, this parsing technique should take care of any incoming message
, f 27;
#X obj 172 361 list trim;
#X obj 249 231 list trim;
#X obj 249 252 route color;
#X obj 172 340 list prepend color;
#X obj 341 317 list;
#X text 322 229 << necessary to work with route;
#X text 387 317 << necessary to re-cast to a list for setting of symbol
boxes, f 24;
#X text 22 312 color is a special case \, and needs to begin with "color"
and no list selector in order to be received and processed by the [canvas]
object, f 23;
#X obj 249 18 inlet;
#X connect 0 0 1 0;
#X connect 0 1 3 0;
#X connect 1 0 8 0;
#X connect 1 1 2 1;
#X connect 3 0 4 0;
#X connect 4 0 1 1;
#X connect 5 0 0 0;
#X connect 7 0 2 0;
#X connect 8 0 9 0;
#X connect 9 0 10 0;
#X connect 9 1 11 0;
#X connect 10 0 7 0;
#X connect 11 0 2 0;
#X connect 15 0 5 0;
#X restore 151 292 pd message-parsing;
#X obj 64 92 r netsend-data-hub;
#X obj 333 62 r connected-clients;
#X obj 333 85 select 1;
#X obj 333 108 s net-connect-init;
#X text 301 138 When the client connects \, initialize the lb1-c loadbangs
locally \, here on the master side., f 29;
#X obj 164 23 netprep timer-min;
#X obj 164 43 netprep timer-sec;
#X connect 0 0 2 0;
#X connect 0 0 5 0;
#X connect 0 1 1 0;
#X connect 2 0 3 0;
#X connect 4 0 2 1;
#X connect 6 0 0 0;
#X connect 7 0 8 0;
#X connect 8 0 9 0;
#X restore 385 127 pd netreceive;
#X obj 18 179 bng 15 250 50 0 sync-time-with-remote empty sync-with-remote
17 7 0 12 -232576 -1 -1;
#N canvas 243 214 379 443 client-control-panels 0;
#X obj 8 8 control-panel-abs 2 1;
#X obj 8 218 control-panel-abs 3 1;
#X restore 385 107 pd client-control-panels;
#N canvas 341 270 735 672 scenes 0;
#X obj 122 157 pdcontrol;
#X obj 122 192 makefilename %s/scenes;
#X obj 54 51 r save-scene;
#X obj 54 225 symbol;
#X obj 522 157 pdcontrol;
#X obj 522 192 makefilename %s/scenes;
#X obj 454 225 symbol;
#X obj 454 51 r load-scene;
#X obj 122 84 r lb1-c;
#X obj 522 84 r lb1-c;
#X obj 454 337 s player-0-load-scene;
#X obj 454 367 s player-1-load-scene;
#X msg 122 123 dir 0;
#X msg 522 123 dir 0;
#X obj 454 288 openpanel 1;
#X obj 54 289 savepanel;
#X obj 87 509 textfile;
#X text 214 508 write a dummy text file to serve as the handle for
the scene, f 34;
#X msg 87 466 add add-notes-about-your-scene-here \, write \$1;
#X obj 87 429 makefilename %s/scene-notes.txt;
#X obj 54 568 s player-0-save-scene;
#X obj 54 608 s player-1-save-scene;
#N canvas 1109 192 709 411 create-new-directory 0;
#X msg 48 319 mkdir \$1;
#X obj 48 348 motex/system;
#X obj 148 102 operating_system;
#X obj 48 102 list prepend;
#X obj 48 155 route linux macos windows;
#X obj 48 125 list trim;
#X obj 48 208 symbol;
#X obj 155 221 list fromsymbol;
#X obj 155 191 symbol;
#N canvas 697 162 429 693 replace-slashes 0;
#X obj 37 621 outlet;
#X obj 37 591 list tosymbol;
#X obj 37 29 inlet;
#X obj 211 335 table \$0-windows-path;
#X obj 142 100 list length;
#X obj 142 123 pack f \$0;
#X msg 142 146 \; \$2-windows-path resize \$1 \;;
#X obj 127 214 list prepend 0;
#X obj 127 237 s \$0-windows-path;
#X obj 37 561 array get \$0-windows-path;
#X obj 120 303 t f b;
#X obj 120 328 until;
#X obj 120 383 f;
#X obj 160 388 + 1;
#X msg 143 354 0;
#X obj 120 273 list length;
#X obj 120 446 tabread \$0-windows-path;
#X obj 120 469 select 47;
#X msg 120 492 92;
#X obj 120 515 tabwrite \$0-windows-path;
#X obj 120 406 t f f;
#X obj 37 59 t b l l l;
#X text 263 231 Replace all forward slashes (ASCII 47) with backslashes
(ASCII 92) so that windows path works., f 20;
#X connect 1 0 0 0;
#X connect 2 0 21 0;
#X connect 4 0 5 0;
#X connect 5 0 6 0;
#X connect 7 0 8 0;
#X connect 9 0 1 0;
#X connect 10 0 11 0;
#X connect 10 1 14 0;
#X connect 11 0 12 0;
#X connect 12 0 13 0;
#X connect 12 0 20 0;
#X connect 13 0 12 1;
#X connect 14 0 12 1;
#X connect 15 0 10 0;
#X connect 16 0 17 0;
#X connect 17 0 18 0;
#X connect 18 0 19 0;
#X connect 20 0 16 0;
#X connect 20 1 19 1;
#X connect 21 0 9 0;
#X connect 21 1 15 0;
#X connect 21 2 7 0;
#X connect 21 3 4 0;
#X restore 155 255 pd replace-slashes;
#X obj 48 22 inlet;
#X obj 48 45 t a b;
#X text 307 143 Using [motex/system] to issue the mkdir command because
[ggee/shell] does not work on Windows. Unfortunately \, [motex/system]
does not report an error if mkdir fails due to insufficient privileges.
;
#X text 307 241 Thank you \, Windows \, for using backslashes instead
of forward slashes in your paths. It's a true pleasure to write special
cases like this...;
#X connect 0 0 1 0;
#X connect 2 0 3 1;
#X connect 3 0 5 0;
#X connect 4 0 6 0;
#X connect 4 1 6 0;
#X connect 4 2 8 0;
#X connect 5 0 4 0;
#X connect 6 0 0 0;
#X connect 7 0 9 0;
#X connect 8 0 7 0;
#X connect 9 0 0 0;
#X connect 10 0 11 0;
#X connect 11 0 3 0;
#X connect 11 1 2 0;
#X restore 122 380 pd create-new-directory;
#X obj 54 318 t a a a;
#X connect 0 0 1 0;
#X connect 1 0 3 1;
#X connect 2 0 3 0;
#X connect 3 0 15 0;
#X connect 4 0 5 0;
#X connect 5 0 6 1;
#X connect 6 0 14 0;
#X connect 7 0 6 0;
#X connect 8 0 12 0;
#X connect 9 0 13 0;
#X connect 12 0 0 0;
#X connect 13 0 4 0;
#X connect 14 0 11 0;
#X connect 14 0 10 0;
#X connect 15 0 23 0;
#X connect 18 0 16 0;
#X connect 19 0 18 0;
#X connect 23 0 20 0;
#X connect 23 0 21 0;
#X connect 23 1 19 0;
#X connect 23 2 22 0;
#X restore 385 227 pd scenes;
#N canvas 205 136 615 452 netconnect-init 0;
#X obj 30 52 t b b b b;
#X obj 30 18 r net-connect-init;
#X msg 244 377 \; netprep-init bang \;;
#X msg 232 146 \; player-\$1-automation-killall bang \;;
#X msg 322 96 \; player-\$1-automation-killall bang \;;
#N canvas 655 225 616 493 list-preset-file-names 0;
#X obj 48 46 inlet;
#X msg 330 219 clear;
#X obj 330 411 s preset-dropdown-items;
#X obj 185 312 list prepend add;
#X obj 185 353 list trim;
#X obj 128 43 r preset-dropdown-update;
#X obj 48 213 hcs/folder_list;
#X obj 48 172 pdcontrol;
#X obj 48 253 hcs/split_path;
#X obj 48 92 t b b;
#X msg 48 143 dir 0 ./algo-presets/*;
#X connect 0 0 9 0;
#X connect 1 0 2 0;
#X connect 3 0 4 0;
#X connect 4 0 2 0;
#X connect 5 0 9 0;
#X connect 6 0 8 0;
#X connect 7 0 6 0;
#X connect 8 1 3 0;
#X connect 9 0 10 0;
#X connect 9 1 1 0;
#X connect 10 0 7 0;
#X restore 162 207 pd list-preset-file-names;
#X obj 322 27 r lb1-c;
#X obj 232 77 r lb1-c;
#X obj 162 162 r lb2-c;
#X obj 244 343 r lb1-c;
#X obj 120 96 s lb1-c;
#X obj 90 126 s lb2-c;
#X obj 60 156 s lb3-c;
#X obj 30 186 s lb4-c;
#X obj 232 106 f 1;
#X obj 322 56 f 0;
#X obj 34 362 declare -path ./src;
#X obj 34 332 declare -lib zexy;
#X obj 162 252 r lb3-c;
#X msg 162 273 \; global-kbd-control-set 0 \;;
#X connect 0 0 13 0;
#X connect 0 1 12 0;
#X connect 0 2 11 0;
#X connect 0 3 10 0;
#X connect 1 0 0 0;
#X connect 6 0 15 0;
#X connect 7 0 14 0;
#X connect 8 0 5 0;
#X connect 9 0 2 0;
#X connect 14 0 3 0;
#X connect 15 0 4 0;
#X connect 18 0 19 0;
#X restore 385 67 pd netconnect-init;
#X obj 18 199 tgl 15 0 empty connected-clients client-connection 17
7 0 12 -262144 -1 -1 0 1;
#N canvas 35 89 1405 612 levels 0;
#X obj 58 141 *~;
#X obj 1242 194 dbtorms;
#X obj 1242 223 pack f 40;
#X obj 1242 252 line~;
#X obj 118 141 *~;
#X obj 1242 92 moses 41;
#X obj 1242 123 t b;
#X msg 1242 154 0;
#X obj 1242 62 r master-volume;
#X obj 58 16 catch~ out-1;
#X obj 68 409 vu 15 80 empty empty -1 -8 0 10 -66577 -1 0 0;
#X obj 98 409 vu 15 80 empty empty -1 -8 0 10 -66577 -1 0 0;
#X obj 211 428 vu 15 80 empty empty -1 -8 0 10 -66577 -1 0 0;
#X obj 241 428 vu 15 80 empty empty -1 -8 0 10 -66577 -1 0 0;
#X obj 271 428 vu 15 80 empty empty -1 -8 0 10 -66577 -1 0 0;
#X obj 301 428 vu 15 80 empty empty -1 -8 0 10 -66577 -1 0 0;
#X obj 331 428 vu 15 80 empty empty -1 -8 0 10 -66577 -1 0 0;
#X obj 361 428 vu 15 80 empty empty -1 -8 0 10 -66577 -1 0 0;
#X obj 58 210 dac~ 1 2 3 4 5 6 7 8;
#X obj 178 141 *~;
#X obj 238 141 *~;
#X obj 298 141 *~;
#X obj 358 141 *~;
#X obj 418 141 *~;
#X obj 478 141 *~;
#X obj 220 327 env~;
#X obj 220 356 - 100;
#X obj 360 327 env~;
#X obj 360 356 - 100;
#X obj 500 327 env~;
#X obj 500 356 - 100;
#X obj 640 327 env~;
#X obj 640 356 - 100;
#X obj 780 327 env~;
#X obj 780 356 - 100;
#X obj 920 327 env~;
#X obj 920 356 - 100;
#X obj 1060 327 env~;
#X obj 1060 356 - 100;
#X obj 1200 327 env~;
#X obj 1200 356 - 100;
#X obj 198 16 catch~ out-2;
#N canvas 834 72 606 533 compressor 0;
#N canvas 0 50 450 250 (subpatch) 0;
#X array \$0-dynamic-curve 102 float 3;
#A 0 0 1 2 3 4 5 6 7 8 9 10 11 12 13 14 15 16 17 18 19 20 21 22 23
24 25 26 27 28 29 30 31 32 33 34 35 36 37 38 39 40 41 42 43 44 45 46
47 48 49 50 51 52 53 54 55 56 57 58 59 60 61 62 63 64 65 66 67 68 69
70 71 72 73 74 75 76 77 78 79 80 81 82 83 84 85 86 87 88 89 90 91 92
93 94 95 95.95 96.8 97.55 98.2 98.75 99.2;
#X coords 0 100 102 0 202 200 1 0 0;
#X restore 289 32 graph;
#N canvas 194 61 600 997 parameters 0;
#X obj 366 32 inlet;
#X obj 487 83 s \$0-speed;
#X obj 366 222 s \$0-limit;
#X obj 392 198 s \$0-knee;
#X obj 415 174 s \$0-boost;
#X obj 439 147 s \$0-ratio;
#X obj 366 57 unpack 0 0 0 0 0 0;
#X obj 462 116 s \$0-thresh;
#X obj 50 91 r \$0-limit;
#X obj 61 116 r \$0-knee;
#X obj 70 143 r \$0-boost;
#X obj 96 196 r \$0-thresh;
#X obj 82 167 r \$0-ratio;
#X obj 50 224 b;
#X obj 50 249 del 0;
#X obj 50 274 t b b;
#X obj 50 324 until;
#X obj 50 349 f;
#X obj 87 351 + 1;
#X msg 99 325 0;
#X obj 50 374 t f f;
#X obj 24 870 tabwrite \$0-dynamic-curve;
#X obj 193 708 moses;
#X obj 240 706 r \$0-thresh;
#X obj 407 554 r \$0-ratio;
#X obj 407 579 f;
#X obj 407 604 / 100;
#X obj 18 808 +;
#X msg 225 734 0;
#X obj 193 765 expr ($f1-$f2)*$f3;
#X obj 18 833 max 0;
#X obj 407 629 - 1;
#X obj 48 404 +;
#X obj 218 361 r \$0-boost;
#X obj 193 452 r \$0-limit;
#X obj 151 455 f;
#X obj 151 480 -;
#X obj 48 429 t f b;
#X obj 327 428 r \$0-knee;
#X obj 188 535 +;
#X obj 144 535 -;
#X obj 23 569 moses;
#X obj 71 569 moses;
#X obj 102 601 b;
#X obj 195 611 r \$0-limit;
#X obj 102 626 f;
#X obj 302 829 expr $f4 - ($f2-$f1)*($f2-$f1)/(4*$f3);
#X obj 23 594 +;
#X msg 50 299 102;
#X obj 327 453 f;
#X obj 327 478 / 2;
#X connect 0 0 6 0;
#X connect 6 0 2 0;
#X connect 6 1 3 0;
#X connect 6 2 4 0;
#X connect 6 3 5 0;
#X connect 6 4 7 0;
#X connect 6 5 1 0;
#X connect 8 0 13 0;
#X connect 9 0 13 0;
#X connect 10 0 13 0;
#X connect 11 0 13 0;
#X connect 12 0 13 0;
#X connect 13 0 14 0;
#X connect 14 0 15 0;
#X connect 15 0 48 0;
#X connect 15 1 19 0;
#X connect 16 0 17 0;
#X connect 17 0 18 0;
#X connect 17 0 20 0;
#X connect 18 0 17 1;
#X connect 19 0 17 1;
#X connect 20 0 32 0;
#X connect 20 1 21 1;
#X connect 20 1 22 0;
#X connect 22 0 29 0;
#X connect 22 1 28 0;
#X connect 23 0 22 1;
#X connect 23 0 29 1;
#X connect 24 0 25 0;
#X connect 25 0 26 0;
#X connect 26 0 31 0;
#X connect 27 0 30 0;
#X connect 28 0 27 1;
#X connect 29 0 27 1;
#X connect 30 0 21 0;
#X connect 31 0 29 2;
#X connect 32 0 37 0;
#X connect 33 0 32 1;
#X connect 33 0 36 1;
#X connect 33 0 47 1;
#X connect 34 0 35 1;
#X connect 35 0 36 0;
#X connect 36 0 39 0;
#X connect 36 0 40 0;
#X connect 37 0 41 0;
#X connect 37 1 35 0;
#X connect 38 0 49 0;
#X connect 39 0 42 1;
#X connect 39 0 46 1;
#X connect 40 0 41 1;
#X connect 41 0 47 0;
#X connect 41 1 42 0;
#X connect 42 0 46 0;
#X connect 42 1 43 0;
#X connect 43 0 45 0;
#X connect 44 0 45 1;
#X connect 44 0 46 3;
#X connect 45 0 27 0;
#X connect 46 0 27 0;
#X connect 47 0 27 0;
#X connect 48 0 16 0;
#X connect 49 0 50 0;
#X connect 50 0 40 1;
#X connect 50 0 39 1;
#X connect 50 0 46 2;
#X restore 303 432 pd parameters;
#X obj 303 362 loadbang;
#X msg 303 389 100 10 0 100 0 50;
#X connect 2 0 3 0;
#X connect 3 0 1 0;
#X restore 855 484 pd compressor;
#N canvas 354 210 617 518 run-compander 0;
#X obj 47 56 inlet~;
#X obj 83 134 slop~ 0 0 0 0 1e+09;
#X obj 160 32 r \$0-speed;
#X obj 160 57 f;
#X obj 160 82 / 10;
#X obj 83 98 abs~;
#X obj 111 252 tabread4~ \$0-dynamic-curve;
#X obj 80 294 -~;
#X obj 80 319 +~ 100;
#X obj 80 344 dbtorms~;
#X obj 81 222 rmstodb~;
#X obj 45 384 *~;
#X obj 45 409 outlet~;
#X text 145 288 "correct" the level by applying a gain calculated from
the difference between the measured and desired level, f 27;
#X connect 0 0 5 0;
#X connect 0 0 11 0;
#X connect 1 0 10 0;
#X connect 2 0 3 0;
#X connect 3 0 4 0;
#X connect 4 0 1 3;
#X connect 5 0 1 0;
#X connect 6 0 7 0;
#X connect 7 0 8 0;
#X connect 8 0 9 0;
#X connect 9 0 11 1;
#X connect 10 0 7 1;
#X connect 10 0 6 0;
#X connect 11 0 12 0;
#X restore 58 51 pd run-compander;
#X obj 338 16 catch~ out-3;
#X obj 478 16 catch~ out-4;
#X obj 618 16 catch~ out-5;
#X obj 758 16 catch~ out-6;
#X obj 898 16 catch~ out-7;
#X obj 1038 16 catch~ out-8;
#N canvas 354 210 617 518 run-compander 0;
#X obj 47 56 inlet~;
#X obj 83 134 slop~ 0 0 0 0 1e+09;
#X obj 160 32 r \$0-speed;
#X obj 160 57 f;
#X obj 160 82 / 10;
#X obj 83 98 abs~;
#X obj 111 252 tabread4~ \$0-dynamic-curve;
#X obj 80 294 -~;
#X obj 80 319 +~ 100;
#X obj 80 344 dbtorms~;
#X obj 81 222 rmstodb~;
#X obj 45 384 *~;
#X obj 45 409 outlet~;
#X text 145 288 "correct" the level by applying a gain calculated from
the difference between the measured and desired level, f 27;
#X connect 0 0 5 0;
#X connect 0 0 11 0;
#X connect 1 0 10 0;
#X connect 2 0 3 0;
#X connect 3 0 4 0;
#X connect 4 0 1 3;
#X connect 5 0 1 0;
#X connect 6 0 7 0;
#X connect 7 0 8 0;
#X connect 8 0 9 0;
#X connect 9 0 11 1;
#X connect 10 0 7 1;
#X connect 10 0 6 0;
#X connect 11 0 12 0;
#X restore 198 81 pd run-compander;
#N canvas 354 210 617 518 run-compander 0;
#X obj 47 56 inlet~;
#X obj 83 134 slop~ 0 0 0 0 1e+09;
#X obj 160 32 r \$0-speed;
#X obj 160 57 f;
#X obj 160 82 / 10;
#X obj 83 98 abs~;
#X obj 111 252 tabread4~ \$0-dynamic-curve;
#X obj 80 294 -~;
#X obj 80 319 +~ 100;
#X obj 80 344 dbtorms~;
#X obj 81 222 rmstodb~;
#X obj 45 384 *~;
#X obj 45 409 outlet~;
#X text 145 288 "correct" the level by applying a gain calculated from
the difference between the measured and desired level, f 27;
#X connect 0 0 5 0;
#X connect 0 0 11 0;
#X connect 1 0 10 0;
#X connect 2 0 3 0;
#X connect 3 0 4 0;
#X connect 4 0 1 3;
#X connect 5 0 1 0;
#X connect 6 0 7 0;
#X connect 7 0 8 0;
#X connect 8 0 9 0;
#X connect 9 0 11 1;
#X connect 10 0 7 1;
#X connect 10 0 6 0;
#X connect 11 0 12 0;
#X restore 338 51 pd run-compander;
#N canvas 354 210 617 518 run-compander 0;
#X obj 47 56 inlet~;
#X obj 83 134 slop~ 0 0 0 0 1e+09;
#X obj 160 32 r \$0-speed;
#X obj 160 57 f;
#X obj 160 82 / 10;
#X obj 83 98 abs~;
#X obj 111 252 tabread4~ \$0-dynamic-curve;
#X obj 80 294 -~;
#X obj 80 319 +~ 100;
#X obj 80 344 dbtorms~;
#X obj 81 222 rmstodb~;
#X obj 45 384 *~;
#X obj 45 409 outlet~;
#X text 145 288 "correct" the level by applying a gain calculated from
the difference between the measured and desired level, f 27;
#X connect 0 0 5 0;
#X connect 0 0 11 0;
#X connect 1 0 10 0;
#X connect 2 0 3 0;
#X connect 3 0 4 0;
#X connect 4 0 1 3;
#X connect 5 0 1 0;
#X connect 6 0 7 0;
#X connect 7 0 8 0;
#X connect 8 0 9 0;
#X connect 9 0 11 1;
#X connect 10 0 7 1;
#X connect 10 0 6 0;
#X connect 11 0 12 0;
#X restore 478 81 pd run-compander;
#N canvas 354 210 617 518 run-compander 0;
#X obj 47 56 inlet~;
#X obj 83 134 slop~ 0 0 0 0 1e+09;
#X obj 160 32 r \$0-speed;
#X obj 160 57 f;
#X obj 160 82 / 10;
#X obj 83 98 abs~;
#X obj 111 252 tabread4~ \$0-dynamic-curve;
#X obj 80 294 -~;
#X obj 80 319 +~ 100;
#X obj 80 344 dbtorms~;
#X obj 81 222 rmstodb~;
#X obj 45 384 *~;
#X obj 45 409 outlet~;
#X text 145 288 "correct" the level by applying a gain calculated from
the difference between the measured and desired level, f 27;
#X connect 0 0 5 0;
#X connect 0 0 11 0;
#X connect 1 0 10 0;
#X connect 2 0 3 0;
#X connect 3 0 4 0;
#X connect 4 0 1 3;
#X connect 5 0 1 0;
#X connect 6 0 7 0;
#X connect 7 0 8 0;
#X connect 8 0 9 0;
#X connect 9 0 11 1;
#X connect 10 0 7 1;
#X connect 10 0 6 0;
#X connect 11 0 12 0;
#X restore 618 51 pd run-compander;
#N canvas 354 210 617 518 run-compander 0;
#X obj 47 56 inlet~;
#X obj 83 134 slop~ 0 0 0 0 1e+09;
#X obj 160 32 r \$0-speed;
#X obj 160 57 f;
#X obj 160 82 / 10;
#X obj 83 98 abs~;
#X obj 111 252 tabread4~ \$0-dynamic-curve;
#X obj 80 294 -~;
#X obj 80 319 +~ 100;
#X obj 80 344 dbtorms~;
#X obj 81 222 rmstodb~;
#X obj 45 384 *~;
#X obj 45 409 outlet~;
#X text 145 288 "correct" the level by applying a gain calculated from
the difference between the measured and desired level, f 27;
#X connect 0 0 5 0;
#X connect 0 0 11 0;
#X connect 1 0 10 0;
#X connect 2 0 3 0;
#X connect 3 0 4 0;
#X connect 4 0 1 3;
#X connect 5 0 1 0;
#X connect 6 0 7 0;
#X connect 7 0 8 0;
#X connect 8 0 9 0;
#X connect 9 0 11 1;
#X connect 10 0 7 1;
#X connect 10 0 6 0;
#X connect 11 0 12 0;
#X restore 758 81 pd run-compander;
#N canvas 354 210 617 518 run-compander 0;
#X obj 47 56 inlet~;
#X obj 83 134 slop~ 0 0 0 0 1e+09;
#X obj 160 32 r \$0-speed;
#X obj 160 57 f;
#X obj 160 82 / 10;
#X obj 83 98 abs~;
#X obj 111 252 tabread4~ \$0-dynamic-curve;
#X obj 80 294 -~;
#X obj 80 319 +~ 100;
#X obj 80 344 dbtorms~;
#X obj 81 222 rmstodb~;
#X obj 45 384 *~;
#X obj 45 409 outlet~;
#X text 145 288 "correct" the level by applying a gain calculated from
the difference between the measured and desired level, f 27;
#X connect 0 0 5 0;
#X connect 0 0 11 0;
#X connect 1 0 10 0;
#X connect 2 0 3 0;
#X connect 3 0 4 0;
#X connect 4 0 1 3;
#X connect 5 0 1 0;
#X connect 6 0 7 0;
#X connect 7 0 8 0;
#X connect 8 0 9 0;
#X connect 9 0 11 1;
#X connect 10 0 7 1;
#X connect 10 0 6 0;
#X connect 11 0 12 0;
#X restore 898 51 pd run-compander;
#N canvas 354 210 617 518 run-compander 0;
#X obj 47 56 inlet~;
#X obj 83 134 slop~ 0 0 0 0 1e+09;
#X obj 160 32 r \$0-speed;
#X obj 160 57 f;
#X obj 160 82 / 10;
#X obj 83 98 abs~;
#X obj 111 252 tabread4~ \$0-dynamic-curve;
#X obj 80 294 -~;
#X obj 80 319 +~ 100;
#X obj 80 344 dbtorms~;
#X obj 81 222 rmstodb~;
#X obj 45 384 *~;
#X obj 45 409 outlet~;
#X text 145 288 "correct" the level by applying a gain calculated from
the difference between the measured and desired level, f 27;
#X connect 0 0 5 0;
#X connect 0 0 11 0;
#X connect 1 0 10 0;
#X connect 2 0 3 0;
#X connect 3 0 4 0;
#X connect 4 0 1 3;
#X connect 5 0 1 0;
#X connect 6 0 7 0;
#X connect 7 0 8 0;
#X connect 8 0 9 0;
#X connect 9 0 11 1;
#X connect 10 0 7 1;
#X connect 10 0 6 0;
#X connect 11 0 12 0;
#X restore 1038 81 pd run-compander;
#X obj 568 526 writesf~ 2;
#X obj 652 442 r master-output-record;
#X obj 652 463 select 0 1;
#X msg 652 484 stop;
#X obj 706 493 savepanel;
#X msg 756 534 open \$1;
#X msg 706 561 start;
#X obj 706 514 t b a;
#X obj 127 427 tgl 15 0 master-output-stereo-mode master-output-stereo-mode-set
s 4 8 0 12 -262144 -1 -1 1 1;
#X obj 127 407 tgl 15 0 master-output-record empty r 4 8 0 12 -261234
-1 -1 0 1;
#X connect 0 0 18 0;
#X connect 1 0 2 0;
#X connect 2 0 3 0;
#X connect 3 0 0 1;
#X connect 3 0 4 1;
#X connect 3 0 19 1;
#X connect 3 0 20 1;
#X connect 3 0 21 1;
#X connect 3 0 22 1;
#X connect 3 0 23 1;
#X connect 3 0 24 1;
#X connect 4 0 18 1;
#X connect 5 0 6 0;
#X connect 5 1 1 0;
#X connect 6 0 7 0;
#X connect 7 0 1 0;
#X connect 8 0 5 0;
#X connect 9 0 43 0;
#X connect 19 0 18 2;
#X connect 20 0 18 3;
#X connect 21 0 18 4;
#X connect 22 0 18 5;
#X connect 23 0 18 6;
#X connect 24 0 18 7;
#X connect 25 0 26 0;
#X connect 26 0 10 0;
#X connect 27 0 28 0;
#X connect 28 0 11 0;
#X connect 29 0 30 0;
#X connect 30 0 12 0;
#X connect 31 0 32 0;
#X connect 32 0 13 0;
#X connect 33 0 34 0;
#X connect 34 0 14 0;
#X connect 35 0 36 0;
#X connect 36 0 15 0;
#X connect 37 0 38 0;
#X connect 38 0 16 0;
#X connect 39 0 40 0;
#X connect 40 0 17 0;
#X connect 41 0 50 0;
#X connect 43 0 25 0;
#X connect 43 0 0 0;
#X connect 43 0 57 0;
#X connect 44 0 51 0;
#X connect 45 0 52 0;
#X connect 46 0 53 0;
#X connect 47 0 54 0;
#X connect 48 0 55 0;
#X connect 49 0 56 0;
#X connect 50 0 4 0;
#X connect 50 0 27 0;
#X connect 50 0 57 1;
#X connect 51 0 19 0;
#X connect 51 0 29 0;
#X connect 52 0 20 0;
#X connect 52 0 31 0;
#X connect 53 0 21 0;
#X connect 53 0 33 0;
#X connect 54 0 22 0;
#X connect 54 0 35 0;
#X connect 55 0 23 0;
#X connect 55 0 37 0;
#X connect 56 0 24 0;
#X connect 56 0 39 0;
#X connect 58 0 59 0;
#X connect 59 0 60 0;
#X connect 59 1 61 0;
#X connect 60 0 57 0;
#X connect 61 0 64 0;
#X connect 62 0 57 0;
#X connect 63 0 57 0;
#X connect 64 0 63 0;
#X connect 64 1 62 0;
#X coords 0 -1 1 1 90 100 2 60 400;
#X restore 233 68 pd levels;
#X obj 18 68 cnv 15 120 100 empty empty plots 5 10 0 12 -228856 -1
0;
#X obj 28 89 bng 15 250 50 0 run-master-plots empty open 17 7 0 12
-262144 -1 -1;
#X obj 28 129 tgl 15 0 plots-show-data plots-show-data-set show-data
17 7 0 12 -262144 -1 -1 1 1;
#X obj 28 109 bng 15 250 50 0 timer-reset empty timer-reset 17 7 0
12 -262144 -1 -1;
#X obj 142 68 cnv 15 87 45 empty empty scenes 5 10 0 12 -233017 -1
0;
#X obj 172 89 bng 15 250 50 0 load-scene load-scene-set l 4 8 0 12
-204786 -1 -1;
#X obj 152 89 bng 15 250 50 0 save-scene save-scene-set s 4 8 0 12
-261234 -1 -1;
#X obj 142 116 cnv 15 87 52 empty empty players 5 10 0 12 -233017 -1
0;
#X obj 210 128 bng 15 250 50 0 net-connect-init empty i 4 8 0 12 -262144
-1 -1;
#X obj 210 148 tgl 15 0 global-kbd-control global-kbd-control-set k
4 8 0 12 -262144 -1 -1 0 1;
#X obj 152 136 bng 15 250 50 0 empty empty A 4 8 0 12 -4032 -1 -1;
#X obj 172 136 bng 15 250 50 0 empty empty B 4 8 0 12 -4032 -1 -1;
#X msg 110 243 vis 0 1;
#X obj 110 283 clone client-control-interface 2;
#X msg 180 243 vis 1 1;
#X floatatom 78 149 5 0.1 50 1 s plots-winScale-set plots-winScale
;
#X floatatom 28 149 5 0 0 1 x plots-xpos-set plots-xpos;
#N canvas 201 76 265 191 monitor-signals 0;
#X obj 48 31 r~ player-0-monitor;
#X obj 108 71 r~ player-1-monitor;
#X obj 48 121 dac~ 9 10;
#X connect 0 0 2 0;
#X connect 1 0 2 1;
#X restore 385 287 pd monitor-signals;
#X obj 180 198 tgl 15 0 midi-suppress midi-suppress-set ms 1 8 0 12
-262144 -1 -1 0 1;
#X obj 180 178 tgl 15 0 midi-broadcast midi-broadcast-set mb 1 8 0
12 -262144 -1 -1 0 1;
#X obj 152 154 hradio 10 1 0 2 player-toggle-ab player-toggle-ab-set
empty 0 -8 0 10 -262144 -1 -1 0;
#N canvas 444 522 754 227 MIDI 0;
#X obj 31 136 ctlin 3;
#X obj 461 136 ctlin 4;
#X text 531 134 CC 4 gates out MIDI messages while depressed so that
physical controls can be moved freely without changing values., f
32;
#X obj 31 180 s midi-broadcast-set;
#X obj 461 186 s midi-suppress-set;
#X obj 31 26 ctlin 0;
#X text 91 24 swap active control for players A/B;
#X obj 31 70 s player-toggle-ab-set;
#X text 111 134 broadcast MIDI to both players while depressed;
#X obj 31 160 > 0;
#X obj 31 50 > 0;
#X obj 461 166 > 0;
#N canvas 349 328 461 223 global-player-config 0;
#N canvas 108 191 538 452 muting 0;
#X obj 28 328 f;
#X obj 106 319 + 1;
#X obj 106 340 % 2;
#X obj 28 237 t b b;
#X msg 159 263 0;
#X msg 199 263 1;
#X obj 106 290 spigot 1;
#X obj 28 370 t b f;
#X obj 28 193 select 127;
#X obj 308 328 f;
#X obj 386 319 + 1;
#X obj 386 340 % 2;
#X obj 308 237 t b b;
#X msg 439 263 0;
#X msg 479 263 1;
#X obj 386 290 spigot 1;
#X obj 308 370 t b f;
#X obj 308 193 select 127;
#X obj 106 229 r player-0-mute;
#X obj 73 400 s player-0-mute-set;
#X obj 386 229 r player-1-mute;
#X obj 353 400 s player-1-mute-set;
#X obj 28 169 spigot 1;
#X obj 308 169 spigot 1;
#X obj 193 107 -;
#X obj 193 74 swap 1;
#X obj 193 41 r midi-suppress;
#X obj 28 141 ctlin 11;
#X obj 308 141 ctlin 14;
#X connect 0 0 7 0;
#X connect 1 0 2 0;
#X connect 2 0 0 1;
#X connect 3 0 0 0;
#X connect 3 1 4 0;
#X connect 4 0 6 1;
#X connect 5 0 6 1;
#X connect 6 0 1 0;
#X connect 7 0 5 0;
#X connect 7 1 19 0;
#X connect 7 1 1 0;
#X connect 8 0 3 0;
#X connect 9 0 16 0;
#X connect 10 0 11 0;
#X connect 11 0 9 1;
#X connect 12 0 9 0;
#X connect 12 1 13 0;
#X connect 13 0 15 1;
#X connect 14 0 15 1;
#X connect 15 0 10 0;
#X connect 16 0 14 0;
#X connect 16 1 21 0;
#X connect 16 1 10 0;
#X connect 17 0 12 0;
#X connect 18 0 6 0;
#X connect 20 0 15 0;
#X connect 22 0 8 0;
#X connect 23 0 17 0;
#X connect 24 0 23 1;
#X connect 24 0 22 1;
#X connect 25 0 24 0;
#X connect 25 1 24 1;
#X connect 26 0 25 0;
#X connect 27 0 22 0;
#X connect 28 0 23 0;
#X restore 38 69 pd muting;
#X text 228 70 Map gain faders and muting globally (outside of abstractions)
so that 102/103 will always be accessible on controller as player A/B
gains and mutes, f 33;
#N canvas 451 89 650 368 gain-automation 0;
#X obj 49 90 t b;
#X obj 49 235 symbol;
#X obj 49 26 ctlin 102;
#X obj 379 90 t b;
#X obj 379 26 ctlin 103;
#X msg 49 164 player-\$1-gain-set;
#X msg 379 164 player-\$1-gain-set;
#X obj 49 124 f 0;
#X obj 379 124 f 1;
#X obj 69 269 s player-1-last-MIDI-trig-send-name;
#X obj 49 299 s player-0-last-MIDI-trig-send-name;
#X connect 0 0 7 0;
#X connect 1 0 9 0;
#X connect 1 0 10 0;
#X connect 2 0 0 0;
#X connect 3 0 8 0;
#X connect 4 0 3 0;
#X connect 5 0 1 0;
#X connect 6 0 1 0;
#X connect 7 0 5 0;
#X connect 8 0 6 0;
#X restore 38 109 pd gain-automation;
#N canvas 569 505 650 368 muting-automation 0;
#X obj 49 90 t b;
#X obj 49 235 symbol;
#X obj 379 90 t b;
#X obj 49 26 ctlin 11;
#X obj 379 26 ctlin 14;
#X msg 49 164 player-\$1-mute-set;
#X msg 379 164 player-\$1-mute-set;
#X obj 49 119 f 0;
#X obj 49 299 s player-0-last-MIDI-trig-send-name;
#X obj 69 269 s player-1-last-MIDI-trig-send-name;
#X obj 379 119 f 1;
#X connect 0 0 7 0;
#X connect 1 0 8 0;
#X connect 1 0 9 0;
#X connect 2 0 10 0;
#X connect 3 0 0 0;
#X connect 4 0 2 0;
#X connect 5 0 1 0;
#X connect 6 0 1 0;
#X connect 7 0 5 0;
#X connect 10 0 6 0;
#X restore 38 129 pd muting-automation;
#N canvas 261 227 767 221 scene-save-load 0;
#X text 390 57 scene saving/loading is global for players A and B \,
so need to feed \$1 and \$2 to the abstraction as the player ID, f
30;
#X obj 43 46 button-bang-map save-scene 7 0;
#X obj 43 106 button-bang-map load-scene 8 0;
#X obj 43 76 button-bang-map save-scene 7 1;
#X obj 43 136 button-bang-map load-scene 8 1;
#X restore 38 169 pd scene-save-load;
#N canvas 212 320 783 506 gain 0;
#X obj 28 266 / 127;
#X obj 156 281 * 127;
#X obj 28 226 t f b;
#X obj 28 372 t b f;
#X msg 216 290 0;
#X msg 248 291 1;
#X obj 156 320 spigot 1;
#X obj 28 328 + 40;
#X obj 28 297 * 60;
#X obj 156 220 - 40;
#X obj 156 251 / 60;
#X obj 156 344 ctlout 102;
#X obj 438 266 / 127;
#X obj 566 281 * 127;
#X obj 438 226 t f b;
#X obj 438 372 t b f;
#X msg 626 290 0;
#X msg 658 291 1;
#X obj 566 320 spigot 1;
#X obj 438 328 + 40;
#X obj 438 297 * 60;
#X obj 566 220 - 40;
#X obj 566 251 / 60;
#X obj 566 344 ctlout 103;
#X obj 28 120 ctlin 102;
#X obj 438 120 ctlin 103;
#X obj 28 149 spigot 1;
#X obj 438 149 spigot 1;
#X obj 279 84 -;
#X obj 73 425 s player-0-gain-set;
#X obj 156 189 r player-0-gain;
#X obj 566 189 r player-1-gain;
#X obj 483 425 s player-1-gain-set;
#X obj 279 51 swap 1;
#X obj 279 18 r midi-suppress;
#X connect 0 0 8 0;
#X connect 1 0 6 0;
#X connect 2 0 0 0;
#X connect 2 1 4 0;
#X connect 3 0 5 0;
#X connect 3 1 29 0;
#X connect 4 0 6 1;
#X connect 5 0 6 1;
#X connect 6 0 11 0;
#X connect 7 0 3 0;
#X connect 8 0 7 0;
#X connect 9 0 10 0;
#X connect 10 0 1 0;
#X connect 12 0 20 0;
#X connect 13 0 18 0;
#X connect 14 0 12 0;
#X connect 14 1 16 0;
#X connect 15 0 17 0;
#X connect 15 1 32 0;
#X connect 16 0 18 1;
#X connect 17 0 18 1;
#X connect 18 0 23 0;
#X connect 19 0 15 0;
#X connect 20 0 19 0;
#X connect 21 0 22 0;
#X connect 22 0 13 0;
#X connect 24 0 26 0;
#X connect 25 0 27 0;
#X connect 26 0 2 0;
#X connect 27 0 14 0;
#X connect 28 0 27 1;
#X connect 28 0 26 1;
#X connect 30 0 9 0;
#X connect 31 0 21 0;
#X connect 33 0 28 0;
#X connect 33 1 28 1;
#X connect 34 0 33 0;
#X restore 38 49 pd gain;
#X restore 461 26 pd global-player-config;
#X connect 0 0 9 0;
#X connect 1 0 11 0;
#X connect 5 0 10 0;
#X connect 9 0 3 0;
#X connect 10 0 7 0;
#X connect 11 0 4 0;
#X restore 385 167 pd MIDI;
#N canvas 1028 183 610 441 plotting-subprocess 0;
#X msg 113 150 pd~ stop;
#N canvas 662 254 902 382 blocking 0;
#X obj 146 152 tabreceive~ player-0-raw-output-plot;
#X obj 217 172 tabreceive~ player-1-raw-output-plot;
#X obj 287 192 tabreceive~ player-2-raw-output-plot;
#X obj 357 212 tabreceive~ player-3-raw-output-plot;
#X obj 656 115 block~ 2048 1 1;
#X obj 146 175 outlet~;
#X obj 217 195 outlet~;
#X obj 287 215 outlet~;
#X obj 357 235 outlet~;
#X obj 656 66 r master-block-size;
#X msg 656 89 set \$1 1 1;
#X connect 0 0 5 0;
#X connect 1 0 6 0;
#X connect 2 0 7 0;
#X connect 3 0 8 0;
#X connect 9 0 10 0;
#X connect 10 0 4 0;
#X restore 304 293 pd blocking;
#N canvas 555 208 472 416 send-data-transfer 0;
#X obj 64 69 s pd-subprocess-send;
#X text 64 99 Sending a bang to the subprocess should be done this
way. The sub-data-prep.pd abstraction won't send bangs because of list
processing details.;
#X obj 64 23 r run-master-plots;
#X msg 64 46 run-master-plots bang;
#X obj 64 226 ./plotting/lib/sub-data-prep plots-winScale;
#X obj 64 196 ./plotting/lib/sub-data-prep plots-xpos;
#X obj 64 166 ./plotting/lib/sub-data-prep plots-show-data;
#X obj 64 356 clone ./plotting/lib/player-data-for-sub 4;
#X obj 64 256 ./plotting/lib/sub-data-prep timer-min;
#X obj 64 286 ./plotting/lib/sub-data-prep timer-sec;
#X connect 2 0 3 0;
#X connect 3 0 0 0;
#X restore 327 189 pd send-data-transfer;
#X obj 207 257 r pd-subprocess-send;
#X obj 56 27 r lb1;
#X obj 173 350 pd~ -ninsig 4 -noutsig 0 -fifo 4;
#X msg 56 49 dir;
#X obj 56 69 pdcontrol;
#X msg 56 122 pd~ start -nogui \$1;
#X obj 56 89 makefilename %s/plotting/run-plotting-subprocess.pd;
#X msg 206 133 pd~ start ./plotting/run-plotting-subprocess.pd;
#N canvas 1348 385 369 346 timer 0;
#X obj 53 33 r timer-reset;
#X obj 53 56 timer;
#X obj 121 93 metro 1000;
#X obj 53 79 / 1000;
#X obj 53 152 t f f;
#X obj 103 175 % 60;
#X obj 53 125 i;
#X obj 53 175 / 60;
#X obj 53 198 i;
#X obj 53 221 s timer-min;
#X obj 103 198 s timer-sec;
#X obj 121 70 r lb1;
#X connect 0 0 1 0;
#X connect 1 0 3 0;
#X connect 2 0 1 1;
#X connect 3 0 6 0;
#X connect 4 0 7 0;
#X connect 4 1 5 0;
#X connect 5 0 10 0;
#X connect 6 0 4 0;
#X connect 7 0 8 0;
#X connect 8 0 9 0;
#X connect 11 0 2 0;
#X restore 442 56 pd timer;
#X connect 0 0 5 0;
#X connect 1 0 5 0;
#X connect 1 1 5 1;
#X connect 1 2 5 2;
#X connect 1 3 5 3;
#X connect 3 0 5 0;
#X connect 4 0 6 0;
#X connect 6 0 7 0;
#X connect 7 0 9 0;
#X connect 8 0 5 0;
#X connect 9 0 8 0;
#X connect 10 0 5 0;
#X restore 385 247 pd plotting-subprocess;
#N canvas 915 181 760 376 interface-misc 0;
#X obj 392 159 bng 15 250 50 0 empty empty empty 17 7 0 10 -262144
-1 -1;
#X obj 392 179 s all-player-print;
#X obj 41 146 t f b;
#X obj 41 175 until;
#X obj 41 244 f;
#X obj 98 250 + 1;
#X msg 74 209 0;
#X obj 261 146 t f b;
#X obj 261 175 until;
#X obj 261 244 f;
#X obj 318 250 + 1;
#X msg 294 209 0;
#X msg 261 283 \; player-\$1-get-time-index bang \;;
#X obj 261 86 r get-all-player-times;
#X obj 41 86 r reset-all-player-clocks;
#X msg 41 283 \; player-\$1-time-index-set 0 \;;
#X msg 41 117 4;
#X msg 261 117 4;
#X obj 521 86 r sync-time-with-remote;
#X msg 521 117 \; player-0-time-sync 0 \; player-1-time-sync 1 \;;
#X obj 521 226 r global-kbd-control;
#X msg 521 295 \; player-\$2-kbd-control-set \$1 \; player-\$3-kbd-control-set
\$1 \;;
#X obj 521 255 pack f 0 1;
#X connect 0 0 1 0;
#X connect 2 0 3 0;
#X connect 2 1 6 0;
#X connect 3 0 4 0;
#X connect 4 0 5 0;
#X connect 4 0 15 0;
#X connect 5 0 4 1;
#X connect 6 0 4 1;
#X connect 7 0 8 0;
#X connect 7 1 11 0;
#X connect 8 0 9 0;
#X connect 9 0 10 0;
#X connect 9 0 12 0;
#X connect 10 0 9 1;
#X connect 11 0 9 1;
#X connect 13 0 17 0;
#X connect 14 0 16 0;
#X connect 16 0 2 0;
#X connect 17 0 7 0;
#X connect 18 0 19 0;
#X connect 20 0 22 0;
#X connect 22 0 21 0;
#X restore 385 207 pd interface-misc;
#N canvas 1169 202 282 132 cpu-keyboard-mapping 0;
#N canvas 0 23 682 586 global 0;
#X obj 36 42 key;
#X obj 36 116 spigot;
#X obj 113 77 ||;
#X obj 153 98 t b f;
#X obj 36 146 select 105 111;
#X obj 36 255 s save-scene-set;
#X obj 126 205 s load-scene-set;
#X obj 376 156 select 32;
#X obj 376 52 key;
#X obj 376 126 spigot;
#X obj 453 87 ||;
#X obj 493 108 t b f;
#X obj 396 192 r player-toggle-ab;
#X obj 376 222 f;
#X obj 416 212 + 1;
#X obj 416 232 % 2;
#X obj 416 252 s player-toggle-ab-set;
#X obj 376 332 key;
#X obj 376 406 spigot;
#X obj 453 367 ||;
#X obj 493 388 t b f;
#X obj 376 502 f;
#X obj 416 492 + 1;
#X obj 416 512 % 2;
#X obj 376 436 select 117;
#X obj 396 472 r midi-suppress;
#X obj 416 532 s midi-suppress-set;
#X obj 36 332 key;
#X obj 36 406 spigot;
#X obj 113 367 ||;
#X obj 153 388 t b f;
#X obj 36 502 f;
#X obj 76 492 + 1;
#X obj 76 512 % 2;
#X obj 36 436 select 121;
#X obj 56 472 r midi-broadcast;
#X obj 76 532 s midi-broadcast-set;
#X obj 113 26 r player-0-kbd-control;
#X obj 153 67 r player-1-kbd-control;
#X obj 453 36 r player-0-kbd-control;
#X obj 453 316 r player-0-kbd-control;
#X obj 113 316 r player-0-kbd-control;
#X obj 493 77 r player-1-kbd-control;
#X obj 493 357 r player-1-kbd-control;
#X obj 153 357 r player-1-kbd-control;
#X connect 0 0 1 0;
#X connect 1 0 4 0;
#X connect 2 0 1 1;
#X connect 3 0 2 0;
#X connect 3 1 2 1;
#X connect 4 0 5 0;
#X connect 4 1 6 0;
#X connect 7 0 13 0;
#X connect 8 0 9 0;
#X connect 9 0 7 0;
#X connect 10 0 9 1;
#X connect 11 0 10 0;
#X connect 11 1 10 1;
#X connect 12 0 13 1;
#X connect 13 0 14 0;
#X connect 14 0 15 0;
#X connect 15 0 13 1;
#X connect 15 0 16 0;
#X connect 17 0 18 0;
#X connect 18 0 24 0;
#X connect 19 0 18 1;
#X connect 20 0 19 0;
#X connect 20 1 19 1;
#X connect 21 0 22 0;
#X connect 22 0 23 0;
#X connect 23 0 21 1;
#X connect 23 0 26 0;
#X connect 24 0 21 0;
#X connect 25 0 21 1;
#X connect 27 0 28 0;
#X connect 28 0 34 0;
#X connect 29 0 28 1;
#X connect 30 0 29 0;
#X connect 30 1 29 1;
#X connect 31 0 32 0;
#X connect 32 0 33 0;
#X connect 33 0 31 1;
#X connect 33 0 36 0;
#X connect 34 0 31 0;
#X connect 35 0 31 1;
#X connect 37 0 2 0;
#X connect 38 0 3 0;
#X connect 39 0 10 0;
#X connect 40 0 19 0;
#X connect 41 0 29 0;
#X connect 42 0 11 0;
#X connect 43 0 20 0;
#X connect 44 0 30 0;
#X restore 50 49 pd global;
#N canvas 544 66 637 337 player-muting 0;
#X obj 334 64 key;
#X obj 334 138 spigot;
#X obj 334 234 f;
#X obj 374 224 + 1;
#X obj 374 244 % 2;
#X obj 334 168 select 109;
#X obj 44 64 key;
#X obj 44 138 spigot;
#X obj 44 234 f;
#X obj 84 224 + 1;
#X obj 84 244 % 2;
#X obj 44 168 select 110;
#X obj 411 48 r player-1-kbd-control;
#X obj 121 48 r player-0-kbd-control;
#X obj 64 204 r player-0-mute;
#X obj 84 264 s player-0-mute-set;
#X obj 354 204 r player-1-mute;
#X obj 374 264 s player-1-mute-set;
#X connect 0 0 1 0;
#X connect 1 0 5 0;
#X connect 2 0 3 0;
#X connect 3 0 4 0;
#X connect 4 0 2 1;
#X connect 4 0 17 0;
#X connect 5 0 2 0;
#X connect 6 0 7 0;
#X connect 7 0 11 0;
#X connect 8 0 9 0;
#X connect 9 0 10 0;
#X connect 10 0 8 1;
#X connect 10 0 15 0;
#X connect 11 0 8 0;
#X connect 12 0 1 1;
#X connect 13 0 7 1;
#X connect 14 0 8 1;
#X connect 16 0 2 1;
#X restore 50 69 pd player-muting;
#X restore 385 187 pd cpu-keyboard-mapping;
#X connect 21 0 23 0;
#X connect 22 0 25 0;
#X connect 23 0 24 0;
#X connect 25 0 24 0;
#X coords 0 -1 1 1 321 215 2 10 10;
#X restore 13 27 pd control-panel;
#X coords 0 277 1 276 1100 600 0;
