#N canvas 888 431 438 197 12;
#X declare -path ./lib;
#N canvas 837 183 575 464 init 0;
#X obj 373 218 declare -path ./lib;
#X obj 30 52 t b b b b;
#X obj 30 186 s lb4;
#X obj 120 96 s lb1;
#X obj 90 126 s lb2;
#X obj 60 156 s lb3;
#X obj 30 28 r net-connect-init;
#X obj 174 160 r lb1;
#X msg 174 184 \; netprep-init bang \;;
#X text 140 250 This initializes all of the netprep parameter names
to have -set appended, f 27;
#N canvas 212 320 783 400 fadermap-player-A-and-B 0;
#X obj 28 136 / 127;
#X obj 156 151 * 127;
#X obj 28 96 t f b;
#X obj 28 242 t b f;
#X msg 216 160 0;
#X msg 248 161 1;
#X obj 156 190 spigot 1;
#X obj 28 40 ctlin 102;
#X obj 28 198 + 40;
#X obj 28 167 * 60;
#X obj 156 90 - 40;
#X obj 156 121 / 60;
#X obj 156 214 ctlout 102;
#X obj 438 136 / 127;
#X obj 566 151 * 127;
#X obj 438 96 t f b;
#X obj 438 242 t b f;
#X msg 626 160 0;
#X msg 658 161 1;
#X obj 566 190 spigot 1;
#X obj 438 198 + 40;
#X obj 438 167 * 60;
#X obj 566 90 - 40;
#X obj 566 121 / 60;
#X obj 438 40 ctlin 103;
#X obj 566 214 ctlout 103;
#X obj 483 295 s player-5-gain-set;
#X obj 566 59 r player-5-gain;
#X obj 156 59 r player-4-gain;
#X obj 73 295 s player-4-gain-set;
#X connect 0 0 9 0;
#X connect 1 0 6 0;
#X connect 2 0 0 0;
#X connect 2 1 4 0;
#X connect 3 0 5 0;
#X connect 3 1 29 0;
#X connect 4 0 6 1;
#X connect 5 0 6 1;
#X connect 6 0 12 0;
#X connect 7 0 2 0;
#X connect 8 0 3 0;
#X connect 9 0 8 0;
#X connect 10 0 11 0;
#X connect 11 0 1 0;
#X connect 13 0 21 0;
#X connect 14 0 19 0;
#X connect 15 0 13 0;
#X connect 15 1 17 0;
#X connect 16 0 18 0;
#X connect 16 1 26 0;
#X connect 17 0 19 1;
#X connect 18 0 19 1;
#X connect 19 0 25 0;
#X connect 20 0 16 0;
#X connect 21 0 20 0;
#X connect 22 0 23 0;
#X connect 23 0 14 0;
#X connect 24 0 15 0;
#X connect 27 0 22 0;
#X connect 28 0 10 0;
#X restore 169 332 pd fadermap-player-A-and-B;
#N canvas 1238 206 557 364 muting 0;
#X obj 28 218 f;
#X obj 106 209 + 1;
#X obj 106 230 % 2;
#X obj 28 127 t b b;
#X msg 159 153 0;
#X msg 199 153 1;
#X obj 106 180 spigot 1;
#X obj 28 260 t b f;
#X obj 28 83 select 127;
#X obj 28 41 ctlin 11;
#X obj 308 218 f;
#X obj 386 209 + 1;
#X obj 386 230 % 2;
#X obj 308 127 t b b;
#X msg 439 153 0;
#X msg 479 153 1;
#X obj 386 180 spigot 1;
#X obj 308 260 t b f;
#X obj 308 83 select 127;
#X obj 308 41 ctlin 14;
#X obj 73 290 s player-4-mute-set;
#X obj 106 119 r player-4-mute;
#X obj 386 119 r player-5-mute;
#X obj 353 290 s player-5-mute-set;
#X connect 0 0 1 0;
#X connect 0 0 7 0;
#X connect 1 0 2 0;
#X connect 2 0 0 1;
#X connect 3 0 0 0;
#X connect 3 1 4 0;
#X connect 4 0 6 1;
#X connect 5 0 6 1;
#X connect 6 0 1 0;
#X connect 7 0 5 0;
#X connect 7 1 20 0;
#X connect 8 0 3 0;
#X connect 9 0 8 0;
#X connect 10 0 11 0;
#X connect 10 0 17 0;
#X connect 11 0 12 0;
#X connect 12 0 10 1;
#X connect 13 0 10 0;
#X connect 13 1 14 0;
#X connect 14 0 16 1;
#X connect 15 0 16 1;
#X connect 16 0 11 0;
#X connect 17 0 15 0;
#X connect 17 1 23 0;
#X connect 18 0 13 0;
#X connect 19 0 18 0;
#X connect 21 0 6 0;
#X connect 22 0 16 0;
#X restore 169 362 pd muting;
#X text 262 361 Map gain faders and muting globally (outside of abstractions)
so that 102/103 will always be accessible on controller as player A/B
gains and mutes, f 33;
#X obj 281 58 r lb1;
#X msg 281 87 read -c ./data/midiNoteNames.txt;
#X obj 281 108 text define midiNoteNames;
#X connect 1 0 2 0;
#X connect 1 1 5 0;
#X connect 1 2 4 0;
#X connect 1 3 3 0;
#X connect 6 0 1 0;
#X connect 7 0 8 0;
#X connect 13 0 14 0;
#X connect 14 0 15 0;
#X restore 46 36 pd init;
#N canvas 1045 224 782 537 netsend 0;
#X obj 156 208 r netsend-data-hub;
#X msg 139 165 disconnect;
#X obj 94 272 netsend;
#X obj 225 259 unpack f s;
#X obj 225 283 s;
#X obj 303 103 cnv 15 114 54 empty netsend-connected-canvas empty 20
12 0 14 -258053 -262144 0;
#X obj 306 139 tgl 15 0 empty empty connect 17 7 0 10 -262144 -1 -1
0 1;
#X obj 94 296 select 0 1;
#X msg 94 412 \; netsend-connected-canvas color -1.67117e+07 0 0 \;
;
#X symbolatom 306 116 15 0 0 0 - - -;
#X msg 94 130 connect \$1 57120;
#X obj 94 99 symbol;
#X msg 394 56 symbol 127.0.0.1;
#X obj 94 65 select 1 0;
#X msg 144 339 \; netsend-connected-canvas color -65281 0 0 \; net-connect-init
bang \;;
#X obj 394 32 loadbang;
#X obj 11 364 loadbang;
#X connect 0 0 2 0;
#X connect 1 0 2 0;
#X connect 2 0 7 0;
#X connect 2 1 3 0;
#X connect 3 0 4 0;
#X connect 3 1 4 1;
#X connect 6 0 13 0;
#X connect 7 0 8 0;
#X connect 7 1 14 0;
#X connect 9 0 11 1;
#X connect 10 0 2 0;
#X connect 11 0 10 0;
#X connect 12 0 9 0;
#X connect 13 0 11 0;
#X connect 13 1 1 0;
#X connect 15 0 12 0;
#X connect 16 0 8 0;
#X coords 0 -1 1 1 120 60 2 300 100;
#X restore 46 66 pd netsend;
#X obj 196 66 client-control-interface 4;
#X obj 196 90 client-control-interface 5;
