#N canvas 175 526 367 262 10;
#X declare -path ./lib;
#X declare -path ./src;
#X declare -lib zexy;
#N canvas 426 468 527 395 control-panel 0;
#N canvas 682 501 718 441 init 0;
#X obj 31 14 loadbang;
#X obj 224 33 r lb4;
#X obj 85 278 declare -path ./lib;
#X obj 85 298 declare -path ./src;
#X obj 464 33 r lb1;
#X obj 464 143 r lb1;
#X msg 464 172 read -c ./data/midiNoteNames.txt;
#X obj 464 193 text define midiNoteNames;
#X obj 163 105 s lb1;
#X obj 137 136 s lb2;
#X obj 105 165 s lb3;
#X obj 71 195 s lb4;
#X obj 31 56 t b b b b b;
#X obj 31 225 s lb5;
#X obj 224 153 r lb5;
#X obj 224 174 delay 2000;
#X text 286 269 Override spat width/pos settings that load on lb4 in
control-panel-abs so that they're suitable for stereo. For some reason
\, this needs to be delayed at least 2sec for it to actually take effect.
Not sure why and it doesn't matter much for this so I'll leave it as
a hack.;
#X msg 224 196 \; player-0-spat-width-set 0.75 \; player-0-spat-pos-set
0 \; player-1-spat-width-set 0.75 \; player-1-spat-pos-set 1 \;;
#X msg 224 76 \; pd dsp 1 \; master-volume-set 90 \; master-output-stereo-mode
1 \;;
#X msg 464 62 \; master-block-size 2048 \;;
#X obj 50 334 loadbang;
#X obj 50 402 print -n;
#X obj 109 17 r global-re-init;
#X obj 85 258 declare -lib zexy;
#X msg 50 363 OUTPUT-solo-practice.pd dependencies: hcs | motex | tof
| zexy 2.3.1;
#X connect 0 0 12 0;
#X connect 1 0 18 0;
#X connect 4 0 19 0;
#X connect 5 0 6 0;
#X connect 6 0 7 0;
#X connect 12 0 13 0;
#X connect 12 1 11 0;
#X connect 12 2 10 0;
#X connect 12 3 9 0;
#X connect 12 4 8 0;
#X connect 14 0 15 0;
#X connect 15 0 17 0;
#X connect 20 0 24 0;
#X connect 22 0 12 0;
#X connect 24 0 21 0;
#X restore 323 32 pd init;
#N canvas 611 146 371 176 players 0;
#X obj 32 28 algo-player 0;
#X obj 32 48 algo-player 1;
#X obj 202 28 clone spat-LFO-abs 2;
#X obj 202 68 spat-abs-2 player-0;
#X obj 202 88 spat-abs-2 player-1;
#X restore 323 92 pd players;
#X obj 20 20 hsl 250 40 40 100 0 0 master-volume master-volume-set
master-volume 8 24 0 24 -262144 -1 -1 20750 1;
#X obj 172 140 cpumeter;
#N canvas 294 309 528 194 netreceive 0;
#X text 70 91 This is not used for the solo patch \, but leaving the
[receive] above to avoid errors;
#X obj 72 40 r netsend-data-hub;
#X restore 323 112 pd netreceive;
#N canvas 818 150 516 629 output 0;
#X obj 58 141 *~;
#X obj 338 157 dbtorms;
#X obj 338 186 pack f 40;
#X obj 338 215 line~;
#X obj 118 141 *~;
#X obj 338 55 moses 41;
#X obj 338 86 t b;
#X msg 338 117 0;
#X obj 338 25 r master-volume;
#X obj 58 16 catch~ out-1;
#X obj 71 421 vu 15 80 empty empty -1 -8 0 10 -66577 -1 0 0;
#X obj 101 421 vu 15 80 empty empty -1 -8 0 10 -66577 -1 0 0;
#X obj 220 327 env~;
#X obj 220 356 - 100;
#X obj 360 327 env~;
#X obj 360 356 - 100;
#X obj 198 16 catch~ out-2;
#N canvas 834 72 606 533 compressor 0;
#N canvas 0 50 450 250 (subpatch) 0;
#X array \$0-dynamic-curve 102 float 3;
#A 0 0 1 2 3 4 5 6 7 8 9 10 11 12 13 14 15 16 17 18 19 20 21 22 23
24 25 26 27 28 29 30 31 32 33 34 35 36 37 38 39 40 41 42 43 44 45 46
47 48 49 50 51 52 53 54 55 56 57 58 59 60 61 62 63 64 65 66 67 68 69
70 71 72 73 74 75 76 77 78 79 80 81 82 83 84 85 86 87 88 89 90 91 92
93 94 95 95.95 96.8 97.55 98.2 98.75 99.2;
#X coords 0 100 102 0 202 200 1 0 0;
#X restore 289 32 graph;
#N canvas 194 61 600 997 parameters 0;
#X obj 366 32 inlet;
#X obj 487 83 s \$0-speed;
#X obj 366 222 s \$0-limit;
#X obj 392 198 s \$0-knee;
#X obj 415 174 s \$0-boost;
#X obj 439 147 s \$0-ratio;
#X obj 366 57 unpack 0 0 0 0 0 0;
#X obj 462 116 s \$0-thresh;
#X obj 50 91 r \$0-limit;
#X obj 61 116 r \$0-knee;
#X obj 70 143 r \$0-boost;
#X obj 96 196 r \$0-thresh;
#X obj 82 167 r \$0-ratio;
#X obj 50 224 b;
#X obj 50 249 del 0;
#X obj 50 274 t b b;
#X obj 50 324 until;
#X obj 50 349 f;
#X obj 87 351 + 1;
#X msg 99 325 0;
#X obj 50 374 t f f;
#X obj 24 870 tabwrite \$0-dynamic-curve;
#X obj 193 708 moses;
#X obj 240 706 r \$0-thresh;
#X obj 407 554 r \$0-ratio;
#X obj 407 579 f;
#X obj 407 604 / 100;
#X obj 18 808 +;
#X msg 225 734 0;
#X obj 193 765 expr ($f1-$f2)*$f3;
#X obj 18 833 max 0;
#X obj 407 629 - 1;
#X obj 48 404 +;
#X obj 218 361 r \$0-boost;
#X obj 193 452 r \$0-limit;
#X obj 151 455 f;
#X obj 151 480 -;
#X obj 48 429 t f b;
#X obj 327 428 r \$0-knee;
#X obj 188 535 +;
#X obj 144 535 -;
#X obj 23 569 moses;
#X obj 71 569 moses;
#X obj 102 601 b;
#X obj 195 611 r \$0-limit;
#X obj 102 626 f;
#X obj 302 829 expr $f4 - ($f2-$f1)*($f2-$f1)/(4*$f3);
#X obj 23 594 +;
#X msg 50 299 102;
#X obj 327 453 f;
#X obj 327 478 / 2;
#X connect 0 0 6 0;
#X connect 6 0 2 0;
#X connect 6 1 3 0;
#X connect 6 2 4 0;
#X connect 6 3 5 0;
#X connect 6 4 7 0;
#X connect 6 5 1 0;
#X connect 8 0 13 0;
#X connect 9 0 13 0;
#X connect 10 0 13 0;
#X connect 11 0 13 0;
#X connect 12 0 13 0;
#X connect 13 0 14 0;
#X connect 14 0 15 0;
#X connect 15 0 48 0;
#X connect 15 1 19 0;
#X connect 16 0 17 0;
#X connect 17 0 18 0;
#X connect 17 0 20 0;
#X connect 18 0 17 1;
#X connect 19 0 17 1;
#X connect 20 0 32 0;
#X connect 20 1 21 1;
#X connect 20 1 22 0;
#X connect 22 0 29 0;
#X connect 22 1 28 0;
#X connect 23 0 22 1;
#X connect 23 0 29 1;
#X connect 24 0 25 0;
#X connect 25 0 26 0;
#X connect 26 0 31 0;
#X connect 27 0 30 0;
#X connect 28 0 27 1;
#X connect 29 0 27 1;
#X connect 30 0 21 0;
#X connect 31 0 29 2;
#X connect 32 0 37 0;
#X connect 33 0 32 1;
#X connect 33 0 36 1;
#X connect 33 0 47 1;
#X connect 34 0 35 1;
#X connect 35 0 36 0;
#X connect 36 0 39 0;
#X connect 36 0 40 0;
#X connect 37 0 41 0;
#X connect 37 1 35 0;
#X connect 38 0 49 0;
#X connect 39 0 42 1;
#X connect 39 0 46 1;
#X connect 40 0 41 1;
#X connect 41 0 47 0;
#X connect 41 1 42 0;
#X connect 42 0 46 0;
#X connect 42 1 43 0;
#X connect 43 0 45 0;
#X connect 44 0 45 1;
#X connect 44 0 46 3;
#X connect 45 0 27 0;
#X connect 46 0 27 0;
#X connect 47 0 27 0;
#X connect 48 0 16 0;
#X connect 49 0 50 0;
#X connect 50 0 40 1;
#X connect 50 0 39 1;
#X connect 50 0 46 2;
#X restore 303 432 pd parameters;
#X obj 303 362 loadbang;
#X msg 303 389 100 10 0 100 0 50;
#X connect 2 0 3 0;
#X connect 3 0 1 0;
#X restore 71 311 pd compressor;
#N canvas 354 210 617 518 run-compander 0;
#X obj 47 56 inlet~;
#X obj 83 134 slop~ 0 0 0 0 1e+09;
#X obj 160 32 r \$0-speed;
#X obj 160 57 f;
#X obj 160 82 / 10;
#X obj 83 98 abs~;
#X obj 111 252 tabread4~ \$0-dynamic-curve;
#X obj 80 294 -~;
#X obj 80 319 +~ 100;
#X obj 80 344 dbtorms~;
#X obj 81 222 rmstodb~;
#X obj 45 384 *~;
#X obj 45 409 outlet~;
#X text 145 288 "correct" the level by applying a gain calculated from
the difference between the measured and desired level, f 27;
#X connect 0 0 5 0;
#X connect 0 0 11 0;
#X connect 1 0 10 0;
#X connect 2 0 3 0;
#X connect 3 0 4 0;
#X connect 4 0 1 3;
#X connect 5 0 1 0;
#X connect 6 0 7 0;
#X connect 7 0 8 0;
#X connect 8 0 9 0;
#X connect 9 0 11 1;
#X connect 10 0 7 1;
#X connect 10 0 6 0;
#X connect 11 0 12 0;
#X restore 58 51 pd run-compander;
#N canvas 354 210 617 518 run-compander 0;
#X obj 47 56 inlet~;
#X obj 83 134 slop~ 0 0 0 0 1e+09;
#X obj 160 32 r \$0-speed;
#X obj 160 57 f;
#X obj 160 82 / 10;
#X obj 83 98 abs~;
#X obj 111 252 tabread4~ \$0-dynamic-curve;
#X obj 80 294 -~;
#X obj 80 319 +~ 100;
#X obj 80 344 dbtorms~;
#X obj 81 222 rmstodb~;
#X obj 45 384 *~;
#X obj 45 409 outlet~;
#X text 145 288 "correct" the level by applying a gain calculated from
the difference between the measured and desired level, f 27;
#X connect 0 0 5 0;
#X connect 0 0 11 0;
#X connect 1 0 10 0;
#X connect 2 0 3 0;
#X connect 3 0 4 0;
#X connect 4 0 1 3;
#X connect 5 0 1 0;
#X connect 6 0 7 0;
#X connect 7 0 8 0;
#X connect 8 0 9 0;
#X connect 9 0 11 1;
#X connect 10 0 7 1;
#X connect 10 0 6 0;
#X connect 11 0 12 0;
#X restore 198 81 pd run-compander;
#X obj 58 210 dac~ 1 2;
#X obj 228 531 writesf~ 2;
#X obj 312 447 r master-output-record;
#X obj 312 468 select 0 1;
#X msg 312 489 stop;
#X obj 366 498 savepanel;
#X msg 416 539 open \$1;
#X msg 366 566 start;
#X obj 366 519 t b a;
#X connect 0 0 20 0;
#X connect 1 0 2 0;
#X connect 2 0 3 0;
#X connect 3 0 0 1;
#X connect 3 0 4 1;
#X connect 4 0 20 1;
#X connect 5 0 6 0;
#X connect 5 1 1 0;
#X connect 6 0 7 0;
#X connect 7 0 1 0;
#X connect 8 0 5 0;
#X connect 9 0 18 0;
#X connect 12 0 13 0;
#X connect 13 0 10 0;
#X connect 14 0 15 0;
#X connect 15 0 11 0;
#X connect 16 0 19 0;
#X connect 18 0 12 0;
#X connect 18 0 0 0;
#X connect 18 0 21 0;
#X connect 19 0 4 0;
#X connect 19 0 14 0;
#X connect 19 0 21 1;
#X connect 22 0 23 0;
#X connect 23 0 24 0;
#X connect 23 1 25 0;
#X connect 24 0 21 0;
#X connect 25 0 28 0;
#X connect 26 0 21 0;
#X connect 27 0 21 0;
#X connect 28 0 27 0;
#X connect 28 1 26 0;
#X coords 0 -1 1 1 70 110 1 60 400;
#X restore 17 70 pd output;
#N canvas 707 336 595 293 client-init 0;
#X obj 71 34 r lb1;
#X msg 71 58 \; netprep-init bang \;;
#X text 37 124 This initializes all of the netprep parameter names
to have -set appended, f 27;
#X obj 288 54 r lb1;
#X obj 288 197 s num-algos;
#X obj 288 75 t b b;
#X msg 329 108 read -c ./data/outputAlgorithms.txt;
#X obj 288 166 text size outputAlgorithms;
#X obj 329 129 text define outputAlgorithms;
#N canvas 655 225 471 443 list-preset-file-names 0;
#X obj 48 46 inlet;
#X msg 274 159 clear;
#X obj 274 371 s preset-dropdown-items;
#X obj 129 272 list prepend add;
#X obj 129 293 list trim;
#X obj 128 43 r preset-dropdown-update;
#X obj 48 213 hcs/folder_list;
#X obj 48 172 pdcontrol;
#X msg 48 143 dir 0 algo-presets/*;
#X obj 48 233 hcs/split_path;
#X obj 48 92 t b b;
#X connect 0 0 10 0;
#X connect 1 0 2 0;
#X connect 3 0 4 0;
#X connect 4 0 2 0;
#X connect 5 0 10 0;
#X connect 6 0 9 0;
#X connect 7 0 6 0;
#X connect 8 0 7 0;
#X connect 9 1 3 0;
#X connect 10 0 8 0;
#X connect 10 1 1 0;
#X restore 91 222 pd list-preset-file-names;
#X obj 91 194 r lb2;
#X connect 0 0 1 0;
#X connect 3 0 5 0;
#X connect 5 0 7 0;
#X connect 5 1 6 0;
#X connect 6 0 8 0;
#X connect 7 0 4 0;
#X connect 10 0 9 0;
#X restore 323 72 pd client-init;
#N canvas 481 347 607 284 client-side-netreceive 0;
#X obj 121 23 r client-netsend-data-hub;
#X obj 168 94 t l l;
#X obj 280 136 list length;
#X obj 168 143 list split;
#X obj 280 165 - 1;
#X obj 168 172 list trim;
#X obj 168 201 s;
#X obj 121 44 list split 1;
#X text 317 29 This subpatch is necessary to imitate the master-client
data sending that exists for the main patch. That way \, only this
OUTPUT-solo-practice.pd patch needs to be edited \, and the core abstractions
for the main project can be used as-is., f 37;
#X text 22 77 remove the "send" tag intended for use with [netsend]
in the master patch, f 17;
#X connect 0 0 7 0;
#X connect 1 0 3 0;
#X connect 1 1 2 0;
#X connect 2 0 4 0;
#X connect 3 0 5 0;
#X connect 3 1 6 1;
#X connect 4 0 3 1;
#X connect 5 0 6 0;
#X connect 7 1 1 0;
#X restore 323 132 pd client-side-netreceive;
#X obj 107 100 bng 20 250 50 0 empty empty A 6 10 0 14 -204786 -1 -1
;
#X obj 137 100 bng 20 250 50 0 empty empty B 6 10 0 14 -204786 -1 -1
;
#X obj 107 327 clone -s 0 client-control-interface 2;
#X msg 107 287 vis 0 1;
#X msg 187 287 vis 1 1;
#X obj 107 160 tgl 15 0 master-output-record empty r 4 7 0 12 -261234
-1 -1 0 1;
#X obj 257 120 bng 15 250 50 0 global-re-init empty i 4 8 0 10 -262144
-1 -1;
#X obj 237 120 tgl 15 0 global-kbd-control global-kbd-control-set k
5 7 0 10 -262144 -1 -1 0 1;
#X obj 257 100 bng 15 250 50 0 load-scene load-scene-set l 4 7 0 12
-204786 -1 -1;
#X obj 237 100 bng 15 250 50 0 save-scene save-scene-set s 4 7 0 12
-261234 -1 -1;
#N canvas 610 257 690 544 scenes 0;
#X obj 122 157 pdcontrol;
#X obj 122 84 r lb1;
#X obj 122 182 makefilename %s/scenes;
#X obj 54 51 r save-scene;
#X obj 54 215 symbol;
#X obj 54 238 savepanel;
#X msg 122 123 dir 0;
#X obj 73 423 textfile;
#X obj 502 157 pdcontrol;
#X obj 502 84 r lb1;
#X obj 502 182 makefilename %s/scenes;
#X obj 434 215 symbol;
#X msg 502 123 dir 0;
#X obj 434 51 r load-scene;
#X msg 73 400 add add-notes-about-your-scene-here \, write \$1;
#X obj 434 317 s player-1-load-scene;
#X obj 434 287 s player-0-load-scene;
#X obj 54 461 s player-0-save-scene;
#X obj 54 491 s player-1-save-scene;
#X obj 434 238 openpanel 1;
#X obj 54 261 t a a a;
#X obj 73 373 makefilename %s/scene-notes.txt;
#N canvas 726 140 1010 476 create-new-directory 0;
#X msg 48 379 mkdir \$1;
#X obj 48 408 motex/system;
#X obj 148 102 operating_system;
#X obj 48 152 list prepend;
#X obj 48 215 route linux macos windows;
#X obj 48 185 list trim;
#X obj 48 268 symbol;
#X obj 155 281 list fromsymbol;
#X obj 155 251 symbol;
#N canvas 697 162 429 693 replace-slashes 0;
#X obj 37 621 outlet;
#X obj 37 591 list tosymbol;
#X obj 37 29 inlet;
#X obj 211 335 table \$0-windows-path;
#X obj 142 100 list length;
#X obj 142 123 pack f \$0;
#X msg 142 146 \; \$2-windows-path resize \$1 \;;
#X obj 127 214 list prepend 0;
#X obj 127 237 s \$0-windows-path;
#X obj 37 561 array get \$0-windows-path;
#X obj 120 303 t f b;
#X obj 120 328 until;
#X obj 120 383 f;
#X obj 160 388 + 1;
#X msg 143 354 0;
#X obj 120 273 list length;
#X obj 120 446 tabread \$0-windows-path;
#X obj 120 469 select 47;
#X msg 120 492 92;
#X obj 120 515 tabwrite \$0-windows-path;
#X obj 120 406 t f f;
#X obj 37 59 t b l l l;
#X text 263 231 Replace all forward slashes (ASCII 47) with backslashes
(ASCII 92) so that windows path works., f 20;
#X connect 1 0 0 0;
#X connect 2 0 21 0;
#X connect 4 0 5 0;
#X connect 5 0 6 0;
#X connect 7 0 8 0;
#X connect 9 0 1 0;
#X connect 10 0 11 0;
#X connect 10 1 14 0;
#X connect 11 0 12 0;
#X connect 12 0 13 0;
#X connect 12 0 20 0;
#X connect 13 0 12 1;
#X connect 14 0 12 1;
#X connect 15 0 10 0;
#X connect 16 0 17 0;
#X connect 17 0 18 0;
#X connect 18 0 19 0;
#X connect 20 0 16 0;
#X connect 20 1 19 1;
#X connect 21 0 9 0;
#X connect 21 1 15 0;
#X connect 21 2 7 0;
#X connect 21 3 4 0;
#X restore 155 315 pd replace-slashes;
#X obj 48 22 inlet;
#X obj 48 55 t a b;
#X text 377 143 Using [motex/system] to issue the mkdir command because
[ggee/shell] does not work on Windows. Unfortunately \, [motex/system]
does not report an error if mkdir fails due to insufficient privileges.
;
#X text 377 241 Thank you \, Windows \, for using backslashes instead
of forward slashes in your paths. It's a true pleasure to write special
cases like this...;
#X connect 0 0 1 0;
#X connect 2 0 3 1;
#X connect 3 0 5 0;
#X connect 4 0 6 0;
#X connect 4 1 6 0;
#X connect 4 2 8 0;
#X connect 5 0 4 0;
#X connect 6 0 0 0;
#X connect 7 0 9 0;
#X connect 8 0 7 0;
#X connect 9 0 0 0;
#X connect 10 0 11 0;
#X connect 11 0 3 0;
#X connect 11 1 2 0;
#X restore 121 322 pd create-new-directory;
#X connect 0 0 2 0;
#X connect 1 0 6 0;
#X connect 2 0 4 1;
#X connect 3 0 4 0;
#X connect 4 0 5 0;
#X connect 5 0 20 0;
#X connect 6 0 0 0;
#X connect 8 0 10 0;
#X connect 9 0 12 0;
#X connect 10 0 11 1;
#X connect 11 0 19 0;
#X connect 12 0 8 0;
#X connect 13 0 11 0;
#X connect 14 0 7 0;
#X connect 19 0 15 0;
#X connect 19 0 16 0;
#X connect 20 0 17 0;
#X connect 20 0 18 0;
#X connect 20 1 21 0;
#X connect 20 2 22 0;
#X connect 21 0 14 0;
#X restore 323 232 pd scenes;
#X text 235 79 scenes;
#X obj 147 160 tgl 15 0 midi-suppress midi-suppress-set ms 1 8 0 12
-262144 -1 -1 0 1;
#X obj 147 140 tgl 15 0 midi-broadcast midi-broadcast-set mb 1 8 0
12 -262144 -1 -1 0 1;
#X obj 107 126 hradio 10 1 0 2 player-toggle-ab player-toggle-ab-set
empty 0 -8 0 10 -262144 -1 -1 0;
#X text 105 79 players;
#N canvas 681 172 314 141 cpu-keyboard-mapping 0;
#N canvas 0 23 682 586 global 0;
#X obj 36 42 key;
#X obj 36 116 spigot;
#X obj 113 77 ||;
#X obj 153 98 t b f;
#X obj 36 146 select 105 111;
#X obj 36 255 s save-scene-set;
#X obj 126 205 s load-scene-set;
#X obj 376 156 select 32;
#X obj 376 52 key;
#X obj 376 126 spigot;
#X obj 453 87 ||;
#X obj 493 108 t b f;
#X obj 396 192 r player-toggle-ab;
#X obj 376 222 f;
#X obj 416 212 + 1;
#X obj 416 232 % 2;
#X obj 416 252 s player-toggle-ab-set;
#X obj 376 332 key;
#X obj 376 406 spigot;
#X obj 453 367 ||;
#X obj 493 388 t b f;
#X obj 376 502 f;
#X obj 416 492 + 1;
#X obj 416 512 % 2;
#X obj 376 436 select 117;
#X obj 396 472 r midi-suppress;
#X obj 416 532 s midi-suppress-set;
#X obj 36 332 key;
#X obj 36 406 spigot;
#X obj 113 367 ||;
#X obj 153 388 t b f;
#X obj 36 502 f;
#X obj 76 492 + 1;
#X obj 76 512 % 2;
#X obj 36 436 select 121;
#X obj 56 472 r midi-broadcast;
#X obj 76 532 s midi-broadcast-set;
#X obj 113 26 r player-0-kbd-control;
#X obj 153 67 r player-1-kbd-control;
#X obj 453 36 r player-0-kbd-control;
#X obj 453 316 r player-0-kbd-control;
#X obj 113 316 r player-0-kbd-control;
#X obj 493 77 r player-1-kbd-control;
#X obj 493 357 r player-1-kbd-control;
#X obj 153 357 r player-1-kbd-control;
#X connect 0 0 1 0;
#X connect 1 0 4 0;
#X connect 2 0 1 1;
#X connect 3 0 2 0;
#X connect 3 1 2 1;
#X connect 4 0 5 0;
#X connect 4 1 6 0;
#X connect 7 0 13 0;
#X connect 8 0 9 0;
#X connect 9 0 7 0;
#X connect 10 0 9 1;
#X connect 11 0 10 0;
#X connect 11 1 10 1;
#X connect 12 0 13 1;
#X connect 13 0 14 0;
#X connect 14 0 15 0;
#X connect 15 0 13 1;
#X connect 15 0 16 0;
#X connect 17 0 18 0;
#X connect 18 0 24 0;
#X connect 19 0 18 1;
#X connect 20 0 19 0;
#X connect 20 1 19 1;
#X connect 21 0 22 0;
#X connect 22 0 23 0;
#X connect 23 0 21 1;
#X connect 23 0 26 0;
#X connect 24 0 21 0;
#X connect 25 0 21 1;
#X connect 27 0 28 0;
#X connect 28 0 34 0;
#X connect 29 0 28 1;
#X connect 30 0 29 0;
#X connect 30 1 29 1;
#X connect 31 0 32 0;
#X connect 32 0 33 0;
#X connect 33 0 31 1;
#X connect 33 0 36 0;
#X connect 34 0 31 0;
#X connect 35 0 31 1;
#X connect 37 0 2 0;
#X connect 38 0 3 0;
#X connect 39 0 10 0;
#X connect 40 0 19 0;
#X connect 41 0 29 0;
#X connect 42 0 11 0;
#X connect 43 0 20 0;
#X connect 44 0 30 0;
#X restore 50 49 pd global;
#N canvas 544 66 637 337 player-muting 0;
#X obj 334 64 key;
#X obj 334 138 spigot;
#X obj 334 234 f;
#X obj 374 224 + 1;
#X obj 374 244 % 2;
#X obj 334 168 select 109;
#X obj 44 64 key;
#X obj 44 138 spigot;
#X obj 44 234 f;
#X obj 84 224 + 1;
#X obj 84 244 % 2;
#X obj 44 168 select 110;
#X obj 411 48 r player-1-kbd-control;
#X obj 121 48 r player-0-kbd-control;
#X obj 64 204 r player-0-mute;
#X obj 84 264 s player-0-mute-set;
#X obj 354 204 r player-1-mute;
#X obj 374 264 s player-1-mute-set;
#X connect 0 0 1 0;
#X connect 1 0 5 0;
#X connect 2 0 3 0;
#X connect 3 0 4 0;
#X connect 4 0 2 1;
#X connect 4 0 17 0;
#X connect 5 0 2 0;
#X connect 6 0 7 0;
#X connect 7 0 11 0;
#X connect 8 0 9 0;
#X connect 9 0 10 0;
#X connect 10 0 8 1;
#X connect 10 0 15 0;
#X connect 11 0 8 0;
#X connect 12 0 1 1;
#X connect 13 0 7 1;
#X connect 14 0 8 1;
#X connect 16 0 2 1;
#X restore 50 69 pd player-muting;
#X restore 323 192 pd cpu-keyboard-mapping;
#N canvas 261 227 767 221 MIDI 0;
#N canvas 618 321 464 247 global-player-config 0;
#N canvas 400 155 554 386 muting 0;
#X obj 28 258 f;
#X obj 106 249 + 1;
#X obj 106 270 % 2;
#X obj 28 167 t b b;
#X msg 159 193 0;
#X msg 199 193 1;
#X obj 106 220 spigot 1;
#X obj 28 300 t b f;
#X obj 28 123 select 127;
#X obj 308 258 f;
#X obj 386 249 + 1;
#X obj 386 270 % 2;
#X obj 308 167 t b b;
#X msg 439 193 0;
#X msg 479 193 1;
#X obj 386 220 spigot 1;
#X obj 308 300 t b f;
#X obj 308 123 select 127;
#X obj 73 330 s player-0-mute-set;
#X obj 106 159 r player-0-mute;
#X obj 353 330 s player-1-mute-set;
#X obj 386 159 r player-1-mute;
#X obj 28 71 ctlin 11;
#X obj 308 71 ctlin 14;
#X obj 149 54 -;
#X obj 28 100 spigot 1;
#X obj 308 100 spigot 1;
#X obj 149 31 swap 1;
#X obj 149 8 r midi-suppress;
#X connect 0 0 7 0;
#X connect 1 0 2 0;
#X connect 2 0 0 1;
#X connect 3 0 0 0;
#X connect 3 1 4 0;
#X connect 4 0 6 1;
#X connect 5 0 6 1;
#X connect 6 0 1 0;
#X connect 7 0 5 0;
#X connect 7 1 18 0;
#X connect 7 1 1 0;
#X connect 8 0 3 0;
#X connect 9 0 16 0;
#X connect 10 0 11 0;
#X connect 11 0 9 1;
#X connect 12 0 9 0;
#X connect 12 1 13 0;
#X connect 13 0 15 1;
#X connect 14 0 15 1;
#X connect 15 0 10 0;
#X connect 16 0 14 0;
#X connect 16 1 20 0;
#X connect 16 1 10 0;
#X connect 17 0 12 0;
#X connect 19 0 6 0;
#X connect 21 0 15 0;
#X connect 22 0 25 0;
#X connect 23 0 26 0;
#X connect 24 0 26 1;
#X connect 24 0 25 1;
#X connect 25 0 8 0;
#X connect 26 0 17 0;
#X connect 27 0 24 0;
#X connect 27 1 24 1;
#X connect 28 0 27 0;
#X restore 45 88 pd muting;
#X text 158 53 Map gain faders and muting globally (outside of abstractions)
so that 102/103 will always be accessible on controller as player A/B
gains and mutes, f 33;
#N canvas 451 72 650 368 gain-automation 0;
#X obj 49 90 t b;
#X obj 49 235 symbol;
#X obj 49 26 ctlin 102;
#X obj 379 90 t b;
#X obj 379 26 ctlin 103;
#X obj 69 269 s player-1-last-MIDI-trig-send-name;
#X obj 49 299 s player-0-last-MIDI-trig-send-name;
#X msg 49 164 player-0-gain-set;
#X msg 379 164 player-1-gain-set;
#X connect 0 0 7 0;
#X connect 1 0 5 0;
#X connect 1 0 6 0;
#X connect 2 0 0 0;
#X connect 3 0 8 0;
#X connect 4 0 3 0;
#X connect 7 0 1 0;
#X connect 8 0 1 0;
#X restore 45 138 pd gain-automation;
#N canvas 451 72 650 368 muting-automation 0;
#X obj 49 90 t b;
#X obj 49 235 symbol;
#X obj 379 90 t b;
#X obj 69 269 s player-1-last-MIDI-trig-send-name;
#X obj 49 299 s player-0-last-MIDI-trig-send-name;
#X obj 49 26 ctlin 11;
#X msg 49 164 player-0-mute-set;
#X msg 379 164 player-1-mute-set;
#X obj 379 26 ctlin 14;
#X connect 0 0 6 0;
#X connect 1 0 3 0;
#X connect 1 0 4 0;
#X connect 2 0 7 0;
#X connect 5 0 0 0;
#X connect 6 0 1 0;
#X connect 7 0 1 0;
#X connect 8 0 2 0;
#X restore 45 158 pd muting-automation;
#N canvas 871 159 664 205 scene-save-load 0;
#X text 390 57 scene saving/loading is global for players A and B \,
so need to feed \$1 and \$2 to the abstraction as the player ID, f
30;
#X obj 43 46 button-bang-map save-scene 7 0;
#X obj 43 76 button-bang-map save-scene 7 1;
#X obj 43 106 button-bang-map load-scene 8 0;
#X obj 43 137 button-bang-map load-scene 8 1;
#X restore 45 188 pd scene-save-load;
#N canvas 212 320 783 400 gain 0;
#X obj 28 186 / 127;
#X obj 156 201 * 127;
#X obj 28 146 t f b;
#X obj 28 292 t b f;
#X msg 216 210 0;
#X msg 248 211 1;
#X obj 156 240 spigot 1;
#X obj 28 248 + 40;
#X obj 28 217 * 60;
#X obj 156 140 - 40;
#X obj 156 171 / 60;
#X obj 156 264 ctlout 102;
#X obj 438 186 / 127;
#X obj 566 201 * 127;
#X obj 438 146 t f b;
#X obj 438 292 t b f;
#X msg 626 210 0;
#X msg 658 211 1;
#X obj 566 240 spigot 1;
#X obj 438 248 + 40;
#X obj 438 217 * 60;
#X obj 566 140 - 40;
#X obj 566 171 / 60;
#X obj 566 264 ctlout 103;
#X obj 483 345 s player-1-gain-set;
#X obj 566 109 r player-1-gain;
#X obj 156 109 r player-0-gain;
#X obj 73 345 s player-0-gain-set;
#X obj 279 64 -;
#X obj 28 90 ctlin 102;
#X obj 438 90 ctlin 103;
#X obj 28 110 spigot 1;
#X obj 438 110 spigot 1;
#X obj 279 41 swap 1;
#X obj 279 18 r midi-suppress;
#X connect 0 0 8 0;
#X connect 1 0 6 0;
#X connect 2 0 0 0;
#X connect 2 1 4 0;
#X connect 3 0 5 0;
#X connect 3 1 27 0;
#X connect 4 0 6 1;
#X connect 5 0 6 1;
#X connect 6 0 11 0;
#X connect 7 0 3 0;
#X connect 8 0 7 0;
#X connect 9 0 10 0;
#X connect 10 0 1 0;
#X connect 12 0 20 0;
#X connect 13 0 18 0;
#X connect 14 0 12 0;
#X connect 14 1 16 0;
#X connect 15 0 17 0;
#X connect 15 1 24 0;
#X connect 16 0 18 1;
#X connect 17 0 18 1;
#X connect 18 0 23 0;
#X connect 19 0 15 0;
#X connect 20 0 19 0;
#X connect 21 0 22 0;
#X connect 22 0 13 0;
#X connect 25 0 21 0;
#X connect 26 0 9 0;
#X connect 28 0 32 1;
#X connect 28 0 31 1;
#X connect 29 0 31 0;
#X connect 30 0 32 0;
#X connect 31 0 2 0;
#X connect 32 0 14 0;
#X connect 33 0 28 0;
#X connect 33 1 28 1;
#X connect 34 0 33 0;
#X restore 45 68 pd gain;
#X restore 461 26 pd global-player-config;
#X obj 31 136 ctlin 3;
#X obj 461 136 ctlin 4;
#X text 531 134 CC 4 gates out MIDI messages while depressed so that
physical controls can be moved freely without changing values., f
32;
#X obj 31 180 s midi-broadcast-set;
#X obj 461 186 s midi-suppress-set;
#X obj 31 26 ctlin 0;
#X text 91 24 swap active control for players A/B;
#X obj 31 70 s player-toggle-ab-set;
#X text 111 134 broadcast MIDI to both players while depressed;
#X obj 31 160 > 0;
#X obj 31 50 > 0;
#X obj 461 166 > 0;
#X connect 1 0 10 0;
#X connect 2 0 12 0;
#X connect 6 0 11 0;
#X connect 10 0 4 0;
#X connect 11 0 8 0;
#X connect 12 0 5 0;
#X restore 323 172 pd MIDI;
#N canvas 816 290 450 300 interface-misc 0;
#X obj 74 81 r global-kbd-control;
#X msg 74 150 \; player-\$2-kbd-control-set \$1 \; player-\$3-kbd-control-set
\$1 \;;
#X obj 74 110 pack f 0 1;
#X connect 0 0 2 0;
#X connect 2 0 1 0;
#X restore 323 212 pd interface-misc;
#X connect 8 0 11 0;
#X connect 9 0 12 0;
#X connect 11 0 10 0;
#X connect 12 0 10 0;
#X coords 0 -1 1 1 270 180 2 10 10;
#X restore 43 27 pd control-panel;
#X coords 0 262 1 261 1100 600 0;
