#N canvas 1245 152 440 387 12;
#X obj 47 45 moses 41;
#X msg 47 66 0;
#X obj 47 229 * 255;
#X obj 47 87 - 40;
#X obj 47 138 / 60;
#X obj 47 108 max 0;
#X obj 47 24 r player-\$1-gain;
#X obj 47 280 value player-\$1-draw-brightness;
#X obj 117 182 r draw-brightness-exp;
#X obj 117 206 t b f;
#X obj 47 182 pow 3;
#X connect 0 0 1 0;
#X connect 0 1 3 0;
#X connect 1 0 3 0;
#X connect 2 0 7 0;
#X connect 3 0 5 0;
#X connect 4 0 10 0;
#X connect 5 0 4 0;
#X connect 6 0 0 0;
#X connect 8 0 9 0;
#X connect 9 0 10 0;
#X connect 9 1 10 1;
#X connect 10 0 2 0;
