#N canvas 1071 587 694 288 10;
#X declare -lib ofelia -path ./lib;
#X obj 38 240 ofelia;
#X msg 118 138 read -c ./scripts/plot-players-01.lua;
#X floatatom 150 185 5 1 100 0 - - draw-brightness-exp;
#X msg 78 98 read -c ./scripts/plot-players-0123-columns-fades.lua
;
#X msg 58 78 read -c ./scripts/plot-players-0123-rows-fades.lua;
#X obj 150 235 declare -lib ofelia -path ./lib;
#X msg 38 58 read -c ./scripts/plot-players-0123-matrix-fades-info.lua
;
#N canvas 1444 538 269 378 transfer-data 0;
#X obj 24 58 clone gain-to-brightness 4;
#X obj 24 28 clone player-data-for-plot 4;
#X obj 24 98 r visuals-show-data;
#X obj 24 119 value visuals-show-data-ofValue;
#X obj 24 158 r visuals-xpos;
#X obj 24 179 value visuals-xpos-ofValue;
#X obj 24 218 r timer-min;
#X obj 24 239 value timer-min-ofValue;
#X obj 24 299 value timer-sec-ofValue;
#X obj 24 278 r timer-sec;
#X connect 2 0 3 0;
#X connect 4 0 5 0;
#X connect 6 0 7 0;
#X connect 9 0 8 0;
#X restore 150 205 pd transfer-data;
#X obj 38 28 r run-master-visuals;
#X obj 501 42 adc~ 1 2 3 4;
#N canvas 210 575 825 378 block-signal 0;
#X obj 667 60 r master-block-size;
#X msg 667 83 set \$1 1 1;
#X obj 667 106 block~ 2048 1 1;
#X obj 64 50 inlet~;
#X obj 144 50 inlet~;
#X obj 224 50 inlet~;
#X obj 304 50 inlet~;
#X obj 537 185 table player-0-raw-output-plot 2048;
#X obj 537 216 table player-1-raw-output-plot 2048;
#X obj 537 246 table player-2-raw-output-plot 2048;
#X obj 537 277 table player-3-raw-output-plot 2048;
#X obj 65 203 tabwrite~ player-0-raw-output-plot;
#X obj 443 49 bang~;
#X obj 145 168 tabwrite~ player-1-raw-output-plot;
#X obj 225 138 tabwrite~ player-2-raw-output-plot;
#X obj 305 109 tabwrite~ player-3-raw-output-plot;
#X connect 0 0 1 0;
#X connect 1 0 2 0;
#X connect 3 0 11 0;
#X connect 4 0 13 0;
#X connect 5 0 14 0;
#X connect 6 0 15 0;
#X connect 12 0 11 0;
#X connect 12 0 15 0;
#X connect 12 0 14 0;
#X connect 12 0 13 0;
#X restore 502 85 pd block-signal;
#X obj 460 152 loadbang;
#X msg 460 198 \; master-block-size 2048 \; pd dsp 1 \;;
#N canvas 1348 385 369 346 timer 0;
#X obj 53 33 r timer-reset;
#X obj 53 56 timer;
#X obj 121 70 loadbang;
#X obj 121 93 metro 1000;
#X obj 53 79 / 1000;
#X obj 53 152 t f f;
#X obj 103 175 % 60;
#X obj 53 102 + 0.5;
#X obj 53 125 i;
#X obj 53 175 / 60;
#X obj 53 198 i;
#X obj 53 221 s timer-min;
#X obj 103 198 s timer-sec;
#X connect 0 0 1 0;
#X connect 1 0 4 0;
#X connect 2 0 3 0;
#X connect 3 0 1 1;
#X connect 4 0 7 0;
#X connect 5 0 9 0;
#X connect 5 1 6 0;
#X connect 6 0 12 0;
#X connect 7 0 8 0;
#X connect 8 0 5 0;
#X connect 9 0 10 0;
#X connect 10 0 11 0;
#X restore 337 193 pd timer;
#X connect 1 0 0 0;
#X connect 3 0 0 0;
#X connect 4 0 0 0;
#X connect 6 0 0 0;
#X connect 8 0 6 0;
#X connect 9 0 10 0;
#X connect 9 1 10 1;
#X connect 9 2 10 2;
#X connect 9 3 10 3;
#X connect 11 0 12 0;
