#N canvas 1261 644 440 294 10;
#X declare -lib ofelia -path ./lib;
#X obj 38 240 ofelia;
#X msg 118 138 read -c ./scripts/plot-players-01.lua;
#X floatatom 150 185 5 1 100 0 - - draw-brightness-exp;
#X msg 78 98 read -c ./scripts/plot-players-0123-columns-fades.lua
;
#X msg 58 78 read -c ./scripts/plot-players-0123-rows-fades.lua;
#X obj 150 235 declare -lib ofelia -path ./lib;
#X msg 38 58 read -c ./scripts/plot-players-0123-matrix-fades-info.lua
;
#N canvas 1444 584 269 242 transfer-data 1;
#X obj 24 58 clone gain-to-brightness 4;
#X obj 24 28 clone player-data-for-plot 4;
#X obj 24 98 r visuals-show-data;
#X obj 24 119 value visuals-show-data-ofValue;
#X obj 24 158 r visuals-xpos;
#X obj 24 179 value visuals-xpos-ofValue;
#X connect 2 0 3 0;
#X connect 4 0 5 0;
#X restore 150 205 pd transfer-data;
#X obj 38 28 r run-master-visuals;
#X connect 1 0 0 0;
#X connect 3 0 0 0;
#X connect 4 0 0 0;
#X connect 6 0 0 0;
#X connect 8 0 6 0;
