#N canvas 91 105 596 585 10;
#X floatatom 368 258 5 0 0 1 direct-#1-tap-out-gain direct-#1-tap-out-gain-set
direct-#1-tap-out-gain;
#X obj 85 446 dbtorms;
#X obj 85 468 pack f 40;
#X obj 85 490 line~;
#X obj 37 399 *~;
#X obj 125 221 dbtorms;
#X obj 125 243 pack f 40;
#X obj 125 265 line~;
#X obj 37 244 *~;
#X floatatom 368 238 5 0 0 1 direct-#1-out-gain direct-#1-out-gain-set
direct-#1-out-gain;
#X obj 37 59 catch~ direct-\$1-in;
#X obj 125 198 r direct-\$1-out-gain;
#X obj 87 370 s~ direct-\$1-out;
#X obj 85 423 r direct-\$1-tap-out-gain;
#X floatatom 368 288 5 0 0 1 direct-#1-spat-pos direct-#1-spat-pos-set
direct-#1-spat-pos;
#X floatatom 368 308 5 0 0 1 direct-#1-spat-width direct-#1-spat-width-set
direct-#1-spat-width;
#X obj 37 523 send~ direct-\$1-tap-out;
#X connect 1 0 2 0;
#X connect 2 0 3 0;
#X connect 3 0 4 1;
#X connect 4 0 16 0;
#X connect 5 0 6 0;
#X connect 6 0 7 0;
#X connect 7 0 8 1;
#X connect 8 0 4 0;
#X connect 8 0 12 0;
#X connect 10 0 8 0;
#X connect 11 0 5 0;
#X connect 13 0 1 0;
#X coords 0 -1 1 1 200 130 1 350 200;
