#N canvas 91 105 596 585 10;
#X floatatom 358 245 5 0 0 1 direct-#1-tap-out-gain direct-#1-tap-out-gain-set
direct-#1-tap-out-gain;
#X obj 85 446 dbtorms;
#X obj 85 468 pack f 40;
#X obj 85 490 line~;
#X obj 37 399 *~;
#X obj 125 151 dbtorms;
#X obj 125 173 pack f 40;
#X obj 125 195 line~;
#X obj 37 244 *~;
#X floatatom 358 225 5 0 0 1 direct-#1-out-gain direct-#1-out-gain-set
direct-#1-out-gain;
#X obj 37 59 catch~ direct-\$1-in;
#X obj 125 128 r direct-\$1-out-gain;
#X obj 87 300 s~ direct-\$1-out;
#X floatatom 358 275 5 0 0 1 direct-#1-spat-pos direct-#1-spat-pos-set
direct-#1-spat-pos;
#X floatatom 358 295 5 0 0 1 direct-#1-spat-width direct-#1-spat-width-set
direct-#1-spat-width;
#X obj 37 523 send~ direct-\$1-tap-out;
#X floatatom 358 315 5 0 0 1 direct-#1-spat-lfo-freq direct-#1-spat-lfo-freq-set
direct-#1-spat-lfo-freq;
#X obj 358 335 hradio 15 1 0 6 direct-\$1-spat-sig-source direct-\$1-spat-sig-source-set
spat-sig 16 8 0 10 -262144 -1 -1 0;
#X obj 379 470 switch~;
#N canvas 941 183 419 243 decide-to-compute 0;
#X obj 23 47 select 0;
#X obj 23 98 delay 1000;
#X msg 23 119 0;
#X msg 103 129 1;
#X obj 103 103 t b;
#X obj 23 170 outlet;
#X text 155 63 If the out-gain is nonzero \, turn computing on for
this plugin. If out-gain is zero \, wait 1 second for any remaining
audio to fade out \, then turn off computing. This isn't foolproof
\, but will get rid of most problems, f 33;
#X obj 23 26 r direct-\$1-out-gain;
#X connect 0 0 1 0;
#X connect 0 1 4 0;
#X connect 1 0 2 0;
#X connect 2 0 5 0;
#X connect 3 0 5 0;
#X connect 4 0 3 0;
#X connect 7 0 0 0;
#X restore 379 442 pd decide-to-compute;
#X obj 525 335 tgl 15 0 empty empty c 4 7 0 10 -262144 -1 -1 1 1;
#X obj 85 353 r direct-\$1-tap-out-gain;
#X obj 85 374 moses 41;
#X obj 85 395 t b;
#X msg 85 416 0;
#X connect 1 0 2 0;
#X connect 2 0 3 0;
#X connect 3 0 4 1;
#X connect 4 0 15 0;
#X connect 5 0 6 0;
#X connect 6 0 7 0;
#X connect 7 0 8 1;
#X connect 8 0 4 0;
#X connect 8 0 12 0;
#X connect 10 0 8 0;
#X connect 11 0 5 0;
#X connect 19 0 18 0;
#X connect 19 0 20 0;
#X connect 21 0 22 0;
#X connect 22 0 23 0;
#X connect 22 1 1 0;
#X connect 23 0 24 0;
#X connect 24 0 1 0;
#X coords 0 -1 1 1 200 155 1 350 200;
