#N canvas 91 105 573 567 10;
#X floatatom 308 150 5 0 0 1 phaser-#1-tap-out-gain phaser-#1-tap-out-gain-set
phaser-#1-tap-out-gain;
#X obj 85 437 dbtorms;
#X obj 85 459 pack f 40;
#X obj 85 481 line~;
#X obj 37 390 *~;
#X obj 87 361 s~ phaser-\$1-out;
#X obj 37 50 catch~ phaser-\$1-in;
#X floatatom 308 180 5 0 0 1 phaser-#1-rate phaser-#1-rate-set phaser-#1-rate
;
#X obj 125 212 dbtorms;
#X obj 125 234 pack f 40;
#X obj 125 256 line~;
#X obj 37 235 *~;
#X obj 125 189 r phaser-\$1-out-gain;
#X floatatom 308 130 5 0 0 1 phaser-#1-out-gain phaser-#1-out-gain-set
phaser-#1-out-gain;
#X obj 85 414 r phaser-\$1-tap-out-gain;
#N canvas 0 23 725 532 phaser-from-H.15 0;
#X obj 67 43 inlet~;
#X obj 67 390 outlet~;
#X obj 334 96 r phaser-\$1-rate;
#X obj 161 122 rpole~;
#X obj 161 97 rzero_rev~;
#X obj 161 171 rpole~;
#X obj 161 146 rzero_rev~;
#X obj 161 219 rpole~;
#X obj 161 194 rzero_rev~;
#X obj 161 268 rpole~;
#X obj 161 243 rzero_rev~;
#X obj 138 298 +~;
#X obj 316 246 expr~ 1 - 0.03 - 0.6*abs($v1-0.5)*abs($v1-0.5);
#X obj 334 117 pack f 40;
#X obj 334 138 line~;
#X obj 316 214 phasor~;
#X connect 0 0 4 0;
#X connect 0 0 11 0;
#X connect 2 0 13 0;
#X connect 3 0 6 0;
#X connect 4 0 3 0;
#X connect 5 0 8 0;
#X connect 6 0 5 0;
#X connect 7 0 10 0;
#X connect 8 0 7 0;
#X connect 9 0 11 1;
#X connect 10 0 9 0;
#X connect 11 0 1 0;
#X connect 12 0 4 1;
#X connect 12 0 3 1;
#X connect 12 0 6 1;
#X connect 12 0 5 1;
#X connect 12 0 8 1;
#X connect 12 0 7 1;
#X connect 12 0 10 1;
#X connect 12 0 9 1;
#X connect 13 0 14 0;
#X connect 14 0 15 0;
#X connect 15 0 12 0;
#X restore 37 124 pd phaser-from-H.15;
#X floatatom 308 210 5 0 0 1 phaser-#1-spat-pos phaser-#1-spat-pos-set
phaser-#1-spat-pos;
#X floatatom 308 230 5 0 0 1 phaser-#1-spat-width phaser-#1-spat-width-set
phaser-#1-spat-width;
#X obj 37 514 send~ phaser-\$1-tap-out;
#X floatatom 308 250 5 0 0 1 phaser-#1-spat-lfo-freq phaser-#1-spat-lfo-freq-set
phaser-#1-spat-lfo-freq;
#X obj 308 270 hradio 15 1 0 6 phaser-\$1-spat-sig-source phaser-\$1-spat-sig-source-set
spat-sig 16 8 0 10 -262144 -1 -1 0;
#X connect 1 0 2 0;
#X connect 2 0 3 0;
#X connect 3 0 4 1;
#X connect 4 0 18 0;
#X connect 6 0 15 0;
#X connect 8 0 9 0;
#X connect 9 0 10 0;
#X connect 10 0 11 1;
#X connect 11 0 5 0;
#X connect 11 0 4 0;
#X connect 12 0 8 0;
#X connect 14 0 1 0;
#X connect 15 0 11 0;
#X coords 0 -1 1 1 200 195 1 300 100;
