#N canvas 323 119 765 605 10;
#X floatatom 366 228 5 0 0 1 pitch-shift-#1-tap-out-gain pitch-shift-#1-tap-out-gain-set
pitch-shift-#1-tap-out-gain;
#X obj 85 432 dbtorms;
#X obj 85 454 pack f 40;
#X obj 85 476 line~;
#X obj 37 385 *~;
#X obj 77 350 s~ pitch-shift-\$1-out;
#X obj 37 69 catch~ pitch-shift-\$1-in;
#X obj 85 409 r pitch-shift-\$1-tap-out-gain;
#N canvas 167 215 748 563 pitch-shift 0;
#X obj 318 22 inlet~;
#X obj 73 511 outlet~;
#X obj 136 367 *~;
#X obj 259 304 line~;
#X floatatom 291 121 0 0 0 0 - - -;
#X obj 259 278 pack 0 200;
#X obj 73 152 exp;
#X obj 73 268 /;
#X obj 200 198 * 0.001;
#X obj 368 374 line~;
#X obj 368 349 pack 0 200;
#X floatatom 368 298 0 0 0 0 - - -;
#X obj 136 393 +~;
#X obj 73 419 cos~;
#X obj 73 446 *~;
#X obj 73 475 +~;
#X obj 160 326 wrap~;
#X obj 305 369 *~;
#X obj 305 402 +~;
#X obj 242 429 cos~;
#X obj 242 456 *~;
#X obj 200 225 t b f;
#X obj 160 299 +~ 0.5;
#X obj 73 367 -~ 0.5;
#X obj 73 393 *~ 0.5;
#X obj 242 368 -~ 0.5;
#X obj 242 401 *~ 0.5;
#X obj 73 205 - 1;
#X obj 73 126 * 0.05776;
#X obj 73 231 * -1;
#X text 136 172 speed;
#X text 135 186 change;
#X text 335 120 <--window (msec);
#X text 108 261 tape head;
#X obj 73 325 phasor~;
#X obj 368 325 max 1.5;
#X text 371 231 delay;
#X text 368 249 (msec);
#X obj 291 148 max 1;
#X text 109 274 rotation freq;
#X obj 318 51 delwrite~ \$0-ps-del 5000;
#X obj 305 431 vd~ \$0-ps-del;
#X obj 136 419 vd~ \$0-ps-del;
#X obj 73 70 r pitch-shift-\$1-transpo;
#X obj 291 95 r \$0-ps-window;
#X obj 368 272 r \$0-ps-delay;
#X obj 546 39 f \$0;
#X obj 546 9 loadbang;
#X msg 546 65 \; \$1-ps-window 100 \; \$1-ps-delay 0 \;;
#X connect 0 0 40 0;
#X connect 2 0 12 0;
#X connect 3 0 2 1;
#X connect 3 0 17 1;
#X connect 4 0 38 0;
#X connect 5 0 3 0;
#X connect 6 0 27 0;
#X connect 7 0 34 0;
#X connect 8 0 21 0;
#X connect 9 0 12 1;
#X connect 9 0 18 1;
#X connect 10 0 9 0;
#X connect 11 0 35 0;
#X connect 12 0 42 0;
#X connect 13 0 14 0;
#X connect 14 0 15 0;
#X connect 15 0 1 0;
#X connect 16 0 17 0;
#X connect 16 0 25 0;
#X connect 17 0 18 0;
#X connect 18 0 41 0;
#X connect 19 0 20 0;
#X connect 20 0 15 1;
#X connect 21 0 7 0;
#X connect 21 1 7 1;
#X connect 22 0 16 0;
#X connect 23 0 24 0;
#X connect 24 0 13 0;
#X connect 25 0 26 0;
#X connect 26 0 19 0;
#X connect 27 0 29 0;
#X connect 28 0 6 0;
#X connect 29 0 7 0;
#X connect 34 0 2 0;
#X connect 34 0 23 0;
#X connect 34 0 22 0;
#X connect 35 0 10 0;
#X connect 38 0 8 0;
#X connect 38 0 5 0;
#X connect 41 0 20 1;
#X connect 42 0 14 1;
#X connect 43 0 28 0;
#X connect 44 0 4 0;
#X connect 45 0 11 0;
#X connect 46 0 48 0;
#X connect 47 0 46 0;
#X restore 37 103 pd pitch-shift;
#X floatatom 366 258 5 0 0 1 pitch-shift-#1-transpo pitch-shift-#1-transpo-set
pitch-shift-#1-transpo;
#X obj 85 171 dbtorms;
#X obj 85 193 pack f 40;
#X obj 85 215 line~;
#X obj 37 244 *~;
#X obj 85 148 r pitch-shift-\$1-out-gain;
#X floatatom 366 208 5 0 0 1 pitch-shift-#1-out-gain pitch-shift-#1-out-gain-set
pitch-shift-#1-out-gain;
#X floatatom 366 288 5 0 0 1 pitch-shift-#1-spat-pos pitch-shift-#1-spat-pos-set
pitch-shift-#1-spat-pos;
#X floatatom 366 308 5 0 0 1 pitch-shift-#1-spat-width pitch-shift-#1-spat-width-set
pitch-shift-#1-spat-width;
#X obj 37 509 send~ pitch-shift-\$1-tap-out;
#X floatatom 366 328 5 0 0 1 pitch-shift-#1-spat-lfo-freq pitch-shift-#1-spat-lfo-freq-set
pitch-shift-#1-spat-lfo-freq;
#X obj 366 348 hradio 15 1 0 6 pitch-shift-\$1-spat-sig-source pitch-shift-\$1-spat-sig-source-set
spat-sig 16 8 0 10 -262144 -1 -1 0;
#X connect 1 0 2 0;
#X connect 2 0 3 0;
#X connect 3 0 4 1;
#X connect 4 0 18 0;
#X connect 6 0 8 0;
#X connect 7 0 1 0;
#X connect 8 0 13 0;
#X connect 10 0 11 0;
#X connect 11 0 12 0;
#X connect 12 0 13 1;
#X connect 13 0 5 0;
#X connect 13 0 4 0;
#X connect 14 0 10 0;
#X coords 0 -1 1 1 215 190 1 360 180;
