#N canvas 193 23 774 586 10;
#X floatatom 368 228 5 0 0 1 reverb-#1-tap-out-gain reverb-#1-tap-out-gain-set
reverb-#1-tap-out-gain;
#X obj 85 402 dbtorms;
#X obj 85 424 pack f 40;
#X obj 85 446 line~;
#X obj 37 355 *~;
#X obj 77 340 s~ reverb-\$1-out;
#X obj 37 29 catch~ reverb-\$1-in;
#X obj 85 379 r reverb-\$1-tap-out-gain;
#X floatatom 368 258 5 0 0 1 reverb-#1-rvb reverb-#1-rvb-set reverb-#1-rvb
;
#X obj 95 171 dbtorms;
#X obj 95 193 pack f 40;
#X obj 95 215 line~;
#X obj 37 254 *~;
#X obj 95 148 r reverb-\$1-out-gain;
#X floatatom 368 208 5 0 0 1 reverb-#1-out-gain reverb-#1-out-gain-set
reverb-#1-out-gain;
#X floatatom 368 288 5 0 0 1 reverb-#1-spat-pos reverb-#1-spat-pos-set
reverb-#1-spat-pos;
#X floatatom 368 308 5 0 0 1 reverb-#1-spat-width reverb-#1-spat-width-set
reverb-#1-spat-width;
#X obj 37 499 send~ reverb-\$1-tap-out;
#X obj 107 83 r reverb-\$1-rvb;
#X obj 37 113 rev3~ 100 85 3000 20;
#X floatatom 368 328 5 0 0 1 reverb-#1-spat-lfo-freq reverb-#1-spat-lfo-freq-set
reverb-#1-spat-lfo-freq;
#X connect 1 0 2 0;
#X connect 2 0 3 0;
#X connect 3 0 4 1;
#X connect 4 0 17 0;
#X connect 6 0 19 0;
#X connect 7 0 1 0;
#X connect 9 0 10 0;
#X connect 10 0 11 0;
#X connect 11 0 12 1;
#X connect 12 0 5 0;
#X connect 12 0 4 0;
#X connect 13 0 9 0;
#X connect 18 0 19 3;
#X connect 19 0 12 0;
#X coords 0 -1 1 1 200 170 1 360 180;
