#N canvas 193 23 774 586 10;
#X floatatom 368 228 5 0 0 1 reverb-#1-tap-out-gain reverb-#1-tap-out-gain-set
reverb-#1-tap-out-gain;
#X obj 85 424 pack f 40;
#X obj 85 446 line~;
#X obj 37 355 *~;
#X obj 77 280 s~ reverb-\$1-out;
#X obj 37 29 catch~ reverb-\$1-in;
#X obj 85 308 r reverb-\$1-tap-out-gain;
#X floatatom 368 258 5 0 0 1 reverb-#1-rvb reverb-#1-rvb-set reverb-#1-rvb
;
#X obj 95 171 dbtorms;
#X obj 95 193 pack f 40;
#X obj 95 215 line~;
#X obj 37 254 *~;
#X obj 95 148 r reverb-\$1-out-gain;
#X floatatom 368 208 5 0 0 1 reverb-#1-out-gain reverb-#1-out-gain-set
reverb-#1-out-gain;
#X floatatom 368 288 5 0 0 1 reverb-#1-spat-pos reverb-#1-spat-pos-set
reverb-#1-spat-pos;
#X floatatom 368 308 5 0 0 1 reverb-#1-spat-width reverb-#1-spat-width-set
reverb-#1-spat-width;
#X obj 37 499 send~ reverb-\$1-tap-out;
#X obj 107 83 r reverb-\$1-rvb;
#X obj 37 113 rev3~ 100 85 3000 20;
#X floatatom 368 328 5 0 0 1 reverb-#1-spat-lfo-freq reverb-#1-spat-lfo-freq-set
reverb-#1-spat-lfo-freq;
#X obj 368 348 hradio 15 1 0 6 reverb-\$1-spat-sig-source reverb-\$1-spat-sig-source-set
spat-sig 16 8 0 10 -262144 -1 -1 0;
#X obj 389 483 switch~;
#N canvas 941 183 419 243 decide-to-compute 0;
#X obj 23 47 select 0;
#X obj 23 98 delay 1000;
#X msg 23 119 0;
#X msg 103 129 1;
#X obj 103 103 t b;
#X obj 23 170 outlet;
#X text 155 63 If the out-gain is nonzero \, turn computing on for
this plugin. If out-gain is zero \, wait 1 second for any remaining
audio to fade out \, then turn off computing. This isn't foolproof
\, but will get rid of most problems, f 33;
#X obj 23 26 r reverb-\$1-out-gain;
#X connect 0 0 1 0;
#X connect 0 1 4 0;
#X connect 1 0 2 0;
#X connect 2 0 5 0;
#X connect 3 0 5 0;
#X connect 4 0 3 0;
#X connect 7 0 0 0;
#X restore 389 455 pd decide-to-compute;
#X obj 535 348 tgl 15 0 empty empty c 4 7 0 10 -262144 -1 -1 1 1;
#X obj 85 403 dbtorms;
#X obj 85 331 moses 41;
#X obj 85 352 t b;
#X msg 85 373 0;
#X connect 1 0 2 0;
#X connect 2 0 3 1;
#X connect 3 0 16 0;
#X connect 5 0 18 0;
#X connect 6 0 25 0;
#X connect 8 0 9 0;
#X connect 9 0 10 0;
#X connect 10 0 11 1;
#X connect 11 0 4 0;
#X connect 11 0 3 0;
#X connect 12 0 8 0;
#X connect 17 0 18 3;
#X connect 18 0 11 0;
#X connect 22 0 21 0;
#X connect 22 0 23 0;
#X connect 24 0 1 0;
#X connect 25 0 26 0;
#X connect 25 1 24 0;
#X connect 26 0 27 0;
#X connect 27 0 24 0;
#X coords 0 -1 1 1 200 190 1 360 180;
