#N canvas 1071 587 694 288 10;
#X declare -lib ofelia -path ./lib;
#X obj 38 240 ofelia;
#X msg 118 138 read -c ./scripts/plot-players-01.lua;
#X floatatom 150 185 5 1 100 0 - - draw-brightness-exp;
#X obj 150 235 declare -lib ofelia -path ./lib;
#N canvas 1444 568 269 378 transfer-data 0;
#X obj 24 218 r timer-min;
#X obj 24 239 value timer-min-ofValue;
#X obj 24 299 value timer-sec-ofValue;
#X obj 24 278 r timer-sec;
#X obj 24 98 r plots-show-data;
#X obj 24 119 value plots-show-data-ofValue;
#X obj 24 158 r plots-xpos;
#X obj 24 179 value plots-xpos-ofValue;
#X obj 24 28 clone player-data-for-plot 6;
#X obj 24 58 clone gain-to-brightness 6;
#X connect 0 0 1 0;
#X connect 3 0 2 0;
#X connect 4 0 5 0;
#X connect 6 0 7 0;
#X restore 150 205 pd transfer-data;
#N canvas 210 575 825 378 block-signal 0;
#X obj 667 20 r master-block-size;
#X msg 667 43 set \$1 1 1;
#X obj 667 66 block~ 2048 1 1;
#X obj 64 50 inlet~;
#X obj 144 50 inlet~;
#X obj 224 50 inlet~;
#X obj 304 50 inlet~;
#X obj 537 185 table player-0-raw-output-plot 2048;
#X obj 537 216 table player-1-raw-output-plot 2048;
#X obj 537 246 table player-2-raw-output-plot 2048;
#X obj 537 277 table player-3-raw-output-plot 2048;
#X obj 65 263 tabwrite~ player-0-raw-output-plot;
#X obj 559 35 bang~;
#X obj 145 228 tabwrite~ player-1-raw-output-plot;
#X obj 225 198 tabwrite~ player-2-raw-output-plot;
#X obj 305 169 tabwrite~ player-3-raw-output-plot;
#X obj 384 50 inlet~;
#X obj 464 50 inlet~;
#X obj 385 138 tabwrite~ player-4-raw-output-plot;
#X obj 465 109 tabwrite~ player-5-raw-output-plot;
#X obj 537 306 table player-4-raw-output-plot 2048;
#X obj 537 337 table player-5-raw-output-plot 2048;
#X connect 0 0 1 0;
#X connect 1 0 2 0;
#X connect 3 0 11 0;
#X connect 4 0 13 0;
#X connect 5 0 14 0;
#X connect 6 0 15 0;
#X connect 12 0 11 0;
#X connect 12 0 15 0;
#X connect 12 0 14 0;
#X connect 12 0 13 0;
#X connect 12 0 18 0;
#X connect 12 0 19 0;
#X connect 16 0 18 0;
#X connect 17 0 19 0;
#X restore 502 85 pd block-signal;
#X obj 460 152 loadbang;
#X msg 460 198 \; master-block-size 2048 \; pd dsp 1 \;;
#N canvas 1348 385 369 346 timer 0;
#X obj 53 33 r timer-reset;
#X obj 53 56 timer;
#X obj 121 70 loadbang;
#X obj 121 93 metro 1000;
#X obj 53 79 / 1000;
#X obj 53 152 t f f;
#X obj 103 175 % 60;
#X obj 53 125 i;
#X obj 53 175 / 60;
#X obj 53 198 i;
#X obj 53 221 s timer-min;
#X obj 103 198 s timer-sec;
#X connect 0 0 1 0;
#X connect 1 0 4 0;
#X connect 2 0 3 0;
#X connect 3 0 1 1;
#X connect 4 0 7 0;
#X connect 5 0 8 0;
#X connect 5 1 6 0;
#X connect 6 0 11 0;
#X connect 7 0 5 0;
#X connect 8 0 9 0;
#X connect 9 0 10 0;
#X restore 337 193 pd timer;
#X obj 38 28 r run-master-plots;
#X msg 38 58 read -c ./scripts/plot-players-012345-matrix-fades-info.lua
;
#X obj 501 42 adc~ 1 2 3 4 5 6;
#X connect 1 0 0 0;
#X connect 6 0 7 0;
#X connect 9 0 10 0;
#X connect 10 0 0 0;
#X connect 11 0 5 0;
#X connect 11 1 5 1;
#X connect 11 2 5 2;
#X connect 11 3 5 3;
#X connect 11 4 5 4;
#X connect 11 5 5 5;
