#N canvas 1100 103 718 600 12;
#X obj 37 179 ==;
#X msg 241 276 0;
#X obj 37 79 ctlin 0;
#X obj 241 204 f \$1;
#X obj 241 235 select 0 1 2 3 4 5;
#X msg 281 276 127;
#X obj 109 79 t b b;
#X msg 109 103 0;
#X obj 109 25 inlet;
#X text 167 25 << initialization bang;
#X text 324 115 \$1: player ID;
#X obj 37 533 outlet;
#X text 100 533 << flag for spigot;
#X text 415 203 This abstraction produces a suppress/allow flag for
use with spigots to block MIDI data based on whether player A or B
is the "active player". Upon initialization with a bang via its inlet
\, it produces an allow flag for player A and a suppress flag for player
B. Works for player IDs 0-5, f 41;
#X obj 211 99 select 0;
#X obj 211 123 t b b;
#X msg 248 152 0;
#X obj 177 317 r player-\$1-cpu-kbd-player-ab-toggle;
#X obj 177 355 f;
#X obj 217 342 + 1;
#X obj 217 366 % 2;
#X floatatom 177 379 5 0 0 0 - - -;
#X obj 296 470 t b f;
#X obj 37 440 && 1;
#X obj 211 75 r midi-broadcast;
#X obj 296 394 r midi-suppress;
#X obj 296 417 swap 1;
#X obj 296 440 -;
#X text 380 428 take the complement \, because if suppress == 1 \,
we need a 0 for the logical test so it fails., f 25;
#X connect 0 0 19 0;
#X connect 0 0 23 0;
#X connect 1 0 0 1;
#X connect 2 0 0 0;
#X connect 3 0 4 0;
#X connect 4 0 1 0;
#X connect 4 1 5 0;
#X connect 4 2 1 0;
#X connect 4 3 5 0;
#X connect 4 4 1 0;
#X connect 4 5 5 0;
#X connect 5 0 0 1;
#X connect 6 0 7 0;
#X connect 6 1 3 0;
#X connect 7 0 0 0;
#X connect 8 0 6 0;
#X connect 14 0 15 0;
#X connect 14 1 23 0;
#X connect 15 0 0 0;
#X connect 15 1 16 0;
#X connect 16 0 23 0;
#X connect 17 0 18 0;
#X connect 18 0 19 0;
#X connect 18 0 21 0;
#X connect 18 0 23 0;
#X connect 19 0 20 0;
#X connect 20 0 18 1;
#X connect 22 0 23 0;
#X connect 22 1 23 1;
#X connect 23 0 11 0;
#X connect 24 0 14 0;
#X connect 25 0 26 0;
#X connect 26 0 27 0;
#X connect 26 1 27 1;
#X connect 27 0 22 0;
