#N canvas 853 38 1003 602 12;
#X obj 109 512 bng 15 250 50 0 player-\$1-algo-randomize player-\$1-algo-randomize-set
randomize 24 7 0 12 -262144 -1 -1;
#X obj 643 408 bng 15 250 50 0 player-\$1-algo-load-params player-\$1-algo-load-params-set
load 17 7 0 10 -204786 -1 -1;
#X obj 643 388 bng 15 250 50 0 player-\$1-algo-save-params player-\$1-algo-save-params-set
save 17 7 0 10 -261234 -1 -1;
#X floatatom 109 532 7 0 0 1 random-range player-#1-algo-param-range-set
player-#1-algo-param-range;
#X obj 109 382 bng 15 250 50 0 player-\$1-algo-dec-param-0 player-\$1-algo-dec-param-0-set
- 4 8 0 12 -241291 -1 -1;
#X obj 129 382 bng 15 250 50 0 player-\$1-algo-inc-param-0 player-\$1-algo-inc-param-0-set
+ 4 8 0 12 -241291 -1 -1;
#X obj 109 462 bng 15 250 50 0 player-\$1-algo-randomize-param-0 player-\$1-algo-randomize-param-0-set
empty 17 7 0 10 -262144 -1 -1;
#X floatatom 109 482 5 0 0 0 - player-#1-algo-param-0-range-set player-#1-algo-param-0-range
;
#N canvas 706 399 977 464 populate 0;
#X obj 60 42 inlet;
#X obj 408 190 pack f \$1;
#X obj 408 166 tabread player-\$1-algo-params;
#X msg 408 214 \; player-\$2-algo-select-retrigger-suppress-spigot
0 \; player-\$2-algo-select-set \$1;
#X text 431 353 re-open flow of player-\$1-algo-select value in [pd
algo-cache-stuff] so that manual algo-select works again;
#X text 473 86 NOTE: must suppress appearance of player-\$1-algo-select
value in [pd algo-cache-stuff] to avoid a stack overflow. this momentarily
disables manual algo-select during the cache or preset loading process.
;
#X msg 60 356 \; player-\$1-algo-select-retrigger-suppress-spigot 1
\;;
#X obj 60 75 t b b b b b b;
#X obj 60 326 f \$1;
#X msg 408 124 0;
#N canvas 945 183 527 607 load-time-elements 0;
#X obj 38 492 pack f \$1;
#X text 294 531 is this a safe send name to use for setting time?,
f 26;
#X obj 38 468 tabread player-\$1-algo-params;
#X obj 38 68 spigot;
#X obj 98 68 r player-\$1-load-time;
#X msg 38 426 13;
#X obj 85 343 pack f \$1;
#X obj 85 319 tabread player-\$1-algo-params;
#X msg 85 287 14;
#X msg 85 369 \; player-\$2-loop-point-start-set \$1 \;;
#X obj 130 222 pack f \$1;
#X obj 130 198 tabread player-\$1-algo-params;
#X msg 130 166 15;
#X msg 130 248 \; player-\$2-loop-point-end-set \$1 \;;
#X obj 38 29 inlet;
#X msg 38 528 \; player-\$2-time-index-set \$1 \;;
#X obj 38 98 t b b b;
#X connect 0 0 15 0;
#X connect 2 0 0 0;
#X connect 3 0 16 0;
#X connect 4 0 3 1;
#X connect 5 0 2 0;
#X connect 6 0 9 0;
#X connect 7 0 6 0;
#X connect 8 0 7 0;
#X connect 10 0 13 0;
#X connect 11 0 10 0;
#X connect 12 0 11 0;
#X connect 14 0 3 0;
#X connect 16 0 5 0;
#X connect 16 1 8 0;
#X connect 16 2 12 0;
#X restore 227 205 pd load-time-elements;
#N canvas 529 359 335 339 load-tempo 0;
#X obj 45 35 inlet;
#X obj 45 181 pack f \$1;
#X msg 45 217 \; player-\$2-tempo-set \$1 \;;
#X obj 45 157 tabread player-\$1-algo-params;
#X obj 45 79 spigot;
#X obj 105 79 r player-\$1-load-tempo;
#X msg 45 115 12;
#X connect 0 0 4 0;
#X connect 1 0 2 0;
#X connect 3 0 1 0;
#X connect 4 0 6 0;
#X connect 5 0 4 1;
#X connect 6 0 3 0;
#X restore 197 235 pd load-tempo;
#N canvas 581 367 366 355 load-bitDepth 0;
#X obj 44 40 inlet;
#X msg 44 243 \; player-\$2-bitDepth-set \$1 \;;
#X obj 44 207 pack f \$1;
#X obj 44 183 tabread player-\$1-algo-params;
#X obj 44 108 spigot;
#X obj 104 78 r player-\$1-load-bitDepth;
#X msg 44 141 11;
#X connect 0 0 4 0;
#X connect 2 0 1 0;
#X connect 3 0 2 0;
#X connect 4 0 6 0;
#X connect 5 0 4 1;
#X connect 6 0 3 0;
#X restore 167 265 pd load-bitDepth;
#N canvas 482 254 805 555 load-params 0;
#X obj 42 30 inlet;
#X obj 42 147 t f b;
#X obj 42 199 until;
#X obj 42 265 f;
#X obj 42 289 t f f;
#X msg 42 116 10;
#X obj 42 412 pack f f \$1;
#X obj 42 340 tabread player-\$1-algo-params;
#X msg 42 460 \; player-\$3-algo-param-\$2-set \$1 \;;
#X obj 82 269 - 1;
#X text 140 384 populate params starting at 9 and counting down to
0 so that param 0 is the last one changed. that way \, controller buttons
for inc/dec/rand of most recently adjusted param will bet set up to
work on param 0 directly after preset load., f 86;
#X obj 42 75 spigot;
#X obj 102 75 r player-\$1-load-params;
#X msg 94 223 10;
#X obj 82 386 - 1;
#X connect 0 0 11 0;
#X connect 1 0 2 0;
#X connect 1 1 13 0;
#X connect 2 0 3 0;
#X connect 3 0 4 0;
#X connect 3 0 9 0;
#X connect 4 0 7 0;
#X connect 4 1 14 0;
#X connect 5 0 1 0;
#X connect 6 0 8 0;
#X connect 7 0 6 0;
#X connect 9 0 3 1;
#X connect 11 0 5 0;
#X connect 12 0 11 1;
#X connect 13 0 3 1;
#X connect 14 0 6 1;
#X restore 137 295 pd load-params;
#X connect 0 0 7 0;
#X connect 1 0 3 0;
#X connect 2 0 1 0;
#X connect 7 0 8 0;
#X connect 7 1 13 0;
#X connect 7 2 12 0;
#X connect 7 3 11 0;
#X connect 7 4 10 0;
#X connect 7 5 9 0;
#X connect 8 0 6 0;
#X connect 9 0 2 0;
#X restore 798 475 pd populate;
#X obj 159 382 bng 15 250 50 0 player-\$1-algo-dec-param-1 player-\$1-algo-dec-param-1-set
- 4 8 0 12 -241291 -1 -1;
#X obj 179 382 bng 15 250 50 0 player-\$1-algo-inc-param-1 player-\$1-algo-inc-param-1-set
+ 4 8 0 12 -241291 -1 -1;
#X obj 159 462 bng 15 250 50 0 player-\$1-algo-randomize-param-1 player-\$1-algo-randomize-param-1-set
empty 17 7 0 10 -262144 -1 -1;
#X floatatom 159 482 5 0 0 0 - player-#1-algo-param-1-range-set player-#1-algo-param-1-range
;
#X obj 209 382 bng 15 250 50 0 player-\$1-algo-dec-param-2 player-\$1-algo-dec-param-2-set
- 4 8 0 12 -241291 -1 -1;
#X obj 229 382 bng 15 250 50 0 player-\$1-algo-inc-param-2 player-\$1-algo-inc-param-2-set
+ 4 8 0 12 -241291 -1 -1;
#X obj 209 462 bng 15 250 50 0 player-\$1-algo-randomize-param-2 player-\$1-algo-randomize-param-2-set
empty 17 7 0 10 -262144 -1 -1;
#X floatatom 209 482 5 0 0 0 - player-#1-algo-param-2-range-set player-#1-algo-param-2-range
;
#X obj 259 382 bng 15 250 50 0 player-\$1-algo-dec-param-3 player-\$1-algo-dec-param-3-set
- 4 8 0 12 -241291 -1 -1;
#X obj 279 382 bng 15 250 50 0 player-\$1-algo-inc-param-3 player-\$1-algo-inc-param-3-set
+ 4 8 0 12 -241291 -1 -1;
#X obj 259 462 bng 15 250 50 0 player-\$1-algo-randomize-param-3 player-\$1-algo-randomize-param-3-set
empty 17 7 0 10 -262144 -1 -1;
#X floatatom 259 482 5 0 0 0 - player-#1-algo-param-3-range-set player-#1-algo-param-3-range
;
#X obj 309 382 bng 15 250 50 0 player-\$1-algo-dec-param-4 player-\$1-algo-dec-param-4-set
- 4 8 0 12 -262140 -1 -1;
#X obj 329 382 bng 15 250 50 0 player-\$1-algo-inc-param-4 player-\$1-algo-inc-param-4-set
+ 4 8 0 12 -262140 -1 -1;
#X obj 309 462 bng 15 250 50 0 player-\$1-algo-randomize-param-4 player-\$1-algo-randomize-param-4-set
empty 17 7 0 10 -262144 -1 -1;
#X floatatom 309 482 5 0 0 0 - player-#1-algo-param-4-range-set player-#1-algo-param-4-range
;
#X obj 359 382 bng 15 250 50 0 player-\$1-algo-dec-param-5 player-\$1-algo-dec-param-5-set
- 4 8 0 12 -262140 -1 -1;
#X obj 379 382 bng 15 250 50 0 player-\$1-algo-inc-param-5 player-\$1-algo-inc-param-5-set
+ 4 8 0 12 -262140 -1 -1;
#X obj 359 462 bng 15 250 50 0 player-\$1-algo-randomize-param-5 player-\$1-algo-randomize-param-5-set
empty 17 7 0 10 -262144 -1 -1;
#X floatatom 359 482 5 0 0 0 - player-#1-algo-param-5-range-set player-#1-algo-param-5-range
;
#X obj 409 382 bng 15 250 50 0 player-\$1-algo-dec-param-6 player-\$1-algo-dec-param-6-set
- 4 8 0 12 -262140 -1 -1;
#X obj 429 382 bng 15 250 50 0 player-\$1-algo-inc-param-6 player-\$1-algo-inc-param-6-set
+ 4 8 0 12 -262140 -1 -1;
#X obj 409 462 bng 15 250 50 0 player-\$1-algo-randomize-param-6 player-\$1-algo-randomize-param-6-set
empty 17 7 0 10 -262144 -1 -1;
#X floatatom 409 482 5 0 0 0 - player-#1-algo-param-6-range-set player-#1-algo-param-6-range
;
#X obj 459 382 bng 15 250 50 0 player-\$1-algo-dec-param-7 player-\$1-algo-dec-param-7-set
- 4 8 0 12 -262140 -1 -1;
#X obj 479 382 bng 15 250 50 0 player-\$1-algo-inc-param-7 player-\$1-algo-inc-param-7-set
+ 4 8 0 12 -262140 -1 -1;
#X obj 459 462 bng 15 250 50 0 player-\$1-algo-randomize-param-7 player-\$1-algo-randomize-param-7-set
empty 17 7 0 10 -262144 -1 -1;
#X floatatom 459 482 5 0 0 0 - player-#1-algo-param-7-range-set player-#1-algo-param-7-range
;
#X obj 509 382 bng 15 250 50 0 player-\$1-algo-dec-param-8 player-\$1-algo-dec-param-8-set
- 4 8 0 12 -262140 -1 -1;
#X obj 529 382 bng 15 250 50 0 player-\$1-algo-inc-param-8 player-\$1-algo-inc-param-8-set
+ 4 8 0 12 -262140 -1 -1;
#X obj 509 462 bng 15 250 50 0 player-\$1-algo-randomize-param-8 player-\$1-algo-randomize-param-8-set
empty 17 7 0 10 -262144 -1 -1;
#X floatatom 509 482 5 0 0 0 - player-#1-algo-param-8-range-set player-#1-algo-param-8-range
;
#X obj 559 382 bng 15 250 50 0 player-\$1-algo-dec-param-9 player-\$1-algo-dec-param-9-set
- 4 8 0 12 -262140 -1 -1;
#X obj 579 382 bng 15 250 50 0 player-\$1-algo-inc-param-9 player-\$1-algo-inc-param-9-set
+ 4 8 0 12 -262140 -1 -1;
#X obj 559 462 bng 15 250 50 0 player-\$1-algo-randomize-param-9 player-\$1-algo-randomize-param-9-set
empty 17 7 0 10 -262144 -1 -1;
#X floatatom 559 482 5 0 0 0 - player-#1-algo-param-9-range-set player-#1-algo-param-9-range
;
#N canvas 775 209 905 584 save-parameters 0;
#X obj 76 309 savepanel;
#X obj 533 211 makefilename notset;
#X msg 533 169 set \$1;
#X obj 533 115 f \$1;
#X obj 414 233 pdcontrol;
#X obj 414 281 makefilename notset;
#X msg 533 235 set \$1;
#X obj 533 145 makefilename %%%%s/caches/%d-%%d-cache.txt;
#X obj 414 44 r player-\$1-algo-save-cache;
#X msg 414 346 \; player-\$2-algo-params write \$1 \;;
#X obj 414 322 pack s \$1;
#X obj 414 68 t b f b;
#X obj 147 203 pdcontrol;
#X obj 147 130 r lb1;
#X obj 76 92 r player-\$1-algo-save-params;
#X obj 76 276 symbol;
#X obj 147 228 makefilename %s/algo-presets;
#X msg 414 200 dir 0 ../;
#X msg 147 169 dir 0 ../;
#X obj 76 355 s player-\$1-save-preset;
#X text 412 392 Note that the cache is only saving what's stored locally
here on the client side \, which reflects the state of the player's
GUI control panel via algo-param-interface-client.pd. In cases where
the time \, tempo \, bitDepth \, and params checkboxes are OFF \, the
internal settings of [algo~] on the master side will differ from what
is stored in the local client side cache. Thus \, the cache saving
feature really only works when those checkboxes are ON.;
#X connect 0 0 19 0;
#X connect 1 0 6 0;
#X connect 2 0 1 0;
#X connect 3 0 7 0;
#X connect 4 0 5 0;
#X connect 5 0 10 0;
#X connect 6 0 5 0;
#X connect 7 0 2 0;
#X connect 8 0 11 0;
#X connect 10 0 9 0;
#X connect 11 0 17 0;
#X connect 11 1 1 0;
#X connect 11 2 3 0;
#X connect 12 0 16 0;
#X connect 13 0 18 0;
#X connect 14 0 15 0;
#X connect 15 0 0 0;
#X connect 16 0 15 1;
#X connect 17 0 4 0;
#X connect 18 0 12 0;
#X restore 798 417 pd save-parameters;
#N canvas 132 285 1209 650 recall-parameters 0;
#X obj 349 587 outlet;
#X obj 208 153 openpanel;
#X obj 766 422 symbol;
#X obj 850 226 makefilename notset;
#X msg 850 184 set \$1;
#X obj 850 130 f \$1;
#X obj 731 248 pdcontrol;
#X obj 731 306 makefilename notset;
#X msg 850 250 set \$1;
#X obj 850 160 makefilename %%%%s/caches/%d-%%d-cache.txt;
#X obj 731 57 r player-\$1-algo-load-cache;
#X obj 766 452 pack s \$1;
#X msg 766 477 \; player-\$2-algo-params read \$1 \;;
#X obj 731 83 t b f b;
#X obj 461 28 r player-\$1-algo-refresh-params;
#X obj 301 167 pdcontrol;
#X obj 301 94 r lb1;
#X obj 178 19 r player-\$1-algo-load-params;
#X obj 208 113 symbol;
#X obj 301 191 makefilename %s/algo-presets;
#X msg 731 215 dir 0 ../;
#X msg 301 134 dir 0 ../;
#X msg 241 420 load \$1;
#X obj 178 455 algo~, f 11;
#X msg 178 355 getAlgoSettings;
#N canvas 549 348 992 552 send-to-params-table 0;
#X obj 62 20 inlet;
#X obj 136 461 list prepend 0;
#X obj 136 485 s player-\$1-algo-params;
#X obj 62 218 outlet;
#X obj 62 44 t b l;
#X obj 122 97 list split 1;
#X obj 210 138 list split 20;
#X obj 210 182 list split 10;
#X obj 136 404 list append;
#X obj 136 428 list append;
#X obj 136 230 text search outputAlgorithms;
#X obj 359 178 list split 3;
#X obj 425 226 unpack f f;
#X obj 425 250 / 44100;
#X obj 425 274 / 60;
#X obj 505 250 / 44100;
#X obj 505 274 / 60;
#X obj 425 328 pack f f;
#X obj 359 352 list append;
#X obj 425 298 min 1623;
#X obj 505 298 min 1623;
#X obj 76 300 select -1;
#X obj 19 406 print -n;
#X msg 19 352 OUTPUT error: requested algo not found in outputAlgorithms.txt
;
#X text 538 40 0) algo is a symbol \, so look up its idx and use that
\; 1-10) the next 20 are params. trim the first 10 and use those \;
11) bit depth \; 12) tempo \; 13) time \; 14) loop point start \; 15)
loop point end \; \; this is 16 total;
#X connect 0 0 4 0;
#X connect 1 0 2 0;
#X connect 4 0 3 0;
#X connect 4 1 5 0;
#X connect 5 0 10 0;
#X connect 5 1 6 0;
#X connect 6 0 7 0;
#X connect 6 1 11 0;
#X connect 7 0 8 1;
#X connect 8 0 9 0;
#X connect 9 0 1 0;
#X connect 10 0 21 0;
#X connect 11 0 18 0;
#X connect 11 1 12 0;
#X connect 12 0 13 0;
#X connect 12 1 15 0;
#X connect 13 0 14 0;
#X connect 14 0 19 0;
#X connect 15 0 16 0;
#X connect 16 0 20 0;
#X connect 17 0 18 1;
#X connect 18 0 9 1;
#X connect 19 0 17 0;
#X connect 20 0 17 1;
#X connect 21 0 23 0;
#X connect 21 1 8 0;
#X connect 23 0 22 0;
#X restore 315 514 pd send-to-params-table;
#X obj 178 313 delay 2;
#X obj 461 106 list prepend;
#X msg 562 68 symbol preset;
#X msg 572 98 symbol cache;
#X obj 241 393 symbol;
#X text 71 258 must delay by a control cycle in order for preset time
data to be updated and properly reported from [algo~]., f 12;
#X obj 731 340 symbol;
#X obj 461 161 select preset cache;
#X obj 178 207 symbol;
#X obj 731 375 t b a b;
#X obj 178 237 t b a b;
#N canvas 549 348 992 552 send-to-params-table 0;
#X obj 62 20 inlet;
#X obj 136 461 list prepend 0;
#X obj 136 485 s player-\$1-algo-params;
#X obj 62 218 outlet;
#X obj 62 44 t b l;
#X obj 122 97 list split 1;
#X obj 136 404 list append;
#X obj 136 428 list append;
#X obj 359 178 list split 3;
#X obj 450 218 unpack f f;
#X obj 450 242 / 44100;
#X obj 450 266 / 60;
#X obj 530 242 / 44100;
#X obj 530 266 / 60;
#X obj 450 320 pack f f;
#X obj 359 352 list append;
#X obj 450 290 min 1623;
#X obj 530 290 min 1623;
#X obj 76 300 select -1;
#X obj 19 406 print -n;
#X msg 19 352 OUTPUT error: requested algo not found in outputAlgorithms.txt
;
#X obj 210 138 list split 10;
#X text 539 39 0) algo is already an ID# \, no need to search \; 1-10)
the next 10 are params. already dropped params 10-19 on the master
side \; 11) bit depth \; 12) tempo \; 13) time \; 14) loop point start
\; 15) loop point end \; \; this is 16 total;
#X connect 0 0 4 0;
#X connect 1 0 2 0;
#X connect 4 0 3 0;
#X connect 4 1 5 0;
#X connect 5 0 18 0;
#X connect 5 1 21 0;
#X connect 6 0 7 0;
#X connect 7 0 1 0;
#X connect 8 0 15 0;
#X connect 8 1 9 0;
#X connect 9 0 10 0;
#X connect 9 1 12 0;
#X connect 10 0 11 0;
#X connect 11 0 16 0;
#X connect 12 0 13 0;
#X connect 13 0 17 0;
#X connect 14 0 15 1;
#X connect 15 0 7 1;
#X connect 16 0 14 0;
#X connect 17 0 14 1;
#X connect 18 0 20 0;
#X connect 18 1 6 0;
#X connect 20 0 19 0;
#X connect 21 0 6 1;
#X connect 21 1 8 0;
#X restore 394 374 pd send-to-params-table;
#X obj 394 331 r player-\$1-algo-settings-for-client;
#N canvas 770 145 574 586 setup-dropdown-menu 0;
#X obj 32 227 tof/pmenu;
#X msg 117 109 add \$1;
#X msg 210 146 clear;
#X obj 174 486 outlet;
#X obj 32 27 inlet;
#X obj 210 115 r lb1;
#X obj 117 61 r preset-dropdown-items;
#X obj 300 186 pdcontrol;
#X obj 300 113 r lb1;
#X msg 300 153 dir 0 ../;
#X obj 300 210 makefilename %s/algo-presets/%%s;
#X obj 174 407 makefilename notset;
#X msg 300 234 set \$1;
#X connect 0 1 11 0;
#X connect 1 0 0 0;
#X connect 2 0 0 0;
#X connect 4 0 0 0;
#X connect 5 0 2 0;
#X connect 6 0 1 0;
#X connect 7 0 10 0;
#X connect 8 0 9 0;
#X connect 9 0 7 0;
#X connect 10 0 12 0;
#X connect 11 0 3 0;
#X connect 12 0 11 0;
#X restore 178 54 pd setup-dropdown-menu;
#X connect 1 0 34 0;
#X connect 2 0 11 0;
#X connect 3 0 8 0;
#X connect 4 0 3 0;
#X connect 5 0 9 0;
#X connect 6 0 7 0;
#X connect 7 0 32 0;
#X connect 8 0 7 0;
#X connect 9 0 4 0;
#X connect 10 0 13 0;
#X connect 11 0 12 0;
#X connect 13 0 20 0;
#X connect 13 1 3 0;
#X connect 13 2 5 0;
#X connect 14 0 27 0;
#X connect 15 0 19 0;
#X connect 16 0 21 0;
#X connect 17 0 39 0;
#X connect 18 0 1 0;
#X connect 19 0 18 1;
#X connect 20 0 6 0;
#X connect 21 0 15 0;
#X connect 22 0 23 0;
#X connect 23 3 25 0;
#X connect 24 0 23 0;
#X connect 25 0 0 0;
#X connect 26 0 24 0;
#X connect 27 0 33 0;
#X connect 28 0 27 1;
#X connect 29 0 27 1;
#X connect 30 0 22 0;
#X connect 32 0 35 0;
#X connect 33 0 34 0;
#X connect 33 1 32 0;
#X connect 34 0 36 0;
#X connect 35 0 0 0;
#X connect 35 1 2 0;
#X connect 35 2 29 0;
#X connect 36 0 26 0;
#X connect 36 1 30 0;
#X connect 36 2 28 0;
#X connect 37 0 0 0;
#X connect 38 0 37 0;
#X connect 39 0 34 0;
#X restore 798 447 pd recall-parameters;
#N canvas 330 100 866 621 randomization 0;
#X obj 159 192 until;
#X obj 186 238 f;
#X obj 226 242 + 1;
#X obj 186 262 t b f;
#X obj 186 354 + 1;
#X msg 126 101 10;
#X obj 186 330 random;
#X obj 126 125 t b f b;
#X obj 126 77 r player-\$1-algo-randomize;
#X obj 186 387 tabwrite player-\$1-algo-params;
#X obj 86 250 t f b;
#X obj 86 302 until;
#X obj 86 368 f;
#X obj 86 392 t f f;
#X msg 86 219 10;
#X obj 86 495 pack f f \$1;
#X obj 86 443 tabread player-\$1-algo-params;
#X msg 86 523 \; player-\$3-algo-param-\$2-set \$1 \;;
#X obj 126 372 - 1;
#X obj 561 216 until;
#X obj 561 272 f;
#X obj 601 276 + 1;
#X msg 598 240 0;
#X obj 575 169 t f b;
#X msg 575 138 10;
#X obj 603 33 r player-\$1-algo-param-range;
#X obj 603 57 t b f;
#X msg 561 352 \; player-\$2-algo-param-\$1-range-set \$3;
#X obj 561 320 pack f \$1 f;
#X msg 223 206 1;
#X msg 138 326 10;
#X obj 126 469 - 1;
#X connect 0 0 1 0;
#X connect 1 0 2 0;
#X connect 1 0 3 0;
#X connect 2 0 1 1;
#X connect 3 0 6 0;
#X connect 3 1 9 1;
#X connect 4 0 9 0;
#X connect 5 0 7 0;
#X connect 6 0 4 0;
#X connect 7 0 14 0;
#X connect 7 1 0 0;
#X connect 7 2 29 0;
#X connect 8 0 5 0;
#X connect 10 0 11 0;
#X connect 10 1 30 0;
#X connect 11 0 12 0;
#X connect 12 0 13 0;
#X connect 12 0 18 0;
#X connect 13 0 16 0;
#X connect 13 1 31 0;
#X connect 14 0 10 0;
#X connect 15 0 17 0;
#X connect 16 0 15 0;
#X connect 18 0 12 1;
#X connect 19 0 20 0;
#X connect 20 0 21 0;
#X connect 20 0 28 0;
#X connect 21 0 20 1;
#X connect 22 0 20 1;
#X connect 23 0 19 0;
#X connect 23 1 22 0;
#X connect 24 0 23 0;
#X connect 25 0 26 0;
#X connect 26 0 24 0;
#X connect 26 1 6 1;
#X connect 26 1 28 2;
#X connect 28 0 27 0;
#X connect 29 0 1 1;
#X connect 30 0 12 1;
#X connect 31 0 15 1;
#X restore 798 387 pd randomization;
#N canvas 999 90 566 667 keyboard-commands 0;
#X obj 105 152 key;
#X text 277 237 =: randomize all \; [ \, ]: load \, save \; 1/q/a:
inc/dec/rand for p0 \; 2/w/s: inc/dec/rand for p1 \; etc \;;
#X obj 182 176 r player-\$1-kbd-control;
#X text 90 31 </>: bitDepth inc/dec \; z: compute toggle \; x: interp
toggle \; c \, v \, b \, n \, m: tempoSync to 0-4 \; space: timeSync
to most recently tempoSync'd player;
#X obj 105 176 spigot;
#N canvas 343 151 615 322 randomize-all 0;
#X obj 86 48 inlet;
#X obj 216 72 outlet;
#X obj 86 72 select 61;
#X obj 86 193 s player-\$1-algo-randomize-set;
#X connect 0 0 2 0;
#X connect 2 0 3 0;
#X connect 2 1 1 0;
#X restore 105 578 pd randomize-all;
#N canvas 343 151 615 322 inc-dec-rand-p0 0;
#X obj 86 48 inlet;
#X obj 286 72 outlet;
#X obj 86 72 select 49 113 97;
#X obj 296 152 s player-\$1-algo-randomize-param-0-set;
#X obj 166 192 s player-\$1-algo-dec-param-0-set;
#X obj 86 222 s player-\$1-algo-inc-param-0-set;
#X connect 0 0 2 0;
#X connect 2 0 5 0;
#X connect 2 1 4 0;
#X connect 2 2 3 0;
#X connect 2 3 1 0;
#X restore 105 208 pd inc-dec-rand-p0;
#N canvas 343 151 615 322 inc-dec-rand-p1 0;
#X obj 86 48 inlet;
#X obj 286 72 outlet;
#X obj 296 152 s player-\$1-algo-randomize-param-1-set;
#X obj 166 192 s player-\$1-algo-dec-param-1-set;
#X obj 86 222 s player-\$1-algo-inc-param-1-set;
#X obj 86 72 select 50 119 115;
#X connect 0 0 5 0;
#X connect 5 0 4 0;
#X connect 5 1 3 0;
#X connect 5 2 2 0;
#X connect 5 3 1 0;
#X restore 105 238 pd inc-dec-rand-p1;
#N canvas 343 151 615 322 inc-dec-rand-p2 0;
#X obj 86 48 inlet;
#X obj 286 72 outlet;
#X obj 296 152 s player-\$1-algo-randomize-param-2-set;
#X obj 166 192 s player-\$1-algo-dec-param-2-set;
#X obj 86 222 s player-\$1-algo-inc-param-2-set;
#X obj 86 72 select 51 101 100;
#X connect 0 0 5 0;
#X connect 5 0 4 0;
#X connect 5 1 3 0;
#X connect 5 2 2 0;
#X connect 5 3 1 0;
#X restore 105 268 pd inc-dec-rand-p2;
#N canvas 343 151 615 322 inc-dec-rand-p3 0;
#X obj 86 48 inlet;
#X obj 286 72 outlet;
#X obj 296 152 s player-\$1-algo-randomize-param-3-set;
#X obj 166 192 s player-\$1-algo-dec-param-3-set;
#X obj 86 222 s player-\$1-algo-inc-param-3-set;
#X obj 86 72 select 52 114 102;
#X connect 0 0 5 0;
#X connect 5 0 4 0;
#X connect 5 1 3 0;
#X connect 5 2 2 0;
#X connect 5 3 1 0;
#X restore 105 298 pd inc-dec-rand-p3;
#N canvas 343 151 615 322 inc-dec-rand-p4 0;
#X obj 86 48 inlet;
#X obj 286 72 outlet;
#X obj 296 152 s player-\$1-algo-randomize-param-4-set;
#X obj 166 192 s player-\$1-algo-dec-param-4-set;
#X obj 86 222 s player-\$1-algo-inc-param-4-set;
#X obj 86 72 select 53 116 103;
#X connect 0 0 5 0;
#X connect 5 0 4 0;
#X connect 5 1 3 0;
#X connect 5 2 2 0;
#X connect 5 3 1 0;
#X restore 105 328 pd inc-dec-rand-p4;
#N canvas 343 151 615 322 inc-dec-rand-p5 0;
#X obj 86 48 inlet;
#X obj 286 72 outlet;
#X obj 296 152 s player-\$1-algo-randomize-param-5-set;
#X obj 166 192 s player-\$1-algo-dec-param-5-set;
#X obj 86 222 s player-\$1-algo-inc-param-5-set;
#X obj 86 72 select 54 121 104;
#X connect 0 0 5 0;
#X connect 5 0 4 0;
#X connect 5 1 3 0;
#X connect 5 2 2 0;
#X connect 5 3 1 0;
#X restore 105 358 pd inc-dec-rand-p5;
#N canvas 343 151 615 322 inc-dec-rand-p6 0;
#X obj 86 48 inlet;
#X obj 286 72 outlet;
#X obj 296 152 s player-\$1-algo-randomize-param-6-set;
#X obj 166 192 s player-\$1-algo-dec-param-6-set;
#X obj 86 222 s player-\$1-algo-inc-param-6-set;
#X obj 86 72 select 55 117 106;
#X connect 0 0 5 0;
#X connect 5 0 4 0;
#X connect 5 1 3 0;
#X connect 5 2 2 0;
#X connect 5 3 1 0;
#X restore 105 388 pd inc-dec-rand-p6;
#N canvas 343 151 615 322 inc-dec-rand-p7 0;
#X obj 86 48 inlet;
#X obj 286 72 outlet;
#X obj 296 152 s player-\$1-algo-randomize-param-7-set;
#X obj 166 192 s player-\$1-algo-dec-param-7-set;
#X obj 86 222 s player-\$1-algo-inc-param-7-set;
#X obj 86 72 select 56 105 107;
#X connect 0 0 5 0;
#X connect 5 0 4 0;
#X connect 5 1 3 0;
#X connect 5 2 2 0;
#X connect 5 3 1 0;
#X restore 105 418 pd inc-dec-rand-p7;
#N canvas 343 151 615 322 inc-dec-rand-p8 0;
#X obj 86 48 inlet;
#X obj 286 72 outlet;
#X obj 296 152 s player-\$1-algo-randomize-param-8-set;
#X obj 166 192 s player-\$1-algo-dec-param-8-set;
#X obj 86 222 s player-\$1-algo-inc-param-8-set;
#X obj 86 72 select 57 111 108;
#X connect 0 0 5 0;
#X connect 5 0 4 0;
#X connect 5 1 3 0;
#X connect 5 2 2 0;
#X connect 5 3 1 0;
#X restore 105 448 pd inc-dec-rand-p8;
#N canvas 343 151 615 322 inc-dec-rand-p9 0;
#X obj 86 48 inlet;
#X obj 286 72 outlet;
#X obj 86 72 select 48 112 59;
#X obj 296 152 s player-\$1-algo-randomize-param-9-set;
#X obj 166 192 s player-\$1-algo-dec-param-9-set;
#X obj 86 222 s player-\$1-algo-inc-param-9-set;
#X connect 0 0 2 0;
#X connect 2 0 5 0;
#X connect 2 1 4 0;
#X connect 2 2 3 0;
#X connect 2 3 1 0;
#X restore 105 478 pd inc-dec-rand-p9;
#N canvas 343 151 615 322 load-save 0;
#X obj 86 48 inlet;
#X obj 326 72 outlet;
#X obj 86 72 select 91 93;
#X obj 136 192 s player-\$1-algo-save-params-set;
#X obj 86 222 s player-\$1-algo-load-params-set;
#X connect 0 0 2 0;
#X connect 2 0 4 0;
#X connect 2 1 3 0;
#X connect 2 2 1 0;
#X restore 125 528 pd load-save;
#X text 230 528 This crashes Pd as of 0.50-2. Clicking the buttons
doesn't, f 31;
#X connect 0 0 4 0;
#X connect 2 0 4 1;
#X connect 4 0 6 0;
#X connect 6 0 7 0;
#X connect 7 0 8 0;
#X connect 8 0 9 0;
#X connect 9 0 10 0;
#X connect 10 0 11 0;
#X connect 11 0 12 0;
#X connect 12 0 13 0;
#X connect 13 0 14 0;
#X connect 14 0 15 0;
#X connect 15 0 5 0;
#X restore 503 198 pd keyboard-commands;
#N canvas 444 233 1371 515 init 0;
#X obj 66 263 t f b;
#X obj 66 287 until;
#X obj 66 351 f;
#X obj 106 355 + 1;
#X msg 88 316 0;
#X obj 289 173 t f b;
#X obj 289 197 until;
#X obj 289 261 f;
#X obj 329 265 + 1;
#X msg 311 226 0;
#X msg 289 129 10;
#X msg 289 329 \; player-\$2-algo-dec-param-\$1-set color -1.67772e+07
-1 -1 \; player-\$2-algo-inc-param-\$1-set color -1.67772e+07 -1 -1
\;, f 74;
#X obj 289 305 pack f \$1;
#X obj 66 395 pack f \$1;
#X obj 66 43 t f b;
#X obj 479 54 r lb1;
#X text 529 44 << sent from OUTPUT-client-player upon TCP/IP connection
success, f 33;
#X obj 479 78 f \$1;
#X msg 66 419 \; player-\$2-algo-dec-param-\$1-set color 255 -1 -1
\; player-\$2-algo-inc-param-\$1-set color 255 -1 -1 \;;
#X obj 871 73 t f b;
#X obj 871 97 until;
#X obj 871 161 f;
#X obj 911 165 + 1;
#X msg 893 126 0;
#X obj 871 43 r num-algos;
#X obj 871 205 pack f \$1;
#X text 988 130 10 params \; bit-depth \; tempo \; time \; algo ID
;
#X obj 871 402 textfile;
#X msg 1003 332 clear \, rewind;
#X msg 871 263 write ../caches/\$2-\$1-cache.txt cr;
#X text 970 40 << this is sent via lb1;
#X obj 871 229 t l l b;
#X obj 66 19 r player-\$1-params-per-algo;
#X msg 479 102 \; player-\$1-load-params-set 1 \; player-\$1-load-bitDepth-set
1 \; player-\$1-load-time-set 1 \; player-\$1-load-tempo-set 1 \; player-\$1-algo-param-range-set
256 \;;
#X msg 928 297 add \$1 16 32 16 32 16 32 16 32 16 32 8 30 0 0 1623
;
#X connect 0 0 1 0;
#X connect 0 1 4 0;
#X connect 1 0 2 0;
#X connect 2 0 3 0;
#X connect 2 0 13 0;
#X connect 3 0 2 1;
#X connect 4 0 2 1;
#X connect 5 0 6 0;
#X connect 5 1 9 0;
#X connect 6 0 7 0;
#X connect 7 0 8 0;
#X connect 7 0 12 0;
#X connect 8 0 7 1;
#X connect 9 0 7 1;
#X connect 10 0 5 0;
#X connect 12 0 11 0;
#X connect 13 0 18 0;
#X connect 14 0 0 0;
#X connect 14 1 10 0;
#X connect 15 0 17 0;
#X connect 17 0 33 0;
#X connect 19 0 20 0;
#X connect 19 1 23 0;
#X connect 20 0 21 0;
#X connect 21 0 22 0;
#X connect 21 0 25 0;
#X connect 22 0 21 1;
#X connect 23 0 21 1;
#X connect 24 0 19 0;
#X connect 25 0 31 0;
#X connect 28 0 27 0;
#X connect 29 0 27 0;
#X connect 31 0 29 0;
#X connect 31 1 34 0;
#X connect 31 2 28 0;
#X connect 32 0 14 0;
#X connect 34 0 27 0;
#X restore 503 48 pd init;
#N canvas 200 552 1102 420 store-other-info 0;
#X obj 75 87 t f b;
#X obj 75 53 r player-\$1-bitDepth;
#X obj 365 87 t f b;
#X obj 365 53 r player-\$1-tempo;
#X obj 75 125 tabwrite player-\$1-algo-params;
#X obj 365 125 tabwrite player-\$1-algo-params;
#X obj 675 87 t f b;
#X obj 675 125 tabwrite player-\$1-algo-params;
#X obj 675 53 r player-\$1-current-time-index;
#X msg 303 87 11;
#X msg 593 87 12;
#X msg 903 87 13;
#X text 122 353 The algo number is stored at index 0 \, but loaded
upon init;
#X obj 75 227 t f b;
#X obj 365 227 t f b;
#X obj 75 265 tabwrite player-\$1-algo-params;
#X obj 365 265 tabwrite player-\$1-algo-params;
#X obj 75 193 r player-\$1-loop-point-start;
#X obj 365 193 r player-\$1-loop-point-end;
#X msg 303 227 14;
#X msg 593 227 15;
#X connect 0 0 4 0;
#X connect 0 1 9 0;
#X connect 1 0 0 0;
#X connect 2 0 5 0;
#X connect 2 1 10 0;
#X connect 3 0 2 0;
#X connect 6 0 7 0;
#X connect 6 1 11 0;
#X connect 8 0 6 0;
#X connect 9 0 4 1;
#X connect 10 0 5 1;
#X connect 11 0 7 1;
#X connect 13 0 15 0;
#X connect 13 1 19 0;
#X connect 14 0 16 0;
#X connect 14 1 20 0;
#X connect 17 0 13 0;
#X connect 18 0 14 0;
#X connect 19 0 15 1;
#X connect 20 0 16 1;
#X restore 503 168 pd store-other-info;
#X text 109 35 \$1: parent player ID number \;;
#X obj 673 198 clone last-param-changed-abs 10 \$1;
#X obj 643 488 tgl 15 0 player-\$1-load-params player-\$1-load-params-set
params 17 7 0 10 -262144 -1 -1 0 1;
#X obj 643 428 tgl 15 0 player-\$1-load-bitDepth player-\$1-load-bitDepth-set
bit 17 7 0 10 -262144 -1 -1 0 1;
#X obj 643 448 tgl 15 0 player-\$1-load-time player-\$1-load-time-set
time 17 7 0 10 -262144 -1 -1 0 1;
#X obj 643 468 tgl 15 0 player-\$1-load-tempo player-\$1-load-tempo-set
tempo 17 7 0 10 -262144 -1 -1 0 1;
#X obj 110 112 param-changer \$1 0;
#X obj 110 142 param-changer \$1 1;
#X obj 110 172 param-changer \$1 2;
#X obj 110 202 param-changer \$1 3;
#X obj 310 172 param-changer \$1 7;
#X obj 310 142 param-changer \$1 6;
#X obj 310 112 param-changer \$1 5;
#X obj 110 232 param-changer \$1 4;
#X obj 310 202 param-changer \$1 8;
#X obj 310 232 param-changer \$1 9;
#X obj 693 408 bng 15 250 50 0 player-\$1-algo-refresh-params player-\$1-algo-refresh-params-set
r 4 7 0 10 -262130 -1 -1;
#X obj 109 402 cnv 15 37 18 empty player-\$1-algo-param-0-canvas-set
empty 20 12 0 14 -196608 -66577 0;
#X obj 159 402 cnv 15 37 18 empty player-\$1-algo-param-1-canvas-set
empty 20 12 0 14 -262144 -66577 0;
#X obj 209 402 cnv 15 37 18 empty player-\$1-algo-param-2-canvas-set
empty 20 12 0 14 -262144 -66577 0;
#X obj 259 402 cnv 15 37 18 empty player-\$1-algo-param-3-canvas-set
empty 20 12 0 14 -262144 -66577 0;
#X obj 309 402 cnv 15 37 18 empty player-\$1-algo-param-4-canvas-set
empty 20 12 0 14 -262144 -66577 0;
#X obj 359 402 cnv 15 37 18 empty player-\$1-algo-param-5-canvas-set
empty 20 12 0 14 -262144 -66577 0;
#X obj 409 402 cnv 15 37 18 empty player-\$1-algo-param-6-canvas-set
empty 20 12 0 14 -262144 -66577 0;
#X obj 459 402 cnv 15 37 18 empty player-\$1-algo-param-7-canvas-set
empty 20 12 0 14 -262144 -66577 0;
#X obj 509 402 cnv 15 37 18 empty player-\$1-algo-param-8-canvas-set
empty 20 12 0 14 -262144 -66577 0;
#X obj 559 402 cnv 15 37 18 empty player-\$1-algo-param-9-canvas-set
empty 20 12 0 14 -262144 -66577 0;
#X floatatom 109 402 5 0 65535 3 p0 player-#1-algo-param-0-set player-#1-algo-param-0
;
#X floatatom 159 402 5 0 65535 3 p1 player-#1-algo-param-1-set player-#1-algo-param-1
;
#X floatatom 209 402 5 0 65535 3 p2 player-#1-algo-param-2-set player-#1-algo-param-2
;
#X floatatom 259 402 5 0 65535 3 p3 player-#1-algo-param-3-set player-#1-algo-param-3
;
#X floatatom 309 402 5 0 65535 3 p4 player-#1-algo-param-4-set player-#1-algo-param-4
;
#X floatatom 359 402 5 0 65535 3 p5 player-#1-algo-param-5-set player-#1-algo-param-5
;
#X floatatom 409 402 5 0 65535 3 p6 player-#1-algo-param-6-set player-#1-algo-param-6
;
#X floatatom 459 402 5 0 65535 3 p7 player-#1-algo-param-7-set player-#1-algo-param-7
;
#X floatatom 509 402 5 0 65535 3 p8 player-#1-algo-param-8-set player-#1-algo-param-8
;
#X floatatom 559 402 5 0 65535 3 p9 player-#1-algo-param-9-set player-#1-algo-param-9
;
#X obj 503 138 clone algo-param-writer 10 \$1;
#X obj 329 532 bng 15 250 50 0 player-\$1-algo-time-zero player-\$1-algo-time-zero-set
0 4 8 0 10 -262144 -1 -1;
#X obj 359 532 bng 15 250 50 0 player-\$1-algo-time-rand player-\$1-algo-time-rand-set
r 4 8 0 10 -262144 -1 -1;
#X obj 503 108 table player-\$1-algo-params 16;
#X text 326 512 zero/random time;
#X connect 46 0 8 0;
#X coords 0 -1 1 1 650 210 1 100 350;
