#N canvas 0 23 616 526 10;
#X obj 55 333 list prepend parameters;
#X obj 55 357 list trim;
#X obj 88 253 t b f;
#X obj 138 253 t b f;
#X obj 188 253 t b f;
#X obj 238 253 t b f;
#X obj 288 253 t b f;
#X obj 55 441 outlet;
#X obj 338 253 t b f;
#X obj 388 253 t b f;
#X obj 438 253 t b f;
#X obj 488 253 t b f;
#X obj 55 309 pack f f f f f f f f f f;
#X text 356 352 \$1: player ID \; \$2: algo ID \;;
#X obj 25 19 r player-\$1-algo-\$2-param-0;
#X obj 45 39 r player-\$1-algo-\$2-param-1;
#X obj 65 59 r player-\$1-algo-\$2-param-2;
#X obj 85 79 r player-\$1-algo-\$2-param-3;
#X obj 105 99 r player-\$1-algo-\$2-param-4;
#X obj 345 99 r player-\$1-algo-\$2-param-9;
#X obj 325 79 r player-\$1-algo-\$2-param-8;
#X obj 305 59 r player-\$1-algo-\$2-param-7;
#X obj 285 39 r player-\$1-algo-\$2-param-6;
#X obj 265 19 r player-\$1-algo-\$2-param-5;
#X obj 126 380 r player-\$1-algo-select;
#X obj 126 401 == \$2;
#X obj 55 378 spigot;
#X connect 0 0 1 0;
#X connect 1 0 26 0;
#X connect 2 0 12 0;
#X connect 2 1 12 1;
#X connect 3 0 12 0;
#X connect 3 1 12 2;
#X connect 4 0 12 0;
#X connect 4 1 12 3;
#X connect 5 0 12 0;
#X connect 5 1 12 4;
#X connect 6 0 12 0;
#X connect 6 1 12 5;
#X connect 8 0 12 0;
#X connect 8 1 12 6;
#X connect 9 0 12 0;
#X connect 9 1 12 7;
#X connect 10 0 12 0;
#X connect 10 1 12 8;
#X connect 11 0 12 0;
#X connect 11 1 12 9;
#X connect 12 0 0 0;
#X connect 14 0 12 0;
#X connect 15 0 2 0;
#X connect 16 0 3 0;
#X connect 17 0 4 0;
#X connect 18 0 5 0;
#X connect 19 0 11 0;
#X connect 20 0 10 0;
#X connect 21 0 9 0;
#X connect 22 0 8 0;
#X connect 23 0 6 0;
#X connect 24 0 25 0;
#X connect 25 0 26 1;
#X connect 26 0 7 0;
