#N canvas 806 228 929 486 12;
#X obj 119 342 bng 15 250 50 0 player-\$1-algo-randomize player-\$1-algo-randomize-set
randomize 20 7 0 12 -262144 -1 -1;
#X obj 653 238 bng 15 250 50 0 player-\$1-algo-load-params player-\$1-algo-load-params-set
load 17 7 0 12 -204786 -1 -1;
#X obj 653 218 bng 15 250 50 0 player-\$1-algo-save-params player-\$1-algo-save-params-set
save 17 7 0 12 -261234 -1 -1;
#X floatatom 119 362 7 0 0 1 random-range player-#1-algo-param-range-set
player-#1-algo-param-range;
#X obj 119 212 bng 15 250 50 0 player-\$1-algo-dec-param-0 player-\$1-algo-dec-param-0-set
- 4 8 0 12 -241291 -1 -1;
#X obj 139 212 bng 15 250 50 0 player-\$1-algo-inc-param-0 player-\$1-algo-inc-param-0-set
+ 4 8 0 12 -241291 -1 -1;
#X obj 119 292 bng 15 250 50 0 player-\$1-algo-randomize-param-0 player-\$1-algo-randomize-param-0-set
empty 17 7 0 10 -262144 -1 -1;
#X floatatom 119 312 5 0 0 0 - player-#1-algo-param-0-range-set player-#1-algo-param-0-range
;
#X obj 169 212 bng 15 250 50 0 player-\$1-algo-dec-param-1 player-\$1-algo-dec-param-1-set
- 4 8 0 12 -241291 -1 -1;
#X obj 189 212 bng 15 250 50 0 player-\$1-algo-inc-param-1 player-\$1-algo-inc-param-1-set
+ 4 8 0 12 -241291 -1 -1;
#X obj 169 292 bng 15 250 50 0 player-\$1-algo-randomize-param-1 player-\$1-algo-randomize-param-1-set
empty 17 7 0 10 -262144 -1 -1;
#X floatatom 169 312 5 0 0 0 - player-#1-algo-param-1-range-set player-#1-algo-param-1-range
;
#X obj 219 212 bng 15 250 50 0 player-\$1-algo-dec-param-2 player-\$1-algo-dec-param-2-set
- 4 8 0 12 -241291 -1 -1;
#X obj 239 212 bng 15 250 50 0 player-\$1-algo-inc-param-2 player-\$1-algo-inc-param-2-set
+ 4 8 0 12 -241291 -1 -1;
#X obj 219 292 bng 15 250 50 0 player-\$1-algo-randomize-param-2 player-\$1-algo-randomize-param-2-set
empty 17 7 0 10 -262144 -1 -1;
#X floatatom 219 312 5 0 0 0 - player-#1-algo-param-2-range-set player-#1-algo-param-2-range
;
#X obj 269 212 bng 15 250 50 0 player-\$1-algo-dec-param-3 player-\$1-algo-dec-param-3-set
- 4 8 0 12 -241291 -1 -1;
#X obj 289 212 bng 15 250 50 0 player-\$1-algo-inc-param-3 player-\$1-algo-inc-param-3-set
+ 4 8 0 12 -241291 -1 -1;
#X obj 269 292 bng 15 250 50 0 player-\$1-algo-randomize-param-3 player-\$1-algo-randomize-param-3-set
empty 17 7 0 10 -262144 -1 -1;
#X floatatom 269 312 5 0 0 0 - player-#1-algo-param-3-range-set player-#1-algo-param-3-range
;
#X obj 319 212 bng 15 250 50 0 player-\$1-algo-dec-param-4 player-\$1-algo-dec-param-4-set
- 4 8 0 12 -262140 -1 -1;
#X obj 339 212 bng 15 250 50 0 player-\$1-algo-inc-param-4 player-\$1-algo-inc-param-4-set
+ 4 8 0 12 -262140 -1 -1;
#X obj 319 292 bng 15 250 50 0 player-\$1-algo-randomize-param-4 player-\$1-algo-randomize-param-4-set
empty 17 7 0 10 -262144 -1 -1;
#X floatatom 319 312 5 0 0 0 - player-#1-algo-param-4-range-set player-#1-algo-param-4-range
;
#X obj 369 212 bng 15 250 50 0 player-\$1-algo-dec-param-5 player-\$1-algo-dec-param-5-set
- 4 8 0 12 -262140 -1 -1;
#X obj 389 212 bng 15 250 50 0 player-\$1-algo-inc-param-5 player-\$1-algo-inc-param-5-set
+ 4 8 0 12 -262140 -1 -1;
#X obj 369 292 bng 15 250 50 0 player-\$1-algo-randomize-param-5 player-\$1-algo-randomize-param-5-set
empty 17 7 0 10 -262144 -1 -1;
#X floatatom 369 312 5 0 0 0 - player-#1-algo-param-5-range-set player-#1-algo-param-5-range
;
#X obj 419 212 bng 15 250 50 0 player-\$1-algo-dec-param-6 player-\$1-algo-dec-param-6-set
- 4 8 0 12 -262140 -1 -1;
#X obj 439 212 bng 15 250 50 0 player-\$1-algo-inc-param-6 player-\$1-algo-inc-param-6-set
+ 4 8 0 12 -262140 -1 -1;
#X obj 419 292 bng 15 250 50 0 player-\$1-algo-randomize-param-6 player-\$1-algo-randomize-param-6-set
empty 17 7 0 10 -262144 -1 -1;
#X floatatom 419 312 5 0 0 0 - player-#1-algo-param-6-range-set player-#1-algo-param-6-range
;
#X obj 469 212 bng 15 250 50 0 player-\$1-algo-dec-param-7 player-\$1-algo-dec-param-7-set
- 4 8 0 12 -262140 -1 -1;
#X obj 489 212 bng 15 250 50 0 player-\$1-algo-inc-param-7 player-\$1-algo-inc-param-7-set
+ 4 8 0 12 -262140 -1 -1;
#X obj 469 292 bng 15 250 50 0 player-\$1-algo-randomize-param-7 player-\$1-algo-randomize-param-7-set
empty 17 7 0 10 -262144 -1 -1;
#X floatatom 469 312 5 0 0 0 - player-#1-algo-param-7-range-set player-#1-algo-param-7-range
;
#X obj 519 212 bng 15 250 50 0 player-\$1-algo-dec-param-8 player-\$1-algo-dec-param-8-set
- 4 8 0 12 -262140 -1 -1;
#X obj 539 212 bng 15 250 50 0 player-\$1-algo-inc-param-8 player-\$1-algo-inc-param-8-set
+ 4 8 0 12 -262140 -1 -1;
#X obj 519 292 bng 15 250 50 0 player-\$1-algo-randomize-param-8 player-\$1-algo-randomize-param-8-set
empty 17 7 0 10 -262144 -1 -1;
#X floatatom 519 312 5 0 0 0 - player-#1-algo-param-8-range-set player-#1-algo-param-8-range
;
#X obj 569 212 bng 15 250 50 0 player-\$1-algo-dec-param-9 player-\$1-algo-dec-param-9-set
- 4 8 0 12 -262140 -1 -1;
#X obj 589 212 bng 15 250 50 0 player-\$1-algo-inc-param-9 player-\$1-algo-inc-param-9-set
+ 4 8 0 12 -262140 -1 -1;
#X obj 569 292 bng 15 250 50 0 player-\$1-algo-randomize-param-9 player-\$1-algo-randomize-param-9-set
empty 17 7 0 10 -262144 -1 -1;
#X floatatom 569 312 5 0 0 0 - player-#1-algo-param-9-range-set player-#1-algo-param-9-range
;
#N canvas 849 377 905 584 save-parameters 0;
#X obj 76 309 savepanel;
#X obj 533 291 makefilename notset;
#X msg 533 249 set \$1;
#X obj 533 195 f \$1;
#X obj 414 313 pdcontrol;
#X obj 414 361 makefilename notset;
#X msg 533 315 set \$1;
#X obj 533 225 makefilename %%%%s/caches/%d-%%d-cache.txt;
#X obj 414 44 r player-\$1-algo-save-cache;
#X obj 147 203 pdcontrol;
#X obj 147 130 r lb1;
#X obj 76 92 r player-\$1-algo-save-params;
#X obj 76 276 symbol;
#X obj 147 228 makefilename %s/algo-presets;
#X msg 414 280 dir 0 ../;
#X msg 147 169 dir 0 ../;
#X obj 148 436 s player-\$1-save-preset;
#X obj 602 141 text get outputAlgorithms;
#X obj 602 165 symbol;
#X obj 602 189 s player-\$1-algo-direct;
#X obj 414 68 t b f b f;
#X text 565 80 reset to appropriate algo from list in case an algo
was entered manually, f 36;
#X obj 76 487 s preset-dropdown-update;
#X obj 76 333 t b a;
#X connect 0 0 23 0;
#X connect 1 0 6 0;
#X connect 2 0 1 0;
#X connect 3 0 7 0;
#X connect 4 0 5 0;
#X connect 5 0 16 0;
#X connect 6 0 5 0;
#X connect 7 0 2 0;
#X connect 8 0 20 0;
#X connect 9 0 13 0;
#X connect 10 0 15 0;
#X connect 11 0 12 0;
#X connect 12 0 0 0;
#X connect 13 0 12 1;
#X connect 14 0 4 0;
#X connect 15 0 9 0;
#X connect 17 0 18 0;
#X connect 18 0 19 0;
#X connect 20 0 14 0;
#X connect 20 1 1 0;
#X connect 20 2 3 0;
#X connect 20 3 17 0;
#X connect 23 0 22 0;
#X connect 23 1 16 0;
#X restore 670 82 pd save-parameters;
#N canvas 452 298 904 653 recall-parameters 0;
#X obj 187 193 makefilename notset;
#X msg 187 151 set \$1;
#X obj 187 97 f \$1;
#X obj 68 215 pdcontrol;
#X obj 68 254 makefilename notset;
#X msg 187 217 set \$1;
#X obj 187 127 makefilename %%%%s/caches/%d-%%d-cache.txt;
#X obj 68 24 r player-\$1-algo-load-cache;
#X obj 68 50 t b f b;
#X obj 416 279 r player-\$1-algo-refresh-params;
#X obj 371 173 r player-\$1-algo-load-params;
#X msg 68 182 dir 0 ../;
#X obj 280 499 symbol;
#X obj 187 383 symbol;
#X obj 613 452 r player-\$1-algo-settings-for-client;
#N canvas 770 145 574 586 setup-dropdown-menu 0;
#X obj 32 227 tof/pmenu;
#X obj 174 486 outlet;
#X obj 32 27 inlet;
#X obj 72 152 r preset-dropdown-items;
#X obj 300 186 pdcontrol;
#X obj 300 113 r lb1;
#X msg 300 153 dir 0 ../;
#X obj 300 210 makefilename %s/algo-presets/%%s;
#X obj 174 407 makefilename notset;
#X msg 300 234 set \$1;
#X connect 0 1 8 0;
#X connect 2 0 0 0;
#X connect 3 0 0 0;
#X connect 4 0 7 0;
#X connect 5 0 6 0;
#X connect 6 0 4 0;
#X connect 7 0 9 0;
#X connect 8 0 1 0;
#X connect 9 0 8 0;
#X restore 371 208 pd setup-dropdown-menu;
#X obj 552 395 r player-\$1-complete-algo-settings;
#X obj 280 523 s player-\$1-load-preset;
#X obj 187 585 s player-\$1-get-algo-settings;
#X obj 552 556 outlet;
#X text 753 475 cloning scenario;
#X obj 552 523 send-to-params-table \$1;
#X obj 187 413 t b a;
#X text 549 371 preset/cache loading scenario;
#X obj 280 361 r master-block-size;
#X obj 280 415 t f b;
#X obj 280 439 /;
#X obj 330 415 samplerate~;
#X obj 330 439 / 1000;
#X obj 280 385 + 1;
#X obj 187 469 delay;
#X text 47 439 must delay by DSP sub-block size + 1 sample in order
for preset time data to be updated and properly reported from [algo~].
, f 18;
#X floatatom 280 463 5 0 0 0 - - -;
#X connect 0 0 5 0;
#X connect 1 0 0 0;
#X connect 2 0 6 0;
#X connect 3 0 4 0;
#X connect 4 0 13 0;
#X connect 5 0 4 0;
#X connect 6 0 1 0;
#X connect 7 0 8 0;
#X connect 8 0 11 0;
#X connect 8 1 0 0;
#X connect 8 2 2 0;
#X connect 9 0 13 0;
#X connect 10 0 15 0;
#X connect 11 0 3 0;
#X connect 12 0 17 0;
#X connect 13 0 22 0;
#X connect 14 0 21 0;
#X connect 15 0 13 0;
#X connect 16 0 21 0;
#X connect 21 0 19 0;
#X connect 22 0 30 0;
#X connect 22 1 12 0;
#X connect 24 0 29 0;
#X connect 25 0 26 0;
#X connect 25 1 27 0;
#X connect 26 0 30 1;
#X connect 26 0 32 0;
#X connect 27 0 28 0;
#X connect 28 0 26 1;
#X connect 29 0 25 0;
#X connect 30 0 18 0;
#X restore 670 112 pd recall-parameters;
#N canvas 330 100 866 621 randomization 0;
#X obj 159 192 until;
#X obj 186 238 f;
#X obj 226 242 + 1;
#X obj 186 262 t b f;
#X obj 186 354 + 1;
#X msg 126 101 10;
#X obj 186 330 random;
#X obj 126 77 r player-\$1-algo-randomize;
#X obj 186 387 tabwrite player-\$1-algo-params;
#X obj 86 250 t f b;
#X obj 86 302 until;
#X obj 86 368 f;
#X obj 86 392 t f f;
#X obj 86 495 pack f f \$1;
#X obj 86 443 tabread player-\$1-algo-params;
#X msg 86 523 \; player-\$3-algo-param-\$2-set \$1 \;;
#X obj 126 372 - 1;
#X obj 561 216 until;
#X obj 561 272 f;
#X obj 601 276 + 1;
#X msg 598 240 0;
#X obj 575 169 t f b;
#X msg 575 138 10;
#X obj 603 33 r player-\$1-algo-param-range;
#X obj 603 57 t b f;
#X msg 561 352 \; player-\$2-algo-param-\$1-range-set \$3;
#X obj 561 320 pack f \$1 f;
#X msg 223 206 1;
#X msg 138 326 10;
#X obj 126 469 - 1;
#X obj 126 125 t f f b;
#X connect 0 0 1 0;
#X connect 1 0 2 0;
#X connect 1 0 3 0;
#X connect 2 0 1 1;
#X connect 3 0 6 0;
#X connect 3 1 8 1;
#X connect 4 0 8 0;
#X connect 5 0 30 0;
#X connect 6 0 4 0;
#X connect 7 0 5 0;
#X connect 9 0 10 0;
#X connect 9 1 28 0;
#X connect 10 0 11 0;
#X connect 11 0 12 0;
#X connect 11 0 16 0;
#X connect 12 0 14 0;
#X connect 12 1 29 0;
#X connect 13 0 15 0;
#X connect 14 0 13 0;
#X connect 16 0 11 1;
#X connect 17 0 18 0;
#X connect 18 0 19 0;
#X connect 18 0 26 0;
#X connect 19 0 18 1;
#X connect 20 0 18 1;
#X connect 21 0 17 0;
#X connect 21 1 20 0;
#X connect 22 0 21 0;
#X connect 23 0 24 0;
#X connect 24 0 22 0;
#X connect 24 1 6 1;
#X connect 24 1 26 2;
#X connect 26 0 25 0;
#X connect 27 0 1 1;
#X connect 28 0 11 1;
#X connect 29 0 13 1;
#X connect 30 0 9 0;
#X connect 30 1 0 0;
#X connect 30 2 27 0;
#X restore 670 52 pd randomization;
#N canvas 323 104 1371 515 init 0;
#X obj 66 263 t f b;
#X obj 66 287 until;
#X obj 66 351 f;
#X obj 106 355 + 1;
#X msg 88 316 0;
#X obj 289 173 t f b;
#X obj 289 197 until;
#X obj 289 261 f;
#X obj 329 265 + 1;
#X msg 311 226 0;
#X msg 289 129 10;
#X msg 289 329 \; player-\$2-algo-dec-param-\$1-set color -1.67772e+07
-1 -1 \; player-\$2-algo-inc-param-\$1-set color -1.67772e+07 -1 -1
\;, f 74;
#X obj 289 305 pack f \$1;
#X obj 66 395 pack f \$1;
#X obj 66 43 t f b;
#X obj 479 78 f \$1;
#X msg 66 419 \; player-\$2-algo-dec-param-\$1-set color 255 -1 -1
\; player-\$2-algo-inc-param-\$1-set color 255 -1 -1 \;;
#X obj 871 73 t f b;
#X obj 871 97 until;
#X obj 871 161 f;
#X obj 911 165 + 1;
#X msg 893 126 0;
#X obj 871 43 r num-algos;
#X obj 871 315 pack f \$1;
#X obj 871 339 t l l b;
#X obj 66 19 r player-\$1-params-per-algo;
#X msg 479 102 \; player-\$1-load-params-set 1 \; player-\$1-load-bit-depth-set
1 \; player-\$1-load-time-set 1 \; player-\$1-load-tempo-set 1 \; player-\$1-algo-param-range-set
256 \;;
#X text 970 40 << this is sent via lb1 in client-player-abs.pd/init
, f 28;
#X text 529 43 << sent from client-player-abs.pd/init upon TCP/IP connection
success, f 38;
#X obj 952 229 text get outputAlgorithms;
#X obj 952 253 symbol;
#X obj 952 277 s player-\$1-algo-direct;
#X obj 871 414 s player-\$1-save-preset;
#X msg 871 373 ../caches/\$2-\$1-cache.txt;
#X obj 871 185 t f f;
#X obj 479 44 r lb2;
#X connect 0 0 1 0;
#X connect 0 1 4 0;
#X connect 1 0 2 0;
#X connect 2 0 3 0;
#X connect 2 0 13 0;
#X connect 3 0 2 1;
#X connect 4 0 2 1;
#X connect 5 0 6 0;
#X connect 5 1 9 0;
#X connect 6 0 7 0;
#X connect 7 0 8 0;
#X connect 7 0 12 0;
#X connect 8 0 7 1;
#X connect 9 0 7 1;
#X connect 10 0 5 0;
#X connect 12 0 11 0;
#X connect 13 0 16 0;
#X connect 14 0 0 0;
#X connect 14 1 10 0;
#X connect 15 0 26 0;
#X connect 17 0 18 0;
#X connect 17 1 21 0;
#X connect 18 0 19 0;
#X connect 19 0 20 0;
#X connect 19 0 34 0;
#X connect 20 0 19 1;
#X connect 21 0 19 1;
#X connect 22 0 17 0;
#X connect 23 0 24 0;
#X connect 24 0 33 0;
#X connect 25 0 14 0;
#X connect 29 0 30 0;
#X connect 30 0 31 0;
#X connect 33 0 32 0;
#X connect 34 0 23 0;
#X connect 34 1 29 0;
#X connect 35 0 15 0;
#X restore 110 62 pd init;
#X text 109 35 \$1: parent player ID number \;;
#X obj 110 142 clone last-param-changed-abs 10 \$1;
#X obj 653 258 tgl 15 0 player-\$1-load-params player-\$1-load-params-set
params 17 7 0 12 -262144 -1 -1 0 1;
#X obj 653 278 tgl 15 0 player-\$1-load-bit-depth player-\$1-load-bit-depth-set
bit 17 7 0 12 -262144 -1 -1 0 1;
#X obj 653 318 tgl 15 0 player-\$1-load-time player-\$1-load-time-set
time 17 7 0 12 -262144 -1 -1 0 1;
#X obj 653 298 tgl 15 0 player-\$1-load-tempo player-\$1-load-tempo-set
tempo 17 7 0 12 -262144 -1 -1 0 1;
#X obj 713 238 bng 15 250 50 0 player-\$1-algo-refresh-params player-\$1-algo-refresh-params-set
r 4 8 0 12 -262130 -1 -1;
#X obj 119 232 cnv 15 37 18 empty player-\$1-algo-param-0-canvas-set
empty 20 12 0 14 -262144 -66577 0;
#X obj 169 232 cnv 15 37 18 empty player-\$1-algo-param-1-canvas-set
empty 20 12 0 14 -262144 -66577 0;
#X obj 219 232 cnv 15 37 18 empty player-\$1-algo-param-2-canvas-set
empty 20 12 0 14 -262144 -66577 0;
#X obj 269 232 cnv 15 37 18 empty player-\$1-algo-param-3-canvas-set
empty 20 12 0 14 -262144 -66577 0;
#X obj 319 232 cnv 15 37 18 empty player-\$1-algo-param-4-canvas-set
empty 20 12 0 14 -262144 -66577 0;
#X obj 369 232 cnv 15 37 18 empty player-\$1-algo-param-5-canvas-set
empty 20 12 0 14 -262144 -66577 0;
#X obj 419 232 cnv 15 37 18 empty player-\$1-algo-param-6-canvas-set
empty 20 12 0 14 -262144 -66577 0;
#X obj 469 232 cnv 15 37 18 empty player-\$1-algo-param-7-canvas-set
empty 20 12 0 14 -262144 -66577 0;
#X obj 519 232 cnv 15 37 18 empty player-\$1-algo-param-8-canvas-set
empty 20 12 0 14 -262144 -66577 0;
#X obj 569 232 cnv 15 37 18 empty player-\$1-algo-param-9-canvas-set
empty 20 12 0 14 -262144 -66577 0;
#X floatatom 119 232 5 0 65535 3 p0 player-#1-algo-param-0-set player-#1-algo-param-0
;
#X floatatom 169 232 5 0 65535 3 p1 player-#1-algo-param-1-set player-#1-algo-param-1
;
#X floatatom 219 232 5 0 65535 3 p2 player-#1-algo-param-2-set player-#1-algo-param-2
;
#X floatatom 269 232 5 0 65535 3 p3 player-#1-algo-param-3-set player-#1-algo-param-3
;
#X floatatom 319 232 5 0 65535 3 p4 player-#1-algo-param-4-set player-#1-algo-param-4
;
#X floatatom 369 232 5 0 65535 3 p5 player-#1-algo-param-5-set player-#1-algo-param-5
;
#X floatatom 419 232 5 0 65535 3 p6 player-#1-algo-param-6-set player-#1-algo-param-6
;
#X floatatom 469 232 5 0 65535 3 p7 player-#1-algo-param-7-set player-#1-algo-param-7
;
#X floatatom 519 232 5 0 65535 3 p8 player-#1-algo-param-8-set player-#1-algo-param-8
;
#X floatatom 569 232 5 0 65535 3 p9 player-#1-algo-param-9-set player-#1-algo-param-9
;
#X obj 339 362 bng 15 250 50 0 player-\$1-algo-time-zero player-\$1-algo-time-zero-set
0 4 8 0 12 -262144 -1 -1;
#X obj 369 362 bng 15 250 50 0 player-\$1-algo-time-rand player-\$1-algo-time-rand-set
r 4 8 0 12 -262144 -1 -1;
#X obj 400 112 table player-\$1-algo-params 16;
#X text 336 342 zero/random time;
#X obj 539 362 bng 15 250 50 0 player-\$1-automation-killall player-\$1-automation-killall-set
auto-killall 20 7 0 12 -262144 -1 -1;
#X obj 649 363 cnv 15 100 30 empty empty empty 20 12 0 14 -262144 -66577
0;
#X text 652 404 ^ there is an invisible white [canvas] here to hide
the [inlet] needed in the parent abstraction \, client-control-interface.pd
, f 33;
#X obj 110 112 clone param-changer 10 \$1;
#N canvas 706 399 977 464 populate 0;
#X obj 469 240 pack f \$1;
#X obj 469 216 tabread player-\$1-algo-params;
#X msg 469 264 \; player-\$2-algo-select-retrigger-suppress-spigot
0 \; player-\$2-algo-select-set \$1;
#X text 431 353 re-open flow of player-\$1-algo-select value in [pd
algo-cache-stuff] so that manual algo-select works again;
#X text 534 136 NOTE: must suppress appearance of player-\$1-algo-select
value in [pd algo-cache-stuff] to avoid a stack overflow. this momentarily
disables manual algo-select during the cache or preset loading process.
;
#X msg 60 356 \; player-\$1-algo-select-retrigger-suppress-spigot 1
\;;
#X obj 60 326 f \$1;
#X msg 469 174 0;
#N canvas 529 359 335 339 load-tempo 0;
#X obj 45 35 inlet;
#X obj 45 181 pack f \$1;
#X msg 45 217 \; player-\$2-tempo-set \$1 \;;
#X obj 45 157 tabread player-\$1-algo-params;
#X obj 45 79 spigot;
#X obj 105 79 r player-\$1-load-tempo;
#X msg 45 115 12;
#X connect 0 0 4 0;
#X connect 1 0 2 0;
#X connect 3 0 1 0;
#X connect 4 0 6 0;
#X connect 5 0 4 1;
#X connect 6 0 3 0;
#X restore 197 235 pd load-tempo;
#N canvas 581 367 366 355 load-bit-depth 0;
#X obj 44 40 inlet;
#X msg 44 243 \; player-\$2-bit-depth-set \$1 \;;
#X obj 44 207 pack f \$1;
#X obj 44 183 tabread player-\$1-algo-params;
#X obj 44 108 spigot;
#X obj 104 78 r player-\$1-load-bit-depth;
#X msg 44 141 11;
#X connect 0 0 4 0;
#X connect 2 0 1 0;
#X connect 3 0 2 0;
#X connect 4 0 6 0;
#X connect 5 0 4 1;
#X connect 6 0 3 0;
#X restore 167 265 pd load-bit-depth;
#N canvas 889 221 805 555 load-params 0;
#X obj 42 30 inlet;
#X obj 42 147 t f b;
#X obj 42 199 until;
#X obj 42 265 f;
#X obj 42 289 t f f;
#X msg 42 116 10;
#X obj 42 412 pack f f \$1;
#X obj 42 340 tabread player-\$1-algo-params;
#X msg 42 460 \; player-\$3-algo-param-\$2-set \$1 \;;
#X obj 82 269 - 1;
#X text 140 384 populate params starting at 9 and counting down to
0 so that param 0 is the last one changed. that way \, controller buttons
for inc/dec/rand of most recently adjusted param will bet set up to
work on param 0 directly after preset load., f 86;
#X obj 42 75 spigot;
#X obj 102 75 r player-\$1-load-params;
#X msg 94 223 10;
#X obj 82 386 - 1;
#X connect 0 0 11 0;
#X connect 1 0 2 0;
#X connect 1 1 13 0;
#X connect 2 0 3 0;
#X connect 3 0 4 0;
#X connect 3 0 9 0;
#X connect 4 0 7 0;
#X connect 4 1 14 0;
#X connect 5 0 1 0;
#X connect 6 0 8 0;
#X connect 7 0 6 0;
#X connect 9 0 3 1;
#X connect 11 0 5 0;
#X connect 12 0 11 1;
#X connect 13 0 3 1;
#X connect 14 0 6 1;
#X restore 137 295 pd load-params;
#X obj 120 38 inlet;
#X obj 120 71 t b b b b b b;
#N canvas 945 183 531 615 load-time-elements 0;
#X obj 38 492 pack f \$1;
#X obj 38 468 tabread player-\$1-algo-params;
#X obj 38 68 spigot;
#X obj 98 68 r player-\$1-load-time;
#X msg 38 426 13;
#X obj 85 343 pack f \$1;
#X obj 85 319 tabread player-\$1-algo-params;
#X msg 85 287 14;
#X obj 130 222 pack f \$1;
#X obj 130 198 tabread player-\$1-algo-params;
#X msg 130 166 15;
#X obj 38 29 inlet;
#X obj 38 98 t b b b;
#X msg 38 528 \; player-\$2-time-index-set \$1 \;;
#X msg 85 369 \; player-\$2-loop-point-start-set \$1 \;;
#X msg 130 248 \; player-\$2-loop-point-end-set \$1 \;;
#X text 270 30 here \, we update the GUI controls with the right values
\, and allow them to send output. this is for the cloning scenario
\, where no preset file was loaded internally by [algo~] \, so it needs
all info via individual parameter methods., f 33;
#X connect 0 0 13 0;
#X connect 1 0 0 0;
#X connect 2 0 12 0;
#X connect 3 0 2 1;
#X connect 4 0 1 0;
#X connect 5 0 14 0;
#X connect 6 0 5 0;
#X connect 7 0 6 0;
#X connect 8 0 15 0;
#X connect 9 0 8 0;
#X connect 10 0 9 0;
#X connect 11 0 2 0;
#X connect 12 0 4 0;
#X connect 12 1 7 0;
#X connect 12 2 10 0;
#X restore 257 175 pd load-time-elements;
#X connect 0 0 2 0;
#X connect 1 0 0 0;
#X connect 6 0 5 0;
#X connect 7 0 1 0;
#X connect 11 0 12 0;
#X connect 12 0 6 0;
#X connect 12 1 10 0;
#X connect 12 2 9 0;
#X connect 12 3 8 0;
#X connect 12 4 13 0;
#X connect 12 5 7 0;
#X restore 670 142 pd populate;
#X connect 45 0 83 0;
#X coords 0 -1 1 1 650 210 2 100 185;
