#N canvas 569 351 1254 645 10;
#X obj 69 565 tabwrite \$1-algo-block;
#X obj 71 19 r writer-\$1-input;
#X obj 276 113 table \$1-algo-block;
#X obj 483 105 pack f \$1;
#X msg 483 126 \; \$2-algo-block resize \$1 \;;
#X obj 255 308 f;
#X obj 285 308 + 1;
#X obj 71 219 * 2;
#X obj 71 248 - 1;
#X obj 178 90 t b f;
#X msg 178 119 2;
#X obj 178 148 pow;
#X obj 71 140 /;
#X floatatom 178 177 20 0 0 0 - - -;
#X floatatom 97 63 10 0 0 0 - - -;
#X floatatom 25 300 10 0 0 0 - - -;
#X obj 218 61 r player-\$1-bitDepth;
#X obj 340 261 r writer-\$1-counter;
#X obj 178 40 r player-\$1-block-reset;
#X obj 178 61 f;
#X obj 483 63 r maxBlockSize;
#X floatatom 20 144 5 0 0 0 - - -;
#X obj 71 111 mod;
#X obj 483 84 + 4;
#X obj 255 222 r player-\$1-next-block-idx-0;
#X obj 155 308 f;
#X obj 155 202 r player-\$1-next-block-idx-1;
#X obj 185 308 + 2;
#X obj 515 406 tabread \$1-algo-block;
#X obj 515 427 t f b;
#X msg 552 451 0;
#X obj 363 406 tabread \$1-algo-block;
#X obj 363 427 t f b;
#X msg 400 451 1;
#X text 357 547 When the next 2 samples from the beginning of the following
signal block are requested \, store the current final points of the
signal block at indices 0 and 1 for the next block to interpolate from.
;
#X obj 521 283 r player-\$1-blockSize;
#X obj 501 304 f;
#X obj 501 325 - 1;
#X obj 363 386 + 2;
#X obj 515 386 + 1;
#X obj 501 346 t f f;
#X obj 501 257 r player-\$1-block-reset;
#X text 676 199 1) upon block reset \, copy final two points of existing
N-point signal block to the guard point indices 0 and 1 \; 2) write
the next N-point signal block to indices 2 through N-1+2 \; 3) calculate
the first two samples of the next signal block and write them to the
guard point indices N+2 and N+3;
#X floatatom 285 344 5 0 0 0 - - -;
#X floatatom 198 341 5 0 0 0 - - -;
#X obj 720 105 pack f \$1;
#X obj 720 65 - 1;
#X obj 720 44 r player-\$1-blockSize;
#X msg 720 126 \; \$2-algo-block bounds 2 1 \$1 -1 \;;
#X obj 720 86 + 2;
#X connect 1 0 14 0;
#X connect 1 0 22 0;
#X connect 3 0 4 0;
#X connect 5 0 0 1;
#X connect 5 0 43 0;
#X connect 6 0 5 1;
#X connect 7 0 8 0;
#X connect 8 0 0 0;
#X connect 8 0 15 0;
#X connect 9 0 10 0;
#X connect 9 1 11 1;
#X connect 10 0 11 0;
#X connect 11 0 12 1;
#X connect 11 0 13 0;
#X connect 11 0 22 1;
#X connect 12 0 7 0;
#X connect 16 0 19 1;
#X connect 17 0 0 1;
#X connect 17 0 6 0;
#X connect 17 0 27 0;
#X connect 18 0 19 0;
#X connect 19 0 9 0;
#X connect 20 0 23 0;
#X connect 22 0 12 0;
#X connect 22 0 21 0;
#X connect 23 0 3 0;
#X connect 24 0 5 0;
#X connect 25 0 0 1;
#X connect 25 0 44 0;
#X connect 26 0 25 0;
#X connect 27 0 25 1;
#X connect 28 0 29 0;
#X connect 29 0 0 0;
#X connect 29 1 30 0;
#X connect 30 0 0 1;
#X connect 31 0 32 0;
#X connect 32 0 0 0;
#X connect 32 1 33 0;
#X connect 33 0 0 1;
#X connect 35 0 36 1;
#X connect 36 0 37 0;
#X connect 37 0 40 0;
#X connect 38 0 31 0;
#X connect 39 0 28 0;
#X connect 40 0 38 0;
#X connect 40 1 39 0;
#X connect 41 0 36 0;
#X connect 45 0 48 0;
#X connect 46 0 49 0;
#X connect 47 0 46 0;
#X connect 49 0 45 0;
