#N canvas 891 325 786 513 10;
#X text 401 402 \$1: player ID number;
#X obj 542 127 r masterBlockSize;
#X msg 542 148 set \$1 1 1;
#X obj 542 169 block~ 2048 1 1;
#N canvas 481 165 803 752 settings 0;
#X obj 186 256 r player-\$1-algo-select;
#X msg 374 467 bitDepth \$1;
#X obj 64 522 outlet;
#X msg 300 350 interpolate \$1;
#X msg 355 403 compute \$1;
#X obj 355 380 r player-\$1-compute;
#X obj 374 443 r player-\$1-bitDepth;
#X obj 300 327 r player-\$1-interpolation;
#X msg 341 668 print;
#X obj 341 622 r all-player-print;
#X msg 64 62 getAlgoSettings;
#X obj 64 39 r player-\$1-get-algo-settings;
#X obj 186 298 list prepend algo;
#X obj 186 319 list trim;
#X obj 186 277 text get outputAlgorithms;
#X obj 437 546 r player-\$1-algo-direct;
#X msg 437 587 algo \$1;
#X msg 114 133 save \$1;
#X obj 200 136 r connected-ip-address;
#X obj 200 157 select localhost 127.0.0.1;
#X msg 200 198 0;
#X text 366 57 NOTE: when using a client connected to master on the
same machine via loopback address \, this save command will be issued
to the client's [algo~] instance as well as the master's [algo~] instance.
this detects a localhost connection and suppresses save preset commands
to the client [algo~] instance. the save preset command still goes
through to the master.;
#X obj 371 178 t b;
#X msg 371 198 1;
#X obj 114 243 spigot;
#X msg 523 517 tempo \$1;
#X obj 523 383 r player-\$1-tempo;
#X obj 523 414 +;
#X obj 563 410 r player-\$1-pitch-bend-final;
#X obj 563 431 t b f;
#X obj 523 465 max 1;
#X obj 523 486 min 240;
#X obj 114 90 r player-\$1-save-preset;
#X obj 114 111 symbol;
#X obj 437 567 symbol;
#X connect 0 0 14 0;
#X connect 1 0 2 0;
#X connect 3 0 2 0;
#X connect 4 0 2 0;
#X connect 5 0 4 0;
#X connect 6 0 1 0;
#X connect 7 0 3 0;
#X connect 8 0 2 0;
#X connect 9 0 8 0;
#X connect 10 0 2 0;
#X connect 11 0 10 0;
#X connect 12 0 13 0;
#X connect 13 0 2 0;
#X connect 14 0 12 0;
#X connect 15 0 34 0;
#X connect 16 0 2 0;
#X connect 17 0 24 0;
#X connect 18 0 19 0;
#X connect 19 0 20 0;
#X connect 19 1 20 0;
#X connect 19 2 22 0;
#X connect 20 0 24 1;
#X connect 22 0 23 0;
#X connect 23 0 24 1;
#X connect 24 0 2 0;
#X connect 25 0 2 0;
#X connect 26 0 27 0;
#X connect 27 0 30 0;
#X connect 28 0 29 0;
#X connect 29 0 27 0;
#X connect 29 1 27 1;
#X connect 30 0 31 0;
#X connect 31 0 25 0;
#X connect 32 0 33 0;
#X connect 33 0 17 0;
#X connect 34 0 16 0;
#X restore 77 93 pd settings;
#N canvas 564 83 754 594 getSetTime 0;
#X obj 67 443 outlet;
#X msg 348 363 getTimeIndex;
#X obj 35 31 bng 15 250 50 0 empty empty empty 17 7 0 10 -262144 -1
-1;
#X obj 348 336 bang~;
#X text 396 336 always poll time so that it can be stored on client
;
#X obj 109 226 bng 15 250 50 0 empty empty empty 17 7 0 10 -262144
-1 -1;
#X obj 141 225 r player-\$1-set-time-random;
#X msg 141 250 setTimeRand;
#X msg 67 145 setTimeIndex \$1 \$2;
#X obj 157 51 r player-\$1-set-interp-mu;
#X obj 67 51 pack f f;
#X obj 346 155 r player-\$1-loop-point-start;
#X obj 346 276 pack f f;
#X obj 426 246 t b f;
#X obj 426 185 r player-\$1-loop-point-end;
#X msg 346 310 setTimeLoopPoints \$1 \$2;
#X obj 346 176 * 60;
#X obj 346 197 * 44100;
#X obj 426 206 * 60;
#X obj 426 227 * 44100;
#X msg 344 490 timeDirection \$1;
#X obj 344 409 r player-\$1-time-reverse;
#X obj 344 430 select 0 1;
#X msg 344 451 1;
#X msg 394 451 -1;
#X obj 67 30 r player-\$1-time-index;
#X obj 115 95 r player-\$1-update-client-time-index;
#X connect 1 0 0 0;
#X connect 3 0 1 0;
#X connect 6 0 5 0;
#X connect 6 0 7 0;
#X connect 7 0 0 0;
#X connect 8 0 0 0;
#X connect 9 0 10 1;
#X connect 10 0 8 0;
#X connect 11 0 16 0;
#X connect 12 0 15 0;
#X connect 13 0 12 0;
#X connect 13 1 12 1;
#X connect 14 0 18 0;
#X connect 15 0 0 0;
#X connect 16 0 17 0;
#X connect 17 0 12 0;
#X connect 18 0 19 0;
#X connect 19 0 13 0;
#X connect 20 0 0 0;
#X connect 21 0 22 0;
#X connect 22 0 23 0;
#X connect 22 1 24 0;
#X connect 23 0 20 0;
#X connect 24 0 20 0;
#X connect 25 0 2 0;
#X connect 25 0 10 0;
#X connect 26 0 8 0;
#X restore 202 161 pd getSetTime;
#N canvas 430 213 595 497 algo-param-receives 0;
#X obj 55 333 list prepend parameters;
#X obj 55 357 list trim;
#X obj 88 253 t b f;
#X obj 138 253 t b f;
#X obj 188 253 t b f;
#X obj 238 253 t b f;
#X obj 288 253 t b f;
#X obj 55 441 outlet;
#X obj 338 253 t b f;
#X obj 388 253 t b f;
#X obj 438 253 t b f;
#X obj 488 253 t b f;
#X obj 55 309 pack f f f f f f f f f f;
#X obj 25 19 r player-\$1-algo-param-0;
#X obj 45 39 r player-\$1-algo-param-1;
#X obj 65 59 r player-\$1-algo-param-2;
#X obj 85 79 r player-\$1-algo-param-3;
#X obj 105 99 r player-\$1-algo-param-4;
#X obj 345 99 r player-\$1-algo-param-9;
#X obj 325 79 r player-\$1-algo-param-8;
#X obj 305 59 r player-\$1-algo-param-7;
#X obj 285 39 r player-\$1-algo-param-6;
#X obj 265 19 r player-\$1-algo-param-5;
#X connect 0 0 1 0;
#X connect 1 0 7 0;
#X connect 2 0 12 0;
#X connect 2 1 12 1;
#X connect 3 0 12 0;
#X connect 3 1 12 2;
#X connect 4 0 12 0;
#X connect 4 1 12 3;
#X connect 5 0 12 0;
#X connect 5 1 12 4;
#X connect 6 0 12 0;
#X connect 6 1 12 5;
#X connect 8 0 12 0;
#X connect 8 1 12 6;
#X connect 9 0 12 0;
#X connect 9 1 12 7;
#X connect 10 0 12 0;
#X connect 10 1 12 8;
#X connect 11 0 12 0;
#X connect 11 1 12 9;
#X connect 12 0 0 0;
#X connect 13 0 12 0;
#X connect 14 0 2 0;
#X connect 15 0 3 0;
#X connect 16 0 4 0;
#X connect 17 0 5 0;
#X connect 18 0 11 0;
#X connect 19 0 10 0;
#X connect 20 0 9 0;
#X connect 21 0 8 0;
#X connect 22 0 6 0;
#X restore 160 128 pd algo-param-receives;
#X obj 454 227 r masterBlockSize;
#X obj 454 248 pack f \$1;
#X msg 454 269 \; player-\$2-raw-output-plot resize \$1 \;;
#X obj 454 319 table player-\$1-raw-output-plot;
#X obj 134 367 bang~;
#X obj 77 412 tabwrite~ player-\$1-raw-output-plot;
#X obj 77 333 *~;
#X obj 329 158 r player-\$1-mute;
#X obj 329 180 swap 1;
#X obj 329 201 -;
#X obj 329 222 pack f 40;
#X obj 329 243 line~;
#X obj 77 224 algo~, f 12;
#X text 187 18 this version of the algo player exists to plot signal
on the remote client. it could be further developed to get information
from [algo~] outlets so that data updates from master to client are
no longer needed. updating of numAlgoParams is a good candidate for
this.;
#X obj 179 322 s player-\$1-params-per-algo;
#N canvas 483 305 742 355 time-transmission 0;
#X obj 85 32 inlet;
#X obj 284 188 f;
#X obj 284 154 metro 1000;
#X obj 284 124 r player-\$1-compute;
#X msg 284 282 set \$1;
#X obj 85 92 unpack f f;
#X obj 284 302 s player-\$1-time-index-set;
#X obj 368 257 s player-\$1-current-time-index;
#X text 388 171 as long as this player is computing \, update time
GUI at a lazy rate. this is received in algo-param-interface-client.pd
for use in preset storage., f 49;
#X connect 0 0 5 0;
#X connect 1 0 4 0;
#X connect 1 0 7 0;
#X connect 2 0 1 0;
#X connect 3 0 2 0;
#X connect 4 0 6 0;
#X connect 5 0 1 1;
#X restore 181 377 pd time-transmission;
#X connect 1 0 2 0;
#X connect 2 0 3 0;
#X connect 4 0 19 0;
#X connect 5 0 19 0;
#X connect 6 0 19 0;
#X connect 7 0 8 0;
#X connect 8 0 9 0;
#X connect 11 0 12 0;
#X connect 13 0 12 0;
#X connect 14 0 15 0;
#X connect 15 0 16 0;
#X connect 15 1 16 1;
#X connect 16 0 17 0;
#X connect 17 0 18 0;
#X connect 18 0 13 1;
#X connect 19 0 13 0;
#X connect 19 1 22 0;
#X connect 19 2 21 0;
