#N canvas 1069 127 786 513 10;
#X text 401 402 \$1: player ID number;
#X obj 542 127 r master-block-size;
#X msg 542 148 set \$1 1 1;
#X obj 542 169 block~ 2048 1 1;
#N canvas 481 165 721 554 settings 0;
#X msg 205 288 bitDepth \$1;
#X obj 64 512 outlet;
#X msg 316 383 interpolate \$1;
#X msg 384 454 compute \$1;
#X obj 384 431 r player-\$1-compute;
#X obj 316 360 r player-\$1-interpolation;
#X msg 507 360 print;
#X obj 507 334 r all-player-print;
#X msg 64 62 getAlgoSettings;
#X obj 64 39 r player-\$1-get-algo-settings;
#X obj 134 220 r player-\$1-algo-direct;
#X msg 134 261 algo \$1;
#X obj 386 92 r player-\$1-tempo;
#X obj 386 123 +;
#X obj 426 119 r player-\$1-pitch-bend-final;
#X obj 426 140 t b f;
#X obj 386 174 max 1;
#X obj 386 195 min 240;
#X obj 134 241 symbol;
#X obj 205 264 r player-\$1-bit-depth;
#X msg 386 276 sampleRate \$1;
#X obj 386 246 tempo-to-sr;
#X obj 112 90 r player-\$1-algo-select;
#X obj 112 172 list prepend algo;
#X obj 112 193 list trim;
#X obj 112 151 text get outputAlgorithms;
#X obj 557 360 r player-\$1-print;
#X obj 162 110 r num-algos;
#X obj 112 130 max 0;
#X obj 112 110 moses;
#X obj 311 69 print -n;
#X obj 311 29 t b;
#X msg 311 49 OUTPUT error: algo ID out of bounds;
#X obj 510 243 s player-\$1-tempo-final;
#X connect 0 0 1 0;
#X connect 2 0 1 0;
#X connect 3 0 1 0;
#X connect 4 0 3 0;
#X connect 5 0 2 0;
#X connect 6 0 1 0;
#X connect 7 0 6 0;
#X connect 8 0 1 0;
#X connect 9 0 8 0;
#X connect 10 0 18 0;
#X connect 11 0 1 0;
#X connect 12 0 13 0;
#X connect 13 0 16 0;
#X connect 14 0 15 0;
#X connect 15 0 13 0;
#X connect 15 1 13 1;
#X connect 16 0 17 0;
#X connect 17 0 21 0;
#X connect 17 0 33 0;
#X connect 18 0 11 0;
#X connect 19 0 0 0;
#X connect 20 0 1 0;
#X connect 21 0 20 0;
#X connect 22 0 29 0;
#X connect 23 0 24 0;
#X connect 24 0 1 0;
#X connect 25 0 23 0;
#X connect 26 0 6 0;
#X connect 27 0 29 1;
#X connect 28 0 25 0;
#X connect 29 0 28 0;
#X connect 29 1 31 0;
#X connect 31 0 32 0;
#X connect 32 0 30 0;
#X restore 77 93 pd settings;
#N canvas 564 83 794 538 getSetTime 0;
#X obj 67 443 outlet;
#X msg 348 363 getTimeIndex;
#X obj 35 31 bng 15 250 50 0 empty empty empty 17 7 0 10 -262144 -1
-1;
#X obj 348 336 bang~;
#X text 396 336 always poll time so that it can be stored on client
;
#X msg 141 290 setTimeRand;
#X msg 67 145 setTimeIndex \$1 \$2;
#X obj 157 51 r player-\$1-set-interp-mu;
#X obj 67 51 pack f f;
#X obj 346 175 r player-\$1-loop-point-start;
#X obj 346 276 pack f f;
#X obj 456 246 t b f;
#X obj 456 205 r player-\$1-loop-point-end;
#X msg 346 310 setTimeLoopPoints \$1 \$2;
#X msg 344 490 timeDirection \$1;
#X obj 344 409 r player-\$1-time-reverse;
#X obj 344 430 select 0 1;
#X msg 344 451 1;
#X msg 394 451 -1;
#X obj 67 30 r player-\$1-time-index;
#X obj 115 95 r player-\$1-update-client-time-index;
#X obj 109 196 bng 15 250 50 0 empty empty empty 17 7 0 10 -262144
-1 -1;
#X obj 141 195 r player-\$1-set-time-random;
#X text 100 220 this must be set on the master side only \, since they're
two separate objects and time is randomly set internally, f 30;
#N canvas 408 206 538 609 loop-record 0;
#X obj 140 35 r player-\$1-loop-record;
#X msg 399 237 loopRecord \$1;
#X obj 203 298 outlet;
#X obj 140 56 select 0;
#X obj 140 77 t b b b;
#X msg 223 135 0;
#X msg 203 225 getAlgoSettings;
#X obj 86 335 r player-\$1-complete-algo-settings;
#X obj 65 365 list;
#X obj 65 386 t l l;
#X obj 122 426 list length;
#X obj 122 447 - 2;
#X obj 65 477 list split;
#X obj 105 508 list append \$1;
#X msg 105 529 \; player-\$3-loop-point-start-set set \$1 \; player-\$3-loop-point-end-set
set \$2 \;;
#X connect 0 0 3 0;
#X connect 1 0 2 0;
#X connect 3 0 4 0;
#X connect 3 1 1 0;
#X connect 4 0 8 0;
#X connect 4 1 6 0;
#X connect 4 2 5 0;
#X connect 5 0 1 0;
#X connect 6 0 2 0;
#X connect 7 0 8 1;
#X connect 8 0 9 0;
#X connect 9 0 12 0;
#X connect 9 1 10 0;
#X connect 10 0 11 0;
#X connect 11 0 12 1;
#X connect 12 1 13 0;
#X connect 13 0 14 0;
#X restore 166 322 pd loop-record;
#X obj 346 196 min 4.2949e+09;
#X obj 456 226 min 4.2949e+09;
#X connect 1 0 0 0;
#X connect 3 0 1 0;
#X connect 5 0 0 0;
#X connect 6 0 0 0;
#X connect 7 0 8 1;
#X connect 8 0 6 0;
#X connect 9 0 25 0;
#X connect 10 0 13 0;
#X connect 11 0 10 0;
#X connect 11 1 10 1;
#X connect 12 0 26 0;
#X connect 13 0 0 0;
#X connect 14 0 0 0;
#X connect 15 0 16 0;
#X connect 16 0 17 0;
#X connect 16 1 18 0;
#X connect 17 0 14 0;
#X connect 18 0 14 0;
#X connect 19 0 2 0;
#X connect 19 0 8 0;
#X connect 20 0 6 0;
#X connect 22 0 21 0;
#X connect 24 0 0 0;
#X connect 25 0 10 0;
#X connect 26 0 11 0;
#X restore 137 183 pd getSetTime;
#N canvas 430 213 595 497 algo-param-receives 0;
#X obj 55 333 list prepend parameters;
#X obj 55 357 list trim;
#X obj 88 253 t b f;
#X obj 138 253 t b f;
#X obj 188 253 t b f;
#X obj 238 253 t b f;
#X obj 288 253 t b f;
#X obj 55 441 outlet;
#X obj 338 253 t b f;
#X obj 388 253 t b f;
#X obj 438 253 t b f;
#X obj 488 253 t b f;
#X obj 55 309 pack f f f f f f f f f f;
#X obj 25 19 r player-\$1-algo-param-0;
#X obj 45 39 r player-\$1-algo-param-1;
#X obj 65 59 r player-\$1-algo-param-2;
#X obj 85 79 r player-\$1-algo-param-3;
#X obj 105 99 r player-\$1-algo-param-4;
#X obj 345 99 r player-\$1-algo-param-9;
#X obj 325 79 r player-\$1-algo-param-8;
#X obj 305 59 r player-\$1-algo-param-7;
#X obj 285 39 r player-\$1-algo-param-6;
#X obj 265 19 r player-\$1-algo-param-5;
#X connect 0 0 1 0;
#X connect 1 0 7 0;
#X connect 2 0 12 0;
#X connect 2 1 12 1;
#X connect 3 0 12 0;
#X connect 3 1 12 2;
#X connect 4 0 12 0;
#X connect 4 1 12 3;
#X connect 5 0 12 0;
#X connect 5 1 12 4;
#X connect 6 0 12 0;
#X connect 6 1 12 5;
#X connect 8 0 12 0;
#X connect 8 1 12 6;
#X connect 9 0 12 0;
#X connect 9 1 12 7;
#X connect 10 0 12 0;
#X connect 10 1 12 8;
#X connect 11 0 12 0;
#X connect 11 1 12 9;
#X connect 12 0 0 0;
#X connect 13 0 12 0;
#X connect 14 0 2 0;
#X connect 15 0 3 0;
#X connect 16 0 4 0;
#X connect 17 0 5 0;
#X connect 18 0 11 0;
#X connect 19 0 10 0;
#X connect 20 0 9 0;
#X connect 21 0 8 0;
#X connect 22 0 6 0;
#X restore 97 123 pd algo-param-receives;
#X obj 454 227 r master-block-size;
#X obj 454 248 pack f \$1;
#X msg 454 269 \; player-\$2-raw-output-plot resize \$1 \;;
#X obj 454 319 table player-\$1-raw-output-plot;
#X obj 134 367 bang~;
#X obj 77 412 tabwrite~ player-\$1-raw-output-plot;
#X obj 77 333 *~;
#X obj 329 158 r player-\$1-mute;
#X obj 329 180 swap 1;
#X obj 329 201 -;
#X obj 329 222 pack f 40;
#X obj 329 243 line~;
#X obj 77 224 algo~, f 12;
#X obj 179 322 s player-\$1-params-per-algo;
#N canvas 483 305 742 355 time-transmission 0;
#X obj 85 32 inlet;
#X obj 284 188 f;
#X obj 284 154 metro 1000;
#X obj 284 124 r player-\$1-compute;
#X msg 284 282 set \$1;
#X obj 85 92 unpack f f;
#X obj 284 302 s player-\$1-time-index-set;
#X obj 363 249 s player-\$1-current-time-index;
#X text 388 171 as long as this player is computing \, update time
GUI at a lazy rate. this is received in algo-param-interface-client.pd
for use in preset storage., f 49;
#X text 137 248 not needed in loadpreset branch? >>;
#X connect 0 0 5 0;
#X connect 1 0 4 0;
#X connect 2 0 1 0;
#X connect 3 0 2 0;
#X connect 4 0 6 0;
#X connect 5 0 1 1;
#X restore 181 377 pd time-transmission;
#N canvas 682 164 459 481 send-complete-settings 0;
#X obj 11 42 inlet;
#X obj 11 96 list split 1;
#X obj 111 206 list split 20;
#X obj 11 318 text search outputAlgorithms;
#X obj 61 247 list split 10;
#X obj 11 369 list append;
#X obj 111 288 list append;
#X obj 11 410 s player-\$1-complete-algo-settings;
#X text 268 241 Convert the algo symbol to its ID# \, grab the first
10 params only \, send all additional params. This creates an 18 element
list, f 27;
#X text 166 37 The complete list is 28 elements long \; \; algo symbol
\; 20 params \; bit depth \; sample rate \; time \; time loop start
\; time loop end \; time direction \; interpolation \;;
#X connect 0 0 1 0;
#X connect 1 0 3 0;
#X connect 1 1 2 0;
#X connect 2 0 4 0;
#X connect 2 1 6 1;
#X connect 3 0 5 0;
#X connect 4 0 6 0;
#X connect 5 0 7 0;
#X connect 6 0 5 1;
#X restore 210 289 pd send-complete-settings;
#N canvas 639 182 544 498 preset-loading 0;
#X msg 199 177 loadParams \$1;
#X msg 219 227 loadBitDepth \$1;
#X msg 239 277 loadSampleRate \$1;
#X msg 259 337 loadTime \$1;
#X msg 279 367 loadLoopPoints \$1;
#X obj 46 444 outlet;
#X msg 46 76 save \$1;
#X obj 46 33 r player-\$1-save-preset;
#X obj 46 54 symbol;
#X obj 116 106 symbol;
#X obj 116 85 r player-\$1-load-preset;
#X msg 116 128 load \$1;
#X obj 219 205 r player-\$1-load-bit-depth;
#X obj 259 305 r player-\$1-load-time;
#X obj 239 255 r player-\$1-load-tempo;
#X obj 199 155 r player-\$1-load-params;
#X msg 289 427 loadInterp \$1;
#X obj 289 405 r player-\$1-load-interp;
#X connect 0 0 5 0;
#X connect 1 0 5 0;
#X connect 2 0 5 0;
#X connect 3 0 5 0;
#X connect 4 0 5 0;
#X connect 6 0 5 0;
#X connect 7 0 8 0;
#X connect 8 0 6 0;
#X connect 9 0 11 0;
#X connect 10 0 9 0;
#X connect 11 0 5 0;
#X connect 12 0 1 0;
#X connect 13 0 3 0;
#X connect 13 0 4 0;
#X connect 14 0 2 0;
#X connect 15 0 0 0;
#X connect 16 0 5 0;
#X connect 17 0 16 0;
#X restore 117 153 pd preset-loading;
#X connect 1 0 2 0;
#X connect 2 0 3 0;
#X connect 4 0 19 0;
#X connect 5 0 19 0;
#X connect 6 0 19 0;
#X connect 7 0 8 0;
#X connect 8 0 9 0;
#X connect 11 0 12 0;
#X connect 13 0 12 0;
#X connect 14 0 15 0;
#X connect 15 0 16 0;
#X connect 15 1 16 1;
#X connect 16 0 17 0;
#X connect 17 0 18 0;
#X connect 18 0 13 1;
#X connect 19 0 13 0;
#X connect 19 1 21 0;
#X connect 19 2 20 0;
#X connect 19 3 22 0;
#X connect 23 0 19 0;
