#N canvas 561 117 1003 561 12;
#X obj 662 358 bng 15 250 50 0 player-\$1-algo-randomize player-\$1-algo-randomize-set
randomize -60 7 0 10 -262144 -1 -1;
#X obj 673 408 bng 15 250 50 0 player-\$1-algo-load-params player-\$1-algo-load-params-set
load 17 7 0 10 -204786 -1 -1;
#X obj 613 408 bng 15 250 50 0 player-\$1-algo-save-params player-\$1-algo-save-params-set
save 17 7 0 10 -261234 -1 -1;
#X floatatom 687 358 7 0 0 0 - player-#1-algo-param-range-set player-#1-algo-param-range
;
#X obj 109 382 bng 15 250 50 0 player-\$1-algo-dec-param-0 player-\$1-algo-dec-param-0-set
- 4 8 0 12 -241291 -1 -1;
#X obj 129 382 bng 15 250 50 0 player-\$1-algo-inc-param-0 player-\$1-algo-inc-param-0-set
+ 4 8 0 12 -241291 -1 -1;
#X obj 109 462 bng 15 250 50 0 player-\$1-algo-randomize-param-0 player-\$1-algo-randomize-param-0-set
empty 17 7 0 10 -262144 -1 -1;
#X floatatom 109 482 5 0 0 0 - player-#1-algo-param-0-range-set player-#1-algo-param-0-range
;
#N canvas 771 104 1010 895 populate 0;
#X obj 140 487 t f b;
#X obj 140 539 until;
#X obj 140 605 f;
#X obj 140 629 t f f;
#X msg 140 456 10;
#X obj 140 52 inlet;
#X msg 265 511 10;
#X msg 265 613 \; player-\$2-bitDepth-set \$1 \;;
#X obj 265 577 pack f \$1;
#X obj 345 460 pack f \$1;
#X obj 413 333 pack f \$1;
#X msg 345 394 11;
#X msg 413 267 12;
#X msg 488 134 13;
#X msg 345 496 \; player-\$2-tempo-set \$1 \;;
#X text 669 372 is this a safe send name to use for setting time?,
f 26;
#X obj 488 200 pack f \$1;
#X obj 140 732 pack f f \$1;
#X obj 140 680 tabread player-\$1-algo-params;
#X obj 265 553 tabread player-\$1-algo-params;
#X obj 345 436 tabread player-\$1-algo-params;
#X obj 413 309 tabread player-\$1-algo-params;
#X obj 488 176 tabread player-\$1-algo-params;
#X msg 488 224 \; player-\$2-algo-select-retrigger-suppress-spigot
0 \; player-\$2-algo-select-set \$1;
#X text 445 809 re-open flow of player-\$1-algo-select value in [pd
algo-cache-stuff] so that manual algo-select works again;
#X text 553 96 NOTE: must suppress appearance of player-\$1-algo-select
value in [pd algo-cache-stuff] to avoid a stack overflow. this momentarily
disables manual algo-select during the cache or preset loading process.
;
#X msg 74 812 \; player-\$1-algo-select-retrigger-suppress-spigot 1
\;;
#X obj 140 85 t b b b b b b;
#X obj 74 782 f \$1;
#X msg 140 760 \; player-\$3-algo-param-\$2-set \$1 \;;
#X msg 192 563 9;
#X obj 180 609 - 1;
#X text 238 704 populate params starting at 9 and counting down to
0 so that param 0 is the last one changed. that way \, controller buttons
for inc/dec/rand of most recently adjusted param will bet set up to
work on param 0 directly after preset load., f 86;
#X obj 140 345 spigot;
#X obj 200 345 r player-\$1-load-params;
#X obj 194 269 spigot;
#X obj 236 213 spigot;
#X obj 274 157 spigot;
#X obj 334 157 r player-\$1-load-time;
#X obj 296 213 r player-\$1-load-tempo;
#X obj 254 239 r player-\$1-load-bitDepth;
#X msg 413 369 \; player-\$2-set-time-index-set \$1 \;;
#X connect 0 0 1 0;
#X connect 0 1 30 0;
#X connect 1 0 2 0;
#X connect 2 0 3 0;
#X connect 2 0 31 0;
#X connect 3 0 18 0;
#X connect 3 1 17 1;
#X connect 4 0 0 0;
#X connect 5 0 27 0;
#X connect 6 0 19 0;
#X connect 8 0 7 0;
#X connect 9 0 14 0;
#X connect 10 0 41 0;
#X connect 11 0 20 0;
#X connect 12 0 21 0;
#X connect 13 0 22 0;
#X connect 16 0 23 0;
#X connect 17 0 29 0;
#X connect 18 0 17 0;
#X connect 19 0 8 0;
#X connect 20 0 9 0;
#X connect 21 0 10 0;
#X connect 22 0 16 0;
#X connect 27 0 28 0;
#X connect 27 1 33 0;
#X connect 27 2 35 0;
#X connect 27 3 36 0;
#X connect 27 4 37 0;
#X connect 27 5 13 0;
#X connect 28 0 26 0;
#X connect 30 0 2 1;
#X connect 31 0 2 1;
#X connect 33 0 4 0;
#X connect 34 0 33 1;
#X connect 35 0 6 0;
#X connect 36 0 11 0;
#X connect 37 0 12 0;
#X connect 38 0 37 1;
#X connect 39 0 36 1;
#X connect 40 0 35 1;
#X restore 798 475 pd populate;
#X obj 159 382 bng 15 250 50 0 player-\$1-algo-dec-param-1 player-\$1-algo-dec-param-1-set
- 4 8 0 12 -241291 -1 -1;
#X obj 179 382 bng 15 250 50 0 player-\$1-algo-inc-param-1 player-\$1-algo-inc-param-1-set
+ 4 8 0 12 -241291 -1 -1;
#X obj 159 462 bng 15 250 50 0 player-\$1-algo-randomize-param-1 player-\$1-algo-randomize-param-1-set
empty 17 7 0 10 -262144 -1 -1;
#X floatatom 159 482 5 0 0 0 - player-#1-algo-param-1-range-set player-#1-algo-param-1-range
;
#X obj 209 382 bng 15 250 50 0 player-\$1-algo-dec-param-2 player-\$1-algo-dec-param-2-set
- 4 8 0 12 -241291 -1 -1;
#X obj 229 382 bng 15 250 50 0 player-\$1-algo-inc-param-2 player-\$1-algo-inc-param-2-set
+ 4 8 0 12 -241291 -1 -1;
#X obj 209 462 bng 15 250 50 0 player-\$1-algo-randomize-param-2 player-\$1-algo-randomize-param-2-set
empty 17 7 0 10 -262144 -1 -1;
#X floatatom 209 482 5 0 0 0 - player-#1-algo-param-2-range-set player-#1-algo-param-2-range
;
#X obj 259 382 bng 15 250 50 0 player-\$1-algo-dec-param-3 player-\$1-algo-dec-param-3-set
- 4 8 0 12 -241291 -1 -1;
#X obj 279 382 bng 15 250 50 0 player-\$1-algo-inc-param-3 player-\$1-algo-inc-param-3-set
+ 4 8 0 12 -241291 -1 -1;
#X obj 259 462 bng 15 250 50 0 player-\$1-algo-randomize-param-3 player-\$1-algo-randomize-param-3-set
empty 17 7 0 10 -262144 -1 -1;
#X floatatom 259 482 5 0 0 0 - player-#1-algo-param-3-range-set player-#1-algo-param-3-range
;
#X obj 309 382 bng 15 250 50 0 player-\$1-algo-dec-param-4 player-\$1-algo-dec-param-4-set
- 4 8 0 12 -262140 -1 -1;
#X obj 329 382 bng 15 250 50 0 player-\$1-algo-inc-param-4 player-\$1-algo-inc-param-4-set
+ 4 8 0 12 -262140 -1 -1;
#X obj 309 462 bng 15 250 50 0 player-\$1-algo-randomize-param-4 player-\$1-algo-randomize-param-4-set
empty 17 7 0 10 -262144 -1 -1;
#X floatatom 309 482 5 0 0 0 - player-#1-algo-param-4-range-set player-#1-algo-param-4-range
;
#X obj 359 382 bng 15 250 50 0 player-\$1-algo-dec-param-5 player-\$1-algo-dec-param-5-set
- 4 8 0 12 -262140 -1 -1;
#X obj 379 382 bng 15 250 50 0 player-\$1-algo-inc-param-5 player-\$1-algo-inc-param-5-set
+ 4 8 0 12 -262140 -1 -1;
#X obj 359 462 bng 15 250 50 0 player-\$1-algo-randomize-param-5 player-\$1-algo-randomize-param-5-set
empty 17 7 0 10 -262144 -1 -1;
#X floatatom 359 482 5 0 0 0 - player-#1-algo-param-5-range-set player-#1-algo-param-5-range
;
#X obj 409 382 bng 15 250 50 0 player-\$1-algo-dec-param-6 player-\$1-algo-dec-param-6-set
- 4 8 0 12 -262140 -1 -1;
#X obj 429 382 bng 15 250 50 0 player-\$1-algo-inc-param-6 player-\$1-algo-inc-param-6-set
+ 4 8 0 12 -262140 -1 -1;
#X obj 409 462 bng 15 250 50 0 player-\$1-algo-randomize-param-6 player-\$1-algo-randomize-param-6-set
empty 17 7 0 10 -262144 -1 -1;
#X floatatom 409 482 5 0 0 0 - player-#1-algo-param-6-range-set player-#1-algo-param-6-range
;
#X obj 459 382 bng 15 250 50 0 player-\$1-algo-dec-param-7 player-\$1-algo-dec-param-7-set
- 4 8 0 12 -262140 -1 -1;
#X obj 479 382 bng 15 250 50 0 player-\$1-algo-inc-param-7 player-\$1-algo-inc-param-7-set
+ 4 8 0 12 -262140 -1 -1;
#X obj 459 462 bng 15 250 50 0 player-\$1-algo-randomize-param-7 player-\$1-algo-randomize-param-7-set
empty 17 7 0 10 -262144 -1 -1;
#X floatatom 459 482 5 0 0 0 - player-#1-algo-param-7-range-set player-#1-algo-param-7-range
;
#X obj 509 382 bng 15 250 50 0 player-\$1-algo-dec-param-8 player-\$1-algo-dec-param-8-set
- 4 8 0 12 -262140 -1 -1;
#X obj 529 382 bng 15 250 50 0 player-\$1-algo-inc-param-8 player-\$1-algo-inc-param-8-set
+ 4 8 0 12 -262140 -1 -1;
#X obj 509 462 bng 15 250 50 0 player-\$1-algo-randomize-param-8 player-\$1-algo-randomize-param-8-set
empty 17 7 0 10 -262144 -1 -1;
#X floatatom 509 482 5 0 0 0 - player-#1-algo-param-8-range-set player-#1-algo-param-8-range
;
#X obj 559 382 bng 15 250 50 0 player-\$1-algo-dec-param-9 player-\$1-algo-dec-param-9-set
- 4 8 0 12 -262140 -1 -1;
#X obj 579 382 bng 15 250 50 0 player-\$1-algo-inc-param-9 player-\$1-algo-inc-param-9-set
+ 4 8 0 12 -262140 -1 -1;
#X obj 559 462 bng 15 250 50 0 player-\$1-algo-randomize-param-9 player-\$1-algo-randomize-param-9-set
empty 17 7 0 10 -262144 -1 -1;
#X floatatom 559 482 5 0 0 0 - player-#1-algo-param-9-range-set player-#1-algo-param-9-range
;
#N canvas 944 209 905 584 save-parameters 0;
#X obj 76 309 savepanel;
#X obj 533 211 makefilename notset;
#X msg 533 169 set \$1;
#X obj 533 115 f \$1;
#X obj 414 233 pdcontrol;
#X obj 414 281 makefilename notset;
#X msg 533 235 set \$1;
#X obj 533 145 makefilename %%%%s/caches/%d-%%d-cache.txt;
#X obj 414 44 r player-\$1-algo-save-cache;
#X msg 414 346 \; player-\$2-algo-params write \$1 \;;
#X obj 414 322 pack s \$1;
#X obj 414 68 t b f b;
#X obj 147 203 pdcontrol;
#X obj 147 130 r lb1;
#X obj 76 92 r player-\$1-algo-save-params;
#X obj 76 276 symbol;
#X obj 147 228 makefilename %s/algo-presets;
#X msg 414 200 dir 0 ../;
#X msg 147 169 dir 0 ../;
#X obj 76 355 s player-\$1-save-preset;
#X text 412 392 Note that the cache is only saving what's stored locally
here on the client side \, which reflects the state of the player's
GUI control panel via algo-param-interface-client.pd. In cases where
the time \, tempo \, bitDepth \, and params checkboxes are OFF \, the
internal settings of [OUTPUT~] on the master side will differ from
what is stored in the local client side cache. Thus \, the cache saving
feature really only works when those checkboxes are ON.;
#X connect 0 0 19 0;
#X connect 1 0 6 0;
#X connect 2 0 1 0;
#X connect 3 0 7 0;
#X connect 4 0 5 0;
#X connect 5 0 10 0;
#X connect 6 0 5 0;
#X connect 7 0 2 0;
#X connect 8 0 11 0;
#X connect 10 0 9 0;
#X connect 11 0 17 0;
#X connect 11 1 1 0;
#X connect 11 2 3 0;
#X connect 12 0 16 0;
#X connect 13 0 18 0;
#X connect 14 0 15 0;
#X connect 15 0 0 0;
#X connect 16 0 15 1;
#X connect 17 0 4 0;
#X connect 18 0 12 0;
#X restore 798 417 pd save-parameters;
#N canvas 529 43 956 631 recall-parameters 0;
#X obj 45 569 outlet;
#X obj 45 117 openpanel;
#X obj 111 433 symbol;
#X obj 567 230 makefilename notset;
#X msg 567 188 set \$1;
#X obj 567 134 f \$1;
#X obj 448 252 pdcontrol;
#X obj 448 310 makefilename notset;
#X msg 567 254 set \$1;
#X obj 567 164 makefilename %%%%s/caches/%d-%%d-cache.txt;
#X obj 448 61 r player-\$1-algo-load-cache;
#X obj 111 463 pack s \$1;
#X msg 111 488 \; player-\$2-algo-params read \$1 \;;
#X obj 448 87 t b f b;
#X obj 45 391 t b a;
#X obj 68 277 r player-\$1-algo-refresh-params;
#X obj 45 361 symbol;
#X obj 168 171 pdcontrol;
#X obj 168 98 r lb1;
#X obj 45 43 r player-\$1-algo-load-params;
#X obj 45 67 symbol;
#X obj 168 195 makefilename %s/algo-presets;
#X msg 448 219 dir 0 ../;
#X msg 168 138 dir 0 ../;
#X connect 1 0 16 0;
#X connect 2 0 11 0;
#X connect 3 0 8 0;
#X connect 4 0 3 0;
#X connect 5 0 9 0;
#X connect 6 0 7 0;
#X connect 7 0 16 0;
#X connect 8 0 7 0;
#X connect 9 0 4 0;
#X connect 10 0 13 0;
#X connect 11 0 12 0;
#X connect 13 0 22 0;
#X connect 13 1 3 0;
#X connect 13 2 5 0;
#X connect 14 0 0 0;
#X connect 14 1 2 0;
#X connect 15 0 16 0;
#X connect 16 0 14 0;
#X connect 17 0 21 0;
#X connect 18 0 23 0;
#X connect 19 0 20 0;
#X connect 20 0 1 0;
#X connect 21 0 20 1;
#X connect 22 0 6 0;
#X connect 23 0 17 0;
#X restore 798 447 pd recall-parameters;
#N canvas 330 100 866 621 randomization 0;
#X obj 159 192 until;
#X obj 186 238 f;
#X obj 226 242 + 1;
#X msg 223 206 0;
#X obj 186 262 t b f;
#X obj 186 354 + 1;
#X msg 126 101 10;
#X obj 186 330 random;
#X obj 126 125 t b f b;
#X text 266 124 Fill the param table with 10 random values \, then
send a bang to the populate subpatch, f 19;
#X obj 126 77 r player-\$1-algo-randomize;
#X obj 186 387 tabwrite player-\$1-algo-params;
#X obj 86 250 t f b;
#X obj 86 302 until;
#X obj 86 368 f;
#X obj 86 392 t f f;
#X msg 86 219 10;
#X obj 86 495 pack f f \$1;
#X obj 86 443 tabread player-\$1-algo-params;
#X msg 86 523 \; player-\$3-algo-param-\$2-set \$1 \;;
#X msg 138 326 9;
#X obj 126 372 - 1;
#X obj 561 216 until;
#X obj 561 272 f;
#X obj 601 276 + 1;
#X msg 598 240 0;
#X obj 575 169 t f b;
#X msg 575 138 10;
#X obj 603 33 r player-\$1-algo-param-range;
#X obj 603 57 t b f;
#X msg 561 352 \; player-\$2-algo-param-\$1-range-set \$3;
#X obj 561 320 pack f \$1 f;
#X connect 0 0 1 0;
#X connect 1 0 2 0;
#X connect 1 0 4 0;
#X connect 2 0 1 1;
#X connect 3 0 1 1;
#X connect 4 0 7 0;
#X connect 4 1 11 1;
#X connect 5 0 11 0;
#X connect 6 0 8 0;
#X connect 7 0 5 0;
#X connect 8 0 16 0;
#X connect 8 1 0 0;
#X connect 8 2 3 0;
#X connect 10 0 6 0;
#X connect 12 0 13 0;
#X connect 12 1 20 0;
#X connect 13 0 14 0;
#X connect 14 0 15 0;
#X connect 14 0 21 0;
#X connect 15 0 18 0;
#X connect 15 1 17 1;
#X connect 16 0 12 0;
#X connect 17 0 19 0;
#X connect 18 0 17 0;
#X connect 20 0 14 1;
#X connect 21 0 14 1;
#X connect 22 0 23 0;
#X connect 23 0 24 0;
#X connect 23 0 31 0;
#X connect 24 0 23 1;
#X connect 25 0 23 1;
#X connect 26 0 22 0;
#X connect 26 1 25 0;
#X connect 27 0 26 0;
#X connect 28 0 29 0;
#X connect 29 0 27 0;
#X connect 29 1 7 1;
#X connect 29 1 31 2;
#X connect 31 0 30 0;
#X restore 798 387 pd randomization;
#N canvas 999 90 566 667 keyboard-commands 0;
#X obj 105 152 key;
#X text 277 237 =: randomize all \; [ \, ]: load \, save \; 1/q/a:
inc/dec/rand for p0 \; 2/w/s: inc/dec/rand for p1 \; etc \;;
#X obj 182 176 r player-\$1-kbd-control;
#X text 90 31 </>: bitDepth inc/dec \; z: compute toggle \; x: interp
toggle \; c \, v \, b \, n \, m: tempoSync to 0-4 \; space: timeSync
to most recently tempoSync'd player;
#X obj 105 176 spigot;
#N canvas 343 151 615 322 randomize-all 0;
#X obj 86 48 inlet;
#X obj 216 72 outlet;
#X obj 86 72 select 61;
#X obj 86 193 s player-\$1-algo-randomize-set;
#X connect 0 0 2 0;
#X connect 2 0 3 0;
#X connect 2 1 1 0;
#X restore 105 578 pd randomize-all;
#N canvas 343 151 615 322 inc-dec-rand-p0 0;
#X obj 86 48 inlet;
#X obj 286 72 outlet;
#X obj 86 72 select 49 113 97;
#X obj 296 152 s player-\$1-algo-randomize-param-0-set;
#X obj 166 192 s player-\$1-algo-dec-param-0-set;
#X obj 86 222 s player-\$1-algo-inc-param-0-set;
#X connect 0 0 2 0;
#X connect 2 0 5 0;
#X connect 2 1 4 0;
#X connect 2 2 3 0;
#X connect 2 3 1 0;
#X restore 105 208 pd inc-dec-rand-p0;
#N canvas 343 151 615 322 inc-dec-rand-p1 0;
#X obj 86 48 inlet;
#X obj 286 72 outlet;
#X obj 296 152 s player-\$1-algo-randomize-param-1-set;
#X obj 166 192 s player-\$1-algo-dec-param-1-set;
#X obj 86 222 s player-\$1-algo-inc-param-1-set;
#X obj 86 72 select 50 119 115;
#X connect 0 0 5 0;
#X connect 5 0 4 0;
#X connect 5 1 3 0;
#X connect 5 2 2 0;
#X connect 5 3 1 0;
#X restore 105 238 pd inc-dec-rand-p1;
#N canvas 343 151 615 322 inc-dec-rand-p2 0;
#X obj 86 48 inlet;
#X obj 286 72 outlet;
#X obj 296 152 s player-\$1-algo-randomize-param-2-set;
#X obj 166 192 s player-\$1-algo-dec-param-2-set;
#X obj 86 222 s player-\$1-algo-inc-param-2-set;
#X obj 86 72 select 51 101 100;
#X connect 0 0 5 0;
#X connect 5 0 4 0;
#X connect 5 1 3 0;
#X connect 5 2 2 0;
#X connect 5 3 1 0;
#X restore 105 268 pd inc-dec-rand-p2;
#N canvas 343 151 615 322 inc-dec-rand-p3 0;
#X obj 86 48 inlet;
#X obj 286 72 outlet;
#X obj 296 152 s player-\$1-algo-randomize-param-3-set;
#X obj 166 192 s player-\$1-algo-dec-param-3-set;
#X obj 86 222 s player-\$1-algo-inc-param-3-set;
#X obj 86 72 select 52 114 102;
#X connect 0 0 5 0;
#X connect 5 0 4 0;
#X connect 5 1 3 0;
#X connect 5 2 2 0;
#X connect 5 3 1 0;
#X restore 105 298 pd inc-dec-rand-p3;
#N canvas 343 151 615 322 inc-dec-rand-p4 0;
#X obj 86 48 inlet;
#X obj 286 72 outlet;
#X obj 296 152 s player-\$1-algo-randomize-param-4-set;
#X obj 166 192 s player-\$1-algo-dec-param-4-set;
#X obj 86 222 s player-\$1-algo-inc-param-4-set;
#X obj 86 72 select 53 116 103;
#X connect 0 0 5 0;
#X connect 5 0 4 0;
#X connect 5 1 3 0;
#X connect 5 2 2 0;
#X connect 5 3 1 0;
#X restore 105 328 pd inc-dec-rand-p4;
#N canvas 343 151 615 322 inc-dec-rand-p5 0;
#X obj 86 48 inlet;
#X obj 286 72 outlet;
#X obj 296 152 s player-\$1-algo-randomize-param-5-set;
#X obj 166 192 s player-\$1-algo-dec-param-5-set;
#X obj 86 222 s player-\$1-algo-inc-param-5-set;
#X obj 86 72 select 54 121 104;
#X connect 0 0 5 0;
#X connect 5 0 4 0;
#X connect 5 1 3 0;
#X connect 5 2 2 0;
#X connect 5 3 1 0;
#X restore 105 358 pd inc-dec-rand-p5;
#N canvas 343 151 615 322 inc-dec-rand-p6 0;
#X obj 86 48 inlet;
#X obj 286 72 outlet;
#X obj 296 152 s player-\$1-algo-randomize-param-6-set;
#X obj 166 192 s player-\$1-algo-dec-param-6-set;
#X obj 86 222 s player-\$1-algo-inc-param-6-set;
#X obj 86 72 select 55 117 106;
#X connect 0 0 5 0;
#X connect 5 0 4 0;
#X connect 5 1 3 0;
#X connect 5 2 2 0;
#X connect 5 3 1 0;
#X restore 105 388 pd inc-dec-rand-p6;
#N canvas 343 151 615 322 inc-dec-rand-p7 0;
#X obj 86 48 inlet;
#X obj 286 72 outlet;
#X obj 296 152 s player-\$1-algo-randomize-param-7-set;
#X obj 166 192 s player-\$1-algo-dec-param-7-set;
#X obj 86 222 s player-\$1-algo-inc-param-7-set;
#X obj 86 72 select 56 105 107;
#X connect 0 0 5 0;
#X connect 5 0 4 0;
#X connect 5 1 3 0;
#X connect 5 2 2 0;
#X connect 5 3 1 0;
#X restore 105 418 pd inc-dec-rand-p7;
#N canvas 343 151 615 322 inc-dec-rand-p8 0;
#X obj 86 48 inlet;
#X obj 286 72 outlet;
#X obj 296 152 s player-\$1-algo-randomize-param-8-set;
#X obj 166 192 s player-\$1-algo-dec-param-8-set;
#X obj 86 222 s player-\$1-algo-inc-param-8-set;
#X obj 86 72 select 57 111 108;
#X connect 0 0 5 0;
#X connect 5 0 4 0;
#X connect 5 1 3 0;
#X connect 5 2 2 0;
#X connect 5 3 1 0;
#X restore 105 448 pd inc-dec-rand-p8;
#N canvas 343 151 615 322 inc-dec-rand-p9 0;
#X obj 86 48 inlet;
#X obj 286 72 outlet;
#X obj 86 72 select 48 112 59;
#X obj 296 152 s player-\$1-algo-randomize-param-9-set;
#X obj 166 192 s player-\$1-algo-dec-param-9-set;
#X obj 86 222 s player-\$1-algo-inc-param-9-set;
#X connect 0 0 2 0;
#X connect 2 0 5 0;
#X connect 2 1 4 0;
#X connect 2 2 3 0;
#X connect 2 3 1 0;
#X restore 105 478 pd inc-dec-rand-p9;
#N canvas 343 151 615 322 load-save 0;
#X obj 86 48 inlet;
#X obj 326 72 outlet;
#X obj 86 72 select 91 93;
#X obj 136 192 s player-\$1-algo-save-params-set;
#X obj 86 222 s player-\$1-algo-load-params-set;
#X connect 0 0 2 0;
#X connect 2 0 4 0;
#X connect 2 1 3 0;
#X connect 2 2 1 0;
#X restore 125 528 pd load-save;
#X text 230 528 This crashes Pd as of 0.50-2. Clicking the buttons
doesn't, f 31;
#X connect 0 0 4 0;
#X connect 2 0 4 1;
#X connect 4 0 6 0;
#X connect 6 0 7 0;
#X connect 7 0 8 0;
#X connect 8 0 9 0;
#X connect 9 0 10 0;
#X connect 10 0 11 0;
#X connect 11 0 12 0;
#X connect 12 0 13 0;
#X connect 13 0 14 0;
#X connect 14 0 15 0;
#X connect 15 0 5 0;
#X restore 503 198 pd keyboard-commands;
#N canvas 444 233 1304 515 init 0;
#X obj 66 263 t f b;
#X obj 66 287 until;
#X obj 66 351 f;
#X obj 106 355 + 1;
#X msg 88 316 0;
#X obj 289 173 t f b;
#X obj 289 197 until;
#X obj 289 261 f;
#X obj 329 265 + 1;
#X msg 311 226 0;
#X msg 289 129 10;
#X msg 289 329 \; player-\$2-algo-dec-param-\$1-set color -1.67772e+07
-1 -1 \; player-\$2-algo-inc-param-\$1-set color -1.67772e+07 -1 -1
\;, f 74;
#X obj 289 305 pack f \$1;
#X obj 66 395 pack f \$1;
#X obj 66 43 t f b;
#X obj 479 54 r lb1;
#X text 529 44 << sent from OUTPUT-client-player upon TCP/IP connection
success, f 33;
#X obj 479 78 f \$1;
#X msg 66 419 \; player-\$2-algo-dec-param-\$1-set color 255 -1 -1
\; player-\$2-algo-inc-param-\$1-set color 255 -1 -1 \;;
#X msg 479 102 \; player-\$1-load-params-set 1 \; player-\$1-load-bitDepth-set
1 \; player-\$1-load-time-set 1 \; player-\$1-load-tempo-set 1 \; player-\$1-algo-param-range-set
256 \;;
#X obj 871 73 t f b;
#X obj 871 97 until;
#X obj 871 161 f;
#X obj 911 165 + 1;
#X msg 893 126 0;
#X obj 871 43 r num-algos;
#X obj 871 205 pack f \$1;
#X text 988 130 10 params \; bit-depth \; tempo \; time \; algo ID
;
#X obj 871 402 textfile;
#X msg 1003 332 clear \, rewind;
#X msg 871 263 write ../caches/\$2-\$1-cache.txt cr;
#X text 970 40 << this is sent via lb1;
#X obj 871 229 t l l b;
#X msg 928 297 add 16 32 16 32 16 32 16 32 16 32 8 30 0 \$1;
#X obj 66 19 r player-\$1-params-per-algo;
#X connect 0 0 1 0;
#X connect 0 1 4 0;
#X connect 1 0 2 0;
#X connect 2 0 3 0;
#X connect 2 0 13 0;
#X connect 3 0 2 1;
#X connect 4 0 2 1;
#X connect 5 0 6 0;
#X connect 5 1 9 0;
#X connect 6 0 7 0;
#X connect 7 0 8 0;
#X connect 7 0 12 0;
#X connect 8 0 7 1;
#X connect 9 0 7 1;
#X connect 10 0 5 0;
#X connect 12 0 11 0;
#X connect 13 0 18 0;
#X connect 14 0 0 0;
#X connect 14 1 10 0;
#X connect 15 0 17 0;
#X connect 17 0 19 0;
#X connect 20 0 21 0;
#X connect 20 1 24 0;
#X connect 21 0 22 0;
#X connect 22 0 23 0;
#X connect 22 0 26 0;
#X connect 23 0 22 1;
#X connect 24 0 22 1;
#X connect 25 0 20 0;
#X connect 26 0 32 0;
#X connect 29 0 28 0;
#X connect 30 0 28 0;
#X connect 32 0 30 0;
#X connect 32 1 33 0;
#X connect 32 2 29 0;
#X connect 33 0 28 0;
#X connect 34 0 14 0;
#X restore 503 48 pd init;
#N canvas 200 552 1102 420 store-other-info 0;
#X obj 75 137 t f b;
#X msg 303 217 10;
#X obj 75 103 r player-\$1-bitDepth;
#X obj 365 137 t f b;
#X msg 593 217 11;
#X obj 365 103 r player-\$1-tempo;
#X text 122 353 The algo number is stored at index 13 \, but loaded
upon init;
#X obj 75 255 tabwrite player-\$1-algo-params;
#X obj 365 255 tabwrite player-\$1-algo-params;
#X obj 675 137 t f b;
#X obj 675 255 tabwrite player-\$1-algo-params;
#X msg 903 217 12;
#X obj 675 103 r player-\$1-current-time-index;
#X connect 0 0 7 0;
#X connect 0 1 1 0;
#X connect 1 0 7 1;
#X connect 2 0 0 0;
#X connect 3 0 8 0;
#X connect 3 1 4 0;
#X connect 4 0 8 1;
#X connect 5 0 3 0;
#X connect 9 0 10 0;
#X connect 9 1 11 0;
#X connect 11 0 10 1;
#X connect 12 0 9 0;
#X restore 503 168 pd store-other-info;
#X text 109 35 \$1: parent player ID number \;;
#X obj 503 108 table player-\$1-algo-params 14;
#X obj 673 198 clone last-param-changed-abs 10 \$1;
#X obj 673 488 tgl 15 0 player-\$1-load-params player-\$1-load-params-set
params 17 7 0 10 -262144 -1 -1 0 1;
#X obj 673 428 tgl 15 0 player-\$1-load-bitDepth player-\$1-load-bitDepth-set
bit 17 7 0 10 -262144 -1 -1 0 1;
#X obj 673 448 tgl 15 0 player-\$1-load-time player-\$1-load-time-set
time 17 7 0 10 -262144 -1 -1 0 1;
#X obj 673 468 tgl 15 0 player-\$1-load-tempo player-\$1-load-tempo-set
tempo 17 7 0 10 -262144 -1 -1 0 1;
#X obj 110 112 param-changer \$1 0;
#X obj 110 142 param-changer \$1 1;
#X obj 110 172 param-changer \$1 2;
#X obj 110 202 param-changer \$1 3;
#X obj 310 172 param-changer \$1 7;
#X obj 310 142 param-changer \$1 6;
#X obj 310 112 param-changer \$1 5;
#X obj 110 232 param-changer \$1 4;
#X obj 310 202 param-changer \$1 8;
#X obj 310 232 param-changer \$1 9;
#X obj 723 408 bng 15 250 50 0 player-\$1-algo-refresh-params player-\$1-algo-refresh-params-set
r 4 7 0 10 -262130 -1 -1;
#X obj 109 402 cnv 15 37 18 empty player-\$1-algo-param-0-canvas-set
empty 20 12 0 14 -196608 -66577 0;
#X obj 159 402 cnv 15 37 18 empty player-\$1-algo-param-1-canvas-set
empty 20 12 0 14 -262144 -66577 0;
#X obj 209 402 cnv 15 37 18 empty player-\$1-algo-param-2-canvas-set
empty 20 12 0 14 -262144 -66577 0;
#X obj 259 402 cnv 15 37 18 empty player-\$1-algo-param-3-canvas-set
empty 20 12 0 14 -262144 -66577 0;
#X obj 309 402 cnv 15 37 18 empty player-\$1-algo-param-4-canvas-set
empty 20 12 0 14 -262144 -66577 0;
#X obj 359 402 cnv 15 37 18 empty player-\$1-algo-param-5-canvas-set
empty 20 12 0 14 -262144 -66577 0;
#X obj 409 402 cnv 15 37 18 empty player-\$1-algo-param-6-canvas-set
empty 20 12 0 14 -262144 -66577 0;
#X obj 459 402 cnv 15 37 18 empty player-\$1-algo-param-7-canvas-set
empty 20 12 0 14 -262144 -66577 0;
#X obj 509 402 cnv 15 37 18 empty player-\$1-algo-param-8-canvas-set
empty 20 12 0 14 -262144 -66577 0;
#X obj 559 402 cnv 15 37 18 empty player-\$1-algo-param-9-canvas-set
empty 20 12 0 14 -262144 -66577 0;
#X floatatom 109 402 5 0 0 3 p0 player-#1-algo-param-0-set player-#1-algo-param-0
;
#X floatatom 159 402 5 0 0 3 p1 player-#1-algo-param-1-set player-#1-algo-param-1
;
#X floatatom 209 402 5 0 0 3 p2 player-#1-algo-param-2-set player-#1-algo-param-2
;
#X floatatom 259 402 5 0 0 3 p3 player-#1-algo-param-3-set player-#1-algo-param-3
;
#X floatatom 309 402 5 0 0 3 p4 player-#1-algo-param-4-set player-#1-algo-param-4
;
#X floatatom 359 402 5 0 0 3 p5 player-#1-algo-param-5-set player-#1-algo-param-5
;
#X floatatom 409 402 5 0 0 3 p6 player-#1-algo-param-6-set player-#1-algo-param-6
;
#X floatatom 459 402 5 0 0 3 p7 player-#1-algo-param-7-set player-#1-algo-param-7
;
#X floatatom 509 402 5 0 0 3 p8 player-#1-algo-param-8-set player-#1-algo-param-8
;
#X floatatom 559 402 5 0 0 3 p9 player-#1-algo-param-9-set player-#1-algo-param-9
;
#X obj 503 138 clone algo-param-writer 10 \$1;
#X obj 643 468 bng 15 250 50 0 player-\$1-algo-time-zero player-\$1-algo-time-zero-set
0 4 8 0 10 -262144 -1 -1;
#X obj 643 488 bng 15 250 50 0 player-\$1-algo-time-rand player-\$1-algo-time-rand-set
r 4 8 0 10 -262144 -1 -1;
#X connect 46 0 8 0;
#X coords 0 -1 1 1 650 170 1 100 350;
