#N canvas 451 111 1024 681 10;
#X obj 98 498 *~;
#X obj 573 513 dbtorms;
#X obj 573 535 pack f 40;
#X obj 573 557 line~;
#X obj 573 399 moses 41;
#X obj 573 421 t b;
#X msg 573 443 0;
#X obj 98 140 f;
#X obj 98 173 pack f f;
#X obj 118 90 - 1;
#X obj 573 377 r player-\$1-gain;
#X text 375 32 \$1: player ID number;
#N canvas 95 263 624 520 algos 0;
#X obj 241 217 f;
#X obj 98 117 t f b;
#X obj 298 214 + 1;
#X obj 330 331 algo-writer \$1;
#X obj 241 246 s writer-\$1-counter;
#N canvas 998 404 845 616 algo-\$1-0 0;
#X obj 36 34 inlet;
#X text 354 236 expr $i1*($i2&$i1>>$i3);
#X text 328 279 expr $i1*(($i1>>$i2|$i1>>$i3)&$i4&$i1>>$i5);
#X obj 36 481 s writer-\$1-input;
#X obj 415 154 f;
#X obj 450 155 + 1;
#X obj 415 105 t b b;
#X obj 415 57 t b b;
#X obj 415 78 spigot;
#X obj 504 65 r player-\$1-algo-select;
#X obj 474 65 f;
#X obj 474 86 == 0;
#X obj 382 472 r player-\$1-block-reset;
#X obj 109 323 f;
#X obj 195 356 f;
#X obj 262 395 f;
#X obj 322 424 f;
#X obj 134 284 r player-\$1-algo-0-param-0;
#X obj 215 324 r player-\$1-algo-0-param-1;
#X obj 285 364 r player-\$1-algo-0-param-2;
#X obj 345 404 r player-\$1-algo-0-param-3;
#X obj 415 36 r player-\$1-get-next-block-samp-0;
#X obj 491 146 s player-\$1-next-block-idx-0;
#X obj 135 157 f;
#X obj 135 105 t b b;
#X obj 135 57 t b b;
#X obj 135 78 spigot;
#X obj 224 65 r player-\$1-algo-select;
#X obj 194 65 f;
#X obj 194 86 == 0;
#X obj 135 36 r player-\$1-get-next-block-samp-1;
#X obj 211 146 s player-\$1-next-block-idx-1;
#X obj 165 157 + 2;
#X text 206 550 expr $i1*(($i1>>$i2|$i1>>$i3)&$i4&$i1>>$i5);
#X text 243 527 cos(2.0*3.1415926*200.0*($f1/44100.0));
#X obj 36 445 expr $i1*(($i1>>$i2|$i1>>$i3)&$i4&$i1>>$i5);
#X connect 0 0 5 0;
#X connect 0 0 32 0;
#X connect 0 0 35 0;
#X connect 4 0 35 0;
#X connect 5 0 4 1;
#X connect 6 0 4 0;
#X connect 6 1 22 0;
#X connect 7 0 8 0;
#X connect 7 1 10 0;
#X connect 8 0 6 0;
#X connect 9 0 10 1;
#X connect 10 0 11 0;
#X connect 11 0 8 1;
#X connect 12 0 13 0;
#X connect 12 0 14 0;
#X connect 12 0 15 0;
#X connect 12 0 16 0;
#X connect 13 0 35 1;
#X connect 14 0 35 2;
#X connect 15 0 35 3;
#X connect 16 0 35 4;
#X connect 17 0 13 1;
#X connect 18 0 14 1;
#X connect 19 0 15 1;
#X connect 20 0 16 1;
#X connect 21 0 7 0;
#X connect 23 0 35 0;
#X connect 24 0 23 0;
#X connect 24 1 31 0;
#X connect 25 0 26 0;
#X connect 25 1 28 0;
#X connect 26 0 24 0;
#X connect 27 0 28 1;
#X connect 28 0 29 0;
#X connect 29 0 26 1;
#X connect 30 0 25 0;
#X connect 32 0 23 1;
#X connect 35 0 3 0;
#X restore 98 370 pd algo-\$1-0;
#N canvas 758 299 830 672 algo-\$1-1 0;
#X obj 38 24 inlet;
#X obj 38 407 expr $i1*($i2&$i1>>$i3)|(($i1*$i4)*($i1>>$i5)*($i1<<$i6))
;
#X obj 38 465 s writer-\$1-input;
#X obj 459 397 r player-\$1-block-reset;
#X obj 165 360 f;
#X obj 210 364 f;
#X obj 263 366 f;
#X obj 313 373 f;
#X obj 361 374 f;
#X obj 136 256 r player-\$1-algo-1-param-0;
#X obj 215 277 r player-\$1-algo-1-param-1;
#X obj 286 296 r player-\$1-algo-1-param-2;
#X obj 346 316 r player-\$1-algo-1-param-3;
#X obj 417 336 r player-\$1-algo-1-param-4;
#X obj 415 154 f;
#X obj 450 155 + 1;
#X obj 415 105 t b b;
#X obj 415 57 t b b;
#X obj 415 78 spigot;
#X obj 504 65 r player-\$1-algo-select;
#X obj 474 65 f;
#X obj 415 36 r player-\$1-get-next-block-samp-0;
#X obj 491 146 s player-\$1-next-block-idx-0;
#X obj 135 157 f;
#X obj 135 105 t b b;
#X obj 135 57 t b b;
#X obj 135 78 spigot;
#X obj 224 65 r player-\$1-algo-select;
#X obj 194 65 f;
#X obj 135 36 r player-\$1-get-next-block-samp-1;
#X obj 211 146 s player-\$1-next-block-idx-1;
#X obj 165 157 + 2;
#X obj 194 86 == 1;
#X obj 474 86 == 1;
#X connect 0 0 1 0;
#X connect 0 0 31 0;
#X connect 0 0 15 0;
#X connect 1 0 2 0;
#X connect 3 0 4 0;
#X connect 3 0 5 0;
#X connect 3 0 6 0;
#X connect 3 0 7 0;
#X connect 3 0 8 0;
#X connect 4 0 1 1;
#X connect 5 0 1 2;
#X connect 6 0 1 3;
#X connect 7 0 1 4;
#X connect 8 0 1 5;
#X connect 9 0 4 1;
#X connect 10 0 5 1;
#X connect 11 0 6 1;
#X connect 12 0 7 1;
#X connect 13 0 8 1;
#X connect 14 0 1 0;
#X connect 15 0 14 1;
#X connect 16 0 14 0;
#X connect 16 1 22 0;
#X connect 17 0 18 0;
#X connect 17 1 20 0;
#X connect 18 0 16 0;
#X connect 19 0 20 1;
#X connect 20 0 33 0;
#X connect 21 0 17 0;
#X connect 23 0 1 0;
#X connect 24 0 23 0;
#X connect 24 1 30 0;
#X connect 25 0 26 0;
#X connect 25 1 28 0;
#X connect 26 0 24 0;
#X connect 27 0 28 1;
#X connect 28 0 32 0;
#X connect 29 0 25 0;
#X connect 31 0 23 1;
#X connect 32 0 26 1;
#X connect 33 0 18 1;
#X restore 128 350 pd algo-\$1-1;
#N canvas 709 109 863 698 algo-\$1-2 0;
#X obj 53 78 inlet;
#X obj 53 400 expr (($i1*$i2)*($i1>>$i3)|($i1<<$i4));
#X obj 53 436 s writer-\$1-input;
#X obj 366 382 r player-\$1-block-reset;
#X obj 158 359 f;
#X obj 209 359 f;
#X obj 259 364 f;
#X obj 164 292 r player-\$1-algo-2-param-0;
#X obj 244 312 r player-\$1-algo-2-param-1;
#X obj 314 332 r player-\$1-algo-2-param-2;
#X obj 415 154 f;
#X obj 450 155 + 1;
#X obj 415 105 t b b;
#X obj 415 57 t b b;
#X obj 415 78 spigot;
#X obj 504 65 r player-\$1-algo-select;
#X obj 474 65 f;
#X obj 415 36 r player-\$1-get-next-block-samp-0;
#X obj 491 146 s player-\$1-next-block-idx-0;
#X obj 135 157 f;
#X obj 135 105 t b b;
#X obj 135 57 t b b;
#X obj 135 78 spigot;
#X obj 224 65 r player-\$1-algo-select;
#X obj 194 65 f;
#X obj 135 36 r player-\$1-get-next-block-samp-1;
#X obj 211 146 s player-\$1-next-block-idx-1;
#X obj 165 157 + 2;
#X obj 194 86 == 2;
#X obj 474 86 == 2;
#X connect 0 0 1 0;
#X connect 0 0 27 0;
#X connect 0 0 11 0;
#X connect 1 0 2 0;
#X connect 3 0 4 0;
#X connect 3 0 5 0;
#X connect 3 0 6 0;
#X connect 4 0 1 1;
#X connect 5 0 1 2;
#X connect 6 0 1 3;
#X connect 7 0 4 1;
#X connect 8 0 5 1;
#X connect 9 0 6 1;
#X connect 10 0 1 0;
#X connect 11 0 10 1;
#X connect 12 0 10 0;
#X connect 12 1 18 0;
#X connect 13 0 14 0;
#X connect 13 1 16 0;
#X connect 14 0 12 0;
#X connect 15 0 16 1;
#X connect 16 0 29 0;
#X connect 17 0 13 0;
#X connect 19 0 1 0;
#X connect 20 0 19 0;
#X connect 20 1 26 0;
#X connect 21 0 22 0;
#X connect 21 1 24 0;
#X connect 22 0 20 0;
#X connect 23 0 24 1;
#X connect 24 0 28 0;
#X connect 25 0 21 0;
#X connect 27 0 19 1;
#X connect 28 0 22 1;
#X connect 29 0 14 1;
#X restore 158 330 pd algo-\$1-2;
#N canvas 306 174 875 624 algo-\$1-3 0;
#X obj 51 32 inlet;
#X obj 51 404 expr $i1*(($i1>>$i2)*($i1>>$i3))|($i1>>$i4)&($i5&$i1>>$i6)
;
#X obj 51 467 s writer-\$1-input;
#X obj 460 392 r player-\$1-block-reset;
#X obj 166 355 f;
#X obj 211 359 f;
#X obj 264 361 f;
#X obj 314 368 f;
#X obj 362 369 f;
#X obj 140 275 r player-\$1-algo-3-param-0;
#X obj 220 295 r player-\$1-algo-3-param-1;
#X obj 290 315 r player-\$1-algo-3-param-2;
#X obj 350 335 r player-\$1-algo-3-param-3;
#X obj 420 355 r player-\$1-algo-3-param-4;
#X obj 415 154 f;
#X obj 450 155 + 1;
#X obj 415 105 t b b;
#X obj 415 57 t b b;
#X obj 415 78 spigot;
#X obj 504 65 r player-\$1-algo-select;
#X obj 474 65 f;
#X obj 415 36 r player-\$1-get-next-block-samp-0;
#X obj 491 146 s player-\$1-next-block-idx-0;
#X obj 135 157 f;
#X obj 135 105 t b b;
#X obj 135 57 t b b;
#X obj 135 78 spigot;
#X obj 224 65 r player-\$1-algo-select;
#X obj 194 65 f;
#X obj 135 36 r player-\$1-get-next-block-samp-1;
#X obj 211 146 s player-\$1-next-block-idx-1;
#X obj 165 157 + 2;
#X obj 194 86 == 3;
#X obj 474 86 == 3;
#X connect 0 0 1 0;
#X connect 0 0 31 0;
#X connect 0 0 15 0;
#X connect 1 0 2 0;
#X connect 3 0 4 0;
#X connect 3 0 5 0;
#X connect 3 0 6 0;
#X connect 3 0 7 0;
#X connect 3 0 8 0;
#X connect 4 0 1 1;
#X connect 5 0 1 2;
#X connect 6 0 1 3;
#X connect 7 0 1 4;
#X connect 8 0 1 5;
#X connect 9 0 4 1;
#X connect 10 0 5 1;
#X connect 11 0 6 1;
#X connect 12 0 7 1;
#X connect 13 0 8 1;
#X connect 14 0 1 0;
#X connect 15 0 14 1;
#X connect 16 0 14 0;
#X connect 16 1 22 0;
#X connect 17 0 18 0;
#X connect 17 1 20 0;
#X connect 18 0 16 0;
#X connect 19 0 20 1;
#X connect 20 0 33 0;
#X connect 21 0 17 0;
#X connect 23 0 1 0;
#X connect 24 0 23 0;
#X connect 24 1 30 0;
#X connect 25 0 26 0;
#X connect 25 1 28 0;
#X connect 26 0 24 0;
#X connect 27 0 28 1;
#X connect 28 0 32 0;
#X connect 29 0 25 0;
#X connect 31 0 23 1;
#X connect 32 0 26 1;
#X connect 33 0 18 1;
#X restore 188 310 pd algo-\$1-3;
#N canvas 746 49 892 757 algo-\$1-4 0;
#X obj 77 77 inlet;
#X obj 77 560 expr $i1*$i2&($i1>>$i3)|($i1*$i4)&($i1*$i5>>$i6);
#X obj 77 616 s writer-\$1-input;
#X obj 500 553 r player-\$1-block-reset;
#X obj 206 516 f;
#X obj 251 520 f;
#X obj 304 522 f;
#X obj 354 529 f;
#X obj 402 530 f;
#X obj 217 343 r player-\$1-algo-4-param-0;
#X obj 298 383 r player-\$1-algo-4-param-1;
#X obj 368 423 r player-\$1-algo-4-param-2;
#X obj 428 464 r player-\$1-algo-4-param-3;
#X obj 498 503 r player-\$1-algo-4-param-4;
#X obj 411 231 f;
#X obj 446 232 + 1;
#X obj 411 182 t b b;
#X obj 411 134 t b b;
#X obj 411 155 spigot;
#X obj 500 142 r player-\$1-algo-select;
#X obj 470 142 f;
#X obj 411 113 r player-\$1-get-next-block-samp-0;
#X obj 487 223 s player-\$1-next-block-idx-0;
#X obj 131 234 f;
#X obj 131 182 t b b;
#X obj 131 134 t b b;
#X obj 131 155 spigot;
#X obj 220 142 r player-\$1-algo-select;
#X obj 190 142 f;
#X obj 131 113 r player-\$1-get-next-block-samp-1;
#X obj 207 223 s player-\$1-next-block-idx-1;
#X obj 161 234 + 2;
#X obj 190 163 == 4;
#X obj 470 163 == 4;
#X connect 0 0 1 0;
#X connect 0 0 31 0;
#X connect 0 0 15 0;
#X connect 1 0 2 0;
#X connect 3 0 4 0;
#X connect 3 0 5 0;
#X connect 3 0 6 0;
#X connect 3 0 7 0;
#X connect 3 0 8 0;
#X connect 4 0 1 1;
#X connect 5 0 1 2;
#X connect 6 0 1 3;
#X connect 7 0 1 4;
#X connect 8 0 1 5;
#X connect 9 0 4 1;
#X connect 10 0 5 1;
#X connect 11 0 6 1;
#X connect 12 0 7 1;
#X connect 13 0 8 1;
#X connect 14 0 1 0;
#X connect 15 0 14 1;
#X connect 16 0 14 0;
#X connect 16 1 22 0;
#X connect 17 0 18 0;
#X connect 17 1 20 0;
#X connect 18 0 16 0;
#X connect 19 0 20 1;
#X connect 20 0 33 0;
#X connect 21 0 17 0;
#X connect 23 0 1 0;
#X connect 24 0 23 0;
#X connect 24 1 30 0;
#X connect 25 0 26 0;
#X connect 25 1 28 0;
#X connect 26 0 24 0;
#X connect 27 0 28 1;
#X connect 28 0 32 0;
#X connect 29 0 25 0;
#X connect 31 0 23 1;
#X connect 32 0 26 1;
#X connect 33 0 18 1;
#X restore 218 290 pd algo-\$1-4;
#X obj 191 116 r player-\$1-algo-select;
#X obj 98 154 list prepend;
#X obj 98 175 route 0 1 2 3 4;
#X obj 98 28 r player-\$1-time-idx;
#X obj 256 162 r player-\$1-block-reset;
#X msg 256 189 2;
#X obj 98 69 spigot;
#X obj 168 69 r player-\$1-clock;
#X floatatom 122 91 20 0 0 0 - - -;
#X connect 0 0 2 0;
#X connect 0 0 4 0;
#X connect 1 0 11 0;
#X connect 1 1 0 0;
#X connect 2 0 0 1;
#X connect 10 0 11 1;
#X connect 11 0 12 0;
#X connect 12 0 5 0;
#X connect 12 1 6 0;
#X connect 12 2 7 0;
#X connect 12 3 8 0;
#X connect 12 4 9 0;
#X connect 13 0 16 0;
#X connect 14 0 15 0;
#X connect 15 0 0 1;
#X connect 16 0 1 0;
#X connect 16 0 18 0;
#X connect 17 0 16 1;
#X restore 466 188 pd algos;
#X obj 98 588 s~ player-\$1-output;
#X obj 136 457 rev3~ 100 90 3000 20;
#X obj 319 351 r player-\$1-wet;
#X obj 339 391 r player-\$1-rvb-xover;
#X obj 349 411 r player-\$1-rvb-damping;
#X obj 329 371 r player-\$1-rvb-liveness;
#X obj 98 397 *~;
#X obj 373 229 dbtorms;
#X obj 373 251 pack f 40;
#X obj 373 273 line~;
#X obj 373 139 moses 41;
#X obj 373 161 t b;
#X msg 373 183 0;
#X obj 373 117 r player-\$1-dry;
#X obj 573 484 min 100;
#X obj 118 68 r player-\$1-blockSize;
#X obj 135 360 s~ player-\$1-prefader-output;
#X msg 98 210 2 \, \$1 \$2;
#X obj 118 111 + 2;
#X obj 98 270 tabread4~ \$1-algo-block;
#X text 566 66 With blockSize=8 \, we have a 12 point table. We skip
the first two points to read starting at index 2 \, and don't hit the
final two points (10 or 11) \, so we stop at 9 So we need to add 2
to the usual N-1 endpoint for reading.;
#X floatatom 169 104 5 0 0 0 - - -;
#X text 566 156 With blockSize=4 \, we have an 8-point table. We skip
the first two points to read starting at index 2 \, and don't hit the
final two points (6 or 7) \, so we stop at 9 So we need to add 2 to
the usual N-1 endpoint for reading.;
#X obj 181 146 r player-\$1-one-block-ms;
#X obj 98 297 hip~ 3;
#N canvas 1025 72 606 533 compressor 0;
#N canvas 0 50 450 250 (subpatch) 0;
#X array \$0-dynamic-curve 102 float 3;
#A 0 0 1 2 3 4 5 6 7 8 9 10 11 12 13 14 15 16 17 18 19 20 21 22 23
24 25 26 27 28 29 30 31 32 33 34 35 36 37 38 39 40 41 42 43 44 45 46
47 48 49 50 51 52 53 54 55 56 57 58 59 60 61 62 63 64 65 66 67 68 69
70 71 72 73 74 75 76 77 78 79 80 81 82 83 84 85 86 87 88 89 90 91 92
93 94 95 95.95 96.8 97.55 98.2 98.75 99.2;
#X coords 0 100 102 0 202 200 1 0 0;
#X restore 289 32 graph;
#N canvas 194 61 600 997 parameters 0;
#X obj 366 32 inlet;
#X obj 487 83 s \$0-speed;
#X obj 366 222 s \$0-limit;
#X obj 392 198 s \$0-knee;
#X obj 415 174 s \$0-boost;
#X obj 439 147 s \$0-ratio;
#X obj 366 57 unpack 0 0 0 0 0 0;
#X obj 462 116 s \$0-thresh;
#X obj 50 91 r \$0-limit;
#X obj 61 116 r \$0-knee;
#X obj 70 143 r \$0-boost;
#X obj 96 196 r \$0-thresh;
#X obj 82 167 r \$0-ratio;
#X obj 50 224 b;
#X obj 50 249 del 0;
#X obj 50 274 t b b;
#X obj 50 324 until;
#X obj 50 349 f;
#X obj 87 351 + 1;
#X msg 99 325 0;
#X obj 50 374 t f f;
#X obj 24 870 tabwrite \$0-dynamic-curve;
#X obj 193 708 moses;
#X obj 240 706 r \$0-thresh;
#X obj 407 554 r \$0-ratio;
#X obj 407 579 f;
#X obj 407 604 / 100;
#X obj 18 808 +;
#X msg 225 734 0;
#X obj 193 765 expr ($f1-$f2)*$f3;
#X obj 18 833 max 0;
#X obj 407 629 - 1;
#X obj 48 404 +;
#X obj 218 361 r \$0-boost;
#X obj 193 452 r \$0-limit;
#X obj 151 455 f;
#X obj 151 480 -;
#X obj 48 429 t f b;
#X obj 327 428 r \$0-knee;
#X obj 188 535 +;
#X obj 144 535 -;
#X obj 23 569 moses;
#X obj 71 569 moses;
#X obj 102 601 b;
#X obj 195 611 r \$0-limit;
#X obj 102 626 f;
#X obj 302 829 expr $f4 - ($f2-$f1)*($f2-$f1)/(4*$f3);
#X obj 23 594 +;
#X msg 50 299 102;
#X obj 327 453 f;
#X obj 327 478 / 2;
#X connect 0 0 6 0;
#X connect 6 0 2 0;
#X connect 6 1 3 0;
#X connect 6 2 4 0;
#X connect 6 3 5 0;
#X connect 6 4 7 0;
#X connect 6 5 1 0;
#X connect 8 0 13 0;
#X connect 9 0 13 0;
#X connect 10 0 13 0;
#X connect 11 0 13 0;
#X connect 12 0 13 0;
#X connect 13 0 14 0;
#X connect 14 0 15 0;
#X connect 15 0 48 0;
#X connect 15 1 19 0;
#X connect 16 0 17 0;
#X connect 17 0 18 0;
#X connect 17 0 20 0;
#X connect 18 0 17 1;
#X connect 19 0 17 1;
#X connect 20 0 32 0;
#X connect 20 1 21 1;
#X connect 20 1 22 0;
#X connect 22 0 29 0;
#X connect 22 1 28 0;
#X connect 23 0 22 1;
#X connect 23 0 29 1;
#X connect 24 0 25 0;
#X connect 25 0 26 0;
#X connect 26 0 31 0;
#X connect 27 0 30 0;
#X connect 28 0 27 1;
#X connect 29 0 27 1;
#X connect 30 0 21 0;
#X connect 31 0 29 2;
#X connect 32 0 37 0;
#X connect 33 0 32 1;
#X connect 33 0 36 1;
#X connect 33 0 47 1;
#X connect 34 0 35 1;
#X connect 35 0 36 0;
#X connect 36 0 39 0;
#X connect 36 0 40 0;
#X connect 37 0 41 0;
#X connect 37 1 35 0;
#X connect 38 0 49 0;
#X connect 39 0 42 1;
#X connect 39 0 46 1;
#X connect 40 0 41 1;
#X connect 41 0 47 0;
#X connect 41 1 42 0;
#X connect 42 0 46 0;
#X connect 42 1 43 0;
#X connect 43 0 45 0;
#X connect 44 0 45 1;
#X connect 44 0 46 3;
#X connect 45 0 27 0;
#X connect 46 0 27 0;
#X connect 47 0 27 0;
#X connect 48 0 16 0;
#X connect 49 0 50 0;
#X connect 50 0 40 1;
#X connect 50 0 39 1;
#X connect 50 0 46 2;
#X restore 303 432 pd parameters;
#N canvas 354 210 617 518 run-compander 0;
#X obj 47 56 inlet~;
#X obj 83 134 slop~ 0 0 0 0 1e+09;
#X obj 160 32 r \$0-speed;
#X obj 160 57 f;
#X obj 160 82 / 10;
#X obj 83 98 abs~;
#X obj 111 252 tabread4~ \$0-dynamic-curve;
#X obj 80 294 -~;
#X obj 80 319 +~ 100;
#X obj 80 344 dbtorms~;
#X obj 81 222 rmstodb~;
#X obj 45 384 *~;
#X obj 45 409 outlet~;
#X text 145 288 "correct" the level by applying a gain calculated from
the difference between the measured and desired level, f 27;
#X connect 0 0 5 0;
#X connect 0 0 11 0;
#X connect 1 0 10 0;
#X connect 2 0 3 0;
#X connect 3 0 4 0;
#X connect 4 0 1 3;
#X connect 5 0 1 0;
#X connect 6 0 7 0;
#X connect 7 0 8 0;
#X connect 8 0 9 0;
#X connect 9 0 11 1;
#X connect 10 0 7 1;
#X connect 10 0 6 0;
#X connect 11 0 12 0;
#X restore 48 172 pd run-compander;
#X obj 48 193 outlet~;
#X obj 48 123 inlet~;
#X obj 303 362 loadbang;
#X msg 303 389 100 10 0 100 0 50;
#X connect 2 0 3 0;
#X connect 4 0 2 0;
#X connect 5 0 6 0;
#X connect 6 0 1 0;
#X restore 98 319 pd compressor;
#X obj 98 38 spigot;
#X obj 168 38 r player-\$1-clock;
#X obj 98 18 r player-\$1-play-block;
#X obj 98 232 vline~;
#X connect 0 0 13 0;
#X connect 1 0 2 0;
#X connect 2 0 3 0;
#X connect 3 0 0 1;
#X connect 4 0 5 0;
#X connect 4 1 27 0;
#X connect 5 0 6 0;
#X connect 6 0 27 0;
#X connect 7 0 8 0;
#X connect 8 0 30 0;
#X connect 9 0 31 0;
#X connect 10 0 4 0;
#X connect 14 0 0 0;
#X connect 15 0 14 2;
#X connect 16 0 14 4;
#X connect 17 0 14 5;
#X connect 18 0 14 3;
#X connect 19 0 0 0;
#X connect 20 0 21 0;
#X connect 21 0 22 0;
#X connect 22 0 19 1;
#X connect 23 0 24 0;
#X connect 23 1 20 0;
#X connect 24 0 25 0;
#X connect 25 0 20 0;
#X connect 26 0 23 0;
#X connect 27 0 1 0;
#X connect 28 0 9 0;
#X connect 30 0 42 0;
#X connect 31 0 7 1;
#X connect 31 0 34 0;
#X connect 32 0 37 0;
#X connect 36 0 8 1;
#X connect 37 0 38 0;
#X connect 38 0 29 0;
#X connect 38 0 14 0;
#X connect 38 0 19 0;
#X connect 39 0 7 0;
#X connect 40 0 39 1;
#X connect 41 0 39 0;
#X connect 42 0 32 0;
