#N canvas 763 443 600 313 12;
#X obj 75 131 unpack f f;
#X obj 464 27 inlet;
#X obj 75 107 pack f \$1;
#X text 280 82 \$1: parameter index \; \$2: player ID number \;;
#X obj 75 53 r player-\$2-algo-param-\$1;
#X obj 75 195 tabwrite player-\$2-algo-params;
#X obj 282 167 + 1;
#X connect 0 0 5 0;
#X connect 0 1 6 0;
#X connect 2 0 0 0;
#X connect 4 0 2 0;
#X connect 6 0 5 1;
