#N canvas 928 148 675 518 10;
#X obj 28 101 spigot;
#X obj 28 337 f;
#X obj 106 328 + 1;
#X obj 106 349 % 2;
#X obj 106 228 r \$1;
#X obj 106 279 select \$4 \$5;
#X msg 106 300 0;
#X msg 146 300 1;
#X obj 28 388 select 0 1;
#X obj 28 409 f \$4;
#X obj 78 409 f \$5;
#X obj 28 196 t b b;
#X msg 151 226 0;
#X msg 191 226 1;
#X obj 106 249 spigot 1;
#X obj 28 439 t b f;
#X obj 73 469 s \$6;
#X obj 28 152 select 127;
#X text 108 150 << with "momentary" button modes \, we just want one
bang per button press \, so we only look for the button on state and
filter out the release.;
#X text 334 73 Use the button state of CC 0 (which is in "toggle" mode)
to route all MIDI data to send names that incorporate player ID \$3.
, f 44;
#X obj 28 60 ctlin \$2;
#X obj 181 11 loadbang;
#X obj 109 85 ==;
#X msg 181 129 0;
#X obj 109 55 ctlin 0;
#X obj 181 88 select 0 1 2 3 4 5;
#X msg 221 129 127;
#X obj 181 66 f \$3;
#X text 264 313 \$1: send name \; \$2: CC num \; \$3: player ID \;
\$4: low value \; \$5: high value \; \$6: receive name \;;
#X connect 0 0 17 0;
#X connect 1 0 2 0;
#X connect 1 0 8 0;
#X connect 2 0 3 0;
#X connect 3 0 1 1;
#X connect 4 0 14 0;
#X connect 5 0 6 0;
#X connect 5 1 7 0;
#X connect 6 0 2 0;
#X connect 7 0 2 0;
#X connect 8 0 9 0;
#X connect 8 1 10 0;
#X connect 9 0 15 0;
#X connect 10 0 15 0;
#X connect 11 0 1 0;
#X connect 11 1 12 0;
#X connect 12 0 14 1;
#X connect 13 0 14 1;
#X connect 14 0 5 0;
#X connect 15 0 13 0;
#X connect 15 1 16 0;
#X connect 17 0 11 0;
#X connect 20 0 0 0;
#X connect 21 0 27 0;
#X connect 22 0 0 1;
#X connect 23 0 22 1;
#X connect 24 0 22 0;
#X connect 25 0 23 0;
#X connect 25 1 26 0;
#X connect 25 2 23 0;
#X connect 25 3 26 0;
#X connect 25 4 23 0;
#X connect 25 5 26 0;
#X connect 26 0 22 1;
#X connect 27 0 25 0;
