#N canvas 81 223 482 459 10;
#X obj 28 80 ctlin \$2;
#X obj 110 7 loadbang;
#X obj 110 83 f \$3;
#X obj 78 101 ==;
#X obj 28 101 spigot;
#X obj 147 40 r player-\$3-param-interface-init;
#X text 265 244 \$1: send name \; \$2: CC num \; \$3: MIDI channel
(player-ID) \; \$4: low value \; \$5: high value \; \$6: receive name
\; \$7: MIDI channel offset \;;
#X obj 28 267 f;
#X obj 106 258 + 1;
#X obj 106 279 % 2;
#X obj 110 104 + \$7;
#X obj 97 148 r \$1;
#X obj 97 199 select \$4 \$5;
#X msg 97 220 0;
#X msg 137 220 1;
#X obj 28 318 select 0 1;
#X obj 28 339 f \$4;
#X obj 78 339 f \$5;
#X obj 28 126 t b b;
#X msg 142 146 0;
#X msg 182 146 1;
#X obj 97 169 spigot 1;
#X obj 28 369 t b f;
#X obj 73 399 s \$6;
#X floatatom 47 204 5 0 0 0 - - -;
#X obj 203 181 tgl 15 0 empty empty empty 17 7 0 10 -262144 -1 -1 0
1;
#X floatatom 137 322 5 0 0 0 - - -;
#X connect 0 0 4 0;
#X connect 0 1 3 0;
#X connect 1 0 2 0;
#X connect 2 0 10 0;
#X connect 3 0 4 1;
#X connect 4 0 18 0;
#X connect 5 0 2 0;
#X connect 7 0 8 0;
#X connect 7 0 15 0;
#X connect 7 0 26 0;
#X connect 8 0 9 0;
#X connect 9 0 7 1;
#X connect 10 0 3 1;
#X connect 11 0 21 0;
#X connect 12 0 13 0;
#X connect 12 1 14 0;
#X connect 13 0 8 0;
#X connect 14 0 8 0;
#X connect 15 0 16 0;
#X connect 15 1 17 0;
#X connect 16 0 22 0;
#X connect 17 0 22 0;
#X connect 18 0 7 0;
#X connect 18 1 19 0;
#X connect 19 0 21 1;
#X connect 19 0 25 0;
#X connect 20 0 21 1;
#X connect 20 0 25 0;
#X connect 21 0 12 0;
#X connect 21 0 24 0;
#X connect 22 0 20 0;
#X connect 22 1 23 0;
