#N canvas 665 177 650 350 10;
#X obj 28 101 spigot;
#X obj 28 186 t b;
#X obj 28 219 s \$1;
#X obj 28 162 select 127;
#X text 118 160 << with "momentary" button modes \, we just want one
bang per button press \, so we only look for the button on state and
filter out the release.;
#X text 274 82 Use the button state of CC 0 (which is in "toggle" mode)
to route all MIDI data to send names that incorporate player ID \$3.
, f 44;
#X obj 28 50 ctlin \$2;
#X obj 109 79 loadbang;
#X text 288 239 \$1: send name \; \$2: CC num \; \$3: player ID \;
;
#X obj 109 104 active-player-abs \$3;
#X connect 0 0 3 0;
#X connect 1 0 2 0;
#X connect 3 0 1 0;
#X connect 6 0 0 0;
#X connect 7 0 9 0;
#X connect 9 0 0 1;
