#N canvas 334 210 1062 201 12;
#N canvas 218 468 1222 370 panel 0;
#X obj 20 20 control-panel-abs \$1;
#N canvas 403 122 749 605 netpreps 0;
#N canvas 852 206 436 431 player-\$1-algo-netpreps 0;
#X obj 98 48 netprep player-\$1-algo-param-0;
#X obj 98 78 netprep player-\$1-algo-param-1;
#X obj 98 108 netprep player-\$1-algo-param-2;
#X obj 98 138 netprep player-\$1-algo-param-3;
#X obj 98 168 netprep player-\$1-algo-param-4;
#X obj 98 198 netprep player-\$1-algo-param-5;
#X obj 98 228 netprep player-\$1-algo-param-6;
#X obj 98 258 netprep player-\$1-algo-param-7;
#X obj 98 288 netprep player-\$1-algo-param-8;
#X obj 98 318 netprep player-\$1-algo-param-9;
#X restore 463 179 pd player-\$1-algo-netpreps;
#X obj 435 255 netprep player-\$1-spat-lfo-ctrl-color;
#X obj 435 315 netprep player-\$1-current-time-index;
#X obj 435 345 netprep player-\$1-pitch-bend-display;
#X obj 56 534 netprep player-\$1-interpolation 1;
#X obj 56 504 netprep player-\$1-time-sync 1;
#X obj 57 473 netprep player-\$1-tempo-sync 1;
#X obj 57 443 netprep player-\$1-compute 1;
#X obj 57 413 netprep player-\$1-tempo 1;
#X obj 57 383 netprep player-\$1-set-time-index 1;
#X obj 57 333 netprep player-\$1-rvb-damping 1;
#X obj 57 309 netprep player-\$1-rvb-xover 1;
#X obj 57 285 netprep player-\$1-rvb-liveness 1;
#X obj 57 260 netprep player-\$1-wet 1;
#X obj 57 235 netprep player-\$1-dry 1;
#X obj 57 201 netprep player-\$1-bitDepth 1;
#X obj 57 165 netprep player-\$1-algo-select 1;
#X obj 57 125 netprep player-\$1-spat-lfo-freq 1;
#X obj 57 100 netprep player-\$1-spat-width 1;
#X obj 57 75 netprep player-\$1-spat-pos 1;
#X obj 57 51 netprep player-\$1-mute 1;
#X obj 57 26 netprep player-\$1-gain 1;
#X restore 20 201 pd netpreps;
#N canvas 1214 498 583 462 algo-cache-stuff 0;
#X msg 43 116 0;
#X obj 163 37 r player-\$1-algo-select;
#X obj 219 271 pack f \$1;
#X obj 111 334 pack f \$1;
#X obj 43 83 r lb1;
#X msg 111 361 \; player-\$2-algo-load-cache \$1 \; player-\$2-param-interface-init
bang \;;
#X msg 219 301 \; player-\$2-algo-save-cache \$1 \;;
#X obj 163 71 spigot;
#X obj 223 71 r player-\$1-algo-select-retrigger-suppress-spigot;
#X msg 219 221 13;
#X obj 219 243 tabread player-\$1-algo-params;
#X obj 163 113 t f b;
#X floatatom 121 79 5 0 0 0 - - -;
#X connect 0 0 3 0;
#X connect 1 0 7 0;
#X connect 1 0 12 0;
#X connect 2 0 6 0;
#X connect 3 0 5 0;
#X connect 4 0 0 0;
#X connect 7 0 11 0;
#X connect 8 0 7 1;
#X connect 9 0 10 0;
#X connect 10 0 2 0;
#X connect 11 0 3 0;
#X connect 11 1 9 0;
#X restore 20 231 pd algo-cache-stuff;
#N canvas 821 23 516 566 keyboard-commands 0;
#X obj 105 152 key;
#X obj 182 176 r player-\$1-kbd-control;
#N canvas 327 384 615 322 bitDepth 0;
#X obj 346 168 f;
#X obj 386 172 + 1;
#X obj 86 168 f;
#X obj 126 172 - 1;
#X obj 120 120 r player-\$1-bitDepth;
#X obj 380 120 r player-\$1-bitDepth;
#X obj 275 266 s player-\$1-bitDepth-set;
#X obj 86 48 inlet;
#X obj 86 72 select 44 46;
#X obj 216 72 outlet;
#X obj 205 230 moses 1;
#X obj 275 230 moses 33;
#X connect 0 0 1 0;
#X connect 1 0 0 1;
#X connect 1 0 10 0;
#X connect 2 0 3 0;
#X connect 3 0 2 1;
#X connect 3 0 10 0;
#X connect 4 0 2 1;
#X connect 5 0 0 1;
#X connect 7 0 8 0;
#X connect 8 0 2 0;
#X connect 8 1 0 0;
#X connect 8 2 9 0;
#X connect 10 1 11 0;
#X connect 11 0 6 0;
#X restore 105 208 pd bitDepth;
#N canvas 413 349 615 322 compute 0;
#X obj 86 168 f;
#X obj 86 48 inlet;
#X obj 216 72 outlet;
#X obj 86 72 select 122;
#X obj 86 222 s player-\$1-compute-set;
#X obj 146 120 r player-\$1-compute;
#X obj 146 162 + 1;
#X obj 146 186 % 2;
#X connect 0 0 4 0;
#X connect 0 0 6 0;
#X connect 1 0 3 0;
#X connect 3 0 0 0;
#X connect 3 1 2 0;
#X connect 5 0 6 0;
#X connect 6 0 7 0;
#X connect 7 0 0 1;
#X restore 105 238 pd compute;
#N canvas 343 151 615 322 interp 0;
#X obj 86 48 inlet;
#X obj 216 72 outlet;
#X obj 86 168 f;
#X obj 146 162 + 1;
#X obj 146 186 % 2;
#X obj 86 72 select 120;
#X obj 146 120 r player-\$1-interpolation;
#X obj 86 221 s player-\$1-interpolation-set;
#X connect 0 0 5 0;
#X connect 2 0 3 0;
#X connect 2 0 7 0;
#X connect 3 0 4 0;
#X connect 4 0 2 1;
#X connect 5 0 2 0;
#X connect 5 1 1 0;
#X connect 6 0 3 0;
#X restore 105 268 pd interp;
#N canvas 343 151 615 322 tempoSync 0;
#X obj 86 48 inlet;
#X obj 326 72 outlet;
#X obj 86 72 select 99 118 98 110 109;
#X msg 86 126 0;
#X msg 126 126 1;
#X msg 166 126 2;
#X msg 206 126 3;
#X msg 246 126 4;
#X obj 86 222 s player-\$1-tempo-sync-set;
#X connect 0 0 2 0;
#X connect 2 0 3 0;
#X connect 2 1 4 0;
#X connect 2 2 5 0;
#X connect 2 3 6 0;
#X connect 2 4 7 0;
#X connect 2 5 1 0;
#X connect 3 0 8 0;
#X connect 4 0 8 0;
#X connect 5 0 8 0;
#X connect 6 0 8 0;
#X connect 7 0 8 0;
#X restore 105 298 pd tempoSync;
#N canvas 343 151 615 322 timeSync 0;
#X obj 86 48 inlet;
#X obj 216 72 outlet;
#X obj 86 72 select 32;
#X obj 126 141 r player-\$1-tempo-sync;
#X obj 86 142 f;
#X obj 86 193 s player-\$1-time-sync-set;
#X connect 0 0 2 0;
#X connect 2 0 4 0;
#X connect 2 1 1 0;
#X connect 3 0 4 1;
#X connect 4 0 5 0;
#X restore 105 328 pd timeSync;
#X obj 105 176 spigot;
#X text 90 31 </>: bitDepth inc/dec \; z: compute toggle \; x: interp
toggle \; c \, v \, b \, n \, m: tempoSync to 0-4 \; space: time sync
to most recently tempoSync'd payer \;;
#X text 91 404 =: randomize all \; [ \, ]: load \, save \; 1/q/a: inc/dec/rand
for p0 \; 2/w/s: inc/dec/rand for p1 \; . \; . \; . \; 0/p/semicolon:
inc/dec/rand for p9 \;;
#X connect 0 0 7 0;
#X connect 1 0 7 1;
#X connect 2 0 3 0;
#X connect 3 0 4 0;
#X connect 4 0 5 0;
#X connect 5 0 6 0;
#X connect 7 0 2 0;
#X restore 20 261 pd keyboard-commands;
#N canvas 98 273 607 194 MIDI 0;
#N canvas 365 87 791 699 keyboard-tempo 0;
#X obj 156 21 notein;
#X obj 346 284 bendin;
#X obj 346 397 select 8192;
#X msg 346 421 0;
#X obj 456 397 moses 8193;
#X obj 526 421 - 8193;
#X obj 456 421 - 8191;
#X obj 456 445 / 8191;
#X obj 526 445 / 8190;
#X obj 94 174 stripnote;
#X obj 591 428 / 127;
#X obj 591 506 + 1;
#X obj 427 583 t b f;
#X obj 94 143 spigot;
#X obj 346 351 spigot;
#X obj 591 394 spigot;
#X obj 591 356 ctlin 1;
#X obj 94 432 +;
#X obj 94 556 s player-\$1-tempo-set;
#X text 671 386 set the range of the tempo bend with the mod wheel
, f 14;
#X obj 94 456 max 1;
#X obj 94 258 mtof;
#X obj 94 282 /;
#X obj 140 262 r lb1;
#X msg 140 286 60;
#X obj 140 310 mtof;
#X text 180 285 << middle C is base tempo \, with tempo octaves at
octaves of C, f 16;
#X obj 94 326 *;
#X obj 94 480 min 240;
#X obj 427 543 spigot;
#X obj 591 482 * 50;
#X obj 138 372 t b;
#X text 491 536 only allow tempo bend during active holding of a note.
this allows release of a note to freeze tempo at bent value, f 27
;
#X msg 138 396 0;
#X text 175 365 upon note-on \, reset bend, f 11;
#X obj 305 627 s player-\$1-pitch-bend-display;
#X obj 427 489 f;
#X obj 427 513 * 1;
#X obj 305 597 f;
#X obj 305 567 select 0;
#X text 161 586 Take snapshot of pitch bend position for GUI display
as reference, f 19;
#X obj 417 179 ==;
#X msg 489 223 0;
#X obj 417 149 ctlin 0;
#X obj 489 151 f \$1;
#X obj 489 182 select 0 1 2 3 4 5;
#X msg 529 223 127;
#X obj 489 125 r lb1;
#N canvas 1134 89 667 392 detect-no-keys 0;
#X obj 49 24 inlet;
#X obj 199 24 inlet;
#X obj 295 53 table player-\$1-MIDI-notes 127;
#X obj 49 94 swap;
#X obj 112 170 tabwrite player-\$1-MIDI-notes;
#X text 293 80 keep track of all MIDI note states so that we can detect
when no keys are depressed., f 44;
#X obj 25 286 array sum player-\$1-MIDI-notes;
#X obj 25 334 outlet;
#X obj 103 330 tgl 15 0 empty empty empty 17 7 0 10 -262144 -1 -1 0
1;
#X obj 25 309 > 0;
#X obj 49 138 t b f;
#X text 148 221 upon every note event \, get a true/false re: all notes
being off. must check the sum post-storage of the incoming note state.
, f 63;
#X connect 0 0 3 0;
#X connect 1 0 3 1;
#X connect 3 0 10 0;
#X connect 3 1 4 1;
#X connect 6 0 9 0;
#X connect 9 0 7 0;
#X connect 9 0 8 0;
#X connect 10 0 6 0;
#X connect 10 1 4 0;
#X restore 202 84 pd detect-no-keys;
#X obj 591 452 pow 2;
#X connect 0 0 13 0;
#X connect 0 0 48 0;
#X connect 0 1 9 1;
#X connect 0 1 48 1;
#X connect 1 0 14 0;
#X connect 2 0 3 0;
#X connect 2 1 4 0;
#X connect 3 0 36 0;
#X connect 4 0 6 0;
#X connect 4 1 5 0;
#X connect 5 0 8 0;
#X connect 6 0 7 0;
#X connect 7 0 36 0;
#X connect 8 0 36 0;
#X connect 9 0 21 0;
#X connect 9 1 31 0;
#X connect 10 0 49 0;
#X connect 11 0 37 1;
#X connect 12 0 17 0;
#X connect 12 1 17 1;
#X connect 13 0 9 0;
#X connect 14 0 2 0;
#X connect 15 0 10 0;
#X connect 16 0 15 0;
#X connect 17 0 20 0;
#X connect 20 0 28 0;
#X connect 21 0 22 0;
#X connect 22 0 27 0;
#X connect 23 0 24 0;
#X connect 24 0 25 0;
#X connect 24 0 27 1;
#X connect 25 0 22 1;
#X connect 27 0 17 0;
#X connect 28 0 18 0;
#X connect 29 0 12 0;
#X connect 30 0 11 0;
#X connect 31 0 33 0;
#X connect 33 0 17 1;
#X connect 36 0 37 0;
#X connect 36 0 38 1;
#X connect 37 0 29 0;
#X connect 38 0 35 0;
#X connect 39 0 38 0;
#X connect 41 0 14 1;
#X connect 41 0 15 1;
#X connect 41 0 13 1;
#X connect 42 0 41 1;
#X connect 43 0 41 0;
#X connect 44 0 45 0;
#X connect 45 0 42 0;
#X connect 45 1 46 0;
#X connect 45 2 42 0;
#X connect 45 3 46 0;
#X connect 45 4 42 0;
#X connect 45 5 46 0;
#X connect 46 0 41 1;
#X connect 47 0 44 0;
#X connect 48 0 39 0;
#X connect 48 0 29 1;
#X connect 49 0 30 0;
#X restore 43 34 pd keyboard-tempo;
#N canvas 179 228 959 559 timeSync 0;
#X obj 123 153 r player-\$1-tempo-sync;
#X obj 83 154 f;
#X obj 83 205 s player-\$1-time-sync-set;
#X obj 83 78 spigot;
#X obj 174 75 ==;
#X msg 246 119 0;
#X obj 174 45 ctlin 0;
#X obj 246 47 f \$1;
#X obj 246 78 select 0 1 2 3 4 5;
#X msg 286 119 127;
#X obj 246 21 r lb1;
#X obj 83 103 select 127;
#X obj 83 127 t b;
#X obj 83 54 ctlin 52;
#X obj 533 78 spigot;
#X obj 624 75 ==;
#X msg 696 119 0;
#X obj 624 45 ctlin 0;
#X obj 696 47 f \$1;
#X obj 696 78 select 0 1 2 3 4 5;
#X msg 736 119 127;
#X obj 696 21 r lb1;
#X obj 533 103 select 127;
#X obj 533 127 t b;
#X msg 533 151 0;
#X obj 533 205 s player-\$1-set-time-index-set;
#X obj 533 318 spigot;
#X obj 624 315 ==;
#X msg 696 359 0;
#X obj 624 285 ctlin 0;
#X obj 696 287 f \$1;
#X obj 696 318 select 0 1 2 3 4 5;
#X msg 736 359 127;
#X obj 696 261 r lb1;
#X obj 533 343 select 127;
#X obj 533 367 t b;
#X obj 533 445 s player-\$1-set-time-index-set;
#X obj 533 391 random 2.14748e+09;
#X text 576 416 Jump to a random time between 0 and INT_MAX;
#X text 553 178 Jump to time zero;
#X obj 533 54 ctlin 34;
#X obj 533 294 ctlin 44;
#X connect 0 0 1 1;
#X connect 1 0 2 0;
#X connect 3 0 11 0;
#X connect 4 0 3 1;
#X connect 5 0 4 1;
#X connect 6 0 4 0;
#X connect 7 0 8 0;
#X connect 8 0 5 0;
#X connect 8 1 9 0;
#X connect 8 2 5 0;
#X connect 8 3 9 0;
#X connect 8 4 5 0;
#X connect 8 5 9 0;
#X connect 9 0 4 1;
#X connect 10 0 7 0;
#X connect 11 0 12 0;
#X connect 12 0 1 0;
#X connect 13 0 3 0;
#X connect 14 0 22 0;
#X connect 15 0 14 1;
#X connect 16 0 15 1;
#X connect 17 0 15 0;
#X connect 18 0 19 0;
#X connect 19 0 16 0;
#X connect 19 1 20 0;
#X connect 19 2 16 0;
#X connect 19 3 20 0;
#X connect 19 4 16 0;
#X connect 19 5 20 0;
#X connect 20 0 15 1;
#X connect 21 0 18 0;
#X connect 22 0 23 0;
#X connect 23 0 24 0;
#X connect 24 0 25 0;
#X connect 26 0 34 0;
#X connect 27 0 26 1;
#X connect 28 0 27 1;
#X connect 29 0 27 0;
#X connect 30 0 31 0;
#X connect 31 0 28 0;
#X connect 31 1 32 0;
#X connect 31 2 28 0;
#X connect 31 3 32 0;
#X connect 31 4 28 0;
#X connect 31 5 32 0;
#X connect 32 0 27 1;
#X connect 33 0 30 0;
#X connect 34 0 35 0;
#X connect 35 0 37 0;
#X connect 37 0 36 0;
#X connect 40 0 14 0;
#X connect 41 0 26 0;
#X restore 43 94 pd timeSync;
#N canvas 609 445 765 367 algoChoice 0;
#X obj 86 66 spigot;
#X obj 86 120 t b;
#X obj 346 198 f;
#X obj 386 202 + 1;
#X obj 86 198 f;
#X obj 126 202 - 1;
#X obj 275 296 s player-\$1-algo-select-set;
#X obj 380 150 r player-\$1-algo-select;
#X obj 120 150 r player-\$1-algo-select;
#X obj 86 42 ctlin 21;
#X obj 346 66 spigot;
#X obj 346 120 t b;
#X obj 346 42 ctlin 22;
#X obj 205 260 moses 0;
#X obj 503 69 ==;
#X msg 575 113 0;
#X obj 503 39 ctlin 0;
#X obj 575 41 f \$1;
#X obj 575 72 select 0 1 2 3 4 5;
#X msg 615 113 127;
#X obj 575 15 r lb1;
#X obj 346 90 select 127;
#X obj 86 90 select 127;
#X obj 275 260 moses 20;
#X obj 355 260 r num-algos;
#X connect 0 0 22 0;
#X connect 1 0 4 0;
#X connect 2 0 3 0;
#X connect 3 0 2 1;
#X connect 3 0 13 0;
#X connect 4 0 5 0;
#X connect 5 0 4 1;
#X connect 5 0 13 0;
#X connect 7 0 2 1;
#X connect 8 0 4 1;
#X connect 9 0 0 0;
#X connect 10 0 21 0;
#X connect 11 0 2 0;
#X connect 12 0 10 0;
#X connect 13 1 23 0;
#X connect 14 0 10 1;
#X connect 14 0 0 1;
#X connect 15 0 14 1;
#X connect 16 0 14 0;
#X connect 17 0 18 0;
#X connect 18 0 15 0;
#X connect 18 1 19 0;
#X connect 18 2 15 0;
#X connect 18 3 19 0;
#X connect 18 4 15 0;
#X connect 18 5 19 0;
#X connect 19 0 14 1;
#X connect 20 0 17 0;
#X connect 21 0 11 0;
#X connect 22 0 1 0;
#X connect 23 0 6 0;
#X connect 24 0 23 1;
#X restore 213 34 pd algoChoice;
#N canvas 633 291 807 587 last-param-changed 0;
#X obj 76 54 r player-\$1-last-param-changed;
#X obj 76 234 r player-\$1-last-param-changed;
#X obj 466 54 r player-\$1-last-param-changed;
#X obj 39 14 r player-\$1-latest-param-dec;
#X obj 39 204 r player-\$1-latest-param-inc;
#X obj 429 14 r player-\$1-latest-param-rand;
#X obj 402 292 buttonBangMap player-\$1-latest-param-rand 18 \$1 1
;
#X msg 429 146 \; player-\$1-algo-randomize-param-\$2-set bang \;;
#X msg 39 296 \; player-\$1-algo-inc-param-\$2-set bang \;;
#X msg 39 146 \; player-\$1-algo-dec-param-\$2-set bang \;;
#X obj 39 116 pack \$1 f;
#X obj 429 116 pack \$1 f;
#X obj 39 266 pack \$1 f;
#X floatatom 149 98 5 0 0 0 - - -;
#X obj 402 232 buttonBangMap player-\$1-latest-param-dec 19 \$1 1;
#X obj 402 262 buttonBangMap player-\$1-latest-param-inc 20 \$1 1;
#X obj 402 362 buttonBangMap player-\$1-active-param-dec 16 \$1 1;
#X obj 402 392 buttonBangMap player-\$1-active-param-inc 17 \$1 1;
#X obj 162 413 r player-\$1-last-param-changed;
#X obj 131 454 f;
#X obj 171 458 + 1;
#X obj 54 453 f;
#X obj 94 457 - 1;
#X obj 86 490 moses 0;
#X obj 156 490 moses 7;
#X obj 156 520 s player-\$1-last-param-changed;
#X obj 36 364 r player-\$1-active-param-dec;
#X obj 80 389 r player-\$1-active-param-inc;
#X connect 0 0 10 1;
#X connect 0 0 13 0;
#X connect 1 0 12 1;
#X connect 2 0 11 1;
#X connect 3 0 10 0;
#X connect 4 0 12 0;
#X connect 5 0 11 0;
#X connect 10 0 9 0;
#X connect 11 0 7 0;
#X connect 12 0 8 0;
#X connect 18 0 19 1;
#X connect 18 0 21 1;
#X connect 19 0 20 0;
#X connect 20 0 19 1;
#X connect 20 0 23 0;
#X connect 21 0 22 0;
#X connect 22 0 21 1;
#X connect 22 0 23 0;
#X connect 23 1 24 0;
#X connect 24 0 25 0;
#X connect 26 0 21 0;
#X connect 27 0 19 0;
#X restore 212 64 pd last-param-changed;
#N canvas 398 386 834 332 tempoSync 0;
#X obj 408 285 s player-\$1-tempo-sync-set;
#X obj 408 69 r player-\$1-tempo-sync-0;
#X msg 408 93 0;
#X msg 448 123 1;
#X msg 488 153 2;
#X msg 528 183 3;
#X msg 568 213 4;
#X msg 608 243 5;
#X obj 608 219 r player-\$1-tempo-sync-5;
#X obj 568 189 r player-\$1-tempo-sync-4;
#X obj 528 159 r player-\$1-tempo-sync-3;
#X obj 488 129 r player-\$1-tempo-sync-2;
#X obj 448 99 r player-\$1-tempo-sync-1;
#X obj 37 37 buttonBangMap player-\$1-tempo-sync-0 30 \$1;
#X obj 37 67 buttonBangMap player-\$1-tempo-sync-1 40 \$1;
#X obj 37 97 buttonBangMap player-\$1-tempo-sync-2 50 \$1;
#X obj 37 127 buttonBangMap player-\$1-tempo-sync-3 31 \$1;
#X obj 37 157 buttonBangMap player-\$1-tempo-sync-4 41 \$1;
#X obj 37 187 buttonBangMap player-\$1-tempo-sync-5 51 \$1;
#X connect 1 0 2 0;
#X connect 2 0 0 0;
#X connect 3 0 0 0;
#X connect 4 0 0 0;
#X connect 5 0 0 0;
#X connect 6 0 0 0;
#X connect 7 0 0 0;
#X connect 8 0 7 0;
#X connect 9 0 6 0;
#X connect 10 0 5 0;
#X connect 11 0 4 0;
#X connect 12 0 3 0;
#X restore 43 64 pd tempoSync;
#N canvas 940 287 660 547 lfo-freq 0;
#X text 137 14 Have to special-case this because we need logarithmic
scale from 0 to 4 \, but also log scale going from 0 down to -4;
#X obj 45 149 t f b;
#X obj 81 415 t b f;
#X msg 410 370 0;
#X msg 442 371 1;
#X obj 350 400 spigot 1;
#X obj 45 124 spigot;
#X obj 128 481 s player-\$1-spat-lfo-freq-set;
#X obj 392 146 r player-\$1-spat-lfo-freq;
#X obj 45 189 moses 64;
#X obj 45 213 t b f;
#X msg 45 237 63;
#X obj 45 261 -;
#X obj 45 285 / 63;
#X obj 45 339 * -4;
#X obj 45 315 pow 3;
#X obj 110 223 - 64;
#X obj 110 250 / 63;
#X obj 110 280 pow 3;
#X obj 110 304 * 4;
#X obj 392 173 moses 0;
#X obj 392 198 / -4;
#X obj 392 222 pow 0.333333;
#X obj 392 246 * 63;
#X obj 392 270 swap 63;
#X obj 392 294 -;
#X obj 512 222 pow 0.333333;
#X obj 512 246 * 63;
#X obj 512 198 / 4;
#X obj 512 270 + 64;
#X obj 45 93 ctlin 117;
#X obj 350 424 ctlout 117;
#X obj 142 130 ==;
#X msg 214 174 0;
#X obj 142 100 ctlin 0;
#X obj 214 102 f \$1;
#X obj 214 133 select 0 1 2 3 4 5;
#X msg 254 174 127;
#X obj 214 76 r lb1;
#X connect 1 0 9 0;
#X connect 1 1 3 0;
#X connect 2 0 4 0;
#X connect 2 1 7 0;
#X connect 3 0 5 1;
#X connect 4 0 5 1;
#X connect 5 0 31 0;
#X connect 6 0 1 0;
#X connect 8 0 20 0;
#X connect 9 0 10 0;
#X connect 9 1 16 0;
#X connect 10 0 11 0;
#X connect 10 1 12 1;
#X connect 11 0 12 0;
#X connect 12 0 13 0;
#X connect 13 0 15 0;
#X connect 14 0 2 0;
#X connect 15 0 14 0;
#X connect 16 0 17 0;
#X connect 17 0 18 0;
#X connect 18 0 19 0;
#X connect 19 0 2 0;
#X connect 20 0 21 0;
#X connect 20 1 28 0;
#X connect 21 0 22 0;
#X connect 22 0 23 0;
#X connect 23 0 24 0;
#X connect 24 0 25 0;
#X connect 24 1 25 1;
#X connect 25 0 5 0;
#X connect 26 0 27 0;
#X connect 27 0 29 0;
#X connect 28 0 26 0;
#X connect 29 0 5 0;
#X connect 30 0 6 0;
#X connect 32 0 6 1;
#X connect 33 0 32 1;
#X connect 34 0 32 0;
#X connect 35 0 36 0;
#X connect 36 0 33 0;
#X connect 36 1 37 0;
#X connect 36 2 33 0;
#X connect 36 3 37 0;
#X connect 36 4 33 0;
#X connect 36 5 37 0;
#X connect 37 0 32 1;
#X connect 38 0 35 0;
#X restore 212 94 pd lfo-freq;
#N canvas 457 125 784 517 param-knobs 0;
#N canvas 880 68 523 493 param-0 0;
#X obj 28 136 / 127;
#X obj 218 259 * 127;
#X obj 28 96 t f b;
#X obj 28 382 t b f;
#X msg 278 268 0;
#X msg 310 269 1;
#X obj 218 298 spigot 1;
#X obj 28 207 + 0.5;
#X obj 28 228 i;
#X obj 28 71 spigot;
#X obj 181 11 loadbang;
#X obj 109 85 ==;
#X msg 181 129 0;
#X obj 109 55 ctlin 0;
#X obj 181 88 select 0 1 2 3 4 5;
#X msg 221 129 127;
#X obj 28 40 ctlin 110;
#X obj 201 37 r player-\$1-param-interface-init;
#X obj 68 420 s player-\$1-algo-param-0-set;
#X obj 218 322 ctlout 110;
#X obj 218 197 r player-\$1-algo-param-0;
#X obj 218 229 /;
#X obj 28 167 *;
#X obj 181 66 f \$1;
#X obj 276 127 r player-\$1-algo-param-0-range;
#X obj 276 151 - 1;
#X connect 0 0 22 0;
#X connect 1 0 6 0;
#X connect 2 0 0 0;
#X connect 2 1 4 0;
#X connect 3 0 5 0;
#X connect 3 1 18 0;
#X connect 4 0 6 1;
#X connect 5 0 6 1;
#X connect 6 0 19 0;
#X connect 7 0 8 0;
#X connect 8 0 3 0;
#X connect 9 0 2 0;
#X connect 10 0 23 0;
#X connect 11 0 9 1;
#X connect 12 0 11 1;
#X connect 13 0 11 0;
#X connect 14 0 12 0;
#X connect 14 1 15 0;
#X connect 14 2 12 0;
#X connect 14 3 15 0;
#X connect 14 4 12 0;
#X connect 14 5 15 0;
#X connect 15 0 11 1;
#X connect 16 0 9 0;
#X connect 17 0 23 0;
#X connect 20 0 21 0;
#X connect 21 0 1 0;
#X connect 22 0 7 0;
#X connect 23 0 14 0;
#X connect 24 0 25 0;
#X connect 25 0 21 1;
#X connect 25 0 22 1;
#X restore 37 37 pd param-0;
#X text 171 37 Had to special-case the parameter knob mappings since
their ranges need to change according to controls in [algo-param-interface-client]
, f 32;
#N canvas 880 68 523 493 param-1 0;
#X obj 28 136 / 127;
#X obj 218 259 * 127;
#X obj 28 96 t f b;
#X obj 28 382 t b f;
#X msg 278 268 0;
#X msg 310 269 1;
#X obj 218 298 spigot 1;
#X obj 28 207 + 0.5;
#X obj 28 228 i;
#X obj 28 71 spigot;
#X obj 181 11 loadbang;
#X obj 109 85 ==;
#X msg 181 129 0;
#X obj 109 55 ctlin 0;
#X obj 181 88 select 0 1 2 3 4 5;
#X msg 221 129 127;
#X obj 201 37 r player-\$1-param-interface-init;
#X obj 218 229 /;
#X obj 28 167 *;
#X obj 181 66 f \$1;
#X obj 28 40 ctlin 111;
#X obj 218 322 ctlout 111;
#X obj 68 420 s player-\$1-algo-param-1-set;
#X obj 218 197 r player-\$1-algo-param-1;
#X obj 264 141 r player-\$1-algo-param-1-range;
#X obj 264 165 - 1;
#X connect 0 0 18 0;
#X connect 1 0 6 0;
#X connect 2 0 0 0;
#X connect 2 1 4 0;
#X connect 3 0 5 0;
#X connect 3 1 22 0;
#X connect 4 0 6 1;
#X connect 5 0 6 1;
#X connect 6 0 21 0;
#X connect 7 0 8 0;
#X connect 8 0 3 0;
#X connect 9 0 2 0;
#X connect 10 0 19 0;
#X connect 11 0 9 1;
#X connect 12 0 11 1;
#X connect 13 0 11 0;
#X connect 14 0 12 0;
#X connect 14 1 15 0;
#X connect 14 2 12 0;
#X connect 14 3 15 0;
#X connect 14 4 12 0;
#X connect 14 5 15 0;
#X connect 15 0 11 1;
#X connect 16 0 19 0;
#X connect 17 0 1 0;
#X connect 18 0 7 0;
#X connect 19 0 14 0;
#X connect 20 0 9 0;
#X connect 23 0 17 0;
#X connect 24 0 25 0;
#X connect 25 0 17 1;
#X connect 25 0 18 1;
#X restore 37 67 pd param-1;
#N canvas 880 68 523 493 param-2 0;
#X obj 28 136 / 127;
#X obj 218 259 * 127;
#X obj 28 96 t f b;
#X obj 28 382 t b f;
#X msg 278 268 0;
#X msg 310 269 1;
#X obj 218 298 spigot 1;
#X obj 28 207 + 0.5;
#X obj 28 228 i;
#X obj 28 71 spigot;
#X obj 181 11 loadbang;
#X obj 109 85 ==;
#X msg 181 129 0;
#X obj 109 55 ctlin 0;
#X obj 181 88 select 0 1 2 3 4 5;
#X msg 221 129 127;
#X obj 201 37 r player-\$1-param-interface-init;
#X obj 218 229 /;
#X obj 28 167 *;
#X obj 181 66 f \$1;
#X obj 28 40 ctlin 112;
#X obj 218 322 ctlout 112;
#X obj 218 197 r player-\$1-algo-param-2;
#X obj 68 420 s player-\$1-algo-param-2-set;
#X obj 301 142 r player-\$1-algo-param-2-range;
#X obj 301 166 - 1;
#X connect 0 0 18 0;
#X connect 1 0 6 0;
#X connect 2 0 0 0;
#X connect 2 1 4 0;
#X connect 3 0 5 0;
#X connect 3 1 23 0;
#X connect 4 0 6 1;
#X connect 5 0 6 1;
#X connect 6 0 21 0;
#X connect 7 0 8 0;
#X connect 8 0 3 0;
#X connect 9 0 2 0;
#X connect 10 0 19 0;
#X connect 11 0 9 1;
#X connect 12 0 11 1;
#X connect 13 0 11 0;
#X connect 14 0 12 0;
#X connect 14 1 15 0;
#X connect 14 2 12 0;
#X connect 14 3 15 0;
#X connect 14 4 12 0;
#X connect 14 5 15 0;
#X connect 15 0 11 1;
#X connect 16 0 19 0;
#X connect 17 0 1 0;
#X connect 18 0 7 0;
#X connect 19 0 14 0;
#X connect 20 0 9 0;
#X connect 22 0 17 0;
#X connect 24 0 25 0;
#X connect 25 0 18 1;
#X connect 25 0 17 1;
#X restore 37 97 pd param-2;
#N canvas 880 68 523 493 param-3 0;
#X obj 28 136 / 127;
#X obj 218 259 * 127;
#X obj 28 96 t f b;
#X obj 28 382 t b f;
#X msg 278 268 0;
#X msg 310 269 1;
#X obj 218 298 spigot 1;
#X obj 28 207 + 0.5;
#X obj 28 228 i;
#X obj 28 71 spigot;
#X obj 181 11 loadbang;
#X obj 109 85 ==;
#X msg 181 129 0;
#X obj 109 55 ctlin 0;
#X obj 181 88 select 0 1 2 3 4 5;
#X msg 221 129 127;
#X obj 201 37 r player-\$1-param-interface-init;
#X obj 218 229 /;
#X obj 28 167 *;
#X obj 181 66 f \$1;
#X obj 28 40 ctlin 113;
#X obj 218 322 ctlout 113;
#X obj 68 420 s player-\$1-algo-param-3-set;
#X obj 218 197 r player-\$1-algo-param-3;
#X obj 279 139 r player-\$1-algo-param-3-range;
#X obj 279 163 - 1;
#X connect 0 0 18 0;
#X connect 1 0 6 0;
#X connect 2 0 0 0;
#X connect 2 1 4 0;
#X connect 3 0 5 0;
#X connect 3 1 22 0;
#X connect 4 0 6 1;
#X connect 5 0 6 1;
#X connect 6 0 21 0;
#X connect 7 0 8 0;
#X connect 8 0 3 0;
#X connect 9 0 2 0;
#X connect 10 0 19 0;
#X connect 11 0 9 1;
#X connect 12 0 11 1;
#X connect 13 0 11 0;
#X connect 14 0 12 0;
#X connect 14 1 15 0;
#X connect 14 2 12 0;
#X connect 14 3 15 0;
#X connect 14 4 12 0;
#X connect 14 5 15 0;
#X connect 15 0 11 1;
#X connect 16 0 19 0;
#X connect 17 0 1 0;
#X connect 18 0 7 0;
#X connect 19 0 14 0;
#X connect 20 0 9 0;
#X connect 23 0 17 0;
#X connect 24 0 25 0;
#X connect 25 0 18 1;
#X connect 25 0 17 1;
#X restore 37 127 pd param-3;
#N canvas 880 68 523 493 param-4 0;
#X obj 28 136 / 127;
#X obj 218 259 * 127;
#X obj 28 96 t f b;
#X obj 28 382 t b f;
#X msg 278 268 0;
#X msg 310 269 1;
#X obj 218 298 spigot 1;
#X obj 28 207 + 0.5;
#X obj 28 228 i;
#X obj 28 71 spigot;
#X obj 181 11 loadbang;
#X obj 109 85 ==;
#X msg 181 129 0;
#X obj 109 55 ctlin 0;
#X obj 181 88 select 0 1 2 3 4 5;
#X msg 221 129 127;
#X obj 201 37 r player-\$1-param-interface-init;
#X obj 218 229 /;
#X obj 28 167 *;
#X obj 181 66 f \$1;
#X obj 28 40 ctlin 114;
#X obj 68 420 s player-\$1-algo-param-4-set;
#X obj 218 322 ctlout 114;
#X obj 218 197 r player-\$1-algo-param-4;
#X obj 287 136 r player-\$1-algo-param-4-range;
#X obj 287 160 - 1;
#X connect 0 0 18 0;
#X connect 1 0 6 0;
#X connect 2 0 0 0;
#X connect 2 1 4 0;
#X connect 3 0 5 0;
#X connect 3 1 21 0;
#X connect 4 0 6 1;
#X connect 5 0 6 1;
#X connect 6 0 22 0;
#X connect 7 0 8 0;
#X connect 8 0 3 0;
#X connect 9 0 2 0;
#X connect 10 0 19 0;
#X connect 11 0 9 1;
#X connect 12 0 11 1;
#X connect 13 0 11 0;
#X connect 14 0 12 0;
#X connect 14 1 15 0;
#X connect 14 2 12 0;
#X connect 14 3 15 0;
#X connect 14 4 12 0;
#X connect 14 5 15 0;
#X connect 15 0 11 1;
#X connect 16 0 19 0;
#X connect 17 0 1 0;
#X connect 18 0 7 0;
#X connect 19 0 14 0;
#X connect 20 0 9 0;
#X connect 23 0 17 0;
#X connect 24 0 25 0;
#X connect 25 0 17 1;
#X connect 25 0 18 1;
#X restore 37 157 pd param-4;
#N canvas 880 68 523 493 param-5 0;
#X obj 28 136 / 127;
#X obj 218 259 * 127;
#X obj 28 96 t f b;
#X obj 28 382 t b f;
#X msg 278 268 0;
#X msg 310 269 1;
#X obj 218 298 spigot 1;
#X obj 28 207 + 0.5;
#X obj 28 228 i;
#X obj 28 71 spigot;
#X obj 181 11 loadbang;
#X obj 109 85 ==;
#X msg 181 129 0;
#X obj 109 55 ctlin 0;
#X obj 181 88 select 0 1 2 3 4 5;
#X msg 221 129 127;
#X obj 201 37 r player-\$1-param-interface-init;
#X obj 218 229 /;
#X obj 28 167 *;
#X obj 181 66 f \$1;
#X obj 68 420 s player-\$1-algo-param-5-set;
#X obj 218 322 ctlout 115;
#X obj 218 197 r player-\$1-algo-param-5;
#X obj 28 40 ctlin 115;
#X obj 306 140 r player-\$1-algo-param-5-range;
#X obj 306 164 - 1;
#X connect 0 0 18 0;
#X connect 1 0 6 0;
#X connect 2 0 0 0;
#X connect 2 1 4 0;
#X connect 3 0 5 0;
#X connect 3 1 20 0;
#X connect 4 0 6 1;
#X connect 5 0 6 1;
#X connect 6 0 21 0;
#X connect 7 0 8 0;
#X connect 8 0 3 0;
#X connect 9 0 2 0;
#X connect 10 0 19 0;
#X connect 11 0 9 1;
#X connect 12 0 11 1;
#X connect 13 0 11 0;
#X connect 14 0 12 0;
#X connect 14 1 15 0;
#X connect 14 2 12 0;
#X connect 14 3 15 0;
#X connect 14 4 12 0;
#X connect 14 5 15 0;
#X connect 15 0 11 1;
#X connect 16 0 19 0;
#X connect 17 0 1 0;
#X connect 18 0 7 0;
#X connect 19 0 14 0;
#X connect 22 0 17 0;
#X connect 23 0 9 0;
#X connect 24 0 25 0;
#X connect 25 0 17 1;
#X connect 25 0 18 1;
#X restore 37 187 pd param-5;
#N canvas 880 68 523 493 param-6 0;
#X obj 28 136 / 127;
#X obj 218 259 * 127;
#X obj 28 96 t f b;
#X obj 28 382 t b f;
#X msg 278 268 0;
#X msg 310 269 1;
#X obj 218 298 spigot 1;
#X obj 28 207 + 0.5;
#X obj 28 228 i;
#X obj 28 71 spigot;
#X obj 181 11 loadbang;
#X obj 109 85 ==;
#X msg 181 129 0;
#X obj 109 55 ctlin 0;
#X obj 181 88 select 0 1 2 3 4 5;
#X msg 221 129 127;
#X obj 201 37 r player-\$1-param-interface-init;
#X obj 218 229 /;
#X obj 28 167 *;
#X obj 181 66 f \$1;
#X obj 28 40 ctlin 116;
#X obj 218 322 ctlout 116;
#X obj 68 420 s player-\$1-algo-param-6-set;
#X obj 218 197 r player-\$1-algo-param-6;
#X obj 281 143 r player-\$1-algo-param-6-range;
#X obj 281 167 - 1;
#X connect 0 0 18 0;
#X connect 1 0 6 0;
#X connect 2 0 0 0;
#X connect 2 1 4 0;
#X connect 3 0 5 0;
#X connect 3 1 22 0;
#X connect 4 0 6 1;
#X connect 5 0 6 1;
#X connect 6 0 21 0;
#X connect 7 0 8 0;
#X connect 8 0 3 0;
#X connect 9 0 2 0;
#X connect 10 0 19 0;
#X connect 11 0 9 1;
#X connect 12 0 11 1;
#X connect 13 0 11 0;
#X connect 14 0 12 0;
#X connect 14 1 15 0;
#X connect 14 2 12 0;
#X connect 14 3 15 0;
#X connect 14 4 12 0;
#X connect 14 5 15 0;
#X connect 15 0 11 1;
#X connect 16 0 19 0;
#X connect 17 0 1 0;
#X connect 18 0 7 0;
#X connect 19 0 14 0;
#X connect 20 0 9 0;
#X connect 23 0 17 0;
#X connect 24 0 25 0;
#X connect 25 0 17 1;
#X connect 25 0 18 1;
#X restore 37 217 pd param-6;
#X obj 235 334 f;
#X obj 275 338 + 1;
#X obj 158 333 f;
#X obj 198 337 - 1;
#X obj 140 194 r player-\$1-algo-param-range-dec;
#X obj 184 219 r player-\$1-algo-param-range-inc;
#X obj 266 243 r player-\$1-algo-param-range;
#X obj 260 470 s player-\$1-algo-param-range-set;
#X obj 266 272 log 2;
#X obj 260 370 moses 15;
#X obj 260 394 t b f;
#X msg 260 418 2;
#X obj 260 442 pow;
#X obj 374 341 buttonBangMap player-\$1-algo-param-range-dec 12 \$1
1;
#X obj 374 311 buttonBangMap player-\$1-algo-param-range-inc 10 \$1
1;
#X obj 190 370 moses 3;
#X connect 8 0 9 0;
#X connect 9 0 8 1;
#X connect 9 0 23 0;
#X connect 10 0 11 0;
#X connect 11 0 10 1;
#X connect 11 0 23 0;
#X connect 12 0 10 0;
#X connect 13 0 8 0;
#X connect 14 0 16 0;
#X connect 16 0 8 1;
#X connect 16 0 10 1;
#X connect 17 0 18 0;
#X connect 18 0 19 0;
#X connect 18 1 20 1;
#X connect 19 0 20 0;
#X connect 20 0 15 0;
#X connect 23 1 17 0;
#X restore 413 34 pd param-knobs;
#N canvas 559 236 860 389 bitDepth 0;
#X obj 113 93 spigot;
#X obj 113 157 t b;
#X obj 373 235 f;
#X obj 113 235 f;
#X obj 373 93 spigot;
#X obj 373 157 t b;
#X obj 147 187 r player-\$1-bitDepth;
#X obj 407 187 r player-\$1-bitDepth;
#X obj 302 333 s player-\$1-bitDepth-set;
#X obj 232 297 moses 1;
#X obj 302 297 moses 33;
#X obj 153 239 + 1;
#X obj 413 239 - 1;
#X obj 527 74 ==;
#X msg 599 118 0;
#X obj 527 44 ctlin 0;
#X obj 599 46 f \$1;
#X obj 599 77 select 0 1 2 3 4 5;
#X msg 639 118 127;
#X obj 599 20 r lb1;
#X obj 113 117 select 127;
#X obj 373 117 select 127;
#X obj 113 69 ctlin 32;
#X obj 373 69 ctlin 42;
#X connect 0 0 20 0;
#X connect 1 0 3 0;
#X connect 2 0 12 0;
#X connect 3 0 11 0;
#X connect 4 0 21 0;
#X connect 5 0 2 0;
#X connect 6 0 3 1;
#X connect 7 0 2 1;
#X connect 9 1 10 0;
#X connect 10 0 8 0;
#X connect 11 0 3 1;
#X connect 11 0 9 0;
#X connect 12 0 2 1;
#X connect 12 0 9 0;
#X connect 13 0 4 1;
#X connect 13 0 0 1;
#X connect 14 0 13 1;
#X connect 15 0 13 0;
#X connect 16 0 17 0;
#X connect 17 0 14 0;
#X connect 17 1 18 0;
#X connect 17 2 14 0;
#X connect 17 3 18 0;
#X connect 17 4 14 0;
#X connect 17 5 18 0;
#X connect 18 0 13 1;
#X connect 19 0 16 0;
#X connect 20 0 1 0;
#X connect 21 0 5 0;
#X connect 22 0 0 0;
#X connect 23 0 4 0;
#X restore 413 94 pd bitDepth;
#N canvas 396 317 991 375 faders 0;
#X text 38 61 Leave a gap so that fader 103 can be the "other" player
gain;
#X text 537 290 [fadermap player-\$1-spat-lfo-freq 118 \$1 -3.2 6.35
player-\$1-spat-lfo-freq-set 0 1];
#X obj 41 99 fadermap player-\$1-spat-pos 104 \$1 0 1 player-\$1-spat-pos-set
0;
#X obj 41 139 fadermap player-\$1-spat-width 105 \$1 0 1 player-\$1-spat-width-set
0;
#X obj 41 189 fadermap player-\$1-bitDepth 106 \$1 1 31 player-\$1-bitDepth-set
1;
#X obj 541 249 fadermap player-\$1-rvb-liveness 109 \$1 0 100 player-\$1-rvb-liveness-set
1;
#X obj 541 219 fadermap player-\$1-wet 108 \$1 0 100 player-\$1-wet-set
1;
#X obj 541 189 fadermap player-\$1-dry 107 \$1 0 100 player-\$1-dry-set
1;
#X restore 43 124 pd faders;
#N canvas 551 347 488 228 compute-interp-rand 0;
#X obj 36 126 buttonToggleMap player-\$1-interpolation 24 \$1 0 1 player-\$1-interpolation-set
;
#X obj 36 76 buttonToggleMap player-\$1-compute 23 \$1 0 1 player-\$1-compute-set
;
#X obj 36 46 buttonBangMap player-\$1-algo-randomize-set 9 \$1;
#X restore 413 124 pd compute-interp-rand;
#N canvas 960 227 542 406 preset-loading 0;
#X obj 37 97 buttonBangMap player-\$1-algo-refresh-params-set 55 \$1
;
#X obj 37 37 buttonBangMap player-\$1-algo-save-params-set 35 \$1;
#X obj 37 67 buttonBangMap player-\$1-algo-load-params-set 45 \$1;
#X obj 37 147 buttonToggleMap player-\$1-load-bitDepth 33 \$1 0 1 player-\$1-load-bitDepth-set
;
#X obj 37 297 buttonToggleMap player-\$1-load-params 54 \$1 0 1 player-\$1-load-params-set
;
#X obj 37 247 buttonToggleMap player-\$1-load-tempo 53 \$1 0 1 player-\$1-load-tempo-set
;
#X obj 37 197 buttonToggleMap player-\$1-load-time 43 \$1 0 1 player-\$1-load-time-set
;
#X restore 413 64 pd preset-loading;
#N canvas 733 431 368 415 active-player-sensing 0;
#X obj 48 43 ctlin 0;
#N canvas 1216 525 422 385 RGB 0;
#X obj 32 36 inlet;
#X obj 109 327 outlet;
#X text 49 95 red;
#X text 119 97 green;
#X text 191 97 blue;
#X obj 175 145 t b f;
#X obj 109 203 +;
#X obj 109 228 t b f;
#X obj 109 259 +;
#X obj 109 123 * -256;
#X obj 175 123 * -1;
#X obj 109 290 - 1;
#X obj 32 60 unpack f f f;
#X obj 32 122 * -65536;
#X obj 248 72 i;
#X floatatom 248 96 5 0 0 0 - - -;
#X obj 272 122 i;
#X floatatom 272 146 5 0 0 0 - - -;
#X obj 307 172 i;
#X floatatom 307 196 5 0 0 0 - - -;
#X obj 231 12 hsl 128 15 0 255 0 0 empty empty empty -2 -8 0 10 -262144
-1 -1 0 1;
#X obj 241 32 hsl 128 15 0 255 0 0 empty empty empty -2 -8 0 10 -262144
-1 -1 0 1;
#X obj 251 52 hsl 128 15 0 255 0 0 empty empty empty -2 -8 0 10 -262144
-1 -1 0 1;
#X connect 0 0 12 0;
#X connect 5 0 6 0;
#X connect 5 1 6 1;
#X connect 6 0 7 0;
#X connect 7 0 8 0;
#X connect 7 1 8 1;
#X connect 8 0 11 0;
#X connect 9 0 6 0;
#X connect 10 0 5 0;
#X connect 11 0 1 0;
#X connect 12 0 13 0;
#X connect 12 1 9 0;
#X connect 12 2 10 0;
#X connect 13 0 8 0;
#X connect 14 0 15 0;
#X connect 14 0 13 0;
#X connect 16 0 17 0;
#X connect 16 0 9 0;
#X connect 18 0 19 0;
#X connect 18 0 10 0;
#X connect 20 0 14 0;
#X connect 21 0 16 0;
#X connect 22 0 18 0;
#X restore 48 241 pd RGB;
#X obj 48 265 list prepend color;
#X obj 48 299 list trim;
#X obj 48 97 ==;
#X obj 48 151 select 0 1;
#X msg 48 175 255 255 255;
#X msg 88 205 255 160 160;
#X msg 178 125 0;
#X obj 178 84 select 0 1 2 3 4 5;
#X msg 218 125 127;
#X obj 178 33 r lb1;
#X obj 178 62 f \$1;
#X obj 48 329 s player-\$1-active-canvas-set;
#X obj 48 121 change;
#X connect 0 0 4 0;
#X connect 1 0 2 0;
#X connect 2 0 3 0;
#X connect 3 0 13 0;
#X connect 4 0 14 0;
#X connect 5 0 6 0;
#X connect 5 1 7 0;
#X connect 6 0 1 0;
#X connect 7 0 1 0;
#X connect 8 0 4 1;
#X connect 9 0 8 0;
#X connect 9 1 10 0;
#X connect 9 2 8 0;
#X connect 9 3 10 0;
#X connect 9 4 8 0;
#X connect 9 5 10 0;
#X connect 10 0 4 1;
#X connect 11 0 12 0;
#X connect 12 0 9 0;
#X connect 14 0 5 0;
#X restore 212 124 pd active-player-sensing;
#X restore 20 291 pd MIDI;
#X obj 400 20 algo-param-interface-client \$1;
#X coords 0 -1 1 1 1030 170 2 20 20;
#X restore 15 13 pd panel;
