#N canvas 666 74 1177 360 12;
#X obj 62 15 control-panel-abs \$1;
#N canvas 636 441 1023 330 algo-param-interfaces-subpatch-\$1 0;
#X obj 50 50 algo-param-interface-client \$1 0;
#X coords 0 -1 1 1 650 160 2 50 50;
#X restore 472 15 pd algo-param-interfaces-subpatch-\$1;
#N canvas 1006 264 749 605 netpreps 0;
#N canvas 134 106 186 317 player-\$1-algo-netpreps 0;
#N canvas 1367 156 407 413 algo-0 0;
#X obj 98 48 netprep player-\$1-algo-0-param-0;
#X obj 98 78 netprep player-\$1-algo-0-param-1;
#X obj 98 108 netprep player-\$1-algo-0-param-2;
#X obj 98 138 netprep player-\$1-algo-0-param-3;
#X obj 98 168 netprep player-\$1-algo-0-param-4;
#X obj 98 198 netprep player-\$1-algo-0-param-5;
#X obj 98 228 netprep player-\$1-algo-0-param-6;
#X obj 98 258 netprep player-\$1-algo-0-param-7;
#X obj 98 288 netprep player-\$1-algo-0-param-8;
#X obj 98 318 netprep player-\$1-algo-0-param-9;
#X restore 53 56 pd algo-0;
#N canvas 1367 156 407 413 algo-1 0;
#X obj 98 48 netprep player-\$1-algo-1-param-0;
#X obj 98 78 netprep player-\$1-algo-1-param-1;
#X obj 98 108 netprep player-\$1-algo-1-param-2;
#X obj 98 138 netprep player-\$1-algo-1-param-3;
#X obj 98 168 netprep player-\$1-algo-1-param-4;
#X obj 98 198 netprep player-\$1-algo-1-param-5;
#X obj 98 228 netprep player-\$1-algo-1-param-6;
#X obj 98 258 netprep player-\$1-algo-1-param-7;
#X obj 98 288 netprep player-\$1-algo-1-param-8;
#X obj 98 318 netprep player-\$1-algo-1-param-9;
#X restore 53 86 pd algo-1;
#N canvas 1367 156 407 413 algo-2 0;
#X obj 98 48 netprep player-\$1-algo-2-param-0;
#X obj 98 78 netprep player-\$1-algo-2-param-1;
#X obj 98 108 netprep player-\$1-algo-2-param-2;
#X obj 98 138 netprep player-\$1-algo-2-param-3;
#X obj 98 168 netprep player-\$1-algo-2-param-4;
#X obj 98 198 netprep player-\$1-algo-2-param-5;
#X obj 98 228 netprep player-\$1-algo-2-param-6;
#X obj 98 258 netprep player-\$1-algo-2-param-7;
#X obj 98 288 netprep player-\$1-algo-2-param-8;
#X obj 98 318 netprep player-\$1-algo-2-param-9;
#X restore 53 116 pd algo-2;
#N canvas 1367 156 407 413 algo-3 0;
#X obj 98 48 netprep player-\$1-algo-3-param-0;
#X obj 98 78 netprep player-\$1-algo-3-param-1;
#X obj 98 108 netprep player-\$1-algo-3-param-2;
#X obj 98 138 netprep player-\$1-algo-3-param-3;
#X obj 98 168 netprep player-\$1-algo-3-param-4;
#X obj 98 198 netprep player-\$1-algo-3-param-5;
#X obj 98 228 netprep player-\$1-algo-3-param-6;
#X obj 98 258 netprep player-\$1-algo-3-param-7;
#X obj 98 288 netprep player-\$1-algo-3-param-8;
#X obj 98 318 netprep player-\$1-algo-3-param-9;
#X restore 53 146 pd algo-3;
#N canvas 1367 156 407 413 algo-4 0;
#X obj 98 48 netprep player-\$1-algo-4-param-0;
#X obj 98 78 netprep player-\$1-algo-4-param-1;
#X obj 98 108 netprep player-\$1-algo-4-param-2;
#X obj 98 138 netprep player-\$1-algo-4-param-3;
#X obj 98 168 netprep player-\$1-algo-4-param-4;
#X obj 98 198 netprep player-\$1-algo-4-param-5;
#X obj 98 228 netprep player-\$1-algo-4-param-6;
#X obj 98 258 netprep player-\$1-algo-4-param-7;
#X obj 98 288 netprep player-\$1-algo-4-param-8;
#X obj 98 318 netprep player-\$1-algo-4-param-9;
#X restore 53 176 pd algo-4;
#X restore 463 179 pd player-\$1-algo-netpreps;
#X obj 57 41 netprep-withSet player-\$1-gain;
#X obj 57 75 netprep-withSet player-\$1-spat-pos;
#X obj 57 100 netprep-withSet player-\$1-spat-width;
#X obj 57 165 netprep-withSet player-\$1-algo-select;
#X obj 57 201 netprep-withSet player-\$1-bitDepth;
#X obj 57 235 netprep-withSet player-\$1-dry;
#X obj 57 260 netprep-withSet player-\$1-wet;
#X obj 57 285 netprep-withSet player-\$1-rvb-liveness;
#X obj 57 309 netprep-withSet player-\$1-rvb-xover;
#X obj 57 333 netprep-withSet player-\$1-rvb-damping;
#X obj 57 403 netprep-withSet player-\$1-tempo;
#X obj 57 373 netprep-withSet player-\$1-blockSize;
#X obj 57 463 netprep-withSet player-\$1-tempo-sync;
#X obj 56 494 netprep-withSet player-\$1-time-sync;
#X obj 57 433 netprep-withSet player-\$1-compute;
#X obj 56 524 netprep-withSet player-\$1-interpolation;
#X obj 57 125 netprep-withSet player-\$1-spat-lfo-freq;
#X obj 435 255 netprep player-\$1-spat-lfo-ctrl-color;
#X restore 62 196 pd netpreps;
#N canvas 342 266 640 564 algo-cache-stuff 0;
#X obj 270 172 i;
#X obj 163 113 t f f f b b;
#X msg 28 97 0;
#X obj 28 124 t f f f b;
#X obj 163 37 r player-\$1-algo-select;
#X msg 254 317 \; pd-algo-param-interfaces-subpatch-\$1 clear \;;
#X obj 254 289 f \$1;
#X msg 270 226 \; player-\$2-algo-\$1-save-cache bang \;;
#X obj 270 196 pack f \$1;
#X obj 165 341 pack f \$1;
#X msg 165 372 \; pd-algo-param-interfaces-subpatch-\$2 obj 50 50 algo-param-interface-client
\$2 \$1 \;;
#X obj 75 421 pack f \$1;
#X msg 75 448 \; player-\$2-algo-\$1-load-cache bang \; player-\$2-param-interface-init
bang \;;
#X obj 28 64 r lb1;
#X connect 0 0 8 0;
#X connect 1 0 0 1;
#X connect 1 1 11 0;
#X connect 1 2 9 0;
#X connect 1 3 6 0;
#X connect 1 4 0 0;
#X connect 2 0 3 0;
#X connect 3 0 0 1;
#X connect 3 1 11 0;
#X connect 3 2 9 0;
#X connect 3 3 6 0;
#X connect 4 0 1 0;
#X connect 6 0 5 0;
#X connect 8 0 7 0;
#X connect 9 0 10 0;
#X connect 11 0 12 0;
#X connect 13 0 2 0;
#X restore 62 226 pd algo-cache-stuff;
#N canvas 1069 326 516 566 keyboard-commands 0;
#X obj 105 152 key;
#X text 74 439 =: randomize all \; [ \, ]: load \, save \; 1/q/a: inc/dec/rand
for p0 \; 2/w/s: inc/dec/rand for p1 \; etc \;;
#X obj 182 176 r player-\$1-kbd-control;
#N canvas 327 384 615 322 bitDepth 0;
#X obj 346 168 f;
#X obj 386 172 + 1;
#X obj 86 168 f;
#X obj 126 172 - 1;
#X obj 120 120 r player-\$1-bitDepth;
#X obj 380 120 r player-\$1-bitDepth;
#X obj 275 266 s player-\$1-bitDepth-set;
#X obj 86 48 inlet;
#X obj 86 72 select 44 46;
#X obj 216 72 outlet;
#X obj 205 230 moses 1;
#X obj 275 230 moses 33;
#X connect 0 0 1 0;
#X connect 1 0 0 1;
#X connect 1 0 10 0;
#X connect 2 0 3 0;
#X connect 3 0 2 1;
#X connect 3 0 10 0;
#X connect 4 0 2 1;
#X connect 5 0 0 1;
#X connect 7 0 8 0;
#X connect 8 0 2 0;
#X connect 8 1 0 0;
#X connect 8 2 9 0;
#X connect 10 1 11 0;
#X connect 11 0 6 0;
#X restore 105 208 pd bitDepth;
#N canvas 413 349 615 322 compute 0;
#X obj 86 168 f;
#X obj 86 48 inlet;
#X obj 216 72 outlet;
#X obj 86 72 select 122;
#X obj 86 222 s player-\$1-compute-set;
#X obj 146 120 r player-\$1-compute;
#X obj 146 162 + 1;
#X obj 146 186 % 2;
#X connect 0 0 4 0;
#X connect 0 0 6 0;
#X connect 1 0 3 0;
#X connect 3 0 0 0;
#X connect 3 1 2 0;
#X connect 5 0 6 0;
#X connect 6 0 7 0;
#X connect 7 0 0 1;
#X restore 105 238 pd compute;
#N canvas 343 151 615 322 interp 0;
#X obj 86 48 inlet;
#X obj 216 72 outlet;
#X obj 86 168 f;
#X obj 146 162 + 1;
#X obj 146 186 % 2;
#X obj 86 72 select 120;
#X obj 146 120 r player-\$1-interpolation;
#X obj 86 221 s player-\$1-interpolation-set;
#X connect 0 0 5 0;
#X connect 2 0 3 0;
#X connect 2 0 7 0;
#X connect 3 0 4 0;
#X connect 4 0 2 1;
#X connect 5 0 2 0;
#X connect 5 1 1 0;
#X connect 6 0 3 0;
#X restore 105 268 pd interp;
#N canvas 343 151 615 322 tempoSync 0;
#X obj 86 48 inlet;
#X obj 326 72 outlet;
#X obj 86 72 select 99 118 98 110 109;
#X msg 86 126 0;
#X msg 126 126 1;
#X msg 166 126 2;
#X msg 206 126 3;
#X msg 246 126 4;
#X obj 86 222 s player-\$1-tempo-sync-set;
#X connect 0 0 2 0;
#X connect 2 0 3 0;
#X connect 2 1 4 0;
#X connect 2 2 5 0;
#X connect 2 3 6 0;
#X connect 2 4 7 0;
#X connect 2 5 1 0;
#X connect 3 0 8 0;
#X connect 4 0 8 0;
#X connect 5 0 8 0;
#X connect 6 0 8 0;
#X connect 7 0 8 0;
#X restore 105 298 pd tempoSync;
#N canvas 343 151 615 322 timeSync 0;
#X obj 86 48 inlet;
#X obj 216 72 outlet;
#X obj 86 72 select 32;
#X obj 126 141 r player-\$1-tempo-sync;
#X obj 86 142 f;
#X obj 86 193 s player-\$1-time-sync-set;
#X connect 0 0 2 0;
#X connect 2 0 4 0;
#X connect 2 1 1 0;
#X connect 3 0 4 1;
#X connect 4 0 5 0;
#X restore 105 328 pd timeSync;
#X obj 105 176 spigot;
#X text 90 31 </>: bitDepth inc/dec \; z: compute toggle \; x: interp
toggle \; c \, v \, b \, n \, m: tempoSync to 0-4 \; space: `;
#X connect 0 0 8 0;
#X connect 2 0 8 1;
#X connect 3 0 4 0;
#X connect 4 0 5 0;
#X connect 5 0 6 0;
#X connect 6 0 7 0;
#X connect 8 0 3 0;
#X restore 62 256 pd keyboard-commands;
#N canvas 132 487 1007 371 MIDI 0;
#N canvas 779 160 790 547 keyboard-tempo 0;
#X obj 172 38 notein;
#X obj 348 168 bendin;
#X obj 348 281 select 8192;
#X msg 348 305 0;
#X obj 458 281 moses 8193;
#X obj 528 305 - 8193;
#X obj 458 305 - 8191;
#X obj 458 329 / 8191;
#X obj 528 329 / 8190;
#X obj 96 118 stripnote;
#X obj 429 373 * 1;
#X obj 593 342 / 127;
#X obj 593 390 + 1;
#X obj 429 457 t b f;
#X obj 96 87 spigot;
#X obj 248 62 == \$1;
#X obj 248 32 - 1;
#X text 312 31 << MIDI channels start at 1 \, our player indices start
at 0, f 30;
#X obj 348 235 spigot;
#X obj 424 235 == \$1;
#X obj 424 205 - 1;
#X obj 593 308 spigot;
#X obj 669 308 == \$1;
#X obj 669 278 - 1;
#X obj 593 270 ctlin 1;
#X obj 96 316 +;
#X obj 96 440 s player-\$1-tempo-set;
#X text 553 224 set the range of the tempo bend with the mod wheel
, f 29;
#X obj 96 340 max 1;
#X obj 96 142 mtof;
#X obj 96 166 /;
#X obj 142 146 r lb1;
#X msg 142 170 60;
#X obj 142 194 mtof;
#X text 182 169 << middle C is base tempo \, with tempo octaves at
octaves of C, f 16;
#X obj 96 210 *;
#X obj 96 364 min 240;
#X floatatom 126 388 10 0 0 0 - - -;
#X obj 429 397 spigot;
#X obj 593 366 * 50;
#X obj 140 256 t b;
#X text 493 420 only allow tempo bend during active holding of a note.
this allows release of a note to freeze tempo at bent value, f 27
;
#X msg 140 280 0;
#X text 177 249 upon note-on \, reset bend, f 11;
#X connect 0 0 14 0;
#X connect 0 1 9 1;
#X connect 0 1 38 1;
#X connect 0 2 16 0;
#X connect 1 0 18 0;
#X connect 1 1 20 0;
#X connect 2 0 3 0;
#X connect 2 1 4 0;
#X connect 3 0 10 0;
#X connect 4 0 6 0;
#X connect 4 1 5 0;
#X connect 5 0 8 0;
#X connect 6 0 7 0;
#X connect 7 0 10 0;
#X connect 8 0 10 0;
#X connect 9 0 29 0;
#X connect 9 1 40 0;
#X connect 10 0 38 0;
#X connect 11 0 39 0;
#X connect 12 0 10 1;
#X connect 13 0 25 0;
#X connect 13 1 25 1;
#X connect 14 0 9 0;
#X connect 15 0 14 1;
#X connect 16 0 15 0;
#X connect 18 0 2 0;
#X connect 19 0 18 1;
#X connect 20 0 19 0;
#X connect 21 0 11 0;
#X connect 22 0 21 1;
#X connect 23 0 22 0;
#X connect 24 0 21 0;
#X connect 24 1 23 0;
#X connect 25 0 28 0;
#X connect 28 0 36 0;
#X connect 29 0 30 0;
#X connect 30 0 35 0;
#X connect 31 0 32 0;
#X connect 32 0 33 0;
#X connect 32 0 35 1;
#X connect 33 0 30 1;
#X connect 35 0 25 0;
#X connect 36 0 37 0;
#X connect 36 0 26 0;
#X connect 38 0 13 0;
#X connect 39 0 12 0;
#X connect 40 0 42 0;
#X connect 42 0 25 1;
#X restore 73 21 pd keyboard-tempo;
#X obj 73 131 fadermap player-\$1-gain 102 \$1 40 60 player-\$1-gain-set
0 1;
#N canvas 0 23 450 300 timeSync 0;
#X obj 126 141 r player-\$1-tempo-sync;
#X obj 86 142 f;
#X obj 86 193 s player-\$1-time-sync-set;
#X obj 86 42 ctlin 20;
#X obj 86 66 spigot;
#X obj 86 90 t b;
#X obj 176 66 == \$1;
#X obj 176 36 - 1;
#X connect 0 0 1 1;
#X connect 1 0 2 0;
#X connect 3 0 4 0;
#X connect 3 1 7 0;
#X connect 4 0 5 0;
#X connect 5 0 1 0;
#X connect 6 0 4 1;
#X connect 7 0 6 0;
#X restore 73 81 pd timeSync;
#N canvas 164 247 617 367 algoChoice 0;
#X obj 86 66 spigot;
#X obj 86 90 t b;
#X obj 176 66 == \$1;
#X obj 176 36 - 1;
#X obj 346 168 f;
#X obj 386 172 + 1;
#X obj 86 168 f;
#X obj 126 172 - 1;
#X obj 275 266 s player-\$1-algo-select-set;
#X obj 380 120 r player-\$1-algo-select;
#X obj 120 120 r player-\$1-algo-select;
#X obj 86 42 ctlin 21;
#X obj 346 66 spigot;
#X obj 346 90 t b;
#X obj 436 66 == \$1;
#X obj 436 36 - 1;
#X obj 346 42 ctlin 22;
#X obj 205 230 moses 0;
#X obj 275 230 moses 5;
#X connect 0 0 1 0;
#X connect 1 0 6 0;
#X connect 2 0 0 1;
#X connect 3 0 2 0;
#X connect 4 0 5 0;
#X connect 5 0 4 1;
#X connect 5 0 17 0;
#X connect 6 0 7 0;
#X connect 7 0 6 1;
#X connect 7 0 17 0;
#X connect 9 0 4 1;
#X connect 10 0 6 1;
#X connect 11 0 0 0;
#X connect 11 1 3 0;
#X connect 12 0 13 0;
#X connect 13 0 4 0;
#X connect 14 0 12 1;
#X connect 15 0 14 0;
#X connect 16 0 12 0;
#X connect 16 1 15 0;
#X connect 17 1 18 0;
#X connect 18 0 8 0;
#X restore 243 21 pd algoChoice;
#X obj 73 201 fadermap player-\$1-spat-pos 104 \$1 0 1 player-\$1-spat-pos-set
0 1;
#X obj 73 241 fadermap player-\$1-spat-width 105 \$1 0 1 player-\$1-spat-width-set
0 1;
#X obj 553 181 fadermap player-\$1-dry 107 \$1 0 100 player-\$1-dry-set
1 1;
#X obj 553 211 fadermap player-\$1-wet 108 \$1 0 100 player-\$1-wet-set
1 1;
#X obj 553 241 fadermap player-\$1-rvb-liveness 109 \$1 0 100 player-\$1-rvb-liveness-set
1 1;
#X text 70 164 Leave a gap so that fader 103 can be the "other" player
gain;
#X obj 73 291 fadermap player-\$1-bitDepth 106 \$1 1 31 player-\$1-bitDepth-set
1 1;
#X obj 553 51 buttonToggleMap player-\$1-compute 23 \$1 0 1 player-\$1-compute-set
1;
#X obj 553 101 buttonToggleMap player-\$1-interpolation 24 \$1 0 1
player-\$1-interpolation-set 1;
#X text 522 320 LFO freq range was chosen carefully so that MIDI CC
value of 64 can hit zero exactly \, which disables the LFO, f 58;
#N canvas 1062 422 807 450 last-param-changed 0;
#X obj 76 54 r player-\$1-last-param-changed;
#X msg 39 146 \; player-\$1-algo-\$2-dec-param-\$3-set bang \;;
#X obj 39 116 pack \$1 f f;
#X obj 76 78 unpack f f;
#X obj 76 234 r player-\$1-last-param-changed;
#X obj 39 296 pack \$1 f f;
#X obj 76 258 unpack f f;
#X obj 466 54 r player-\$1-last-param-changed;
#X obj 429 116 pack \$1 f f;
#X obj 466 78 unpack f f;
#X msg 429 146 \; player-\$1-algo-\$2-randomize-param-\$3-set bang
\;;
#X msg 39 326 \; player-\$1-algo-\$2-inc-param-\$3-set bang \;;
#X obj 39 14 r player-\$1-latest-param-dec;
#X obj 39 204 r player-\$1-latest-param-inc;
#X obj 429 14 r player-\$1-latest-param-rand;
#X obj 402 232 buttonBangMap player-\$1-latest-param-dec 16 \$1 1;
#X obj 402 262 buttonBangMap player-\$1-latest-param-inc 17 \$1 1;
#X obj 402 292 buttonBangMap player-\$1-latest-param-rand 18 \$1 1
;
#X connect 0 0 3 0;
#X connect 2 0 1 0;
#X connect 3 0 2 1;
#X connect 3 1 2 2;
#X connect 4 0 6 0;
#X connect 5 0 11 0;
#X connect 6 0 5 1;
#X connect 6 1 5 2;
#X connect 7 0 9 0;
#X connect 8 0 10 0;
#X connect 9 0 8 1;
#X connect 9 1 8 2;
#X connect 12 0 2 0;
#X connect 13 0 5 0;
#X connect 14 0 8 0;
#X restore 242 51 pd last-param-changed;
#N canvas 398 386 834 332 tempoSync 0;
#X obj 37 37 buttonBangMap player-\$1-tempo-sync-0 10 \$1 1;
#X obj 408 285 s player-\$1-tempo-sync-set;
#X obj 408 69 r player-\$1-tempo-sync-0;
#X msg 408 93 0;
#X msg 448 123 1;
#X msg 488 153 2;
#X msg 528 183 3;
#X msg 568 213 4;
#X msg 608 243 5;
#X obj 608 219 r player-\$1-tempo-sync-5;
#X obj 568 189 r player-\$1-tempo-sync-4;
#X obj 528 159 r player-\$1-tempo-sync-3;
#X obj 488 129 r player-\$1-tempo-sync-2;
#X obj 448 99 r player-\$1-tempo-sync-1;
#X obj 37 67 buttonBangMap player-\$1-tempo-sync-1 11 \$1 1;
#X obj 37 97 buttonBangMap player-\$1-tempo-sync-2 12 \$1 1;
#X obj 37 127 buttonBangMap player-\$1-tempo-sync-3 13 \$1 1;
#X obj 37 157 buttonBangMap player-\$1-tempo-sync-4 14 \$1 1;
#X obj 37 187 buttonBangMap player-\$1-tempo-sync-5 15 \$1 1;
#X connect 2 0 3 0;
#X connect 3 0 1 0;
#X connect 4 0 1 0;
#X connect 5 0 1 0;
#X connect 6 0 1 0;
#X connect 7 0 1 0;
#X connect 8 0 1 0;
#X connect 9 0 8 0;
#X connect 10 0 7 0;
#X connect 11 0 6 0;
#X connect 12 0 5 0;
#X connect 13 0 4 0;
#X restore 73 51 pd tempoSync;
#N canvas 940 287 735 568 lfo-freq 0;
#X text 230 34 Have to special-case this because we need logarithmic
scale from 0 to 4 \, but also log scale going from 0 down to -4;
#X obj 45 149 t f b;
#X obj 81 415 t b f;
#X msg 410 370 0;
#X msg 442 371 1;
#X obj 350 400 spigot 1;
#X obj 95 124 ==;
#X obj 45 124 spigot;
#X obj 127 59 r lb1;
#X obj 350 424 ctlout 118;
#X obj 127 106 f \$1;
#X obj 127 137 + 1;
#X obj 142 82 r player-\$1-param-interface-init;
#X obj 45 93 ctlin 118;
#X obj 128 481 s player-\$1-spat-lfo-freq-set;
#X obj 392 146 r player-\$1-spat-lfo-freq;
#X obj 45 189 moses 64;
#X obj 45 213 t b f;
#X msg 45 237 63;
#X obj 45 261 -;
#X obj 45 285 / 63;
#X obj 45 339 * -4;
#X obj 45 315 pow 3;
#X obj 110 223 - 64;
#X obj 110 250 / 63;
#X obj 110 280 pow 3;
#X obj 110 304 * 4;
#X obj 392 173 moses 0;
#X obj 392 198 / -4;
#X obj 392 222 pow 0.333333;
#X obj 392 246 * 63;
#X obj 392 270 swap 63;
#X obj 392 294 -;
#X obj 512 222 pow 0.333333;
#X obj 512 246 * 63;
#X obj 512 198 / 4;
#X obj 512 270 + 64;
#X connect 1 0 16 0;
#X connect 1 1 3 0;
#X connect 2 0 4 0;
#X connect 2 1 14 0;
#X connect 3 0 5 1;
#X connect 4 0 5 1;
#X connect 5 0 9 0;
#X connect 6 0 7 1;
#X connect 7 0 1 0;
#X connect 8 0 10 0;
#X connect 10 0 11 0;
#X connect 11 0 6 1;
#X connect 11 0 9 2;
#X connect 12 0 10 0;
#X connect 13 0 7 0;
#X connect 13 1 6 0;
#X connect 15 0 27 0;
#X connect 16 0 17 0;
#X connect 16 1 23 0;
#X connect 17 0 18 0;
#X connect 17 1 19 1;
#X connect 18 0 19 0;
#X connect 19 0 20 0;
#X connect 20 0 22 0;
#X connect 21 0 2 0;
#X connect 22 0 21 0;
#X connect 23 0 24 0;
#X connect 24 0 25 0;
#X connect 25 0 26 0;
#X connect 26 0 2 0;
#X connect 27 0 28 0;
#X connect 27 1 35 0;
#X connect 28 0 29 0;
#X connect 29 0 30 0;
#X connect 30 0 31 0;
#X connect 31 0 32 0;
#X connect 31 1 32 1;
#X connect 32 0 5 0;
#X connect 33 0 34 0;
#X connect 34 0 36 0;
#X connect 35 0 33 0;
#X connect 36 0 5 0;
#X restore 242 81 pd lfo-freq;
#X text 549 282 [fadermap player-\$1-spat-lfo-freq 118 \$1 -3.2 6.35
player-\$1-spat-lfo-freq-set 0 1];
#X restore 62 286 pd MIDI;
