#N canvas 949 553 786 359 16;
#X declare -path ../src;
#N canvas 167 216 1260 596 init 0;
#X obj 30 52 t b b b b;
#X obj 30 186 s lb4;
#X obj 120 96 s lb1;
#X obj 90 126 s lb2;
#X obj 60 156 s lb3;
#X obj 30 18 r net-connect-init;
#X obj 912 339 r lb1;
#X msg 912 373 \; netprep-init bang \;;
#X obj 43 346 r lb1;
#X obj 43 406 text define midiNoteNames;
#X msg 43 375 read -c ../data/midiNoteNames.txt;
#X obj 766 488 declare -path ../src;
#X obj 285 26 r lb1;
#X obj 285 55 t b b;
#X obj 285 233 s num-algos;
#X msg 345 115 read -c ../data/outputAlgorithms.txt;
#X obj 345 146 text define outputAlgorithms;
#X obj 285 204 text size outputAlgorithms;
#X obj 781 67 r lb1;
#X obj 851 17 r lb1;
#X obj 851 46 f \$1;
#X msg 781 136 \; player-\$1-automation-killall bang \;;
#X msg 851 86 \; player-\$1-automation-killall bang \;;
#X obj 781 96 f \$2;
#X obj 78 471 r lb4;
#X msg 78 500 \; pd dsp 1 \;;
#X text 207 467 DSP must be on for the client in order for the local
[algo~] objects to compute time properly when loading presets., f
38;
#X obj 580 331 r lb2;
#X obj 698 246 loadbang;
#X obj 698 304 print -n;
#N canvas 655 225 616 493 list-preset-file-names 0;
#X obj 48 46 inlet;
#X msg 330 219 clear;
#X obj 330 411 s preset-dropdown-items;
#X obj 185 312 list prepend add;
#X obj 185 353 list trim;
#X obj 128 43 r preset-dropdown-update;
#X obj 48 213 hcs/folder_list;
#X obj 48 172 pdcontrol;
#X obj 48 253 hcs/split_path;
#X msg 48 143 dir 0 ../algo-presets/*;
#X obj 48 92 t b b;
#X connect 0 0 10 0;
#X connect 1 0 2 0;
#X connect 3 0 4 0;
#X connect 4 0 2 0;
#X connect 5 0 10 0;
#X connect 6 0 8 0;
#X connect 7 0 6 0;
#X connect 8 1 3 0;
#X connect 9 0 7 0;
#X connect 10 0 9 0;
#X connect 10 1 1 0;
#X restore 580 376 pd list-preset-file-names;
#X msg 698 275 client-player-abs.pd dependencies: tof hcs;
#N canvas 383 255 508 463 set-default-IP 0;
#X obj 49 39 loadbang;
#X obj 109 366 s master-ip-address-set;
#X obj 109 294 textfile;
#X obj 109 323 symbol;
#X msg 109 246 read ../data/\$1 \, rewind \, bang;
#X obj 109 150 makefilename IPdefault-%d%%d.txt;
#X msg 109 179 set \$1;
#X obj 109 208 makefilename notset;
#X obj 109 119 f \$1;
#X obj 49 119 f \$2;
#X obj 49 68 t b b;
#X connect 0 0 10 0;
#X connect 2 0 3 0;
#X connect 3 0 1 0;
#X connect 4 0 2 0;
#X connect 5 0 6 0;
#X connect 6 0 7 0;
#X connect 7 0 4 0;
#X connect 8 0 5 0;
#X connect 9 0 7 0;
#X connect 10 0 9 0;
#X connect 10 1 8 0;
#X restore 189 302 pd set-default-IP;
#X connect 0 0 1 0;
#X connect 0 1 4 0;
#X connect 0 2 3 0;
#X connect 0 3 2 0;
#X connect 5 0 0 0;
#X connect 6 0 7 0;
#X connect 8 0 10 0;
#X connect 10 0 9 0;
#X connect 12 0 13 0;
#X connect 13 0 17 0;
#X connect 13 1 15 0;
#X connect 15 0 16 0;
#X connect 17 0 14 0;
#X connect 18 0 23 0;
#X connect 19 0 20 0;
#X connect 20 0 22 0;
#X connect 23 0 21 0;
#X connect 24 0 25 0;
#X connect 27 0 30 0;
#X connect 28 0 31 0;
#X connect 31 0 29 0;
#X restore 47 209 pd init;
#N canvas 153 112 883 711 netsend 0;
#X obj 368 342 r netsend-data-hub;
#X msg 351 299 disconnect;
#X obj 306 406 netsend;
#X obj 303 103 cnv 15 159 54 empty netsend-connected-canvas empty 20
12 0 14 -258053 -262144 0;
#X obj 306 139 tgl 15 0 empty empty connect 17 7 0 15 -262144 -1 -1
0 1;
#X obj 306 460 select 0 1;
#X msg 306 576 \; netsend-connected-canvas color -1.67117e+07 0 0 \;
;
#X symbolatom 306 110 15 0 0 0 - master-ip-address-set master-ip-address
;
#X msg 306 264 connect \$1 57120;
#X obj 306 233 symbol;
#X obj 306 199 select 1 0;
#X msg 356 503 \; netsend-connected-canvas color -65281 0 0 \; net-connect-init
bang \;;
#X obj 174 479 loadbang;
#N canvas 869 614 383 396 parsing-and-transmission 0;
#X obj 74 42 inlet;
#X obj 74 118 t l l;
#X obj 186 160 list length;
#X obj 74 227 list split;
#X obj 186 189 - 1;
#X obj 74 256 list trim;
#X obj 74 315 s;
#X obj 74 71 list;
#X connect 0 0 7 0;
#X connect 1 0 3 0;
#X connect 1 1 2 0;
#X connect 2 0 4 0;
#X connect 3 0 5 0;
#X connect 3 1 6 1;
#X connect 4 0 3 1;
#X connect 5 0 6 0;
#X connect 7 0 1 0;
#X restore 461 409 pd parsing-and-transmission;
#X obj 406 233 r master-ip-address;
#X obj 59 385 s connected-ip-address;
#X obj 443 138 bng 15 250 50 0 net-connect-init empty i 5 8 0 10 -262144
-1 -1;
#X connect 0 0 2 0;
#X connect 1 0 2 0;
#X connect 2 0 5 0;
#X connect 2 1 13 0;
#X connect 4 0 10 0;
#X connect 5 0 6 0;
#X connect 5 1 11 0;
#X connect 8 0 2 0;
#X connect 9 0 8 0;
#X connect 9 0 15 0;
#X connect 10 0 9 0;
#X connect 10 1 1 0;
#X connect 12 0 6 0;
#X connect 14 0 9 1;
#X coords 0 -1 1 1 165 60 2 300 100;
#X restore 46 66 pd netsend;
#X obj 216 66 bng 20 250 50 0 empty empty A 6 10 0 14 -204786 -1 -1
;
#X msg 332 168 vis \$1 1;
#X obj 332 134 f \$1;
#X obj 216 96 bng 20 250 50 0 empty empty B 6 10 0 14 -204786 -1 -1
;
#X obj 332 208 clone -s \$1 client-control-interface 2;
#X obj 442 134 f \$2;
#X obj 295 283 clone -s \$1 algo-player-client 2;
#X obj 169 104 tgl 15 0 global-kbd-control global-kbd-control-set k
5 7 0 10 -262144 -1 -1 0 1;
#N canvas 349 328 562 411 global-player-config 0;
#N canvas 212 320 783 506 fadermap-player-A-and-B 0;
#X obj 28 266 / 127;
#X obj 156 281 * 127;
#X obj 28 226 t f b;
#X obj 28 372 t b f;
#X msg 216 290 0;
#X msg 248 291 1;
#X obj 156 320 spigot 1;
#X obj 28 328 + 40;
#X obj 28 297 * 60;
#X obj 156 220 - 40;
#X obj 156 251 / 60;
#X obj 156 344 ctlout 102;
#X obj 438 266 / 127;
#X obj 566 281 * 127;
#X obj 438 226 t f b;
#X obj 438 372 t b f;
#X msg 626 290 0;
#X msg 658 291 1;
#X obj 566 320 spigot 1;
#X obj 438 328 + 40;
#X obj 438 297 * 60;
#X obj 566 220 - 40;
#X obj 566 251 / 60;
#X obj 566 344 ctlout 103;
#X obj 566 189 r player-\$2-gain;
#X obj 483 425 s player-\$2-gain-set;
#X obj 73 425 s player-\$1-gain-set;
#X obj 156 189 r player-\$1-gain;
#X obj 28 120 ctlin 102;
#X obj 438 120 ctlin 103;
#X obj 28 149 spigot 1;
#X obj 438 149 spigot 1;
#X obj 279 51 swap 127;
#X obj 279 84 -;
#X obj 279 18 ctlin 4;
#X text 389 16 CC 4 gates out MIDI messages while depressed so that
physical controls can be moved freely without changing values., f
32;
#X connect 0 0 8 0;
#X connect 1 0 6 0;
#X connect 2 0 0 0;
#X connect 2 1 4 0;
#X connect 3 0 5 0;
#X connect 3 1 26 0;
#X connect 4 0 6 1;
#X connect 5 0 6 1;
#X connect 6 0 11 0;
#X connect 7 0 3 0;
#X connect 8 0 7 0;
#X connect 9 0 10 0;
#X connect 10 0 1 0;
#X connect 12 0 20 0;
#X connect 13 0 18 0;
#X connect 14 0 12 0;
#X connect 14 1 16 0;
#X connect 15 0 17 0;
#X connect 15 1 25 0;
#X connect 16 0 18 1;
#X connect 17 0 18 1;
#X connect 18 0 23 0;
#X connect 19 0 15 0;
#X connect 20 0 19 0;
#X connect 21 0 22 0;
#X connect 22 0 13 0;
#X connect 24 0 21 0;
#X connect 27 0 9 0;
#X connect 28 0 30 0;
#X connect 29 0 31 0;
#X connect 30 0 2 0;
#X connect 31 0 14 0;
#X connect 32 0 33 0;
#X connect 32 1 33 1;
#X connect 33 0 31 1;
#X connect 33 0 30 1;
#X connect 34 0 32 0;
#X restore 38 79 pd fadermap-player-A-and-B;
#N canvas 108 191 1009 372 muting 0;
#X obj 28 218 f;
#X obj 106 209 + 1;
#X obj 106 230 % 2;
#X obj 28 127 t b b;
#X msg 159 153 0;
#X msg 199 153 1;
#X obj 106 180 spigot 1;
#X obj 28 260 t b f;
#X obj 28 83 select 127;
#X obj 28 41 ctlin 11;
#X obj 308 218 f;
#X obj 386 209 + 1;
#X obj 386 230 % 2;
#X obj 308 127 t b b;
#X msg 439 153 0;
#X msg 479 153 1;
#X obj 386 180 spigot 1;
#X obj 308 260 t b f;
#X obj 308 83 select 127;
#X obj 308 41 ctlin 14;
#X obj 106 119 r player-\$1-mute;
#X obj 73 290 s player-\$1-mute-set;
#X obj 353 290 s player-\$2-mute-set;
#X obj 386 119 r player-\$2-mute;
#X obj 597 61 key;
#X obj 597 105 spigot;
#X obj 674 76 ||;
#X obj 714 107 t b f;
#X obj 597 135 select 110 109;
#X obj 674 45 r player-\$1-kbd-control;
#X obj 714 76 r player-\$2-kbd-control;
#X connect 0 0 1 0;
#X connect 0 0 7 0;
#X connect 1 0 2 0;
#X connect 2 0 0 1;
#X connect 3 0 0 0;
#X connect 3 1 4 0;
#X connect 4 0 6 1;
#X connect 5 0 6 1;
#X connect 6 0 1 0;
#X connect 7 0 5 0;
#X connect 7 1 21 0;
#X connect 8 0 3 0;
#X connect 9 0 8 0;
#X connect 10 0 11 0;
#X connect 10 0 17 0;
#X connect 11 0 12 0;
#X connect 12 0 10 1;
#X connect 13 0 10 0;
#X connect 13 1 14 0;
#X connect 14 0 16 1;
#X connect 15 0 16 1;
#X connect 16 0 11 0;
#X connect 17 0 15 0;
#X connect 17 1 22 0;
#X connect 18 0 13 0;
#X connect 19 0 18 0;
#X connect 20 0 6 0;
#X connect 23 0 16 0;
#X connect 24 0 25 0;
#X connect 25 0 28 0;
#X connect 26 0 25 1;
#X connect 27 0 26 0;
#X connect 27 1 26 1;
#X connect 28 0 3 0;
#X connect 28 1 13 0;
#X connect 29 0 26 0;
#X connect 30 0 27 0;
#X restore 38 109 pd muting;
#X text 149 123 Map gain faders and muting globally (outside of abstractions)
so that 102/103 will always be accessible on controller as player A/B
gains and mutes, f 33;
#N canvas 451 89 650 368 gain-automation 0;
#X obj 49 90 t b;
#X obj 49 124 f \$1;
#X obj 49 235 symbol;
#X obj 49 299 s player-\$1-last-MIDI-trig-send-name;
#X obj 49 26 ctlin 102;
#X obj 379 90 t b;
#X obj 379 26 ctlin 103;
#X obj 379 124 f \$2;
#X obj 69 269 s player-\$2-last-MIDI-trig-send-name;
#X msg 49 164 player-\$1-gain-set;
#X msg 379 164 player-\$1-gain-set;
#X connect 0 0 1 0;
#X connect 1 0 9 0;
#X connect 2 0 3 0;
#X connect 2 0 8 0;
#X connect 4 0 0 0;
#X connect 5 0 7 0;
#X connect 6 0 5 0;
#X connect 7 0 10 0;
#X connect 9 0 2 0;
#X connect 10 0 2 0;
#X restore 38 279 pd gain-automation;
#N canvas 569 505 650 368 muting-automation 0;
#X obj 49 90 t b;
#X obj 49 235 symbol;
#X obj 379 90 t b;
#X obj 49 26 ctlin 11;
#X obj 379 26 ctlin 14;
#X obj 49 299 s player-\$1-last-MIDI-trig-send-name;
#X obj 69 269 s player-\$2-last-MIDI-trig-send-name;
#X msg 49 164 player-\$1-mute-set;
#X msg 379 164 player-\$1-mute-set;
#X obj 49 119 f \$1;
#X obj 379 119 f \$2;
#X connect 0 0 9 0;
#X connect 1 0 5 0;
#X connect 1 0 6 0;
#X connect 2 0 10 0;
#X connect 3 0 0 0;
#X connect 4 0 2 0;
#X connect 7 0 1 0;
#X connect 8 0 1 0;
#X connect 9 0 7 0;
#X connect 10 0 8 0;
#X restore 38 319 pd muting-automation;
#N canvas 343 151 450 334 cpu-kbd-player-ab-control-toggle 0;
#X obj 36 146 select 32;
#X obj 36 42 key;
#X obj 36 116 spigot;
#X obj 113 77 ||;
#X obj 153 98 t b f;
#X obj 36 267 s player-\$1-cpu-kbd-player-ab-toggle;
#X obj 56 227 s player-\$2-cpu-kbd-player-ab-toggle;
#X obj 113 26 r player-\$1-kbd-control;
#X obj 153 67 r player-\$2-kbd-control;
#X connect 0 0 5 0;
#X connect 0 0 6 0;
#X connect 1 0 2 0;
#X connect 2 0 0 0;
#X connect 3 0 2 1;
#X connect 4 0 3 0;
#X connect 4 1 3 1;
#X connect 7 0 3 0;
#X connect 8 0 4 0;
#X restore 38 39 pd cpu-kbd-player-ab-control-toggle;
#X restore 391 50 pd global-player-config;
#N canvas 816 290 450 300 interface 0;
#X obj 74 81 r global-kbd-control;
#X msg 74 150 \; player-\$2-kbd-control-set \$1 \; player-\$3-kbd-control-set
\$1 \;;
#X obj 74 110 pack f \$1 \$2;
#X connect 0 0 2 0;
#X connect 2 0 1 0;
#X restore 47 239 pd interface;
#X obj 216 133 bng 15 250 50 0 load-scene load-scene-set l 4 7 0 12
-204786 -1 -1;
#X obj 196 133 bng 15 250 50 0 save-scene save-scene-set s 4 7 0 12
-261234 -1 -1;
#N canvas 361 286 1099 599 scenes 0;
#X obj 122 157 pdcontrol;
#X obj 122 84 r lb1;
#X obj 122 192 makefilename %s/scenes;
#X obj 54 51 r save-scene;
#X obj 54 225 symbol;
#X obj 54 289 savepanel;
#X obj 54 492 textfile;
#X obj 702 157 pdcontrol;
#X obj 702 84 r lb1;
#X obj 702 192 makefilename %s/scenes;
#X obj 634 225 symbol;
#X obj 634 51 r load-scene;
#X obj 634 288 openpanel;
#X obj 194 381 s player-\$2-save-scene;
#X obj 174 411 s player-\$1-save-scene;
#X text 181 491 write a dummy text file to serve as the handle for
the scene, f 34;
#X msg 54 449 add add-notes-about-your-scene-here \, write \$1;
#X msg 122 123 dir 0 ../;
#X msg 702 123 dir 0 ../;
#X obj 174 230 split_path;
#X obj 271 266 makefilename %%s/scene-data/%s;
#X msg 271 295 set \$1;
#X obj 174 335 makefilename notset;
#X obj 634 340 split_path;
#X obj 731 376 makefilename %%s/scene-data/%s;
#X msg 731 405 set \$1;
#X obj 634 445 makefilename notset;
#X obj 634 527 s player-\$1-load-scene;
#X obj 654 497 s player-\$2-load-scene;
#X connect 0 0 2 0;
#X connect 1 0 17 0;
#X connect 2 0 4 1;
#X connect 3 0 4 0;
#X connect 4 0 5 0;
#X connect 5 0 19 0;
#X connect 5 0 16 0;
#X connect 7 0 9 0;
#X connect 8 0 18 0;
#X connect 9 0 10 1;
#X connect 10 0 12 0;
#X connect 11 0 10 0;
#X connect 12 0 23 0;
#X connect 16 0 6 0;
#X connect 17 0 0 0;
#X connect 18 0 7 0;
#X connect 19 0 22 0;
#X connect 19 1 20 0;
#X connect 20 0 21 0;
#X connect 21 0 22 0;
#X connect 22 0 13 0;
#X connect 22 0 14 0;
#X connect 23 0 26 0;
#X connect 23 1 24 0;
#X connect 24 0 25 0;
#X connect 25 0 26 0;
#X connect 26 0 27 0;
#X connect 26 0 28 0;
#X restore 47 269 pd scenes;
#X text 122 129 scenes;
#X connect 2 0 4 0;
#X connect 3 0 6 0;
#X connect 4 0 3 0;
#X connect 5 0 7 0;
#X connect 7 0 3 0;
#X coords 0 -1 1 1 230 120 1 35 35;
