#N canvas 759 425 786 286 16;
#X declare -path ../src;
#N canvas 206 342 1023 522 init 0;
#X obj 30 52 t b b b b;
#X obj 30 186 s lb4;
#X obj 120 96 s lb1;
#X obj 90 126 s lb2;
#X obj 60 156 s lb3;
#X obj 30 18 r net-connect-init;
#X obj 693 327 r lb1;
#X msg 693 361 \; netprep-init bang \;;
#N canvas 212 320 783 400 fadermap-player-A-and-B 0;
#X obj 28 136 / 127;
#X obj 156 151 * 127;
#X obj 28 96 t f b;
#X obj 28 242 t b f;
#X msg 216 160 0;
#X msg 248 161 1;
#X obj 156 190 spigot 1;
#X obj 28 40 ctlin 102;
#X obj 28 198 + 40;
#X obj 28 167 * 60;
#X obj 156 90 - 40;
#X obj 156 121 / 60;
#X obj 156 214 ctlout 102;
#X obj 438 136 / 127;
#X obj 566 151 * 127;
#X obj 438 96 t f b;
#X obj 438 242 t b f;
#X msg 626 160 0;
#X msg 658 161 1;
#X obj 566 190 spigot 1;
#X obj 438 198 + 40;
#X obj 438 167 * 60;
#X obj 566 90 - 40;
#X obj 566 121 / 60;
#X obj 438 40 ctlin 103;
#X obj 566 214 ctlout 103;
#X obj 566 59 r player-\$2-gain;
#X obj 483 295 s player-\$2-gain-set;
#X obj 73 295 s player-\$1-gain-set;
#X obj 156 59 r player-\$1-gain;
#X connect 0 0 9 0;
#X connect 1 0 6 0;
#X connect 2 0 0 0;
#X connect 2 1 4 0;
#X connect 3 0 5 0;
#X connect 3 1 28 0;
#X connect 4 0 6 1;
#X connect 5 0 6 1;
#X connect 6 0 12 0;
#X connect 7 0 2 0;
#X connect 8 0 3 0;
#X connect 9 0 8 0;
#X connect 10 0 11 0;
#X connect 11 0 1 0;
#X connect 13 0 21 0;
#X connect 14 0 19 0;
#X connect 15 0 13 0;
#X connect 15 1 17 0;
#X connect 16 0 18 0;
#X connect 16 1 27 0;
#X connect 17 0 19 1;
#X connect 18 0 19 1;
#X connect 19 0 25 0;
#X connect 20 0 16 0;
#X connect 21 0 20 0;
#X connect 22 0 23 0;
#X connect 23 0 14 0;
#X connect 24 0 15 0;
#X connect 26 0 22 0;
#X connect 29 0 10 0;
#X restore 169 332 pd fadermap-player-A-and-B;
#N canvas 1159 278 606 364 muting 0;
#X obj 28 218 f;
#X obj 106 209 + 1;
#X obj 106 230 % 2;
#X obj 28 127 t b b;
#X msg 159 153 0;
#X msg 199 153 1;
#X obj 106 180 spigot 1;
#X obj 28 260 t b f;
#X obj 28 83 select 127;
#X obj 28 41 ctlin 11;
#X obj 308 218 f;
#X obj 386 209 + 1;
#X obj 386 230 % 2;
#X obj 308 127 t b b;
#X msg 439 153 0;
#X msg 479 153 1;
#X obj 386 180 spigot 1;
#X obj 308 260 t b f;
#X obj 308 83 select 127;
#X obj 308 41 ctlin 14;
#X obj 106 119 r player-\$1-mute;
#X obj 73 290 s player-\$1-mute-set;
#X obj 353 290 s player-\$2-mute-set;
#X obj 386 119 r player-\$2-mute;
#X connect 0 0 1 0;
#X connect 0 0 7 0;
#X connect 1 0 2 0;
#X connect 2 0 0 1;
#X connect 3 0 0 0;
#X connect 3 1 4 0;
#X connect 4 0 6 1;
#X connect 5 0 6 1;
#X connect 6 0 1 0;
#X connect 7 0 5 0;
#X connect 7 1 21 0;
#X connect 8 0 3 0;
#X connect 9 0 8 0;
#X connect 10 0 11 0;
#X connect 10 0 17 0;
#X connect 11 0 12 0;
#X connect 12 0 10 1;
#X connect 13 0 10 0;
#X connect 13 1 14 0;
#X connect 14 0 16 1;
#X connect 15 0 16 1;
#X connect 16 0 11 0;
#X connect 17 0 15 0;
#X connect 17 1 22 0;
#X connect 18 0 13 0;
#X connect 19 0 18 0;
#X connect 20 0 6 0;
#X connect 23 0 16 0;
#X restore 169 362 pd muting;
#X text 280 376 Map gain faders and muting globally (outside of abstractions)
so that 102/103 will always be accessible on controller as player A/B
gains and mutes, f 33;
#X obj 281 48 r lb1;
#X obj 281 108 text define midiNoteNames;
#X obj 709 46 r lb1;
#X msg 281 77 read -c ../data/midiNoteNames.txt;
#X msg 709 75 getAlgoSettings;
#X obj 709 104 OUTPUT~;
#X obj 837 246 s num-algos;
#X floatatom 866 210 5 0 0 0 - - -;
#X obj 291 258 declare -path ../src;
#X obj 774 170 list split 16;
#X connect 0 0 1 0;
#X connect 0 1 4 0;
#X connect 0 2 3 0;
#X connect 0 3 2 0;
#X connect 5 0 0 0;
#X connect 6 0 7 0;
#X connect 11 0 14 0;
#X connect 13 0 15 0;
#X connect 14 0 12 0;
#X connect 15 0 16 0;
#X connect 16 3 20 0;
#X connect 20 1 17 0;
#X connect 20 1 18 0;
#X restore 47 161 pd init;
#N canvas 160 112 876 711 netsend 0;
#X obj 368 342 r netsend-data-hub;
#X msg 351 299 disconnect;
#X obj 306 406 netsend;
#X obj 303 103 cnv 15 159 54 empty netsend-connected-canvas empty 20
12 0 14 -258053 -262144 0;
#X obj 306 139 tgl 15 0 empty empty connect 17 7 0 15 -262144 -1 -1
0 1;
#X obj 306 460 select 0 1;
#X msg 306 576 \; netsend-connected-canvas color -1.67117e+07 0 0 \;
;
#X symbolatom 306 110 15 0 0 0 - - -;
#X msg 306 264 connect \$1 57120;
#X obj 306 233 symbol;
#X msg 213 49 symbol 127.0.0.1;
#X obj 306 199 select 1 0;
#X msg 356 503 \; netsend-connected-canvas color -65281 0 0 \; net-connect-init
bang \;;
#X obj 213 15 loadbang;
#X obj 174 479 loadbang;
#N canvas 533 211 759 362 parsing-and-transmission 0;
#X obj 221 32 inlet;
#X obj 401 179 unpack f s;
#X obj 221 87 list split 3;
#X obj 221 151 list split 2;
#X obj 221 180 list trim;
#X obj 324 280 s;
#X text 50 132 This is for set <float> <sendsymbol> messages, f 13
;
#X text 563 155 This is for <float> <sendsymbol> messages, f 13;
#X connect 0 0 2 0;
#X connect 1 0 5 0;
#X connect 1 1 5 1;
#X connect 2 0 3 0;
#X connect 2 2 1 0;
#X connect 3 0 4 0;
#X connect 3 1 5 1;
#X connect 4 0 5 0;
#X restore 461 409 pd parsing-and-transmission;
#X connect 0 0 2 0;
#X connect 1 0 2 0;
#X connect 2 0 5 0;
#X connect 2 1 15 0;
#X connect 4 0 11 0;
#X connect 5 0 6 0;
#X connect 5 1 12 0;
#X connect 7 0 9 1;
#X connect 8 0 2 0;
#X connect 9 0 8 0;
#X connect 10 0 7 0;
#X connect 11 0 9 0;
#X connect 11 1 1 0;
#X connect 13 0 10 0;
#X connect 14 0 6 0;
#X coords 0 -1 1 1 165 60 2 300 100;
#X restore 46 66 pd netsend;
#X obj 216 66 bng 20 250 50 0 empty empty A 6 10 0 14 -204786 -1 -1
;
#X msg 240 191 vis \$1 1;
#X obj 240 157 f \$1;
#X obj 216 96 bng 20 250 50 0 empty empty B 6 10 0 14 -204786 -1 -1
;
#X obj 240 231 clone -s \$1 client-control-interface 2;
#X obj 350 157 f \$2;
#X connect 2 0 4 0;
#X connect 3 0 6 0;
#X connect 4 0 3 0;
#X connect 5 0 7 0;
#X connect 7 0 3 0;
#X coords 0 -1 1 1 230 100 1 35 35;
