#N canvas 339 268 1031 227 12;
#X obj 978 189 inlet;
#N canvas 249 280 1222 370 panel 0;
#X obj 20 20 control-panel-abs \$1;
#N canvas 266 248 768 641 netpreps 0;
#N canvas 852 206 436 431 player-\$1-algo-netpreps 0;
#X obj 98 48 netprep player-\$1-algo-param-0;
#X obj 98 78 netprep player-\$1-algo-param-1;
#X obj 98 108 netprep player-\$1-algo-param-2;
#X obj 98 138 netprep player-\$1-algo-param-3;
#X obj 98 168 netprep player-\$1-algo-param-4;
#X obj 98 198 netprep player-\$1-algo-param-5;
#X obj 98 228 netprep player-\$1-algo-param-6;
#X obj 98 258 netprep player-\$1-algo-param-7;
#X obj 98 288 netprep player-\$1-algo-param-8;
#X obj 98 318 netprep player-\$1-algo-param-9;
#X restore 435 25 pd player-\$1-algo-netpreps;
#X obj 435 65 netprep player-\$1-spat-lfo-ctrl-color;
#X obj 56 493 netprep player-\$1-interpolation 1;
#X obj 57 553 netprep player-\$1-time-sync 1;
#X obj 57 523 netprep player-\$1-tempo-sync 1;
#X obj 57 463 netprep player-\$1-compute 1;
#X obj 435 295 netprep player-\$1-tempo 1;
#X obj 435 243 netprep player-\$1-rvb-damping 1;
#X obj 435 219 netprep player-\$1-rvb-xover 1;
#X obj 435 195 netprep player-\$1-rvb-liveness 1;
#X obj 57 231 netprep player-\$1-bit-depth 1;
#X obj 57 165 netprep player-\$1-algo-select 1;
#X obj 57 125 netprep player-\$1-spat-lfo-freq 1;
#X obj 57 100 netprep player-\$1-spat-width 1;
#X obj 57 75 netprep player-\$1-spat-pos 1;
#X obj 57 51 netprep player-\$1-mute 1;
#X obj 57 26 netprep player-\$1-gain 1;
#X obj 435 445 netprep player-\$1-asr-env;
#X obj 435 385 netprep player-\$1-asr-kbd 1;
#X obj 57 273 netprep player-\$1-set-time-random;
#X obj 57 329 netprep player-\$1-loop-point-start 1;
#X obj 57 355 netprep player-\$1-loop-point-end 1;
#X obj 57 190 netprep player-\$1-algo-direct 1;
#X obj 57 403 netprep player-\$1-time-reverse 1;
#X obj 435 415 netprep player-\$1-asr-time 1;
#X obj 57 303 netprep player-\$1-time-index 1;
#X obj 57 583 netprep player-\$1-clone 1;
#X obj 435 325 netprep player-\$1-pitch-bend-final;
#X obj 435 171 netprep player-\$1-dry-wet 1;
#X obj 435 123 netprep player-\$1-dry 1;
#X obj 435 147 netprep player-\$1-wet 1;
#X obj 57 379 netprep player-\$1-loop-record 1;
#X obj 435 95 netprep player-\$1-spat-lfo-type 1;
#X obj 435 501 netprep player-\$1-load-params;
#X obj 435 525 netprep player-\$1-load-bit-depth;
#X obj 435 549 netprep player-\$1-load-tempo;
#X obj 435 573 netprep player-\$1-load-time;
#X obj 435 597 netprep player-\$1-load-interp;
#X restore 20 241 pd netpreps;
#N canvas 583 89 566 553 keyboard-commands 0;
#X obj 54 49 key;
#X obj 131 73 r player-\$1-kbd-control;
#X obj 54 73 spigot;
#X obj 54 143 spigot;
#X obj 131 143 active-player-abs \$1;
#X obj 131 113 r lb1;
#N canvas 343 151 615 322 clone 0;
#X obj 86 48 inlet;
#X obj 326 72 outlet;
#X msg 86 126 0;
#X msg 126 126 1;
#X msg 166 126 2;
#X msg 206 126 3;
#X msg 246 126 4;
#X msg 286 126 5;
#X obj 86 222 s player-\$1-clone-set;
#X obj 86 72 select 49 50 51 52 53 54;
#X connect 0 0 9 0;
#X connect 2 0 8 0;
#X connect 3 0 8 0;
#X connect 4 0 8 0;
#X connect 5 0 8 0;
#X connect 6 0 8 0;
#X connect 7 0 8 0;
#X connect 9 0 2 0;
#X connect 9 1 3 0;
#X connect 9 2 4 0;
#X connect 9 3 5 0;
#X connect 9 4 6 0;
#X connect 9 5 7 0;
#X connect 9 6 1 0;
#X restore 54 433 pd clone;
#N canvas 343 151 615 322 load-save 0;
#X obj 86 48 inlet;
#X obj 326 72 outlet;
#X obj 136 192 s player-\$1-algo-save-params-set;
#X obj 86 222 s player-\$1-algo-load-params-set;
#X obj 86 72 select 91 93 92;
#X obj 176 162 s player-\$1-algo-refresh-params-set;
#X text 115 108 save was disabled as of Pd as of 0.50-2 because load
crashed Pd if triggered after a save sequence. Clicking the buttons
didn't cause crash. This seems to be fixed as of Pd 0.51-2.;
#X connect 0 0 4 0;
#X connect 4 0 3 0;
#X connect 4 1 2 0;
#X connect 4 2 5 0;
#X connect 4 3 1 0;
#X restore 54 343 pd load-save;
#N canvas 605 107 589 514 algo-inc-dec-rand 0;
#X obj 86 48 inlet;
#X obj 326 72 outlet;
#X obj 305 343 f;
#X obj 345 347 + 1;
#X obj 45 343 f;
#X obj 85 347 - 1;
#X obj 234 441 s player-\$1-algo-select-set;
#X obj 339 265 r player-\$1-algo-select;
#X obj 79 265 r player-\$1-algo-select;
#X obj 164 405 moses 0;
#X obj 314 405 r num-algos;
#X obj 234 405 moses;
#X obj 86 72 select 44 46 47;
#X obj 339 230 s player-\$1-rand-algo-set;
#X obj 129 288 r num-algos;
#X obj 79 308 max 0;
#X obj 79 288 moses;
#X obj 389 288 r num-algos;
#X obj 339 308 max 0;
#X obj 339 288 moses;
#X connect 0 0 12 0;
#X connect 2 0 3 0;
#X connect 3 0 2 1;
#X connect 3 0 9 0;
#X connect 4 0 5 0;
#X connect 5 0 4 1;
#X connect 5 0 9 0;
#X connect 7 0 19 0;
#X connect 8 0 16 0;
#X connect 9 1 11 0;
#X connect 10 0 11 1;
#X connect 11 0 6 0;
#X connect 12 0 4 0;
#X connect 12 1 2 0;
#X connect 12 2 13 0;
#X connect 12 3 1 0;
#X connect 14 0 16 1;
#X connect 15 0 4 1;
#X connect 16 0 15 0;
#X connect 17 0 19 1;
#X connect 18 0 2 1;
#X connect 19 0 18 0;
#X restore 54 193 pd algo-inc-dec-rand;
#N canvas 327 384 615 322 bit-depth 0;
#X obj 346 168 f;
#X obj 386 172 + 1;
#X obj 86 168 f;
#X obj 126 172 - 1;
#X obj 120 120 r player-\$1-bit-depth;
#X obj 380 120 r player-\$1-bit-depth;
#X obj 275 266 s player-\$1-bit-depth-set;
#X obj 86 48 inlet;
#X obj 216 72 outlet;
#X obj 205 230 moses 1;
#X obj 275 230 moses 33;
#X obj 86 72 select 45 61;
#X connect 0 0 1 0;
#X connect 1 0 0 1;
#X connect 1 0 9 0;
#X connect 2 0 3 0;
#X connect 3 0 2 1;
#X connect 3 0 9 0;
#X connect 4 0 2 1;
#X connect 5 0 0 1;
#X connect 7 0 11 0;
#X connect 9 1 10 0;
#X connect 10 0 6 0;
#X connect 11 0 2 0;
#X connect 11 1 0 0;
#X connect 11 2 8 0;
#X restore 54 223 pd bit-depth;
#N canvas 343 151 629 607 active-param 0;
#X obj 86 48 inlet;
#X obj 416 72 outlet;
#X obj 194 424 r player-\$1-last-param-changed;
#X obj 163 465 f;
#X obj 203 469 + 1;
#X obj 86 464 f;
#X obj 126 468 - 1;
#X obj 118 501 moses 0;
#X obj 188 531 s player-\$1-last-param-changed;
#X obj 188 501 moses 10;
#X obj 263 279 s player-\$1-latest-param-rand;
#X obj 194 359 s player-\$1-latest-param-dec;
#X obj 224 319 s player-\$1-latest-param-inc;
#X obj 300 247 s player-\$1-algo-param-range-dec;
#X obj 344 212 s player-\$1-algo-param-range-inc;
#X obj 374 172 s player-\$1-algo-randomize-set;
#X obj 86 72 select 8 9 113 119 101 97 115 96;
#X connect 0 0 16 0;
#X connect 2 0 3 1;
#X connect 2 0 5 1;
#X connect 3 0 4 0;
#X connect 4 0 3 1;
#X connect 4 0 7 0;
#X connect 5 0 6 0;
#X connect 6 0 5 1;
#X connect 6 0 7 0;
#X connect 7 1 9 0;
#X connect 9 0 8 0;
#X connect 16 0 5 0;
#X connect 16 1 3 0;
#X connect 16 2 11 0;
#X connect 16 3 12 0;
#X connect 16 4 10 0;
#X connect 16 5 13 0;
#X connect 16 6 14 0;
#X connect 16 7 15 0;
#X connect 16 8 1 0;
#X restore 54 283 pd active-param;
#N canvas 343 151 615 322 pitch-bend-zero 0;
#X obj 86 48 inlet;
#X obj 326 72 outlet;
#X obj 86 72 select 10;
#X obj 86 222 s player-\$1-pitch-bend-zero-set;
#X connect 0 0 2 0;
#X connect 2 0 3 0;
#X connect 2 1 1 0;
#X restore 54 313 pd pitch-bend-zero;
#N canvas 343 151 699 400 preset-load-gates 0;
#X obj 46 28 inlet;
#X obj 286 52 outlet;
#X obj 46 52 select 55 56 57 48;
#X obj 46 284 f;
#X obj 106 278 + 1;
#X obj 106 302 % 2;
#X obj 106 254 r player-\$1-load-bit-depth;
#X obj 46 327 s player-\$1-load-bit-depth-set;
#X obj 86 174 f;
#X obj 146 168 + 1;
#X obj 146 192 % 2;
#X obj 386 284 f;
#X obj 446 278 + 1;
#X obj 446 302 % 2;
#X obj 426 174 f;
#X obj 486 168 + 1;
#X obj 486 192 % 2;
#X obj 86 217 s player-\$1-load-time-set;
#X obj 146 144 r player-\$1-load-time;
#X obj 446 254 r player-\$1-load-tempo;
#X obj 386 327 s player-\$1-load-tempo-set;
#X obj 486 144 r player-\$1-load-params;
#X obj 426 217 s player-\$1-load-params-set;
#X connect 0 0 2 0;
#X connect 2 0 3 0;
#X connect 2 1 8 0;
#X connect 2 2 11 0;
#X connect 2 3 14 0;
#X connect 2 4 1 0;
#X connect 3 0 4 0;
#X connect 3 0 7 0;
#X connect 4 0 5 0;
#X connect 5 0 3 1;
#X connect 6 0 4 0;
#X connect 8 0 9 0;
#X connect 8 0 17 0;
#X connect 9 0 10 0;
#X connect 10 0 8 1;
#X connect 11 0 12 0;
#X connect 11 0 20 0;
#X connect 12 0 13 0;
#X connect 13 0 11 1;
#X connect 14 0 15 0;
#X connect 14 0 22 0;
#X connect 15 0 16 0;
#X connect 16 0 14 1;
#X connect 18 0 9 0;
#X connect 19 0 12 0;
#X connect 21 0 15 0;
#X restore 54 373 pd preset-load-gates;
#N canvas 343 151 449 322 tempo-sync 0;
#X obj 86 48 inlet;
#X obj 326 72 outlet;
#X msg 86 126 0;
#X msg 126 126 1;
#X msg 166 126 2;
#X msg 206 126 3;
#X msg 246 126 4;
#X msg 286 126 5;
#X obj 86 222 s player-\$1-tempo-sync-set;
#X obj 86 72 select 100 102 103 104 106 107;
#X connect 0 0 9 0;
#X connect 2 0 8 0;
#X connect 3 0 8 0;
#X connect 4 0 8 0;
#X connect 5 0 8 0;
#X connect 6 0 8 0;
#X connect 7 0 8 0;
#X connect 9 0 2 0;
#X connect 9 1 3 0;
#X connect 9 2 4 0;
#X connect 9 3 5 0;
#X connect 9 4 6 0;
#X connect 9 5 7 0;
#X connect 9 6 1 0;
#X restore 54 463 pd tempo-sync;
#N canvas 343 151 1094 442 time 0;
#X obj 86 48 inlet;
#X obj 326 72 outlet;
#X obj 126 324 r player-\$1-tempo-sync;
#X obj 86 325 f;
#X obj 86 376 s player-\$1-time-sync-set;
#X obj 523 237 + 1;
#X obj 523 261 % 2;
#X obj 463 296 s player-\$1-time-reverse-set;
#X obj 523 195 r player-\$1-time-reverse;
#X obj 146 276 s player-\$1-algo-time-rand-set;
#X obj 176 246 s player-\$1-algo-time-zero-set;
#X obj 206 216 s player-\$1-loop-reset-set;
#X obj 86 72 select 98 120 122 99 116 118;
#X obj 813 237 + 1;
#X obj 813 261 % 2;
#X obj 753 296 s player-\$1-loop-record-set;
#X obj 813 195 r player-\$1-loop-record;
#X obj 753 243 f 1;
#X obj 463 243 f 1;
#X connect 0 0 12 0;
#X connect 2 0 3 1;
#X connect 3 0 4 0;
#X connect 5 0 6 0;
#X connect 6 0 18 1;
#X connect 8 0 5 0;
#X connect 12 0 3 0;
#X connect 12 1 9 0;
#X connect 12 2 10 0;
#X connect 12 3 11 0;
#X connect 12 4 18 0;
#X connect 12 5 17 0;
#X connect 12 6 1 0;
#X connect 13 0 14 0;
#X connect 14 0 17 1;
#X connect 16 0 13 0;
#X connect 17 0 13 0;
#X connect 17 0 15 0;
#X connect 18 0 5 0;
#X connect 18 0 7 0;
#X restore 54 493 pd time;
#X text 263 188 See doc/computer-keyboard-mapping.ods for a complete
list of all key mappings, f 38;
#N canvas 179 126 746 318 interp-and-ASR 0;
#X obj 86 48 inlet;
#X obj 526 72 outlet;
#X obj 146 162 + 1;
#X obj 146 186 % 2;
#X obj 146 120 r player-\$1-interpolation;
#X obj 86 221 s player-\$1-interpolation-set;
#X obj 86 72 select 108 59;
#X obj 466 162 + 1;
#X obj 466 186 % 2;
#X obj 406 221 s player-\$1-asr-kbd-set;
#X obj 466 120 r player-\$1-asr-kbd;
#X obj 406 168 f 1;
#X obj 86 168 f 1;
#X connect 0 0 6 0;
#X connect 2 0 3 0;
#X connect 3 0 12 1;
#X connect 4 0 2 0;
#X connect 6 0 12 0;
#X connect 6 1 11 0;
#X connect 6 2 1 0;
#X connect 7 0 8 0;
#X connect 8 0 11 1;
#X connect 10 0 7 0;
#X connect 11 0 7 0;
#X connect 11 0 9 0;
#X connect 12 0 2 0;
#X connect 12 0 5 0;
#X restore 54 253 pd interp-and-ASR;
#N canvas 343 159 455 314 automation 0;
#X obj 86 48 inlet;
#X obj 326 72 outlet;
#X obj 86 222 s player-\$1-automation-killall-set;
#X obj 156 162 s player-\$1-auto-rec-set;
#X obj 86 72 select 112 39;
#X connect 0 0 4 0;
#X connect 4 0 2 0;
#X connect 4 1 3 0;
#X connect 4 2 1 0;
#X restore 54 403 pd automation;
#X connect 0 0 2 0;
#X connect 1 0 2 1;
#X connect 2 0 3 0;
#X connect 3 0 8 0;
#X connect 4 0 3 1;
#X connect 5 0 4 0;
#X connect 6 0 13 0;
#X connect 7 0 12 0;
#X connect 8 0 9 0;
#X connect 9 0 16 0;
#X connect 10 0 11 0;
#X connect 11 0 7 0;
#X connect 12 0 17 0;
#X connect 13 0 14 0;
#X connect 16 0 10 0;
#X connect 17 0 6 0;
#X restore 20 301 pd keyboard-commands;
#N canvas 166 683 621 228 MIDI 0;
#N canvas 704 228 971 701 keyboard-tempo 0;
#X obj 110 12 notein;
#X obj 70 167 stripnote;
#X obj 373 425 / 127;
#X obj 373 503 + 1;
#X obj 70 136 spigot;
#X obj 373 391 spigot;
#X obj 70 549 s player-\$1-tempo-set;
#X text 453 383 set the range of the tempo bend with the mod wheel
, f 14;
#X obj 70 489 max 1;
#X obj 70 221 mtof;
#X obj 70 245 /;
#X obj 116 225 r lb1;
#X obj 116 273 mtof;
#X obj 70 289 *;
#X obj 70 513 min 240;
#X obj 373 479 * 50;
#X obj 329 510 * 1;
#X obj 412 196 r lb1;
#N canvas 1134 89 667 392 detect-no-keys 0;
#X obj 49 24 inlet;
#X obj 199 24 inlet;
#X obj 295 53 table player-\$1-MIDI-notes 127;
#X obj 49 94 swap;
#X obj 112 170 tabwrite player-\$1-MIDI-notes;
#X text 293 80 keep track of all MIDI note states so that we can detect
when no keys are depressed., f 44;
#X obj 25 286 array sum player-\$1-MIDI-notes;
#X obj 25 334 outlet;
#X obj 103 330 tgl 15 0 empty empty empty 17 7 0 10 -262144 -1 -1 0
1;
#X obj 25 309 > 0;
#X obj 49 138 t b f;
#X text 148 221 upon every note event \, get a true/false re: all notes
being off. must check the sum post-storage of the incoming note state.
, f 63;
#X connect 0 0 3 0;
#X connect 1 0 3 1;
#X connect 3 0 10 0;
#X connect 3 1 4 1;
#X connect 6 0 9 0;
#X connect 9 0 7 0;
#X connect 9 0 8 0;
#X connect 10 0 6 0;
#X connect 10 1 4 0;
#X restore 153 48 pd detect-no-keys;
#X obj 373 449 pow 2;
#N canvas 885 67 795 528 set-ASR-keyboard 0;
#X obj 249 413 s player-\$1-asr-env;
#X obj 346 149 r player-\$1-asr-kbd;
#X obj 172 334 spigot;
#X msg 325 345 1;
#X msg 207 291 1;
#X msg 247 291 0;
#X obj 346 209 t b b;
#X obj 346 185 select 0 1;
#X obj 396 209 t b b;
#X obj 365 345 f;
#X obj 83 34 inlet;
#X text 230 28 When player-\$1-asr-kbd is ON \, we push through the
most recent value from [pd detect-no-keys] \, then allow 1 or 0 out
of detect-no keys to player-\$1-asr-env thereafter. \; When player-\$1-asr-kbd
is OFF \, we suppress values from detect-no-keys \, then send a solid
1 to asr-env to keep it on.;
#X text 557 200 when manually turning off the ASR keyboard toggle \,
set the ASR time to a quick 50ms so the change happens quickly regardless
of the current MIDI velocity fade time setting, f 27;
#X obj 466 332 t b b;
#X obj 516 332 t b b;
#X obj 576 463 s player-\$1-asr-time;
#X msg 576 433 50;
#X text 457 380 DISABLED VELOCITY/FADE TIME MAPPING;
#X connect 1 0 7 0;
#X connect 2 0 0 0;
#X connect 3 0 0 0;
#X connect 4 0 2 1;
#X connect 5 0 2 1;
#X connect 6 0 3 0;
#X connect 6 1 5 0;
#X connect 7 0 6 0;
#X connect 7 1 8 0;
#X connect 8 0 4 0;
#X connect 8 1 9 0;
#X connect 9 0 0 0;
#X connect 10 0 2 0;
#X connect 10 0 9 1;
#X connect 13 1 16 0;
#X connect 14 1 16 0;
#X connect 16 0 15 0;
#X restore 153 178 pd set-ASR-keyboard;
#X obj 373 353 r player-\$1-pitch-bend-range;
#X obj 459 70 fadermap player-\$1-pitch-bend-range 1 \$1 0 127 player-\$1-pitch-bend-range-set
;
#N canvas 866 405 403 339 map-bend-data-to-fader 0;
#X obj 52 54 bendin;
#X obj 52 167 select 8192;
#X msg 52 191 0;
#X obj 162 167 moses 8193;
#X obj 232 191 - 8193;
#X obj 162 191 - 8191;
#X obj 162 215 / 8191;
#X obj 232 215 / 8190;
#X obj 52 91 spigot;
#X obj 133 259 f;
#X obj 139 58 r lb1;
#X obj 133 283 s player-\$1-pitch-bend-set;
#X obj 52 125 spigot;
#X obj 112 125 inlet;
#X obj 139 84 active-player-abs \$1;
#X connect 0 0 8 0;
#X connect 1 0 2 0;
#X connect 1 1 3 0;
#X connect 2 0 9 0;
#X connect 3 0 5 0;
#X connect 3 1 4 0;
#X connect 4 0 7 0;
#X connect 5 0 6 0;
#X connect 6 0 9 0;
#X connect 7 0 9 0;
#X connect 8 0 12 0;
#X connect 9 0 11 0;
#X connect 10 0 14 0;
#X connect 12 0 1 0;
#X connect 13 0 12 1;
#X connect 14 0 8 1;
#X restore 246 97 pd map-bend-data-to-fader;
#X obj 329 319 r player-\$1-pitch-bend;
#N canvas 491 254 395 300 CC-pitch-bend 0;
#X obj 38 115 spigot;
#X obj 38 163 / 127;
#X obj 138 92 r lb1;
#X obj 38 255 s player-\$1-pitch-bend-set;
#X obj 38 187 * 2;
#X obj 38 211 - 1;
#X obj 38 26 ctlin 123;
#X obj 138 118 active-player-abs \$1;
#X text 151 163 This allows use of a normal CC control for pitch bend.
Works in parallel with pitch bend wheel if one is present., f 29;
#X connect 0 0 1 0;
#X connect 1 0 4 0;
#X connect 2 0 7 0;
#X connect 4 0 5 0;
#X connect 5 0 3 0;
#X connect 6 0 0 0;
#X connect 7 0 0 1;
#X restore 246 127 pd CC-pitch-bend;
#X obj 329 634 s player-\$1-pitch-bend-final;
#X obj 655 389 r player-\$1-pitch-bend-zero;
#X msg 655 413 0;
#X obj 655 437 s player-\$1-pitch-bend-set;
#X obj 459 120 button-bang-map player-\$1-pitch-bend-zero-set 2 \$1
;
#X obj 412 222 active-player-abs \$1;
#X msg 116 249 96;
#X text 156 248 << chosen so that MIDI notes 16-112 are mapped to tempo
extremes of 1 to 240 BPM \, using the middle of the keyboard, f 17
;
#X obj 459 30 fadermap player-\$1-tempo 101 \$1 1 239 player-\$1-tempo-set
1;
#X obj 329 605 spigot 1;
#X obj 406 548 r player-\$1-suppress-pitch-bend-final;
#X obj 406 573 swap 1;
#X obj 406 599 -;
#X text 478 578 This exists to deal with details of scene/automation
saving. if suppress==1 \, we want the spigot to be 0 \, so we take
the complement.;
#X obj 445 481 r player-\$1-pitch-bend-range-scene-load-special-case
;
#X text 447 506 the inactive player's pitch bend range value is suppressed
in scene loading \, so we send it through in a special case.;
#X connect 0 0 4 0;
#X connect 0 0 18 0;
#X connect 0 1 1 1;
#X connect 0 1 18 1;
#X connect 1 0 9 0;
#X connect 2 0 19 0;
#X connect 3 0 16 1;
#X connect 4 0 1 0;
#X connect 5 0 2 0;
#X connect 8 0 14 0;
#X connect 9 0 10 0;
#X connect 10 0 13 0;
#X connect 11 0 32 0;
#X connect 12 0 10 1;
#X connect 13 0 8 0;
#X connect 14 0 6 0;
#X connect 15 0 3 0;
#X connect 16 0 35 0;
#X connect 17 0 31 0;
#X connect 18 0 20 0;
#X connect 18 0 23 0;
#X connect 19 0 15 0;
#X connect 21 0 5 0;
#X connect 24 0 16 0;
#X connect 27 0 28 0;
#X connect 28 0 29 0;
#X connect 31 0 5 1;
#X connect 31 0 4 1;
#X connect 32 0 12 0;
#X connect 32 0 13 1;
#X connect 35 0 26 0;
#X connect 36 0 37 0;
#X connect 37 0 38 0;
#X connect 37 1 38 1;
#X connect 38 0 35 1;
#X connect 40 0 2 0;
#X restore 43 34 pd keyboard-tempo;
#N canvas 313 208 765 481 algoChoice 0;
#X obj 86 66 spigot;
#X obj 86 120 t b;
#X obj 346 228 f;
#X obj 386 232 + 1;
#X obj 86 228 f;
#X obj 126 232 - 1;
#X obj 275 316 s player-\$1-algo-select-set;
#X obj 380 150 r player-\$1-algo-select;
#X obj 120 150 r player-\$1-algo-select;
#X obj 86 42 ctlin 21;
#X obj 346 66 spigot;
#X obj 346 120 t b;
#X obj 346 42 ctlin 22;
#X obj 205 280 moses 0;
#X obj 479 83 r lb1;
#X obj 346 90 select 127;
#X obj 86 90 select 127;
#X obj 355 280 r num-algos;
#X obj 101 409 button-bang-map player-\$1-rand-algo-set 38 \$1;
#X obj 479 109 active-player-abs \$1;
#X obj 275 280 moses;
#N canvas 861 119 456 584 fadermap-player-algo-select 0;
#X obj 28 176 / 127;
#X obj 218 299 * 127;
#X obj 28 136 t f b;
#X obj 28 422 t b f;
#X msg 278 308 0;
#X msg 310 309 1;
#X obj 218 338 spigot 1;
#X obj 75 339 + 0.5;
#X obj 75 360 i;
#X obj 121 287 > 0;
#X obj 75 314 spigot;
#X obj 28 239 t b f f b;
#X obj 28 395 f;
#X obj 28 111 spigot;
#X obj 100 94 r lb1;
#X obj 123 195 r num-algos;
#X obj 28 197 *;
#X obj 218 279 /;
#X obj 28 40 ctlin 25;
#X obj 218 362 ctlout 25;
#X obj 121 266 f 1;
#X obj 218 167 r player-\$1-algo-select;
#X obj 85 490 s player-\$1-algo-select-set;
#X obj 28 218 + 0;
#X obj 218 238 - 0;
#X obj 100 122 active-player-abs \$1;
#X obj 123 219 - 1;
#X obj 288 251 r num-algos;
#X obj 288 275 - 1;
#X obj 268 192 r num-algos;
#X obj 218 212 max 0;
#X obj 218 192 moses;
#X connect 0 0 16 0;
#X connect 1 0 6 0;
#X connect 2 0 0 0;
#X connect 2 1 4 0;
#X connect 3 0 5 0;
#X connect 3 1 22 0;
#X connect 4 0 6 1;
#X connect 5 0 6 1;
#X connect 6 0 19 0;
#X connect 7 0 8 0;
#X connect 8 0 12 1;
#X connect 9 0 10 1;
#X connect 10 0 7 0;
#X connect 11 0 12 0;
#X connect 11 1 10 0;
#X connect 11 2 12 1;
#X connect 11 3 20 0;
#X connect 12 0 3 0;
#X connect 13 0 2 0;
#X connect 14 0 25 0;
#X connect 15 0 26 0;
#X connect 16 0 23 0;
#X connect 17 0 1 0;
#X connect 18 0 13 0;
#X connect 20 0 9 0;
#X connect 21 0 31 0;
#X connect 23 0 11 0;
#X connect 24 0 17 0;
#X connect 25 0 13 1;
#X connect 26 0 16 1;
#X connect 27 0 28 0;
#X connect 28 0 17 1;
#X connect 29 0 31 1;
#X connect 30 0 24 0;
#X connect 31 0 30 0;
#X restore 101 379 pd fadermap-player-algo-select;
#X obj 170 173 r num-algos;
#X obj 120 193 max 0;
#X obj 120 173 moses;
#X obj 430 173 r num-algos;
#X obj 380 193 max 0;
#X obj 380 173 moses;
#X connect 0 0 16 0;
#X connect 1 0 4 0;
#X connect 2 0 3 0;
#X connect 3 0 2 1;
#X connect 3 0 13 0;
#X connect 4 0 5 0;
#X connect 5 0 4 1;
#X connect 5 0 13 0;
#X connect 7 0 27 0;
#X connect 8 0 24 0;
#X connect 9 0 0 0;
#X connect 10 0 15 0;
#X connect 11 0 2 0;
#X connect 12 0 10 0;
#X connect 13 1 20 0;
#X connect 14 0 19 0;
#X connect 15 0 11 0;
#X connect 16 0 1 0;
#X connect 17 0 20 1;
#X connect 19 0 10 1;
#X connect 19 0 0 1;
#X connect 20 0 6 0;
#X connect 22 0 24 1;
#X connect 23 0 4 1;
#X connect 24 0 23 0;
#X connect 25 0 27 1;
#X connect 26 0 2 1;
#X connect 27 0 26 0;
#X restore 212 34 pd algoChoice;
#N canvas 623 283 807 587 last-param-changed 0;
#X obj 76 54 r player-\$1-last-param-changed;
#X obj 76 234 r player-\$1-last-param-changed;
#X obj 466 54 r player-\$1-last-param-changed;
#X obj 39 14 r player-\$1-latest-param-dec;
#X obj 39 204 r player-\$1-latest-param-inc;
#X obj 429 14 r player-\$1-latest-param-rand;
#X obj 402 292 button-bang-map player-\$1-latest-param-rand 18 \$1
1;
#X msg 429 146 \; player-\$1-algo-randomize-param-\$2-set bang \;;
#X msg 39 296 \; player-\$1-algo-inc-param-\$2-set bang \;;
#X msg 39 146 \; player-\$1-algo-dec-param-\$2-set bang \;;
#X obj 39 116 pack \$1 f;
#X obj 429 116 pack \$1 f;
#X obj 39 266 pack \$1 f;
#X floatatom 149 98 5 0 0 0 - - -;
#X obj 402 232 button-bang-map player-\$1-latest-param-dec 19 \$1 1
;
#X obj 402 262 button-bang-map player-\$1-latest-param-inc 20 \$1 1
;
#X obj 402 362 button-bang-map player-\$1-active-param-dec 16 \$1 1
;
#X obj 402 392 button-bang-map player-\$1-active-param-inc 17 \$1 1
;
#X obj 162 413 r player-\$1-last-param-changed;
#X obj 131 454 f;
#X obj 171 458 + 1;
#X obj 54 453 f;
#X obj 94 457 - 1;
#X obj 86 490 moses 0;
#X obj 156 520 s player-\$1-last-param-changed;
#X obj 36 364 r player-\$1-active-param-dec;
#X obj 80 389 r player-\$1-active-param-inc;
#X obj 156 490 moses 10;
#X connect 0 0 10 1;
#X connect 0 0 13 0;
#X connect 1 0 12 1;
#X connect 2 0 11 1;
#X connect 3 0 10 0;
#X connect 4 0 12 0;
#X connect 5 0 11 0;
#X connect 10 0 9 0;
#X connect 11 0 7 0;
#X connect 12 0 8 0;
#X connect 18 0 19 1;
#X connect 18 0 21 1;
#X connect 19 0 20 0;
#X connect 20 0 19 1;
#X connect 20 0 23 0;
#X connect 21 0 22 0;
#X connect 22 0 21 1;
#X connect 22 0 23 0;
#X connect 23 1 27 0;
#X connect 25 0 21 0;
#X connect 26 0 19 0;
#X connect 27 0 24 0;
#X restore 212 64 pd last-param-changed;
#N canvas 398 386 834 332 tempoSync 0;
#X obj 408 285 s player-\$1-tempo-sync-set;
#X obj 408 69 r player-\$1-tempo-sync-0;
#X msg 408 93 0;
#X msg 448 123 1;
#X msg 488 153 2;
#X msg 528 183 3;
#X msg 568 213 4;
#X msg 608 243 5;
#X obj 608 219 r player-\$1-tempo-sync-5;
#X obj 568 189 r player-\$1-tempo-sync-4;
#X obj 528 159 r player-\$1-tempo-sync-3;
#X obj 488 129 r player-\$1-tempo-sync-2;
#X obj 448 99 r player-\$1-tempo-sync-1;
#X obj 37 37 button-bang-map player-\$1-tempo-sync-0 30 \$1;
#X obj 37 187 button-bang-map player-\$1-tempo-sync-5 51 \$1;
#X obj 37 67 button-bang-map player-\$1-tempo-sync-1 31 \$1;
#X obj 37 97 button-bang-map player-\$1-tempo-sync-2 40 \$1;
#X obj 37 127 button-bang-map player-\$1-tempo-sync-3 41 \$1;
#X obj 37 157 button-bang-map player-\$1-tempo-sync-4 50 \$1;
#X connect 1 0 2 0;
#X connect 2 0 0 0;
#X connect 3 0 0 0;
#X connect 4 0 0 0;
#X connect 5 0 0 0;
#X connect 6 0 0 0;
#X connect 7 0 0 0;
#X connect 8 0 7 0;
#X connect 9 0 6 0;
#X connect 10 0 5 0;
#X connect 11 0 4 0;
#X connect 12 0 3 0;
#X restore 43 124 pd tempoSync;
#N canvas 447 117 981 517 param-knobs 0;
#X obj 372 287 f;
#X obj 412 291 + 1;
#X obj 295 286 f;
#X obj 335 290 - 1;
#X obj 277 147 r player-\$1-algo-param-range-dec;
#X obj 321 172 r player-\$1-algo-param-range-inc;
#X obj 403 196 r player-\$1-algo-param-range;
#X obj 390 422 s player-\$1-algo-param-range-set;
#X obj 403 225 log 2;
#X obj 390 346 t b f;
#X msg 390 370 2;
#X obj 390 394 pow;
#X obj 505 318 button-bang-map player-\$1-algo-param-range-dec 12 \$1
1;
#X obj 505 288 button-bang-map player-\$1-algo-param-range-inc 10 \$1
1;
#X obj 327 323 moses 3;
#X obj 390 322 moses 17;
#X obj 37 37 fadermap-params \$1 0 110;
#X text 291 37 Had to special-case the parameter knob mapping abs since
their ranges need to change according to controls in [algo-param-interface-client]
, f 46;
#X obj 37 67 fadermap-params \$1 1 111;
#X obj 37 97 fadermap-params \$1 2 112;
#X obj 37 127 fadermap-params \$1 3 113;
#X obj 37 157 fadermap-params \$1 4 114;
#X obj 37 187 fadermap-params \$1 5 115;
#X obj 37 217 fadermap-params \$1 6 116;
#X obj 37 247 fadermap-params \$1 7 117;
#X obj 37 277 fadermap-params \$1 8 118;
#X obj 37 307 fadermap-params \$1 9 119;
#X connect 0 0 1 0;
#X connect 1 0 0 1;
#X connect 1 0 14 0;
#X connect 2 0 3 0;
#X connect 3 0 2 1;
#X connect 3 0 14 0;
#X connect 4 0 2 0;
#X connect 5 0 0 0;
#X connect 6 0 8 0;
#X connect 8 0 0 1;
#X connect 8 0 2 1;
#X connect 9 0 10 0;
#X connect 9 1 11 1;
#X connect 10 0 11 0;
#X connect 11 0 7 0;
#X connect 14 1 15 0;
#X connect 15 0 9 0;
#X restore 413 64 pd param-knobs;
#N canvas 559 236 860 389 bit-depth 0;
#X obj 113 93 spigot;
#X obj 113 157 t b;
#X obj 373 235 f;
#X obj 113 235 f;
#X obj 373 93 spigot;
#X obj 373 157 t b;
#X obj 147 187 r player-\$1-bit-depth;
#X obj 407 187 r player-\$1-bit-depth;
#X obj 302 333 s player-\$1-bit-depth-set;
#X obj 232 297 moses 1;
#X obj 302 297 moses 33;
#X obj 153 239 + 1;
#X obj 413 239 - 1;
#X obj 515 114 r lb1;
#X obj 113 117 select 127;
#X obj 373 117 select 127;
#X obj 113 69 ctlin 32;
#X obj 373 69 ctlin 42;
#X obj 515 140 active-player-abs \$1;
#X obj 517 257 fadermap player-\$1-bit-depth 106 \$1 1 31 player-\$1-bit-depth-set
1;
#X connect 0 0 14 0;
#X connect 1 0 3 0;
#X connect 2 0 12 0;
#X connect 3 0 11 0;
#X connect 4 0 15 0;
#X connect 5 0 2 0;
#X connect 6 0 3 1;
#X connect 7 0 2 1;
#X connect 9 1 10 0;
#X connect 10 0 8 0;
#X connect 11 0 3 1;
#X connect 11 0 9 0;
#X connect 12 0 2 1;
#X connect 12 0 9 0;
#X connect 13 0 18 0;
#X connect 14 0 1 0;
#X connect 15 0 5 0;
#X connect 16 0 0 0;
#X connect 17 0 4 0;
#X connect 18 0 4 1;
#X connect 18 0 0 1;
#X restore 413 124 pd bit-depth;
#N canvas 738 392 488 228 compute-interp-rand 0;
#X obj 36 126 button-toggle-map player-\$1-interpolation 24 \$1 0 1
player-\$1-interpolation-set;
#X obj 36 76 button-toggle-map player-\$1-compute 23 \$1 0 1 player-\$1-compute-set
;
#X obj 36 46 button-bang-map player-\$1-algo-randomize-set 9 \$1;
#X restore 413 154 pd compute-interp-rand;
#N canvas 1220 237 525 361 preset-loading 0;
#X obj 37 97 button-bang-map player-\$1-algo-refresh-params-set 55
\$1;
#X obj 37 37 button-bang-map player-\$1-algo-save-params-set 35 \$1
;
#X obj 37 67 button-bang-map player-\$1-algo-load-params-set 45 \$1
;
#X obj 37 147 button-toggle-map player-\$1-load-bit-depth 33 \$1 0
1 player-\$1-load-bit-depth-set;
#X obj 37 297 button-toggle-map player-\$1-load-params 54 \$1 0 1 player-\$1-load-params-set
;
#X obj 37 247 button-toggle-map player-\$1-load-tempo 53 \$1 0 1 player-\$1-load-tempo-set
;
#X obj 37 197 button-toggle-map player-\$1-load-time 43 \$1 0 1 player-\$1-load-time-set
;
#X restore 413 94 pd preset-loading;
#N canvas 723 423 368 415 active-player-sensing 0;
#N canvas 1216 525 422 385 RGB 0;
#X obj 32 36 inlet;
#X obj 109 327 outlet;
#X text 49 95 red;
#X text 119 97 green;
#X text 191 97 blue;
#X obj 175 145 t b f;
#X obj 109 203 +;
#X obj 109 228 t b f;
#X obj 109 259 +;
#X obj 109 123 * -256;
#X obj 175 123 * -1;
#X obj 109 290 - 1;
#X obj 32 60 unpack f f f;
#X obj 32 122 * -65536;
#X obj 248 72 i;
#X floatatom 248 96 5 0 0 0 - - -;
#X obj 272 122 i;
#X floatatom 272 146 5 0 0 0 - - -;
#X obj 307 172 i;
#X floatatom 307 196 5 0 0 0 - - -;
#X obj 231 12 hsl 128 15 0 255 0 0 empty empty empty -2 -8 0 10 -262144
-1 -1 0 1;
#X obj 241 32 hsl 128 15 0 255 0 0 empty empty empty -2 -8 0 10 -262144
-1 -1 0 1;
#X obj 251 52 hsl 128 15 0 255 0 0 empty empty empty -2 -8 0 10 -262144
-1 -1 0 1;
#X connect 0 0 12 0;
#X connect 5 0 6 0;
#X connect 5 1 6 1;
#X connect 6 0 7 0;
#X connect 7 0 8 0;
#X connect 7 1 8 1;
#X connect 8 0 11 0;
#X connect 9 0 6 0;
#X connect 10 0 5 0;
#X connect 11 0 1 0;
#X connect 12 0 13 0;
#X connect 12 1 9 0;
#X connect 12 2 10 0;
#X connect 13 0 8 0;
#X connect 14 0 15 0;
#X connect 14 0 13 0;
#X connect 16 0 17 0;
#X connect 16 0 9 0;
#X connect 18 0 19 0;
#X connect 18 0 10 0;
#X connect 20 0 14 0;
#X connect 21 0 16 0;
#X connect 22 0 18 0;
#X restore 48 241 pd RGB;
#X obj 48 265 list prepend color;
#X obj 48 299 list trim;
#X obj 48 151 select 0 1;
#X msg 48 175 255 255 255;
#X msg 88 205 255 160 160;
#X obj 48 329 s player-\$1-active-canvas-set;
#X obj 48 54 r lb1;
#X obj 48 121 change -1;
#X obj 48 78 active-player-abs \$1;
#X connect 0 0 1 0;
#X connect 1 0 2 0;
#X connect 2 0 6 0;
#X connect 3 0 4 0;
#X connect 3 1 5 0;
#X connect 4 0 0 0;
#X connect 5 0 0 0;
#X connect 7 0 9 0;
#X connect 8 0 3 0;
#X connect 9 0 8 0;
#X restore 413 34 pd active-player-sensing;
#N canvas 0 89 450 300 keyboard-ASR 0;
#X obj 36 76 button-toggle-map player-\$1-asr-kbd 15 \$1 0 1 player-\$1-asr-kbd-set
;
#X obj 36 136 fadermap player-\$1-asr-time 13 \$1 0 1000 player-\$1-asr-time-set
0;
#X restore 43 64 pd keyboard-ASR;
#N canvas 398 386 834 332 cloning 0;
#X msg 408 93 0;
#X msg 448 123 1;
#X msg 488 153 2;
#X msg 528 183 3;
#X msg 568 213 4;
#X msg 608 243 5;
#X obj 608 219 r player-\$1-clone-5;
#X obj 408 69 r player-\$1-clone-0;
#X obj 448 99 r player-\$1-clone-1;
#X obj 488 129 r player-\$1-clone-2;
#X obj 528 159 r player-\$1-clone-3;
#X obj 568 189 r player-\$1-clone-4;
#X obj 408 285 s player-\$1-clone-set;
#X obj 37 37 button-bang-map player-\$1-clone-0 26 \$1;
#X obj 37 67 button-bang-map player-\$1-clone-1 27 \$1;
#X obj 37 97 button-bang-map player-\$1-clone-2 28 \$1;
#X obj 37 127 button-bang-map player-\$1-clone-3 29 \$1;
#X obj 37 157 button-bang-map player-\$1-clone-4 36 \$1;
#X obj 37 187 button-bang-map player-\$1-clone-5 37 \$1;
#X connect 0 0 12 0;
#X connect 1 0 12 0;
#X connect 2 0 12 0;
#X connect 3 0 12 0;
#X connect 4 0 12 0;
#X connect 5 0 12 0;
#X connect 6 0 5 0;
#X connect 7 0 0 0;
#X connect 8 0 1 0;
#X connect 9 0 2 0;
#X connect 10 0 3 0;
#X connect 11 0 4 0;
#X restore 43 94 pd cloning;
#N canvas 422 321 1017 340 time 0;
#X obj 55 81 button-bang-map player-\$1-time-reverse-set 56 \$1;
#X obj 55 121 fadermap player-\$1-time-point 107 \$1 0 1623 player-\$1-time-point-set
1;
#X obj 473 78 spigot;
#X obj 473 103 select 127;
#X obj 473 54 ctlin 34;
#X msg 763 107 0;
#X text 783 134 Jump to time zero;
#X obj 473 161 s player-\$1-algo-time-zero-set;
#X obj 763 71 r player-\$1-algo-time-zero;
#X obj 763 161 s player-\$1-time-index-set;
#X obj 564 75 active-player-abs \$1;
#X obj 564 45 r lb1;
#N canvas 129 259 656 366 random-time 0;
#X obj 55 69 spigot;
#X obj 55 94 select 127;
#X obj 350 217 random 2.14748e+09;
#X obj 55 45 ctlin 44;
#X obj 55 306 s player-\$1-set-time-random;
#X obj 55 144 s player-\$1-algo-time-rand-set;
#X obj 55 266 r player-\$1-algo-time-rand;
#X obj 350 251 s player-\$1-time-index-set;
#X obj 146 66 active-player-abs \$1;
#X obj 146 36 r lb1;
#X text 52 171 player-\$1-algo-time-rand is the GUI button \, and player-\$1-set-time-random
is the send name that triggers a random time command for [algo~],
f 33;
#X text 363 62 Jump to a random time between 0 and INT_MAX. [random]
can't go higher than this \, even though [algo~]'s time paramter goes
to UINT_MAX. So - not using Pd's [random]. Doing the random time internally.
, f 31;
#X connect 0 0 1 0;
#X connect 1 0 5 0;
#X connect 2 0 7 0;
#X connect 3 0 0 0;
#X connect 6 0 4 0;
#X connect 8 0 0 1;
#X connect 9 0 8 0;
#X restore 473 211 pd random-time;
#N canvas 215 188 591 490 loop-record 0;
#X obj 148 202 spigot;
#X obj 231 188 r lb1;
#X obj 148 275 s player-\$1-loop-record-set;
#X obj 148 178 ctlin 66;
#X text 280 311 Hold the loop record button and release at desired
loop end point, f 18;
#X obj 58 202 spigot;
#X obj 58 178 ctlin 67;
#X obj 58 315 s player-\$1-loop-reset-set;
#X obj 58 231 select 127;
#X msg 56 384 -1;
#X obj 56 411 s player-\$1-loop-point-start-set;
#X obj 56 361 r player-\$1-loop-reset;
#X obj 231 214 active-player-abs \$1;
#X obj 61 52 fadermap player-\$1-loop-point-start 121 \$1 0 4.2949e+09
player-\$1-loop-point-start-set 0;
#X obj 61 92 fadermap player-\$1-loop-point-end 122 \$1 0 4.2949e+09
player-\$1-loop-point-end-set 0;
#X obj 148 231 > 0;
#X connect 0 0 15 0;
#X connect 1 0 12 0;
#X connect 3 0 0 0;
#X connect 5 0 8 0;
#X connect 6 0 5 0;
#X connect 8 0 7 0;
#X connect 9 0 10 0;
#X connect 11 0 9 0;
#X connect 12 0 0 1;
#X connect 12 0 5 1;
#X connect 15 0 2 0;
#X restore 473 241 pd loop-record;
#N canvas 569 304 687 423 time-point-inc-dec 0;
#X obj 68 83 spigot;
#X obj 68 147 t b;
#X obj 328 225 f;
#X obj 68 225 f;
#X obj 328 83 spigot;
#X obj 328 147 t b;
#X obj 108 229 + 1;
#X obj 368 229 - 1;
#X obj 470 104 r lb1;
#X obj 68 107 select 127;
#X obj 328 107 select 127;
#X obj 470 130 active-player-abs \$1;
#X obj 102 177 r player-\$1-time-point;
#X obj 362 177 r player-\$1-time-point;
#X obj 257 323 s player-\$1-time-point-set;
#X obj 187 287 moses 0;
#X obj 257 287 moses 1624;
#X obj 68 59 ctlin 97;
#X obj 328 59 ctlin 96;
#X connect 0 0 9 0;
#X connect 1 0 3 0;
#X connect 2 0 7 0;
#X connect 3 0 6 0;
#X connect 4 0 10 0;
#X connect 5 0 2 0;
#X connect 6 0 3 1;
#X connect 6 0 15 0;
#X connect 7 0 2 1;
#X connect 7 0 15 0;
#X connect 8 0 11 0;
#X connect 9 0 1 0;
#X connect 10 0 5 0;
#X connect 11 0 4 1;
#X connect 11 0 0 1;
#X connect 12 0 3 1;
#X connect 13 0 2 1;
#X connect 15 1 16 0;
#X connect 16 0 14 0;
#X connect 17 0 0 0;
#X connect 18 0 4 0;
#X restore 55 201 pd time-point-inc-dec;
#X connect 2 0 3 0;
#X connect 3 0 7 0;
#X connect 4 0 2 0;
#X connect 5 0 9 0;
#X connect 8 0 5 0;
#X connect 10 0 2 1;
#X connect 11 0 10 0;
#X restore 212 154 pd time;
#N canvas 348 243 680 266 timeSync 0;
#X obj 123 153 r player-\$1-tempo-sync;
#X obj 83 154 f;
#X obj 83 205 s player-\$1-time-sync-set;
#X obj 83 78 spigot;
#X obj 83 103 select 127;
#X obj 83 127 t b;
#X obj 83 54 ctlin 52;
#N canvas 466 89 935 429 time-sync-buttons 0;
#X obj 83 165 s player-\$1-time-sync-set;
#X obj 83 78 spigot;
#X obj 83 103 select 127;
#X obj 83 54 ctlin 60;
#X msg 83 127 0;
#X obj 293 165 s player-\$1-time-sync-set;
#X obj 293 78 spigot;
#X obj 293 103 select 127;
#X obj 503 165 s player-\$1-time-sync-set;
#X obj 503 78 spigot;
#X obj 503 103 select 127;
#X obj 293 54 ctlin 61;
#X obj 503 54 ctlin 62;
#X msg 293 127 1;
#X msg 503 127 2;
#X obj 83 345 s player-\$1-time-sync-set;
#X obj 83 258 spigot;
#X obj 83 283 select 127;
#X obj 293 345 s player-\$1-time-sync-set;
#X obj 293 258 spigot;
#X obj 293 283 select 127;
#X obj 503 345 s player-\$1-time-sync-set;
#X obj 503 258 spigot;
#X obj 503 283 select 127;
#X obj 83 234 ctlin 63;
#X obj 503 234 ctlin 65;
#X msg 503 307 5;
#X msg 293 307 4;
#X msg 83 307 3;
#X obj 649 86 active-player-abs \$1;
#X obj 649 56 r lb1;
#X obj 293 234 ctlin 124;
#X connect 1 0 2 0;
#X connect 2 0 4 0;
#X connect 3 0 1 0;
#X connect 4 0 0 0;
#X connect 6 0 7 0;
#X connect 7 0 13 0;
#X connect 9 0 10 0;
#X connect 10 0 14 0;
#X connect 11 0 6 0;
#X connect 12 0 9 0;
#X connect 13 0 5 0;
#X connect 14 0 8 0;
#X connect 16 0 17 0;
#X connect 17 0 28 0;
#X connect 19 0 20 0;
#X connect 20 0 27 0;
#X connect 22 0 23 0;
#X connect 23 0 26 0;
#X connect 24 0 16 0;
#X connect 25 0 22 0;
#X connect 26 0 21 0;
#X connect 27 0 18 0;
#X connect 28 0 15 0;
#X connect 29 0 1 1;
#X connect 29 0 6 1;
#X connect 29 0 9 1;
#X connect 29 0 22 1;
#X connect 29 0 19 1;
#X connect 29 0 16 1;
#X connect 30 0 29 0;
#X connect 31 0 19 0;
#X restore 478 120 pd time-sync-buttons;
#X obj 174 75 active-player-abs \$1;
#X obj 174 45 r lb1;
#X connect 0 0 1 1;
#X connect 1 0 2 0;
#X connect 3 0 4 0;
#X connect 4 0 5 0;
#X connect 5 0 1 0;
#X connect 6 0 3 0;
#X connect 8 0 3 1;
#X connect 9 0 8 0;
#X restore 43 154 pd timeSync;
#N canvas 673 136 943 584 spat-lfo 0;
#X text 137 14 Have to special-case this because we need logarithmic
scale from 0 to 4 \, but also log scale going from 0 down to -4;
#X obj 45 149 t f b;
#X obj 81 415 t b f;
#X msg 410 370 0;
#X msg 442 371 1;
#X obj 350 400 spigot 1;
#X obj 45 124 spigot;
#X obj 128 481 s player-\$1-spat-lfo-freq-set;
#X obj 392 146 r player-\$1-spat-lfo-freq;
#X obj 45 189 moses 64;
#X obj 45 213 t b f;
#X msg 45 237 63;
#X obj 45 261 -;
#X obj 45 285 / 63;
#X obj 45 315 pow 3;
#X obj 110 223 - 64;
#X obj 110 250 / 63;
#X obj 110 280 pow 3;
#X obj 392 173 moses 0;
#X obj 392 222 pow 0.333333;
#X obj 392 246 * 63;
#X obj 392 270 swap 63;
#X obj 392 294 -;
#X obj 512 222 pow 0.333333;
#X obj 512 246 * 63;
#X obj 512 270 + 64;
#X obj 150 111 r lb1;
#X obj 45 93 ctlin 120;
#X obj 350 424 ctlout 120;
#X obj 150 137 active-player-abs \$1;
#X obj 45 339 * -20;
#X obj 110 304 * 20;
#X obj 392 198 / -20;
#X obj 512 198 / 20;
#X text 233 66 trying -20 to 20 now;
#X obj 554 426 button-toggle-map player-\$1-spat-lfo-type 98 \$1 0
1 player-\$1-spat-lfo-type-set;
#X connect 1 0 9 0;
#X connect 1 1 3 0;
#X connect 2 0 4 0;
#X connect 2 1 7 0;
#X connect 3 0 5 1;
#X connect 4 0 5 1;
#X connect 5 0 28 0;
#X connect 6 0 1 0;
#X connect 8 0 18 0;
#X connect 9 0 10 0;
#X connect 9 1 15 0;
#X connect 10 0 11 0;
#X connect 10 1 12 1;
#X connect 11 0 12 0;
#X connect 12 0 13 0;
#X connect 13 0 14 0;
#X connect 14 0 30 0;
#X connect 15 0 16 0;
#X connect 16 0 17 0;
#X connect 17 0 31 0;
#X connect 18 0 32 0;
#X connect 18 1 33 0;
#X connect 19 0 20 0;
#X connect 20 0 21 0;
#X connect 21 0 22 0;
#X connect 21 1 22 1;
#X connect 22 0 5 0;
#X connect 23 0 24 0;
#X connect 24 0 25 0;
#X connect 25 0 5 0;
#X connect 26 0 29 0;
#X connect 27 0 6 0;
#X connect 29 0 6 1;
#X connect 30 0 2 0;
#X connect 31 0 2 0;
#X connect 32 0 19 0;
#X connect 33 0 23 0;
#X restore 212 94 pd spat-lfo;
#N canvas 450 366 870 374 spat-reverb 0;
#X obj 25 79 fadermap player-\$1-spat-pos 104 \$1 0 1 player-\$1-spat-pos-set
0;
#X obj 25 129 fadermap player-\$1-spat-width 105 \$1 0 1 player-\$1-spat-width-set
0;
#X obj 415 189 fadermap player-\$1-rvb-liveness 109 \$1 50 50 player-\$1-rvb-liveness-set
1;
#X obj 415 139 fadermap player-\$1-dry-wet 108 \$1 0 100 player-\$1-dry-wet-set
1;
#X obj 415 269 fadermap player-\$1-rvb-damping 100 \$1 0 100 player-\$1-rvb-damping-set
1;
#X obj 415 229 fadermap player-\$1-rvb-xover 99 \$1 500 9500 player-\$1-rvb-xover-set
1;
#X obj 415 99 fadermap player-\$1-wet 71 \$1 40 60 player-\$1-wet-set
1;
#X obj 415 59 fadermap player-\$1-dry 70 \$1 40 60 player-\$1-dry-set
1;
#X restore 212 124 pd spat-reverb;
#N canvas 398 386 770 214 automation 0;
#X obj 37 37 button-bang-map player-\$1-dup-auto-alt-set 126 \$1;
#X obj 37 67 button-bang-map player-\$1-dup-scene-alt-set 127 \$1;
#X obj 503 73 spigot;
#X obj 586 85 active-player-abs \$1;
#X obj 503 146 s player-\$1-auto-rec-set;
#X obj 503 96 > 0;
#X obj 37 117 button-bang-map player-\$1-save-auto-set 5 \$1;
#X obj 37 147 button-bang-map player-\$1-load-auto-set 6 \$1;
#X obj 586 59 r lb1;
#X obj 503 49 ctlin 64;
#X connect 2 0 5 0;
#X connect 3 0 2 1;
#X connect 5 0 4 0;
#X connect 8 0 3 0;
#X connect 9 0 2 0;
#X restore 43 184 pd automation;
#X restore 20 331 pd MIDI;
#X obj 380 20 algo-param-interface-client \$1;
#N canvas 25 89 858 451 parameter-automation 0;
#X obj 131 346 pack f s;
#X msg 180 305 symbol play;
#X msg 291 304 symbol rec;
#X obj 98 229 f;
#X obj 153 212 + 1;
#X obj 175 154 t b b;
#X obj 52 267 f;
#X obj 110 150 t b b;
#X obj 131 383 s player-\$1-param-auto-command;
#X obj 153 236 % 20;
#X text 213 237 20 automation voices;
#X obj 521 89 clone param-automation-abs 20 \$1;
#X obj 413 323 button-bang-map player-\$1-automation-killall-set 125
\$1;
#X obj 153 266 s player-\$1-next-auto-voice;
#N canvas 842 313 915 661 save-automation 0;
#X obj 157 294 r player-\$1-next-auto-voice;
#X obj 126 332 f;
#X obj 50 17 r player-\$1-save-auto;
#X obj 50 615 soundfiler;
#X obj 50 222 savepanel;
#X obj 112 113 pdcontrol;
#X msg 112 80 dir 0 ../;
#X obj 50 193 symbol;
#X obj 112 47 r lb1;
#X obj 50 513 pack s s;
#X obj 111 463 symbol player-\$1-auto-data-table;
#X msg 50 545 write -wave -bytes 4 \$1 \$2;
#X obj 126 357 t f b;
#X obj 126 382 tabwrite player-\$1-auto-data-table;
#X obj 50 417 makefilename %s.wav;
#X obj 112 137 makefilename %s/automation;
#X text 479 245 << first branch should trigger unloading of data from
automation voices into the auto-data-table here.;
#X obj 246 243 s player-\$1-get-all-auto-data;
#X text 335 332 << record the next voice to be used as the final value
in the file, f 38;
#X obj 401 166 r player-\$1-save-auto-for-scene;
#X obj 419 463 table player-\$1-auto-data-table 210021;
#X msg 258 345 210020;
#X obj 50 272 t s b b b;
#X floatatom 492 547 10 0 210020 0 - - -;
#X obj 492 571 tabread player-\$1-auto-data-table;
#X floatatom 492 596 20 0 0 0 - - -;
#X msg 492 521 210020;
#X obj 356 46 r player-\$1-save-auto-for-dup;
#X obj 356 107 pdcontrol;
#X msg 356 74 dir 0 ../;
#X obj 356 131 makefilename %s/automation/dup-data;
#X connect 0 0 1 1;
#X connect 1 0 12 0;
#X connect 2 0 7 0;
#X connect 4 0 22 0;
#X connect 5 0 15 0;
#X connect 6 0 5 0;
#X connect 7 0 4 0;
#X connect 8 0 6 0;
#X connect 9 0 11 0;
#X connect 10 0 9 1;
#X connect 11 0 3 0;
#X connect 12 0 13 0;
#X connect 12 1 21 0;
#X connect 14 0 9 0;
#X connect 15 0 7 1;
#X connect 19 0 22 0;
#X connect 21 0 13 1;
#X connect 22 0 14 0;
#X connect 22 1 1 0;
#X connect 22 2 10 0;
#X connect 22 3 17 0;
#X connect 23 0 24 0;
#X connect 24 0 25 0;
#X connect 26 0 23 0;
#X connect 27 0 29 0;
#X connect 28 0 30 0;
#X connect 29 0 28 0;
#X connect 30 0 22 0;
#X restore 481 368 pd save-automation;
#N canvas 1148 151 640 732 load-automation 0;
#X obj 50 17 r player-\$1-load-auto;
#X obj 112 111 pdcontrol;
#X msg 112 78 dir 0 ../;
#X obj 50 191 symbol;
#X obj 112 45 r lb1;
#X obj 50 220 openpanel;
#X obj 50 380 pack s s;
#X obj 111 330 symbol player-\$1-auto-data-table;
#X msg 50 415 read \$1 \$2;
#X obj 50 440 soundfiler;
#X obj 103 511 s player-\$1-set-all-auto-data;
#X obj 50 465 t b b;
#X obj 50 585 tabread player-\$1-auto-data-table;
#X obj 50 610 s player-\$1-next-auto-voice;
#X obj 112 135 makefilename %s/automation;
#X obj 290 207 r player-\$1-load-auto-for-scene;
#X msg 50 551 210020, f 8;
#X obj 212 445 s player-\$1-automation-killall-set;
#X obj 50 262 t s b b;
#X text 236 363 even though scene loading kills all auto at an earlier
stage \, we kill it again here in case auto data is being loaded independent
of a scene., f 36;
#X obj 323 145 pdcontrol;
#X msg 323 112 dir 0 ../;
#X obj 323 84 r player-\$1-load-auto-for-dup;
#X obj 323 169 makefilename %s/automation/dup-data.wav;
#X connect 0 0 3 0;
#X connect 1 0 14 0;
#X connect 2 0 1 0;
#X connect 3 0 5 0;
#X connect 4 0 2 0;
#X connect 5 0 18 0;
#X connect 6 0 8 0;
#X connect 7 0 6 1;
#X connect 8 0 9 0;
#X connect 9 0 11 0;
#X connect 11 0 16 0;
#X connect 11 1 10 0;
#X connect 12 0 13 0;
#X connect 14 0 3 1;
#X connect 15 0 18 0;
#X connect 16 0 12 0;
#X connect 18 0 6 0;
#X connect 18 1 7 0;
#X connect 18 2 17 0;
#X connect 20 0 23 0;
#X connect 21 0 20 0;
#X connect 22 0 21 0;
#X connect 23 0 18 0;
#X restore 481 398 pd load-automation;
#X obj 116 180 r player-\$1-next-auto-voice;
#X floatatom 514 20 5 0 0 0 - - -;
#X msg 521 49 vis \$1 1;
#X floatatom 76 180 5 0 0 0 - - -;
#X obj 123 81 r player-\$1-auto-rec;
#X obj 123 105 select 0 1;
#X connect 0 0 8 0;
#X connect 1 0 0 1;
#X connect 2 0 0 1;
#X connect 3 0 4 0;
#X connect 3 0 0 0;
#X connect 3 0 6 1;
#X connect 4 0 9 0;
#X connect 5 0 3 0;
#X connect 5 1 2 0;
#X connect 6 0 0 0;
#X connect 7 0 6 0;
#X connect 7 1 1 0;
#X connect 9 0 13 0;
#X connect 16 0 3 1;
#X connect 16 0 19 0;
#X connect 17 0 18 0;
#X connect 18 0 11 0;
#X connect 20 0 21 0;
#X connect 21 0 7 0;
#X connect 21 1 5 0;
#X restore 264 284 pd parameter-automation;
#N canvas 497 540 848 307 last-MIDI-control-moved 0;
#N canvas 436 275 1121 358 p0-p9 0;
#X obj 49 100 t b;
#X obj 49 275 symbol;
#X obj 129 100 t b;
#X obj 209 100 t b;
#X obj 289 100 t b;
#X obj 369 100 t b;
#X obj 449 100 t b;
#X obj 529 100 t b;
#X obj 609 100 t b;
#X obj 689 100 t b;
#X obj 769 100 t b;
#X obj 49 299 s player-\$1-last-MIDI-trig-send-name;
#X msg 49 224 player-\$1-algo-param-\$2-set;
#X obj 49 128 pack \$1 0;
#X obj 129 128 pack \$1 1;
#X obj 209 128 pack \$1 2;
#X obj 289 128 pack \$1 3;
#X obj 369 128 pack \$1 4;
#X obj 449 128 pack \$1 5;
#X obj 529 128 pack \$1 6;
#X obj 609 128 pack \$1 7;
#X obj 689 128 pack \$1 8;
#X obj 769 128 pack \$1 9;
#X obj 504 260 s player-\$1-last-param-changed;
#X obj 428 224 unpack f f;
#X obj 49 26 ctlin 110;
#X obj 129 26 ctlin 111;
#X obj 209 26 ctlin 112;
#X obj 289 26 ctlin 113;
#X obj 369 26 ctlin 114;
#X obj 449 26 ctlin 115;
#X obj 529 26 ctlin 116;
#X obj 609 26 ctlin 117;
#X obj 689 26 ctlin 118;
#X obj 769 26 ctlin 119;
#X obj 49 66 spigot;
#X obj 129 66 spigot;
#X obj 209 66 spigot;
#X obj 289 66 spigot;
#X obj 369 66 spigot;
#X obj 449 66 spigot;
#X obj 529 66 spigot;
#X obj 609 66 spigot;
#X obj 689 66 spigot;
#X obj 769 66 spigot;
#X obj 859 86 active-player-abs \$1;
#X obj 859 56 r lb1;
#X connect 0 0 13 0;
#X connect 1 0 11 0;
#X connect 2 0 14 0;
#X connect 3 0 15 0;
#X connect 4 0 16 0;
#X connect 5 0 17 0;
#X connect 6 0 18 0;
#X connect 7 0 19 0;
#X connect 8 0 20 0;
#X connect 9 0 21 0;
#X connect 10 0 22 0;
#X connect 12 0 1 0;
#X connect 13 0 12 0;
#X connect 13 0 24 0;
#X connect 14 0 12 0;
#X connect 14 0 24 0;
#X connect 15 0 12 0;
#X connect 15 0 24 0;
#X connect 16 0 12 0;
#X connect 16 0 24 0;
#X connect 17 0 12 0;
#X connect 17 0 24 0;
#X connect 18 0 12 0;
#X connect 18 0 24 0;
#X connect 19 0 12 0;
#X connect 19 0 24 0;
#X connect 20 0 12 0;
#X connect 20 0 24 0;
#X connect 21 0 12 0;
#X connect 21 0 24 0;
#X connect 22 0 12 0;
#X connect 22 0 24 0;
#X connect 24 1 23 0;
#X connect 25 0 35 0;
#X connect 26 0 36 0;
#X connect 27 0 37 0;
#X connect 28 0 38 0;
#X connect 29 0 39 0;
#X connect 30 0 40 0;
#X connect 31 0 41 0;
#X connect 32 0 42 0;
#X connect 33 0 43 0;
#X connect 34 0 44 0;
#X connect 35 0 0 0;
#X connect 36 0 2 0;
#X connect 37 0 3 0;
#X connect 38 0 4 0;
#X connect 39 0 5 0;
#X connect 40 0 6 0;
#X connect 41 0 7 0;
#X connect 42 0 8 0;
#X connect 43 0 9 0;
#X connect 44 0 10 0;
#X connect 45 0 44 1;
#X connect 45 0 43 1;
#X connect 45 0 42 1;
#X connect 45 0 41 1;
#X connect 45 0 40 1;
#X connect 45 0 39 1;
#X connect 45 0 38 1;
#X connect 45 0 37 1;
#X connect 45 0 36 1;
#X connect 45 0 35 1;
#X connect 46 0 45 0;
#X restore 49 95 pd p0-p9;
#X symbolatom 226 99 80 0 0 0 - - -;
#N canvas 523 89 1020 318 panning 0;
#X obj 49 90 t b;
#X obj 49 114 f \$1;
#X obj 49 195 symbol;
#X obj 49 26 ctlin 104;
#X obj 49 219 s player-\$1-last-MIDI-trig-send-name;
#X msg 49 154 player-\$1-spat-pos-set;
#X obj 49 58 spigot;
#X obj 259 90 t b;
#X obj 259 114 f \$1;
#X obj 259 58 spigot;
#X msg 259 154 player-\$1-spat-width-set;
#X obj 259 26 ctlin 105;
#X obj 620 76 active-player-abs \$1;
#X obj 620 46 r lb1;
#X obj 479 90 t b;
#X obj 479 114 f \$1;
#X obj 479 58 spigot;
#X msg 479 154 player-\$1-spat-lfo-freq-set;
#X obj 479 26 ctlin 120;
#X connect 0 0 1 0;
#X connect 1 0 5 0;
#X connect 2 0 4 0;
#X connect 3 0 6 0;
#X connect 5 0 2 0;
#X connect 6 0 0 0;
#X connect 7 0 8 0;
#X connect 8 0 10 0;
#X connect 9 0 7 0;
#X connect 10 0 2 0;
#X connect 11 0 9 0;
#X connect 12 0 6 1;
#X connect 12 0 9 1;
#X connect 12 0 16 1;
#X connect 13 0 12 0;
#X connect 14 0 15 0;
#X connect 15 0 17 0;
#X connect 16 0 14 0;
#X connect 17 0 2 0;
#X connect 18 0 16 0;
#X restore 49 35 pd panning;
#N canvas 863 173 618 402 pitch-bend 0;
#X obj 49 90 t b;
#X obj 49 114 f \$1;
#X obj 49 304 symbol;
#X obj 49 328 s player-\$1-last-MIDI-trig-send-name;
#X obj 49 58 spigot;
#X msg 49 263 player-\$1-pitch-bend-set;
#X obj 49 26 bendin;
#X obj 139 58 spigot;
#X obj 139 26 ctlin 123;
#X obj 401 85 active-player-abs \$1;
#X obj 401 55 r lb1;
#X obj 289 100 t b;
#X obj 289 124 f \$1;
#X obj 289 58 spigot;
#X obj 289 26 ctlin 1;
#X msg 289 263 player-\$1-pitch-bend-range-set;
#X connect 0 0 1 0;
#X connect 1 0 5 0;
#X connect 2 0 3 0;
#X connect 4 0 0 0;
#X connect 5 0 2 0;
#X connect 6 0 4 0;
#X connect 7 0 0 0;
#X connect 8 0 7 0;
#X connect 9 0 4 1;
#X connect 9 0 7 1;
#X connect 9 0 13 1;
#X connect 10 0 9 0;
#X connect 11 0 12 0;
#X connect 12 0 15 0;
#X connect 13 0 11 0;
#X connect 14 0 13 0;
#X connect 15 0 2 0;
#X restore 49 215 pd pitch-bend;
#N canvas 392 141 450 300 bit-depth 0;
#X obj 49 90 t b;
#X obj 49 114 f \$1;
#X obj 49 195 symbol;
#X obj 49 26 ctlin 106;
#X obj 49 219 s player-\$1-last-MIDI-trig-send-name;
#X msg 49 154 player-\$1-bit-depth-set;
#X obj 49 58 spigot;
#X obj 160 76 active-player-abs \$1;
#X obj 160 46 r lb1;
#X connect 0 0 1 0;
#X connect 1 0 5 0;
#X connect 2 0 4 0;
#X connect 3 0 6 0;
#X connect 5 0 2 0;
#X connect 6 0 0 0;
#X connect 7 0 6 1;
#X connect 8 0 7 0;
#X restore 49 155 pd bit-depth;
#X obj 226 75 r player-\$1-last-MIDI-trig-send-name;
#N canvas 132 112 472 374 tempo 0;
#X obj 49 180 t b;
#X obj 49 204 f \$1;
#X obj 49 295 symbol;
#X obj 49 26 ctlin 101;
#X obj 49 319 s player-\$1-last-MIDI-trig-send-name;
#X msg 49 264 player-\$1-tempo-set;
#X obj 49 108 spigot;
#X obj 270 76 active-player-abs \$1;
#X obj 270 46 r lb1;
#X obj 149 108 spigot;
#X obj 149 26 notein;
#X obj 149 50 stripnote;
#X connect 0 0 1 0;
#X connect 1 0 5 0;
#X connect 2 0 4 0;
#X connect 3 0 6 0;
#X connect 5 0 2 0;
#X connect 6 0 0 0;
#X connect 7 0 6 1;
#X connect 7 0 9 1;
#X connect 8 0 7 0;
#X connect 9 0 0 0;
#X connect 10 0 11 0;
#X connect 10 1 11 1;
#X connect 11 0 9 0;
#X restore 49 185 pd tempo;
#N canvas 331 111 450 300 time-reverse 0;
#X obj 49 100 t b;
#X obj 49 124 f \$1;
#X obj 49 195 symbol;
#X obj 49 219 s player-\$1-last-MIDI-trig-send-name;
#X obj 49 58 spigot;
#X msg 49 164 player-\$1-time-reverse-set;
#X obj 49 26 ctlin 56;
#X obj 160 76 active-player-abs \$1;
#X obj 160 46 r lb1;
#X connect 0 0 1 0;
#X connect 1 0 5 0;
#X connect 2 0 3 0;
#X connect 4 0 0 0;
#X connect 5 0 2 0;
#X connect 6 0 4 0;
#X connect 7 0 4 1;
#X connect 8 0 7 0;
#X restore 49 245 pd time-reverse;
#N canvas 392 141 450 300 interpolation 0;
#X obj 200 105 active-player-abs \$1;
#X obj 200 75 r lb1;
#X obj 88 120 t b;
#X obj 88 144 f \$1;
#X obj 88 78 spigot;
#X obj 88 46 ctlin 24;
#X msg 88 193 player-\$1-interpolation-set;
#X obj 88 246 s player-\$1-last-MIDI-trig-send-name;
#X obj 88 216 symbol;
#X connect 0 0 4 1;
#X connect 1 0 0 0;
#X connect 2 0 3 0;
#X connect 3 0 6 0;
#X connect 4 0 2 0;
#X connect 5 0 4 0;
#X connect 6 0 8 0;
#X connect 8 0 7 0;
#X restore 49 125 pd interpolation;
#N canvas 382 181 609 315 reverb 0;
#X obj 49 90 t b;
#X obj 49 114 f \$1;
#X obj 49 195 symbol;
#X obj 49 219 s player-\$1-last-MIDI-trig-send-name;
#X obj 49 58 spigot;
#X obj 49 26 ctlin 108;
#X msg 49 154 player-\$1-dry-wet-set;
#X obj 410 76 active-player-abs \$1;
#X obj 410 46 r lb1;
#X obj 229 90 t b;
#X obj 229 114 f \$1;
#X obj 229 58 spigot;
#X msg 229 154 player-\$1-rvb-liveness-set;
#X obj 229 26 ctlin 109;
#X connect 0 0 1 0;
#X connect 1 0 6 0;
#X connect 2 0 3 0;
#X connect 4 0 0 0;
#X connect 5 0 4 0;
#X connect 6 0 2 0;
#X connect 7 0 4 1;
#X connect 7 0 11 1;
#X connect 8 0 7 0;
#X connect 9 0 10 0;
#X connect 10 0 12 0;
#X connect 11 0 9 0;
#X connect 12 0 2 0;
#X connect 13 0 11 0;
#X restore 49 65 pd reverb;
#X connect 5 0 1 0;
#X restore 264 254 pd last-MIDI-control-moved;
#X obj 929 199 cnv 15 100 30 empty empty empty 20 12 0 14 -262144 -66577
0;
#N canvas 246 165 794 455 save-and-load-caches 0;
#X msg 43 116 0;
#X obj 163 7 r player-\$1-algo-select;
#X obj 249 277 pack f \$1;
#X obj 111 334 pack f \$1;
#X msg 249 307 \; player-\$2-algo-save-cache \$1 \;;
#X obj 249 249 tabread player-\$1-algo-params;
#X obj 163 123 t f b;
#X obj 43 83 r lb2;
#X msg 249 227 0;
#X msg 111 361 \; player-\$2-algo-load-cache \$1 \;;
#X obj 163 81 spigot;
#X obj 223 81 r player-\$1-algo-select-retrigger-suppress-spigot;
#X text 309 117 it's tempting to consider redesigning this algo select
retrigger suppress strategy. however \, the current method may actually
be the most elegant solution. when loading from a preset \, there is
no way to send the algo ID number to algo-player.pd other than player-\$1-algo-select
\, which causes a stack overflow. one option would be an additional
parallel send name. is that worth it? \;;
#X obj 213 33 r num-algos;
#X obj 163 53 max 0;
#X obj 163 33 moses;
#X connect 0 0 3 0;
#X connect 1 0 15 0;
#X connect 2 0 4 0;
#X connect 3 0 9 0;
#X connect 5 0 2 0;
#X connect 6 0 3 0;
#X connect 6 1 8 0;
#X connect 7 0 0 0;
#X connect 8 0 5 0;
#X connect 10 0 6 0;
#X connect 11 0 10 1;
#X connect 13 0 15 1;
#X connect 14 0 10 0;
#X connect 15 0 14 0;
#X restore 20 271 pd save-and-load-caches;
#N canvas 595 445 1151 581 save-scene 0;
#X obj 717 440 s player-\$1-save-preset;
#X msg 817 251 set \$1;
#X obj 717 409 makefilename notset;
#X obj 719 36 r lb1;
#X obj 719 61 f \$1;
#X obj 719 86 select 0 1 2 3 4 5;
#X msg 719 141 symbol A;
#X msg 799 141 symbol B;
#X obj 63 489 s player-\$1-scene-parameters-table;
#X msg 83 384 set \$1;
#X obj 63 424 makefilename notset;
#X msg 63 449 write \$1;
#X obj 697 64 bng 15 250 50 0 empty empty empty 17 7 0 10 -262144 -1
-1;
#X msg 381 444 set \$1;
#X obj 361 484 makefilename notset;
#X obj 361 509 s player-\$1-save-auto-for-scene;
#X obj 63 57 r player-\$1-save-scene;
#X obj 63 257 symbol;
#X obj 133 207 symbol;
#X obj 203 157 symbol;
#N canvas 764 233 609 503 deal-with-pitch-bend 0;
#X obj 169 236 s player-\$1-pitch-bend-final;
#X msg 169 208 0;
#X text 213 113 must zero out the pitch bend before saving the [algo~]
preset \, otherwise the current bend amount is encoded into the samplerate
setting., f 24;
#X obj 362 368 r player-\$1-pitch-bend-final;
#X floatatom 392 393 5 0 0 0 - - -;
#X obj 344 397 f;
#X obj 419 38 inlet;
#X obj 69 312 f;
#X obj 419 63 t b b;
#X obj 69 38 inlet;
#X obj 69 437 s player-\$1-pitch-bend-final;
#X text 347 427 Store the pitch bend final value before zeroing it
out., f 23;
#X text 34 349 When all saving processes are done \, restore the pitch
bend final value., f 20;
#X connect 1 0 0 0;
#X connect 3 0 4 0;
#X connect 3 0 5 1;
#X connect 5 0 7 1;
#X connect 6 0 8 0;
#X connect 7 0 10 0;
#X connect 8 0 1 0;
#X connect 8 1 5 0;
#X connect 9 0 7 0;
#X restore 344 161 pd deal-with-pitch-bend;
#X obj 63 92 t b a a a b;
#X obj 817 226 makefilename %%s/player-%s-algo-preset;
#X obj 381 419 makefilename %%s/player-%s-automation-data;
#X obj 83 359 makefilename %%s/player-%s-scene-data.txt;
#N canvas 323 144 1124 559 save-scene-for-dup 0;
#X text 877 133 reverse these \, since the player calling for duplication
will be the one to load it in the end, f 26;
#X obj 717 440 s player-\$1-save-preset;
#X msg 817 251 set \$1;
#X obj 717 409 makefilename notset;
#X obj 719 36 r lb1;
#X obj 719 61 f \$1;
#X obj 719 86 select 0 1 2 3 4 5;
#X obj 63 489 s player-\$1-scene-parameters-table;
#X msg 83 384 set \$1;
#X obj 63 424 makefilename notset;
#X msg 63 449 write \$1;
#X obj 697 64 bng 15 250 50 0 empty empty empty 17 7 0 10 -262144 -1
-1;
#X msg 381 444 set \$1;
#X obj 361 484 makefilename notset;
#X obj 361 509 s player-\$1-save-auto-for-scene;
#X obj 63 257 symbol;
#X obj 133 207 symbol;
#X obj 203 157 symbol;
#N canvas 764 233 609 503 deal-with-pitch-bend 0;
#X obj 169 236 s player-\$1-pitch-bend-final;
#X msg 169 208 0;
#X text 213 113 must zero out the pitch bend before saving the [algo~]
preset \, otherwise the current bend amount is encoded into the samplerate
setting., f 24;
#X obj 362 368 r player-\$1-pitch-bend-final;
#X floatatom 392 393 5 0 0 0 - - -;
#X obj 344 397 f;
#X obj 419 38 inlet;
#X obj 69 312 f;
#X obj 419 63 t b b;
#X obj 69 38 inlet;
#X obj 69 437 s player-\$1-pitch-bend-final;
#X text 347 427 Store the pitch bend final value before zeroing it
out., f 23;
#X text 34 349 When all saving processes are done \, restore the pitch
bend final value., f 20;
#X connect 1 0 0 0;
#X connect 3 0 4 0;
#X connect 3 0 5 1;
#X connect 5 0 7 1;
#X connect 6 0 8 0;
#X connect 7 0 10 0;
#X connect 8 0 1 0;
#X connect 8 1 5 0;
#X connect 9 0 7 0;
#X restore 344 161 pd deal-with-pitch-bend;
#X obj 63 92 t b a a a b;
#X obj 817 226 makefilename %%s/player-%s-algo-preset;
#X obj 381 419 makefilename %%s/player-%s-automation-data;
#X obj 83 359 makefilename %%s/player-%s-scene-data.txt;
#X msg 719 141 symbol B;
#X msg 799 141 symbol A;
#X obj 63 57 r player-\$1-save-scene-for-dup;
#X connect 2 0 3 0;
#X connect 3 0 1 0;
#X connect 4 0 5 0;
#X connect 5 0 6 0;
#X connect 6 0 23 0;
#X connect 6 1 24 0;
#X connect 6 2 23 0;
#X connect 6 3 24 0;
#X connect 6 4 23 0;
#X connect 6 5 24 0;
#X connect 8 0 9 0;
#X connect 9 0 10 0;
#X connect 10 0 7 0;
#X connect 11 0 5 0;
#X connect 12 0 13 0;
#X connect 13 0 14 0;
#X connect 15 0 9 0;
#X connect 16 0 13 0;
#X connect 17 0 3 0;
#X connect 19 0 18 0;
#X connect 19 1 15 0;
#X connect 19 2 16 0;
#X connect 19 3 17 0;
#X connect 19 4 18 1;
#X connect 20 0 2 0;
#X connect 21 0 12 0;
#X connect 22 0 8 0;
#X connect 23 0 20 0;
#X connect 23 0 21 0;
#X connect 23 0 22 0;
#X connect 24 0 20 0;
#X connect 24 0 21 0;
#X connect 24 0 22 0;
#X connect 25 0 19 0;
#X restore 418 65 pd save-scene-for-dup;
#X connect 1 0 2 0;
#X connect 2 0 0 0;
#X connect 3 0 4 0;
#X connect 4 0 5 0;
#X connect 5 0 6 0;
#X connect 5 1 7 0;
#X connect 5 2 6 0;
#X connect 5 3 7 0;
#X connect 5 4 6 0;
#X connect 5 5 7 0;
#X connect 6 0 22 0;
#X connect 6 0 23 0;
#X connect 6 0 24 0;
#X connect 7 0 22 0;
#X connect 7 0 23 0;
#X connect 7 0 24 0;
#X connect 9 0 10 0;
#X connect 10 0 11 0;
#X connect 11 0 8 0;
#X connect 12 0 4 0;
#X connect 13 0 14 0;
#X connect 14 0 15 0;
#X connect 16 0 21 0;
#X connect 17 0 10 0;
#X connect 18 0 14 0;
#X connect 19 0 2 0;
#X connect 21 0 20 0;
#X connect 21 1 17 0;
#X connect 21 2 18 0;
#X connect 21 3 19 0;
#X connect 21 4 20 1;
#X connect 22 0 1 0;
#X connect 23 0 13 0;
#X connect 24 0 9 0;
#X restore 564 284 pd save-scene;
#N canvas 724 109 691 251 scene-parameters 0;
#N canvas 144 111 417 633 loading-gates 0;
#X obj 50 35 r player-\$1-load-params;
#X obj 50 60 pack f \$1;
#X msg 50 85 \; player-\$2-scene-parameters-table 0 \$1;
#X obj 50 170 pack f \$1;
#X obj 50 280 pack f \$1;
#X obj 50 390 pack f \$1;
#X obj 50 500 pack f \$1;
#X obj 50 145 r player-\$1-load-bit-depth;
#X msg 50 195 \; player-\$2-scene-parameters-table 1 \$1;
#X msg 50 305 \; player-\$2-scene-parameters-table 2 \$1;
#X msg 50 415 \; player-\$2-scene-parameters-table 3 \$1;
#X msg 50 525 \; player-\$2-scene-parameters-table 4 \$1;
#X obj 50 255 r player-\$1-load-tempo;
#X obj 50 365 r player-\$1-load-time;
#X obj 50 475 r player-\$1-load-interp;
#X connect 0 0 1 0;
#X connect 1 0 2 0;
#X connect 3 0 8 0;
#X connect 4 0 9 0;
#X connect 5 0 10 0;
#X connect 6 0 11 0;
#X connect 7 0 3 0;
#X connect 12 0 4 0;
#X connect 13 0 5 0;
#X connect 14 0 6 0;
#X restore 49 29 pd loading-gates;
#N canvas 178 200 471 420 pitch-bend-and-ASR 0;
#X obj 50 60 pack f \$1;
#X obj 50 35 r player-\$1-asr-kbd;
#X msg 50 85 \; player-\$2-scene-parameters-table 5 \$1;
#X obj 50 170 pack f \$1;
#X obj 50 280 pack f \$1;
#X msg 50 195 \; player-\$2-scene-parameters-table 6 \$1;
#X msg 50 305 \; player-\$2-scene-parameters-table 7 \$1;
#X obj 50 255 r player-\$1-pitch-bend-range;
#X obj 50 145 r player-\$1-pitch-bend;
#X connect 0 0 2 0;
#X connect 1 0 0 0;
#X connect 3 0 5 0;
#X connect 4 0 6 0;
#X connect 7 0 4 0;
#X connect 8 0 3 0;
#X restore 49 59 pd pitch-bend-and-ASR;
#N canvas 0 89 475 553 reverb 0;
#X obj 50 60 pack f \$1;
#X obj 50 170 pack f \$1;
#X obj 50 280 pack f \$1;
#X obj 50 390 pack f \$1;
#X msg 50 85 \; player-\$2-scene-parameters-table 8 \$1;
#X msg 50 195 \; player-\$2-scene-parameters-table 9 \$1;
#X msg 50 415 \; player-\$2-scene-parameters-table 11 \$1;
#X msg 50 305 \; player-\$2-scene-parameters-table 10 \$1;
#X obj 50 35 r player-\$1-dry-wet;
#X obj 50 145 r player-\$1-rvb-liveness;
#X obj 50 255 r player-\$1-rvb-xover;
#X obj 50 365 r player-\$1-rvb-damping;
#X connect 0 0 4 0;
#X connect 1 0 5 0;
#X connect 2 0 7 0;
#X connect 3 0 6 0;
#X connect 8 0 0 0;
#X connect 9 0 1 0;
#X connect 10 0 2 0;
#X connect 11 0 3 0;
#X restore 49 89 pd reverb;
#N canvas 84 192 480 528 spatialization 0;
#X obj 50 60 pack f \$1;
#X obj 50 170 pack f \$1;
#X obj 50 280 pack f \$1;
#X obj 50 390 pack f \$1;
#X msg 50 85 \; player-\$2-scene-parameters-table 12 \$1;
#X msg 50 195 \; player-\$2-scene-parameters-table 13 \$1;
#X msg 50 305 \; player-\$2-scene-parameters-table 14 \$1;
#X msg 50 415 \; player-\$2-scene-parameters-table 15 \$1;
#X obj 50 145 r player-\$1-spat-width;
#X obj 50 35 r player-\$1-spat-pos;
#X obj 50 255 r player-\$1-spat-lfo-type;
#X obj 50 365 r player-\$1-spat-lfo-freq;
#X connect 0 0 4 0;
#X connect 1 0 5 0;
#X connect 2 0 6 0;
#X connect 3 0 7 0;
#X connect 8 0 1 0;
#X connect 9 0 0 0;
#X connect 10 0 2 0;
#X connect 11 0 3 0;
#X restore 49 119 pd spatialization;
#N canvas 259 299 517 312 gain 0;
#X obj 50 60 pack f \$1;
#X msg 50 85 \; player-\$2-scene-parameters-table 16 \$1;
#X obj 50 35 r player-\$1-gain;
#X obj 50 180 pack f \$1;
#X obj 50 155 r player-\$1-mute;
#X msg 50 205 \; player-\$2-scene-parameters-table 17 \$1;
#X connect 0 0 1 0;
#X connect 2 0 0 0;
#X connect 3 0 5 0;
#X connect 4 0 3 0;
#X restore 49 149 pd gain;
#X obj 345 60 table player-\$1-scene-parameters-table 18;
#X restore 564 254 pd scene-parameters;
#N canvas 9 243 959 657 load-scene 0;
#X msg 229 393 set \$1;
#X obj 209 433 makefilename notset;
#X obj 274 11 r lb1;
#X obj 274 36 f \$1;
#X obj 274 61 select 0 1 2 3 4 5;
#X msg 274 116 symbol A;
#X msg 354 116 symbol B;
#X msg 53 526 set \$1;
#X obj 33 566 makefilename notset;
#X obj 33 38 r player-\$1-load-scene;
#X obj 209 464 s player-\$1-load-preset-for-scene;
#X obj 33 591 s player-\$1-load-auto-for-scene;
#N canvas 555 295 733 363 populate 0;
#X obj 37 37 inlet;
#N canvas 157 115 623 548 reverb 0;
#X obj 60 20 inlet;
#X obj 60 495 outlet;
#X obj 279 176 tabread player-\$1-scene-parameters-table;
#X obj 223 245 tabread player-\$1-scene-parameters-table;
#X obj 166 317 tabread player-\$1-scene-parameters-table;
#X obj 116 381 tabread player-\$1-scene-parameters-table;
#X obj 60 45 t b b b b b;
#X msg 279 149 8;
#X msg 223 218 9;
#X msg 166 290 10;
#X msg 116 354 11;
#X obj 279 207 s player-\$1-dry-wet-set;
#X obj 223 276 s player-\$1-rvb-liveness-set;
#X obj 166 348 s player-\$1-rvb-xover-set;
#X obj 116 412 s player-\$1-rvb-damping-set;
#X connect 0 0 6 0;
#X connect 2 0 11 0;
#X connect 3 0 12 0;
#X connect 4 0 13 0;
#X connect 5 0 14 0;
#X connect 6 0 1 0;
#X connect 6 1 10 0;
#X connect 6 2 9 0;
#X connect 6 3 8 0;
#X connect 6 4 7 0;
#X connect 7 0 2 0;
#X connect 8 0 3 0;
#X connect 9 0 4 0;
#X connect 10 0 5 0;
#X restore 37 136 pd reverb;
#N canvas 780 186 632 554 spatialization 0;
#X obj 60 20 inlet;
#X obj 60 495 outlet;
#X obj 279 176 tabread player-\$1-scene-parameters-table;
#X obj 223 245 tabread player-\$1-scene-parameters-table;
#X obj 166 317 tabread player-\$1-scene-parameters-table;
#X obj 116 381 tabread player-\$1-scene-parameters-table;
#X obj 60 45 t b b b b b;
#X msg 279 149 12;
#X msg 223 218 13;
#X msg 166 290 14;
#X msg 116 354 15;
#X obj 279 207 s player-\$1-spat-pos-set;
#X obj 223 276 s player-\$1-spat-width-set;
#X obj 166 348 s player-\$1-spat-lfo-type-set;
#X obj 116 412 s player-\$1-spat-lfo-freq-set;
#X connect 0 0 6 0;
#X connect 2 0 11 0;
#X connect 3 0 12 0;
#X connect 4 0 13 0;
#X connect 5 0 14 0;
#X connect 6 0 1 0;
#X connect 6 1 10 0;
#X connect 6 2 9 0;
#X connect 6 3 8 0;
#X connect 6 4 7 0;
#X connect 7 0 2 0;
#X connect 8 0 3 0;
#X connect 9 0 4 0;
#X connect 10 0 5 0;
#X restore 37 166 pd spatialization;
#N canvas 1155 321 477 413 gain 0;
#X obj 100 142 tabread player-\$1-scene-parameters-table;
#X obj 100 173 s player-\$1-gain-set;
#X msg 100 115 16;
#X obj 50 35 inlet;
#X obj 50 252 tabread player-\$1-scene-parameters-table;
#X msg 50 225 17;
#X obj 50 283 s player-\$1-mute-set;
#X obj 50 60 t b b;
#X connect 0 0 1 0;
#X connect 2 0 0 0;
#X connect 3 0 7 0;
#X connect 4 0 6 0;
#X connect 5 0 4 0;
#X connect 7 0 5 0;
#X connect 7 1 2 0;
#X restore 57 196 pd gain;
#X text 219 58 reproducing the state of the loading gates is problematic.
on one hand \, it seems to be just a matter of making sure to load
the preset data to [algo~] before populating the loading gates with
this data here. but in algo-param-interface-client.pd/[pd recall-parameters]
\, a delay is introduced between loading of the preset in [algo~] and
then requesting settings from [algo~] \, which in turn populates the
GUI controls. this caused some things not to be populated. could figure
it out later \, but really...these loading gates may be more confusing
to scene saving/loading than they're worth.;
#N canvas 43 124 671 552 loading-gates 0;
#X obj 60 20 inlet;
#X obj 60 495 outlet;
#X obj 60 45 t b b b b b b;
#X obj 348 153 tabread player-\$1-scene-parameters-table;
#X msg 348 126 0;
#X obj 292 222 tabread player-\$1-scene-parameters-table;
#X obj 235 294 tabread player-\$1-scene-parameters-table;
#X obj 185 358 tabread player-\$1-scene-parameters-table;
#X obj 134 430 tabread player-\$1-scene-parameters-table;
#X msg 292 195 1;
#X msg 235 267 2;
#X msg 185 331 3;
#X msg 134 403 4;
#X obj 348 184 s player-\$1-load-params-set;
#X obj 292 253 s player-\$1-load-bit-depth-set;
#X obj 235 325 s player-\$1-load-tempo-set;
#X obj 185 389 s player-\$1-load-time-set;
#X obj 134 461 s player-\$1-load-interp-set;
#X connect 0 0 2 0;
#X connect 2 0 1 0;
#X connect 2 1 12 0;
#X connect 2 2 11 0;
#X connect 2 3 10 0;
#X connect 2 4 9 0;
#X connect 2 5 4 0;
#X connect 3 0 13 0;
#X connect 4 0 3 0;
#X connect 5 0 14 0;
#X connect 6 0 15 0;
#X connect 7 0 16 0;
#X connect 8 0 17 0;
#X connect 9 0 5 0;
#X connect 10 0 6 0;
#X connect 11 0 7 0;
#X connect 12 0 8 0;
#X restore 57 71 pd loading-gates;
#X text 55 248 don't load gain \, as loading a scene when you have
the player gain faders down shouldn't make them suddenly audible. we
want to load a scene and fade it in if we want. the only loss here
is that the relative gain of A&B is lost \, but that's a small loss
really. the info is still encoded with the scene data if we want an
option to load it later.;
#N canvas 790 215 576 573 ASR 0;
#X obj 60 20 inlet;
#X obj 60 495 outlet;
#X obj 237 186 tabread player-\$1-scene-parameters-table;
#X msg 237 159 5;
#X obj 237 217 s player-\$1-asr-kbd-set;
#X obj 60 45 t b b;
#X connect 0 0 5 0;
#X connect 2 0 4 0;
#X connect 3 0 2 0;
#X connect 5 0 1 0;
#X connect 5 1 3 0;
#X restore 37 106 pd ASR;
#X connect 0 0 7 0;
#X connect 1 0 2 0;
#X connect 7 0 1 0;
#X restore 127 196 pd populate;
#X obj 470 333 s player-\$1-scene-parameters-table;
#X msg 490 228 set \$1;
#X obj 470 268 makefilename notset;
#X msg 470 293 read \$1;
#X obj 375 201 symbol;
#X obj 33 282 symbol;
#X obj 140 266 symbol;
#N canvas 28 220 637 331 delay-before-auto-start 0;
#X obj 66 22 inlet;
#X obj 66 257 outlet;
#X obj 159 44 r master-block-size;
#X obj 159 98 t f b;
#X obj 159 122 /;
#X obj 209 98 samplerate~;
#X obj 209 122 / 1000;
#X floatatom 159 146 5 0 0 0 - - -;
#X obj 159 68 * 2;
#X text 326 82 delay by double the DSP sub-block size before starting
automation because there's a delay of one block between loading a preset
in [algo~] and requesting its settings to populate the GUI \, and automation
relies on data from GUI., f 34;
#X obj 66 152 delay;
#X connect 0 0 10 0;
#X connect 2 0 8 0;
#X connect 3 0 4 0;
#X connect 3 1 5 0;
#X connect 4 0 7 0;
#X connect 4 0 10 1;
#X connect 5 0 6 0;
#X connect 6 0 4 1;
#X connect 8 0 3 0;
#X connect 10 0 1 0;
#X restore 33 165 pd delay-before-auto-start;
#X obj 522 529 s player-\$1-pitch-bend-final;
#X msg 522 501 0;
#X text 536 561 must zero out the pitch bend before loading the [algo~]
preset \, otherwise the current bend amount is encoded into the samplerate
setting., f 39;
#X obj 582 476 s player-\$1-suppress-pitch-bend-final;
#X msg 582 448 1;
#X obj 201 558 s player-\$1-suppress-pitch-bend-final;
#X msg 201 530 0;
#X obj 33 75 t b a a b b b a b;
#X obj 491 134 s player-\$1-automation-killall-set;
#X text 498 77 automation must be killed first \, or the params of
the algo preset won't be loaded if there's any current automation happening.
;
#N canvas 770 199 626 484 populate-pitch-bend 0;
#X obj 60 20 inlet;
#X obj 60 397 tabread player-\$1-scene-parameters-table;
#X obj 133 239 tabread player-\$1-scene-parameters-table;
#X msg 60 370 6;
#X msg 133 212 7;
#X obj 60 428 s player-\$1-pitch-bend-set;
#X obj 133 270 s player-\$1-pitch-bend-range-set;
#X text 201 142 Range must be set before bend goes through. there's
a cold/hot inlet situation involved., f 35;
#X obj 60 45 t b b;
#X obj 133 300 s player-\$1-pitch-bend-range-scene-load-special-case
;
#X text 137 326 Need to send this as a special case \, because otherwise
the pitch bend range value is blocked on the inactive player.;
#X connect 0 0 8 0;
#X connect 1 0 5 0;
#X connect 2 0 6 0;
#X connect 2 0 9 0;
#X connect 3 0 1 0;
#X connect 4 0 2 0;
#X connect 8 0 3 0;
#X connect 8 1 4 0;
#X restore 60 337 pd populate-pitch-bend;
#X obj 33 214 t b b b;
#X obj 490 203 makefilename %%s/player-%s-scene-data.txt;
#X obj 229 368 makefilename %%s/player-%s-algo-preset;
#X obj 53 501 makefilename %%s/player-%s-automation-data.wav;
#X connect 0 0 1 0;
#X connect 1 0 10 0;
#X connect 2 0 3 0;
#X connect 3 0 4 0;
#X connect 4 0 5 0;
#X connect 4 1 6 0;
#X connect 4 2 5 0;
#X connect 4 3 6 0;
#X connect 4 4 5 0;
#X connect 4 5 6 0;
#X connect 5 0 33 0;
#X connect 5 0 34 0;
#X connect 5 0 35 0;
#X connect 6 0 33 0;
#X connect 6 0 34 0;
#X connect 6 0 35 0;
#X connect 7 0 8 0;
#X connect 8 0 11 0;
#X connect 9 0 28 0;
#X connect 14 0 15 0;
#X connect 15 0 16 0;
#X connect 16 0 13 0;
#X connect 17 0 15 0;
#X connect 18 0 8 0;
#X connect 19 0 1 0;
#X connect 20 0 32 0;
#X connect 22 0 21 0;
#X connect 25 0 24 0;
#X connect 27 0 26 0;
#X connect 28 0 20 0;
#X connect 28 1 18 1;
#X connect 28 2 19 0;
#X connect 28 3 22 0;
#X connect 28 4 25 0;
#X connect 28 5 12 0;
#X connect 28 6 17 0;
#X connect 28 7 29 0;
#X connect 32 0 18 0;
#X connect 32 1 31 0;
#X connect 32 2 27 0;
#X connect 33 0 14 0;
#X connect 34 0 0 0;
#X connect 35 0 7 0;
#X restore 564 314 pd load-scene;
#N canvas 855 589 366 299 label-A-or-B 0;
#X obj 81 33 r lb1;
#X obj 81 58 f \$1;
#X obj 81 83 select 0 1 2 3 4 5;
#X obj 81 161 list prepend label;
#X msg 81 138 A;
#X msg 161 138 B;
#X obj 81 184 list trim;
#X obj 81 224 s cci-\$1-label-set;
#X connect 0 0 1 0;
#X connect 1 0 2 0;
#X connect 2 0 4 0;
#X connect 2 1 5 0;
#X connect 2 2 4 0;
#X connect 2 3 5 0;
#X connect 2 4 4 0;
#X connect 2 5 5 0;
#X connect 3 0 6 0;
#X connect 4 0 3 0;
#X connect 5 0 3 0;
#X connect 6 0 7 0;
#X restore 774 254 pd label-A-or-B;
#N canvas 819 544 955 303 duplicate-alt 0;
#X obj 45 51 f \$1;
#X obj 45 74 select 0 1 2 3 4 5;
#X msg 45 117 1;
#X msg 85 117 0;
#X msg 125 117 3;
#X msg 165 117 2;
#X msg 205 117 5;
#X msg 245 117 4;
#X obj 45 150 pack f \$1;
#X msg 45 180 \; player-\$1-save-auto-for-dup bang \; player-\$2-load-auto-for-dup
bang \;;
#X obj 685 115 pdcontrol;
#X msg 685 81 dir 0 ../;
#X obj 405 51 f \$1;
#X obj 405 74 select 0 1 2 3 4 5;
#X msg 405 117 1;
#X msg 445 117 0;
#X msg 485 117 3;
#X msg 525 117 2;
#X msg 565 117 5;
#X msg 605 117 4;
#X obj 405 28 r player-\$1-dup-scene-alt;
#X obj 45 28 r player-\$1-dup-auto-alt;
#X obj 685 45 r lb1;
#X obj 405 150 pack f \$1 s;
#X obj 685 150 makefilename %s/scenes/zzzDupScene;
#X msg 405 173 \; player-\$1-save-scene-for-dup \$3 \; player-\$2-load-scene
symbol \$3 \;;
#X text 660 189 The saving process swaps the A/B labels so that the
alternate player's scene data can be loaded by this player. Hence \,
we use a normal player-\$2-load-scene here. Note that we need to cast
the path to the scene folder as a symbol \, since that isn't done at
the receive., f 41;
#X connect 0 0 1 0;
#X connect 1 0 2 0;
#X connect 1 1 3 0;
#X connect 1 2 4 0;
#X connect 1 3 5 0;
#X connect 1 4 6 0;
#X connect 1 5 7 0;
#X connect 2 0 8 0;
#X connect 3 0 8 0;
#X connect 4 0 8 0;
#X connect 5 0 8 0;
#X connect 6 0 8 0;
#X connect 7 0 8 0;
#X connect 8 0 9 0;
#X connect 10 0 24 0;
#X connect 11 0 10 0;
#X connect 12 0 13 0;
#X connect 13 0 14 0;
#X connect 13 1 15 0;
#X connect 13 2 16 0;
#X connect 13 3 17 0;
#X connect 13 4 18 0;
#X connect 13 5 19 0;
#X connect 14 0 23 0;
#X connect 15 0 23 0;
#X connect 16 0 23 0;
#X connect 17 0 23 0;
#X connect 18 0 23 0;
#X connect 19 0 23 0;
#X connect 20 0 12 0;
#X connect 21 0 0 0;
#X connect 22 0 11 0;
#X connect 23 0 25 0;
#X connect 24 0 23 2;
#X restore 774 284 pd duplicate-alt;
#N canvas 866 117 721 557 player-notifications 0;
#N canvas 1216 525 422 385 RGB 0;
#X obj 32 36 inlet;
#X obj 109 327 outlet;
#X text 49 95 red;
#X text 119 97 green;
#X text 191 97 blue;
#X obj 175 145 t b f;
#X obj 109 203 +;
#X obj 109 228 t b f;
#X obj 109 259 +;
#X obj 109 123 * -256;
#X obj 175 123 * -1;
#X obj 109 290 - 1;
#X obj 32 60 unpack f f f;
#X obj 32 122 * -65536;
#X obj 248 72 i;
#X floatatom 248 96 5 0 0 0 - - -;
#X obj 272 122 i;
#X floatatom 272 146 5 0 0 0 - - -;
#X obj 307 172 i;
#X floatatom 307 196 5 0 0 0 - - -;
#X obj 231 12 hsl 128 15 0 255 0 0 empty empty empty -2 -8 0 10 -262144
-1 -1 0 1;
#X obj 241 32 hsl 128 15 0 255 0 0 empty empty empty -2 -8 0 10 -262144
-1 -1 0 1;
#X obj 251 52 hsl 128 15 0 255 0 0 empty empty empty -2 -8 0 10 -262144
-1 -1 0 1;
#X connect 0 0 12 0;
#X connect 5 0 6 0;
#X connect 5 1 6 1;
#X connect 6 0 7 0;
#X connect 7 0 8 0;
#X connect 7 1 8 1;
#X connect 8 0 11 0;
#X connect 9 0 6 0;
#X connect 10 0 5 0;
#X connect 11 0 1 0;
#X connect 12 0 13 0;
#X connect 12 1 9 0;
#X connect 12 2 10 0;
#X connect 13 0 8 0;
#X connect 14 0 15 0;
#X connect 14 0 13 0;
#X connect 16 0 17 0;
#X connect 16 0 9 0;
#X connect 18 0 19 0;
#X connect 18 0 10 0;
#X connect 20 0 14 0;
#X connect 21 0 16 0;
#X connect 22 0 18 0;
#X restore 32 391 pd RGB;
#X obj 32 415 list prepend color;
#X obj 32 449 list trim;
#X msg 32 255 255 255 255;
#X msg 217 255 label;
#X obj 217 402 s player-\$1-notification-canvas-set;
#X obj 32 479 s player-\$1-notification-canvas-set;
#X msg 52 285 160 160 255;
#X obj 32 25 r midi-suppress;
#X obj 182 25 r midi-broadcast;
#X msg 247 285 label suppressing-MIDI-input...;
#X msg 277 315 label broadcasting-MIDI-input...;
#X msg 82 315 160 220 255;
#X obj 182 48 t b f b;
#X msg 452 127 1;
#X msg 412 127 0;
#X obj 32 48 t b f b;
#N canvas 100 471 898 482 make-choice 0;
#X obj 64 38 inlet;
#X obj 64 408 outlet;
#X obj 204 408 outlet;
#X obj 354 408 outlet;
#X msg 64 104 0;
#X msg 324 104 1;
#X obj 64 320 choice;
#X obj 324 127 tabread \$0-player-notice-states;
#X obj 64 127 tabread \$0-player-notice-states;
#X obj 494 408 outlet;
#X obj 64 150 pack f f f;
#X obj 574 127 tabread \$0-player-notice-states;
#X msg 574 104 2;
#X obj 64 61 t b b b;
#N canvas 415 148 529 300 possible-outcomes 0;
#X text 59 40 0 0 0: outlet 0 \; 1 0 0: outlet 1 \; 0 1 0: outlet 2
\; 0 0 1: outlet 3 \; 1 1 0: outlet 1 \; 0 1 1: outlet 3 \; 1 0 1:
outlet 1 \; 1 1 1: outlet 1 \;;
#X text 247 74 If suppress is active \, always show the suppress warning
, f 21;
#X text 209 162 0: label OFF \; 1: suppress MIDI \; 2: broadcast MIDI
\; 3: recording automation data \;;
#X restore 614 249 pd possible-outcomes;
#X msg 111 209 clear \, add 0 0 0 \, add 1 0 0 \, add 0 1 0 \, add
0 0 1 \, add 1 1 0 \, add 0 1 1 \, add 1 0 1 \, add 1 1 1, f 50;
#X obj 64 343 select -1 1 2 3 4 5 6 7, f 69;
#X obj 111 180 r lb1;
#X connect 0 0 13 0;
#X connect 4 0 8 0;
#X connect 5 0 7 0;
#X connect 6 0 16 0;
#X connect 7 0 10 1;
#X connect 8 0 10 0;
#X connect 10 0 6 0;
#X connect 11 0 10 2;
#X connect 12 0 11 0;
#X connect 13 0 4 0;
#X connect 13 1 5 0;
#X connect 13 2 12 0;
#X connect 15 0 6 0;
#X connect 16 0 1 0;
#X connect 16 1 2 0;
#X connect 16 2 3 0;
#X connect 16 3 9 0;
#X connect 16 4 2 0;
#X connect 16 5 9 0;
#X connect 16 6 2 0;
#X connect 16 7 2 0;
#X connect 17 0 15 0;
#X restore 32 202 pd make-choice;
#X obj 205 158 tabwrite \$0-player-notice-states;
#X msg 492 127 2;
#X obj 352 48 t b f b;
#X obj 352 25 r player-\$1-auto-rec;
#X msg 307 345 label recording-automation-data...;
#X msg 112 345 255 160 160;
#X obj 449 217 table \$0-player-notice-states 3;
#N canvas 306 117 834 297 clear-auto-rec 0;
#X obj 46 62 inlet;
#X text 275 54 just in case the MIDI suppress function suppressed the
release of the automation recording button \, we should force auto
rec to OFF as a special case., f 25;
#X obj 136 145 f \$1;
#X msg 136 168 \; player-\$1-auto-rec-set 0 \;;
#X obj 46 85 t b b;
#X obj 46 158 outlet;
#X text 362 177 this didn't work out because it triggered re-start
of automation playback for the most recent auto voice every time MIDI
suppress is activated or de-activated. if we really want this \, we
should test that it's a release of MIDI suppress && that auto rec is
currently active. in that case \, it's probably safe to force auto
rec to OFF.;
#X connect 0 0 4 0;
#X connect 2 0 3 0;
#X connect 4 0 5 0;
#X connect 4 1 2 0;
#X restore 12 122 pd clear-auto-rec;
#X connect 0 0 1 0;
#X connect 1 0 2 0;
#X connect 2 0 6 0;
#X connect 3 0 0 0;
#X connect 4 0 5 0;
#X connect 7 0 0 0;
#X connect 8 0 16 0;
#X connect 9 0 13 0;
#X connect 10 0 5 0;
#X connect 11 0 5 0;
#X connect 12 0 0 0;
#X connect 13 0 17 0;
#X connect 13 1 18 0;
#X connect 13 2 14 0;
#X connect 14 0 18 1;
#X connect 15 0 18 1;
#X connect 16 0 17 0;
#X connect 16 1 18 0;
#X connect 16 2 15 0;
#X connect 17 0 3 0;
#X connect 17 0 4 0;
#X connect 17 1 7 0;
#X connect 17 1 10 0;
#X connect 17 2 12 0;
#X connect 17 2 11 0;
#X connect 17 3 22 0;
#X connect 17 3 23 0;
#X connect 19 0 18 1;
#X connect 20 0 17 0;
#X connect 20 1 18 0;
#X connect 20 2 19 0;
#X connect 21 0 20 0;
#X connect 22 0 5 0;
#X connect 23 0 0 0;
#X restore 264 314 pd player-notifications;
#X coords 0 -1 1 1 1010 210 2 20 20;
#X restore 10 6 pd panel;
#X obj 351 10 cnv 15 16 16 empty cci-\$1-label-set A 5 10 0 14 -262144
-1 0;
