#N canvas 546 94 1177 360 12;
#X obj 62 15 control-panel-abs \$1;
#N canvas 632 416 1023 330 algo-param-interfaces-subpatch-\$1 0;
#X obj 50 50 algo-param-interface-client 0 0;
#X coords 0 -1 1 1 650 160 2 50 50;
#X restore 472 15 pd algo-param-interfaces-subpatch-\$1;
#N canvas 1006 264 761 666 netpreps 0;
#N canvas 134 106 186 317 player-\$1-algo-netpreps 0;
#N canvas 1367 156 407 413 algo-0 0;
#X obj 98 48 netprep player-\$1-algo-0-param-0;
#X obj 98 78 netprep player-\$1-algo-0-param-1;
#X obj 98 108 netprep player-\$1-algo-0-param-2;
#X obj 98 138 netprep player-\$1-algo-0-param-3;
#X obj 98 168 netprep player-\$1-algo-0-param-4;
#X obj 98 198 netprep player-\$1-algo-0-param-5;
#X obj 98 228 netprep player-\$1-algo-0-param-6;
#X obj 98 258 netprep player-\$1-algo-0-param-7;
#X obj 98 288 netprep player-\$1-algo-0-param-8;
#X obj 98 318 netprep player-\$1-algo-0-param-9;
#X restore 53 56 pd algo-0;
#N canvas 1367 156 407 413 algo-1 0;
#X obj 98 48 netprep player-\$1-algo-1-param-0;
#X obj 98 78 netprep player-\$1-algo-1-param-1;
#X obj 98 108 netprep player-\$1-algo-1-param-2;
#X obj 98 138 netprep player-\$1-algo-1-param-3;
#X obj 98 168 netprep player-\$1-algo-1-param-4;
#X obj 98 198 netprep player-\$1-algo-1-param-5;
#X obj 98 228 netprep player-\$1-algo-1-param-6;
#X obj 98 258 netprep player-\$1-algo-1-param-7;
#X obj 98 288 netprep player-\$1-algo-1-param-8;
#X obj 98 318 netprep player-\$1-algo-1-param-9;
#X restore 53 86 pd algo-1;
#N canvas 1367 156 407 413 algo-2 0;
#X obj 98 48 netprep player-\$1-algo-2-param-0;
#X obj 98 78 netprep player-\$1-algo-2-param-1;
#X obj 98 108 netprep player-\$1-algo-2-param-2;
#X obj 98 138 netprep player-\$1-algo-2-param-3;
#X obj 98 168 netprep player-\$1-algo-2-param-4;
#X obj 98 198 netprep player-\$1-algo-2-param-5;
#X obj 98 228 netprep player-\$1-algo-2-param-6;
#X obj 98 258 netprep player-\$1-algo-2-param-7;
#X obj 98 288 netprep player-\$1-algo-2-param-8;
#X obj 98 318 netprep player-\$1-algo-2-param-9;
#X restore 53 116 pd algo-2;
#N canvas 1367 156 407 413 algo-3 0;
#X obj 98 48 netprep player-\$1-algo-3-param-0;
#X obj 98 78 netprep player-\$1-algo-3-param-1;
#X obj 98 108 netprep player-\$1-algo-3-param-2;
#X obj 98 138 netprep player-\$1-algo-3-param-3;
#X obj 98 168 netprep player-\$1-algo-3-param-4;
#X obj 98 198 netprep player-\$1-algo-3-param-5;
#X obj 98 228 netprep player-\$1-algo-3-param-6;
#X obj 98 258 netprep player-\$1-algo-3-param-7;
#X obj 98 288 netprep player-\$1-algo-3-param-8;
#X obj 98 318 netprep player-\$1-algo-3-param-9;
#X restore 53 146 pd algo-3;
#N canvas 1367 156 407 413 algo-4 0;
#X obj 98 48 netprep player-\$1-algo-4-param-0;
#X obj 98 78 netprep player-\$1-algo-4-param-1;
#X obj 98 108 netprep player-\$1-algo-4-param-2;
#X obj 98 138 netprep player-\$1-algo-4-param-3;
#X obj 98 168 netprep player-\$1-algo-4-param-4;
#X obj 98 198 netprep player-\$1-algo-4-param-5;
#X obj 98 228 netprep player-\$1-algo-4-param-6;
#X obj 98 258 netprep player-\$1-algo-4-param-7;
#X obj 98 288 netprep player-\$1-algo-4-param-8;
#X obj 98 318 netprep player-\$1-algo-4-param-9;
#X restore 53 176 pd algo-4;
#X restore 463 179 pd player-\$1-algo-netpreps;
#X obj 57 41 netprep-withSet player-\$1-gain;
#X obj 57 75 netprep-withSet player-\$1-spat-pos;
#X obj 57 100 netprep-withSet player-\$1-spat-width;
#X obj 57 135 netprep-withSet player-\$1-algo-select;
#X obj 57 171 netprep-withSet player-\$1-bitDepth;
#X obj 57 205 netprep-withSet player-\$1-dry;
#X obj 57 230 netprep-withSet player-\$1-wet;
#X obj 57 255 netprep-withSet player-\$1-rvb-liveness;
#X obj 57 279 netprep-withSet player-\$1-rvb-xover;
#X obj 57 303 netprep-withSet player-\$1-rvb-damping;
#X obj 57 373 netprep-withSet player-\$1-tempo;
#X obj 57 343 netprep-withSet player-\$1-blockSize;
#X obj 57 433 netprep-withSet player-\$1-tempo-sync;
#X obj 56 464 netprep-withSet player-\$1-time-sync;
#X obj 57 403 netprep-withSet player-\$1-compute;
#X obj 56 494 netprep-withSet player-\$1-interpolation;
#X restore 62 196 pd netpreps;
#N canvas 342 266 640 564 algo-cache-stuff 0;
#X obj 270 172 i;
#X obj 163 113 t f f f b b;
#X msg 28 97 0;
#X obj 28 124 t f f f b;
#X obj 163 37 r player-\$1-algo-select;
#X msg 254 317 \; pd-algo-param-interfaces-subpatch-\$1 clear \;;
#X obj 254 289 f \$1;
#X msg 270 226 \; player-\$2-algo-\$1-save-cache bang \;;
#X obj 270 196 pack f \$1;
#X obj 165 341 pack f \$1;
#X msg 165 372 \; pd-algo-param-interfaces-subpatch-\$2 obj 50 50 algo-param-interface-client
\$2 \$1 \;;
#X obj 75 421 pack f \$1;
#X msg 75 448 \; player-\$2-algo-\$1-load-cache bang \; player-\$2-param-interface-init
bang \;;
#X obj 28 64 r lb1;
#X connect 0 0 8 0;
#X connect 1 0 0 1;
#X connect 1 1 11 0;
#X connect 1 2 9 0;
#X connect 1 3 6 0;
#X connect 1 4 0 0;
#X connect 2 0 3 0;
#X connect 3 0 0 1;
#X connect 3 1 11 0;
#X connect 3 2 9 0;
#X connect 3 3 6 0;
#X connect 4 0 1 0;
#X connect 6 0 5 0;
#X connect 8 0 7 0;
#X connect 9 0 10 0;
#X connect 11 0 12 0;
#X connect 13 0 2 0;
#X restore 62 226 pd algo-cache-stuff;
#N canvas 1069 326 516 566 keyboard-commands 0;
#X obj 105 152 key;
#X text 74 439 =: randomize all \; [ \, ]: load \, save \; 1/q/a: inc/dec/rand
for p0 \; 2/w/s: inc/dec/rand for p1 \; etc \;;
#X obj 182 176 r player-\$1-kbd-control;
#X text 90 31 </>: bitDepth inc/dec \; z: compute toggle \; x: interp
toggle \; c \, v \, b \, n \, m: tempoSync to 0-4 \; space: timeSync
to most recently tempoSync'd player;
#N canvas 327 384 615 322 bitDepth 0;
#X obj 346 168 f;
#X obj 386 172 + 1;
#X obj 86 168 f;
#X obj 126 172 - 1;
#X obj 120 120 r player-\$1-bitDepth;
#X obj 380 120 r player-\$1-bitDepth;
#X obj 275 266 s player-\$1-bitDepth-set;
#X obj 86 48 inlet;
#X obj 86 72 select 44 46;
#X obj 216 72 outlet;
#X obj 205 230 moses 1;
#X obj 275 230 moses 33;
#X connect 0 0 1 0;
#X connect 1 0 0 1;
#X connect 1 0 10 0;
#X connect 2 0 3 0;
#X connect 3 0 2 1;
#X connect 3 0 10 0;
#X connect 4 0 2 1;
#X connect 5 0 0 1;
#X connect 7 0 8 0;
#X connect 8 0 2 0;
#X connect 8 1 0 0;
#X connect 8 2 9 0;
#X connect 10 1 11 0;
#X connect 11 0 6 0;
#X restore 105 208 pd bitDepth;
#N canvas 413 349 615 322 compute 0;
#X obj 86 168 f;
#X obj 86 48 inlet;
#X obj 216 72 outlet;
#X obj 86 72 select 122;
#X obj 86 222 s player-\$1-compute-set;
#X obj 146 120 r player-\$1-compute;
#X obj 146 162 + 1;
#X obj 146 186 % 2;
#X connect 0 0 4 0;
#X connect 0 0 6 0;
#X connect 1 0 3 0;
#X connect 3 0 0 0;
#X connect 3 1 2 0;
#X connect 5 0 6 0;
#X connect 6 0 7 0;
#X connect 7 0 0 1;
#X restore 105 238 pd compute;
#N canvas 343 151 615 322 interp 0;
#X obj 86 48 inlet;
#X obj 216 72 outlet;
#X obj 86 168 f;
#X obj 146 162 + 1;
#X obj 146 186 % 2;
#X obj 86 72 select 120;
#X obj 146 120 r player-\$1-interpolation;
#X obj 86 221 s player-\$1-interpolation-set;
#X connect 0 0 5 0;
#X connect 2 0 3 0;
#X connect 2 0 7 0;
#X connect 3 0 4 0;
#X connect 4 0 2 1;
#X connect 5 0 2 0;
#X connect 5 1 1 0;
#X connect 6 0 3 0;
#X restore 105 268 pd interp;
#N canvas 343 151 615 322 tempoSync 0;
#X obj 86 48 inlet;
#X obj 326 72 outlet;
#X obj 86 72 select 99 118 98 110 109;
#X msg 86 126 0;
#X msg 126 126 1;
#X msg 166 126 2;
#X msg 206 126 3;
#X msg 246 126 4;
#X obj 86 222 s player-\$1-tempo-sync-set;
#X connect 0 0 2 0;
#X connect 2 0 3 0;
#X connect 2 1 4 0;
#X connect 2 2 5 0;
#X connect 2 3 6 0;
#X connect 2 4 7 0;
#X connect 2 5 1 0;
#X connect 3 0 8 0;
#X connect 4 0 8 0;
#X connect 5 0 8 0;
#X connect 6 0 8 0;
#X connect 7 0 8 0;
#X restore 105 298 pd tempoSync;
#N canvas 343 151 615 322 timeSync 0;
#X obj 86 48 inlet;
#X obj 216 72 outlet;
#X obj 86 72 select 32;
#X obj 126 141 r player-\$1-tempo-sync;
#X obj 86 142 f;
#X obj 86 193 s player-\$1-time-sync-set;
#X connect 0 0 2 0;
#X connect 2 0 4 0;
#X connect 2 1 1 0;
#X connect 3 0 4 1;
#X connect 4 0 5 0;
#X restore 105 328 pd timeSync;
#X obj 105 176 spigot;
#X connect 0 0 9 0;
#X connect 2 0 9 1;
#X connect 4 0 5 0;
#X connect 5 0 6 0;
#X connect 6 0 7 0;
#X connect 7 0 8 0;
#X connect 9 0 4 0;
#X restore 62 256 pd keyboard-commands;
#N canvas 132 487 1007 282 MIDI 0;
#N canvas 779 160 790 547 keyboard-tempo 0;
#X obj 96 64 notein;
#X obj 348 168 bendin;
#X obj 348 281 select 8192;
#X msg 348 305 0;
#X obj 458 281 moses 8193;
#X obj 528 305 - 8193;
#X obj 458 305 - 8191;
#X obj 458 329 / 8191;
#X obj 528 329 / 8190;
#X obj 96 118 stripnote;
#X obj 429 373 * 1;
#X obj 593 342 / 127;
#X obj 593 390 + 1;
#X obj 593 366 * 100;
#X obj 429 397 t b f;
#X obj 96 88 spigot;
#X obj 172 88 == \$1;
#X obj 172 58 - 1;
#X text 236 57 << MIDI channels start at 1 \, our player indices start
at 0, f 30;
#X obj 348 235 spigot;
#X obj 424 235 == \$1;
#X obj 424 205 - 1;
#X obj 593 308 spigot;
#X obj 669 308 == \$1;
#X obj 669 278 - 1;
#X obj 593 270 ctlin 1;
#X obj 96 316 +;
#X obj 96 440 s player-\$1-tempo-set;
#X text 553 224 set the range of the tempo bend with the mod wheel
, f 29;
#X obj 96 340 max 1;
#X obj 96 142 mtof;
#X obj 96 166 /;
#X obj 142 146 r lb1;
#X msg 142 170 60;
#X obj 142 194 mtof;
#X text 182 169 << middle C is base tempo \, with tempo octaves at
octaves of C, f 16;
#X obj 96 210 *;
#X floatatom 126 244 10 0 0 0 - - -;
#X obj 96 364 min 240;
#X floatatom 126 388 10 0 0 0 - - -;
#X connect 0 0 15 0;
#X connect 0 1 9 1;
#X connect 0 2 17 0;
#X connect 1 0 19 0;
#X connect 1 1 21 0;
#X connect 2 0 3 0;
#X connect 2 1 4 0;
#X connect 3 0 10 0;
#X connect 4 0 6 0;
#X connect 4 1 5 0;
#X connect 5 0 8 0;
#X connect 6 0 7 0;
#X connect 7 0 10 0;
#X connect 8 0 10 0;
#X connect 9 0 30 0;
#X connect 10 0 14 0;
#X connect 11 0 13 0;
#X connect 12 0 10 1;
#X connect 13 0 12 0;
#X connect 14 0 26 0;
#X connect 14 1 26 1;
#X connect 15 0 9 0;
#X connect 16 0 15 1;
#X connect 17 0 16 0;
#X connect 19 0 2 0;
#X connect 20 0 19 1;
#X connect 21 0 20 0;
#X connect 22 0 11 0;
#X connect 23 0 22 1;
#X connect 24 0 23 0;
#X connect 25 0 22 0;
#X connect 25 1 24 0;
#X connect 26 0 29 0;
#X connect 29 0 38 0;
#X connect 30 0 31 0;
#X connect 31 0 36 0;
#X connect 32 0 33 0;
#X connect 33 0 34 0;
#X connect 33 0 36 1;
#X connect 34 0 31 1;
#X connect 36 0 37 0;
#X connect 36 0 26 0;
#X connect 38 0 39 0;
#X connect 38 0 27 0;
#X restore 73 21 pd keyboard-tempo;
#X obj 73 71 fadermap player-\$1-gain 102 \$1 40 60 player-\$1-gain-set
0 1;
#X obj 73 101 fadermap player-\$1-bitDepth 103 \$1 0 1 player-\$1-spat-pos-set
0 1;
#X obj 73 191 fadermap player-\$1-tempo 105 \$1 1 239 player-\$1-tempo-set
1 1;
#X obj 73 141 fadermap player-\$1-bitDepth 104 \$1 1 31 player-\$1-bitDepth-set
1 1;
#X obj 553 71 fadermap player-\$1-dry 106 \$1 0 100 player-\$1-dry-set
1 1;
#X obj 553 101 fadermap player-\$1-wet 107 \$1 0 100 player-\$1-wet-set
1 1;
#X obj 553 131 fadermap player-\$1-rvb-liveness 108 \$1 0 100 player-\$1-rvb-liveness-set
1 1;
#X obj 553 171 fadermap player-\$1-rvb-damping 109 \$1 0 100 player-\$1-rvb-damping-set
1 1;
#X restore 62 286 pd MIDI;
