#N canvas 870 492 786 405 16;
#X declare -path ../src;
#X declare -lib zexy;
#X declare -path ./audio-over-ip;
#N canvas 167 216 1371 679 init 0;
#X obj 30 52 t b b b b;
#X obj 30 186 s lb4;
#X obj 120 96 s lb1;
#X obj 90 126 s lb2;
#X obj 60 156 s lb3;
#X obj 30 18 r net-connect-init;
#X obj 912 339 r lb1;
#X msg 912 373 \; netprep-init bang \;;
#X obj 43 346 r lb1;
#X obj 43 406 text define midiNoteNames;
#X msg 43 375 read -c ../data/midiNoteNames.txt;
#X obj 766 488 declare -path ../src;
#X obj 285 26 r lb1;
#X obj 285 55 t b b;
#X obj 285 233 s num-algos;
#X msg 345 115 read -c ../data/outputAlgorithms.txt;
#X obj 345 146 text define outputAlgorithms;
#X obj 285 204 text size outputAlgorithms;
#X obj 781 67 r lb1;
#X obj 851 17 r lb1;
#X obj 851 46 f \$1;
#X msg 781 136 \; player-\$1-automation-killall bang \;;
#X msg 851 86 \; player-\$1-automation-killall bang \;;
#X obj 781 96 f \$2;
#X obj 78 471 r lb4;
#X msg 78 500 \; pd dsp 1 \;;
#X text 207 467 DSP must be on for the client in order for the local
[algo~] objects to compute time properly when loading presets., f
38;
#X obj 580 331 r lb2;
#X obj 698 216 loadbang;
#X obj 698 304 print -n;
#N canvas 655 225 616 493 list-preset-file-names 0;
#X obj 48 46 inlet;
#X msg 330 219 clear;
#X obj 330 411 s preset-dropdown-items;
#X obj 185 312 list prepend add;
#X obj 185 353 list trim;
#X obj 128 43 r preset-dropdown-update;
#X obj 48 213 hcs/folder_list;
#X obj 48 172 pdcontrol;
#X obj 48 253 hcs/split_path;
#X msg 48 143 dir 0 ../algo-presets/*;
#X obj 48 92 t b b;
#X connect 0 0 10 0;
#X connect 1 0 2 0;
#X connect 3 0 4 0;
#X connect 4 0 2 0;
#X connect 5 0 10 0;
#X connect 6 0 8 0;
#X connect 7 0 6 0;
#X connect 8 1 3 0;
#X connect 9 0 7 0;
#X connect 10 0 9 0;
#X connect 10 1 1 0;
#X restore 580 376 pd list-preset-file-names;
#N canvas 383 255 508 463 set-default-IP 0;
#X obj 49 39 loadbang;
#X obj 109 366 s master-ip-address-set;
#X obj 109 294 textfile;
#X obj 109 323 symbol;
#X msg 109 246 read ../data/\$1 \, rewind \, bang;
#X obj 109 150 makefilename IPdefault-%d%%d.txt;
#X msg 109 179 set \$1;
#X obj 109 208 makefilename notset;
#X obj 109 119 f \$1;
#X obj 49 119 f \$2;
#X obj 49 68 t b b;
#X connect 0 0 10 0;
#X connect 2 0 3 0;
#X connect 3 0 1 0;
#X connect 4 0 2 0;
#X connect 5 0 6 0;
#X connect 6 0 7 0;
#X connect 7 0 4 0;
#X connect 8 0 5 0;
#X connect 9 0 7 0;
#X connect 10 0 9 0;
#X connect 10 1 8 0;
#X restore 189 302 pd set-default-IP;
#X obj 766 458 declare -lib zexy;
#X msg 698 245 client-player-abs.pd dependencies: hcs | motex | tof
| zexy 2.3.1;
#X obj 766 518 declare -path ./audio-over-ip;
#X obj 629 522 r lb1;
#X obj 629 551 f \$0;
#X msg 629 591 \; quack-panel-\$1 delay 50 \;;
#X connect 0 0 1 0;
#X connect 0 1 4 0;
#X connect 0 2 3 0;
#X connect 0 3 2 0;
#X connect 5 0 0 0;
#X connect 6 0 7 0;
#X connect 8 0 10 0;
#X connect 10 0 9 0;
#X connect 12 0 13 0;
#X connect 13 0 17 0;
#X connect 13 1 15 0;
#X connect 15 0 16 0;
#X connect 17 0 14 0;
#X connect 18 0 23 0;
#X connect 19 0 20 0;
#X connect 20 0 22 0;
#X connect 23 0 21 0;
#X connect 24 0 25 0;
#X connect 27 0 30 0;
#X connect 28 0 33 0;
#X connect 33 0 29 0;
#X connect 35 0 36 0;
#X connect 36 0 37 0;
#X restore 47 209 pd init;
#N canvas 153 112 883 711 netsend 0;
#X obj 368 342 r netsend-data-hub;
#X msg 351 299 disconnect;
#X obj 306 406 netsend;
#X obj 303 103 cnv 15 159 54 empty netsend-connected-canvas empty 20
12 0 14 -258053 -262144 0;
#X obj 306 139 tgl 15 0 empty empty connect 17 7 0 15 -262144 -1 -1
0 1;
#X obj 306 460 select 0 1;
#X msg 306 576 \; netsend-connected-canvas color -1.67117e+07 0 0 \;
;
#X symbolatom 306 110 15 0 0 0 - master-ip-address-set master-ip-address
;
#X msg 306 264 connect \$1 57120;
#X obj 306 233 symbol;
#X obj 306 199 select 1 0;
#X msg 356 503 \; netsend-connected-canvas color -65281 0 0 \; net-connect-init
bang \;;
#X obj 174 479 loadbang;
#N canvas 869 614 383 396 parsing-and-transmission 0;
#X obj 74 42 inlet;
#X obj 74 118 t l l;
#X obj 186 160 list length;
#X obj 74 227 list split;
#X obj 186 189 - 1;
#X obj 74 256 list trim;
#X obj 74 315 s;
#X obj 74 71 list;
#X connect 0 0 7 0;
#X connect 1 0 3 0;
#X connect 1 1 2 0;
#X connect 2 0 4 0;
#X connect 3 0 5 0;
#X connect 3 1 6 1;
#X connect 4 0 3 1;
#X connect 5 0 6 0;
#X connect 7 0 1 0;
#X restore 461 409 pd parsing-and-transmission;
#X obj 406 233 r master-ip-address;
#X obj 59 385 s connected-ip-address;
#X obj 443 139 bng 15 250 50 0 net-connect-init empty i 5 8 0 10 -262144
-1 -1;
#X obj 403 139 bng 15 250 50 0 empty empty empty 17 7 0 12 -4032 -1
-1;
#X obj 559 85 f \$0;
#X msg 559 115 \; pd-\$1-aoip vis 1 \;;
#X connect 0 0 2 0;
#X connect 1 0 2 0;
#X connect 2 0 5 0;
#X connect 2 1 13 0;
#X connect 4 0 10 0;
#X connect 5 0 6 0;
#X connect 5 1 11 0;
#X connect 8 0 2 0;
#X connect 9 0 8 0;
#X connect 9 0 15 0;
#X connect 10 0 9 0;
#X connect 10 1 1 0;
#X connect 12 0 6 0;
#X connect 14 0 9 1;
#X connect 17 0 18 0;
#X connect 18 0 19 0;
#X coords 0 -1 1 1 165 60 2 300 100;
#X restore 46 66 pd netsend;
#X obj 216 66 bng 20 250 50 0 empty empty A 6 10 0 14 -204786 -1 -1
;
#X msg 332 168 vis \$1 1;
#X obj 332 134 f \$1;
#X obj 216 92 bng 20 250 50 0 empty empty B 6 10 0 14 -204786 -1 -1
;
#X obj 332 208 clone -s \$1 client-control-interface 2;
#X obj 442 134 f \$2;
#X obj 347 324 clone -s \$1 algo-player-client 2;
#X obj 169 105 tgl 15 0 global-kbd-control global-kbd-control-set k
5 7 0 10 -262144 -1 -1 0 1;
#N canvas 816 290 450 300 interface 0;
#X obj 74 81 r global-kbd-control;
#X msg 74 150 \; player-\$2-kbd-control-set \$1 \; player-\$3-kbd-control-set
\$1 \;;
#X obj 74 110 pack f \$1 \$2;
#X connect 0 0 2 0;
#X connect 2 0 1 0;
#X restore 47 299 pd interface;
#X obj 216 133 bng 15 250 50 0 load-scene load-scene-set l 4 7 0 12
-204786 -1 -1;
#X obj 196 133 bng 15 250 50 0 save-scene save-scene-set s 4 7 0 12
-261234 -1 -1;
#N canvas 700 76 1094 698 scenes 0;
#X obj 122 157 pdcontrol;
#X obj 122 84 r lb1;
#X obj 122 192 makefilename %s/scenes;
#X obj 54 51 r save-scene;
#X obj 54 225 symbol;
#X obj 54 279 savepanel;
#X obj 87 510 textfile;
#X obj 702 157 pdcontrol;
#X obj 702 84 r lb1;
#X obj 702 192 makefilename %s/scenes;
#X obj 634 225 symbol;
#X obj 634 51 r load-scene;
#X obj 54 609 s player-\$2-save-scene;
#X obj 54 569 s player-\$1-save-scene;
#X text 194 506 write a dummy text file to serve as the handle for
the scene, f 34;
#X msg 122 123 dir 0 ../;
#X msg 702 123 dir 0 ../;
#X obj 634 317 s player-\$1-load-scene;
#X obj 634 357 s player-\$2-load-scene;
#X msg 87 467 add add-notes-about-your-scene-here \, write \$1;
#X obj 87 433 makefilename %s/scene-notes.txt;
#X obj 54 323 t a a a;
#X obj 634 268 openpanel 1;
#X text 775 236 double click into the directory \, then click open
, f 23;
#N canvas 726 140 1010 476 create-new-directory 0;
#X msg 48 379 mkdir \$1;
#X obj 48 408 motex/system;
#X obj 148 102 operating_system;
#X obj 48 152 list prepend;
#X obj 48 215 route linux macos windows;
#X obj 48 185 list trim;
#X obj 48 268 symbol;
#X obj 155 281 list fromsymbol;
#X obj 155 251 symbol;
#N canvas 697 162 429 693 replace-slashes 0;
#X obj 37 621 outlet;
#X obj 37 591 list tosymbol;
#X obj 37 29 inlet;
#X obj 211 335 table \$0-windows-path;
#X obj 142 100 list length;
#X obj 142 123 pack f \$0;
#X msg 142 146 \; \$2-windows-path resize \$1 \;;
#X obj 127 214 list prepend 0;
#X obj 127 237 s \$0-windows-path;
#X obj 37 561 array get \$0-windows-path;
#X obj 120 303 t f b;
#X obj 120 328 until;
#X obj 120 383 f;
#X obj 160 388 + 1;
#X msg 143 354 0;
#X obj 120 273 list length;
#X obj 120 446 tabread \$0-windows-path;
#X obj 120 469 select 47;
#X msg 120 492 92;
#X obj 120 515 tabwrite \$0-windows-path;
#X obj 120 406 t f f;
#X obj 37 59 t b l l l;
#X text 263 231 Replace all forward slashes (ASCII 47) with backslashes
(ASCII 92) so that windows path works., f 20;
#X connect 1 0 0 0;
#X connect 2 0 21 0;
#X connect 4 0 5 0;
#X connect 5 0 6 0;
#X connect 7 0 8 0;
#X connect 9 0 1 0;
#X connect 10 0 11 0;
#X connect 10 1 14 0;
#X connect 11 0 12 0;
#X connect 12 0 13 0;
#X connect 12 0 20 0;
#X connect 13 0 12 1;
#X connect 14 0 12 1;
#X connect 15 0 10 0;
#X connect 16 0 17 0;
#X connect 17 0 18 0;
#X connect 18 0 19 0;
#X connect 20 0 16 0;
#X connect 20 1 19 1;
#X connect 21 0 9 0;
#X connect 21 1 15 0;
#X connect 21 2 7 0;
#X connect 21 3 4 0;
#X restore 155 315 pd replace-slashes;
#X obj 48 22 inlet;
#X obj 48 55 t a b;
#X text 377 143 Using [motex/system] to issue the mkdir command because
[ggee/shell] does not work on Windows. Unfortunately \, [motex/system]
does not report an error if mkdir fails due to insufficient privileges.
;
#X text 377 241 Thank you \, Windows \, for using backslashes instead
of forward slashes in your paths. It's a true pleasure to write special
cases like this...;
#X connect 0 0 1 0;
#X connect 2 0 3 1;
#X connect 3 0 5 0;
#X connect 4 0 6 0;
#X connect 4 1 6 0;
#X connect 4 2 8 0;
#X connect 5 0 4 0;
#X connect 6 0 0 0;
#X connect 7 0 9 0;
#X connect 8 0 7 0;
#X connect 9 0 0 0;
#X connect 10 0 11 0;
#X connect 11 0 3 0;
#X connect 11 1 2 0;
#X restore 132 380 pd create-new-directory;
#X connect 0 0 2 0;
#X connect 1 0 15 0;
#X connect 2 0 4 1;
#X connect 3 0 4 0;
#X connect 4 0 5 0;
#X connect 5 0 21 0;
#X connect 7 0 9 0;
#X connect 8 0 16 0;
#X connect 9 0 10 1;
#X connect 10 0 22 0;
#X connect 11 0 10 0;
#X connect 15 0 0 0;
#X connect 16 0 7 0;
#X connect 19 0 6 0;
#X connect 20 0 19 0;
#X connect 21 0 12 0;
#X connect 21 0 13 0;
#X connect 21 1 20 0;
#X connect 21 2 24 0;
#X connect 22 0 17 0;
#X connect 22 0 18 0;
#X restore 47 329 pd scenes;
#X text 122 129 scenes;
#X obj 66 133 tgl 15 0 midi-suppress midi-suppress-set ms 1 8 0 12
-262144 -1 -1 0 1;
#X obj 46 133 tgl 15 0 midi-broadcast midi-broadcast-set mb 1 8 0 12
-262144 -1 -1 0 1;
#X obj 216 116 hradio 10 1 0 2 player-toggle-ab player-toggle-ab-set
empty 0 -8 0 10 -262144 -1 -1 0;
#N canvas 529 365 984 289 MIDI 0;
#X obj 31 156 ctlin 3;
#X obj 461 156 ctlin 4;
#X text 564 131 CC 4 gates out MIDI messages while depressed so that
physical controls can be moved freely without changing values., f
32;
#X obj 31 220 s midi-broadcast-set;
#X obj 461 226 s midi-suppress-set;
#X obj 31 26 ctlin 0;
#X text 141 24 swap active control for players A/B, f 21;
#X obj 31 90 s player-toggle-ab-set;
#X text 131 154 broadcast MIDI to both players while depressed, f
19;
#X obj 31 190 > 0;
#X obj 31 60 > 0;
#X obj 461 196 > 0;
#N canvas 1168 201 611 466 global-player-config 0;
#N canvas 912 218 782 243 scene-save-load 0;
#X text 390 57 scene saving/loading is global for players A and B \,
so need to feed \$1 and \$2 to the abstraction as the player ID, f
30;
#X obj 43 46 button-bang-map save-scene 7 \$1;
#X obj 43 76 button-bang-map save-scene 7 \$2;
#X obj 43 106 button-bang-map load-scene 8 \$1;
#X obj 43 136 button-bang-map load-scene 8 \$2;
#X restore 38 359 pd scene-save-load;
#N canvas 108 191 650 506 muting 0;
#X obj 28 338 f;
#X obj 106 329 + 1;
#X obj 106 350 % 2;
#X obj 28 247 t b b;
#X msg 159 273 0;
#X msg 199 273 1;
#X obj 106 300 spigot 1;
#X obj 28 380 t b f;
#X obj 28 203 select 127;
#X obj 308 338 f;
#X obj 386 329 + 1;
#X obj 386 350 % 2;
#X obj 308 247 t b b;
#X msg 439 273 0;
#X msg 479 273 1;
#X obj 386 300 spigot 1;
#X obj 308 380 t b f;
#X obj 308 203 select 127;
#X obj 106 239 r player-\$1-mute;
#X obj 73 410 s player-\$1-mute-set;
#X obj 353 410 s player-\$2-mute-set;
#X obj 386 239 r player-\$2-mute;
#X obj 28 159 spigot 1;
#X obj 308 159 spigot 1;
#X obj 181 82 -;
#X obj 181 16 r midi-suppress;
#X obj 181 49 swap 1;
#X obj 28 121 ctlin 11;
#X obj 308 121 ctlin 14;
#X connect 0 0 7 0;
#X connect 1 0 2 0;
#X connect 2 0 0 1;
#X connect 3 0 0 0;
#X connect 3 1 4 0;
#X connect 4 0 6 1;
#X connect 5 0 6 1;
#X connect 6 0 1 0;
#X connect 7 0 5 0;
#X connect 7 1 19 0;
#X connect 7 1 1 0;
#X connect 8 0 3 0;
#X connect 9 0 16 0;
#X connect 10 0 11 0;
#X connect 11 0 9 1;
#X connect 12 0 9 0;
#X connect 12 1 13 0;
#X connect 13 0 15 1;
#X connect 14 0 15 1;
#X connect 15 0 10 0;
#X connect 16 0 14 0;
#X connect 16 1 20 0;
#X connect 16 1 10 0;
#X connect 17 0 12 0;
#X connect 18 0 6 0;
#X connect 21 0 15 0;
#X connect 22 0 8 0;
#X connect 23 0 17 0;
#X connect 24 0 23 1;
#X connect 24 0 22 1;
#X connect 25 0 26 0;
#X connect 26 0 24 0;
#X connect 26 1 24 1;
#X connect 27 0 22 0;
#X connect 28 0 23 0;
#X restore 38 109 pd muting;
#X text 193 114 Map gain faders and muting globally (outside of abstractions)
so that 102/103 will always be accessible on controller as player A/B
gains and mutes, f 33;
#N canvas 451 89 650 368 gain-automation 0;
#X obj 49 90 t b;
#X obj 49 124 f \$1;
#X obj 49 235 symbol;
#X obj 49 299 s player-\$1-last-MIDI-trig-send-name;
#X obj 49 26 ctlin 102;
#X obj 379 90 t b;
#X obj 379 26 ctlin 103;
#X obj 379 124 f \$2;
#X obj 69 269 s player-\$2-last-MIDI-trig-send-name;
#X msg 49 164 player-\$1-gain-set;
#X msg 379 164 player-\$1-gain-set;
#X connect 0 0 1 0;
#X connect 1 0 9 0;
#X connect 2 0 3 0;
#X connect 2 0 8 0;
#X connect 4 0 0 0;
#X connect 5 0 7 0;
#X connect 6 0 5 0;
#X connect 7 0 10 0;
#X connect 9 0 2 0;
#X connect 10 0 2 0;
#X restore 38 279 pd gain-automation;
#N canvas 569 505 650 368 muting-automation 0;
#X obj 49 90 t b;
#X obj 49 235 symbol;
#X obj 379 90 t b;
#X obj 49 26 ctlin 11;
#X obj 379 26 ctlin 14;
#X obj 49 299 s player-\$1-last-MIDI-trig-send-name;
#X obj 69 269 s player-\$2-last-MIDI-trig-send-name;
#X msg 49 164 player-\$1-mute-set;
#X msg 379 164 player-\$1-mute-set;
#X obj 49 119 f \$1;
#X obj 379 119 f \$2;
#X connect 0 0 9 0;
#X connect 1 0 5 0;
#X connect 1 0 6 0;
#X connect 2 0 10 0;
#X connect 3 0 0 0;
#X connect 4 0 2 0;
#X connect 7 0 1 0;
#X connect 8 0 1 0;
#X connect 9 0 7 0;
#X connect 10 0 8 0;
#X restore 38 319 pd muting-automation;
#N canvas 159 311 783 506 gain 0;
#X obj 28 266 / 127;
#X obj 156 281 * 127;
#X obj 28 226 t f b;
#X obj 28 372 t b f;
#X msg 216 290 0;
#X msg 248 291 1;
#X obj 156 320 spigot 1;
#X obj 28 328 + 40;
#X obj 28 297 * 60;
#X obj 156 220 - 40;
#X obj 156 251 / 60;
#X obj 156 344 ctlout 102;
#X obj 438 266 / 127;
#X obj 566 281 * 127;
#X obj 438 226 t f b;
#X obj 438 372 t b f;
#X msg 626 290 0;
#X msg 658 291 1;
#X obj 566 320 spigot 1;
#X obj 438 328 + 40;
#X obj 438 297 * 60;
#X obj 566 220 - 40;
#X obj 566 251 / 60;
#X obj 566 344 ctlout 103;
#X obj 566 189 r player-\$2-gain;
#X obj 483 425 s player-\$2-gain-set;
#X obj 73 425 s player-\$1-gain-set;
#X obj 156 189 r player-\$1-gain;
#X obj 28 120 ctlin 102;
#X obj 438 120 ctlin 103;
#X obj 28 149 spigot 1;
#X obj 438 149 spigot 1;
#X obj 279 84 -;
#X obj 279 18 r midi-suppress;
#X obj 279 51 swap 1;
#X connect 0 0 8 0;
#X connect 1 0 6 0;
#X connect 2 0 0 0;
#X connect 2 1 4 0;
#X connect 3 0 5 0;
#X connect 3 1 26 0;
#X connect 4 0 6 1;
#X connect 5 0 6 1;
#X connect 6 0 11 0;
#X connect 7 0 3 0;
#X connect 8 0 7 0;
#X connect 9 0 10 0;
#X connect 10 0 1 0;
#X connect 12 0 20 0;
#X connect 13 0 18 0;
#X connect 14 0 12 0;
#X connect 14 1 16 0;
#X connect 15 0 17 0;
#X connect 15 1 25 0;
#X connect 16 0 18 1;
#X connect 17 0 18 1;
#X connect 18 0 23 0;
#X connect 19 0 15 0;
#X connect 20 0 19 0;
#X connect 21 0 22 0;
#X connect 22 0 13 0;
#X connect 24 0 21 0;
#X connect 27 0 9 0;
#X connect 28 0 30 0;
#X connect 29 0 31 0;
#X connect 30 0 2 0;
#X connect 31 0 14 0;
#X connect 32 0 31 1;
#X connect 32 0 30 1;
#X connect 33 0 34 0;
#X connect 34 0 32 0;
#X connect 34 1 32 1;
#X restore 38 79 pd gain;
#X restore 461 26 pd global-player-config;
#X connect 0 0 9 0;
#X connect 1 0 11 0;
#X connect 5 0 10 0;
#X connect 9 0 3 0;
#X connect 10 0 7 0;
#X connect 11 0 4 0;
#X restore 47 239 pd MIDI;
#N canvas 1022 165 436 191 cpu-keyboard-mapping 0;
#N canvas 0 23 895 726 global 0;
#X obj 36 42 key;
#X obj 36 116 spigot;
#X obj 113 77 ||;
#X obj 153 98 t b f;
#X obj 36 146 select 105 111;
#X obj 36 255 s save-scene-set;
#X obj 126 205 s load-scene-set;
#X obj 456 156 select 32;
#X obj 456 52 key;
#X obj 456 126 spigot;
#X obj 533 87 ||;
#X obj 573 108 t b f;
#X obj 476 192 r player-toggle-ab;
#X obj 456 222 f;
#X obj 496 232 + 1;
#X obj 496 262 % 2;
#X obj 496 292 s player-toggle-ab-set;
#X obj 456 412 key;
#X obj 456 486 spigot;
#X obj 533 447 ||;
#X obj 573 468 t b f;
#X obj 456 582 f;
#X obj 496 582 + 1;
#X obj 496 612 % 2;
#X obj 456 516 select 117;
#X obj 476 552 r midi-suppress;
#X obj 496 642 s midi-suppress-set;
#X obj 36 412 key;
#X obj 36 486 spigot;
#X obj 113 447 ||;
#X obj 153 468 t b f;
#X obj 36 582 f;
#X obj 76 582 + 1;
#X obj 76 612 % 2;
#X obj 36 516 select 121;
#X obj 56 552 r midi-broadcast;
#X obj 76 642 s midi-broadcast-set;
#X obj 113 26 r player-\$1-kbd-control;
#X obj 153 67 r player-\$2-kbd-control;
#X obj 533 36 r player-\$1-kbd-control;
#X obj 533 396 r player-\$1-kbd-control;
#X obj 113 396 r player-\$1-kbd-control;
#X obj 573 77 r player-\$2-kbd-control;
#X obj 573 437 r player-\$2-kbd-control;
#X obj 153 437 r player-\$2-kbd-control;
#X connect 0 0 1 0;
#X connect 1 0 4 0;
#X connect 2 0 1 1;
#X connect 3 0 2 0;
#X connect 3 1 2 1;
#X connect 4 0 5 0;
#X connect 4 1 6 0;
#X connect 7 0 13 0;
#X connect 8 0 9 0;
#X connect 9 0 7 0;
#X connect 10 0 9 1;
#X connect 11 0 10 0;
#X connect 11 1 10 1;
#X connect 12 0 13 1;
#X connect 13 0 14 0;
#X connect 14 0 15 0;
#X connect 15 0 13 1;
#X connect 15 0 16 0;
#X connect 17 0 18 0;
#X connect 18 0 24 0;
#X connect 19 0 18 1;
#X connect 20 0 19 0;
#X connect 20 1 19 1;
#X connect 21 0 22 0;
#X connect 22 0 23 0;
#X connect 23 0 21 1;
#X connect 23 0 26 0;
#X connect 24 0 21 0;
#X connect 25 0 21 1;
#X connect 27 0 28 0;
#X connect 28 0 34 0;
#X connect 29 0 28 1;
#X connect 30 0 29 0;
#X connect 30 1 29 1;
#X connect 31 0 32 0;
#X connect 32 0 33 0;
#X connect 33 0 31 1;
#X connect 33 0 36 0;
#X connect 34 0 31 0;
#X connect 35 0 31 1;
#X connect 37 0 2 0;
#X connect 38 0 3 0;
#X connect 39 0 10 0;
#X connect 40 0 19 0;
#X connect 41 0 29 0;
#X connect 42 0 11 0;
#X connect 43 0 20 0;
#X connect 44 0 30 0;
#X restore 50 49 pd global;
#N canvas 544 66 890 377 player-muting 0;
#X obj 414 64 key;
#X obj 414 138 spigot;
#X obj 414 234 f;
#X obj 454 234 + 1;
#X obj 454 264 % 2;
#X obj 414 168 select 109;
#X obj 44 64 key;
#X obj 44 138 spigot;
#X obj 44 234 f;
#X obj 84 234 + 1;
#X obj 84 264 % 2;
#X obj 44 168 select 110;
#X obj 121 48 r player-\$1-kbd-control;
#X obj 84 294 s player-\$1-mute-set;
#X obj 64 204 r player-\$1-mute;
#X obj 454 294 s player-\$2-mute-set;
#X obj 434 204 r player-\$2-mute;
#X obj 491 48 r player-\$2-kbd-control;
#X connect 0 0 1 0;
#X connect 1 0 5 0;
#X connect 2 0 3 0;
#X connect 3 0 4 0;
#X connect 4 0 2 1;
#X connect 4 0 15 0;
#X connect 5 0 2 0;
#X connect 6 0 7 0;
#X connect 7 0 11 0;
#X connect 8 0 9 0;
#X connect 9 0 10 0;
#X connect 10 0 8 1;
#X connect 10 0 13 0;
#X connect 11 0 8 0;
#X connect 12 0 7 1;
#X connect 14 0 8 1;
#X connect 16 0 2 1;
#X connect 17 0 1 1;
#X restore 50 89 pd player-muting;
#X restore 47 269 pd cpu-keyboard-mapping;
#N canvas 1228 87 417 524 \$0-aoip 0;
#X obj 54 372 out-panel;
#X obj 54 38 quack-panel \$0;
#X connect 1 0 0 0;
#X connect 1 1 0 1;
#X restore 47 359 pd \$0-aoip;
#X connect 2 0 4 0;
#X connect 3 0 6 0;
#X connect 4 0 3 0;
#X connect 5 0 7 0;
#X connect 7 0 3 0;
#X coords 0 -1 1 1 230 120 1 35 35;
