#N canvas 584 23 1174 296 12;
#X obj 62 15 control-panel-abs \$1;
#N canvas 632 416 1023 330 algo-param-interfaces-subpatch-\$1 0;
#X obj 50 50 algo-param-interface-client 0 0;
#X coords 0 -1 1 1 650 160 2 50 50;
#X restore 472 15 pd algo-param-interfaces-subpatch-\$1;
#N canvas 1006 264 761 666 netpreps 0;
#N canvas 134 106 186 317 player-\$1-algo-netpreps 0;
#N canvas 1367 156 407 413 algo-0 0;
#X obj 98 48 netprep player-\$1-algo-0-param-0;
#X obj 98 78 netprep player-\$1-algo-0-param-1;
#X obj 98 108 netprep player-\$1-algo-0-param-2;
#X obj 98 138 netprep player-\$1-algo-0-param-3;
#X obj 98 168 netprep player-\$1-algo-0-param-4;
#X obj 98 198 netprep player-\$1-algo-0-param-5;
#X obj 98 228 netprep player-\$1-algo-0-param-6;
#X obj 98 258 netprep player-\$1-algo-0-param-7;
#X obj 98 288 netprep player-\$1-algo-0-param-8;
#X obj 98 318 netprep player-\$1-algo-0-param-9;
#X restore 53 56 pd algo-0;
#N canvas 1367 156 407 413 algo-1 0;
#X obj 98 48 netprep player-\$1-algo-1-param-0;
#X obj 98 78 netprep player-\$1-algo-1-param-1;
#X obj 98 108 netprep player-\$1-algo-1-param-2;
#X obj 98 138 netprep player-\$1-algo-1-param-3;
#X obj 98 168 netprep player-\$1-algo-1-param-4;
#X obj 98 198 netprep player-\$1-algo-1-param-5;
#X obj 98 228 netprep player-\$1-algo-1-param-6;
#X obj 98 258 netprep player-\$1-algo-1-param-7;
#X obj 98 288 netprep player-\$1-algo-1-param-8;
#X obj 98 318 netprep player-\$1-algo-1-param-9;
#X restore 53 86 pd algo-1;
#N canvas 1367 156 407 413 algo-2 0;
#X obj 98 48 netprep player-\$1-algo-2-param-0;
#X obj 98 78 netprep player-\$1-algo-2-param-1;
#X obj 98 108 netprep player-\$1-algo-2-param-2;
#X obj 98 138 netprep player-\$1-algo-2-param-3;
#X obj 98 168 netprep player-\$1-algo-2-param-4;
#X obj 98 198 netprep player-\$1-algo-2-param-5;
#X obj 98 228 netprep player-\$1-algo-2-param-6;
#X obj 98 258 netprep player-\$1-algo-2-param-7;
#X obj 98 288 netprep player-\$1-algo-2-param-8;
#X obj 98 318 netprep player-\$1-algo-2-param-9;
#X restore 53 116 pd algo-2;
#N canvas 1367 156 407 413 algo-3 0;
#X obj 98 48 netprep player-\$1-algo-3-param-0;
#X obj 98 78 netprep player-\$1-algo-3-param-1;
#X obj 98 108 netprep player-\$1-algo-3-param-2;
#X obj 98 138 netprep player-\$1-algo-3-param-3;
#X obj 98 168 netprep player-\$1-algo-3-param-4;
#X obj 98 198 netprep player-\$1-algo-3-param-5;
#X obj 98 228 netprep player-\$1-algo-3-param-6;
#X obj 98 258 netprep player-\$1-algo-3-param-7;
#X obj 98 288 netprep player-\$1-algo-3-param-8;
#X obj 98 318 netprep player-\$1-algo-3-param-9;
#X restore 53 146 pd algo-3;
#N canvas 1367 156 407 413 algo-4 0;
#X obj 98 48 netprep player-\$1-algo-4-param-0;
#X obj 98 78 netprep player-\$1-algo-4-param-1;
#X obj 98 108 netprep player-\$1-algo-4-param-2;
#X obj 98 138 netprep player-\$1-algo-4-param-3;
#X obj 98 168 netprep player-\$1-algo-4-param-4;
#X obj 98 198 netprep player-\$1-algo-4-param-5;
#X obj 98 228 netprep player-\$1-algo-4-param-6;
#X obj 98 258 netprep player-\$1-algo-4-param-7;
#X obj 98 288 netprep player-\$1-algo-4-param-8;
#X obj 98 318 netprep player-\$1-algo-4-param-9;
#X restore 53 176 pd algo-4;
#X restore 463 179 pd player-\$1-algo-netpreps;
#X obj 57 41 netprep-withSet player-\$1-gain;
#X obj 57 75 netprep-withSet player-\$1-spat-pos;
#X obj 57 100 netprep-withSet player-\$1-spat-width;
#X obj 57 135 netprep-withSet player-\$1-algo-select;
#X obj 57 171 netprep-withSet player-\$1-bitDepth;
#X obj 57 205 netprep-withSet player-\$1-dry;
#X obj 57 230 netprep-withSet player-\$1-wet;
#X obj 57 255 netprep-withSet player-\$1-rvb-liveness;
#X obj 57 279 netprep-withSet player-\$1-rvb-xover;
#X obj 57 303 netprep-withSet player-\$1-rvb-damping;
#X obj 57 373 netprep-withSet player-\$1-tempo;
#X obj 57 343 netprep-withSet player-\$1-blockSize;
#X obj 57 433 netprep-withSet player-\$1-tempo-sync;
#X obj 56 464 netprep-withSet player-\$1-time-sync;
#X obj 57 403 netprep-withSet player-\$1-compute;
#X obj 56 494 netprep-withSet player-\$1-interpolation;
#X restore 62 196 pd netpreps;
#N canvas 342 266 640 564 algo-cache-stuff 0;
#X obj 270 172 i;
#X obj 163 113 t f f f b b;
#X msg 28 97 0;
#X obj 28 124 t f f f b;
#X obj 163 37 r player-\$1-algo-select;
#X obj 28 64 r lb1;
#X msg 254 317 \; pd-algo-param-interfaces-subpatch-\$1 clear \;;
#X obj 254 289 f \$1;
#X msg 270 226 \; player-\$2-algo-\$1-save-cache bang \;;
#X obj 270 196 pack f \$1;
#X obj 165 341 pack f \$1;
#X msg 165 372 \; pd-algo-param-interfaces-subpatch-\$2 obj 50 50 algo-param-interface-client
\$2 \$1 \;;
#X obj 75 421 pack f \$1;
#X msg 75 448 \; player-\$2-algo-\$1-load-cache bang \; player-\$2-param-interface-init
bang \;;
#X connect 0 0 9 0;
#X connect 1 0 0 1;
#X connect 1 1 12 0;
#X connect 1 2 10 0;
#X connect 1 3 7 0;
#X connect 1 4 0 0;
#X connect 2 0 3 0;
#X connect 3 0 0 1;
#X connect 3 1 12 0;
#X connect 3 2 10 0;
#X connect 3 3 7 0;
#X connect 4 0 1 0;
#X connect 5 0 2 0;
#X connect 7 0 6 0;
#X connect 9 0 8 0;
#X connect 10 0 11 0;
#X connect 12 0 13 0;
#X restore 62 226 pd algo-cache-stuff;
