#N canvas 649 260 1031 221 12;
#X obj 978 189 inlet;
#N canvas 458 389 1222 370 panel 0;
#X obj 20 20 control-panel-abs \$1;
#N canvas 266 248 768 641 netpreps 0;
#N canvas 852 206 436 431 player-\$1-algo-netpreps 0;
#X obj 98 48 netprep player-\$1-algo-param-0;
#X obj 98 78 netprep player-\$1-algo-param-1;
#X obj 98 108 netprep player-\$1-algo-param-2;
#X obj 98 138 netprep player-\$1-algo-param-3;
#X obj 98 168 netprep player-\$1-algo-param-4;
#X obj 98 198 netprep player-\$1-algo-param-5;
#X obj 98 228 netprep player-\$1-algo-param-6;
#X obj 98 258 netprep player-\$1-algo-param-7;
#X obj 98 288 netprep player-\$1-algo-param-8;
#X obj 98 318 netprep player-\$1-algo-param-9;
#X restore 435 25 pd player-\$1-algo-netpreps;
#X obj 435 65 netprep player-\$1-spat-lfo-ctrl-color;
#X obj 56 493 netprep player-\$1-interpolation 1;
#X obj 57 553 netprep player-\$1-time-sync 1;
#X obj 57 523 netprep player-\$1-tempo-sync 1;
#X obj 57 463 netprep player-\$1-compute 1;
#X obj 435 345 netprep player-\$1-tempo 1;
#X obj 435 243 netprep player-\$1-rvb-damping 1;
#X obj 435 219 netprep player-\$1-rvb-xover 1;
#X obj 435 195 netprep player-\$1-rvb-liveness 1;
#X obj 57 231 netprep player-\$1-bit-depth 1;
#X obj 57 165 netprep player-\$1-algo-select 1;
#X obj 57 125 netprep player-\$1-spat-lfo-freq 1;
#X obj 57 100 netprep player-\$1-spat-width 1;
#X obj 57 75 netprep player-\$1-spat-pos 1;
#X obj 57 51 netprep player-\$1-mute 1;
#X obj 57 26 netprep player-\$1-gain 1;
#X obj 435 495 netprep player-\$1-asr-env;
#X obj 435 435 netprep player-\$1-asr-kbd 1;
#X obj 57 273 netprep player-\$1-set-time-random;
#X obj 57 329 netprep player-\$1-loop-point-start 1;
#X obj 57 355 netprep player-\$1-loop-point-end 1;
#X obj 57 190 netprep player-\$1-algo-direct 1;
#X obj 57 403 netprep player-\$1-time-reverse 1;
#X obj 435 465 netprep player-\$1-asr-time 1;
#X obj 57 303 netprep player-\$1-time-index 1;
#X obj 57 583 netprep player-\$1-clone 1;
#X obj 435 375 netprep player-\$1-pitch-bend-final;
#X obj 435 171 netprep player-\$1-dry-wet 1;
#X obj 435 123 netprep player-\$1-dry 1;
#X obj 435 147 netprep player-\$1-wet 1;
#X obj 57 379 netprep player-\$1-loop-record 1;
#X text 419 562 netprep player-\$1-get-algo-settings;
#X text 371 595 not needed? we get settings from the local [algo~]
;
#X restore 20 241 pd netpreps;
#N canvas 583 56 748 553 keyboard-commands 0;
#X obj 54 49 key;
#X obj 131 73 r player-\$1-kbd-control;
#X obj 54 73 spigot;
#X obj 54 143 spigot;
#X obj 131 143 active-player-abs \$1;
#X obj 131 113 r lb1;
#N canvas 343 151 615 322 clone 0;
#X obj 86 48 inlet;
#X obj 326 72 outlet;
#X msg 86 126 0;
#X msg 126 126 1;
#X msg 166 126 2;
#X msg 206 126 3;
#X msg 246 126 4;
#X msg 286 126 5;
#X obj 86 222 s player-\$1-clone-set;
#X obj 86 72 select 49 50 51 52 53 54;
#X connect 0 0 9 0;
#X connect 2 0 8 0;
#X connect 3 0 8 0;
#X connect 4 0 8 0;
#X connect 5 0 8 0;
#X connect 6 0 8 0;
#X connect 7 0 8 0;
#X connect 9 0 2 0;
#X connect 9 1 3 0;
#X connect 9 2 4 0;
#X connect 9 3 5 0;
#X connect 9 4 6 0;
#X connect 9 5 7 0;
#X connect 9 6 1 0;
#X restore 54 433 pd clone;
#N canvas 343 151 615 322 load-save 0;
#X obj 86 48 inlet;
#X obj 326 72 outlet;
#X obj 136 192 s player-\$1-algo-save-params-set;
#X obj 86 222 s player-\$1-algo-load-params-set;
#X obj 86 72 select 91 93 92;
#X obj 176 162 s player-\$1-algo-refresh-params-set;
#X text 115 108 save is disabled because load crashes Pd if triggered
after a save sequrence as of 0.50-2! Clicking the buttons doesn't cause
crash.;
#X connect 0 0 4 0;
#X connect 4 0 3 0;
#X connect 4 2 5 0;
#X connect 4 3 1 0;
#X restore 54 343 pd load-save;
#N canvas 605 107 589 514 algo-inc-dec-rand 0;
#X obj 86 48 inlet;
#X obj 326 72 outlet;
#X obj 305 343 f;
#X obj 345 347 + 1;
#X obj 45 343 f;
#X obj 85 347 - 1;
#X obj 234 441 s player-\$1-algo-select-set;
#X obj 339 295 r player-\$1-algo-select;
#X obj 79 295 r player-\$1-algo-select;
#X obj 164 405 moses 0;
#X obj 314 405 r num-algos;
#X obj 234 405 moses;
#X obj 86 72 select 44 46 47;
#X obj 339 230 s player-\$1-rand-algo-set;
#X connect 0 0 12 0;
#X connect 2 0 3 0;
#X connect 3 0 2 1;
#X connect 3 0 9 0;
#X connect 4 0 5 0;
#X connect 5 0 4 1;
#X connect 5 0 9 0;
#X connect 7 0 2 1;
#X connect 8 0 4 1;
#X connect 9 1 11 0;
#X connect 10 0 11 1;
#X connect 11 0 6 0;
#X connect 12 0 4 0;
#X connect 12 1 2 0;
#X connect 12 2 13 0;
#X connect 12 3 1 0;
#X restore 54 193 pd algo-inc-dec-rand;
#N canvas 327 384 615 322 bit-depth 0;
#X obj 346 168 f;
#X obj 386 172 + 1;
#X obj 86 168 f;
#X obj 126 172 - 1;
#X obj 120 120 r player-\$1-bit-depth;
#X obj 380 120 r player-\$1-bit-depth;
#X obj 275 266 s player-\$1-bit-depth-set;
#X obj 86 48 inlet;
#X obj 216 72 outlet;
#X obj 205 230 moses 1;
#X obj 275 230 moses 33;
#X obj 86 72 select 45 61;
#X connect 0 0 1 0;
#X connect 1 0 0 1;
#X connect 1 0 9 0;
#X connect 2 0 3 0;
#X connect 3 0 2 1;
#X connect 3 0 9 0;
#X connect 4 0 2 1;
#X connect 5 0 0 1;
#X connect 7 0 11 0;
#X connect 9 1 10 0;
#X connect 10 0 6 0;
#X connect 11 0 2 0;
#X connect 11 1 0 0;
#X connect 11 2 8 0;
#X restore 54 223 pd bit-depth;
#N canvas 179 126 615 322 interp 0;
#X obj 86 48 inlet;
#X obj 216 72 outlet;
#X obj 86 168 f;
#X obj 146 162 + 1;
#X obj 146 186 % 2;
#X obj 146 120 r player-\$1-interpolation;
#X obj 86 221 s player-\$1-interpolation-set;
#X obj 86 72 select 108;
#X connect 0 0 7 0;
#X connect 2 0 3 0;
#X connect 2 0 6 0;
#X connect 3 0 4 0;
#X connect 4 0 2 1;
#X connect 5 0 3 0;
#X connect 7 0 2 0;
#X connect 7 1 1 0;
#X restore 54 253 pd interp;
#N canvas 343 151 629 607 active-param 0;
#X obj 86 48 inlet;
#X obj 416 72 outlet;
#X obj 194 424 r player-\$1-last-param-changed;
#X obj 163 465 f;
#X obj 203 469 + 1;
#X obj 86 464 f;
#X obj 126 468 - 1;
#X obj 118 501 moses 0;
#X obj 188 531 s player-\$1-last-param-changed;
#X obj 188 501 moses 10;
#X obj 86 72 select 25 9 113 119 101 97 115 96;
#X obj 263 279 s player-\$1-latest-param-rand;
#X obj 194 359 s player-\$1-latest-param-dec;
#X obj 224 319 s player-\$1-latest-param-inc;
#X obj 300 247 s player-\$1-algo-param-range-dec;
#X obj 344 212 s player-\$1-algo-param-range-inc;
#X obj 374 172 s player-\$1-algo-randomize-set;
#X connect 0 0 10 0;
#X connect 2 0 3 1;
#X connect 2 0 5 1;
#X connect 3 0 4 0;
#X connect 4 0 3 1;
#X connect 4 0 7 0;
#X connect 5 0 6 0;
#X connect 6 0 5 1;
#X connect 6 0 7 0;
#X connect 7 1 9 0;
#X connect 9 0 8 0;
#X connect 10 0 5 0;
#X connect 10 1 3 0;
#X connect 10 2 12 0;
#X connect 10 3 13 0;
#X connect 10 4 11 0;
#X connect 10 5 14 0;
#X connect 10 6 15 0;
#X connect 10 7 16 0;
#X connect 10 8 1 0;
#X restore 54 283 pd active-param;
#N canvas 343 151 615 322 pitch-bend-zero 0;
#X obj 86 48 inlet;
#X obj 326 72 outlet;
#X obj 86 72 select 10;
#X obj 86 222 s player-\$1-pitch-bend-zero-set;
#X connect 0 0 2 0;
#X connect 2 0 3 0;
#X connect 2 1 1 0;
#X restore 54 313 pd pitch-bend-zero;
#N canvas 343 151 699 400 preset-load-gates 0;
#X obj 46 28 inlet;
#X obj 286 52 outlet;
#X obj 46 52 select 55 56 57 48;
#X obj 46 284 f;
#X obj 106 278 + 1;
#X obj 106 302 % 2;
#X obj 106 254 r player-\$1-load-bit-depth;
#X obj 46 327 s player-\$1-load-bit-depth-set;
#X obj 86 174 f;
#X obj 146 168 + 1;
#X obj 146 192 % 2;
#X obj 386 284 f;
#X obj 446 278 + 1;
#X obj 446 302 % 2;
#X obj 426 174 f;
#X obj 486 168 + 1;
#X obj 486 192 % 2;
#X obj 86 217 s player-\$1-load-time-set;
#X obj 146 144 r player-\$1-load-time;
#X obj 446 254 r player-\$1-load-tempo;
#X obj 386 327 s player-\$1-load-tempo-set;
#X obj 486 144 r player-\$1-load-params;
#X obj 426 217 s player-\$1-load-params-set;
#X connect 0 0 2 0;
#X connect 2 0 3 0;
#X connect 2 1 8 0;
#X connect 2 2 11 0;
#X connect 2 3 14 0;
#X connect 2 4 1 0;
#X connect 3 0 4 0;
#X connect 3 0 7 0;
#X connect 4 0 5 0;
#X connect 5 0 3 1;
#X connect 6 0 4 0;
#X connect 8 0 9 0;
#X connect 8 0 17 0;
#X connect 9 0 10 0;
#X connect 10 0 8 1;
#X connect 11 0 12 0;
#X connect 11 0 20 0;
#X connect 12 0 13 0;
#X connect 13 0 11 1;
#X connect 14 0 15 0;
#X connect 14 0 22 0;
#X connect 15 0 16 0;
#X connect 16 0 14 1;
#X connect 18 0 9 0;
#X connect 19 0 12 0;
#X connect 21 0 15 0;
#X restore 54 373 pd preset-load-gates;
#N canvas 343 151 615 322 automation-killall 0;
#X obj 86 48 inlet;
#X obj 326 72 outlet;
#X obj 86 72 select 112;
#X obj 86 222 s player-\$1-automation-killall-set;
#X connect 0 0 2 0;
#X connect 2 0 3 0;
#X connect 2 1 1 0;
#X restore 54 403 pd automation-killall;
#N canvas 343 151 449 322 tempo-sync 0;
#X obj 86 48 inlet;
#X obj 326 72 outlet;
#X msg 86 126 0;
#X msg 126 126 1;
#X msg 166 126 2;
#X msg 206 126 3;
#X msg 246 126 4;
#X msg 286 126 5;
#X obj 86 222 s player-\$1-tempo-sync-set;
#X obj 86 72 select 100 102 103 104 106 107;
#X connect 0 0 9 0;
#X connect 2 0 8 0;
#X connect 3 0 8 0;
#X connect 4 0 8 0;
#X connect 5 0 8 0;
#X connect 6 0 8 0;
#X connect 7 0 8 0;
#X connect 9 0 2 0;
#X connect 9 1 3 0;
#X connect 9 2 4 0;
#X connect 9 3 5 0;
#X connect 9 4 6 0;
#X connect 9 5 7 0;
#X connect 9 6 1 0;
#X restore 54 463 pd tempo-sync;
#N canvas 343 151 798 442 time 0;
#X obj 86 48 inlet;
#X obj 326 72 outlet;
#X obj 126 324 r player-\$1-tempo-sync;
#X obj 86 325 f;
#X obj 86 376 s player-\$1-time-sync-set;
#X obj 86 72 select 98 120 122 99 118;
#X obj 463 243 f;
#X obj 523 237 + 1;
#X obj 523 261 % 2;
#X obj 463 296 s player-\$1-time-reverse-set;
#X obj 523 195 r player-\$1-time-reverse;
#X obj 146 276 s player-\$1-algo-time-rand-set;
#X obj 176 246 s player-\$1-algo-time-zero-set;
#X obj 206 216 s player-\$1-loop-reset-set;
#X connect 0 0 5 0;
#X connect 2 0 3 1;
#X connect 3 0 4 0;
#X connect 5 0 3 0;
#X connect 5 1 11 0;
#X connect 5 2 12 0;
#X connect 5 3 13 0;
#X connect 5 4 6 0;
#X connect 5 5 1 0;
#X connect 6 0 7 0;
#X connect 6 0 9 0;
#X connect 7 0 8 0;
#X connect 8 0 6 1;
#X connect 10 0 7 0;
#X restore 54 493 pd time;
#X text 263 188 See doc/computer-keyboard-mapping.ods for a complete
list of all key mappings, f 31;
#X text 263 288 save is disabled because load crashes Pd if triggered
after a save sequrence as of 0.50-2! Clicking the buttons doesn't cause
crash., f 31;
#X connect 0 0 2 0;
#X connect 1 0 2 1;
#X connect 2 0 3 0;
#X connect 3 0 8 0;
#X connect 4 0 3 1;
#X connect 5 0 4 0;
#X connect 6 0 15 0;
#X connect 7 0 13 0;
#X connect 8 0 9 0;
#X connect 9 0 10 0;
#X connect 10 0 11 0;
#X connect 11 0 12 0;
#X connect 12 0 7 0;
#X connect 13 0 14 0;
#X connect 14 0 6 0;
#X connect 15 0 16 0;
#X restore 20 301 pd keyboard-commands;
#N canvas 110 781 621 228 MIDI 0;
#N canvas 1078 389 726 620 keyboard-tempo 0;
#X obj 110 12 notein;
#X obj 70 167 stripnote;
#X obj 373 425 / 127;
#X obj 373 503 + 1;
#X obj 70 136 spigot;
#X obj 373 391 spigot;
#X obj 70 549 s player-\$1-tempo-set;
#X text 453 383 set the range of the tempo bend with the mod wheel
, f 14;
#X obj 70 489 max 1;
#X obj 70 221 mtof;
#X obj 70 245 /;
#X obj 116 225 r lb1;
#X msg 116 249 60;
#X obj 116 273 mtof;
#X text 156 248 << middle C is base tempo \, with tempo octaves at
octaves of C, f 16;
#X obj 70 289 *;
#X obj 70 513 min 240;
#X obj 373 479 * 50;
#X obj 329 510 * 1;
#X obj 412 196 r lb1;
#N canvas 1134 89 667 392 detect-no-keys 0;
#X obj 49 24 inlet;
#X obj 199 24 inlet;
#X obj 295 53 table player-\$1-MIDI-notes 127;
#X obj 49 94 swap;
#X obj 112 170 tabwrite player-\$1-MIDI-notes;
#X text 293 80 keep track of all MIDI note states so that we can detect
when no keys are depressed., f 44;
#X obj 25 286 array sum player-\$1-MIDI-notes;
#X obj 25 334 outlet;
#X obj 103 330 tgl 15 0 empty empty empty 17 7 0 10 -262144 -1 -1 0
1;
#X obj 25 309 > 0;
#X obj 49 138 t b f;
#X text 148 221 upon every note event \, get a true/false re: all notes
being off. must check the sum post-storage of the incoming note state.
, f 63;
#X connect 0 0 3 0;
#X connect 1 0 3 1;
#X connect 3 0 10 0;
#X connect 3 1 4 1;
#X connect 6 0 9 0;
#X connect 9 0 7 0;
#X connect 9 0 8 0;
#X connect 10 0 6 0;
#X connect 10 1 4 0;
#X restore 153 48 pd detect-no-keys;
#X obj 373 449 pow 2;
#N canvas 885 67 795 528 set-ASR-keyboard 0;
#X obj 249 413 s player-\$1-asr-env;
#X obj 346 149 r player-\$1-asr-kbd;
#X obj 172 334 spigot;
#X msg 325 345 1;
#X msg 207 291 1;
#X msg 247 291 0;
#X obj 346 209 t b b;
#X obj 346 185 select 0 1;
#X obj 396 209 t b b;
#X obj 365 345 f;
#X obj 83 34 inlet;
#X text 230 28 When player-\$1-asr-kbd is ON \, we push through the
most recent value from [pd detect-no-keys] \, then allow 1 or 0 out
of detect-no keys to player-\$1-asr-env thereafter. \; When player-\$1-asr-kbd
is OFF \, we suppress values from detect-no-keys \, then send a solid
1 to asr-env to keep it on.;
#X text 557 200 when manually turning off the ASR keyboard toggle \,
set the ASR time to a quick 50ms so the change happens quickly regardless
of the current MIDI velocity fade time setting, f 27;
#X obj 466 332 t b b;
#X obj 516 332 t b b;
#X obj 576 463 s player-\$1-asr-time;
#X msg 576 433 50;
#X text 457 380 DISABLED VELOCITY/FADE TIME MAPPING;
#X connect 1 0 7 0;
#X connect 2 0 0 0;
#X connect 3 0 0 0;
#X connect 4 0 2 1;
#X connect 5 0 2 1;
#X connect 6 0 3 0;
#X connect 6 1 5 0;
#X connect 7 0 6 0;
#X connect 7 1 8 0;
#X connect 8 0 4 0;
#X connect 8 1 9 0;
#X connect 9 0 0 0;
#X connect 10 0 2 0;
#X connect 10 0 9 1;
#X connect 13 1 16 0;
#X connect 14 1 16 0;
#X connect 16 0 15 0;
#X restore 153 118 pd set-ASR-keyboard;
#X obj 373 353 r player-\$1-pitch-bend-range;
#X obj 353 15 fadermap player-\$1-pitch-bend-range 1 \$1 0 127 player-\$1-pitch-bend-range-set
;
#N canvas 876 413 403 339 map-bend-data-to-fader 0;
#X obj 52 54 bendin;
#X obj 52 167 select 8192;
#X msg 52 191 0;
#X obj 162 167 moses 8193;
#X obj 232 191 - 8193;
#X obj 162 191 - 8191;
#X obj 162 215 / 8191;
#X obj 232 215 / 8190;
#X obj 52 91 spigot;
#X obj 133 259 f;
#X obj 139 58 r lb1;
#X obj 133 283 s player-\$1-pitch-bend-set;
#X obj 52 125 spigot;
#X obj 112 125 inlet;
#X obj 139 84 active-player-abs \$1;
#X connect 0 0 8 0;
#X connect 1 0 2 0;
#X connect 1 1 3 0;
#X connect 2 0 9 0;
#X connect 3 0 5 0;
#X connect 3 1 4 0;
#X connect 4 0 7 0;
#X connect 5 0 6 0;
#X connect 6 0 9 0;
#X connect 7 0 9 0;
#X connect 8 0 12 0;
#X connect 9 0 11 0;
#X connect 10 0 14 0;
#X connect 12 0 1 0;
#X connect 13 0 12 1;
#X connect 14 0 8 1;
#X restore 353 95 pd map-bend-data-to-fader;
#X obj 329 319 r player-\$1-pitch-bend;
#N canvas 501 262 395 300 CC-pitch-bend 0;
#X obj 38 115 spigot;
#X obj 38 163 / 127;
#X obj 138 92 r lb1;
#X obj 38 255 s player-\$1-pitch-bend-set;
#X obj 38 187 * 2;
#X obj 38 211 - 1;
#X obj 38 26 ctlin 123;
#X obj 138 118 active-player-abs \$1;
#X text 151 163 This allows use of a normal CC control for pitch bend.
Works in parallel with pitch bend wheel if one is present., f 29;
#X connect 0 0 1 0;
#X connect 1 0 4 0;
#X connect 2 0 7 0;
#X connect 4 0 5 0;
#X connect 5 0 3 0;
#X connect 6 0 0 0;
#X connect 7 0 0 1;
#X restore 353 125 pd CC-pitch-bend;
#X obj 329 544 s player-\$1-pitch-bend-final;
#X obj 482 463 r player-\$1-pitch-bend-zero;
#X msg 482 487 0;
#X obj 482 511 s player-\$1-pitch-bend-set;
#X obj 353 65 button-bang-map player-\$1-pitch-bend-zero-set 2 \$1
;
#X obj 412 222 active-player-abs \$1;
#X connect 0 0 4 0;
#X connect 0 0 20 0;
#X connect 0 1 1 1;
#X connect 0 1 20 1;
#X connect 1 0 9 0;
#X connect 2 0 21 0;
#X connect 3 0 18 1;
#X connect 4 0 1 0;
#X connect 5 0 2 0;
#X connect 8 0 16 0;
#X connect 9 0 10 0;
#X connect 10 0 15 0;
#X connect 11 0 12 0;
#X connect 12 0 13 0;
#X connect 12 0 15 1;
#X connect 13 0 10 1;
#X connect 15 0 8 0;
#X connect 16 0 6 0;
#X connect 17 0 3 0;
#X connect 18 0 28 0;
#X connect 19 0 33 0;
#X connect 20 0 22 0;
#X connect 20 0 25 0;
#X connect 21 0 17 0;
#X connect 23 0 5 0;
#X connect 26 0 18 0;
#X connect 29 0 30 0;
#X connect 30 0 31 0;
#X connect 33 0 5 1;
#X connect 33 0 4 1;
#X restore 43 34 pd keyboard-tempo;
#N canvas 313 208 765 481 algoChoice 0;
#X obj 86 66 spigot;
#X obj 86 120 t b;
#X obj 346 198 f;
#X obj 386 202 + 1;
#X obj 86 198 f;
#X obj 126 202 - 1;
#X obj 275 296 s player-\$1-algo-select-set;
#X obj 380 150 r player-\$1-algo-select;
#X obj 120 150 r player-\$1-algo-select;
#X obj 86 42 ctlin 21;
#X obj 346 66 spigot;
#X obj 346 120 t b;
#X obj 346 42 ctlin 22;
#X obj 205 260 moses 0;
#X obj 479 83 r lb1;
#X obj 346 90 select 127;
#X obj 86 90 select 127;
#X obj 355 260 r num-algos;
#X obj 101 409 button-bang-map player-\$1-rand-algo-set 38 \$1;
#X obj 479 109 active-player-abs \$1;
#X obj 275 260 moses;
#N canvas 859 119 458 584 fadermap-player-algo-select 0;
#X obj 28 176 / 127;
#X obj 218 299 * 127;
#X obj 28 136 t f b;
#X obj 28 422 t b f;
#X msg 278 308 0;
#X msg 310 309 1;
#X obj 218 338 spigot 1;
#X obj 75 339 + 0.5;
#X obj 75 360 i;
#X obj 121 287 > 0;
#X obj 75 314 spigot;
#X obj 28 239 t b f f b;
#X obj 28 395 f;
#X obj 28 111 spigot;
#X obj 100 94 r lb1;
#X obj 123 195 r num-algos;
#X obj 28 197 *;
#X obj 218 279 /;
#X obj 28 40 ctlin 25;
#X obj 218 362 ctlout 25;
#X obj 121 266 f 1;
#X obj 218 217 r player-\$1-algo-select;
#X obj 85 490 s player-\$1-algo-select-set;
#X obj 28 218 + 0;
#X obj 218 238 - 0;
#X obj 100 122 active-player-abs \$1;
#X obj 123 219 - 1;
#X obj 288 251 r num-algos;
#X obj 288 275 - 1;
#X connect 0 0 16 0;
#X connect 1 0 6 0;
#X connect 2 0 0 0;
#X connect 2 1 4 0;
#X connect 3 0 5 0;
#X connect 3 1 22 0;
#X connect 4 0 6 1;
#X connect 5 0 6 1;
#X connect 6 0 19 0;
#X connect 7 0 8 0;
#X connect 8 0 12 1;
#X connect 9 0 10 1;
#X connect 10 0 7 0;
#X connect 11 0 12 0;
#X connect 11 1 10 0;
#X connect 11 2 12 1;
#X connect 11 3 20 0;
#X connect 12 0 3 0;
#X connect 13 0 2 0;
#X connect 14 0 25 0;
#X connect 15 0 26 0;
#X connect 16 0 23 0;
#X connect 17 0 1 0;
#X connect 18 0 13 0;
#X connect 20 0 9 0;
#X connect 21 0 24 0;
#X connect 23 0 11 0;
#X connect 24 0 17 0;
#X connect 25 0 13 1;
#X connect 26 0 16 1;
#X connect 27 0 28 0;
#X connect 28 0 17 1;
#X restore 101 379 pd fadermap-player-algo-select;
#X connect 0 0 16 0;
#X connect 1 0 4 0;
#X connect 2 0 3 0;
#X connect 3 0 2 1;
#X connect 3 0 13 0;
#X connect 4 0 5 0;
#X connect 5 0 4 1;
#X connect 5 0 13 0;
#X connect 7 0 2 1;
#X connect 8 0 4 1;
#X connect 9 0 0 0;
#X connect 10 0 15 0;
#X connect 11 0 2 0;
#X connect 12 0 10 0;
#X connect 13 1 20 0;
#X connect 14 0 19 0;
#X connect 15 0 11 0;
#X connect 16 0 1 0;
#X connect 17 0 20 1;
#X connect 19 0 10 1;
#X connect 19 0 0 1;
#X connect 20 0 6 0;
#X restore 213 34 pd algoChoice;
#N canvas 623 283 807 587 last-param-changed 0;
#X obj 76 54 r player-\$1-last-param-changed;
#X obj 76 234 r player-\$1-last-param-changed;
#X obj 466 54 r player-\$1-last-param-changed;
#X obj 39 14 r player-\$1-latest-param-dec;
#X obj 39 204 r player-\$1-latest-param-inc;
#X obj 429 14 r player-\$1-latest-param-rand;
#X obj 402 292 button-bang-map player-\$1-latest-param-rand 18 \$1
1;
#X msg 429 146 \; player-\$1-algo-randomize-param-\$2-set bang \;;
#X msg 39 296 \; player-\$1-algo-inc-param-\$2-set bang \;;
#X msg 39 146 \; player-\$1-algo-dec-param-\$2-set bang \;;
#X obj 39 116 pack \$1 f;
#X obj 429 116 pack \$1 f;
#X obj 39 266 pack \$1 f;
#X floatatom 149 98 5 0 0 0 - - -;
#X obj 402 232 button-bang-map player-\$1-latest-param-dec 19 \$1 1
;
#X obj 402 262 button-bang-map player-\$1-latest-param-inc 20 \$1 1
;
#X obj 402 362 button-bang-map player-\$1-active-param-dec 16 \$1 1
;
#X obj 402 392 button-bang-map player-\$1-active-param-inc 17 \$1 1
;
#X obj 162 413 r player-\$1-last-param-changed;
#X obj 131 454 f;
#X obj 171 458 + 1;
#X obj 54 453 f;
#X obj 94 457 - 1;
#X obj 86 490 moses 0;
#X obj 156 520 s player-\$1-last-param-changed;
#X obj 36 364 r player-\$1-active-param-dec;
#X obj 80 389 r player-\$1-active-param-inc;
#X obj 156 490 moses 10;
#X connect 0 0 10 1;
#X connect 0 0 13 0;
#X connect 1 0 12 1;
#X connect 2 0 11 1;
#X connect 3 0 10 0;
#X connect 4 0 12 0;
#X connect 5 0 11 0;
#X connect 10 0 9 0;
#X connect 11 0 7 0;
#X connect 12 0 8 0;
#X connect 18 0 19 1;
#X connect 18 0 21 1;
#X connect 19 0 20 0;
#X connect 20 0 19 1;
#X connect 20 0 23 0;
#X connect 21 0 22 0;
#X connect 22 0 21 1;
#X connect 22 0 23 0;
#X connect 23 1 27 0;
#X connect 25 0 21 0;
#X connect 26 0 19 0;
#X connect 27 0 24 0;
#X restore 212 64 pd last-param-changed;
#N canvas 398 386 834 332 tempoSync 0;
#X obj 408 285 s player-\$1-tempo-sync-set;
#X obj 408 69 r player-\$1-tempo-sync-0;
#X msg 408 93 0;
#X msg 448 123 1;
#X msg 488 153 2;
#X msg 528 183 3;
#X msg 568 213 4;
#X msg 608 243 5;
#X obj 608 219 r player-\$1-tempo-sync-5;
#X obj 568 189 r player-\$1-tempo-sync-4;
#X obj 528 159 r player-\$1-tempo-sync-3;
#X obj 488 129 r player-\$1-tempo-sync-2;
#X obj 448 99 r player-\$1-tempo-sync-1;
#X obj 37 37 button-bang-map player-\$1-tempo-sync-0 30 \$1;
#X obj 37 187 button-bang-map player-\$1-tempo-sync-5 51 \$1;
#X obj 37 67 button-bang-map player-\$1-tempo-sync-1 31 \$1;
#X obj 37 97 button-bang-map player-\$1-tempo-sync-2 40 \$1;
#X obj 37 127 button-bang-map player-\$1-tempo-sync-3 41 \$1;
#X obj 37 157 button-bang-map player-\$1-tempo-sync-4 50 \$1;
#X connect 1 0 2 0;
#X connect 2 0 0 0;
#X connect 3 0 0 0;
#X connect 4 0 0 0;
#X connect 5 0 0 0;
#X connect 6 0 0 0;
#X connect 7 0 0 0;
#X connect 8 0 7 0;
#X connect 9 0 6 0;
#X connect 10 0 5 0;
#X connect 11 0 4 0;
#X connect 12 0 3 0;
#X restore 43 94 pd tempoSync;
#N canvas 940 287 660 547 lfo-freq 0;
#X text 137 14 Have to special-case this because we need logarithmic
scale from 0 to 4 \, but also log scale going from 0 down to -4;
#X obj 45 149 t f b;
#X obj 81 415 t b f;
#X msg 410 370 0;
#X msg 442 371 1;
#X obj 350 400 spigot 1;
#X obj 45 124 spigot;
#X obj 128 481 s player-\$1-spat-lfo-freq-set;
#X obj 392 146 r player-\$1-spat-lfo-freq;
#X obj 45 189 moses 64;
#X obj 45 213 t b f;
#X msg 45 237 63;
#X obj 45 261 -;
#X obj 45 285 / 63;
#X obj 45 339 * -4;
#X obj 45 315 pow 3;
#X obj 110 223 - 64;
#X obj 110 250 / 63;
#X obj 110 280 pow 3;
#X obj 110 304 * 4;
#X obj 392 173 moses 0;
#X obj 392 198 / -4;
#X obj 392 222 pow 0.333333;
#X obj 392 246 * 63;
#X obj 392 270 swap 63;
#X obj 392 294 -;
#X obj 512 222 pow 0.333333;
#X obj 512 246 * 63;
#X obj 512 198 / 4;
#X obj 512 270 + 64;
#X obj 150 111 r lb1;
#X obj 45 93 ctlin 120;
#X obj 350 424 ctlout 120;
#X obj 150 137 active-player-abs \$1;
#X connect 1 0 9 0;
#X connect 1 1 3 0;
#X connect 2 0 4 0;
#X connect 2 1 7 0;
#X connect 3 0 5 1;
#X connect 4 0 5 1;
#X connect 5 0 32 0;
#X connect 6 0 1 0;
#X connect 8 0 20 0;
#X connect 9 0 10 0;
#X connect 9 1 16 0;
#X connect 10 0 11 0;
#X connect 10 1 12 1;
#X connect 11 0 12 0;
#X connect 12 0 13 0;
#X connect 13 0 15 0;
#X connect 14 0 2 0;
#X connect 15 0 14 0;
#X connect 16 0 17 0;
#X connect 17 0 18 0;
#X connect 18 0 19 0;
#X connect 19 0 2 0;
#X connect 20 0 21 0;
#X connect 20 1 28 0;
#X connect 21 0 22 0;
#X connect 22 0 23 0;
#X connect 23 0 24 0;
#X connect 24 0 25 0;
#X connect 24 1 25 1;
#X connect 25 0 5 0;
#X connect 26 0 27 0;
#X connect 27 0 29 0;
#X connect 28 0 26 0;
#X connect 29 0 5 0;
#X connect 30 0 33 0;
#X connect 31 0 6 0;
#X connect 33 0 6 1;
#X restore 212 94 pd lfo-freq;
#N canvas 447 117 981 517 param-knobs 0;
#X obj 372 287 f;
#X obj 412 291 + 1;
#X obj 295 286 f;
#X obj 335 290 - 1;
#X obj 277 147 r player-\$1-algo-param-range-dec;
#X obj 321 172 r player-\$1-algo-param-range-inc;
#X obj 403 196 r player-\$1-algo-param-range;
#X obj 390 422 s player-\$1-algo-param-range-set;
#X obj 403 225 log 2;
#X obj 390 346 t b f;
#X msg 390 370 2;
#X obj 390 394 pow;
#X obj 505 318 button-bang-map player-\$1-algo-param-range-dec 12 \$1
1;
#X obj 505 288 button-bang-map player-\$1-algo-param-range-inc 10 \$1
1;
#X obj 327 323 moses 3;
#X obj 390 322 moses 17;
#X obj 37 37 fadermap-params \$1 0 110;
#X text 291 37 Had to special-case the parameter knob mapping abs since
their ranges need to change according to controls in [algo-param-interface-client]
, f 46;
#X obj 37 67 fadermap-params \$1 1 111;
#X obj 37 97 fadermap-params \$1 2 112;
#X obj 37 127 fadermap-params \$1 3 113;
#X obj 37 157 fadermap-params \$1 4 114;
#X obj 37 187 fadermap-params \$1 5 115;
#X obj 37 217 fadermap-params \$1 6 116;
#X obj 37 247 fadermap-params \$1 7 117;
#X obj 37 277 fadermap-params \$1 8 118;
#X obj 37 307 fadermap-params \$1 9 119;
#X connect 0 0 1 0;
#X connect 1 0 0 1;
#X connect 1 0 14 0;
#X connect 2 0 3 0;
#X connect 3 0 2 1;
#X connect 3 0 14 0;
#X connect 4 0 2 0;
#X connect 5 0 0 0;
#X connect 6 0 8 0;
#X connect 8 0 0 1;
#X connect 8 0 2 1;
#X connect 9 0 10 0;
#X connect 9 1 11 1;
#X connect 10 0 11 0;
#X connect 11 0 7 0;
#X connect 14 1 15 0;
#X connect 15 0 9 0;
#X restore 413 34 pd param-knobs;
#N canvas 559 236 860 389 bit-depth 0;
#X obj 113 93 spigot;
#X obj 113 157 t b;
#X obj 373 235 f;
#X obj 113 235 f;
#X obj 373 93 spigot;
#X obj 373 157 t b;
#X obj 147 187 r player-\$1-bit-depth;
#X obj 407 187 r player-\$1-bit-depth;
#X obj 302 333 s player-\$1-bit-depth-set;
#X obj 232 297 moses 1;
#X obj 302 297 moses 33;
#X obj 153 239 + 1;
#X obj 413 239 - 1;
#X obj 515 114 r lb1;
#X obj 113 117 select 127;
#X obj 373 117 select 127;
#X obj 113 69 ctlin 32;
#X obj 373 69 ctlin 42;
#X obj 515 140 active-player-abs \$1;
#X connect 0 0 14 0;
#X connect 1 0 3 0;
#X connect 2 0 12 0;
#X connect 3 0 11 0;
#X connect 4 0 15 0;
#X connect 5 0 2 0;
#X connect 6 0 3 1;
#X connect 7 0 2 1;
#X connect 9 1 10 0;
#X connect 10 0 8 0;
#X connect 11 0 3 1;
#X connect 11 0 9 0;
#X connect 12 0 2 1;
#X connect 12 0 9 0;
#X connect 13 0 18 0;
#X connect 14 0 1 0;
#X connect 15 0 5 0;
#X connect 16 0 0 0;
#X connect 17 0 4 0;
#X connect 18 0 4 1;
#X connect 18 0 0 1;
#X restore 413 94 pd bit-depth;
#N canvas 738 392 488 228 compute-interp-rand 0;
#X obj 36 126 button-toggle-map player-\$1-interpolation 24 \$1 0 1
player-\$1-interpolation-set;
#X obj 36 76 button-toggle-map player-\$1-compute 23 \$1 0 1 player-\$1-compute-set
;
#X obj 36 46 button-bang-map player-\$1-algo-randomize-set 9 \$1;
#X restore 413 124 pd compute-interp-rand;
#N canvas 1220 237 542 406 preset-loading 0;
#X obj 37 97 button-bang-map player-\$1-algo-refresh-params-set 55
\$1;
#X obj 37 37 button-bang-map player-\$1-algo-save-params-set 35 \$1
;
#X obj 37 67 button-bang-map player-\$1-algo-load-params-set 45 \$1
;
#X obj 37 147 button-toggle-map player-\$1-load-bit-depth 33 \$1 0
1 player-\$1-load-bit-depth-set;
#X obj 37 297 button-toggle-map player-\$1-load-params 54 \$1 0 1 player-\$1-load-params-set
;
#X obj 37 247 button-toggle-map player-\$1-load-tempo 53 \$1 0 1 player-\$1-load-tempo-set
;
#X obj 37 197 button-toggle-map player-\$1-load-time 43 \$1 0 1 player-\$1-load-time-set
;
#X restore 413 64 pd preset-loading;
#N canvas 723 423 368 415 active-player-sensing 0;
#N canvas 1216 525 422 385 RGB 0;
#X obj 32 36 inlet;
#X obj 109 327 outlet;
#X text 49 95 red;
#X text 119 97 green;
#X text 191 97 blue;
#X obj 175 145 t b f;
#X obj 109 203 +;
#X obj 109 228 t b f;
#X obj 109 259 +;
#X obj 109 123 * -256;
#X obj 175 123 * -1;
#X obj 109 290 - 1;
#X obj 32 60 unpack f f f;
#X obj 32 122 * -65536;
#X obj 248 72 i;
#X floatatom 248 96 5 0 0 0 - - -;
#X obj 272 122 i;
#X floatatom 272 146 5 0 0 0 - - -;
#X obj 307 172 i;
#X floatatom 307 196 5 0 0 0 - - -;
#X obj 231 12 hsl 128 15 0 255 0 0 empty empty empty -2 -8 0 10 -262144
-1 -1 0 1;
#X obj 241 32 hsl 128 15 0 255 0 0 empty empty empty -2 -8 0 10 -262144
-1 -1 0 1;
#X obj 251 52 hsl 128 15 0 255 0 0 empty empty empty -2 -8 0 10 -262144
-1 -1 0 1;
#X connect 0 0 12 0;
#X connect 5 0 6 0;
#X connect 5 1 6 1;
#X connect 6 0 7 0;
#X connect 7 0 8 0;
#X connect 7 1 8 1;
#X connect 8 0 11 0;
#X connect 9 0 6 0;
#X connect 10 0 5 0;
#X connect 11 0 1 0;
#X connect 12 0 13 0;
#X connect 12 1 9 0;
#X connect 12 2 10 0;
#X connect 13 0 8 0;
#X connect 14 0 15 0;
#X connect 14 0 13 0;
#X connect 16 0 17 0;
#X connect 16 0 9 0;
#X connect 18 0 19 0;
#X connect 18 0 10 0;
#X connect 20 0 14 0;
#X connect 21 0 16 0;
#X connect 22 0 18 0;
#X restore 48 241 pd RGB;
#X obj 48 265 list prepend color;
#X obj 48 299 list trim;
#X obj 48 151 select 0 1;
#X msg 48 175 255 255 255;
#X msg 88 205 255 160 160;
#X obj 48 329 s player-\$1-active-canvas-set;
#X obj 48 54 r lb1;
#X obj 48 121 change -1;
#X obj 48 78 active-player-abs \$1;
#X connect 0 0 1 0;
#X connect 1 0 2 0;
#X connect 2 0 6 0;
#X connect 3 0 4 0;
#X connect 3 1 5 0;
#X connect 4 0 0 0;
#X connect 5 0 0 0;
#X connect 7 0 9 0;
#X connect 8 0 3 0;
#X connect 9 0 8 0;
#X restore 212 124 pd active-player-sensing;
#N canvas 0 23 450 300 keyboard-ASR 0;
#X obj 36 76 button-toggle-map player-\$1-asr-kbd 15 \$1 0 1 player-\$1-asr-kbd-set
;
#X obj 36 136 fadermap player-\$1-asr-time 13 \$1 0 1000 player-\$1-asr-time-set
0;
#X restore 43 64 pd keyboard-ASR;
#N canvas 450 366 991 375 main-faders 0;
#X text 38 61 Leave a gap so that fader 103 can be the "other" player
gain;
#X obj 41 99 fadermap player-\$1-spat-pos 104 \$1 0 1 player-\$1-spat-pos-set
0;
#X obj 41 139 fadermap player-\$1-spat-width 105 \$1 0 1 player-\$1-spat-width-set
0;
#X obj 41 189 fadermap player-\$1-bit-depth 106 \$1 1 31 player-\$1-bit-depth-set
1;
#X obj 541 209 fadermap player-\$1-rvb-liveness 109 \$1 50 50 player-\$1-rvb-liveness-set
1;
#X obj 541 159 fadermap player-\$1-dry-wet 108 \$1 0 100 player-\$1-dry-wet-set
1;
#X obj 41 239 fadermap player-\$1-tempo 101 \$1 1 239 player-\$1-tempo-set
1;
#X obj 541 289 fadermap player-\$1-rvb-damping 100 \$1 0 100 player-\$1-rvb-damping-set
1;
#X obj 541 249 fadermap player-\$1-rvb-xover 99 \$1 500 9500 player-\$1-rvb-xover-set
1;
#X obj 541 119 fadermap player-\$1-wet 71 \$1 40 60 player-\$1-wet-set
1;
#X obj 541 79 fadermap player-\$1-dry 70 \$1 40 60 player-\$1-dry-set
1;
#X restore 212 154 pd main-faders;
#N canvas 398 386 834 332 cloning 0;
#X msg 408 93 0;
#X msg 448 123 1;
#X msg 488 153 2;
#X msg 528 183 3;
#X msg 568 213 4;
#X msg 608 243 5;
#X obj 608 219 r player-\$1-clone-5;
#X obj 408 69 r player-\$1-clone-0;
#X obj 448 99 r player-\$1-clone-1;
#X obj 488 129 r player-\$1-clone-2;
#X obj 528 159 r player-\$1-clone-3;
#X obj 568 189 r player-\$1-clone-4;
#X obj 408 285 s player-\$1-clone-set;
#X obj 37 37 button-bang-map player-\$1-clone-0 26 \$1;
#X obj 37 67 button-bang-map player-\$1-clone-1 27 \$1;
#X obj 37 97 button-bang-map player-\$1-clone-2 28 \$1;
#X obj 37 127 button-bang-map player-\$1-clone-3 29 \$1;
#X obj 37 157 button-bang-map player-\$1-clone-4 36 \$1;
#X obj 37 187 button-bang-map player-\$1-clone-5 37 \$1;
#X connect 0 0 12 0;
#X connect 1 0 12 0;
#X connect 2 0 12 0;
#X connect 3 0 12 0;
#X connect 4 0 12 0;
#X connect 5 0 12 0;
#X connect 6 0 5 0;
#X connect 7 0 0 0;
#X connect 8 0 1 0;
#X connect 9 0 2 0;
#X connect 10 0 3 0;
#X connect 11 0 4 0;
#X restore 43 184 pd cloning;
#N canvas 176 320 1117 652 time 0;
#X obj 55 81 button-bang-map player-\$1-time-reverse-set 56 \$1;
#X obj 55 121 fadermap player-\$1-time-point 107 \$1 0 1623 player-\$1-time-point-set
1;
#X obj 533 78 spigot;
#X obj 533 103 select 127;
#X obj 533 318 spigot;
#X obj 533 343 select 127;
#X obj 828 466 random 2.14748e+09;
#X obj 533 54 ctlin 34;
#X obj 533 294 ctlin 44;
#X text 841 361 Jump to a random time between 0 and INT_MAX. [random]
can't go higher than this \, even though [outputAlgo~]'s time paramter
goes to UINT_MAX, f 31;
#X obj 533 515 s player-\$1-set-time-random;
#X obj 533 393 s player-\$1-algo-time-rand-set;
#X obj 533 475 r player-\$1-algo-time-rand;
#X msg 863 151 0;
#X text 883 178 Jump to time zero;
#X obj 533 161 s player-\$1-algo-time-zero-set;
#X obj 863 115 r player-\$1-algo-time-zero;
#X obj 863 205 s player-\$1-time-index-set;
#X obj 828 500 s player-\$1-time-index-set;
#X obj 142 381 spigot;
#X obj 225 367 r lb1;
#X obj 142 410 t b;
#X obj 142 454 s player-\$1-loop-record-set;
#X obj 142 357 ctlin 66;
#X text 274 490 Hold the loop record button and release at desired
loop end point, f 18;
#X obj 52 381 spigot;
#X obj 52 357 ctlin 67;
#X obj 52 494 s player-\$1-loop-reset-set;
#X obj 52 410 select 127;
#X msg 50 563 -1;
#X obj 50 590 s player-\$1-loop-point-start-set;
#X obj 50 540 r player-\$1-loop-reset;
#X obj 225 393 active-player-abs \$1;
#X obj 624 315 active-player-abs \$1;
#X obj 624 285 r lb1;
#X obj 624 75 active-player-abs \$1;
#X obj 624 45 r lb1;
#X obj 55 171 fadermap player-\$1-loop-point-start 121 \$1 0 4.2949e+09
player-\$1-loop-point-start-set 0;
#X obj 55 211 fadermap player-\$1-loop-point-end 122 \$1 0 4.2949e+09
player-\$1-loop-point-end-set 0;
#X connect 2 0 3 0;
#X connect 3 0 15 0;
#X connect 4 0 5 0;
#X connect 5 0 11 0;
#X connect 6 0 18 0;
#X connect 7 0 2 0;
#X connect 8 0 4 0;
#X connect 12 0 10 0;
#X connect 13 0 17 0;
#X connect 16 0 13 0;
#X connect 19 0 21 0;
#X connect 20 0 32 0;
#X connect 21 0 22 0;
#X connect 23 0 19 0;
#X connect 25 0 28 0;
#X connect 26 0 25 0;
#X connect 28 0 27 0;
#X connect 29 0 30 0;
#X connect 31 0 29 0;
#X connect 32 0 19 1;
#X connect 32 0 25 1;
#X connect 33 0 4 1;
#X connect 34 0 33 0;
#X connect 35 0 2 1;
#X connect 36 0 35 0;
#X restore 43 154 pd time;
#N canvas 348 243 680 266 timeSync 0;
#X obj 123 153 r player-\$1-tempo-sync;
#X obj 83 154 f;
#X obj 83 205 s player-\$1-time-sync-set;
#X obj 83 78 spigot;
#X obj 83 103 select 127;
#X obj 83 127 t b;
#X obj 83 54 ctlin 52;
#N canvas 466 63 935 429 time-sync-buttons 0;
#X obj 83 165 s player-\$1-time-sync-set;
#X obj 83 78 spigot;
#X obj 83 103 select 127;
#X obj 83 54 ctlin 60;
#X msg 83 127 0;
#X obj 293 165 s player-\$1-time-sync-set;
#X obj 293 78 spigot;
#X obj 293 103 select 127;
#X obj 503 165 s player-\$1-time-sync-set;
#X obj 503 78 spigot;
#X obj 503 103 select 127;
#X obj 293 54 ctlin 61;
#X obj 503 54 ctlin 62;
#X msg 293 127 1;
#X msg 503 127 2;
#X obj 83 345 s player-\$1-time-sync-set;
#X obj 83 258 spigot;
#X obj 83 283 select 127;
#X obj 293 345 s player-\$1-time-sync-set;
#X obj 293 258 spigot;
#X obj 293 283 select 127;
#X obj 503 345 s player-\$1-time-sync-set;
#X obj 503 258 spigot;
#X obj 503 283 select 127;
#X obj 83 234 ctlin 63;
#X obj 293 234 ctlin 64;
#X obj 503 234 ctlin 65;
#X msg 503 307 5;
#X msg 293 307 4;
#X msg 83 307 3;
#X obj 649 86 active-player-abs \$1;
#X obj 649 56 r lb1;
#X connect 1 0 2 0;
#X connect 2 0 4 0;
#X connect 3 0 1 0;
#X connect 4 0 0 0;
#X connect 6 0 7 0;
#X connect 7 0 13 0;
#X connect 9 0 10 0;
#X connect 10 0 14 0;
#X connect 11 0 6 0;
#X connect 12 0 9 0;
#X connect 13 0 5 0;
#X connect 14 0 8 0;
#X connect 16 0 17 0;
#X connect 17 0 29 0;
#X connect 19 0 20 0;
#X connect 20 0 28 0;
#X connect 22 0 23 0;
#X connect 23 0 27 0;
#X connect 24 0 16 0;
#X connect 25 0 19 0;
#X connect 26 0 22 0;
#X connect 27 0 21 0;
#X connect 28 0 18 0;
#X connect 29 0 15 0;
#X connect 30 0 1 1;
#X connect 30 0 6 1;
#X connect 30 0 9 1;
#X connect 30 0 22 1;
#X connect 30 0 19 1;
#X connect 30 0 16 1;
#X connect 31 0 30 0;
#X restore 478 120 pd time-sync-buttons;
#X obj 174 75 active-player-abs \$1;
#X obj 174 45 r lb1;
#X connect 0 0 1 1;
#X connect 1 0 2 0;
#X connect 3 0 4 0;
#X connect 4 0 5 0;
#X connect 5 0 1 0;
#X connect 6 0 3 0;
#X connect 8 0 3 1;
#X connect 9 0 8 0;
#X restore 43 124 pd timeSync;
#X restore 20 331 pd MIDI;
#X obj 380 20 algo-param-interface-client \$1;
#N canvas 804 84 871 551 parameter-automation 0;
#X obj 111 35 ctlin 124;
#X obj 119 353 pack f s;
#X msg 168 312 symbol play;
#X msg 279 311 symbol rec;
#X obj 111 88 spigot;
#X obj 78 238 f;
#X obj 116 225 + 1;
#X obj 111 112 select 0 127;
#X obj 163 161 t b b;
#X obj 40 274 f;
#X obj 98 157 t b b;
#X obj 119 400 s player-\$1-param-auto-command;
#X obj 116 249 % 20;
#X text 176 250 20 automation voices;
#X obj 207 78 active-player-abs \$1;
#X obj 207 48 r lb1;
#X obj 408 223 clone param-automation-abs 20 \$1;
#X msg 408 183 vis 4 1;
#X obj 401 330 button-bang-map player-\$1-automation-killall-set 125
\$1;
#X connect 0 0 4 0;
#X connect 1 0 11 0;
#X connect 2 0 1 1;
#X connect 3 0 1 1;
#X connect 4 0 7 0;
#X connect 5 0 6 0;
#X connect 5 0 1 0;
#X connect 5 0 9 1;
#X connect 6 0 12 0;
#X connect 7 0 10 0;
#X connect 7 1 8 0;
#X connect 8 0 5 0;
#X connect 8 1 3 0;
#X connect 9 0 1 0;
#X connect 10 0 9 0;
#X connect 10 1 2 0;
#X connect 12 0 5 1;
#X connect 14 0 4 1;
#X connect 15 0 14 0;
#X connect 17 0 16 0;
#X restore 264 284 pd parameter-automation;
#N canvas 84 434 832 284 last-MIDI-control-moved 0;
#N canvas 436 275 1121 358 p0-p9 0;
#X obj 49 100 t b;
#X obj 49 275 symbol;
#X obj 129 100 t b;
#X obj 209 100 t b;
#X obj 289 100 t b;
#X obj 369 100 t b;
#X obj 449 100 t b;
#X obj 529 100 t b;
#X obj 609 100 t b;
#X obj 689 100 t b;
#X obj 769 100 t b;
#X obj 49 299 s player-\$1-last-MIDI-trig-send-name;
#X msg 49 224 player-\$1-algo-param-\$2-set;
#X obj 49 128 pack \$1 0;
#X obj 129 128 pack \$1 1;
#X obj 209 128 pack \$1 2;
#X obj 289 128 pack \$1 3;
#X obj 369 128 pack \$1 4;
#X obj 449 128 pack \$1 5;
#X obj 529 128 pack \$1 6;
#X obj 609 128 pack \$1 7;
#X obj 689 128 pack \$1 8;
#X obj 769 128 pack \$1 9;
#X obj 504 260 s player-\$1-last-param-changed;
#X obj 428 224 unpack f f;
#X obj 49 26 ctlin 110;
#X obj 129 26 ctlin 111;
#X obj 209 26 ctlin 112;
#X obj 289 26 ctlin 113;
#X obj 369 26 ctlin 114;
#X obj 449 26 ctlin 115;
#X obj 529 26 ctlin 116;
#X obj 609 26 ctlin 117;
#X obj 689 26 ctlin 118;
#X obj 769 26 ctlin 119;
#X obj 49 66 spigot;
#X obj 129 66 spigot;
#X obj 209 66 spigot;
#X obj 289 66 spigot;
#X obj 369 66 spigot;
#X obj 449 66 spigot;
#X obj 529 66 spigot;
#X obj 609 66 spigot;
#X obj 689 66 spigot;
#X obj 769 66 spigot;
#X obj 859 86 active-player-abs \$1;
#X obj 859 56 r lb1;
#X connect 0 0 13 0;
#X connect 1 0 11 0;
#X connect 2 0 14 0;
#X connect 3 0 15 0;
#X connect 4 0 16 0;
#X connect 5 0 17 0;
#X connect 6 0 18 0;
#X connect 7 0 19 0;
#X connect 8 0 20 0;
#X connect 9 0 21 0;
#X connect 10 0 22 0;
#X connect 12 0 1 0;
#X connect 13 0 12 0;
#X connect 13 0 24 0;
#X connect 14 0 12 0;
#X connect 14 0 24 0;
#X connect 15 0 12 0;
#X connect 15 0 24 0;
#X connect 16 0 12 0;
#X connect 16 0 24 0;
#X connect 17 0 12 0;
#X connect 17 0 24 0;
#X connect 18 0 12 0;
#X connect 18 0 24 0;
#X connect 19 0 12 0;
#X connect 19 0 24 0;
#X connect 20 0 12 0;
#X connect 20 0 24 0;
#X connect 21 0 12 0;
#X connect 21 0 24 0;
#X connect 22 0 12 0;
#X connect 22 0 24 0;
#X connect 24 1 23 0;
#X connect 25 0 35 0;
#X connect 26 0 36 0;
#X connect 27 0 37 0;
#X connect 28 0 38 0;
#X connect 29 0 39 0;
#X connect 30 0 40 0;
#X connect 31 0 41 0;
#X connect 32 0 42 0;
#X connect 33 0 43 0;
#X connect 34 0 44 0;
#X connect 35 0 0 0;
#X connect 36 0 2 0;
#X connect 37 0 3 0;
#X connect 38 0 4 0;
#X connect 39 0 5 0;
#X connect 40 0 6 0;
#X connect 41 0 7 0;
#X connect 42 0 8 0;
#X connect 43 0 9 0;
#X connect 44 0 10 0;
#X connect 45 0 44 1;
#X connect 45 0 43 1;
#X connect 45 0 42 1;
#X connect 45 0 41 1;
#X connect 45 0 40 1;
#X connect 45 0 39 1;
#X connect 45 0 38 1;
#X connect 45 0 37 1;
#X connect 45 0 36 1;
#X connect 45 0 35 1;
#X connect 46 0 45 0;
#X restore 49 105 pd p0-p9;
#X symbolatom 226 99 80 0 0 0 - - -;
#N canvas 523 82 743 303 panning 0;
#X obj 49 90 t b;
#X obj 49 114 f \$1;
#X obj 49 195 symbol;
#X obj 49 26 ctlin 104;
#X obj 49 219 s player-\$1-last-MIDI-trig-send-name;
#X msg 49 154 player-\$1-spat-pos-set;
#X obj 49 58 spigot;
#X obj 259 90 t b;
#X obj 259 114 f \$1;
#X obj 259 58 spigot;
#X msg 259 154 player-\$1-spat-width-set;
#X obj 259 26 ctlin 105;
#X obj 440 76 active-player-abs \$1;
#X obj 440 46 r lb1;
#X connect 0 0 1 0;
#X connect 1 0 5 0;
#X connect 2 0 4 0;
#X connect 3 0 6 0;
#X connect 5 0 2 0;
#X connect 6 0 0 0;
#X connect 7 0 8 0;
#X connect 8 0 10 0;
#X connect 9 0 7 0;
#X connect 10 0 2 0;
#X connect 11 0 9 0;
#X connect 12 0 6 1;
#X connect 12 0 9 1;
#X connect 13 0 12 0;
#X restore 49 35 pd panning;
#N canvas 863 173 459 379 pitch-bend 0;
#X obj 49 90 t b;
#X obj 49 114 f \$1;
#X obj 49 304 symbol;
#X obj 49 328 s player-\$1-last-MIDI-trig-send-name;
#X obj 49 58 spigot;
#X msg 49 263 player-\$1-pitch-bend-set;
#X obj 49 26 bendin;
#X obj 139 58 spigot;
#X obj 139 26 ctlin 123;
#X obj 244 150 active-player-abs \$1;
#X obj 244 120 r lb1;
#X connect 0 0 1 0;
#X connect 1 0 5 0;
#X connect 2 0 3 0;
#X connect 4 0 0 0;
#X connect 5 0 2 0;
#X connect 6 0 4 0;
#X connect 7 0 0 0;
#X connect 8 0 7 0;
#X connect 9 0 4 1;
#X connect 9 0 7 1;
#X connect 10 0 9 0;
#X restore 49 225 pd pitch-bend;
#N canvas 392 141 450 300 bit-depth 0;
#X obj 49 90 t b;
#X obj 49 114 f \$1;
#X obj 49 195 symbol;
#X obj 49 26 ctlin 106;
#X obj 49 219 s player-\$1-last-MIDI-trig-send-name;
#X msg 49 154 player-\$1-bit-depth-set;
#X obj 49 58 spigot;
#X obj 160 76 active-player-abs \$1;
#X obj 160 46 r lb1;
#X connect 0 0 1 0;
#X connect 1 0 5 0;
#X connect 2 0 4 0;
#X connect 3 0 6 0;
#X connect 5 0 2 0;
#X connect 6 0 0 0;
#X connect 7 0 6 1;
#X connect 8 0 7 0;
#X restore 49 135 pd bit-depth;
#X obj 226 75 r player-\$1-last-MIDI-trig-send-name;
#N canvas 132 112 472 374 tempo 0;
#X obj 49 180 t b;
#X obj 49 204 f \$1;
#X obj 49 295 symbol;
#X obj 49 26 ctlin 101;
#X obj 49 319 s player-\$1-last-MIDI-trig-send-name;
#X msg 49 264 player-\$1-tempo-set;
#X obj 49 108 spigot;
#X obj 270 76 active-player-abs \$1;
#X obj 270 46 r lb1;
#X obj 149 108 spigot;
#X obj 149 26 notein;
#X obj 149 50 stripnote;
#X connect 0 0 1 0;
#X connect 1 0 5 0;
#X connect 2 0 4 0;
#X connect 3 0 6 0;
#X connect 5 0 2 0;
#X connect 6 0 0 0;
#X connect 7 0 6 1;
#X connect 7 0 9 1;
#X connect 8 0 7 0;
#X connect 9 0 0 0;
#X connect 10 0 11 0;
#X connect 10 1 11 1;
#X connect 11 0 9 0;
#X restore 49 165 pd tempo;
#N canvas 382 181 422 315 wet-dry 0;
#X obj 49 90 t b;
#X obj 49 114 f \$1;
#X obj 49 195 symbol;
#X obj 49 219 s player-\$1-last-MIDI-trig-send-name;
#X obj 49 58 spigot;
#X obj 49 26 ctlin 108;
#X msg 49 154 player-\$1-dry-wet-set;
#X obj 160 76 active-player-abs \$1;
#X obj 160 46 r lb1;
#X connect 0 0 1 0;
#X connect 1 0 6 0;
#X connect 2 0 3 0;
#X connect 4 0 0 0;
#X connect 5 0 4 0;
#X connect 6 0 2 0;
#X connect 7 0 4 1;
#X connect 8 0 7 0;
#X restore 49 65 pd wet-dry;
#N canvas 338 364 450 300 time-reverse 0;
#X obj 49 100 t b;
#X obj 49 124 f \$1;
#X obj 49 195 symbol;
#X obj 49 219 s player-\$1-last-MIDI-trig-send-name;
#X obj 49 58 spigot;
#X msg 49 164 player-\$1-time-reverse-set;
#X obj 49 26 ctlin 56;
#X obj 160 76 active-player-abs \$1;
#X obj 160 46 r lb1;
#X connect 0 0 1 0;
#X connect 1 0 5 0;
#X connect 2 0 3 0;
#X connect 4 0 0 0;
#X connect 5 0 2 0;
#X connect 6 0 4 0;
#X connect 7 0 4 1;
#X connect 8 0 7 0;
#X restore 49 195 pd time-reverse;
#X connect 5 0 1 0;
#X restore 264 254 pd last-MIDI-control-moved;
#X obj 929 199 cnv 15 100 30 empty empty empty 20 12 0 14 -262144 -66577
0;
#N canvas 246 165 794 455 save-and-load-caches 0;
#X msg 43 116 0;
#X obj 163 37 r player-\$1-algo-select;
#X obj 249 277 pack f \$1;
#X obj 111 334 pack f \$1;
#X msg 249 307 \; player-\$2-algo-save-cache \$1 \;;
#X obj 249 249 tabread player-\$1-algo-params;
#X obj 163 113 t f b;
#X obj 43 83 r lb2;
#X msg 249 227 0;
#X msg 111 361 \; player-\$2-algo-load-cache \$1 \;;
#X obj 163 71 spigot;
#X obj 223 71 r player-\$1-algo-select-retrigger-suppress-spigot;
#X text 309 117 it's tempting to consider redesigning this algo select
retrigger suppress strategy. however \, the current method may actually
be the most elegant solution. when loading from a preset \, there is
no way to send the algo ID number to algo-player.pd other than player-\$1-algo-select
\, which causes a stack overflow. one option would be an additional
parallel send name. is that worth it? \;;
#X connect 0 0 3 0;
#X connect 1 0 10 0;
#X connect 2 0 4 0;
#X connect 3 0 9 0;
#X connect 5 0 2 0;
#X connect 6 0 3 0;
#X connect 6 1 8 0;
#X connect 7 0 0 0;
#X connect 8 0 5 0;
#X connect 10 0 6 0;
#X connect 11 0 10 1;
#X restore 20 271 pd save-and-load-caches;
#X coords 0 -1 1 1 1010 210 2 20 20;
#X restore 10 6 pd panel;
