#N canvas 1003 89 764 439 12;
#X obj 122 42 == \$2;
#X obj 122 66 select 1;
#X text 380 37 \$1: sync requestor's player ID \; \$2: this player
ID \;;
#X obj 59 227 bng 15 250 50 0 empty empty empty 17 7 0 10 -262144 -1
-1;
#X obj 122 294 list;
#X text 452 210 Requested data goes to other abstraction instances
\, but to a cold inlet where it terminates. The exception is this instance
\, where the data stored in [list ] is banged through, f 32;
#X obj 122 18 r player-\$1-clone;
#X obj 172 218 s player-\$2-get-algo-settings;
#X obj 152 263 r player-\$2-complete-algo-settings;
#X obj 122 359 s player-\$1-algo-settings-for-client;
#X obj 122 90 t b b b b;
#X obj 212 178 s player-\$2-suppress-complete-algo-settings;
#X msg 252 150 1;
#X msg 212 150 0;
#X text 300 102 In the synth-duo branch \, all player abstractions
are within scope \, and when a player gets cloned \, its complete algo
settings end up triggering parameter population in the algo-param-interface-client.pd.
We need to suppress this for cloning.;
#X connect 0 0 1 0;
#X connect 1 0 10 0;
#X connect 4 0 9 0;
#X connect 6 0 0 0;
#X connect 8 0 4 1;
#X connect 10 0 3 0;
#X connect 10 0 4 0;
#X connect 10 1 13 0;
#X connect 10 2 7 0;
#X connect 10 3 12 0;
#X connect 12 0 11 0;
#X connect 13 0 11 0;
