#N canvas 46 464 899 503 10;
#X obj 653 86 f \$1;
#X obj 25 295 pack f \$1;
#X msg 25 268 1;
#X text 293 62 REVERB;
#X floatatom 296 104 5 50 100 1 liveness player-#1-rvb-liveness-set
player-#1-rvb-liveness;
#X floatatom 296 194 7 1 240 1 tempo player-#1-tempo-set player-#1-tempo
;
#X obj 296 124 tgl 15 0 player-\$1-compute player-\$1-compute-set comp
17 7 0 10 -262144 -1 -1 0 1;
#X obj 175 174 hradio 15 1 0 6 player-\$1-tempo-sync player-\$1-tempo-sync-set
tempoSync 16 8 0 10 -262144 -1 -1 4;
#X obj 175 194 hradio 15 1 0 6 player-\$1-time-sync player-\$1-time-sync-set
timeSync 16 8 0 10 -262144 -1 -1 0;
#X obj 346 124 tgl 15 0 player-\$1-interpolation player-\$1-interpolation-set
intrp 17 7 0 10 -262144 -1 -1 0 1;
#X floatatom 65 194 15 0 0 1 t player-#1-time-index-set player-#1-time-index
;
#X obj 653 61 r lb4;
#X obj 276 176 vsl 8 30 -1 1 0 0 player-\$1-pitch-bend player-\$1-pitch-bend-set
empty 0 -9 0 10 -262144 -1 -1 0 1;
#X msg 25 320 \; pd-player-\$2-raw-output-plot vis \$1 \;;
#X obj 60 70 cnv 15 230 95 empty player-\$1-active-canvas-set empty
20 12 0 14 -260649 -66577 0;
#X obj 68 124 hsl 128 15 0 1 0 0 player-\$1-spat-pos player-\$1-spat-pos-set
player-\$1-spat-pos 4 8 0 10 -262144 -1 -1 0 1;
#X obj 68 84 hsl 128 15 40 100 0 0 player-\$1-gain player-\$1-gain-set
player-\$1-gain 4 8 0 10 -262144 -1 -1 0 1;
#X floatatom 206 84 5 0 0 1 dB player-#1-gain -;
#X obj 68 144 hsl 128 15 0.01 1 0 0 player-\$1-spat-width player-\$1-spat-width-set
player-\$1-spat-width 4 8 0 10 -262144 -1 -1 0 1;
#X floatatom 206 144 5 1 32 1 bitDepth player-#1-bitDepth-set player-#1-bitDepth
;
#X obj 65 104 bng 15 250 50 0 empty empty plot 17 7 0 10 -262144 -1
-1;
#X obj 137 104 cnv 15 60 14 empty player-\$1-spat-lfo-ctrl-color empty
20 12 0 14 -259678 -262144 0;
#X floatatom 136 104 10 -4 4 0 - player-#1-spat-lfo-freq-set player-#1-spat-lfo-freq
;
#X obj 266 84 tgl 15 0 player-\$1-mute player-\$1-mute-set m 4 7 0
10 -262144 -1 -1 0 1;
#N canvas 264 396 499 382 find-MIDI-note 0;
#X obj 45 46 r player-\$1-tempo;
#X obj 45 93 / 60;
#X obj 45 141 ftom;
#X obj 148 89 r lb1;
#X msg 148 113 60;
#X obj 148 137 mtof;
#X obj 45 117 *;
#X text 238 66 Based on the current tempo (regardless of whether it
came from a preset or the keyboard) \, this displays the current tempo
as a MIDI note. Makes it easier to find the tempo of another player
on the keyboard., f 23;
#X obj 45 260 s player-\$1-midi-note-display;
#X obj 45 162 + 0.5;
#X obj 45 183 i;
#X obj 45 234 text get midiNoteNames;
#X obj 45 204 change;
#X connect 0 0 1 0;
#X connect 1 0 6 0;
#X connect 2 0 9 0;
#X connect 3 0 4 0;
#X connect 4 0 5 0;
#X connect 5 0 6 1;
#X connect 6 0 2 0;
#X connect 9 0 10 0;
#X connect 10 0 12 0;
#X connect 11 0 8 0;
#X connect 12 0 11 0;
#X restore 437 68 pd find-MIDI-note;
#X symbolatom 296 174 7 0 0 1 note player-#1-midi-note-display -;
#X floatatom 206 124 5 0 500 2 algo-select player-#1-algo-select-set
player-#1-algo-select;
#X obj 296 154 tgl 15 0 player-\$1-asr-kbd player-\$1-asr-kbd-set ASR-kbd
17 7 0 10 -262144 -1 -1 0 1;
#N canvas 897 125 427 283 time-control 0;
#X obj 67 15 r player-\$1-time-point;
#X obj 67 98 * 60;
#X obj 67 137 * 44100;
#X text 163 95 seconds;
#X text 163 135 samples;
#X text 225 14 0-1623;
#X obj 67 220 s player-\$1-time-index-set;
#X connect 0 0 1 0;
#X connect 1 0 2 0;
#X connect 2 0 6 0;
#X restore 437 98 pd time-control;
#N canvas 740 452 597 382 spat-LFO-control 0;
#X text 484 232 stopped;
#X obj 57 60 moses 0;
#X text 81 306 moving counter-clockwise;
#X text 283 160 moving clockwise;
#X obj 157 138 select 0 1;
#X obj 57 138 select 1 0;
#X obj 57 40 r player-\$1-spat-lfo-freq;
#X obj 57 95 <= -0.005;
#X obj 157 95 >= 0.005;
#X msg 197 187 \; player-\$1-spat-lfo-ctrl-color color -8.45414e+06
0 0;
#X msg 157 227 \; player-\$1-spat-lfo-ctrl-color color -1.67374e+07
0 0;
#X msg 57 267 \; player-\$1-spat-lfo-ctrl-color color -1.6763e+07 0
0;
#X obj 57 239 f \$1;
#X obj 157 207 f \$1;
#X obj 197 167 f \$1;
#X obj 157 116 change;
#X obj 57 116 change;
#X connect 1 0 7 0;
#X connect 1 1 8 0;
#X connect 4 0 13 0;
#X connect 4 1 14 0;
#X connect 5 0 12 0;
#X connect 5 1 13 0;
#X connect 6 0 1 0;
#X connect 7 0 16 0;
#X connect 8 0 15 0;
#X connect 12 0 11 0;
#X connect 13 0 10 0;
#X connect 14 0 9 0;
#X connect 15 0 4 0;
#X connect 16 0 5 0;
#X restore 437 128 pd spat-LFO-control;
#N canvas 806 483 447 366 dry-wet 0;
#X obj 35 37 r player-\$1-dry-wet;
#X obj 35 58 / 100;
#X obj 35 99 cos;
#X obj 35 79 * 1.5708;
#X text 104 78 pi/2 to get from 1 down to 0;
#X obj 195 137 t b f;
#X obj 195 179 -;
#X msg 195 158 1;
#X obj 35 140 max 0;
#X text 44 284 This nonlinear mapping of dry/wet favors the dry side
\, so you have to push into the 70% range to get a lot of reverb;
#X obj 35 233 s player-\$1-dry-set;
#X obj 195 233 s player-\$1-wet-set;
#X obj 35 210 rmstodb;
#X obj 195 210 rmstodb;
#X connect 0 0 1 0;
#X connect 1 0 3 0;
#X connect 2 0 8 0;
#X connect 3 0 2 0;
#X connect 5 0 7 0;
#X connect 5 1 6 1;
#X connect 6 0 13 0;
#X connect 7 0 6 0;
#X connect 8 0 5 0;
#X connect 8 0 12 0;
#X connect 12 0 10 0;
#X connect 13 0 11 0;
#X restore 437 158 pd dry-wet;
#X floatatom 296 84 5 0 100 1 dry-wet player-#1-dry-wet-set player-#1-dry-wet
;
#X floatatom 65 174 7 0 1623 1 minutes player-#1-time-point-set player-#1-time-point
;
#X symbolatom 65 234 55 0 0 0 - player-#1-algo-direct-set player-#1-algo-direct
;
#X obj 592 382 text get outputAlgorithms;
#X obj 592 361 r player-\$1-algo-select;
#X msg 592 403 set \$1;
#X obj 592 424 s player-\$1-algo-direct-set;
#X obj 346 214 tgl 15 0 player-\$1-time-reverse player-\$1-time-reverse-set
t-rev 17 7 0 10 -262144 -1 -1 0 1;
#X obj 299 144 hsl 60 8 0 1000 0 0 player-\$1-asr-time player-\$1-asr-time-set
empty -2 -8 0 10 -262144 -1 -1 0 1;
#X obj 175 214 hradio 15 1 0 6 player-\$1-clone player-\$1-clone-set
clone 16 8 0 10 -262144 -1 -1 0;
#X obj 65 214 bng 15 250 50 0 empty empty misc 17 7 0 10 -262144 -1
-1;
#X obj 305 295 pack f \$1;
#X msg 305 268 1;
#X msg 305 320 \; pd-player-\$2-misc-gui-elements vis \$1;
#N canvas 177 552 234 126 player-\$1-misc-gui-elements 0;
#N canvas 836 517 750 301 hidden 0;
#X floatatom 208 123 5 40 100 1 dry player-#1-dry-set player-#1-dry
;
#X floatatom 208 143 5 40 100 1 wet player-#1-wet-set player-#1-wet
;
#X floatatom 68 123 10 0 20000 1 xover player-#1-rvb-xover-set player-#1-rvb-xover
;
#X floatatom 68 143 5 0 100 1 damping player-#1-rvb-damping-set player-#1-rvb-damping
;
#X obj 208 193 tgl 15 0 player-\$1-kbd-control player-\$1-kbd-control-set
k 5 7 0 10 -262144 -1 -1 0 1;
#X floatatom 68 173 10 0 1623 1 loop-start player-#1-loop-point-start-set
player-#1-loop-point-start;
#X floatatom 68 193 10 0 1623 1 loop-end player-#1-loop-point-end-set
player-#1-loop-point-end;
#X text 301 213 << for computer keyboard control. may bring back in
\, but just not needed in a crowded space at this point;
#X text 66 39 these GUI controls were removed from the main GOP control
panel in order to save space. they remain in the abstraction so that
their parameters can be set in the same way. do not remove., f 72
;
#X coords 0 -1 1 1 210 105 2 60 110;
#X restore 1 2 pd hidden;
#X restore 85 399 pd player-\$1-misc-gui-elements;
#X obj 286 176 vsl 8 30 0 127 0 0 player-\$1-pitch-bend-range player-\$1-pitch-bend-range-set
empty 0 -9 0 10 -262144 -1 -1 0 1;
#X msg 653 117 \; player-\$1-mute-set 0 \; player-\$1-bitDepth-set
24 \; player-\$1-dry-wet-set 50 \; player-\$1-rvb-liveness-set 90 \;
player-\$1-rvb-xover-set 3000 \; player-\$1-rvb-damping-set 30 \; player-\$1-spat-width-set
0.35 \; player-\$1-spat-pos-set 0 \; player-\$1-spat-lfo-freq-set 0
\; player-\$1-compute-set 1 \; player-\$1-interpolation-set 1 \; player-\$1-algo-select-set
0 \; player-\$1-pitch-bend-set 0 \; player-\$1-tempo-set 30 \; player-\$1-pitch-bend-range-set
16 \; player-\$1-kbd-control-set 0 \; player-\$1-asr-kbd-set 0 \; player-\$1-asr-time-set
50 \;;
#X connect 0 0 47 0;
#X connect 1 0 13 0;
#X connect 2 0 1 0;
#X connect 11 0 0 0;
#X connect 20 0 2 0;
#X connect 34 0 36 0;
#X connect 35 0 34 0;
#X connect 36 0 37 0;
#X connect 41 0 43 0;
#X connect 42 0 44 0;
#X connect 43 0 42 0;
#X coords 0 -1 1 1 360 210 1 50 50;
