#N canvas 571 166 863 445 10;
#X obj 68 124 hsl 128 15 0 1 0 0 player-\$1-spat-pos player-\$1-spat-pos-set
player-\$1-spat-pos 4 8 0 10 -262144 -1 -1 1500 1;
#X obj 68 84 hsl 128 15 40 100 0 0 player-\$1-gain player-\$1-gain-set
player-\$1-gain 4 8 0 10 -262144 -1 -1 10400 1;
#X floatatom 206 84 5 0 0 1 dB player-#1-gain -;
#X obj 68 144 hsl 128 15 0.01 1 0 0 player-\$1-spat-width player-\$1-spat-width-set
player-\$1-spat-width 4 8 0 10 -262144 -1 -1 3079 1;
#X obj 439 51 f \$1;
#X obj 206 144 hradio 15 1 0 5 player-\$1-algo-select player-\$1-algo-select-set
algo-select 0 -8 0 10 -262144 -1 -1 0;
#X obj 65 338 pack f \$1;
#X floatatom 206 164 5 1 32 1 bitDepth player-#1-bitDepth-set player-#1-bitDepth
;
#X obj 65 194 bng 15 250 50 0 empty empty waveform 17 7 0 10 -262144
-1 -1;
#X msg 65 311 1;
#X floatatom 296 84 5 0 100 1 dry player-#1-dry-set player-#1-dry;
#X text 293 62 REVERB;
#X floatatom 296 104 5 0 100 1 wet player-#1-wet-set player-#1-wet
;
#X floatatom 296 124 5 0 100 1 liveness player-#1-rvb-liveness-set
player-#1-rvb-liveness;
#X floatatom 296 144 10 0 20000 1 xover player-#1-rvb-xover-set player-#1-rvb-xover
;
#X floatatom 296 164 5 0 100 1 damping player-#1-rvb-damping-set player-#1-rvb-damping
;
#X floatatom 296 194 7 1 200 1 tempo player-#1-tempo-set player-#1-tempo
;
#X obj 439 26 r lb4;
#X floatatom 236 244 7 2 16384 0 blockSize player-#1-blockSize-set
player-#1-blockSize;
#X obj 65 174 tgl 15 0 player-\$1-clock player-\$1-clock-set clock
17 7 0 10 -262144 -1 -1 1 1;
#X msg 65 363 \; pd-player-\$2-plot vis \$1 \;;
#X msg 180 327 \; pd-\$2-algo-block vis \$1 \;;
#X msg 661 100 \; player-\$1-bitDepth-set 24 \; player-\$1-dry-set
90 \; player-\$1-wet-set 85 \; player-\$1-rvb-liveness-set 90 \; player-\$1-rvb-xover-set
3000 \; player-\$1-rvb-damping-set 20 \; player-\$1-spat-width-set
0.25 \; player-\$1-spat-pos-set 0.5 \; player-\$1-clock-set 0 \; player-\$1-algo-select-set
0 \; player-\$1-blockSize-set 4096 \; player-\$1-tempo-set 57 \;;
#X text 295 243 << for now \, keep this a hidden feature and users
control tempo only., f 26;
#X msg 439 82 \; player-\$1-bitDepth-set 24 \; player-\$1-dry-set 90
\; player-\$1-wet-set 85 \; player-\$1-rvb-liveness-set 90 \; player-\$1-rvb-xover-set
3000 \; player-\$1-rvb-damping-set 20 \; player-\$1-spat-width-set
0.25 \; player-\$1-spat-pos-set 0.5 \; player-\$1-clock-set 0 \; player-\$1-algo-select-set
0 \; player-\$1-blockSize-set 4096 \; player-\$1-tempo-set 120 \;;
#X connect 4 0 24 0;
#X connect 6 0 20 0;
#X connect 8 0 9 0;
#X connect 9 0 6 0;
#X connect 17 0 4 0;
#X coords 0 -1 1 1 360 170 1 50 50;
