#N canvas 172 352 899 442 10;
#X obj 625 81 f \$1;
#X obj 25 295 pack f \$1;
#X msg 25 268 1;
#X text 293 62 REVERB;
#X floatatom 296 104 5 50 100 1 liveness player-#1-rvb-liveness-set
player-#1-rvb-liveness;
#X floatatom 296 194 7 1 240 1 tempo player-#1-tempo-set player-#1-tempo
;
#X obj 296 124 tgl 15 0 player-\$1-compute player-\$1-compute-set comp
17 7 0 10 -262144 -1 -1 1 1;
#X obj 175 174 hradio 15 1 0 6 player-\$1-tempo-sync player-\$1-tempo-sync-set
tempoSync 16 8 0 10 -262144 -1 -1 4;
#X obj 175 194 hradio 15 1 0 6 player-\$1-time-sync player-\$1-time-sync-set
timeSync 16 8 0 10 -262144 -1 -1 0;
#X obj 346 124 tgl 15 0 player-\$1-interpolation player-\$1-interpolation-set
intrp 17 7 0 10 -262144 -1 -1 1 1;
#X floatatom 65 194 15 0 0 1 t player-#1-time-index-set player-#1-time-index
;
#X obj 625 56 r lb4;
#X obj 276 176 vsl 8 30 -1 1 0 0 player-\$1-pitch-bend player-\$1-pitch-bend-set
empty 0 -9 0 10 -262144 -1 -1 1450 1;
#X msg 25 320 \; pd-player-\$2-raw-output-plot vis \$1 \;;
#X obj 60 70 cnv 15 230 95 empty player-\$1-active-canvas-set empty
20 12 0 14 -260649 -66577 0;
#X obj 68 124 hsl 128 15 0 1 0 0 player-\$1-spat-pos player-\$1-spat-pos-set
player-\$1-spat-pos 4 8 0 10 -262144 -1 -1 0 1;
#X obj 68 84 hsl 128 15 40 100 0 0 player-\$1-gain player-\$1-gain-set
player-\$1-gain 4 8 0 10 -262144 -1 -1 0 1;
#X floatatom 206 84 5 0 0 1 dB player-#1-gain -;
#X obj 68 144 hsl 128 15 0.01 1 0 0 player-\$1-spat-width player-\$1-spat-width-set
player-\$1-spat-width 4 8 0 10 -262144 -1 -1 9493 1;
#X floatatom 206 144 5 1 32 1 bit player-#1-bit-depth-set player-#1-bit-depth
;
#X obj 65 104 bng 15 250 50 0 empty empty plot 17 7 0 10 -262144 -1
-1;
#X obj 137 104 cnv 15 60 14 empty player-\$1-spat-lfo-ctrl-color empty
20 12 0 14 -259678 -262144 0;
#X floatatom 136 104 10 -20 20 0 - player-#1-spat-lfo-freq-set player-#1-spat-lfo-freq
;
#X obj 266 84 tgl 15 0 player-\$1-mute player-\$1-mute-set m 4 7 0
10 -262144 -1 -1 0 1;
#N canvas 264 396 499 382 find-MIDI-note 0;
#X obj 45 46 r player-\$1-tempo;
#X obj 45 141 ftom;
#X obj 148 89 r lb1;
#X obj 148 137 mtof;
#X obj 45 117 *;
#X text 238 66 Based on the current tempo (regardless of whether it
came from a preset or the keyboard) \, this displays the current tempo
as a MIDI note. Makes it easier to find the tempo of another player
on the keyboard., f 23;
#X obj 45 260 s player-\$1-midi-note-display;
#X obj 45 162 + 0.5;
#X obj 45 183 i;
#X obj 45 234 text get midiNoteNames;
#X obj 45 204 change;
#X msg 148 113 96;
#X obj 45 93 / 96;
#X connect 0 0 12 0;
#X connect 1 0 7 0;
#X connect 2 0 11 0;
#X connect 3 0 4 1;
#X connect 4 0 1 0;
#X connect 7 0 8 0;
#X connect 8 0 10 0;
#X connect 9 0 6 0;
#X connect 10 0 9 0;
#X connect 11 0 3 0;
#X connect 12 0 4 0;
#X restore 437 68 pd find-MIDI-note;
#X symbolatom 296 174 7 0 0 1 note player-#1-midi-note-display -;
#X floatatom 206 124 5 0 9999 2 algo-select player-#1-algo-select-set
player-#1-algo-select;
#X obj 296 154 tgl 15 0 player-\$1-asr-kbd player-\$1-asr-kbd-set ASR-kbd
17 7 0 10 -262144 -1 -1 0 1;
#N canvas 897 125 427 283 time-control 0;
#X obj 67 15 r player-\$1-time-point;
#X obj 67 98 * 60;
#X obj 67 137 * 44100;
#X text 163 95 seconds;
#X text 163 135 samples;
#X text 225 14 0-1623;
#X obj 67 220 s player-\$1-time-index-set;
#X connect 0 0 1 0;
#X connect 1 0 2 0;
#X connect 2 0 6 0;
#X restore 437 98 pd time-control;
#N canvas 740 452 597 382 spat-LFO-control 0;
#X text 484 232 stopped;
#X obj 57 60 moses 0;
#X text 81 306 moving counter-clockwise;
#X text 283 160 moving clockwise;
#X obj 157 138 select 0 1;
#X obj 57 138 select 1 0;
#X obj 57 40 r player-\$1-spat-lfo-freq;
#X msg 197 187 \; player-\$1-spat-lfo-ctrl-color color -8.45414e+06
0 0;
#X msg 157 227 \; player-\$1-spat-lfo-ctrl-color color -1.67374e+07
0 0;
#X msg 57 267 \; player-\$1-spat-lfo-ctrl-color color -1.6763e+07 0
0;
#X obj 57 239 f \$1;
#X obj 157 207 f \$1;
#X obj 197 167 f \$1;
#X obj 157 116 change;
#X obj 57 116 change;
#X obj 157 95 >= 0.01;
#X obj 57 95 <= -0.01;
#X connect 1 0 16 0;
#X connect 1 1 15 0;
#X connect 4 0 11 0;
#X connect 4 1 12 0;
#X connect 5 0 10 0;
#X connect 5 1 11 0;
#X connect 6 0 1 0;
#X connect 10 0 9 0;
#X connect 11 0 8 0;
#X connect 12 0 7 0;
#X connect 13 0 4 0;
#X connect 14 0 5 0;
#X connect 15 0 13 0;
#X connect 16 0 14 0;
#X restore 437 128 pd spat-LFO-control;
#N canvas 806 483 447 366 dry-wet 0;
#X obj 35 37 r player-\$1-dry-wet;
#X obj 35 58 / 100;
#X obj 35 99 cos;
#X obj 35 79 * 1.5708;
#X text 104 78 pi/2 to get from 1 down to 0;
#X obj 195 137 t b f;
#X obj 195 179 -;
#X msg 195 158 1;
#X obj 35 140 max 0;
#X text 44 284 This nonlinear mapping of dry/wet favors the dry side
\, so you have to push into the 70% range to get a lot of reverb;
#X obj 35 233 s player-\$1-dry-set;
#X obj 195 233 s player-\$1-wet-set;
#X obj 35 210 rmstodb;
#X obj 195 210 rmstodb;
#X connect 0 0 1 0;
#X connect 1 0 3 0;
#X connect 2 0 8 0;
#X connect 3 0 2 0;
#X connect 5 0 7 0;
#X connect 5 1 6 1;
#X connect 6 0 13 0;
#X connect 7 0 6 0;
#X connect 8 0 5 0;
#X connect 8 0 12 0;
#X connect 12 0 10 0;
#X connect 13 0 11 0;
#X restore 437 158 pd dry-wet;
#X floatatom 296 84 5 0 100 1 dry-wet player-#1-dry-wet-set player-#1-dry-wet
;
#X floatatom 65 174 7 0 1623 1 m player-#1-time-point-set player-#1-time-point
;
#X symbolatom 65 234 55 0 0 0 - player-#1-algo-direct-set player-#1-algo-direct
;
#X obj 132 174 tgl 15 0 player-\$1-time-reverse player-\$1-time-reverse-set
t-rev 5 7 0 10 -262144 -1 -1 0 1;
#X obj 299 144 hsl 60 8 0 1000 0 0 player-\$1-asr-time player-\$1-asr-time-set
empty -2 -8 0 10 -262144 -1 -1 295 1;
#X obj 175 214 hradio 15 1 0 6 player-\$1-clone player-\$1-clone-set
clone 16 8 0 10 -262144 -1 -1 0;
#X obj 355 214 bng 15 250 50 0 empty empty misc 17 7 0 10 -262144 -1
-1;
#X obj 305 295 pack f \$1;
#X msg 305 268 1;
#X msg 305 320 \; pd-player-\$2-misc-gui-elements vis \$1;
#N canvas 177 552 471 136 player-\$1-misc-gui-elements 0;
#N canvas 1121 302 576 261 hidden 0;
#X floatatom 208 123 5 40 100 1 dry player-#1-dry-set player-#1-dry
;
#X floatatom 208 143 5 40 100 1 wet player-#1-wet-set player-#1-wet
;
#X floatatom 68 123 10 0 20000 1 xover player-#1-rvb-xover-set player-#1-rvb-xover
;
#X floatatom 68 143 5 0 100 1 damping player-#1-rvb-damping-set player-#1-rvb-damping
;
#X floatatom 68 173 10 0 1623 1 loop-start player-#1-loop-point-start-set
player-#1-loop-point-start;
#X floatatom 68 193 10 0 1623 1 loop-end player-#1-loop-point-end-set
player-#1-loop-point-end;
#X text 66 39 these GUI controls were removed from the main GOP control
panel in order to save space. they remain in the abstraction so that
their parameters can be set in the same way. do not remove., f 72
;
#X obj 208 173 bng 15 250 50 0 player-\$1-print empty p 5 6 0 10 -262144
-1 -1;
#X obj 208 193 tgl 15 0 player-\$1-kbd-control player-\$1-kbd-control-set
k 5 7 0 10 -262144 -1 -1 0 1;
#X obj 228 193 bng 15 250 50 0 player-\$1-load-scene player-\$1-load-scene-set
l 4 7 0 12 -204786 -1 -1;
#X obj 228 173 bng 15 250 50 0 player-\$1-save-scene player-\$1-save-scene-set
s 4 7 0 12 -261234 -1 -1;
#X coords 0 -1 1 1 210 105 2 60 110;
#X restore 3 26 pd hidden;
#X restore 85 399 pd player-\$1-misc-gui-elements;
#X obj 286 176 vsl 8 30 0 127 0 0 player-\$1-pitch-bend-range player-\$1-pitch-bend-range-set
empty 0 -9 0 10 -262144 -1 -1 365 1;
#X obj 246 124 bng 15 250 50 0 player-\$1-rand-algo player-\$1-rand-algo-set
r 4 7 0 10 -262130 -1 -1;
#N canvas 515 401 521 302 algo-selection 0;
#X obj 42 82 text get outputAlgorithms;
#X obj 42 11 r player-\$1-algo-select;
#X msg 42 103 set \$1;
#X obj 42 124 s player-\$1-algo-direct-set;
#X obj 272 22 r player-\$1-rand-algo;
#X obj 272 43 t b b;
#X obj 312 173 text size outputAlgorithms;
#X obj 272 235 s player-\$1-algo-select-set;
#X obj 272 204 random;
#X msg 326 115 seed \$1;
#X obj 326 67 r lb1;
#X obj 92 37 r num-algos;
#X obj 42 57 max 0;
#X obj 42 37 moses;
#X obj 326 91 timer;
#X obj 376 91 one-bang 1;
#X connect 0 0 2 0;
#X connect 1 0 13 0;
#X connect 2 0 3 0;
#X connect 4 0 5 0;
#X connect 5 0 8 0;
#X connect 5 1 6 0;
#X connect 5 1 15 0;
#X connect 6 0 8 1;
#X connect 8 0 7 0;
#X connect 9 0 8 0;
#X connect 10 0 14 0;
#X connect 11 0 13 1;
#X connect 12 0 0 0;
#X connect 13 0 12 0;
#X connect 14 0 9 0;
#X connect 15 0 14 1;
#X restore 437 188 pd algo-selection;
#X obj 276 214 bng 15 250 50 0 player-\$1-pitch-bend-zero player-\$1-pitch-bend-zero-set
0 5 8 0 10 -232576 -1 -1;
#X obj 65 214 tgl 15 0 player-\$1-loop-record player-\$1-loop-record-set
loopRec 17 7 0 10 -262144 -1 -1 0 1;
#X obj 132 214 bng 15 250 50 0 player-\$1-loop-reset player-\$1-loop-reset-set
empty 5 8 0 10 -232576 -1 -1;
#N canvas 924 91 441 449 flash-ASR-kbd 0;
#X obj 46 25 r player-\$1-asr-kbd;
#X msg 196 310 \; player-\$1-asr-kbd-set color 13 \;;
#X msg 46 350 \; player-\$1-asr-kbd-set color 0 \;;
#X obj 152 141 metro 1000;
#X obj 152 212 f;
#X obj 192 203 + 1;
#X obj 192 224 % 2;
#X obj 46 266 select 0;
#X obj 152 243 select 1 0;
#X msg 192 171 0;
#X obj 152 96 t f f;
#X obj 192 116 select 1;
#X obj 46 317 f \$1;
#X obj 196 280 f \$1;
#X connect 0 0 7 0;
#X connect 0 0 10 0;
#X connect 3 0 4 0;
#X connect 4 0 5 0;
#X connect 4 0 8 0;
#X connect 5 0 6 0;
#X connect 6 0 4 1;
#X connect 7 0 12 0;
#X connect 8 0 12 0;
#X connect 8 1 13 0;
#X connect 9 0 4 1;
#X connect 10 0 3 0;
#X connect 10 1 11 0;
#X connect 11 0 9 0;
#X connect 12 0 2 0;
#X connect 13 0 1 0;
#X restore 437 248 pd flash-ASR-kbd;
#N canvas 924 91 441 449 flash-mute 0;
#X obj 152 141 metro 1000;
#X obj 152 212 f;
#X obj 192 203 + 1;
#X obj 192 224 % 2;
#X obj 46 266 select 0;
#X obj 152 243 select 1 0;
#X msg 192 171 0;
#X obj 152 96 t f f;
#X obj 192 116 select 1;
#X obj 46 317 f \$1;
#X obj 196 280 f \$1;
#X obj 46 25 r player-\$1-mute;
#X msg 196 310 \; player-\$1-mute-set color 13 \;;
#X msg 46 350 \; player-\$1-mute-set color 0 \;;
#X connect 0 0 1 0;
#X connect 1 0 2 0;
#X connect 1 0 5 0;
#X connect 2 0 3 0;
#X connect 3 0 1 1;
#X connect 4 0 9 0;
#X connect 5 0 9 0;
#X connect 5 1 10 0;
#X connect 6 0 1 1;
#X connect 7 0 0 0;
#X connect 7 1 8 0;
#X connect 8 0 6 0;
#X connect 9 0 13 0;
#X connect 10 0 12 0;
#X connect 11 0 4 0;
#X connect 11 0 7 0;
#X restore 437 218 pd flash-mute;
#X obj 116 104 tgl 15 0 player-\$1-spat-lfo-type player-\$1-spat-lfo-type-set
r 4 7 0 10 -262130 -1 -1 0 1;
#X floatatom 296 214 7 1 240 1 - player-#1-tempo-final dummy;
#X obj 417 363 r dummy;
#X text 370 388 dummy receive for any GUI element sends needed to remove
outlets, f 26;
#X msg 625 112 \; player-\$1-gain-set 40 \; player-\$1-mute-set 0 \;
player-\$1-bit-depth-set 8 \; player-\$1-dry-wet-set 50 \; player-\$1-rvb-liveness-set
80 \; player-\$1-rvb-xover-set 3000 \; player-\$1-rvb-damping-set 30
\; player-\$1-spat-width-set 0.85 \; player-\$1-spat-pos-set 0.5 \;
player-\$1-spat-lfo-type-set 0 \; player-\$1-spat-lfo-freq-set 0 \;
player-\$1-compute-set 1 \; player-\$1-interpolation-set 1 \; player-\$1-algo-select-set
0 \; player-\$1-pitch-bend-range-set 16 \; player-\$1-pitch-bend-set
0 \; player-\$1-tempo-set 10.8844 \; player-\$1-time-reverse-set 0
\; player-\$1-time-index-set 0 \; player-\$1-kbd-control-set 0 \; player-\$1-asr-kbd-set
0 \; player-\$1-asr-time-set 50 \;;
#X connect 0 0 54 0;
#X connect 1 0 13 0;
#X connect 2 0 1 0;
#X connect 11 0 0 0;
#X connect 20 0 2 0;
#X connect 37 0 39 0;
#X connect 38 0 40 0;
#X connect 39 0 38 0;
#X coords 0 -1 1 1 360 210 1 50 50;
