#N canvas 947 82 597 532 10;
#X obj 28 136 / 127;
#X obj 218 259 * 127;
#X obj 28 96 t f b;
#X obj 28 382 t b f;
#X msg 278 268 0;
#X msg 310 269 1;
#X obj 218 197 r \$1;
#X obj 218 298 spigot 1;
#X obj 28 178 + \$4;
#X obj 28 157 * \$5;
#X obj 218 218 - \$4;
#X obj 218 239 / \$5;
#X obj 55 450 s \$6;
#X obj 108 233 f \$7;
#X obj 75 299 + 0.5;
#X obj 75 320 i;
#X obj 108 254 > 0;
#X obj 75 274 spigot;
#X obj 28 199 t b f f b;
#X obj 28 355 f;
#X obj 28 71 spigot;
#X text 312 83 Use the button state of CC 0 (which is in "toggle" mode)
to route all MIDI data to send names that incorporate player ID \$3.
, f 44;
#X text 211 381 \$1: send name \; \$2: CC num \; \$3: player ID \;
\$4: offset \; \$5: range \; \$6: receive name \; \$7: rounding flag
\;;
#X obj 28 40 ctlin \$2;
#X obj 181 11 loadbang;
#X obj 109 85 ==;
#X msg 181 129 0;
#X obj 109 55 ctlin 0;
#X obj 181 88 select 0 1 2 3 4 5;
#X msg 221 129 127;
#X obj 181 66 f \$3;
#X obj 218 322 ctlout \$2;
#X connect 0 0 9 0;
#X connect 1 0 7 0;
#X connect 2 0 0 0;
#X connect 2 1 4 0;
#X connect 3 0 5 0;
#X connect 3 1 12 0;
#X connect 4 0 7 1;
#X connect 5 0 7 1;
#X connect 6 0 10 0;
#X connect 7 0 31 0;
#X connect 8 0 18 0;
#X connect 9 0 8 0;
#X connect 10 0 11 0;
#X connect 11 0 1 0;
#X connect 13 0 16 0;
#X connect 14 0 15 0;
#X connect 15 0 19 1;
#X connect 16 0 17 1;
#X connect 17 0 14 0;
#X connect 18 0 19 0;
#X connect 18 1 17 0;
#X connect 18 2 19 1;
#X connect 18 3 13 0;
#X connect 19 0 3 0;
#X connect 20 0 2 0;
#X connect 23 0 20 0;
#X connect 24 0 30 0;
#X connect 25 0 20 1;
#X connect 26 0 25 1;
#X connect 27 0 25 0;
#X connect 28 0 26 0;
#X connect 28 1 29 0;
#X connect 28 2 26 0;
#X connect 28 3 29 0;
#X connect 28 4 26 0;
#X connect 28 5 29 0;
#X connect 29 0 25 1;
#X connect 30 0 28 0;
