#N canvas 528 71 528 488 10;
#X obj 28 126 / 127;
#X obj 191 146 * 127;
#X obj 28 86 t f b;
#X obj 64 352 t b f;
#X msg 278 268 0;
#X msg 310 269 1;
#X obj 191 84 r \$1;
#X obj 218 298 spigot 1;
#X obj 28 168 + \$4;
#X obj 28 147 * \$5;
#X obj 191 105 - \$4;
#X obj 191 126 / \$5;
#X floatatom 251 187 5 0 0 0 - - -;
#X floatatom 21 365 5 0 0 0 - - -;
#X obj 91 430 s \$6;
#X obj 122 186 f \$7;
#X obj 95 264 + 0.5;
#X obj 95 285 i;
#X obj 122 207 > 0;
#X obj 95 239 spigot;
#X obj 28 189 t b f f b;
#X obj 51 325 f;
#X obj 28 40 ctlin \$2;
#X obj 97 17 loadbang;
#X obj 110 43 f \$3;
#X obj 78 61 ==;
#X obj 28 61 spigot;
#X obj 218 322 ctlout \$2;
#X obj 110 64 + \$8;
#X obj 147 40 r player-\$3-param-interface-init;
#X text 313 77 \$1: send name \; \$2: CC num \; \$3 MIDI channel (player-ID)
\; \$4: offset \; \$5: range \; \$6: receive name \; \$7: rounding
flag \; \$8: MIDI channel offset \;;
#X connect 0 0 9 0;
#X connect 1 0 7 0;
#X connect 1 0 12 0;
#X connect 2 0 0 0;
#X connect 2 1 4 0;
#X connect 3 0 5 0;
#X connect 3 1 14 0;
#X connect 4 0 7 1;
#X connect 5 0 7 1;
#X connect 6 0 10 0;
#X connect 7 0 27 0;
#X connect 8 0 20 0;
#X connect 9 0 8 0;
#X connect 10 0 11 0;
#X connect 11 0 1 0;
#X connect 15 0 18 0;
#X connect 16 0 17 0;
#X connect 17 0 21 1;
#X connect 18 0 19 1;
#X connect 19 0 16 0;
#X connect 20 0 21 0;
#X connect 20 1 19 0;
#X connect 20 2 21 1;
#X connect 20 3 15 0;
#X connect 21 0 3 0;
#X connect 21 0 13 0;
#X connect 22 0 26 0;
#X connect 22 1 25 0;
#X connect 23 0 24 0;
#X connect 24 0 28 0;
#X connect 25 0 26 1;
#X connect 26 0 2 0;
#X connect 28 0 25 1;
#X connect 28 0 27 2;
#X connect 29 0 24 0;
