#N canvas 603 137 544 478 12;
#X obj 28 136 / 127;
#X obj 218 259 * 127;
#X obj 28 96 t f b;
#X obj 28 382 t b f;
#X msg 278 268 0;
#X msg 310 269 1;
#X obj 218 298 spigot 1;
#X obj 28 207 + 0.5;
#X obj 28 228 i;
#X obj 28 71 spigot;
#X obj 218 229 /;
#X obj 28 167 *;
#X obj 276 151 - 1;
#X obj 109 55 loadbang;
#X text 334 347 \$1: player ID \; \$2: param num \; \$3: CC num \;
;
#X obj 28 40 ctlin \$3;
#X obj 218 322 ctlout \$3;
#X obj 109 85 active-player-abs \$1;
#X obj 68 420 s player-\$1-algo-param-\$2-set;
#X obj 276 127 r player-\$1-algo-param-\$2-range;
#X obj 218 197 r player-\$1-algo-param-\$2;
#X connect 0 0 11 0;
#X connect 1 0 6 0;
#X connect 2 0 0 0;
#X connect 2 1 4 0;
#X connect 3 0 5 0;
#X connect 3 1 18 0;
#X connect 4 0 6 1;
#X connect 5 0 6 1;
#X connect 6 0 16 0;
#X connect 7 0 8 0;
#X connect 8 0 3 0;
#X connect 9 0 2 0;
#X connect 10 0 1 0;
#X connect 11 0 7 0;
#X connect 12 0 10 1;
#X connect 12 0 11 1;
#X connect 13 0 17 0;
#X connect 15 0 9 0;
#X connect 17 0 9 1;
#X connect 19 0 12 0;
#X connect 20 0 10 0;
