#N canvas 948 514 661 454 12;
#X obj 67 114 t b;
#X obj 67 167 s player-\$2-last-param-changed;
#X text 379 73 \$1: param ID number \; \$2: parent player ID number
\;;
#X obj 67 90 r player-\$2-algo-param-\$1;
#X obj 67 138 f \$1;
#N canvas 1216 525 422 385 RGB 0;
#X obj 32 36 inlet;
#X obj 109 327 outlet;
#X text 49 95 red;
#X text 119 97 green;
#X text 191 97 blue;
#X obj 175 145 t b f;
#X obj 109 203 +;
#X obj 109 228 t b f;
#X obj 109 259 +;
#X obj 109 123 * -256;
#X obj 175 123 * -1;
#X obj 109 290 - 1;
#X obj 32 60 unpack f f f;
#X obj 32 122 * -65536;
#X obj 248 72 i;
#X floatatom 248 96 5 0 0 0 - - -;
#X obj 272 122 i;
#X floatatom 272 146 5 0 0 0 - - -;
#X obj 307 172 i;
#X floatatom 307 196 5 0 0 0 - - -;
#X obj 231 12 hsl 128 15 0 255 0 0 empty empty empty -2 -8 0 10 -262144
-1 -1 0 1;
#X obj 241 32 hsl 128 15 0 255 0 0 empty empty empty -2 -8 0 10 -262144
-1 -1 0 1;
#X obj 251 52 hsl 128 15 0 255 0 0 empty empty empty -2 -8 0 10 -262144
-1 -1 0 1;
#X connect 0 0 12 0;
#X connect 5 0 6 0;
#X connect 5 1 6 1;
#X connect 6 0 7 0;
#X connect 7 0 8 0;
#X connect 7 1 8 1;
#X connect 8 0 11 0;
#X connect 9 0 6 0;
#X connect 10 0 5 0;
#X connect 11 0 1 0;
#X connect 12 0 13 0;
#X connect 12 1 9 0;
#X connect 12 2 10 0;
#X connect 13 0 8 0;
#X connect 14 0 15 0;
#X connect 14 0 13 0;
#X connect 16 0 17 0;
#X connect 16 0 9 0;
#X connect 18 0 19 0;
#X connect 18 0 10 0;
#X connect 20 0 14 0;
#X connect 21 0 16 0;
#X connect 22 0 18 0;
#X restore 316 284 pd RGB;
#X obj 316 308 list prepend color;
#X obj 316 342 list trim;
#X obj 316 372 s player-\$2-algo-param-\$1-canvas-set;
#X obj 316 139 r player-\$2-last-param-changed;
#X obj 316 163 == \$1;
#X obj 316 187 select 0 1;
#X msg 352 244 190 255 255;
#X msg 316 215 255 255 255;
#X obj 224 221 r lb1;
#X obj 248 29 inlet;
#X connect 0 0 4 0;
#X connect 3 0 0 0;
#X connect 4 0 1 0;
#X connect 5 0 6 0;
#X connect 6 0 7 0;
#X connect 7 0 8 0;
#X connect 9 0 10 0;
#X connect 10 0 11 0;
#X connect 11 0 13 0;
#X connect 11 1 12 0;
#X connect 12 0 5 0;
#X connect 13 0 5 0;
#X connect 14 0 13 0;
