#N canvas 1141 579 431 384 10;
#X obj 28 34 r \$1;
#X obj 28 218 s netsend-data-hub;
#X obj 28 167 list prepend send;
#X obj 28 189 list trim;
#X obj 28 145 list append;
#X obj 124 57 symbol \$1;
#X obj 124 78 makefilename %s-set;
#X text 179 145 \$1: parameter name;
#X obj 124 36 r netprep-init;
#X connect 0 0 4 0;
#X connect 2 0 3 0;
#X connect 3 0 1 0;
#X connect 4 0 2 0;
#X connect 5 0 6 0;
#X connect 6 0 4 1;
#X connect 8 0 5 0;
