#N canvas 1011 412 496 360 10;
#X obj 73 122 r \$1;
#X obj 73 303 s netsend-data-hub;
#X obj 73 253 list prepend send;
#X obj 73 275 list trim;
#X obj 73 231 list append;
#X obj 243 59 symbol \$1;
#X obj 204 181 makefilename %s-set;
#X text 236 269 \$1: parameter name \; \$2: flag for appending "-set"
;
#X obj 170 11 r netprep-init;
#X obj 170 32 t b b;
#X obj 170 66 f \$2;
#X obj 170 87 list append;
#X obj 170 108 route 0 1;
#X obj 170 208 list trim;
#X obj 170 229 symbol;
#X obj 204 136 list trim;
#X obj 204 157 symbol;
#X connect 0 0 4 0;
#X connect 2 0 3 0;
#X connect 3 0 1 0;
#X connect 4 0 2 0;
#X connect 5 0 11 1;
#X connect 6 0 13 0;
#X connect 8 0 9 0;
#X connect 9 0 10 0;
#X connect 9 1 5 0;
#X connect 10 0 11 0;
#X connect 11 0 12 0;
#X connect 12 0 13 0;
#X connect 12 1 15 0;
#X connect 13 0 14 0;
#X connect 14 0 4 1;
#X connect 15 0 16 0;
#X connect 16 0 6 0;
