#N canvas 313 136 840 640 12;
#X obj 56 233 select rec play stop;
#X obj 101 275 t b b;
#X text 154 57 auto voice ID \, command symbol;
#X obj 56 81 list;
#X obj 92 470 symbol;
#N canvas 638 225 574 387 receives-router 0;
#N canvas 807 168 872 374 p0-p9 0;
#X obj 56 115 r player-\$2-algo-param-0;
#X obj 56 139 spigot;
#X obj 55 74 unpack f f f f f f f f f f;
#X obj 55 30 inlet;
#X obj 318 333 outlet;
#X obj 116 169 spigot;
#X obj 176 199 spigot;
#X obj 236 229 spigot;
#X obj 296 259 spigot;
#X obj 426 139 spigot;
#X obj 486 169 spigot;
#X obj 546 199 spigot;
#X obj 606 229 spigot;
#X obj 666 259 spigot;
#X obj 116 145 r player-\$2-algo-param-1;
#X obj 176 175 r player-\$2-algo-param-2;
#X obj 236 205 r player-\$2-algo-param-3;
#X obj 296 235 r player-\$2-algo-param-4;
#X obj 426 115 r player-\$2-algo-param-5;
#X obj 486 145 r player-\$2-algo-param-6;
#X obj 546 175 r player-\$2-algo-param-7;
#X obj 606 205 r player-\$2-algo-param-8;
#X obj 666 235 r player-\$2-algo-param-9;
#X connect 0 0 1 0;
#X connect 1 0 4 0;
#X connect 2 0 1 1;
#X connect 2 1 5 1;
#X connect 2 2 6 1;
#X connect 2 3 7 1;
#X connect 2 4 8 1;
#X connect 2 5 9 1;
#X connect 2 6 10 1;
#X connect 2 7 11 1;
#X connect 2 8 12 1;
#X connect 2 9 13 1;
#X connect 3 0 2 0;
#X connect 5 0 4 0;
#X connect 6 0 4 0;
#X connect 7 0 4 0;
#X connect 8 0 4 0;
#X connect 9 0 4 0;
#X connect 10 0 4 0;
#X connect 11 0 4 0;
#X connect 12 0 4 0;
#X connect 13 0 4 0;
#X connect 14 0 5 0;
#X connect 15 0 6 0;
#X connect 16 0 7 0;
#X connect 17 0 8 0;
#X connect 18 0 9 0;
#X connect 19 0 10 0;
#X connect 20 0 11 0;
#X connect 21 0 12 0;
#X connect 22 0 13 0;
#X restore 277 194 pd p0-p9;
#N canvas 807 168 529 414 gains-0-5 0;
#X obj 56 139 spigot;
#X obj 55 30 inlet;
#X obj 318 333 outlet;
#X obj 116 169 spigot;
#X obj 176 199 spigot;
#X obj 236 229 spigot;
#X obj 296 259 spigot;
#X obj 356 289 spigot;
#X obj 55 74 unpack f f f f f f;
#X obj 56 115 r player-0-gain;
#X obj 116 145 r player-1-gain;
#X obj 176 175 r player-2-gain;
#X obj 236 205 r player-3-gain;
#X obj 296 235 r player-4-gain;
#X obj 356 265 r player-5-gain;
#X connect 0 0 2 0;
#X connect 1 0 8 0;
#X connect 3 0 2 0;
#X connect 4 0 2 0;
#X connect 5 0 2 0;
#X connect 6 0 2 0;
#X connect 7 0 2 0;
#X connect 8 0 0 1;
#X connect 8 1 3 1;
#X connect 8 2 4 1;
#X connect 8 3 5 1;
#X connect 8 4 6 1;
#X connect 8 5 7 1;
#X connect 9 0 0 0;
#X connect 10 0 3 0;
#X connect 11 0 4 0;
#X connect 12 0 5 0;
#X connect 13 0 6 0;
#X connect 14 0 7 0;
#X restore 47 194 pd gains-0-5;
#N canvas 807 168 529 419 mutes-0-5 0;
#X obj 56 169 spigot;
#X obj 55 30 inlet;
#X obj 318 363 outlet;
#X obj 116 199 spigot;
#X obj 176 229 spigot;
#X obj 236 259 spigot;
#X obj 296 289 spigot;
#X obj 356 319 spigot;
#X obj 55 104 unpack f f f f f f;
#X obj 56 145 r player-0-mute;
#X obj 116 175 r player-1-mute;
#X obj 176 205 r player-2-mute;
#X obj 236 235 r player-3-mute;
#X obj 296 265 r player-4-mute;
#X obj 356 295 r player-5-mute;
#X connect 0 0 2 0;
#X connect 1 0 8 0;
#X connect 3 0 2 0;
#X connect 4 0 2 0;
#X connect 5 0 2 0;
#X connect 6 0 2 0;
#X connect 7 0 2 0;
#X connect 8 0 0 1;
#X connect 8 1 3 1;
#X connect 8 2 4 1;
#X connect 8 3 5 1;
#X connect 8 4 6 1;
#X connect 8 5 7 1;
#X connect 9 0 0 0;
#X connect 10 0 3 0;
#X connect 11 0 4 0;
#X connect 12 0 5 0;
#X connect 13 0 6 0;
#X connect 14 0 7 0;
#X restore 157 194 pd mutes-0-5;
#N canvas 204 177 407 337 spats 0;
#X obj 56 149 spigot;
#X obj 55 30 inlet;
#X obj 56 259 outlet;
#X obj 116 179 spigot;
#X obj 56 125 r player-\$2-spat-pos;
#X obj 116 155 r player-\$2-spat-width;
#X obj 55 84 unpack f f f;
#X obj 176 209 spigot;
#X obj 176 185 r player-\$2-spat-lfo-freq;
#X connect 0 0 2 0;
#X connect 1 0 6 0;
#X connect 3 0 2 0;
#X connect 4 0 0 0;
#X connect 5 0 3 0;
#X connect 6 0 0 1;
#X connect 6 1 3 1;
#X connect 6 2 7 1;
#X connect 7 0 2 0;
#X connect 8 0 7 0;
#X restore 367 194 pd spats;
#X obj 47 25 r \$0-sampled-send-name;
#X obj 277 324 s \$0-current-data;
#N canvas 710 124 686 514 other 0;
#X obj 349 41 inlet;
#X obj 91 206 spigot;
#X obj 111 266 spigot;
#X obj 131 326 spigot;
#X obj 401 146 spigot;
#X obj 441 266 spigot;
#X obj 441 242 r player-\$2-dry-wet;
#X obj 401 122 r player-\$2-pitch-bend;
#X obj 131 302 r player-\$2-time-reverse;
#X obj 111 242 r player-\$2-tempo;
#X obj 91 182 r player-\$2-bit-depth;
#X obj 421 206 spigot;
#X obj 421 182 r player-\$2-pitch-bend-range;
#X obj 71 146 spigot;
#X obj 71 122 r player-\$2-interpolation;
#X obj 71 449 outlet;
#X obj 461 326 spigot;
#X obj 461 302 r player-\$2-rvb-liveness;
#X obj 349 75 unpack f f f f f f f f;
#X connect 0 0 18 0;
#X connect 1 0 15 0;
#X connect 2 0 15 0;
#X connect 3 0 15 0;
#X connect 4 0 15 0;
#X connect 5 0 15 0;
#X connect 6 0 5 0;
#X connect 7 0 4 0;
#X connect 8 0 3 0;
#X connect 9 0 2 0;
#X connect 10 0 1 0;
#X connect 11 0 15 0;
#X connect 12 0 11 0;
#X connect 13 0 15 0;
#X connect 14 0 13 0;
#X connect 16 0 15 0;
#X connect 17 0 16 0;
#X connect 18 0 13 1;
#X connect 18 1 1 1;
#X connect 18 2 2 1;
#X connect 18 3 3 1;
#X connect 18 4 4 1;
#X connect 18 5 11 1;
#X connect 18 6 5 1;
#X connect 18 7 16 1;
#X restore 457 194 pd other;
#N canvas 304 54 1308 804 name-matching-select 0;
#X obj 29 13 inlet;
#X obj 89 72 select player-0-gain-set player-1-gain-set player-2-gain-set
player-3-gain-set player-4-gain-set player-5-gain-set player-0-mute-set
player-1-mute-set player-2-mute-set player-3-mute-set player-4-mute-set
player-5-mute-set player-\$2-algo-param-0-set player-\$2-algo-param-1-set
player-\$2-algo-param-2-set player-\$2-algo-param-3-set player-\$2-algo-param-4-set
player-\$2-algo-param-5-set player-\$2-algo-param-6-set player-\$2-algo-param-7-set
player-\$2-algo-param-8-set player-\$2-algo-param-9-set player-\$2-spat-pos-set
player-\$2-spat-width-set player-\$2-spat-lfo-freq-set player-\$2-interpolation-set
player-\$2-bit-depth-set player-\$2-tempo-set player-\$2-time-reverse-set
player-\$2-pitch-bend-set player-\$2-pitch-bend-range-set player-\$2-dry-wet-set
player-\$2-rvb-liveness-set, f 141;
#X obj 1000 425 table \$0-routing-flags 33;
#X obj 89 740 param-auto-routing-flag-writer 0 \$0;
#X obj 1087 182 t b;
#X obj 1087 205 f \$0;
#X msg 1087 228 \; \$1-routing-flags const 0 \;;
#X obj 99 710 param-auto-routing-flag-writer 1 \$0;
#X obj 109 680 param-auto-routing-flag-writer 2 \$0;
#X obj 119 650 param-auto-routing-flag-writer 3 \$0;
#X obj 129 620 param-auto-routing-flag-writer 4 \$0;
#X obj 139 590 param-auto-routing-flag-writer 5 \$0;
#X obj 149 560 param-auto-routing-flag-writer 6 \$0;
#X obj 159 530 param-auto-routing-flag-writer 7 \$0;
#X obj 169 500 param-auto-routing-flag-writer 8 \$0;
#X obj 179 470 param-auto-routing-flag-writer 9 \$0;
#X obj 189 440 param-auto-routing-flag-writer 10 \$0;
#X obj 199 410 param-auto-routing-flag-writer 11 \$0;
#X obj 209 380 param-auto-routing-flag-writer 12 \$0;
#X obj 219 350 param-auto-routing-flag-writer 13 \$0;
#X obj 229 320 param-auto-routing-flag-writer 14 \$0;
#X obj 239 290 param-auto-routing-flag-writer 15 \$0;
#X obj 599 740 param-auto-routing-flag-writer 16 \$0;
#X obj 609 710 param-auto-routing-flag-writer 17 \$0;
#X obj 619 680 param-auto-routing-flag-writer 18 \$0;
#X obj 629 650 param-auto-routing-flag-writer 19 \$0;
#X obj 639 620 param-auto-routing-flag-writer 20 \$0;
#X obj 649 590 param-auto-routing-flag-writer 21 \$0;
#X obj 659 560 param-auto-routing-flag-writer 22 \$0;
#X obj 669 530 param-auto-routing-flag-writer 23 \$0;
#X obj 679 500 param-auto-routing-flag-writer 24 \$0;
#X obj 689 470 param-auto-routing-flag-writer 25 \$0;
#X obj 699 440 param-auto-routing-flag-writer 26 \$0;
#X obj 709 410 param-auto-routing-flag-writer 27 \$0;
#X obj 719 380 param-auto-routing-flag-writer 28 \$0;
#X obj 729 350 param-auto-routing-flag-writer 29 \$0;
#X obj 739 320 param-auto-routing-flag-writer 30 \$0;
#X obj 749 290 param-auto-routing-flag-writer 31 \$0;
#X obj 759 260 param-auto-routing-flag-writer 32 \$0;
#X obj 29 36 t b a;
#X obj 29 209 outlet;
#X connect 0 0 39 0;
#X connect 1 0 3 0;
#X connect 1 1 7 0;
#X connect 1 2 8 0;
#X connect 1 3 9 0;
#X connect 1 4 10 0;
#X connect 1 5 11 0;
#X connect 1 6 12 0;
#X connect 1 7 13 0;
#X connect 1 8 14 0;
#X connect 1 9 15 0;
#X connect 1 10 16 0;
#X connect 1 11 17 0;
#X connect 1 12 18 0;
#X connect 1 13 19 0;
#X connect 1 14 20 0;
#X connect 1 15 21 0;
#X connect 1 16 22 0;
#X connect 1 17 23 0;
#X connect 1 18 24 0;
#X connect 1 19 25 0;
#X connect 1 20 26 0;
#X connect 1 21 27 0;
#X connect 1 22 28 0;
#X connect 1 23 29 0;
#X connect 1 24 30 0;
#X connect 1 25 31 0;
#X connect 1 26 32 0;
#X connect 1 27 33 0;
#X connect 1 28 34 0;
#X connect 1 29 35 0;
#X connect 1 30 36 0;
#X connect 1 31 37 0;
#X connect 1 32 38 0;
#X connect 1 33 4 0;
#X connect 4 0 5 0;
#X connect 5 0 6 0;
#X connect 39 0 40 0;
#X connect 39 1 1 0;
#X restore 47 63 pd name-matching-select;
#N canvas 0 23 1195 288 unpack-flags 0;
#X obj 37 37 inlet;
#X obj 37 60 array get \$0-routing-flags;
#X obj 37 83 unpack f f f f f f f f f f f f f f f f f f f f f f f f
f f f f f f f f f, f 157;
#X obj 37 213 pack f f f f f f;
#X obj 37 236 outlet;
#X obj 177 213 pack f f f f f f;
#X obj 177 236 outlet;
#X obj 317 236 outlet;
#X obj 317 213 pack f f f f f f f f f f;
#X obj 517 236 outlet;
#X obj 637 236 outlet;
#X obj 517 213 pack f f f;
#X obj 637 213 pack f f f f f f f f;
#X connect 0 0 1 0;
#X connect 1 0 2 0;
#X connect 2 0 3 0;
#X connect 2 1 3 1;
#X connect 2 2 3 2;
#X connect 2 3 3 3;
#X connect 2 4 3 4;
#X connect 2 5 3 5;
#X connect 2 6 5 0;
#X connect 2 7 5 1;
#X connect 2 8 5 2;
#X connect 2 9 5 3;
#X connect 2 10 5 4;
#X connect 2 11 5 5;
#X connect 2 12 8 0;
#X connect 2 13 8 1;
#X connect 2 14 8 2;
#X connect 2 15 8 3;
#X connect 2 16 8 4;
#X connect 2 17 8 5;
#X connect 2 18 8 6;
#X connect 2 19 8 7;
#X connect 2 20 8 8;
#X connect 2 21 8 9;
#X connect 2 22 11 0;
#X connect 2 23 11 1;
#X connect 2 24 11 2;
#X connect 2 25 12 0;
#X connect 2 26 12 1;
#X connect 2 27 12 2;
#X connect 2 28 12 3;
#X connect 2 29 12 4;
#X connect 2 30 12 5;
#X connect 2 31 12 6;
#X connect 2 32 12 7;
#X connect 3 0 4 0;
#X connect 5 0 6 0;
#X connect 8 0 7 0;
#X connect 11 0 9 0;
#X connect 12 0 10 0;
#X restore 47 86 pd unpack-flags;
#X connect 0 0 5 0;
#X connect 1 0 5 0;
#X connect 2 0 5 0;
#X connect 3 0 5 0;
#X connect 4 0 7 0;
#X connect 6 0 5 0;
#X connect 7 0 8 0;
#X connect 8 0 1 0;
#X connect 8 1 2 0;
#X connect 8 2 0 0;
#X connect 8 3 3 0;
#X connect 8 4 6 0;
#X restore 412 215 pd receives-router;
#X symbolatom 374 374 50 0 0 0 - - -;
#X obj 56 364 t b b b;
#X msg 104 137 symbol stop;
#X text 423 75 \$1: automation voice \; \$2: player ID \;;
#X obj 104 113 r player-\$2-automation-killall;
#X obj 56 33 r player-\$2-param-auto-command;
#X obj 56 57 route \$1;
#X obj 426 135 table param-automation-data-player-\$2-voice-\$1 9999
;
#X obj 131 443 r player-\$2-last-MIDI-trig-send-name;
#X obj 663 63 inlet;
#X obj 92 548 s \$0-sampled-send-name;
#X obj 112 410 s \$0-rec-init;
#X obj 161 303 s \$0-play-init;
#X obj 101 332 s \$0-play-start;
#X obj 165 264 s \$0-stop;
#X obj 56 578 s \$0-rec-start;
#N canvas 883 78 557 670 data-writing 0;
#X obj 121 535 f;
#X obj 239 527 + 1;
#X msg 151 507 0;
#X obj 68 501 t f b;
#X obj 239 551 % 10000;
#X msg 68 245 1;
#X msg 189 245 0;
#X obj 68 379 metro 10;
#X obj 68 463 f;
#X obj 68 183 t b;
#X obj 68 309 t f b b;
#X obj 68 597 tabwrite param-automation-data-player-\$2-voice-\$1;
#X obj 68 159 one-float 0;
#X obj 121 559 s \$0-write-idx;
#X obj 408 567 r \$0-write-idx;
#X obj 219 202 r \$0-play-init;
#X obj 189 172 r \$0-stop;
#X obj 142 129 r \$0-rec-start;
#X obj 86 435 r \$0-current-data;
#X obj 68 105 r \$0-current-data;
#X obj 68 128 t f f;
#X text 65 38 don't start recording until the first piece of data from
the desired receive shows up. But make sure that the first piece of
data is placed in the cold [f] inlet below BEFORE we start sampling.
, f 52;
#X connect 0 0 1 0;
#X connect 0 0 13 0;
#X connect 1 0 4 0;
#X connect 2 0 0 1;
#X connect 3 0 11 0;
#X connect 3 1 0 0;
#X connect 4 0 0 1;
#X connect 5 0 10 0;
#X connect 6 0 10 0;
#X connect 7 0 8 0;
#X connect 8 0 3 0;
#X connect 9 0 5 0;
#X connect 10 0 7 0;
#X connect 10 1 2 0;
#X connect 12 0 9 0;
#X connect 14 0 11 1;
#X connect 15 0 6 0;
#X connect 16 0 6 0;
#X connect 17 0 12 1;
#X connect 18 0 8 1;
#X connect 19 0 20 0;
#X connect 20 0 12 0;
#X connect 20 1 8 1;
#X restore 412 255 pd data-writing;
#N canvas 1157 364 466 483 data-reading 0;
#X obj 64 134 t f b;
#X obj 64 249 f;
#X obj 104 243 + 1;
#X msg 94 211 0;
#X obj 104 267 %;
#X obj 144 267 + 1;
#X msg 64 102 1;
#X msg 114 102 0;
#X obj 64 397 s, f 11;
#X obj 64 174 metro 10;
#X obj 64 310 tabread param-automation-data-player-\$2-voice-\$1;
#X obj 164 397 r \$0-sampled-send-name;
#X obj 144 237 r \$0-write-idx;
#X obj 64 36 r \$0-play-start;
#X obj 114 76 r \$0-stop;
#X obj 200 184 s \$0-is-playing;
#X obj 165 105 tgl 15 0 empty empty empty 17 7 0 10 -262144 -1 -1 0
1;
#X connect 0 0 9 0;
#X connect 0 0 15 0;
#X connect 0 1 3 0;
#X connect 1 0 2 0;
#X connect 1 0 10 0;
#X connect 2 0 4 0;
#X connect 3 0 1 1;
#X connect 4 0 1 1;
#X connect 5 0 4 1;
#X connect 6 0 0 0;
#X connect 6 0 16 0;
#X connect 7 0 0 0;
#X connect 7 0 16 0;
#X connect 9 0 1 0;
#X connect 10 0 8 0;
#X connect 11 0 8 1;
#X connect 12 0 5 0;
#X connect 13 0 6 0;
#X connect 14 0 7 0;
#X restore 412 285 pd data-reading;
#X obj 374 344 r \$0-sampled-send-name;
#N canvas 129 89 569 307 automation-break 0;
#X obj 47 242 outlet;
#X obj 47 173 select sendsymbol;
#X msg 47 197 symbol stop;
#X obj 47 137 spigot;
#X msg 117 137 1;
#X msg 158 137 0;
#X obj 209 140 delay 500;
#X text 291 140 << suppress break for 0.5 sec;
#X obj 47 13 r player-\$2-last-MIDI-trig-send-name;
#X obj 190 173 r \$0-sampled-send-name;
#X obj 158 85 r \$0-rec-init;
#X obj 209 114 r \$0-play-start;
#X obj 78 107 tgl 15 0 empty empty empty 17 7 0 10 -262144 -1 -1 0
1;
#X symbolatom 57 43 50 0 0 0 - - -;
#X symbolatom 190 203 50 0 0 0 - - -;
#X obj 17 203 bng 15 250 50 0 empty empty empty 17 7 0 10 -262144 -1
-1;
#X obj 17 137 bng 15 250 50 0 empty empty empty 17 7 0 10 -262144 -1
-1;
#X connect 1 0 2 0;
#X connect 1 0 15 0;
#X connect 2 0 0 0;
#X connect 3 0 1 0;
#X connect 3 0 16 0;
#X connect 4 0 3 1;
#X connect 4 0 12 0;
#X connect 5 0 3 1;
#X connect 5 0 12 0;
#X connect 6 0 4 0;
#X connect 8 0 3 0;
#X connect 8 0 13 0;
#X connect 9 0 1 1;
#X connect 9 0 14 0;
#X connect 10 0 5 0;
#X connect 11 0 6 0;
#X restore 172 182 pd automation-break;
#N canvas 223 335 1021 554 save-automation 0;
#X obj 440 291 r \$0-sampled-send-name;
#X obj 641 270 r \$0-write-idx;
#X obj 623 300 f;
#X obj 86 452 f;
#X obj 104 422 r \$0-is-playing;
#X obj 366 343 symbol NULL;
#X obj 446 78 array get param-automation-data-player-\$2-voice-\$1
;
#X obj 86 65 t b b b b;
#X obj 86 10 r player-\$2-get-all-auto-data;
#X obj 566 103 f \$1;
#X text 635 129 data chunk size per voice;
#X obj 446 103 t l b;
#X obj 446 128 list prepend;
#X obj 623 325 list prepend;
#X obj 366 468 list prepend;
#X obj 366 368 list fromsymbol;
#X obj 86 477 list prepend;
#X obj 491 211 + 9999;
#X obj 491 338 + 1;
#X obj 446 153 s player-\$2-auto-data-table;
#X obj 623 350 s player-\$2-auto-data-table;
#X obj 366 493 s player-\$2-auto-data-table;
#X obj 86 502 s player-\$2-auto-data-table;
#X obj 366 418 t l l;
#X obj 366 443 list prepend;
#X obj 426 418 list length;
#X text 520 426 << store the symbol length in chars before the symbol
bytes;
#X floatatom 484 456 5 0 0 0 - - -;
#X obj 566 128 * 10501;
#X text 489 378 << the longest a send name symbol can be is 499 characters
(one more slot is used to store the symbol length in chars);
#X obj 366 393 list split 499;
#X obj 217 452 + 500;
#X floatatom 217 477 10 0 0 0 - - -;
#X connect 0 0 5 1;
#X connect 1 0 2 1;
#X connect 2 0 13 0;
#X connect 3 0 16 0;
#X connect 4 0 3 1;
#X connect 5 0 15 0;
#X connect 6 0 11 0;
#X connect 7 0 3 0;
#X connect 7 1 5 0;
#X connect 7 2 2 0;
#X connect 7 3 6 0;
#X connect 8 0 7 0;
#X connect 9 0 28 0;
#X connect 11 0 12 0;
#X connect 11 1 9 0;
#X connect 12 0 19 0;
#X connect 13 0 20 0;
#X connect 14 0 21 0;
#X connect 15 0 30 0;
#X connect 16 0 22 0;
#X connect 17 0 13 1;
#X connect 17 0 18 0;
#X connect 18 0 14 1;
#X connect 18 0 31 0;
#X connect 23 0 24 0;
#X connect 23 1 25 0;
#X connect 24 0 14 0;
#X connect 25 0 24 1;
#X connect 25 0 27 0;
#X connect 28 0 12 1;
#X connect 28 0 17 0;
#X connect 30 0 23 0;
#X connect 30 2 23 0;
#X connect 31 0 16 1;
#X connect 31 0 32 0;
#X restore 562 255 pd save-automation;
#N canvas 1038 249 764 625 load-automation 0;
#X obj 387 431 s \$0-write-idx;
#X obj 306 556 s \$0-sampled-send-name;
#X obj 44 514 select 0 1;
#X obj 77 544 s \$0-play-start;
#X obj 44 574 s \$0-stop;
#X obj 358 232 array get player-\$2-auto-data-table;
#X obj 358 154 f \$1;
#X text 422 144 data chunk size per voice, f 8;
#X msg 529 171 9999;
#X text 586 171 number of values;
#X obj 358 257 list prepend 0;
#X obj 358 282 s param-automation-data-player-\$2-voice-\$1;
#X obj 387 401 tabread player-\$2-auto-data-table;
#X obj 387 370 f;
#X obj 436 328 + 9999;
#N canvas 287 250 843 660 extract-send-name 0;
#X obj 78 41 inlet;
#X obj 207 598 outlet;
#X obj 78 178 array get player-\$2-auto-data-table;
#X obj 245 37 inlet;
#X obj 207 558 list tosymbol;
#X obj 78 149 f;
#X obj 245 103 tabread player-\$2-auto-data-table;
#X text 336 41 first \, get the length of the send symbol in chars.
it's stored in the first slot of the send name data chunk;
#X obj 245 62 + 1;
#X obj 96 117 + 2;
#X text 140 137 then \, advance to the next slot and read the appropriate
number of bytes to get the symbol.;
#X floatatom 195 101 5 0 0 0 - - -;
#X obj 207 317 select 48 49 50 51 52 53;
#X obj 78 255 f;
#X obj 78 280 t f b;
#X obj 78 305 until;
#X obj 78 360 f;
#X obj 118 365 + 1;
#X msg 101 331 0;
#X msg 78 415 get \$1 1;
#X obj 78 440 list store;
#X floatatom 21 409 5 0 0 0 - - -;
#X obj 207 436 list split;
#X obj 255 466 list split 1;
#X obj 207 525 list append;
#X obj 364 475 f \$2;
#X obj 207 500 list append;
#X obj 207 367 t b b b;
#X obj 364 500 + 48;
#X text 417 503 << since the chars for numbers 0 1 2 3 4 5 are 48 49
50 51 52 53 \, we can convert just by offsetting by 48, f 25;
#X obj 207 405 list store;
#X obj 78 385 t f f;
#X obj 78 208 t b l;
#X text 394 255 look for first instance of the char for numbers 0-5
\, and replace with this instance's voiceID argument (\$2). this currently
works because all send names associated with automation begin with
player-\$1- \, and this process stops at the first sight of numbers
0-5. the param send names are the only other ones with these numbers
\, but they come later in the list of chars (e.g. \, player-0-algo-param-3)
;
#X connect 0 0 5 0;
#X connect 2 0 32 0;
#X connect 3 0 8 0;
#X connect 3 0 9 0;
#X connect 4 0 1 0;
#X connect 5 0 2 0;
#X connect 6 0 2 1;
#X connect 6 0 11 0;
#X connect 6 0 13 1;
#X connect 8 0 6 0;
#X connect 9 0 5 1;
#X connect 12 0 27 0;
#X connect 12 1 27 0;
#X connect 12 2 27 0;
#X connect 12 3 27 0;
#X connect 12 4 27 0;
#X connect 12 5 27 0;
#X connect 13 0 14 0;
#X connect 14 0 15 0;
#X connect 14 1 18 0;
#X connect 15 0 16 0;
#X connect 16 0 17 0;
#X connect 16 0 21 0;
#X connect 16 0 31 0;
#X connect 17 0 16 1;
#X connect 18 0 16 1;
#X connect 19 0 20 0;
#X connect 20 0 12 0;
#X connect 22 0 26 0;
#X connect 22 1 23 0;
#X connect 23 1 24 1;
#X connect 24 0 4 0;
#X connect 25 0 28 0;
#X connect 26 0 24 0;
#X connect 27 0 30 0;
#X connect 27 1 25 0;
#X connect 27 2 15 1;
#X connect 28 0 26 1;
#X connect 30 0 22 0;
#X connect 31 0 19 0;
#X connect 31 1 22 1;
#X connect 32 0 13 0;
#X connect 32 1 20 1;
#X connect 32 1 30 1;
#X restore 306 478 pd extract-send-name;
#X symbolatom 342 520 50 0 0 0 - - -;
#X obj 44 407 f;
#X obj 44 432 tabread player-\$2-auto-data-table;
#X floatatom 308 179 5 0 0 0 - - -;
#X floatatom 337 401 5 0 0 0 - - -;
#X floatatom 77 481 5 0 0 0 - - -;
#X obj 44 20 r player-\$2-set-all-auto-data;
#X obj 44 49 t b b b b b;
#X obj 358 179 * 10501;
#X obj 80 406 + 501;
#X connect 2 0 4 0;
#X connect 2 1 3 0;
#X connect 5 0 10 0;
#X connect 6 0 24 0;
#X connect 8 0 5 1;
#X connect 10 0 11 0;
#X connect 12 0 0 0;
#X connect 12 0 20 0;
#X connect 13 0 12 0;
#X connect 14 0 13 1;
#X connect 14 0 15 1;
#X connect 14 0 25 0;
#X connect 15 0 1 0;
#X connect 15 0 16 0;
#X connect 17 0 18 0;
#X connect 18 0 2 0;
#X connect 18 0 21 0;
#X connect 22 0 23 0;
#X connect 23 0 17 0;
#X connect 23 1 15 0;
#X connect 23 2 13 0;
#X connect 23 3 6 0;
#X connect 23 4 8 0;
#X connect 24 0 14 0;
#X connect 24 0 5 0;
#X connect 24 0 19 0;
#X connect 25 0 17 1;
#X restore 562 285 pd load-automation;
#X obj 500 414 r \$0-is-playing;
#X obj 500 441 tgl 15 0 empty empty empty 17 7 0 10 -262144 -1 -1 0
1;
#X obj 112 513 s player-\$2-last-MIDI-trig-send-name;
#X text 384 513 re-transmit the most recent MIDI-trig-send-name when
recording starts. this will break automation for any other voices that
are controlling the respective parameter. this solves a bug where automation
is recorded for a parameter \, no other MIDI controls are touched \,
and then auto record is activated again. that scenario caused two voices
to automate the same parameter.;
#X connect 0 0 7 0;
#X connect 0 1 1 0;
#X connect 0 2 20 0;
#X connect 1 0 19 0;
#X connect 1 1 18 0;
#X connect 3 0 0 0;
#X connect 4 0 16 0;
#X connect 4 0 30 0;
#X connect 7 0 21 0;
#X connect 7 1 4 0;
#X connect 7 2 17 0;
#X connect 8 0 0 0;
#X connect 10 0 8 0;
#X connect 11 0 12 0;
#X connect 12 0 3 0;
#X connect 14 0 4 1;
#X connect 24 0 6 0;
#X connect 25 0 0 0;
#X connect 28 0 29 0;
