#N canvas 202 95 1015 708 12;
#X obj 244 572 f;
#X obj 312 564 + 1;
#X msg 274 544 0;
#X obj 597 323 t f b;
#X obj 597 438 f;
#X obj 637 432 + 1;
#X msg 627 400 0;
#X obj 637 456 %;
#X obj 735 412 + 1;
#X obj 104 536 t f b;
#X obj 312 588 % 10000;
#X obj 201 152 select rec play stop;
#X msg 104 280 1;
#X msg 145 280 0;
#X obj 246 194 t b b;
#X text 299 96 auto voice ID \, command symbol;
#X msg 597 291 1;
#X msg 647 291 0;
#X obj 201 120 list;
#X obj 597 586 s, f 11;
#X obj 104 414 metro 10;
#X obj 597 363 metro 10;
#X obj 272 384 symbol;
#X obj 104 498 f;
#N canvas 206 279 1187 460 receives-router 0;
#X obj 47 411 outlet;
#N canvas 807 168 872 680 p0-p9 0;
#X obj 56 385 r player-\$2-algo-param-0;
#X obj 56 409 spigot;
#X msg 55 200 1 0 0 0 0 0 0 0 0 0;
#X obj 55 344 unpack f f f f f f f f f f;
#X obj 55 30 inlet;
#X obj 789 247 outlet;
#X obj 318 603 outlet;
#X obj 116 439 spigot;
#X obj 176 469 spigot;
#X obj 236 499 spigot;
#X obj 296 529 spigot;
#X obj 426 409 spigot;
#X obj 486 439 spigot;
#X obj 546 469 spigot;
#X obj 606 499 spigot;
#X obj 666 529 spigot;
#X obj 116 415 r player-\$2-algo-param-1;
#X obj 176 445 r player-\$2-algo-param-2;
#X obj 236 475 r player-\$2-algo-param-3;
#X obj 296 505 r player-\$2-algo-param-4;
#X obj 426 385 r player-\$2-algo-param-5;
#X obj 486 415 r player-\$2-algo-param-6;
#X obj 546 445 r player-\$2-algo-param-7;
#X obj 606 475 r player-\$2-algo-param-8;
#X obj 666 505 r player-\$2-algo-param-9;
#X msg 65 230 0 1 0 0 0 0 0 0 0 0;
#X msg 75 260 0 0 1 0 0 0 0 0 0 0;
#X msg 85 290 0 0 0 1 0 0 0 0 0 0;
#X msg 95 320 0 0 0 0 1 0 0 0 0 0;
#X msg 245 200 0 0 0 0 0 1 0 0 0 0;
#X msg 255 230 0 0 0 0 0 0 1 0 0 0;
#X msg 265 260 0 0 0 0 0 0 0 1 0 0;
#X msg 275 290 0 0 0 0 0 0 0 0 1 0;
#X msg 285 320 0 0 0 0 0 0 0 0 0 1;
#X obj 55 80 select player-\$2-algo-param-0-set player-\$2-algo-param-1-set
player-\$2-algo-param-2-set player-\$2-algo-param-3-set player-\$2-algo-param-4-set
player-\$2-algo-param-5-set player-\$2-algo-param-6-set player-\$2-algo-param-7-set
player-\$2-algo-param-8-set player-\$2-algo-param-9-set, f 100;
#X connect 0 0 1 0;
#X connect 1 0 6 0;
#X connect 2 0 3 0;
#X connect 3 0 1 1;
#X connect 3 1 7 1;
#X connect 3 2 8 1;
#X connect 3 3 9 1;
#X connect 3 4 10 1;
#X connect 3 5 11 1;
#X connect 3 6 12 1;
#X connect 3 7 13 1;
#X connect 3 8 14 1;
#X connect 3 9 15 1;
#X connect 4 0 34 0;
#X connect 7 0 6 0;
#X connect 8 0 6 0;
#X connect 9 0 6 0;
#X connect 10 0 6 0;
#X connect 11 0 6 0;
#X connect 12 0 6 0;
#X connect 13 0 6 0;
#X connect 14 0 6 0;
#X connect 15 0 6 0;
#X connect 16 0 7 0;
#X connect 17 0 8 0;
#X connect 18 0 9 0;
#X connect 19 0 10 0;
#X connect 20 0 11 0;
#X connect 21 0 12 0;
#X connect 22 0 13 0;
#X connect 23 0 14 0;
#X connect 24 0 15 0;
#X connect 25 0 3 0;
#X connect 26 0 3 0;
#X connect 27 0 3 0;
#X connect 28 0 3 0;
#X connect 29 0 3 0;
#X connect 30 0 3 0;
#X connect 31 0 3 0;
#X connect 32 0 3 0;
#X connect 33 0 3 0;
#X connect 34 0 2 0;
#X connect 34 1 25 0;
#X connect 34 2 26 0;
#X connect 34 3 27 0;
#X connect 34 4 28 0;
#X connect 34 5 29 0;
#X connect 34 6 30 0;
#X connect 34 7 31 0;
#X connect 34 8 32 0;
#X connect 34 9 33 0;
#X connect 34 10 5 0;
#X restore 277 84 pd p0-p9;
#X obj 271 356 spigot;
#X obj 441 356 spigot;
#X obj 611 356 spigot;
#X obj 47 25 inlet;
#X obj 801 356 spigot;
#N canvas 807 168 529 680 gains-0-5 0;
#X obj 56 409 spigot;
#X obj 55 30 inlet;
#X obj 388 161 outlet;
#X obj 318 603 outlet;
#X obj 116 439 spigot;
#X obj 176 469 spigot;
#X obj 236 499 spigot;
#X obj 296 529 spigot;
#X obj 356 559 spigot;
#X obj 55 80 select player-0-gain-set player-1-gain-set player-2-gain-set
player-3-gain-set player-4-gain-set player-5-gain-set, f 48;
#X obj 55 344 unpack f f f f f f;
#X obj 56 385 r player-0-gain;
#X obj 116 415 r player-1-gain;
#X obj 176 445 r player-2-gain;
#X obj 236 475 r player-3-gain;
#X obj 296 505 r player-4-gain;
#X obj 356 535 r player-5-gain;
#X msg 105 290 0 0 0 0 0 1;
#X msg 95 260 0 0 0 0 1 0;
#X msg 85 230 0 0 0 1 0 0;
#X msg 75 200 0 0 1 0 0 0;
#X msg 65 170 0 1 0 0 0 0;
#X msg 55 140 1 0 0 0 0 0;
#X connect 0 0 3 0;
#X connect 1 0 9 0;
#X connect 4 0 3 0;
#X connect 5 0 3 0;
#X connect 6 0 3 0;
#X connect 7 0 3 0;
#X connect 8 0 3 0;
#X connect 9 0 22 0;
#X connect 9 1 21 0;
#X connect 9 2 20 0;
#X connect 9 3 19 0;
#X connect 9 4 18 0;
#X connect 9 5 17 0;
#X connect 9 6 2 0;
#X connect 10 0 0 1;
#X connect 10 1 4 1;
#X connect 10 2 5 1;
#X connect 10 3 6 1;
#X connect 10 4 7 1;
#X connect 10 5 8 1;
#X connect 11 0 0 0;
#X connect 12 0 4 0;
#X connect 13 0 5 0;
#X connect 14 0 6 0;
#X connect 15 0 7 0;
#X connect 16 0 8 0;
#X connect 17 0 10 0;
#X connect 18 0 10 0;
#X connect 19 0 10 0;
#X connect 20 0 10 0;
#X connect 21 0 10 0;
#X connect 22 0 10 0;
#X restore 47 84 pd gains-0-5;
#X obj 991 356 spigot;
#X obj 468 282 unpack f f f f f;
#X msg 468 128 1 0 0 0 0;
#X msg 478 158 0 1 0 0 0;
#X msg 488 188 0 0 1 0 0;
#X msg 498 218 0 0 0 1 0;
#X msg 508 248 0 0 0 0 1;
#N canvas 807 168 529 680 mutes-0-5 0;
#X obj 56 409 spigot;
#X obj 55 30 inlet;
#X obj 388 161 outlet;
#X obj 318 603 outlet;
#X obj 116 439 spigot;
#X obj 176 469 spigot;
#X obj 236 499 spigot;
#X obj 296 529 spigot;
#X obj 356 559 spigot;
#X obj 55 344 unpack f f f f f f;
#X msg 105 290 0 0 0 0 0 1;
#X msg 95 260 0 0 0 0 1 0;
#X msg 85 230 0 0 0 1 0 0;
#X msg 75 200 0 0 1 0 0 0;
#X msg 65 170 0 1 0 0 0 0;
#X msg 55 140 1 0 0 0 0 0;
#X obj 55 80 select player-0-mute-set player-1-mute-set player-2-mute-set
player-3-mute-set player-4-mute-set player-5-mute-set, f 48;
#X obj 56 385 r player-0-mute;
#X obj 116 415 r player-1-mute;
#X obj 176 445 r player-2-mute;
#X obj 236 475 r player-3-mute;
#X obj 296 505 r player-4-mute;
#X obj 356 535 r player-5-mute;
#X connect 0 0 3 0;
#X connect 1 0 16 0;
#X connect 4 0 3 0;
#X connect 5 0 3 0;
#X connect 6 0 3 0;
#X connect 7 0 3 0;
#X connect 8 0 3 0;
#X connect 9 0 0 1;
#X connect 9 1 4 1;
#X connect 9 2 5 1;
#X connect 9 3 6 1;
#X connect 9 4 7 1;
#X connect 9 5 8 1;
#X connect 10 0 9 0;
#X connect 11 0 9 0;
#X connect 12 0 9 0;
#X connect 13 0 9 0;
#X connect 14 0 9 0;
#X connect 15 0 9 0;
#X connect 16 0 15 0;
#X connect 16 1 14 0;
#X connect 16 2 13 0;
#X connect 16 3 12 0;
#X connect 16 4 11 0;
#X connect 16 5 10 0;
#X connect 16 6 2 0;
#X connect 17 0 0 0;
#X connect 18 0 4 0;
#X connect 19 0 5 0;
#X connect 20 0 6 0;
#X connect 21 0 7 0;
#X connect 22 0 8 0;
#X restore 157 84 pd mutes-0-5;
#N canvas 204 177 556 399 spats 0;
#X obj 56 279 spigot;
#X obj 55 30 inlet;
#X obj 434 135 outlet;
#X obj 56 339 outlet;
#X obj 116 309 spigot;
#X obj 55 214 unpack f f;
#X msg 55 140 1 0;
#X msg 65 170 0 1;
#X obj 55 80 select player-\$2-spat-pos-set player-\$2-spat-width-set
;
#X obj 56 255 r player-\$2-spat-pos;
#X obj 116 285 r player-\$2-spat-width;
#X connect 0 0 3 0;
#X connect 1 0 8 0;
#X connect 4 0 3 0;
#X connect 5 0 0 1;
#X connect 5 1 4 1;
#X connect 6 0 5 0;
#X connect 7 0 5 0;
#X connect 8 0 6 0;
#X connect 8 1 7 0;
#X connect 8 2 2 0;
#X connect 9 0 0 0;
#X connect 10 0 4 0;
#X restore 367 84 pd spats;
#X obj 468 64 select player-\$2-bitDepth-set player-\$2-tempo-set player-\$2-time-reverse-set
player-\$2-pitch-bend-set player-\$2-dry-wet-set;
#X obj 991 332 r player-\$2-dry-wet;
#X obj 801 332 r player-\$2-pitch-bend;
#X obj 611 332 r player-\$2-time-reverse;
#X obj 441 332 r player-\$2-tempo;
#X obj 271 332 r player-\$2-bitDepth;
#X connect 1 0 0 0;
#X connect 1 1 16 0;
#X connect 2 0 0 0;
#X connect 3 0 0 0;
#X connect 4 0 0 0;
#X connect 5 0 7 0;
#X connect 6 0 0 0;
#X connect 7 0 0 0;
#X connect 7 1 15 0;
#X connect 8 0 0 0;
#X connect 9 0 2 1;
#X connect 9 1 3 1;
#X connect 9 2 4 1;
#X connect 9 3 6 1;
#X connect 9 4 8 1;
#X connect 10 0 9 0;
#X connect 11 0 9 0;
#X connect 12 0 9 0;
#X connect 13 0 9 0;
#X connect 14 0 9 0;
#X connect 15 0 0 0;
#X connect 15 1 1 0;
#X connect 16 0 0 0;
#X connect 16 1 17 0;
#X connect 17 0 10 0;
#X connect 17 1 11 0;
#X connect 17 2 12 0;
#X connect 17 3 13 0;
#X connect 17 4 14 0;
#X connect 18 0 8 0;
#X connect 19 0 6 0;
#X connect 20 0 4 0;
#X connect 21 0 3 0;
#X connect 22 0 2 0;
#X restore 151 457 pd receives-router;
#X floatatom 626 535 5 0 0 0 - - -;
#X symbolatom 511 644 50 0 0 0 - - -;
#X floatatom 178 512 5 0 0 0 - - -;
#X obj 25 78 select sendsymbol;
#X msg 25 102 symbol stop;
#X obj 25 42 spigot;
#X msg 95 42 1;
#X msg 136 42 0;
#X text 257 237 don't start recording until the first piece of data
from the desired receive shows up, f 20;
#X obj 61 227 oneFloat 0;
#X obj 61 251 t b;
#X obj 104 314 t f b b;
#X obj 161 194 t b b b;
#X obj 187 45 delay 500;
#X text 269 45 << suppress break for 0.5 sec;
#X msg 554 50 symbol stop;
#X text 608 99 \$1: automation voice \; \$2: player ID \;;
#X obj 554 26 r player-\$2-automation-killall;
#X obj 25 18 r player-\$2-last-MIDI-trig-send-name;
#X obj 201 72 r player-\$2-param-auto-command;
#X obj 201 96 route \$1;
#X obj 602 149 table param-automation-data-player-\$2-voice-\$1 9999
;
#X obj 293 327 r player-\$2-last-MIDI-trig-send-name;
#X obj 597 499 tabread param-automation-data-player-\$2-voice-\$1;
#X obj 104 632 tabwrite param-automation-data-player-\$2-voice-\$1
;
#X obj 851 315 inlet;
#X connect 0 0 1 0;
#X connect 0 0 8 0;
#X connect 0 0 49 1;
#X connect 1 0 10 0;
#X connect 2 0 0 1;
#X connect 3 0 21 0;
#X connect 3 1 6 0;
#X connect 4 0 5 0;
#X connect 4 0 48 0;
#X connect 5 0 7 0;
#X connect 6 0 4 1;
#X connect 7 0 4 1;
#X connect 8 0 7 1;
#X connect 9 0 49 0;
#X connect 9 1 0 0;
#X connect 10 0 0 1;
#X connect 11 0 37 0;
#X connect 11 1 14 0;
#X connect 11 2 17 0;
#X connect 11 2 13 0;
#X connect 12 0 36 0;
#X connect 13 0 36 0;
#X connect 14 0 16 0;
#X connect 14 0 38 0;
#X connect 14 1 13 0;
#X connect 16 0 3 0;
#X connect 17 0 3 0;
#X connect 18 0 11 0;
#X connect 20 0 23 0;
#X connect 21 0 4 0;
#X connect 22 0 19 1;
#X connect 22 0 26 0;
#X connect 22 0 28 1;
#X connect 22 0 24 0;
#X connect 23 0 9 0;
#X connect 24 0 23 1;
#X connect 24 0 27 0;
#X connect 24 0 34 0;
#X connect 28 0 29 0;
#X connect 29 0 11 0;
#X connect 30 0 28 0;
#X connect 31 0 30 1;
#X connect 32 0 30 1;
#X connect 34 0 35 0;
#X connect 35 0 12 0;
#X connect 36 0 20 0;
#X connect 36 1 2 0;
#X connect 37 0 34 1;
#X connect 37 1 22 0;
#X connect 37 2 32 0;
#X connect 38 0 31 0;
#X connect 40 0 11 0;
#X connect 42 0 40 0;
#X connect 43 0 30 0;
#X connect 44 0 45 0;
#X connect 45 0 18 0;
#X connect 47 0 22 1;
#X connect 48 0 19 0;
#X connect 48 0 25 0;
