#N canvas 1024 594 804 393 12;
#X obj 62 36 inlet;
#X obj 160 52 f \$0;
#X msg 160 76 seed \$1;
#X obj 62 126 random;
#X obj 62 60 route bang;
#X obj 283 60 inlet;
#X obj 543 60 inlet;
#X obj 62 150 + 1;
#X obj 543 148 f;
#X obj 583 152 + 1;
#X obj 283 148 f;
#X obj 323 152 - 1;
#X text 543 268 \$1: player ID number \; \$2: algo ID number \; \$3:
param index \;;
#X obj 317 100 r player-\$1-algo-\$2-param-\$3;
#X obj 577 100 r player-\$1-algo-\$2-param-\$3;
#X obj 225 291 pack f \$1 \$2 \$3;
#X msg 225 315 \; player-\$2-algo-\$3-param-\$4-set \$1 \;;
#X obj 160 28 r player-\$1-param-interface-init;
#X connect 0 0 4 0;
#X connect 1 0 2 0;
#X connect 2 0 3 0;
#X connect 3 0 7 0;
#X connect 4 0 3 0;
#X connect 4 1 3 1;
#X connect 5 0 10 0;
#X connect 6 0 8 0;
#X connect 7 0 15 0;
#X connect 8 0 9 0;
#X connect 9 0 8 1;
#X connect 9 0 15 0;
#X connect 10 0 11 0;
#X connect 11 0 10 1;
#X connect 11 0 15 0;
#X connect 13 0 10 1;
#X connect 14 0 8 1;
#X connect 15 0 16 0;
#X connect 17 0 1 0;
