#N canvas 876 594 935 396 12;
#X obj 62 36 inlet;
#X obj 160 52 f \$0;
#X msg 160 76 seed \$1;
#X obj 62 126 random;
#X obj 62 60 route bang;
#X obj 438 60 inlet;
#X obj 693 60 inlet;
#X obj 62 150 + 1;
#X obj 693 148 f;
#X obj 733 152 + 1;
#X obj 438 148 f;
#X obj 478 152 - 1;
#X obj 160 28 r player-\$1-param-interface-init;
#X obj 381 207 moses 0;
#X msg 225 315 \; player-\$2-algo-param-\$3-set \$1 \;;
#X obj 225 291 pack f \$1 \$2;
#X text 543 268 \$1: player ID number \; \$2: param index \;;
#X obj 472 100 r player-\$1-algo-param-\$2;
#X obj 727 100 r player-\$1-algo-param-\$2;
#X obj 451 207 moses;
#X obj 156 111 s player-\$1-algo-param-\$2-range;
#X obj 511 207 r player-\$1-algo-param-\$2-range;
#X connect 0 0 4 0;
#X connect 1 0 2 0;
#X connect 2 0 3 0;
#X connect 3 0 7 0;
#X connect 4 0 3 0;
#X connect 4 1 3 1;
#X connect 4 1 20 0;
#X connect 5 0 10 0;
#X connect 6 0 8 0;
#X connect 7 0 15 0;
#X connect 8 0 9 0;
#X connect 9 0 8 1;
#X connect 9 0 13 0;
#X connect 10 0 11 0;
#X connect 11 0 10 1;
#X connect 11 0 13 0;
#X connect 12 0 1 0;
#X connect 13 1 19 0;
#X connect 15 0 14 0;
#X connect 17 0 10 1;
#X connect 18 0 8 1;
#X connect 19 0 15 0;
#X connect 21 0 19 1;
