#N canvas 204 514 935 396 12;
#X obj 102 94 f \$0;
#X msg 102 118 seed \$1;
#X obj 62 176 random;
#X obj 62 200 + 1;
#X obj 693 148 f;
#X obj 733 152 + 1;
#X obj 438 148 f;
#X obj 478 152 - 1;
#X msg 225 315 \; player-\$2-algo-param-\$3-set \$1 \;;
#X obj 581 216 moses;
#X obj 511 216 moses 0;
#X obj 102 70 r lb1;
#X obj 62 36 r player-\$2-algo-randomize-param-\$1;
#X obj 438 60 r player-\$2-algo-dec-param-\$1;
#X obj 472 100 r player-\$2-algo-param-\$1;
#X obj 693 60 r player-\$2-algo-inc-param-\$1;
#X obj 727 100 r player-\$2-algo-param-\$1;
#X obj 641 216 r player-\$2-algo-param-\$1-range;
#X obj 132 176 r player-\$2-algo-param-\$1-range;
#X obj 225 291 pack f \$2 \$1;
#X text 543 268 \$1: param index \; \$2: player ID number \;;
#X connect 0 0 1 0;
#X connect 1 0 2 0;
#X connect 2 0 3 0;
#X connect 3 0 19 0;
#X connect 4 0 5 0;
#X connect 5 0 4 1;
#X connect 5 0 10 0;
#X connect 6 0 7 0;
#X connect 7 0 6 1;
#X connect 7 0 10 0;
#X connect 9 0 19 0;
#X connect 10 1 9 0;
#X connect 11 0 0 0;
#X connect 12 0 2 0;
#X connect 13 0 6 0;
#X connect 14 0 6 1;
#X connect 15 0 4 0;
#X connect 16 0 4 1;
#X connect 17 0 9 1;
#X connect 18 0 2 1;
#X connect 19 0 8 0;
