#N canvas 381 237 1202 709 12;
#X obj 532 417 f;
#X obj 597 421 + 1;
#X msg 676 320 0;
#X obj 532 341 until;
#X obj 532 304 f;
#X obj 676 295 r reset-master-clock;
#X obj 435 74 f;
#X obj 495 63 + 1;
#X obj 495 92 %;
#X obj 435 133 select 0;
#N canvas 995 147 424 532 calc-block-duration 0;
#X obj 76 203 * 1000;
#X obj 76 293 *;
#X obj 153 240 t b f;
#X floatatom 108 340 10 0 0 0 - - -;
#X obj 76 107 t f b;
#X obj 143 144 samplerate~;
#X obj 76 174 /;
#X obj 153 180 r player-\$1-slowDownFactor;
#X obj 76 381 s player-\$1-one-block-ms;
#X obj 76 50 r sysBlockSize;
#X connect 0 0 1 0;
#X connect 1 0 3 0;
#X connect 1 0 8 0;
#X connect 2 0 1 0;
#X connect 2 1 1 1;
#X connect 4 0 6 0;
#X connect 4 1 5 0;
#X connect 5 0 6 1;
#X connect 6 0 0 0;
#X connect 7 0 2 0;
#X connect 9 0 4 0;
#X restore 882 105 pd calc-block-duration;
#N canvas 1452 362 349 448 calc-loop-duration 0;
#X obj 82 161 timer;
#X obj 82 190 / 1000;
#X obj 82 219 / 60;
#X obj 142 219 % 60;
#X floatatom 142 288 5 0 0 0 - - -;
#X floatatom 82 288 5 0 0 0 - - -;
#X obj 82 92 select 0;
#X obj 47 121 bng 15 250 50 0 empty empty empty 17 7 0 10 -262144 -1
-1;
#X obj 157 123 bng 15 250 50 0 empty empty empty 17 7 0 10 -262144
-1 -1;
#X obj 82 248 i;
#X obj 82 121 t b b;
#X obj 82 52 r player-\$1-time-idx;
#X connect 0 0 1 0;
#X connect 1 0 2 0;
#X connect 1 0 3 0;
#X connect 2 0 9 0;
#X connect 3 0 4 0;
#X connect 6 0 7 0;
#X connect 6 0 10 0;
#X connect 8 0 0 1;
#X connect 9 0 5 0;
#X connect 10 0 0 0;
#X connect 10 1 0 1;
#X connect 11 0 6 0;
#X restore 882 145 pd calc-loop-duration;
#X floatatom 575 115 10 0 0 0 - - -;
#N canvas 629 206 524 533 calc-effective-samplerate 0;
#X obj 121 51 inlet;
#X obj 121 99 t b b;
#X obj 121 128 timer;
#X obj 121 185 /;
#X obj 121 245 / 1000;
#X obj 121 272 t b f;
#X msg 121 301 1;
#X obj 121 330 /;
#X floatatom 141 369 15 0 0 0 - - -;
#X floatatom 141 217 10 0 0 0 - - -;
#X floatatom 141 157 10 0 0 0 - - -;
#X obj 121 429 s player-\$1-effective-samplerate;
#X obj 238 197 t b f;
#X obj 238 173 r sysBlockSize;
#X connect 0 0 1 0;
#X connect 1 0 2 0;
#X connect 1 1 2 1;
#X connect 2 0 10 0;
#X connect 2 0 3 0;
#X connect 3 0 4 0;
#X connect 3 0 9 0;
#X connect 4 0 5 0;
#X connect 5 0 6 0;
#X connect 5 1 7 1;
#X connect 6 0 7 0;
#X connect 7 0 8 0;
#X connect 7 0 11 0;
#X connect 12 0 3 0;
#X connect 12 1 3 1;
#X connect 13 0 12 0;
#X restore 145 223 pd calc-effective-samplerate;
#X text 823 25 \$1: player ID number;
#X obj 593 53 r player-\$1-slowDownFactor;
#X obj 435 14 r master-clock-tick;
#X obj 683 384 s player-\$1-block-reset;
#X obj 532 498 s player-\$1-time-idx;
#X obj 250 457 s player-\$1-play-block;
#X obj 949 423 -;
#X obj 949 452 + 1;
#X obj 949 334 + 0.5;
#X obj 949 363 i;
#X obj 949 305 r player-\$1-tempo;
#X obj 949 481 s player-\$1-slowDownFactor;
#X floatatom 872 520 10 0 0 0 - - -;
#X obj 949 395 swap;
#X obj 989 395 r max-slowDownFactor;
#X obj 575 92 f;
#X obj 435 157 t b b;
#X text 525 141 Only change the slowDownFactor mod on timing boundaries
, f 31;
#X obj 639 212 r player-\$1-blockSize;
#X obj 467 202 t b b b b b b;
#X obj 370 577 s player-\$1-get-next-block-samp-0;
#X obj 330 537 s player-\$1-get-next-block-samp-1;
#X msg 996 362 120;
#X text 804 569 200000 * 64 samples = 12 \, 800 \, 0;
#X floatatom 441 462 20 0 0 0 - - -;
#X obj 685 541 mod 2.14748e+09;
#X obj 698 569 mod 1.28e+07;
#X obj 702 604 mod 1.67772e+07;
#X obj 706 635 mod 1.6384e+07;
#X obj 597 461 mod 1.6384e+07;
#X text 828 636 4096 * 4000 comes out to a nice even 1.6384e+07 Going
with that for now., f 38;
#X obj 660 248 r player-\$1-set-time-idx;
#N canvas 669 105 450 300 time-sync 0;
#X obj 91 55 time-sync-req-abs 0 \$1;
#X obj 91 85 time-sync-req-abs 1 \$1;
#X obj 91 115 time-sync-req-abs 2 \$1;
#X obj 91 145 time-sync-req-abs 3 \$1;
#X obj 91 175 time-sync-req-abs 4 \$1;
#X obj 91 205 time-sync-req-abs 5 \$1;
#X restore 882 180 pd time-sync;
#N canvas 316 108 450 300 tempo-sync 0;
#X obj 91 55 tempo-sync-req-abs 0 \$1;
#X obj 91 85 tempo-sync-req-abs 1 \$1;
#X obj 91 115 tempo-sync-req-abs 2 \$1;
#X obj 91 145 tempo-sync-req-abs 3 \$1;
#X obj 91 175 tempo-sync-req-abs 4 \$1;
#X obj 91 205 tempo-sync-req-abs 5 \$1;
#X restore 882 210 pd tempo-sync;
#X obj 146 49 inlet;
#X floatatom 681 271 15 0 0 0 - - -;
#X connect 0 0 1 0;
#X connect 0 0 18 0;
#X connect 0 0 38 0;
#X connect 1 0 43 0;
#X connect 2 0 0 1;
#X connect 3 0 0 0;
#X connect 4 0 3 0;
#X connect 5 0 2 0;
#X connect 6 0 7 0;
#X connect 6 0 9 0;
#X connect 7 0 8 0;
#X connect 8 0 6 1;
#X connect 9 0 30 0;
#X connect 15 0 29 1;
#X connect 16 0 6 0;
#X connect 20 0 21 0;
#X connect 21 0 25 0;
#X connect 21 0 26 0;
#X connect 22 0 23 0;
#X connect 23 0 27 0;
#X connect 24 0 22 0;
#X connect 27 0 20 0;
#X connect 27 1 20 1;
#X connect 28 0 27 1;
#X connect 29 0 12 0;
#X connect 29 0 8 1;
#X connect 30 0 29 0;
#X connect 30 0 13 0;
#X connect 30 1 33 0;
#X connect 32 0 4 1;
#X connect 33 0 19 0;
#X connect 33 2 35 0;
#X connect 33 3 34 0;
#X connect 33 4 4 0;
#X connect 33 5 17 0;
#X connect 36 0 27 1;
#X connect 43 0 0 1;
#X connect 45 0 49 0;
#X connect 45 0 1 0;
