#N canvas 988 684 932 297 12;
#X text 313 31 \$1: player ID \; \$2: FX name \;;
#X obj 48 147 r player-\$1-spat-pos;
#X obj 48 217 r player-\$1-spat-lfo-freq;
#X obj 238 147 r player-\$1-spat-width;
#X obj 48 46 r player-\$1-dry;
#X obj 468 147 r player-\$1-spat-pos;
#X obj 468 217 r player-\$1-spat-lfo-freq;
#X obj 658 147 r player-\$1-spat-width;
#X obj 468 46 r player-\$1-wet;
#X obj 48 71 s direct-\$2-tap-out-gain-set;
#X obj 468 71 s reverb-\$2-tap-out-gain-set;
#X obj 658 171 s reverb-\$2-spat-width-set;
#X obj 468 171 s reverb-\$2-spat-pos-set;
#X obj 468 241 s reverb-\$2-spat-lfo-freq-set;
#X obj 48 241 s direct-\$2-spat-lfo-freq-set;
#X obj 238 171 s direct-\$2-spat-width-set;
#X obj 48 171 s direct-\$2-spat-pos-set;
#X obj 698 71 s reverb-\$2-rvb-set;
#X obj 698 47 r player-\$1-rvb-liveness;
#X connect 1 0 16 0;
#X connect 2 0 14 0;
#X connect 3 0 15 0;
#X connect 4 0 9 0;
#X connect 5 0 12 0;
#X connect 6 0 13 0;
#X connect 7 0 11 0;
#X connect 8 0 10 0;
#X connect 18 0 17 0;
