#N canvas 438 219 1070 425 12;
#X obj 519 177 / 1000;
#X obj 349 147 metro;
#X obj 100 254 tabwrite~ player-\$1-plot;
#X obj 859 87 table player-\$1-plot;
#X msg 519 275 \; player-\$2-plot resize \$1 \;;
#X obj 519 230 pack f \$1;
#X text 741 164 \$1: player ID number;
#X obj 101 65 r~ player-\$1-prefader-output;
#X obj 349 65 r plot-duration;
#X obj 349 101 t b f f b;
#X obj 599 206 samplerate~;
#X obj 519 206 *;
#X connect 0 0 11 0;
#X connect 1 0 2 0;
#X connect 5 0 4 0;
#X connect 7 0 2 0;
#X connect 8 0 9 0;
#X connect 9 0 1 0;
#X connect 9 1 1 1;
#X connect 9 2 0 0;
#X connect 9 3 10 0;
#X connect 10 0 11 1;
#X connect 11 0 5 0;
