#N canvas 438 219 1070 425 12;
#X obj 519 177 / 1000;
#X obj 519 206 * 96000;
#X obj 565 98 t b f;
#X obj 565 68 change;
#X obj 349 147 metro;
#X obj 349 101 t b f f;
#X obj 100 254 tabwrite~ player-\$1-plot;
#X obj 859 87 table player-\$1-plot;
#X msg 519 275 \; player-\$2-plot resize \$1 \;;
#X obj 519 230 pack f \$1;
#X text 741 164 \$1: player ID number;
#X obj 565 39 r player-\$1-effective-samplerate;
#X obj 101 65 r~ player-\$1-prefader-output;
#X obj 514 48 bng 15 250 50 0 empty empty empty 17 7 0 10 -262144 -1
-1;
#X msg 349 55 1000;
#X obj 407 21 r plot-duration;
#X connect 0 0 1 0;
#X connect 1 0 9 0;
#X connect 2 0 14 0;
#X connect 2 1 1 1;
#X connect 3 0 2 0;
#X connect 4 0 6 0;
#X connect 5 0 4 0;
#X connect 5 1 4 1;
#X connect 5 2 0 0;
#X connect 9 0 8 0;
#X connect 11 0 3 0;
#X connect 12 0 6 0;
#X connect 13 0 3 0;
#X connect 14 0 5 0;
#X connect 15 0 5 0;
