#N canvas 434 193 1384 653 12;
#X obj 95 521 *~;
#X msg 702 422 1 0;
#X obj 315 521 *~;
#X obj 315 177 phasor~;
#X msg 848 52 0 1;
#X obj 702 476 unpack f f;
#X obj 315 141 line~;
#X obj 396 177 spigot;
#X msg 800 137 0;
#X obj 370 272 snapshot~;
#X obj 599 98 t f b;
#X obj 702 322 t b b b b;
#X obj 370 388 s client-netsend-data-hub;
#X obj 95 427 line~;
#X obj 95 352 pack f 50;
#X obj 315 27 pack f 50;
#X obj 702 218 timer;
#X obj 702 242 > 1000;
#X obj 817 278 metro 100;
#X obj 702 266 change;
#X obj 702 290 select 1;
#X msg 817 248 0;
#X msg 857 248 1;
#X obj 670 173 t b b;
#X obj 370 296 t f f;
#X obj 670 54 abs;
#X obj 599 45 t f f;
#X obj 599 69 spigot;
#X obj 670 145 select 0;
#X text 984 336 If LFO freq remains near zero (within an abs thresh
of 0.1) for a full second \, we switch from the LFO behavior to static
pan position as dictated by the GUI slider. Note that when transitioning
from LFO to static \, we set the LFO frequency to 0Hz first \, then
poll the LFO signal in order to: 1) instantly set the static spat position
[line~] to the final resting position of the LFO \, and 2) send a network
command to the client to update the spat position GUI slider on their
end., f 45;
#X text 1052 41 We could insist on a frequency of *exactly* zero too
\, but that can be finicky and requires a range and offset of -3.2
and 6.35 in order for a zero to even be possible. This strategy is
less touchy and lets us use any offset and range desired., f 33;
#X obj 702 530 s \$0-static-gain;
#X obj 125 521 r \$0-static-gain;
#X obj 782 500 s \$0-lfo-gain;
#X obj 345 521 r \$0-lfo-gain;
#X obj 814 359 s \$0-lfo-freeze;
#X obj 350 74 r \$0-lfo-freeze;
#X msg 350 98 0;
#X obj 417 296 s \$0-static-pos-jump;
#X obj 118 392 r \$0-static-pos-jump;
#X obj 455 177 r \$0-lfo-phase-spigot;
#X obj 800 172 s \$0-lfo-phase-spigot;
#X obj 771 446 s \$0-lfo-phase-spigot;
#X msg 771 421 1;
#X obj 848 83 unpack f f;
#X obj 848 137 s \$0-static-gain;
#X obj 928 107 s \$0-lfo-gain;
#X obj 791 391 s \$0-lfo-snap;
#X obj 393 239 r \$0-lfo-snap;
#X obj 670 78 >= 0.005;
#X obj 370 336 pack f \$1;
#X text 58 52 \$1: player ID \;;
#X obj 599 21 r player-\$1-spat-lfo-freq;
#X obj 95 328 r player-\$1-spat-pos;
#X obj 210 583 s~ player-\$1-spat-pos-sig;
#X msg 370 364 send \$1 player-\$2-spat-pos-set;
#X obj 396 148 r player-\$1-spat-pos;
#X connect 0 0 54 0;
#X connect 1 0 5 0;
#X connect 2 0 54 0;
#X connect 3 0 2 0;
#X connect 3 0 9 0;
#X connect 4 0 44 0;
#X connect 5 0 31 0;
#X connect 5 1 33 0;
#X connect 6 0 3 0;
#X connect 7 0 3 1;
#X connect 8 0 41 0;
#X connect 9 0 24 0;
#X connect 10 0 15 0;
#X connect 10 1 4 0;
#X connect 10 1 8 0;
#X connect 10 1 21 0;
#X connect 11 0 1 0;
#X connect 11 1 43 0;
#X connect 11 2 47 0;
#X connect 11 3 21 0;
#X connect 11 3 35 0;
#X connect 13 0 0 0;
#X connect 14 0 13 0;
#X connect 15 0 6 0;
#X connect 16 0 17 0;
#X connect 17 0 19 0;
#X connect 18 0 16 1;
#X connect 19 0 20 0;
#X connect 20 0 11 0;
#X connect 21 0 18 0;
#X connect 22 0 18 0;
#X connect 23 0 22 0;
#X connect 23 1 16 0;
#X connect 24 0 50 0;
#X connect 24 1 38 0;
#X connect 25 0 49 0;
#X connect 26 0 27 0;
#X connect 26 1 25 0;
#X connect 27 0 10 0;
#X connect 28 0 23 0;
#X connect 32 0 0 1;
#X connect 34 0 2 1;
#X connect 36 0 37 0;
#X connect 37 0 6 0;
#X connect 39 0 13 0;
#X connect 40 0 7 1;
#X connect 43 0 42 0;
#X connect 44 0 45 0;
#X connect 44 1 46 0;
#X connect 48 0 9 0;
#X connect 49 0 27 1;
#X connect 49 0 28 0;
#X connect 50 0 55 0;
#X connect 52 0 26 0;
#X connect 53 0 14 0;
#X connect 55 0 12 0;
#X connect 56 0 7 0;
