#N canvas 242 23 521 698 10;
#X obj 75 236 +~ 1;
#X obj 60 357 *~;
#X obj 160 357 *~;
#X obj 60 386 throw~ out-1;
#X obj 160 386 throw~ out-2;
#N canvas 0 22 450 300 (subpatch) 0;
#X array \$1-spat-curve 200 float 2;
#X coords 0 100 200 0 200 140 1;
#X restore 60 462 graph;
#N canvas 486 265 399 581 make-table 0;
#X obj 81 226 f;
#X obj 119 226 + 1;
#X msg 99 196 0;
#X obj 81 158 until;
#X obj 81 267 t f f;
#X obj 81 364 * -1;
#X obj 81 340 t f f;
#X obj 81 385 *;
#X obj 81 406 exp;
#X msg 81 134 200;
#X obj 81 297 - 100;
#X obj 81 113 t b b f, f 29;
#X text 118 135 table length;
#X text 129 297 half table length;
#X obj 81 427 * 60;
#X obj 81 448 + 40;
#X obj 81 482 tabwrite \$1-spat-curve;
#X obj 81 60 * 200;
#X text 128 62 table length;
#X obj 81 318 /;
#X obj 81 81 max 1;
#X obj 81 39 r \$1-spat-width;
#X connect 0 0 1 0;
#X connect 0 0 4 0;
#X connect 1 0 0 1;
#X connect 2 0 0 1;
#X connect 3 0 0 0;
#X connect 4 0 10 0;
#X connect 4 1 16 1;
#X connect 5 0 7 0;
#X connect 6 0 5 0;
#X connect 6 1 7 1;
#X connect 7 0 8 0;
#X connect 8 0 14 0;
#X connect 9 0 3 0;
#X connect 10 0 19 0;
#X connect 11 0 9 0;
#X connect 11 1 2 0;
#X connect 11 2 19 1;
#X connect 14 0 15 0;
#X connect 15 0 16 0;
#X connect 17 0 20 0;
#X connect 19 0 6 0;
#X connect 20 0 11 0;
#X connect 21 0 17 0;
#X restore 285 540 pd make-table;
#X obj 75 215 *~ 197;
#X text 86 617 0-100 dB \, 200 points;
#X obj 75 281 dbtorms~;
#X obj 75 260 tabread4~ \$1-spat-curve;
#X obj 75 195 wrap~;
#X obj 75 164 +~ 0.5;
#X obj 235 236 +~ 1;
#X obj 235 215 *~ 197;
#X obj 235 281 dbtorms~;
#X obj 235 260 tabread4~ \$1-spat-curve;
#X obj 235 195 wrap~;
#X obj 60 327 r~ \$1-tap-out;
#X obj 160 327 r~ \$1-tap-out;
#X text 291 486 \$1: symbolic name of plugin;
#N canvas 384 314 518 489 selector~ 0;
#X obj 122 327 outlet~;
#X obj 26 42 r~ player-0-spat-pos-sig;
#X obj 26 63 *~;
#X obj 272 256 select 0 1 2 3 4 5;
#X msg 272 277 1 0 0 0 0 0;
#X msg 292 297 0 1 0 0 0 0;
#X obj 66 93 *~;
#X obj 66 72 r~ player-1-spat-pos-sig;
#X obj 272 235 r \$1-spat-sig-source;
#X obj 272 419 unpack f f;
#X connect 1 0 2 0;
#X connect 2 0 0 0;
#X connect 3 0 4 0;
#X connect 3 1 5 0;
#X connect 4 0 9 0;
#X connect 5 0 9 0;
#X connect 6 0 0 0;
#X connect 7 0 6 0;
#X connect 8 0 3 0;
#X connect 9 0 2 1;
#X connect 9 1 6 1;
#X restore 193 86 pd selector~;
#X obj 235 164 +~ 0;
#X connect 0 0 10 0;
#X connect 1 0 3 0;
#X connect 2 0 4 0;
#X connect 7 0 0 0;
#X connect 9 0 1 1;
#X connect 10 0 9 0;
#X connect 11 0 7 0;
#X connect 12 0 11 0;
#X connect 13 0 16 0;
#X connect 14 0 13 0;
#X connect 15 0 2 1;
#X connect 16 0 15 0;
#X connect 17 0 14 0;
#X connect 18 0 1 0;
#X connect 19 0 2 0;
#X connect 21 0 12 0;
#X connect 21 0 22 0;
#X connect 22 0 17 0;
