#N canvas 138 190 1378 616 10;
#X obj 75 186 +~ 1;
#X obj 60 307 *~;
#X obj 160 307 *~;
#X obj 260 307 *~;
#X obj 360 307 *~;
#X obj 60 336 throw~ out-1;
#X obj 160 336 throw~ out-2;
#X obj 260 336 throw~ out-3;
#X obj 360 336 throw~ out-4;
#N canvas 0 22 450 300 (subpatch) 0;
#X array \$0-spat-curve 200 float 2;
#X coords 0 100 200 0 200 140 1 0 0;
#X restore 60 412 graph;
#N canvas 486 265 399 581 make-table 0;
#X obj 81 276 f;
#X obj 119 276 + 1;
#X msg 99 246 0;
#X obj 81 208 until;
#X obj 81 317 t f f;
#X obj 81 414 * -1;
#X obj 81 390 t f f;
#X obj 81 435 *;
#X obj 81 456 exp;
#X msg 81 184 200;
#X obj 81 347 - 100;
#X obj 81 163 t b b f, f 29;
#X text 118 185 table length;
#X text 129 347 half table length;
#X obj 81 477 * 60;
#X obj 81 498 + 40;
#X obj 81 110 * 200;
#X text 128 112 table length;
#X obj 81 368 /;
#X obj 81 131 max 1;
#X obj 81 532 tabwrite \$0-spat-curve;
#X obj 81 20 inlet;
#X obj 151 29 r \$1-spat-width;
#X obj 211 50 r master-output-stereo-mode;
#X obj 151 50 spigot;
#X obj 211 71 swap 1;
#X obj 211 92 -;
#X connect 0 0 1 0;
#X connect 0 0 4 0;
#X connect 1 0 0 1;
#X connect 2 0 0 1;
#X connect 3 0 0 0;
#X connect 4 0 10 0;
#X connect 4 1 20 1;
#X connect 5 0 7 0;
#X connect 6 0 5 0;
#X connect 6 1 7 1;
#X connect 7 0 8 0;
#X connect 8 0 14 0;
#X connect 9 0 3 0;
#X connect 10 0 18 0;
#X connect 11 0 9 0;
#X connect 11 1 2 0;
#X connect 11 2 18 1;
#X connect 14 0 15 0;
#X connect 15 0 20 0;
#X connect 16 0 19 0;
#X connect 18 0 6 0;
#X connect 19 0 11 0;
#X connect 21 0 16 0;
#X connect 22 0 24 0;
#X connect 23 0 25 0;
#X connect 24 0 16 0;
#X connect 25 0 26 0;
#X connect 25 1 26 1;
#X connect 26 0 24 1;
#X restore 317 540 pd make-table;
#X obj 75 165 *~ 197;
#X text 86 567 0-100 dB \, 200 points;
#X obj 75 231 dbtorms~;
#X obj 75 145 wrap~;
#X obj 75 114 +~ 0.5;
#X obj 460 307 *~;
#X obj 560 307 *~;
#X obj 460 336 throw~ out-5;
#X obj 560 336 throw~ out-6;
#X obj 660 307 *~;
#X obj 760 307 *~;
#X obj 660 336 throw~ out-7;
#X obj 760 336 throw~ out-8;
#X obj 235 186 +~ 1;
#X obj 235 165 *~ 197;
#X obj 235 231 dbtorms~;
#X obj 235 145 wrap~;
#X obj 395 186 +~ 1;
#X obj 395 165 *~ 197;
#X obj 395 231 dbtorms~;
#X obj 395 145 wrap~;
#X obj 555 186 +~ 1;
#X obj 555 165 *~ 197;
#X obj 555 231 dbtorms~;
#X obj 555 145 wrap~;
#X obj 715 186 +~ 1;
#X obj 715 165 *~ 197;
#X obj 715 231 dbtorms~;
#X obj 715 145 wrap~;
#X obj 875 186 +~ 1;
#X obj 875 165 *~ 197;
#X obj 875 231 dbtorms~;
#X obj 875 145 wrap~;
#X obj 1035 186 +~ 1;
#X obj 1035 165 *~ 197;
#X obj 1035 231 dbtorms~;
#X obj 1035 145 wrap~;
#X obj 1195 186 +~ 1;
#X obj 1195 165 *~ 197;
#X obj 1195 231 dbtorms~;
#X obj 1195 145 wrap~;
#X obj 715 114 +~ 0;
#X obj 555 114 +~ 0.125;
#X obj 395 114 +~ 0.25;
#X obj 235 114 +~ 0.375;
#X obj 1195 114 +~ 0.625;
#X obj 1035 114 +~ 0.75;
#X obj 875 114 +~ 0.875;
#X text 709 460 \$1: symbolic name of plugin;
#X obj 60 277 r~ \$1-output;
#X obj 75 210 tabread4~ \$0-spat-curve;
#X obj 235 210 tabread4~ \$0-spat-curve;
#X obj 395 210 tabread4~ \$0-spat-curve;
#X obj 555 210 tabread4~ \$0-spat-curve;
#X obj 715 210 tabread4~ \$0-spat-curve;
#X obj 875 210 tabread4~ \$0-spat-curve;
#X obj 1035 210 tabread4~ \$0-spat-curve;
#X obj 1195 210 tabread4~ \$0-spat-curve;
#X obj 317 402 r master-output-stereo-mode;
#X obj 341 477 r \$1-spat-width;
#X obj 317 503 f;
#X obj 317 423 select 0 1;
#X obj 466 467 f \$0;
#X msg 466 488 \; \$1-spat-curve const 0 \;;
#X obj 554 35 r~ \$1-spat-pos-sig;
#X connect 0 0 61 0;
#X connect 1 0 5 0;
#X connect 2 0 6 0;
#X connect 3 0 7 0;
#X connect 4 0 8 0;
#X connect 11 0 0 0;
#X connect 13 0 1 1;
#X connect 14 0 11 0;
#X connect 15 0 14 0;
#X connect 16 0 18 0;
#X connect 17 0 19 0;
#X connect 20 0 22 0;
#X connect 21 0 23 0;
#X connect 24 0 62 0;
#X connect 25 0 24 0;
#X connect 26 0 2 1;
#X connect 27 0 25 0;
#X connect 28 0 63 0;
#X connect 29 0 28 0;
#X connect 30 0 3 1;
#X connect 31 0 29 0;
#X connect 32 0 64 0;
#X connect 33 0 32 0;
#X connect 34 0 4 1;
#X connect 35 0 33 0;
#X connect 36 0 65 0;
#X connect 37 0 36 0;
#X connect 38 0 16 1;
#X connect 39 0 37 0;
#X connect 40 0 66 0;
#X connect 41 0 40 0;
#X connect 42 0 17 1;
#X connect 43 0 41 0;
#X connect 44 0 67 0;
#X connect 45 0 44 0;
#X connect 46 0 20 1;
#X connect 47 0 45 0;
#X connect 48 0 68 0;
#X connect 49 0 48 0;
#X connect 50 0 21 1;
#X connect 51 0 49 0;
#X connect 52 0 39 0;
#X connect 53 0 35 0;
#X connect 54 0 31 0;
#X connect 55 0 27 0;
#X connect 56 0 51 0;
#X connect 57 0 47 0;
#X connect 58 0 43 0;
#X connect 60 0 1 0;
#X connect 60 0 2 0;
#X connect 60 0 3 0;
#X connect 60 0 4 0;
#X connect 60 0 16 0;
#X connect 60 0 17 0;
#X connect 60 0 20 0;
#X connect 60 0 21 0;
#X connect 61 0 13 0;
#X connect 62 0 26 0;
#X connect 63 0 30 0;
#X connect 64 0 34 0;
#X connect 65 0 38 0;
#X connect 66 0 42 0;
#X connect 67 0 46 0;
#X connect 68 0 50 0;
#X connect 69 0 72 0;
#X connect 70 0 71 1;
#X connect 71 0 10 0;
#X connect 72 0 71 0;
#X connect 72 1 73 0;
#X connect 73 0 74 0;
#X connect 75 0 15 0;
#X connect 75 0 55 0;
#X connect 75 0 54 0;
#X connect 75 0 53 0;
#X connect 75 0 52 0;
#X connect 75 0 58 0;
#X connect 75 0 57 0;
#X connect 75 0 56 0;
