#N canvas 0 23 1077 543 12;
#X obj 95 28 r player-\$1-spat-pos;
#X obj 95 306 s~ player-\$1-spat-pos-sig;
#X obj 95 161 *~;
#X obj 672 45 r player-\$1-spat-lfo-freq;
#X obj 672 69 select 0;
#X msg 702 402 1 0;
#X obj 315 161 *~;
#X obj 315 127 phasor~;
#X msg 875 145 0 1;
#X obj 702 426 unpack f f;
#X obj 315 51 line~;
#X msg 782 364 0;
#X obj 401 142 spigot;
#X msg 455 106 0;
#X msg 495 106 1;
#X obj 405 362 snapshot~;
#X obj 741 98 t f b;
#X obj 702 332 t b b b b;
#X obj 405 478 s client-netsend-data-hub;
#X obj 401 43 r player-\$1-spat-pos;
#X floatatom 332 416 5 0 0 0 - - -;
#X floatatom 40 76 5 0 0 0 - - -;
#X obj 405 426 pack f \$1;
#X msg 405 454 send \$1 player-\$2-spat-pos-set;
#X obj 95 107 line~;
#X obj 95 52 pack f 50;
#X obj 315 27 pack f 50;
#X obj 702 188 timer;
#X obj 702 212 > 1000;
#X obj 748 151 metro 100;
#X floatatom 639 230 5 0 0 0 - - -;
#X obj 702 236 change;
#X obj 702 260 select 1;
#X obj 724 292 bng 15 250 50 0 empty empty empty 17 7 0 10 -262144
-1 -1;
#X floatatom 622 306 5 0 0 0 - - -;
#X msg 727 128 0;
#X msg 767 128 1;
#X obj 672 93 t b b;
#X obj 405 386 t f f;
#X text 75 396 This now works \, but I should document the steps of
the process going on here because there were lots of small details
needing attention., f 31;
#X connect 0 0 21 0;
#X connect 0 0 25 0;
#X connect 2 0 1 0;
#X connect 3 0 4 0;
#X connect 4 0 37 0;
#X connect 4 1 16 0;
#X connect 5 0 9 0;
#X connect 6 0 1 0;
#X connect 7 0 6 0;
#X connect 7 0 15 0;
#X connect 8 0 9 0;
#X connect 9 0 2 1;
#X connect 9 1 6 1;
#X connect 10 0 7 0;
#X connect 11 0 26 0;
#X connect 12 0 7 1;
#X connect 13 0 12 1;
#X connect 14 0 12 1;
#X connect 15 0 20 0;
#X connect 15 0 38 0;
#X connect 16 0 26 0;
#X connect 16 1 8 0;
#X connect 16 1 13 0;
#X connect 16 1 35 0;
#X connect 17 0 5 0;
#X connect 17 1 14 0;
#X connect 17 2 15 0;
#X connect 17 3 11 0;
#X connect 17 3 35 0;
#X connect 19 0 12 0;
#X connect 22 0 23 0;
#X connect 23 0 18 0;
#X connect 24 0 2 0;
#X connect 25 0 24 0;
#X connect 26 0 10 0;
#X connect 27 0 28 0;
#X connect 27 0 30 0;
#X connect 28 0 31 0;
#X connect 29 0 27 1;
#X connect 31 0 32 0;
#X connect 31 0 34 0;
#X connect 32 0 33 0;
#X connect 32 0 17 0;
#X connect 35 0 29 0;
#X connect 36 0 29 0;
#X connect 37 0 36 0;
#X connect 37 1 27 0;
#X connect 38 0 22 0;
#X connect 38 1 24 0;
