#N canvas 973 226 715 674 10;
#X obj 75 236 +~ 1;
#X obj 60 357 *~;
#X obj 160 357 *~;
#X obj 60 406 throw~ out-1;
#X obj 160 406 throw~ out-2;
#N canvas 0 22 450 300 (subpatch) 0;
#X array \$0-spat-curve 200 float 2;
#X coords 0 100 200 0 200 140 1 0 0;
#X restore 60 462 graph;
#N canvas 189 89 548 624 make-table 0;
#X obj 81 486 f;
#X obj 119 486 + 1;
#X msg 99 456 0;
#X obj 81 418 until;
#X obj 334 352 t f f;
#X obj 334 449 * -1;
#X obj 334 425 t f f;
#X obj 334 470 *;
#X obj 334 491 exp;
#X msg 81 394 200;
#X obj 334 382 - 100;
#X obj 81 373 t b b f, f 29;
#X text 118 395 table length;
#X text 382 382 half table length;
#X obj 334 512 * 60;
#X obj 334 533 + 40;
#X obj 81 320 * 200;
#X text 128 322 table length;
#X obj 334 403 /;
#X obj 151 29 r \$1-spat-width;
#X obj 334 567 tabwrite \$0-spat-curve;
#X obj 81 19 inlet;
#X obj 211 50 r master-output-stereo-mode;
#X obj 151 50 spigot;
#X obj 152 284 t b f;
#X obj 152 250 + 200;
#X obj 81 125 t f b;
#X msg 108 156 200;
#X obj 152 222 * 1000;
#X obj 152 182 pow 2;
#X obj 152 161 / 0.2;
#X obj 152 140 - 0.8;
#X obj 81 104 moses 0.8;
#X text 213 142 The last 20% of the slider pushes the curve to totally
flat by exponentially increasing the divisor, f 15;
#X obj 81 341 max 4;
#X text 125 339 << minimum of 4 avoids gain loss at narrowest spat
width, f 32;
#X msg 13 258 0.799999;
#X connect 0 0 1 0;
#X connect 0 0 4 0;
#X connect 1 0 0 1;
#X connect 2 0 0 1;
#X connect 3 0 0 0;
#X connect 4 0 10 0;
#X connect 4 1 20 1;
#X connect 5 0 7 0;
#X connect 6 0 5 0;
#X connect 6 1 7 1;
#X connect 7 0 8 0;
#X connect 8 0 14 0;
#X connect 9 0 3 0;
#X connect 10 0 18 0;
#X connect 11 0 9 0;
#X connect 11 1 2 0;
#X connect 11 2 18 1;
#X connect 14 0 15 0;
#X connect 15 0 20 0;
#X connect 16 0 34 0;
#X connect 18 0 6 0;
#X connect 19 0 23 0;
#X connect 21 0 32 0;
#X connect 22 0 23 1;
#X connect 23 0 32 0;
#X connect 24 0 36 0;
#X connect 24 1 16 1;
#X connect 25 0 24 0;
#X connect 26 0 16 0;
#X connect 26 1 27 0;
#X connect 27 0 16 1;
#X connect 28 0 25 0;
#X connect 29 0 28 0;
#X connect 30 0 29 0;
#X connect 31 0 30 0;
#X connect 32 0 26 0;
#X connect 32 1 31 0;
#X connect 34 0 11 0;
#X connect 36 0 16 0;
#X restore 285 540 pd make-table;
#X obj 75 215 *~ 197;
#X text 86 617 0-100 dB \, 200 points;
#X obj 75 281 dbtorms~;
#X obj 75 195 wrap~;
#X obj 75 164 +~ 0.5;
#X obj 235 236 +~ 1;
#X obj 235 215 *~ 197;
#X obj 235 281 dbtorms~;
#X obj 235 195 wrap~;
#X obj 235 164 +~ 0;
#X obj 60 327 r~ \$1-output;
#X obj 146 21 r~ \$1-spat-pos-sig;
#X text 291 486 \$1: player name \, e.g. \, player-0;
#X obj 285 325 r master-output-stereo-mode;
#X obj 75 260 tabread4~ \$0-spat-curve;
#X obj 235 260 tabread4~ \$0-spat-curve;
#X obj 309 430 r \$1-spat-width;
#X obj 285 456 f;
#X obj 434 420 f \$0;
#X msg 434 441 \; \$1-spat-curve const 0 \;;
#X obj 285 346 select 1 0;
#X text 295 78 maintain the spatialization wraparound effect here in
the stereo case. this means that 0 is hard left \, 0.5 is hard right
\, and transitioning toward 1 from there moves toward hard left again.
;
#X obj 70 386 s~ \$1-L;
#X obj 170 386 s~ \$1-R;
#X connect 0 0 21 0;
#X connect 1 0 3 0;
#X connect 1 0 29 0;
#X connect 2 0 4 0;
#X connect 2 0 30 0;
#X connect 7 0 0 0;
#X connect 9 0 1 1;
#X connect 10 0 7 0;
#X connect 11 0 10 0;
#X connect 12 0 22 0;
#X connect 13 0 12 0;
#X connect 14 0 2 1;
#X connect 15 0 13 0;
#X connect 16 0 15 0;
#X connect 17 0 1 0;
#X connect 17 0 2 0;
#X connect 18 0 11 0;
#X connect 18 0 16 0;
#X connect 20 0 27 0;
#X connect 21 0 9 0;
#X connect 22 0 14 0;
#X connect 23 0 24 1;
#X connect 24 0 6 0;
#X connect 25 0 26 0;
#X connect 27 0 24 0;
#X connect 27 1 25 0;
