#N canvas 242 23 1391 675 10;
#X obj 75 236 +~ 1;
#X obj 60 357 *~;
#X obj 160 357 *~;
#X obj 260 357 *~;
#X obj 360 357 *~;
#X obj 60 386 throw~ out-1;
#X obj 160 386 throw~ out-2;
#X obj 260 386 throw~ out-3;
#X obj 360 386 throw~ out-4;
#N canvas 0 22 450 300 (subpatch) 0;
#X array \$1-spat-curve 200 float 2;
#X coords 0 100 200 0 200 140 1;
#X restore 60 462 graph;
#N canvas 486 265 399 581 make-table 0;
#X obj 81 226 f;
#X obj 119 226 + 1;
#X msg 99 196 0;
#X obj 81 158 until;
#X obj 81 267 t f f;
#X obj 81 364 * -1;
#X obj 81 340 t f f;
#X obj 81 385 *;
#X obj 81 406 exp;
#X msg 81 134 200;
#X obj 81 297 - 100;
#X obj 81 113 t b b f, f 29;
#X text 118 135 table length;
#X text 129 297 half table length;
#X obj 81 427 * 60;
#X obj 81 448 + 40;
#X obj 81 482 tabwrite \$1-spat-curve;
#X obj 81 60 * 200;
#X text 128 62 table length;
#X obj 81 318 /;
#X obj 81 81 max 1;
#X obj 81 39 r \$1-spat-width;
#X connect 0 0 1 0;
#X connect 0 0 4 0;
#X connect 1 0 0 1;
#X connect 2 0 0 1;
#X connect 3 0 0 0;
#X connect 4 0 10 0;
#X connect 4 1 16 1;
#X connect 5 0 7 0;
#X connect 6 0 5 0;
#X connect 6 1 7 1;
#X connect 7 0 8 0;
#X connect 8 0 14 0;
#X connect 9 0 3 0;
#X connect 10 0 19 0;
#X connect 11 0 9 0;
#X connect 11 1 2 0;
#X connect 11 2 19 1;
#X connect 14 0 15 0;
#X connect 15 0 16 0;
#X connect 17 0 20 0;
#X connect 19 0 6 0;
#X connect 20 0 11 0;
#X connect 21 0 17 0;
#X restore 285 540 pd make-table;
#X obj 75 215 *~ 197;
#X text 86 617 0-100 dB \, 200 points;
#X obj 75 281 dbtorms~;
#X obj 75 260 tabread4~ \$1-spat-curve;
#X obj 75 195 wrap~;
#X obj 75 164 +~ 0.5;
#X obj 460 357 *~;
#X obj 560 357 *~;
#X obj 460 386 throw~ out-5;
#X obj 560 386 throw~ out-6;
#X obj 506 530 t f b;
#X obj 506 551 until;
#X obj 506 572 f;
#X obj 540 577 + 1;
#X msg 561 550 0;
#X obj 506 614 print;
#X msg 506 509 8;
#X obj 506 593 / 8;
#X obj 660 357 *~;
#X obj 760 357 *~;
#X obj 660 386 throw~ out-7;
#X obj 760 386 throw~ out-8;
#X obj 235 236 +~ 1;
#X obj 235 215 *~ 197;
#X obj 235 281 dbtorms~;
#X obj 235 260 tabread4~ \$1-spat-curve;
#X obj 235 195 wrap~;
#X obj 395 236 +~ 1;
#X obj 395 215 *~ 197;
#X obj 395 281 dbtorms~;
#X obj 395 260 tabread4~ \$1-spat-curve;
#X obj 395 195 wrap~;
#X obj 555 236 +~ 1;
#X obj 555 215 *~ 197;
#X obj 555 281 dbtorms~;
#X obj 555 260 tabread4~ \$1-spat-curve;
#X obj 555 195 wrap~;
#X obj 715 236 +~ 1;
#X obj 715 215 *~ 197;
#X obj 715 281 dbtorms~;
#X obj 715 260 tabread4~ \$1-spat-curve;
#X obj 715 195 wrap~;
#X obj 875 236 +~ 1;
#X obj 875 215 *~ 197;
#X obj 875 281 dbtorms~;
#X obj 875 260 tabread4~ \$1-spat-curve;
#X obj 875 195 wrap~;
#X obj 1035 236 +~ 1;
#X obj 1035 215 *~ 197;
#X obj 1035 281 dbtorms~;
#X obj 1035 260 tabread4~ \$1-spat-curve;
#X obj 1035 195 wrap~;
#X obj 1195 236 +~ 1;
#X obj 1195 215 *~ 197;
#X obj 1195 281 dbtorms~;
#X obj 1195 260 tabread4~ \$1-spat-curve;
#X obj 1195 195 wrap~;
#X obj 715 164 +~ 0;
#X obj 555 164 +~ 0.125;
#X obj 395 164 +~ 0.25;
#X obj 235 164 +~ 0.375;
#X obj 1195 164 +~ 0.625;
#X obj 1035 164 +~ 0.75;
#X obj 875 164 +~ 0.875;
#X obj 60 327 r~ \$1-tap-out;
#X obj 160 327 r~ \$1-tap-out;
#X obj 260 327 r~ \$1-tap-out;
#X obj 360 327 r~ \$1-tap-out;
#X obj 460 327 r~ \$1-tap-out;
#X obj 560 327 r~ \$1-tap-out;
#X obj 660 327 r~ \$1-tap-out;
#X obj 760 327 r~ \$1-tap-out;
#X text 858 536 \$1: symbolic name of plugin;
#N canvas 384 314 518 489 selector~ 0;
#X obj 122 327 outlet~;
#X obj 26 42 r~ player-0-spat-pos-sig;
#X obj 26 63 *~;
#X obj 272 256 select 0 1 2 3 4 5;
#X msg 272 277 1 0 0 0 0 0;
#X msg 292 297 0 1 0 0 0 0;
#X msg 312 317 0 0 1 0 0 0;
#X msg 332 337 0 0 0 1 0 0;
#X msg 352 357 0 0 0 0 1 0;
#X msg 372 377 0 0 0 0 0 1;
#X obj 66 93 *~;
#X obj 106 123 *~;
#X obj 146 153 *~;
#X obj 186 183 *~;
#X obj 226 213 *~;
#X obj 272 418 unpack f f f f f f;
#X obj 66 72 r~ player-1-spat-pos-sig;
#X obj 106 102 r~ player-2-spat-pos-sig;
#X obj 146 132 r~ player-3-spat-pos-sig;
#X obj 186 162 r~ player-4-spat-pos-sig;
#X obj 226 192 r~ player-5-spat-pos-sig;
#X obj 272 235 r \$1-spat-sig-source;
#X connect 1 0 2 0;
#X connect 2 0 0 0;
#X connect 3 0 4 0;
#X connect 3 1 5 0;
#X connect 3 2 6 0;
#X connect 3 3 7 0;
#X connect 3 4 8 0;
#X connect 3 5 9 0;
#X connect 4 0 15 0;
#X connect 5 0 15 0;
#X connect 6 0 15 0;
#X connect 7 0 15 0;
#X connect 8 0 15 0;
#X connect 9 0 15 0;
#X connect 10 0 0 0;
#X connect 11 0 0 0;
#X connect 12 0 0 0;
#X connect 13 0 0 0;
#X connect 14 0 0 0;
#X connect 15 0 2 1;
#X connect 15 1 10 1;
#X connect 15 2 11 1;
#X connect 15 3 12 1;
#X connect 15 4 13 1;
#X connect 15 5 14 1;
#X connect 16 0 10 0;
#X connect 17 0 11 0;
#X connect 18 0 12 0;
#X connect 19 0 13 0;
#X connect 20 0 14 0;
#X connect 21 0 3 0;
#X restore 555 85 pd selector~;
#X connect 0 0 14 0;
#X connect 1 0 5 0;
#X connect 2 0 6 0;
#X connect 3 0 7 0;
#X connect 4 0 8 0;
#X connect 11 0 0 0;
#X connect 13 0 1 1;
#X connect 14 0 13 0;
#X connect 15 0 11 0;
#X connect 16 0 15 0;
#X connect 17 0 19 0;
#X connect 18 0 20 0;
#X connect 21 0 22 0;
#X connect 21 1 25 0;
#X connect 22 0 23 0;
#X connect 23 0 24 0;
#X connect 23 0 28 0;
#X connect 24 0 23 1;
#X connect 25 0 23 1;
#X connect 27 0 21 0;
#X connect 28 0 26 0;
#X connect 29 0 31 0;
#X connect 30 0 32 0;
#X connect 33 0 36 0;
#X connect 34 0 33 0;
#X connect 35 0 2 1;
#X connect 36 0 35 0;
#X connect 37 0 34 0;
#X connect 38 0 41 0;
#X connect 39 0 38 0;
#X connect 40 0 3 1;
#X connect 41 0 40 0;
#X connect 42 0 39 0;
#X connect 43 0 46 0;
#X connect 44 0 43 0;
#X connect 45 0 4 1;
#X connect 46 0 45 0;
#X connect 47 0 44 0;
#X connect 48 0 51 0;
#X connect 49 0 48 0;
#X connect 50 0 17 1;
#X connect 51 0 50 0;
#X connect 52 0 49 0;
#X connect 53 0 56 0;
#X connect 54 0 53 0;
#X connect 55 0 18 1;
#X connect 56 0 55 0;
#X connect 57 0 54 0;
#X connect 58 0 61 0;
#X connect 59 0 58 0;
#X connect 60 0 29 1;
#X connect 61 0 60 0;
#X connect 62 0 59 0;
#X connect 63 0 66 0;
#X connect 64 0 63 0;
#X connect 65 0 30 1;
#X connect 66 0 65 0;
#X connect 67 0 64 0;
#X connect 68 0 52 0;
#X connect 69 0 47 0;
#X connect 70 0 42 0;
#X connect 71 0 37 0;
#X connect 72 0 67 0;
#X connect 73 0 62 0;
#X connect 74 0 57 0;
#X connect 75 0 1 0;
#X connect 76 0 2 0;
#X connect 77 0 3 0;
#X connect 78 0 4 0;
#X connect 79 0 17 0;
#X connect 80 0 18 0;
#X connect 81 0 29 0;
#X connect 82 0 30 0;
#X connect 84 0 16 0;
#X connect 84 0 71 0;
#X connect 84 0 70 0;
#X connect 84 0 69 0;
#X connect 84 0 68 0;
#X connect 84 0 74 0;
#X connect 84 0 73 0;
#X connect 84 0 72 0;
