#N canvas 669 31 724 693 10;
#X obj 75 236 +~ 1;
#X obj 60 357 *~;
#X obj 217 358 *~;
#X obj 60 386 throw~ out-1;
#X obj 217 387 throw~ out-2;
#N canvas 0 22 450 300 (subpatch) 0;
#X array \$1-spat-curve 200 float 2;
#X coords 0 100 200 0 200 140 1 0 0;
#X restore 60 462 graph;
#N canvas 921 310 399 514 make-table 1;
#X obj 81 186 f;
#X obj 119 186 + 1;
#X msg 99 156 0;
#X obj 81 118 until;
#X obj 81 227 t f f;
#X obj 81 324 * -1;
#X obj 81 300 t f f;
#X obj 81 345 *;
#X obj 81 366 exp;
#X msg 81 94 200;
#X obj 81 257 - 100;
#X obj 81 73 t b b f, f 29;
#X text 118 95 table length;
#X text 129 257 half table length;
#X obj 81 387 * 60;
#X obj 81 408 + 40;
#X obj 81 442 tabwrite \$1-spat-curve;
#X obj 81 30 * 200;
#X text 128 32 table length;
#X obj 81 278 /;
#X obj 81 9 r player-\$1-spat-width;
#X connect 0 0 1 0;
#X connect 0 0 4 0;
#X connect 1 0 0 1;
#X connect 2 0 0 1;
#X connect 3 0 0 0;
#X connect 4 0 10 0;
#X connect 4 1 16 1;
#X connect 5 0 7 0;
#X connect 6 0 5 0;
#X connect 6 1 7 1;
#X connect 7 0 8 0;
#X connect 8 0 14 0;
#X connect 9 0 3 0;
#X connect 10 0 19 0;
#X connect 11 0 9 0;
#X connect 11 1 2 0;
#X connect 11 2 19 1;
#X connect 14 0 15 0;
#X connect 15 0 16 0;
#X connect 17 0 11 0;
#X connect 19 0 6 0;
#X connect 20 0 17 0;
#X restore 285 540 pd make-table;
#X obj 75 215 *~ 197;
#X text 86 617 0-100 dB \, 200 points;
#X obj 75 281 dbtorms~;
#X obj 75 260 tabread4~ \$1-spat-curve;
#X obj 75 195 wrap~;
#X obj 75 94 pack f 50;
#X obj 75 116 line~;
#X obj 235 236 +~ 1;
#X obj 235 215 *~ 197;
#X obj 235 281 dbtorms~;
#X obj 235 260 tabread4~ \$1-spat-curve;
#X obj 235 195 wrap~;
#X obj 235 94 pack f 50;
#X obj 235 116 line~;
#X obj 75 164 +~ 0.5;
#X obj 235 164 +~ 0;
#X obj 148 172 snapshot~;
#X floatatom 148 193 5 0 0 0 - - -;
#X obj 455 104 tgl 15 0 empty empty empty 17 7 0 10 -262144 -1 -1 0
1;
#X obj 455 124 metro 100;
#X obj 308 172 snapshot~;
#X floatatom 308 193 5 0 0 0 - - -;
#X obj 75 48 * 0.5;
#X obj 235 48 * 0.5;
#X text 281 47 << special case scaling for stereo spatialization;
#X obj 217 328 r~ player-\$1-output;
#X obj 60 327 r~ player-\$1-output;
#X text 466 310 \$1: player ID number;
#X obj 235 17 r player-\$1-spat-pos;
#X obj 75 17 r player-\$1-spat-pos;
#X connect 0 0 10 0;
#X connect 1 0 3 0;
#X connect 2 0 4 0;
#X connect 7 0 0 0;
#X connect 9 0 1 1;
#X connect 10 0 9 0;
#X connect 10 0 23 0;
#X connect 11 0 7 0;
#X connect 12 0 13 0;
#X connect 13 0 21 0;
#X connect 14 0 17 0;
#X connect 15 0 14 0;
#X connect 16 0 2 1;
#X connect 17 0 16 0;
#X connect 17 0 27 0;
#X connect 18 0 15 0;
#X connect 19 0 20 0;
#X connect 20 0 22 0;
#X connect 21 0 11 0;
#X connect 22 0 18 0;
#X connect 23 0 24 0;
#X connect 25 0 26 0;
#X connect 26 0 23 0;
#X connect 26 0 27 0;
#X connect 27 0 28 0;
#X connect 29 0 12 0;
#X connect 30 0 19 0;
#X connect 32 0 2 0;
#X connect 33 0 1 0;
#X connect 35 0 30 0;
#X connect 36 0 29 0;
