#N canvas 540 97 341 300 12;
#X obj 37 37 inlet;
#X obj 37 74 t f b;
#X obj 87 148 / 60;
#X msg 87 107 44100;
#X obj 37 229 outlet;
#X obj 37 175 /;
#X text 172 66 convert a samplerate from [algo~] for use as a tempo
in OUTPUT. this is centered on a default sample rate of 44100 and base
tempo of 60, f 17;
#X connect 0 0 1 0;
#X connect 1 0 5 0;
#X connect 1 1 3 0;
#X connect 2 0 5 1;
#X connect 3 0 2 0;
#X connect 5 0 4 0;
