#N canvas 723 193 692 307 12;
#X obj 122 18 r player-\$1-time-sync;
#X obj 122 42 == \$2;
#X obj 122 66 select 1;
#X obj 122 173 r player-\$2-time-idx;
#X text 380 37 \$1: sync requestor's player ID \; \$2: this player
ID \;;
#X obj 59 137 bng 15 250 50 0 empty empty empty 17 7 0 10 -262144 -1
-1;
#X obj 122 265 s player-\$1-set-time-idx;
#X obj 122 128 s get-player-\$2-time-index;
#N canvas 0 23 450 300 oneFloat 0;
#X obj 37 55 inlet;
#X obj 37 118 outlet;
#X msg 83 44 0;
#X msg 123 44 1;
#X obj 123 22 inlet;
#X obj 37 76 spigot;
#X obj 37 97 t f b;
#X connect 0 0 5 0;
#X connect 2 0 5 1;
#X connect 3 0 5 1;
#X connect 4 0 3 0;
#X connect 5 0 6 0;
#X connect 6 0 1 0;
#X connect 6 1 2 0;
#X restore 122 230 pd oneFloat;
#X obj 122 90 t b b;
#X connect 0 0 1 0;
#X connect 1 0 2 0;
#X connect 2 0 9 0;
#X connect 3 0 8 0;
#X connect 8 0 6 0;
#X connect 9 0 5 0;
#X connect 9 0 7 0;
#X connect 9 1 8 1;
