#N canvas 88 171 789 446 12;
#X obj 122 18 r player-\$1-time-sync;
#X obj 122 42 == \$2;
#X obj 122 66 select 1;
#X text 380 37 \$1: sync requestor's player ID \; \$2: this player
ID \;;
#X obj 59 177 bng 15 250 50 0 empty empty empty 17 7 0 10 -262144 -1
-1;
#X obj 122 244 f;
#X text 392 160 Requested data goes to other abstraction instances
\, but to a cold inlet where it terminates. The exception is this instance
\, where the data stored in [f ] is banged through, f 32;
#X obj 122 90 t b b b;
#X obj 122 308 unpack f f;
#X obj 202 365 s player-\$1-set-interp-mu;
#X obj 122 268 pack f f;
#X obj 192 243 r player-\$2-interp-mu;
#X obj 202 138 s player-\$2-get-interp-mu;
#X obj 172 168 s player-\$2-get-time-index;
#X obj 152 213 r player-\$2-time-index;
#X obj 122 405 s player-\$1-set-time-index-set;
#X connect 0 0 1 0;
#X connect 1 0 2 0;
#X connect 2 0 7 0;
#X connect 5 0 10 0;
#X connect 7 0 4 0;
#X connect 7 0 5 0;
#X connect 7 1 13 0;
#X connect 7 2 12 0;
#X connect 8 0 15 0;
#X connect 8 1 9 0;
#X connect 10 0 8 0;
#X connect 11 0 10 1;
#X connect 14 0 5 1;
