#N canvas 1003 41 885 546 12;
#X obj 122 18 r player-\$1-time-sync;
#X obj 122 42 == \$2;
#X obj 122 66 select 1;
#X text 380 37 \$1: sync requestor's player ID \; \$2: this player
ID \;;
#X obj 59 177 bng 15 250 50 0 empty empty empty 17 7 0 10 -262144 -1
-1;
#X obj 122 308 unpack f f;
#X obj 212 365 s player-\$1-set-interp-mu;
#X obj 162 405 s player-\$1-set-time-index-set;
#X obj 122 488 s client-netsend-data-hub;
#X obj 122 434 pack f \$1;
#X obj 122 90 t b b;
#X obj 122 244 list;
#X obj 152 213 r player-\$2-time-index-and-mu;
#X text 452 160 Requested data goes to other abstraction instances
\, but to a cold inlet where it terminates. The exception is this instance
\, where the data stored in [list ] is banged through, f 32;
#X obj 172 168 s player-\$2-get-time-index-and-mu;
#X msg 122 464 send set \$1 player-\$2-set-time-index-set;
#X text 428 350 Set the interp mu and time index GUI control on the
master side immediately. Also use a non-triggering "set" message to
update the GUI control on the client side so that it's visible there.
;
#X connect 0 0 1 0;
#X connect 1 0 2 0;
#X connect 2 0 10 0;
#X connect 5 0 9 0;
#X connect 5 0 7 0;
#X connect 5 1 6 0;
#X connect 9 0 15 0;
#X connect 10 0 4 0;
#X connect 10 0 11 0;
#X connect 10 1 14 0;
#X connect 11 0 5 0;
#X connect 12 0 11 1;
#X connect 15 0 8 0;
