#N canvas 1204 494 373 420 10;
#X obj 53 40 inlet;
#X obj 253 40 inlet;
#X obj 115 359 outlet;
#X obj 253 61 t f f;
#X obj 237 232 &;
#X obj 237 253 swap 1;
#X obj 237 274 -;
#X obj 153 257 spigot;
#X obj 53 101 t b f f;
#X obj 115 326 f;
#X obj 153 217 |;
#X obj 128 105 tgl 15 0 empty empty empty 17 7 0 10 -262144 -1 -1 0
1;
#X obj 216 65 tgl 15 0 empty empty empty 17 7 0 10 -262144 -1 -1 1
1;
#X obj 244 311 tgl 15 0 empty empty empty 17 7 0 10 -262144 -1 -1 1
1;
#X obj 287 224 tgl 15 0 empty empty empty 17 7 0 10 -262144 -1 -1 0
1;
#X obj 119 227 tgl 15 0 empty empty empty 17 7 0 10 -262144 -1 -1 1
1;
#X obj 169 285 tgl 15 0 empty empty empty 17 7 0 10 -262144 -1 -1 1
1;
#X obj 53 61 f;
#X connect 0 0 17 0;
#X connect 1 0 3 0;
#X connect 3 0 10 1;
#X connect 3 0 12 0;
#X connect 3 1 4 1;
#X connect 4 0 5 0;
#X connect 4 0 14 0;
#X connect 5 0 6 0;
#X connect 5 1 6 1;
#X connect 6 0 7 1;
#X connect 6 0 9 1;
#X connect 6 0 13 0;
#X connect 7 0 9 1;
#X connect 7 0 16 0;
#X connect 8 0 9 0;
#X connect 8 1 10 0;
#X connect 8 2 4 0;
#X connect 8 2 11 0;
#X connect 9 0 2 0;
#X connect 10 0 7 0;
#X connect 10 0 15 0;
#X connect 17 0 8 0;
