#N canvas 315 232 1076 698 12;
#X obj 555 160 text define outputAlgorithms;
#X obj 498 56 bng 15 250 50 0 empty empty empty 17 7 0 10 -262144 -1
-1;
#X obj 498 76 t b b;
#X obj 476 206 text size outputAlgorithms;
#X floatatom 476 230 5 0 0 0 - - -;
#X msg 555 124 read -c outputAlgorithms.txt;
#X floatatom 73 192 5 0 99999 0 - - -;
#X obj 73 272 text get outputAlgorithms;
#X symbolatom 198 302 80 0 0 0 - - -;
#X obj 73 388 text search outputAlgorithms;
#X floatatom 73 412 5 0 0 0 - - -;
#X obj 45 148 bng 15 250 50 0 empty empty empty 17 7 0 10 -262144 -1
-1;
#X obj 73 149 f;
#X obj 103 153 + 1;
#X msg 172 121 0;
#X floatatom 167 31 5 0 0 0 - - -;
#X obj 73 215 t f f;
#X obj 73 493 !=;
#X obj 73 517 select 1;
#X obj 73 541 f;
#X obj 73 565 pack f f;
#X obj 73 435 t f f;
#X obj 60 102 until;
#X obj 65 9 bng 15 250 50 0 empty empty empty 17 7 0 10 -262144 -1
-1;
#X obj 65 29 f;
#X obj 58 65 t f b;
#X obj 170 474 + 1;
#X obj 221 472 + 1;
#X obj 73 589 swap;
#X obj 73 613 pack f f;
#X obj 73 637 print;
#X obj 409 446 text get outputAlgorithms;
#X symbolatom 409 481 80 0 0 0 - - -;
#X floatatom 396 382 5 0 0 0 - - -;
#X connect 1 0 2 0;
#X connect 2 0 3 0;
#X connect 2 1 5 0;
#X connect 3 0 4 0;
#X connect 3 0 24 1;
#X connect 5 0 0 0;
#X connect 6 0 16 0;
#X connect 7 0 8 0;
#X connect 7 0 9 0;
#X connect 9 0 10 0;
#X connect 10 0 21 0;
#X connect 11 0 12 0;
#X connect 12 0 13 0;
#X connect 12 0 6 0;
#X connect 13 0 12 1;
#X connect 14 0 12 1;
#X connect 15 0 12 1;
#X connect 16 0 7 0;
#X connect 16 1 17 1;
#X connect 16 1 27 0;
#X connect 17 0 18 0;
#X connect 18 0 19 0;
#X connect 19 0 20 0;
#X connect 20 0 28 0;
#X connect 21 0 17 0;
#X connect 21 1 26 0;
#X connect 22 0 12 0;
#X connect 23 0 24 0;
#X connect 24 0 25 0;
#X connect 25 0 22 0;
#X connect 25 1 14 0;
#X connect 26 0 19 1;
#X connect 27 0 20 1;
#X connect 28 0 29 0;
#X connect 28 1 29 1;
#X connect 29 0 30 0;
#X connect 31 0 32 0;
#X connect 33 0 31 0;
