#N canvas 1245 152 440 387 12;
#X obj 47 229 * 255;
#X obj 47 24 r player-\$1-gain;
#X obj 47 280 value player-\$1-draw-brightness;
#X obj 117 182 r draw-brightness-exp;
#X obj 117 206 t b f;
#X obj 47 48 select 40;
#X obj 107 97 / 100;
#X msg 47 72 0;
#X obj 47 182 pow 5;
#X connect 0 0 2 0;
#X connect 1 0 5 0;
#X connect 3 0 4 0;
#X connect 4 0 8 0;
#X connect 4 1 8 1;
#X connect 5 0 7 0;
#X connect 5 1 6 0;
#X connect 6 0 8 0;
#X connect 7 0 8 0;
#X connect 8 0 0 0;
