#N canvas 329 210 1203 597 12;
#X obj 68 488 *~;
#X obj 68 530 dac~;
#X obj 118 488 dbtorms;
#X floatatom 118 466 5 0 0 0 - - -;
#X obj 426 488 table \$0-plot 4410;
#X obj 249 472 tabwrite~ \$0-plot;
#X obj 282 411 tgl 15 0 empty empty empty 17 7 0 10 -262144 -1 -1 1
1;
#X obj 282 431 metro 100;
#X obj 282 338 loadbang;
#X msg 315 380 \; pd dsp 1 \;;
#X obj 68 363 hip~ 3;
#N canvas 1025 72 606 533 compressor 0;
#N canvas 0 50 450 250 (subpatch) 0;
#X array \$0-dynamic-curve 102 float 3;
#A 0 0 1 2 3 4 5 6 7 8 9 10 11 12 13 14 15 16 17 18 19 20 21 22 23
24 25 26 27 28 29 30 31 32 33 34 35 36 37 38 39 40 41 42 43 44 45 46
47 48 49 50 51 52 53 54 55 56 57 58 59 60 61 62 63 64 65 66 67 68 69
70 71 72 73 74 75 76 77 78 79 80 81 82 83 84 85 86 87 88 89 90 91 92
93 94 95 95.95 96.8 97.55 98.2 98.75 99.2;
#X coords 0 100 102 0 202 200 1 0 0;
#X restore 289 32 graph;
#N canvas 194 61 600 997 parameters 0;
#X obj 366 32 inlet;
#X obj 487 83 s \$0-speed;
#X obj 366 222 s \$0-limit;
#X obj 392 198 s \$0-knee;
#X obj 415 174 s \$0-boost;
#X obj 439 147 s \$0-ratio;
#X obj 366 57 unpack 0 0 0 0 0 0;
#X obj 462 116 s \$0-thresh;
#X obj 50 91 r \$0-limit;
#X obj 61 116 r \$0-knee;
#X obj 70 143 r \$0-boost;
#X obj 96 196 r \$0-thresh;
#X obj 82 167 r \$0-ratio;
#X obj 50 224 b;
#X obj 50 249 del 0;
#X obj 50 274 t b b;
#X obj 50 324 until;
#X obj 50 349 f;
#X obj 87 351 + 1;
#X msg 99 325 0;
#X obj 50 374 t f f;
#X obj 24 870 tabwrite \$0-dynamic-curve;
#X obj 193 708 moses;
#X obj 240 706 r \$0-thresh;
#X obj 407 554 r \$0-ratio;
#X obj 407 579 f;
#X obj 407 604 / 100;
#X obj 18 808 +;
#X msg 225 734 0;
#X obj 193 765 expr ($f1-$f2)*$f3;
#X obj 18 833 max 0;
#X obj 407 629 - 1;
#X obj 48 404 +;
#X obj 218 361 r \$0-boost;
#X obj 193 452 r \$0-limit;
#X obj 151 455 f;
#X obj 151 480 -;
#X obj 48 429 t f b;
#X obj 327 428 r \$0-knee;
#X obj 188 535 +;
#X obj 144 535 -;
#X obj 23 569 moses;
#X obj 71 569 moses;
#X obj 102 601 b;
#X obj 195 611 r \$0-limit;
#X obj 102 626 f;
#X obj 302 829 expr $f4 - ($f2-$f1)*($f2-$f1)/(4*$f3);
#X obj 23 594 +;
#X msg 50 299 102;
#X obj 327 453 f;
#X obj 327 478 / 2;
#X connect 0 0 6 0;
#X connect 6 0 2 0;
#X connect 6 1 3 0;
#X connect 6 2 4 0;
#X connect 6 3 5 0;
#X connect 6 4 7 0;
#X connect 6 5 1 0;
#X connect 8 0 13 0;
#X connect 9 0 13 0;
#X connect 10 0 13 0;
#X connect 11 0 13 0;
#X connect 12 0 13 0;
#X connect 13 0 14 0;
#X connect 14 0 15 0;
#X connect 15 0 48 0;
#X connect 15 1 19 0;
#X connect 16 0 17 0;
#X connect 17 0 18 0;
#X connect 17 0 20 0;
#X connect 18 0 17 1;
#X connect 19 0 17 1;
#X connect 20 0 32 0;
#X connect 20 1 21 1;
#X connect 20 1 22 0;
#X connect 22 0 29 0;
#X connect 22 1 28 0;
#X connect 23 0 22 1;
#X connect 23 0 29 1;
#X connect 24 0 25 0;
#X connect 25 0 26 0;
#X connect 26 0 31 0;
#X connect 27 0 30 0;
#X connect 28 0 27 1;
#X connect 29 0 27 1;
#X connect 30 0 21 0;
#X connect 31 0 29 2;
#X connect 32 0 37 0;
#X connect 33 0 32 1;
#X connect 33 0 36 1;
#X connect 33 0 47 1;
#X connect 34 0 35 1;
#X connect 35 0 36 0;
#X connect 36 0 39 0;
#X connect 36 0 40 0;
#X connect 37 0 41 0;
#X connect 37 1 35 0;
#X connect 38 0 49 0;
#X connect 39 0 42 1;
#X connect 39 0 46 1;
#X connect 40 0 41 1;
#X connect 41 0 47 0;
#X connect 41 1 42 0;
#X connect 42 0 46 0;
#X connect 42 1 43 0;
#X connect 43 0 45 0;
#X connect 44 0 45 1;
#X connect 44 0 46 3;
#X connect 45 0 27 0;
#X connect 46 0 27 0;
#X connect 47 0 27 0;
#X connect 48 0 16 0;
#X connect 49 0 50 0;
#X connect 50 0 40 1;
#X connect 50 0 39 1;
#X connect 50 0 46 2;
#X restore 303 432 pd parameters;
#N canvas 354 210 617 518 run-compander 0;
#X obj 47 56 inlet~;
#X obj 83 134 slop~ 0 0 0 0 1e+09;
#X obj 160 32 r \$0-speed;
#X obj 160 57 f;
#X obj 160 82 / 10;
#X obj 83 98 abs~;
#X obj 111 252 tabread4~ \$0-dynamic-curve;
#X obj 80 294 -~;
#X obj 80 319 +~ 100;
#X obj 80 344 dbtorms~;
#X obj 81 222 rmstodb~;
#X obj 45 384 *~;
#X obj 45 409 outlet~;
#X text 145 288 "correct" the level by applying a gain calculated from
the difference between the measured and desired level, f 27;
#X connect 0 0 5 0;
#X connect 0 0 11 0;
#X connect 1 0 10 0;
#X connect 2 0 3 0;
#X connect 3 0 4 0;
#X connect 4 0 1 3;
#X connect 5 0 1 0;
#X connect 6 0 7 0;
#X connect 7 0 8 0;
#X connect 8 0 9 0;
#X connect 9 0 11 1;
#X connect 10 0 7 1;
#X connect 10 0 6 0;
#X connect 11 0 12 0;
#X restore 48 172 pd run-compander;
#X obj 48 193 outlet~;
#X obj 48 123 inlet~;
#X obj 303 362 loadbang;
#X msg 303 389 100 10 0 100 0 50;
#X connect 2 0 3 0;
#X connect 4 0 2 0;
#X connect 5 0 6 0;
#X connect 6 0 1 0;
#X restore 68 385 pd compressor;
#X obj 118 512 pack f 40;
#X obj 118 536 line~;
#N canvas 895 120 822 496 settings 0;
#X floatatom 200 205 10 1 32 0 - - -;
#X obj 200 142 loadbang;
#X msg 200 228 bitDepth \$1;
#X msg 70 242 tempo \$1;
#X obj 510 84 bng 15 250 50 0 empty empty empty 17 7 0 10 -262144 -1
-1;
#X msg 547 131 0;
#X obj 510 104 random 1.67772e+07;
#X msg 374 147 getTimeIndex;
#X msg 510 195 setTimeIndex \$1;
#X floatatom 70 195 10 1 240 0 - - -;
#X msg 601 321 algoChoice \$1;
#X obj 70 122 loadbang;
#X obj 70 326 s \$0-algo-A;
#X obj 374 297 s \$0-algo-A;
#X obj 601 375 s \$0-algo-A;
#X msg 597 141 4.29492e+09;
#X msg 561 66 742816;
#X msg 657 50 1.00547e+06;
#X floatatom 594 288 5 0 23 0 - - -;
#X msg 140 151 30;
#X msg 70 151 10.883;
#X msg 240 172 24;
#X msg 200 172 8;
#X connect 0 0 2 0;
#X connect 1 0 22 0;
#X connect 2 0 12 0;
#X connect 3 0 12 0;
#X connect 4 0 6 0;
#X connect 5 0 8 0;
#X connect 6 0 8 0;
#X connect 7 0 13 0;
#X connect 8 0 13 0;
#X connect 9 0 3 0;
#X connect 10 0 14 0;
#X connect 11 0 20 0;
#X connect 15 0 8 0;
#X connect 17 0 8 0;
#X connect 18 0 10 0;
#X connect 19 0 9 0;
#X connect 20 0 9 0;
#X connect 21 0 0 0;
#X connect 22 0 0 0;
#X restore 260 177 pd settings;
#N canvas 1231 176 355 332 more-settings 0;
#X msg 195 192 print;
#X obj 60 56 tgl 15 0 empty empty empty 17 7 0 10 -262144 -1 -1 0 1
;
#X msg 60 76 interpolate \$1;
#X obj 133 123 tgl 15 0 empty empty empty 17 7 0 10 -262144 -1 -1 0
1;
#X msg 133 143 compute \$1;
#X obj 60 241 s \$0-algo-A;
#X connect 0 0 5 0;
#X connect 1 0 2 0;
#X connect 2 0 5 0;
#X connect 3 0 4 0;
#X connect 4 0 5 0;
#X restore 260 207 pd more-settings;
#X floatatom 490 222 5 0 0 0 - - -;
#X floatatom 540 222 5 0 0 0 - - -;
#X obj 540 245 t b f;
#X floatatom 590 222 5 0 0 0 - - -;
#X obj 590 245 t b f;
#X floatatom 640 222 5 0 0 0 - - -;
#X obj 640 245 t b f;
#X obj 490 116 loadbang;
#X floatatom 690 222 5 0 0 0 - - -;
#X obj 690 245 t b f;
#X floatatom 740 222 5 0 0 0 - - -;
#X obj 740 245 t b f;
#N canvas 756 47 933 634 player-B 0;
#X obj 68 488 *~;
#X obj 68 530 dac~;
#X obj 118 488 dbtorms;
#X floatatom 118 466 5 0 0 0 - - -;
#X obj 68 363 hip~ 3;
#N canvas 1025 72 606 533 compressor 0;
#N canvas 194 61 600 997 parameters 0;
#X obj 366 32 inlet;
#X obj 487 83 s \$0-speed;
#X obj 366 222 s \$0-limit;
#X obj 392 198 s \$0-knee;
#X obj 415 174 s \$0-boost;
#X obj 439 147 s \$0-ratio;
#X obj 366 57 unpack 0 0 0 0 0 0;
#X obj 462 116 s \$0-thresh;
#X obj 50 91 r \$0-limit;
#X obj 61 116 r \$0-knee;
#X obj 70 143 r \$0-boost;
#X obj 96 196 r \$0-thresh;
#X obj 82 167 r \$0-ratio;
#X obj 50 224 b;
#X obj 50 249 del 0;
#X obj 50 274 t b b;
#X obj 50 324 until;
#X obj 50 349 f;
#X obj 87 351 + 1;
#X msg 99 325 0;
#X obj 50 374 t f f;
#X obj 24 870 tabwrite \$0-dynamic-curve;
#X obj 193 708 moses;
#X obj 240 706 r \$0-thresh;
#X obj 407 554 r \$0-ratio;
#X obj 407 579 f;
#X obj 407 604 / 100;
#X obj 18 808 +;
#X msg 225 734 0;
#X obj 193 765 expr ($f1-$f2)*$f3;
#X obj 18 833 max 0;
#X obj 407 629 - 1;
#X obj 48 404 +;
#X obj 218 361 r \$0-boost;
#X obj 193 452 r \$0-limit;
#X obj 151 455 f;
#X obj 151 480 -;
#X obj 48 429 t f b;
#X obj 327 428 r \$0-knee;
#X obj 188 535 +;
#X obj 144 535 -;
#X obj 23 569 moses;
#X obj 71 569 moses;
#X obj 102 601 b;
#X obj 195 611 r \$0-limit;
#X obj 102 626 f;
#X obj 302 829 expr $f4 - ($f2-$f1)*($f2-$f1)/(4*$f3);
#X obj 23 594 +;
#X msg 50 299 102;
#X obj 327 453 f;
#X obj 327 478 / 2;
#X connect 0 0 6 0;
#X connect 6 0 2 0;
#X connect 6 1 3 0;
#X connect 6 2 4 0;
#X connect 6 3 5 0;
#X connect 6 4 7 0;
#X connect 6 5 1 0;
#X connect 8 0 13 0;
#X connect 9 0 13 0;
#X connect 10 0 13 0;
#X connect 11 0 13 0;
#X connect 12 0 13 0;
#X connect 13 0 14 0;
#X connect 14 0 15 0;
#X connect 15 0 48 0;
#X connect 15 1 19 0;
#X connect 16 0 17 0;
#X connect 17 0 18 0;
#X connect 17 0 20 0;
#X connect 18 0 17 1;
#X connect 19 0 17 1;
#X connect 20 0 32 0;
#X connect 20 1 21 1;
#X connect 20 1 22 0;
#X connect 22 0 29 0;
#X connect 22 1 28 0;
#X connect 23 0 22 1;
#X connect 23 0 29 1;
#X connect 24 0 25 0;
#X connect 25 0 26 0;
#X connect 26 0 31 0;
#X connect 27 0 30 0;
#X connect 28 0 27 1;
#X connect 29 0 27 1;
#X connect 30 0 21 0;
#X connect 31 0 29 2;
#X connect 32 0 37 0;
#X connect 33 0 32 1;
#X connect 33 0 36 1;
#X connect 33 0 47 1;
#X connect 34 0 35 1;
#X connect 35 0 36 0;
#X connect 36 0 39 0;
#X connect 36 0 40 0;
#X connect 37 0 41 0;
#X connect 37 1 35 0;
#X connect 38 0 49 0;
#X connect 39 0 42 1;
#X connect 39 0 46 1;
#X connect 40 0 41 1;
#X connect 41 0 47 0;
#X connect 41 1 42 0;
#X connect 42 0 46 0;
#X connect 42 1 43 0;
#X connect 43 0 45 0;
#X connect 44 0 45 1;
#X connect 44 0 46 3;
#X connect 45 0 27 0;
#X connect 46 0 27 0;
#X connect 47 0 27 0;
#X connect 48 0 16 0;
#X connect 49 0 50 0;
#X connect 50 0 40 1;
#X connect 50 0 39 1;
#X connect 50 0 46 2;
#X restore 303 432 pd parameters;
#N canvas 354 210 617 518 run-compander 0;
#X obj 47 56 inlet~;
#X obj 83 134 slop~ 0 0 0 0 1e+09;
#X obj 160 32 r \$0-speed;
#X obj 160 57 f;
#X obj 160 82 / 10;
#X obj 83 98 abs~;
#X obj 111 252 tabread4~ \$0-dynamic-curve;
#X obj 80 294 -~;
#X obj 80 319 +~ 100;
#X obj 80 344 dbtorms~;
#X obj 81 222 rmstodb~;
#X obj 45 384 *~;
#X obj 45 409 outlet~;
#X text 145 288 "correct" the level by applying a gain calculated from
the difference between the measured and desired level, f 27;
#X connect 0 0 5 0;
#X connect 0 0 11 0;
#X connect 1 0 10 0;
#X connect 2 0 3 0;
#X connect 3 0 4 0;
#X connect 4 0 1 3;
#X connect 5 0 1 0;
#X connect 6 0 7 0;
#X connect 7 0 8 0;
#X connect 8 0 9 0;
#X connect 9 0 11 1;
#X connect 10 0 7 1;
#X connect 10 0 6 0;
#X connect 11 0 12 0;
#X restore 48 172 pd run-compander;
#X obj 48 193 outlet~;
#X obj 48 123 inlet~;
#X obj 303 362 loadbang;
#X msg 303 389 100 10 0 100 0 50;
#X connect 1 0 2 0;
#X connect 3 0 1 0;
#X connect 4 0 5 0;
#X connect 5 0 0 0;
#X restore 68 385 pd compressor;
#X obj 118 512 pack f 40;
#X obj 118 536 line~;
#X obj 173 257 bng 15 250 50 0 empty empty empty 17 7 0 10 -262144
-1 -1;
#X floatatom 135 312 20 1 32 0 - - -;
#X obj 68 227 outputAlgo~;
#X obj 173 277 print WRAP;
#X obj 68 174 r \$0-algo-B;
#X floatatom 490 222 5 0 0 0 - - -;
#X obj 490 309 list prepend parameters;
#X obj 490 333 list trim;
#X floatatom 540 222 5 0 0 0 - - -;
#X obj 540 245 t b f;
#X floatatom 590 222 5 0 0 0 - - -;
#X obj 590 245 t b f;
#X floatatom 640 222 5 0 0 0 - - -;
#X obj 640 245 t b f;
#X obj 490 116 loadbang;
#X msg 490 145 16 132 51 44;
#X obj 490 285 pack f f f f f f;
#X obj 490 177 unpack f f f f f f;
#X floatatom 690 222 5 0 0 0 - - -;
#X obj 690 245 t b f;
#X floatatom 740 222 5 0 0 0 - - -;
#X obj 740 245 t b f;
#X obj 490 377 s \$0-algo-B;
#N canvas 813 31 822 496 settings 0;
#X floatatom 200 205 10 1 32 0 - - -;
#X obj 200 142 loadbang;
#X msg 200 171 24;
#X msg 200 228 bitDepth \$1;
#X msg 70 242 tempo \$1;
#X obj 510 84 bng 15 250 50 0 empty empty empty 17 7 0 10 -262144 -1
-1;
#X msg 547 131 0;
#X obj 510 104 random 1.67772e+07;
#X msg 374 147 getTimeIndex;
#X msg 510 195 setTimeIndex \$1;
#X msg 597 141 4.294e+09;
#X floatatom 70 195 10 1 240 0 - - -;
#X obj 601 301 hradio 15 1 0 5 empty empty empty 0 -8 0 10 -262144
-1 -1 0;
#X msg 601 321 algoChoice \$1;
#X obj 70 142 loadbang;
#X msg 70 171 30;
#X obj 70 326 s \$0-algo-B;
#X obj 374 297 s \$0-algo-B;
#X obj 601 375 s \$0-algo-B;
#X obj 626 165 r set-B;
#X connect 0 0 3 0;
#X connect 1 0 2 0;
#X connect 2 0 0 0;
#X connect 3 0 16 0;
#X connect 4 0 16 0;
#X connect 5 0 7 0;
#X connect 6 0 9 0;
#X connect 7 0 9 0;
#X connect 8 0 17 0;
#X connect 9 0 17 0;
#X connect 10 0 9 0;
#X connect 11 0 4 0;
#X connect 12 0 13 0;
#X connect 13 0 18 0;
#X connect 14 0 15 0;
#X connect 15 0 11 0;
#X connect 19 0 9 0;
#X restore 356 429 pd settings;
#X connect 0 0 1 0;
#X connect 0 0 1 1;
#X connect 2 0 6 0;
#X connect 3 0 2 0;
#X connect 4 0 5 0;
#X connect 5 0 0 0;
#X connect 6 0 7 0;
#X connect 7 0 0 1;
#X connect 8 0 11 0;
#X connect 10 0 4 0;
#X connect 10 1 9 0;
#X connect 10 2 8 0;
#X connect 12 0 10 0;
#X connect 13 0 24 0;
#X connect 14 0 15 0;
#X connect 15 0 30 0;
#X connect 16 0 17 0;
#X connect 17 0 24 0;
#X connect 17 1 24 1;
#X connect 18 0 19 0;
#X connect 19 0 24 0;
#X connect 19 1 24 2;
#X connect 20 0 21 0;
#X connect 21 0 24 0;
#X connect 21 1 24 3;
#X connect 22 0 23 0;
#X connect 23 0 25 0;
#X connect 24 0 14 0;
#X connect 25 0 13 0;
#X connect 25 1 16 0;
#X connect 25 2 18 0;
#X connect 25 3 20 0;
#X connect 25 4 26 0;
#X connect 25 5 28 0;
#X connect 26 0 27 0;
#X connect 27 0 24 0;
#X connect 27 1 24 4;
#X connect 28 0 29 0;
#X connect 29 0 24 0;
#X connect 29 1 24 5;
#X restore 654 477 pd player-B;
#X msg 294 34 print;
#X obj 294 108 s \$0-algo-A;
#X obj 304 78 s \$0-algo-B;
#X text 348 32 check sync;
#N canvas 352 145 713 512 sub-block 0;
#X obj 173 257 bng 15 250 50 0 empty empty empty 17 7 0 10 -262144
-1 -1;
#X floatatom 135 312 20 1 32 0 - - -;
#X obj 68 227 outputAlgo~;
#X obj 173 277 print WRAP;
#X obj 68 173 r \$0-algo-A;
#X obj 121 338 s set-B;
#X obj 68 431 outlet~;
#X obj 357 73 loadbang;
#X obj 357 127 hradio 15 1 0 16 empty empty empty 0 -8 0 10 -262144
-1 -1 6;
#X obj 358 146 t b f;
#X msg 358 170 2;
#X obj 358 194 pow;
#X msg 357 97 6;
#X msg 358 248 set \$1 1 1;
#X obj 358 272 block~ 64 1 1;
#X floatatom 378 218 10 0 0 0 - - -;
#X connect 0 0 3 0;
#X connect 2 0 6 0;
#X connect 2 1 1 0;
#X connect 2 1 5 0;
#X connect 2 2 0 0;
#X connect 4 0 2 0;
#X connect 7 0 12 0;
#X connect 8 0 9 0;
#X connect 9 0 10 0;
#X connect 9 1 11 1;
#X connect 10 0 11 0;
#X connect 11 0 13 0;
#X connect 11 0 15 0;
#X connect 12 0 8 0;
#X connect 13 0 14 0;
#X restore 68 239 pd sub-block;
#X msg 490 145 0 0 0 0 0 0 0 0 0 0;
#X obj 490 177 unpack f f f f f f f f f f;
#X floatatom 790 222 5 0 0 0 - - -;
#X obj 790 245 t b f;
#X floatatom 840 222 5 0 0 0 - - -;
#X obj 840 245 t b f;
#X floatatom 890 222 5 0 0 0 - - -;
#X obj 890 245 t b f;
#X floatatom 940 222 5 0 0 0 - - -;
#X obj 940 245 t b f;
#X obj 527 373 list prepend parameters;
#X obj 527 397 list trim;
#X obj 527 441 s \$0-algo-A;
#X obj 527 349 pack f f f f f f f f f f;
#X connect 0 0 1 0;
#X connect 0 0 1 1;
#X connect 2 0 12 0;
#X connect 3 0 2 0;
#X connect 6 0 7 0;
#X connect 7 0 5 0;
#X connect 8 0 6 0;
#X connect 8 0 9 0;
#X connect 10 0 11 0;
#X connect 11 0 5 0;
#X connect 11 0 0 0;
#X connect 12 0 13 0;
#X connect 13 0 0 1;
#X connect 16 0 47 0;
#X connect 17 0 18 0;
#X connect 18 0 47 0;
#X connect 18 1 47 1;
#X connect 19 0 20 0;
#X connect 20 0 47 0;
#X connect 20 1 47 2;
#X connect 21 0 22 0;
#X connect 22 0 47 0;
#X connect 22 1 47 3;
#X connect 23 0 34 0;
#X connect 24 0 25 0;
#X connect 25 0 47 0;
#X connect 25 1 47 4;
#X connect 26 0 27 0;
#X connect 27 0 47 0;
#X connect 27 1 47 5;
#X connect 29 0 30 0;
#X connect 29 0 31 0;
#X connect 33 0 10 0;
#X connect 34 0 35 0;
#X connect 35 0 16 0;
#X connect 35 1 17 0;
#X connect 35 2 19 0;
#X connect 35 3 21 0;
#X connect 35 4 24 0;
#X connect 35 5 26 0;
#X connect 35 6 36 0;
#X connect 35 7 38 0;
#X connect 35 8 40 0;
#X connect 35 9 42 0;
#X connect 36 0 37 0;
#X connect 37 0 47 0;
#X connect 37 1 47 6;
#X connect 38 0 39 0;
#X connect 39 0 47 0;
#X connect 39 1 47 7;
#X connect 40 0 41 0;
#X connect 41 0 47 0;
#X connect 41 1 47 8;
#X connect 42 0 43 0;
#X connect 43 0 47 0;
#X connect 43 1 47 9;
#X connect 44 0 45 0;
#X connect 45 0 46 0;
#X connect 47 0 44 0;
